<?xml version="1.0" encoding="utf-8"?>
<!-- Generator: Adobe Illustrator 24.0.1, SVG Export Plug-In . SVG Version: 6.00 Build 0)  -->
<svg version="1.1" id="Layer_1" xmlns="http://www.w3.org/2000/svg" xmlns:xlink="http://www.w3.org/1999/xlink" x="0px" y="0px"
	 viewBox="0 0 800 800" style="enable-background:new 0 0 800 800;" xml:space="preserve">
<style type="text/css">
	.st0{fill:#FFFFFF;}
</style>
<path id="white" class="st0" d="M552.2,365.7c-20.4-8.9-45.1-0.5-45.1-0.5l-28.5,4.8l2.6-12.8l6.8-19.6l18.7-22.6l21.8-27.8
	l15.9-17.5l17.6-34.1c0,0-2.2-22.4-12.7-40.7c-10.5-18.3-33.5-17-46.3-17.1c-12.8-0.1-51.2,34.9-51.2,34.9l-36.7,49.1l-5.4,13
	l-25.6,28.1l-3.7,18l14.6,23.6l29.2,12.6h19.2v0l-1.3,19.9l-8.2,2.3l-21.4,8.3l-17.8,25.9l-33.4,21.3l-25.7-1.4l-4.2-3
	c-2.3,2.9-4.6,5.8-7.2,8.4c-2.1,2.1-4.6,3.8-7.1,5.4c-2.6,1.7-5.3,3.3-7.8,5.1l-0.1,0.1l14.8,10.9l22,3.2l25.6-7l27.1-14.9
	c0,0-30.5,35.8-31.7,79.6c-51.4,41.1-123.1,104.4-123.1,104.4c-0.4,9.3,5,14,3.9,23.3c-0.5,4.3,15,4.1,14.6,8.5l124.9-110.5
	c32,6.8,46.2,3.2,46.2,3.2l41.8-6.6c1.5-10.7,5.5-18,4.6-25.7l0.8-3.7l-5.9-22.9l-0.1-20l11.8-43.2l4.7-30.6l16.5-6.8l30.1-1
	c0,0,13.9,1.5,18.9,10s6.1,45.5,19.9,46.9S622.4,396.4,552.2,365.7z"/>
<g id="black">
	<path d="M449.1,424.2c-0.7,1.9,0.2,2.5,1.9,2.5c0.6,0,6.1-0.7,8.9-2.1c3-1.5,2-3,1.7-3.4c-0.3-0.4-2.5-1.8-5.2-1.7
		C453.1,419.6,449.8,422.3,449.1,424.2z"/>
	<path d="M417.7,424.5c1.3,1.1,2-0.1,2.2-0.5c0.2-0.4,0.7-2.2,0.3-3.7c-0.6-1.8-2.6-2.6-3.8-2.2c-1.2,0.4-1.4,1.2-1.2,2.2
		C415.3,420.7,416.4,423.5,417.7,424.5z"/>
	<path d="M410.3,478.7c-0.5,0.5-0.6,1.2-0.7,1.9c0,0.4-0.1,0.7,0.1,1.3c0,0.1,0.1,0.3,0.2,0.5c0,0.1,0.1,0.3,0.2,0.4
		c0.1,0.1,0.3,0.3,0.4,0.5c0.2,0.2,0.5,0.4,0.9,0.5c0.4,0.1,0.8,0.2,1.1,0.1c0.4-0.1,0.6-0.1,0.8-0.3c0.3-0.1,0.3-0.2,0.5-0.3
		c0.5-0.4,0.6-0.6,0.7-0.8c0.1-0.2,0.2-0.4,0.3-0.5c0.2-0.4,0.4-0.9,0.4-1.3c0.1-0.9,0-1.6-0.1-2.2c-0.2-0.7-0.4-1.2-0.7-1.7
		s-0.7-0.9-1.2-1.3c-0.5-0.3-1-0.6-1.8-0.7c-0.1,0-0.2,0-0.3,0.2c-0.2,0.7-0.3,1.2-0.4,1.8c-0.1,0.5-0.1,1,0,1.3c0,0.1,0,0.1,0,0.2
		C410.5,478.4,410.4,478.6,410.3,478.7z M413.9,480.2c0,0,0,0.1,0,0.3c0.1,0,0.1,0.1,0,0c0.1,0.2,0,0.1,0,0c0-0.1-0.1-0.3-0.1-0.4
		C413.8,480.1,413.8,480.2,413.9,480.2z"/>
	<path d="M601.2,678c-39.1-1.8-75.8,1.2-75.8,1.2c-20.9,0.7-46.1,1.6-76.1,2.5c0,0-158.6,2.4-248.7,9c-18.4,1.3-27.7,3.8-27.7,6.4
		c0,10.3,112.6,26.6,234.6,23.1c121.9-3.6,207-25.7,207-36C614.6,680.6,610.7,678.4,601.2,678z"/>
	<path d="M556,410.8c1.5,13,2.7,13.9,5,12.8c2.3-1.1,7.5-4,3.4-17c-1.2-2.4-2.6-4.6-4.3-6.7c-1.6-2-3.6-3.8-5.7-5.4
		c-4.2-3.2-8.9-5.2-13.7-6.5c-4.8-1.4-9.6-2-14.4-2.2c-1.2-0.1-2.5-0.1-3.7-0.1c-9.7-0.7-18.6,1-23.8,2.8c-4.7,1.6-9.2,3.6-13.6,6
		c-2.2,1.2-4.3,2.3-6.1,4.1c-0.9,0.9-1.8,1.8-2.5,2.9c-0.7,1.1-1.4,2.3-1.8,3.8c1.5,0.1,2.8,0,4.1-0.1c1.3-0.2,2.4-0.4,3.6-0.7
		c1.1-0.3,2.2-0.7,3.3-1.2c0.5-0.2,1-0.5,1.5-0.7c-0.3,5.3-1.1,10.7-2.3,16c-1.6,7.4-3.9,14.7-6.2,22c-1.2,3.7-2.4,7.4-3.5,11.1
		c-1.1,3.8-2.3,7.5-3.1,11.7c-0.7,4-1.3,7.9-1.5,11.8c-0.2,2-0.3,4-0.2,6c0,1,0,2,0.1,3c0.1,1,0.1,2,0.3,3.2c0,0.3,0.1,0.5,0.2,0.8
		l0.1,0.3c1.8,4.8,3.3,9.7,4.3,14.7s1.6,10,1.6,14.9c-0.1,5-0.8,9.9-2.2,14.5c-0.7,2.3-1.6,4.6-2.6,6.8c-0.5,1.1-1.1,2.2-1.7,3.2
		c-0.3,0.5-0.6,1-1,1.5l-0.5,0.7l-0.4,0.6l-0.3,0.4c-0.3,0.4-0.5,0.9-0.6,1.3c1.1-0.2,1.9,3.8,3,3.6c2-0.4,4-2.1,6.3-5.4
		c0.7-1,1.3-1.9,1.9-2.9c1.5-2.5,2.7-5.2,3.6-7.9c0.9-2.7,1.6-5.5,2-8.4c0.4-2.8,0.6-5.7,0.6-8.5s-0.2-5.7-0.5-8.4
		c-0.2-1.4-0.4-2.8-0.7-4.1c-0.3-1.4-0.6-2.7-0.9-4.1c-1.3-5.2-3.1-10.2-5.4-15c0-0.7,0.1-1.5,0.1-2.2l0.2-2.8
		c0.2-1.9,0.4-3.7,0.5-5.6c0.4-3.7,0.9-7.5,1.6-11.2c0.7-3.5,1.8-7.1,2.9-10.8l3.5-11c2.4-7.4,4.6-15,6.3-22.7
		c1.4-6.7,2.4-13.6,2.3-20.7c2.3-0.9,4.2-2.8,16.2-5.2c2.9-0.6,5.6-1,8.2-1.3c2.1,0.1,4.2,0.2,6.3,0.4c4.4,0.4,8.6,1.2,12.6,2.6
		c4,1.4,7.7,3.3,10.7,5.8c3.1,2.5,5.3,5.7,6.8,9.2v0.1C555.9,410.6,556,410.7,556,410.8z"/>
	<path d="M333.5,438.6c2.5,1.2,5.2,2,7.9,2.2c1.2,0.1,2.4,0.1,3.6,0.1c25,0,43.3-19,64.3-43.6c13.6-16,27.6-14.4,28.1-14.3
		c0.4,0.1,0.8,0,1.1,0c-0.1,0.5-0.1,0.9-0.2,1.4c-0.1,0.6-0.1,1.3-0.1,2s0,1.4,0.1,2.2c0.1,0.8,0.2,1.6,0.5,2.5
		c0.9-0.4,1.6-0.9,2.2-1.5c0.6-0.6,1.1-1.2,1.6-1.9c0.4-0.7,0.8-1.4,1-2.2c0.2-0.8,0.4-1.5,0.6-2.3c0.7-3.1,0.9-6.2,1.1-9.1
		c0.2-2.3,0.3-9.8,0.5-13.6l0.9-0.1c1.5-0.3,3-0.6,4.5-1c6.7-1.6,13.1-4.1,19.2-7.1c3-1.5,6.1-3.2,9-5c-2.8,10.5-3,18.1-3,20.7
		c0,0.6-0.3,1.2-0.8,1.6c-1.8,1.2-3.4,2.6-4.9,4c-0.7,0.7-1.5,1.5-2.1,2.3l-1,1.2c-0.3,0.4-0.6,0.8-0.9,1.3c-0.5,0.9-1,1.9-1.2,3
		c-0.2,1.1-0.2,2.3,0,3.6c1.4-0.3,2.4-0.7,3.3-1.1c0.9-0.4,1.7-0.8,2.4-1.3c1.4-1.1,2.6-2.3,4.1-3.2c2.8-2,5.9-3.7,9.1-5.3
		c2.9-1.4,11-5.9,26.2-8c4.3-0.5,8.7-0.8,13-0.8h3.5c1.2,0,2.3,0.1,3.5,0.2c2.3,0.1,4.6,0.4,6.9,0.7c4.6,0.8,9.1,1.8,13.4,3.3
		c8.6,3,15.4,6.4,23.1,14.1c13.8,13.8,19.4,29.4,21.7,41.1c1,0.2,1.9,0.3,2.9,0.4c-0.1-14.3-3.5-34.1-19.7-46.8
		c-5.1-4-16.5-12-26-15.1c-4.7-1.6-9.7-2.6-14.6-3.3c-2.4-0.2-4.9-0.6-7.4-0.6c-1.2,0-2.5-0.1-3.7-0.1l-3.7,0.1
		c-7,0.1-13.8,1-20.6,2.4c-6.5-0.3-9.9,0.3-9.9,0.3c-3.6,0.7-7,1.9-10.3,3.3c-0.4,0.2-0.8-0.1-0.8-0.5c0.1-2.8,0.9-11.6,5.3-23.3
		l6-4.6c3.5-3.1,6.8-6.4,9.8-10c1.6-2,28.9-36.3,36.3-45.8c0.1-0.1,0.2-0.1,0.2-0.2c4-3.7,7.8-7.8,11.3-12.1c3.4-4.4,6.6-9,9.1-14.1
		c2.6-5,4.5-10.4,5.7-16.1c1.2-5.6,1.5-11.5,0.8-17.2c-0.7-5.8-2.3-11.4-4.9-16.6c-5.1-10.4-13.6-18.9-23.6-24.4
		c-5-2.7-10.5-4.7-16.2-5.7c-2.9-0.5-5.8-0.7-8.7-0.6c-3,0.1-5.8,0.4-8.6,1c-5.6,1.1-10.9,3.1-16,5.5c-5,2.4-9.8,5.3-14.3,8.4
		c-9,6.3-17,13.8-24.4,21.7c-3.7,4-7.2,8.1-10.6,12.3c-1.1,1.4-2.2,2.7-3.2,4.2c-0.3,0.3-0.6,0.7-0.9,1c-4.3,5-8.5,10.1-12.4,15.4
		c-4,5.3-7.9,10.7-11.3,16.5c-1.7,2.9-3.4,5.9-4.7,9.3c-0.3,0.8-0.6,1.7-0.9,2.6c-0.2,0.9-0.5,1.9-0.7,2.9l-0.1,1.3l-0.4,0.3
		c-5.6,3.9-10.8,8.4-15.4,13.6c-4.5,5.2-8.5,11.2-10.6,18.3c-1,3.5-1.5,7.3-1.3,11s1.1,7.4,2.5,10.8c1.5,3.4,3.4,6.5,5.5,9.3
		c2.2,2.8,4.6,5.4,7.2,7.7c5.3,4.7,11.5,8.4,18.1,10.7c6.6,2.4,13.7,3.4,20.6,3.5c2.5,0,5.2-0.1,7.7-0.3c0,3.7,0,10.7,0.1,12.5v0.9
		c0,0,0,0-0.1,0c-0.8-0.1-18.8-2.5-35.4,17c-24,28.2-40.1,42.2-61.3,40.7c-1.2-0.1-2.4-0.4-3.6-0.8c-4.8-1.8-9-2.8-10.9,0.2
		C325.7,434.6,330.2,437.2,333.5,438.6z M430.4,353.3c-5.9-0.2-12-1.1-17.7-3.1s-11-5.1-15.5-9.1c-2.3-2-4.4-4.2-6.3-6.5
		c-1.8-2.4-3.4-4.9-4.6-7.5c-1.1-2.6-1.8-5.4-2-8.2s0.2-5.6,0.9-8.4c1.6-5.6,4.9-10.8,8.9-15.5s8.8-8.9,13.9-12.5l1-0.7
		c1-0.6,1.8-1.7,2.1-2.7c0.2-0.5,0.3-1,0.3-1.5c0-0.7,0-0.6,0.1-0.8l0.1-0.9c0.1-0.6,0.3-1.3,0.4-1.9c0.2-0.7,0.4-1.4,0.7-2.1
		c1-2.8,2.5-5.6,4-8.3c3.1-5.5,6.8-10.8,10.6-16.1c3.8-5.2,7.8-10.4,11.8-15.5c4.1-5.1,8.2-10.1,12.5-15.1l7.4-7.7
		c5.7-5.4,11.8-10.3,18.3-14.7c8.6-5.8,18-10.4,27.8-12.2c2.4-0.4,4.9-0.7,7.3-0.8c2.4,0,4.8,0.2,7.2,0.7c4.8,0.9,9.5,2.7,13.8,5.1
		c8.7,4.8,15.9,12.2,20.1,21c4.3,8.8,5.3,19,3.2,28.6c-2.1,9.7-6.9,18.8-13,27c-3,4.1-6.4,8.1-10,11.9L503.6,313
		c-0.5,0.6-0.9,1.2-1.4,1.9c-1.6,2.6-3.6,5.1-5.6,7.5c-4.1,4.7-8.8,8.9-13.9,12.6c-10.2,7.4-21.7,13-33.9,16
		C442.7,352.5,436.5,353.3,430.4,353.3z"/>
	<path d="M243.3,625.8c3-0.9,5.5-2.3,7.8-3.9c2.3-1.6,4.5-3.4,6.9-4.9c2.1-1.4,16.7-14,20-16.8c0.4-0.4,0.9-0.7,1.3-1.1
		c11.1-8.4,22.1-17,33-25.7c11.1-8.9,22.2-17.9,33-27.2c5.4-4.7,10.7-9.4,15.9-14.4c2.6-2.5,5.2-5,7.7-7.6l0.2-0.2
		c0.3,0.3,0.7,0.5,1.2,0.8c0.6-0.6,0.9-1.1,1.2-1.6c0.3-0.5,0.4-1,0.5-1.5c0.1-0.5,0.1-0.9,0.1-1.4V519c-0.1-1.8,0.1-3.7,0.1-5.5
		c0.3-3.6,0.8-7.3,1.6-10.8c0.8-3.6,1.8-7.1,3-10.6s2.6-6.9,4.1-10.3c3-6.7,6.7-13.2,10.8-19.4c2-3.1,4.2-6.1,6.5-9.1
		c1.1-1.5,2.3-2.9,3.4-4.4c1.2-1.4,2.4-2.9,3.5-4.2l0.1-0.1c0.6-0.6,0.9-1.5,0.9-2.4c0-3,0.5-6.2,1.2-9.3c0.7-3.2,1.6-6.3,2.6-9.5
		s2.1-6.3,3.3-9.4c0.6-1.6,1.2-3.1,1.9-4.7c0.3-0.8,0.4-1.7,0.4-2.6c0-1,0.2-1.8-0.5-3.1c-1.5,0.2-2,0.9-2.8,1.5
		c-0.7,0.6-1.4,1.2-1.8,2c-0.8,1.5-1.5,3.1-2.3,4.6c-1.5,3.1-2.9,6.3-4.1,9.5c-1.3,3.2-2.4,6.5-3.4,10c-0.1,0.5-0.2,0.9-0.4,1.4
		c-0.9,0.9-1.9,1.8-2.9,2.7c-2.1,1.9-4.2,3.6-6.4,5.4c-4.4,3.4-8.9,6.6-13.6,9.4s-9.6,5.2-14.7,6.9c-5.1,1.8-10.4,2.9-15.7,3.3
		c-5.3,0.4-10.7,0.3-15.8-0.9c-5-1.1-11.3-3.8-14.5-5.9c-10.4-7.2-9.5-10.5-15.4-9c-5.9,1.5-0.4,10.1,12,16.4
		c10.9,5.5,23.3,8.3,35.4,7.2c6-0.6,11.9-2.1,17.5-4.2c5.6-2.1,10.9-4.8,15.9-8c4.2-2.7,8.2-5.8,11.9-9.1c-0.4,0.5-0.8,0.9-1.2,1.4
		c-2.4,3.1-4.7,6.3-6.9,9.5c-4.4,6.5-8.2,13.4-11.4,20.6c-1.6,3.6-3,7.3-4.1,11.2c-1.1,3.8-2,7.7-2.5,11.7
		c-0.5,3.9-0.7,7.9-0.6,11.8c-0.4,1-0.8,2-1.3,2.9c-0.3,0.7-0.8,1.3-0.9,1.5c-0.2,0.2,0.3-0.4-0.2,0.2l-0.9,0.9
		c-2.4,2.5-4.9,5-7.4,7.5c-5,4.9-10.2,9.7-15.4,14.4c-5.3,4.7-10.6,9.3-16,13.9c-5.4,4.5-10.9,9-16.4,13.4
		c-11.1,8.8-27.5,21.4-33.7,25.9c-17.5,12.8-28.4,22.1-28.4,22.1c-0.3,0.2-0.5,0.4-0.8,0.7c-1.9,1.9-3.6,4-4.9,6.5
		c-0.2,0.5-0.3,1.1-0.2,1.5C241,625.5,242.2,626.1,243.3,625.8z"/>
	<path d="M369.4,557l-8.2,7.1l-8.1,7.2c-2.7,2.4-5.3,4.8-8,7.3c-2.7,2.4-5.3,4.9-8,7.3l-7.9,7.3l-7.9,7.4
		c-10.5,9.9-20.9,19.8-31.3,29.8c0,0-8.4,7.4-13,11.9c-4.6,4.5-9.9,9.1-11.7,11.3c-1.8,2.3-3.4,4.6-4.5,7.5
		c-0.2,0.5-0.2,1.1,0.1,1.5c0.5,1.1,1.7,1.6,2.8,1.1c2.8-1.2,5.1-2.9,7.2-4.8c5.7-5,24.3-23.7,24.3-23.7
		c10.2-10.1,20.5-20.1,31-29.9c10.4-9.9,21-19.6,31.7-29.1c2.7-2.4,5.4-4.7,8.1-7l8.2-6.9c2.8-2.3,5.6-4.4,8.4-6.6
		c2.5-1.9,7.7-5.7,10.3-7.5c0,0,6,1.9,15.2,3.3s17.9,2,23.3,2.1c5.3,0,16.7-1.2,16.2-5.2c-0.2-1.4-7.1-0.7-16.2-1.6
		c-9.1-0.9-19-2.7-26.3-4c-6.9-1.3-19.9-6-28.4-12.3c-0.5-0.4-1.2,0.1-1,0.8c0.5,1.4,1.7,3.5,4.7,6.2c1.2,1.1,2,1.6,3,2.3
		c0.7,0.5,1.4,1,2.1,1.4c0,0.9,0.1,1.8,0.3,2.7c-2.6,2-5.3,4.1-7.9,6.2L369.4,557z"/>
</g>
</svg>
