<?xml version="1.0" encoding="utf-8"?>
<!-- Generator: Adobe Illustrator 19.2.0, SVG Export Plug-In . SVG Version: 6.00 Build 0)  -->
<svg version="1.0" id="blacks_1_" xmlns="http://www.w3.org/2000/svg" xmlns:xlink="http://www.w3.org/1999/xlink" x="0px" y="0px"
	 viewBox="0 0 1000 1000" enable-background="new 0 0 1000 1000" xml:space="preserve">
<g id="blacks_2_">
	<path id="blacks" fill="#523259" d="M567.2,593.6c-0.5-3.1-2-6.1-4.4-8.5s-5.4-3.8-8.5-4.4l-4.44,13.04
		c-0.94,0.65-1.98,1.32-3.06,2.06c-1.9,1.4-4.2,2.7-6.7,4.2c-0.6,0.4-1.2,0.8-1.9,1.1c-0.6,0.3-1.3,0.6-2,1
		c-0.7,0.4-1.4,0.7-2.1,1.1c-0.7,0.3-1.4,0.7-2.2,1c-1.5,0.6-3.1,1.4-4.7,1.9c-1.7,0.6-3.3,1.3-5,1.7c-1.7,0.5-3.4,1.1-5.2,1.4
		c-0.9,0.2-1.8,0.4-2.7,0.6c-0.9,0.2-1.8,0.3-2.7,0.4c-1,0.1-1.9,0.3-2.8,0.4c-0.9,0.1-1.9,0.1-2.8,0.2c-1.8,0.3-3.7,0.2-5.6,0.2
		c-0.9,0-1.9-0.1-2.8-0.1c-0.9-0.1-1.9-0.1-2.8-0.2c-1.9-0.2-3.8-0.3-5.6-0.7c-3.7-0.6-7.3-1.5-10.7-2.5c-1.7-0.6-3.4-1.1-5-1.7
		c-1.6-0.6-3.2-1.3-4.7-1.9c-3-1.4-5.9-2.7-8.4-4.1c-3.96-2.09-7.24-4.18-9.83-5.95l-4.47-13.15c-3.1,0.6-6.1,2-8.5,4.4
		c-2.4,2.4-3.9,5.4-4.4,8.5l15.41,5.14c0.62,0.51,1.27,1.03,1.99,1.56c2,1.4,4.3,3.1,6.9,4.7c2.6,1.6,5.5,3.3,8.7,4.8
		s6.6,3,10.3,4.2s7.6,2.4,11.6,3c2,0.4,4,0.6,6.1,0.9c1,0.1,2.1,0.1,3.1,0.2c1,0,2.1,0.1,3.1,0.1c2.1,0,4.1,0,6.2-0.2
		c1-0.1,2.1-0.2,3.1-0.3c1.1-0.2,2.1-0.4,3.1-0.5c1-0.2,2-0.3,3-0.5c0.9-0.2,1.9-0.5,2.9-0.7c2-0.5,3.8-1.1,5.7-1.7
		c1.8-0.5,3.6-1.3,5.3-2s3.3-1.5,4.9-2.3c0.7-0.4,1.5-0.8,2.3-1.2c0.8-0.5,1.5-0.9,2.2-1.3c0.7-0.5,1.4-0.9,2.1-1.3
		c0.7-0.4,1.4-0.8,2-1.3c2.5-1.7,4.8-3.3,6.7-4.9c0.44-0.37,0.86-0.72,1.28-1.06L567.2,593.6z"/>
</g>
</svg>
