<?xml version="1.0" encoding="utf-8"?>
<!-- Generator: Adobe Illustrator 26.0.1, SVG Export Plug-In . SVG Version: 6.00 Build 0)  -->
<svg version="1.1" id="mouth" xmlns="http://www.w3.org/2000/svg" xmlns:xlink="http://www.w3.org/1999/xlink" x="0px" y="0px"
	 viewBox="0 0 1000 1000" style="enable-background:new 0 0 1000 1000;" xml:space="preserve">
<style type="text/css">
	.st0{fill:#28003B;}
</style>
<path id="blacks" d="M548.6,600.9c0,0,0,0,0-0.1c0-0.1,0-0.3-0.1-0.4c-0.1-0.3-0.2-0.7-0.4-1.2c-0.2-0.5-0.6-1-1.2-1.4
	c-0.3-0.2-0.6-0.4-0.9-0.6c-0.3-0.2-0.7-0.3-1-0.4c-0.4-0.1-0.7-0.2-1.1-0.2c-0.4,0-0.7,0-1,0c-0.3,0.1-0.6,0.1-0.9,0.2
	c-0.3,0.1-0.5,0.2-0.7,0.3c-0.5,0.2-0.8,0.4-1,0.5c-0.2,0.2-0.3,0.2-0.3,0.2c-0.3,0.2-0.5,0.6-0.6,1c-0.1,0.7,0.5,1.4,1.2,1.5l0.3,0
	c0,0,0.1,0,0.3,0c0.2,0,0.5,0,0.8,0c0.1,0,0.1,0,0.2,0l0,0.1l0.1,1.6l-0.1,1.6l-0.3,1.5l-0.5,1.5c-0.2,0.5-0.4,0.9-0.7,1.4
	c-0.3,0.4-0.6,0.9-0.9,1.3c-0.4,0.4-0.7,0.8-1,1.2c-0.4,0.4-0.8,0.7-1.2,1.1c-0.4,0.3-0.8,0.7-1.3,1l-1.4,0.8l-1.5,0.7
	c-0.5,0.2-1,0.4-1.5,0.6c-0.5,0.2-1.1,0.3-1.6,0.5c-0.5,0.2-1.1,0.3-1.6,0.4c-1.1,0.2-2.1,0.3-3.2,0.4l-1.8,0l-0.2,0l0,0
	c0,0,0.1,0,0.1,0l-0.1,0l-0.1,0l-0.4,0l-0.8,0c-1.1-0.1-2.2-0.2-3.3-0.4c-1.1-0.2-2.2-0.5-3.2-0.8c-0.5-0.2-1.1-0.4-1.6-0.6
	l-1.5-0.6l-1.5-0.7c-0.5-0.3-1-0.5-1.4-0.8c-0.9-0.6-1.8-1.2-2.7-1.9c-0.4-0.3-0.8-0.7-1.2-1.1c-0.4-0.4-0.8-0.8-1.1-1.2
	c-0.7-0.8-1.3-1.6-1.9-2.5c-0.2-0.3-0.5-0.7-0.9-0.9c-1.4-0.9-3.3-0.5-4.2,0.9c-0.6,0.9-1.2,1.7-1.9,2.5c-0.3,0.4-0.7,0.8-1.1,1.2
	c-0.4,0.4-0.8,0.7-1.2,1.1c-0.8,0.7-1.7,1.3-2.7,1.9c-0.5,0.3-1,0.6-1.4,0.8l-1.5,0.7l-1.5,0.6c-0.5,0.2-1,0.4-1.6,0.6
	c-1.1,0.3-2.1,0.6-3.2,0.8c-0.5,0.1-1.1,0.2-1.6,0.3c-0.5,0.1-1,0.1-1.6,0.2l-0.9,0l-0.5,0l-0.1,0l0,0l0,0l-0.2,0l-1.7,0
	c-1.1-0.1-2.2-0.2-3.3-0.4c-0.5-0.1-1.1-0.2-1.6-0.4c-0.5-0.2-1.1-0.3-1.6-0.5c-0.5-0.2-1-0.4-1.5-0.6l-1.5-0.7l-1.4-0.8
	c-0.4-0.3-0.9-0.6-1.3-1c-0.4-0.3-0.8-0.7-1.2-1.1c-0.4-0.4-0.7-0.8-1-1.2c-0.3-0.4-0.6-0.9-0.9-1.3c-0.3-0.5-0.5-0.9-0.7-1.4
	l-0.5-1.5l-0.3-1.5c0-0.5-0.1-0.9-0.1-1.4l0.1-1.8c0.1,0,0.1,0,0.2,0c0.3-0.1,0.6,0,0.8,0c0.2,0,0.3,0,0.3,0l0.3,0
	c0.4,0,0.7-0.2,0.9-0.6c0.4-0.6,0.3-1.4-0.3-1.9c0,0-0.1-0.1-0.3-0.2c-0.2-0.1-0.5-0.4-1-0.5c-0.2-0.1-0.5-0.2-0.7-0.3
	c-0.3-0.1-0.6-0.1-0.9-0.2c-0.3,0-0.7,0-1,0c-0.4,0-0.7,0.1-1.1,0.2c-0.4,0.1-0.7,0.2-1,0.4c-0.3,0.2-0.6,0.4-0.9,0.6
	c-0.5,0.4-0.9,1-1.2,1.4c-0.3,0.5-0.4,0.9-0.4,1.2c0,0.1-0.1,0.3-0.1,0.4c0,0.1,0,0.1,0,0.1c-0.3,0.7,0,1.6,0.8,1.9
	c0.6,0.2,1.2,0.1,1.6-0.3c0,0.5,0,1.1,0.1,1.6c0.1,0.7,0.2,1.4,0.3,2.1c0.2,0.7,0.4,1.4,0.6,2c0.3,0.6,0.6,1.3,0.9,1.9
	c0.4,0.6,0.7,1.2,1.1,1.8c0.4,0.5,0.8,1.1,1.3,1.6c0.5,0.5,1,1,1.5,1.5c0.5,0.4,1.1,0.9,1.6,1.3l1.7,1.1l1.8,1
	c0.6,0.3,1.2,0.5,1.9,0.8c0.6,0.3,1.3,0.4,1.9,0.7c0.6,0.2,1.3,0.4,1.9,0.5c1.3,0.3,2.6,0.5,3.9,0.6l2,0.1l0.2,0l0.3,0l0.5,0l0.9,0
	c0.6,0,1.4-0.1,2-0.1c0,0,0.1,0,0.1,0c3.7,4.4,10.1,7.5,14.2,6.8c0.4-0.1,0.8-0.2,1.2-0.3c-4.1,0-9.5-2.9-12.9-6.8
	c1.1-0.2,2.2-0.4,3.2-0.7c0.6-0.2,1.3-0.4,1.9-0.6l1.9-0.7l1.8-0.8c0.6-0.3,1.2-0.6,1.8-1h13c0.6,0.3,1.2,0.6,1.8,1l1.8,0.8l1.9,0.7
	c0.6,0.2,1.3,0.4,1.9,0.6c1.1,0.3,2.2,0.5,3.2,0.7c-3.4,4-8.8,6.8-12.9,6.8c0.4,0.1,0.7,0.3,1.2,0.3c4.2,0.7,10.5-2.3,14.3-6.8
	c0.7,0.1,1.4,0.1,2.1,0.1l1,0l0.5,0l0.1,0l0.2,0l0.2,0l1.8-0.1c1.3-0.1,2.8-0.3,4-0.6c0.7-0.1,1.3-0.3,1.9-0.5
	c0.6-0.2,1.3-0.4,1.9-0.7c0.6-0.3,1.3-0.5,1.9-0.8l1.8-1l1.7-1.1c0.5-0.4,1.1-0.9,1.6-1.3c0.5-0.5,1-1,1.5-1.5
	c0.5-0.5,0.9-1.1,1.3-1.6c0.4-0.6,0.7-1.2,1.1-1.8c0.3-0.6,0.6-1.3,0.9-1.9c0.2-0.7,0.4-1.3,0.6-2c0.1-0.7,0.2-1.4,0.3-2.1
	c0-0.5,0-1.1,0.1-1.6c0.4,0.4,1,0.5,1.6,0.3C548.6,602.5,548.9,601.7,548.6,600.9z M523.3,616C523.3,616,523.3,616,523.3,616
	L523.3,616z"/>
</svg>
