<?xml version="1.0" encoding="utf-8"?>
<!-- Generator: Adobe Illustrator 26.0.1, SVG Export Plug-In . SVG Version: 6.00 Build 0)  -->
<svg version="1.1" id="mouth" xmlns="http://www.w3.org/2000/svg" xmlns:xlink="http://www.w3.org/1999/xlink" x="0px" y="0px"
	 viewBox="0 0 1000 1000" style="enable-background:new 0 0 1000 1000;" xml:space="preserve">
<style type="text/css">
	.st999{fill:#FF722C;}
	.st1{fill:#FFB769;}
	.st2{fill:#720062;}
</style>
<path id="kluv" class="st999" d="M636.5,572.5c-3.7-5-10.7-6-15.6-2.4c-2.9,2.1-7.6,7.6-10.3,12.9c-7.9,4.4-18.6,8.8-34.2,10.6
	c-38.5,4.5-46.7-25.7-77.9-25.9c-31.2,0.2-39.4,30.4-77.9,25.9c-15.6-1.8-26.3-6.2-34.2-10.6c-2.8-5.3-7.5-10.8-10.3-12.9
	c-5-3.7-12-2.6-15.6,2.4c-3.7,5-2.6,19.9,2.4,23.6c3,2.2,10.2,5.3,16.3,6.2c9.1,6,21.6,12.4,37,18.1c25.3,9.3,46.6,15,82.4,15
	s57.1-5.6,82.4-15c15.4-5.7,27.9-12.1,37-18.1c6.1-1,13.3-4,16.3-6.2C639.1,592.4,640.2,577.5,636.5,572.5z"/>
<path id="nekluv" class="st1" d="M556.8,601.7c0,2.1-26.1,9.8-58.3,9.8s-58.3-7.7-58.3-9.8s26.1,2.2,58.3,2.2
	S556.8,599.7,556.8,601.7z"/>
<g id="blacks">
	<path  d="M630.9,583.1c-2-2.9-6-3.6-8.8-1.6l-0.2,0.2c0,0-0.8,0.6-2.4,1.7c-1.6,1.1-3.9,2.7-6.9,4.7
		c-1.5,0.9-3.2,2-5.1,3.1c-1.9,1.1-3.9,2.4-6.1,3.6c-2.2,1.2-4.6,2.5-7,3.8c-2.5,1.3-5.2,2.5-8,3.9c-1.4,0.7-2.8,1.3-4.3,1.9
		c-1.5,0.6-3,1.3-4.5,1.9c-0.8,0.3-1.5,0.7-2.3,1s-1.6,0.6-2.4,0.9c-1.6,0.6-3.3,1.2-4.9,1.8c-1.7,0.6-3.4,1.1-5.1,1.7
		c-1.7,0.6-3.5,1.1-5.3,1.7c-1.8,0.5-3.6,1-5.5,1.5c-0.9,0.2-1.9,0.5-2.8,0.7l-1.4,0.4l-1.4,0.3c-3.8,0.8-7.6,1.7-11.6,2.3
		c-2,0.3-3.9,0.7-6,1c-2,0.2-4,0.5-6,0.7c-7.9,0.8-16,1.3-24.1,1.2c-8.1,0.1-16.2-0.4-24.1-1.2c-2-0.2-4-0.5-6-0.7c-2-0.3-4-0.7-6-1
		c-4-0.6-7.8-1.5-11.6-2.3l-1.4-0.3l-1.4-0.4c-0.9-0.2-1.9-0.5-2.8-0.7c-1.8-0.5-3.7-1-5.5-1.5c-1.8-0.6-3.5-1.1-5.3-1.7
		c-1.7-0.6-3.5-1.1-5.1-1.7c-1.7-0.6-3.3-1.2-4.9-1.8c-0.8-0.3-1.6-0.6-2.4-0.9c-0.8-0.3-1.6-0.7-2.3-1c-1.5-0.7-3.1-1.3-4.5-1.9
		c-1.5-0.6-2.9-1.2-4.3-1.9c-2.8-1.4-5.5-2.6-8-3.9c-2.5-1.3-4.8-2.6-7-3.8s-4.2-2.4-6.1-3.6c-1.9-1.1-3.6-2.2-5.1-3.1
		c-3-2-5.3-3.6-6.9-4.7c-1.6-1.1-2.4-1.7-2.4-1.7l-0.2-0.2c-2.9-2-6.8-1.3-8.8,1.6c-2,2.9-1.3,6.8,1.6,8.8c0.2,0.2,0.5,0.3,0.7,0.4
		c0,0,3.8,2,10.5,5.5c1.7,0.8,3.6,1.7,5.6,2.7c2.1,1,4.2,2.1,6.6,3.2c2.4,1.1,4.9,2.2,7.6,3.4c2.7,1.1,5.6,2.3,8.6,3.5
		c6,2.3,12.6,4.6,19.6,6.8c1.7,0.6,3.6,1,5.4,1.5s3.7,1,5.5,1.5c1.9,0.5,3.8,0.9,5.7,1.3c1,0.2,1.9,0.5,2.9,0.7l1.5,0.3l1.5,0.3
		c3.9,0.7,7.9,1.6,12,2.1c2,0.3,4.1,0.7,6.2,0.9s4.2,0.5,6.2,0.7c8.2,0.8,16.5,1.3,24.8,1.2c8.3,0.1,16.7-0.4,24.8-1.2
		c2.1-0.2,4.2-0.5,6.2-0.7c2.1-0.2,4.1-0.6,6.2-0.9c4.1-0.5,8.1-1.4,12-2.1l1.5-0.3l1.5-0.3c1-0.2,1.9-0.5,2.9-0.7
		c1.9-0.5,3.8-0.9,5.7-1.3c1.9-0.5,3.7-1,5.5-1.5s3.6-1,5.4-1.5c7-2.2,13.6-4.5,19.6-6.8c3-1.2,5.8-2.4,8.6-3.5
		c2.7-1.2,5.2-2.3,7.6-3.4c2.4-1,4.6-2.2,6.6-3.2s3.9-1.9,5.6-2.7c6.6-3.5,10.5-5.5,10.5-5.5c0.2-0.1,0.5-0.3,0.7-0.4
		C632.2,589.9,632.9,585.9,630.9,583.1z"/>
	
		<ellipse transform="matrix(0.7479 -0.6639 0.6639 0.7479 -256.1901 493.0768)" class="st2" cx="521" cy="583.8" rx="3.3" ry="6.1"/>
	<ellipse transform="matrix(0.6639 -0.7479 0.7479 0.6639 -276.581 552.2104)" class="st2" cx="476" cy="583.8" rx="6.1" ry="3.3"/>
</g>
</svg>
