<?xml version="1.0" encoding="utf-8"?>
<!-- Generator: Adobe Illustrator 26.0.1, SVG Export Plug-In . SVG Version: 6.00 Build 0)  -->
<svg version="1.1" id="mouth" xmlns="http://www.w3.org/2000/svg" xmlns:xlink="http://www.w3.org/1999/xlink" x="0px" y="0px"
	 viewBox="0 0 1000 1000" style="enable-background:new 0 0 1000 1000;" xml:space="preserve">
<style type="text/css">
	.st0{fill:#1D1A33;}
	.st1{fill:#821515;}
	.st2{fill:#FFFFFF;}
</style>
<path id="blacks" d="M535.6,593.6c-8.7,0.2-27.1,3.2-35.4,3.2s-26.7-3-35.4-3.2c-8.2-0.2,0.2,30.6,35.4,30.6
	S543.7,593.4,535.6,593.6z"/>
<path id="jazyk" class="st1" d="M508.8,607.1c-0.8-2-4.2-2.5-7.6-0.9c-0.4,0.2-0.7,0.4-1.1,0.6c-0.3-0.2-0.7-0.4-1.1-0.6
	c-3.4-1.5-6.8-1.1-7.6,0.9c-0.8,2,1.3,5,4.7,6.5c1.1,0.5,2.1,0.8,3.1,0.9c0.1,0,0.2,0,0.3,0c0.2,0,0.4,0,0.6,0c0.2,0,0.4,0,0.6,0
	c0.1,0,0.2,0,0.3,0c1-0.1,2-0.4,3.1-0.9C507.5,612.1,509.6,609.2,508.8,607.1z"/>
<g id="whites">
	<path d="M519.7,597.3c0.4,0.5-2.2,5.6-4,5.8c-1.8,0.2-2.9-4.5-2.5-5.1C513.7,597.3,519.3,596.8,519.7,597.3z"/>
	<path 
d="M480.6,597.3c-0.4,0.5,2.2,5.6,4,5.8c1.8,0.2,2.9-4.5,2.5-5.1S481,596.8,480.6,597.3z"/>
	<path d="M500.2,621.7c4.7,0,11.4-0.9,16.1-3.1c4.7-2.2,6.4-5.3,6.4-7.2c0-0.9-0.4-1.4-0.7-1.6c-0.7-0.3-2.7,0.8-5,2.2
		c-1.9,1.2-4.2,2.6-7.1,4c-2.7,1.3-4,1.2-6.7,1.1c-0.8,0-1.8-0.1-2.9-0.1s-2.1,0-2.9,0.1c-2.7,0.1-4,0.1-6.7-1.1
		c-2.9-1.4-5.3-2.8-7.1-4c-2.3-1.4-4.2-2.6-5-2.2c-0.3,0.2-0.7,0.7-0.7,1.6c0,1.9,1.7,5,6.4,7.2
		C488.8,620.8,495.6,621.7,500.2,621.7z"/>
</g>
</svg>
