<?xml version="1.0" encoding="utf-8"?>
<!-- Generator: Adobe Illustrator 26.0.1, SVG Export Plug-In . SVG Version: 6.00 Build 0)  -->
<svg version="1.1" id="mouth" xmlns="http://www.w3.org/2000/svg" xmlns:xlink="http://www.w3.org/1999/xlink" x="0px" y="0px"
	 viewBox="0 0 1000 1000" style="enable-background:new 0 0 1000 1000;" xml:space="preserve">
<style type="text/css">
	.st0{fill:#471941;}
	.st1{fill:#875D0A;}
	.st2{fill:#D39202;}
	.st3{fill:#FFFFFF;}
</style>
<path id="blacks"
d="M543.3,584.7c0,3-19.4,21.9-43.3,21.9
	s-43.3-18.8-43.3-21.9c0-3,19.4,10.9,43.3,10.9S543.3,581.7,543.3,584.7z"/>
<path id="bone"
d="M507.1,589.9c-2.5,0.6-4.8,1.6-7.1,2.8c-2.2-1.2-4.6-2.2-7.1-2.8c-11.9-3.1-21.6,2.1-21.6,11.6
	s9.7,19.8,21.6,22.9c2.5,0.6,4.8,0.9,7.1,0.9c2.2,0,4.6-0.2,7.1-0.9c11.9-3.1,21.6-13.4,21.6-22.9S519,586.7,507.1,589.9z"/>
<path id="bone-L"
d="M485,592c5.7,0,10,3.5,13.3,9.7c1,1.9,2.3,1.9,3.4,0c3.3-6.2,7.6-9.7,13.3-9.7
	c3.4,0,6.3,1.2,8.8,3.5c3.2,2.9,5.7-9.2,3.5-17.1c-4.6-16.9-13.1-27.3-27.3-27.3s-22.7,10.3-27.3,27.3c-2.2,7.9,0.4,20,3.5,17.1
	C478.7,593.3,481.6,592,485,592z"/>
<g id="whites">
	
		<ellipse transform="matrix(0.9556 -0.2947 0.2947 0.9556 -146.6993 168.9517)" class="st3" cx="487.3" cy="571.3" rx="2.7" ry="3.7"/>
	
		<ellipse transform="matrix(0.2947 -0.9556 0.9556 0.2947 -184.259 892.8852)" class="st3" cx="512.7" cy="571.3" rx="3.7" ry="2.7"/>
	<path 
d="M500.6,580.9c0,0-0.1-0.4-0.2-1.2c-0.1-0.7-0.2-1.8-0.2-3.1c0-0.6-0.1-1.3-0.1-2.1c0-0.7,0-1.5,0-2.3
		c0.1-1.6,0.2-3.3,0.4-5c0.2-1.7,0.5-3.4,0.8-5c0.2-0.8,0.4-1.6,0.6-2.3c0.2-0.7,0.4-1.4,0.7-2c0.3-0.6,0.6-1.2,0.9-1.6
		c0.3-0.5,0.7-0.8,1-1.1c0.3-0.3,0.6-0.5,0.8-0.6c0.2-0.1,0.3-0.2,0.3-0.2c0.6-0.3,1.3,0,1.6,0.6c0,0.1,0.1,0.2,0.1,0.2l0,0.1
		c0,0,0,0.1,0.1,0.4c0,0.2,0.1,0.5,0.1,0.9c0,0.4-0.1,0.8-0.1,1.3c-0.1,0.5-0.2,1-0.4,1.6c-0.2,0.6-0.4,1.2-0.6,1.8
		c-0.2,0.6-0.4,1.3-0.6,2c-0.2,0.7-0.4,1.5-0.6,2.2c-0.2,0.8-0.4,1.5-0.6,2.3c-0.2,0.8-0.4,1.6-0.5,2.4c-0.2,0.8-0.3,1.6-0.5,2.3
		c-0.3,1.5-0.6,2.9-0.9,4.1c-0.5,2.4-0.8,4.1-0.8,4.1c-0.1,0.4-0.4,0.6-0.8,0.5C500.9,581.4,500.7,581.2,500.6,580.9L500.6,580.9z"
		/>
</g>
<g id="blacks">
	<path 
d="M511.8,573.4c1.3,0.7,4.9-2.2,5.8-4.7c0.9-2.5-0.6-5.9-1.9-6.6c-1.3-0.7-4.7,0.6-5.5,3.2
		C509.3,567.8,510.5,572.7,511.8,573.4z"/>
	<path 
d="M488.2,573.4c-1.3,0.7-4.9-2.2-5.8-4.7c-0.9-2.5,0.6-5.9,1.9-6.6c1.3-0.7,4.7,0.6,5.5,3.2
		C490.7,567.8,489.5,572.7,488.2,573.4z"/>
</g>
</svg>
