<svg version="1.1" id="Layer_1" xmlns="http://www.w3.org/2000/svg" xmlns:xlink="http://www.w3.org/1999/xlink" x="0px" y="0px"
	 viewBox="0 0 1000 1000" style="enable-background:new 0 0 1000 1000;" xml:space="preserve">
<path id="blacks" d="M525,593.8l-1.3,0.6c-3.3,1.6-7.1,1.9-10.6,0.6c-5.4-2-7.7-2.1-13.1-2.1s-7.7,0.2-13.1,2.1
	c-3.4,1.3-7.3,0.9-10.6-0.6l-1.3-0.6c-2-1-3.8,1.7-2.1,3.2c3.6,3.2,9.3,6.1,17.3,6.6l9.8,16.1l9.8-16.1c8-0.5,13.7-3.4,17.3-6.6
	C528.8,595.5,527,592.8,525,593.8z"/>
<path id="whites" d="M512.4,598.9l-6.9-1c-2.5,0-4.5,1.9-4.7,4.4L500,617l-0.8-14.7c-0.1-2.5-2.2-4.4-4.7-4.4l-6.9,1
	c-2.7,0-4.9,2.3-4.7,5.1l2.1,24c0.3,3,2.8,5.3,5.8,5.3h3.8c2.3,0,4.3-1.4,5.3-3.3c0.9,1.9,2.9,3.3,5.3,3.3h3.8c3,0,5.6-2.3,5.8-5.3
	l2.1-24C517.3,601.2,515.1,598.9,512.4,598.9z"/>
</svg>