<?xml version="1.0" encoding="utf-8"?>
<!-- Generator: Adobe Illustrator 19.2.0, SVG Export Plug-In . SVG Version: 6.00 Build 0)  -->
<svg version="1.0" id="Layer_2" xmlns="http://www.w3.org/2000/svg" xmlns:xlink="http://www.w3.org/1999/xlink" x="0px" y="0px"
	 viewBox="0 0 1000 1000" enable-background="new 0 0 1000 1000" xml:space="preserve">
<g id="blacks">
	<path id="paths" fill="#222231" d="M640.34,417.3c-0.31-1.65-1.9-2.73-3.55-2.41c0,0-0.5,0.09-1.43,0.27s-2.31,0.43-4.05,0.79
		c-3.48,0.7-8.44,1.76-14.36,3.13c-2.97,0.67-6.18,1.42-9.55,2.29c-3.37,0.86-6.9,1.85-10.57,2.86c-3.67,0.99-7.44,2.08-11.27,3.19
		c-3.83,1.13-7.68,2.36-11.56,3.54c-3.89,1.17-7.78,2.34-11.61,3.49c-1.45,0.47-2.88,0.95-4.3,1.44c1.28-3.39,2.19-5.64,2.19-5.64
		s-6.82,4.34-15.18,10.79c-0.19,0.09-0.37,0.17-0.56,0.26c0.6-6.8,1.33-12.19,1.33-12.19s-4.98,5.33-11.03,13
		c-1.26-3.57-2.56-9.28-3.04-12.64c-14.93,16.4-14.43,34.86-14.43,34.86c-0.39,2.04,0.95,4.01,2.99,4.4h0.01
		c0,0,0.15,0.03,0.45,0.09c0.29,0.04,0.72,0.1,1.29,0.18c1.12,0.12,10.39,1.48,37.58-6.5c27.18-7.98,79.05-41.94,79.05-41.94
		l0.06-0.03C639.95,419.91,640.59,418.63,640.34,417.3z"/>
	<path id="path" fill="#222231" d="M468.8,429.48c-0.48,3.36-1.78,9.07-3.04,12.64c-6.05-7.68-11.03-13-11.03-13
		s0.73,5.39,1.33,12.19c-0.18-0.09-0.37-0.17-0.56-0.26c-8.36-6.46-15.18-10.79-15.18-10.79s0.91,2.25,2.19,5.64
		c-1.42-0.49-2.85-0.97-4.3-1.44c-3.83-1.15-7.72-2.32-11.61-3.49c-3.88-1.18-7.74-2.41-11.56-3.54c-3.83-1.11-7.6-2.2-11.27-3.19
		c-3.66-1.01-7.19-1.99-10.57-2.86c-3.37-0.87-6.58-1.62-9.55-2.29c-5.93-1.37-10.88-2.43-14.36-3.13
		c-1.74-0.36-3.11-0.61-4.05-0.79c-0.94-0.18-1.43-0.27-1.43-0.27c-1.65-0.31-3.23,0.77-3.55,2.41c-0.25,1.32,0.4,2.6,1.51,3.22
		l0.06,0.03c0,0,51.87,33.96,79.05,41.94s36.46,6.62,37.58,6.5c0.56-0.08,1-0.14,1.29-0.18c0.3-0.06,0.45-0.09,0.45-0.09h0.01
		c2.04-0.39,3.38-2.36,2.99-4.4C483.22,464.33,483.72,445.88,468.8,429.48z"/>
</g>
</svg>
