<?xml version="1.0" encoding="utf-8"?>
<!-- Generator: Adobe Illustrator 19.2.0, SVG Export Plug-In . SVG Version: 6.00 Build 0)  -->
<svg version="1.0" id="Layer_2" xmlns="http://www.w3.org/2000/svg" xmlns:xlink="http://www.w3.org/1999/xlink" x="0px" y="0px"
	 viewBox="0 0 1000 1000" enable-background="new 0 0 1000 1000" xml:space="preserve">
<g id="blacks">
	<path id="blacks" d="M515.98,485.9c0,0,0.06-0.14,0.18-0.41c0.13-0.29,0.31-0.71,0.56-1.21
		c0.5-1.02,1.22-2.51,2.28-4.3c1.05-1.81,2.37-3.97,4.05-6.34c0.84-1.19,1.74-2.44,2.76-3.72c0.98-1.31,2.1-2.6,3.26-3.98
		c1.2-1.33,2.42-2.76,3.8-4.12c0.68-0.69,1.38-1.39,2.08-2.11c0.74-0.68,1.48-1.37,2.24-2.08c0.75-0.71,1.54-1.4,2.36-2.08
		c0.81-0.69,1.63-1.38,2.48-2.07c1.74-1.3,3.46-2.74,5.36-3.98c3.7-2.65,7.81-4.97,12.06-7.18c1.09-0.51,2.18-1.02,3.27-1.53
		l1.65-0.76c0.56-0.24,1.12-0.45,1.69-0.68c1.13-0.45,2.26-0.9,3.39-1.35c1.14-0.44,2.31-0.77,3.47-1.16
		c4.62-1.57,9.4-2.63,14.12-3.47c1.18-0.25,2.37-0.34,3.54-0.49c1.18-0.14,2.35-0.28,3.51-0.41c2.33-0.22,4.65-0.25,6.91-0.38
		c2.27-0.06,4.5,0.07,6.67,0.1c1.09,0,2.16,0.11,3.22,0.21s2.1,0.2,3.13,0.3c2.06,0.14,4.03,0.52,5.94,0.83
		c1.9,0.33,3.75,0.6,5.48,1.05c3.47,0.84,6.64,1.59,9.37,2.55c1.36,0.46,2.64,0.88,3.82,1.27c1.18,0.38,2.22,0.87,3.18,1.25
		c3.81,1.57,5.93,2.57,5.93,2.57c1.51,0.72,2.16,2.52,1.44,4.03c-0.56,1.19-1.8,1.84-3.03,1.72l-0.18-0.02c0,0-2.28-0.23-6.15-0.81
		c-1.93-0.33-4.3-0.52-6.99-0.83c-2.67-0.39-5.71-0.53-8.98-0.81c-1.63-0.19-3.35-0.14-5.11-0.24c-1.76-0.07-3.57-0.16-5.43-0.11
		c-1.86,0.04-3.77-0.02-5.71,0.09c-1.94,0.12-3.92,0.2-5.92,0.36c-1.99,0.22-4.02,0.4-6.06,0.66c-2.03,0.34-4.1,0.57-6.14,1
		c-1.02,0.21-2.05,0.42-3.08,0.62l-1.55,0.32l-1.53,0.41c-1.02,0.26-2.05,0.52-3.07,0.78c-1.03,0.25-2.03,0.62-3.04,0.92
		c-4.06,1.21-8,2.8-11.85,4.44c-0.95,0.45-1.89,0.9-2.82,1.34c-0.94,0.44-1.87,0.88-2.77,1.39c-0.91,0.48-1.82,0.95-2.72,1.42
		c-0.89,0.49-1.75,1.02-2.62,1.52c-1.75,0.98-3.39,2.09-5.04,3.11c-0.8,0.55-1.59,1.09-2.37,1.63c-0.79,0.53-1.56,1.06-2.3,1.63
		c-3.03,2.15-5.73,4.42-8.24,6.52c-2.46,2.15-4.67,4.19-6.58,6.07c-1.88,1.89-3.55,3.55-4.82,4.99c-1.29,1.43-2.3,2.56-2.94,3.34
		c-0.32,0.38-0.56,0.67-0.72,0.86c-0.15,0.18-0.25,0.32-0.25,0.31c-0.98,1.35-2.86,1.65-4.21,0.68c-1.16-0.84-1.55-2.36-1.01-3.63
		L515.98,485.9z"/>
	<path id="blacks" d="M478.83,488.89c0,0.01-0.1-0.13-0.25-0.31c-0.16-0.2-0.41-0.48-0.72-0.86
		c-0.64-0.79-1.65-1.92-2.94-3.34c-1.27-1.44-2.93-3.1-4.81-4.99c-1.9-1.88-4.12-3.91-6.58-6.07c-2.51-2.09-5.21-4.36-8.24-6.52
		c-0.74-0.56-1.51-1.1-2.3-1.63c-0.78-0.54-1.57-1.08-2.37-1.63c-1.65-1.02-3.29-2.13-5.04-3.11c-0.87-0.5-1.73-1.03-2.62-1.52
		c-0.9-0.47-1.81-0.95-2.72-1.42c-0.9-0.51-1.83-0.95-2.77-1.39s-1.88-0.89-2.82-1.34c-3.85-1.64-7.78-3.23-11.85-4.44
		c-1.02-0.3-2.01-0.67-3.04-0.92c-1.03-0.26-2.05-0.52-3.07-0.78l-1.53-0.41l-1.55-0.32c-1.03-0.21-2.06-0.42-3.08-0.62
		c-2.05-0.43-4.12-0.66-6.14-1c-2.04-0.26-4.07-0.44-6.06-0.66c-2-0.15-3.98-0.23-5.92-0.36c-1.94-0.11-3.85-0.05-5.71-0.09
		c-1.86-0.06-3.67,0.04-5.43,0.11c-1.76,0.1-3.47,0.04-5.11,0.24c-3.27,0.28-6.31,0.42-8.98,0.81c-2.68,0.32-5.06,0.5-6.99,0.83
		c-3.87,0.58-6.15,0.81-6.15,0.81l-0.17,0.02c-1.66,0.17-3.15-1.05-3.31-2.71c-0.13-1.31,0.6-2.5,1.72-3.04c0,0,2.11-1,5.93-2.57
		c0.96-0.38,2-0.86,3.18-1.25s2.46-0.82,3.82-1.27c2.72-0.96,5.89-1.72,9.37-2.55c1.73-0.45,3.58-0.72,5.48-1.05
		c1.91-0.31,3.88-0.69,5.94-0.83c1.03-0.1,2.07-0.2,3.13-0.3c1.06-0.1,2.13-0.21,3.22-0.21c2.17-0.03,4.4-0.16,6.67-0.1
		c2.27,0.13,4.58,0.16,6.91,0.38c1.16,0.14,2.34,0.27,3.51,0.41c1.18,0.15,2.37,0.24,3.54,0.49c4.72,0.84,9.5,1.9,14.12,3.47
		c1.16,0.39,2.33,0.73,3.47,1.16c1.13,0.45,2.26,0.9,3.39,1.35c0.56,0.23,1.13,0.44,1.69,0.68l1.65,0.76
		c1.09,0.51,2.19,1.02,3.27,1.53c4.25,2.22,8.36,4.54,12.06,7.18c1.9,1.24,3.62,2.68,5.36,3.98c0.85,0.69,1.67,1.38,2.48,2.07
		c0.82,0.68,1.61,1.37,2.36,2.08c0.76,0.7,1.51,1.39,2.24,2.08c0.71,0.71,1.4,1.42,2.08,2.11c1.38,1.36,2.6,2.79,3.8,4.12
		c1.16,1.37,2.28,2.67,3.26,3.98c1.02,1.27,1.92,2.53,2.76,3.72c1.68,2.38,3,4.54,4.05,6.34c1.06,1.8,1.78,3.29,2.28,4.3
		c0.25,0.5,0.43,0.92,0.56,1.21c0.12,0.27,0.18,0.41,0.18,0.41l0.02,0.04c0.65,1.53-0.06,3.3-1.59,3.96
		C481.13,490.46,479.63,490.01,478.83,488.89z"/>
</g>
</svg>
