<?xml version="1.0" encoding="utf-8"?>
<!-- Generator: Adobe Illustrator 26.0.1, SVG Export Plug-In . SVG Version: 6.00 Build 0)  -->
<svg version="1.1" id="blacks" xmlns="http://www.w3.org/2000/svg" xmlns:xlink="http://www.w3.org/1999/xlink" x="0px" y="0px"
	 viewBox="0 0 1000 1000" style="enable-background:new 0 0 1000 1000;" xml:space="preserve">

<path d="M523.5,484.4c0,0,0.2-0.6,0.7-1.6c0.5-1,1.3-2.5,2.4-4.2c1.1-1.8,2.5-3.9,4.2-6.3c1.7-2.4,3.8-4.9,6.3-7.6
	c2.4-2.7,5.3-5.4,8.4-8.1c3.2-2.7,6.6-5.4,10.4-8c0.9-0.7,1.9-1.3,2.9-1.9c1-0.6,2-1.2,3-1.8c1-0.6,2.1-1.2,3.1-1.7l1.6-0.9l1.6-0.8
	c1.1-0.5,2.2-1.1,3.2-1.6c1.1-0.5,2.2-1,3.3-1.5c2.2-1,4.5-1.8,6.8-2.7c1.1-0.4,2.3-0.8,3.5-1.2c1.2-0.4,2.3-0.7,3.5-1.1
	c2.3-0.7,4.7-1.2,7-1.8c2.3-0.5,4.7-0.9,7-1.3c2.3-0.3,4.6-0.6,6.9-0.9c2.3-0.2,4.5-0.3,6.7-0.4c2.2-0.1,4.3,0,6.4,0
	c2.1,0,4.1,0.2,6,0.3c1.9,0.1,3.8,0.2,5.6,0.5c3.6,0.5,6.8,1,9.7,1.6c2.9,0.6,5.3,1.2,7.3,1.8c4,1.2,6.2,2,6.2,2
	c0.2,0.1,0.4,0.4,0.3,0.6c-0.1,0.2-0.2,0.3-0.4,0.3l0,0c0,0-2.4,0.2-6.5,0.3c-2,0-4.5,0.2-7.4,0.3c-1.4,0.1-2.9,0.1-4.5,0.2
	c-1.6,0.1-3.2,0.2-4.9,0.3c-1.7,0.1-3.5,0.3-5.3,0.4c-1.8,0.2-3.7,0.3-5.7,0.6c-1.9,0.3-3.9,0.4-5.9,0.7c-2,0.3-4.1,0.6-6.2,0.9
	c-2.1,0.4-4.2,0.8-6.3,1.2c-2.1,0.5-4.2,1-6.4,1.4c-2.1,0.6-4.3,1.1-6.4,1.7c-1.1,0.3-2.1,0.6-3.2,1c-1.1,0.3-2.1,0.6-3.2,1
	c-2.1,0.7-4.3,1.4-6.3,2.2c-1,0.4-2.1,0.8-3.1,1.2c-1,0.4-2,0.9-3.1,1.3l-1.5,0.6l-1.5,0.7c-1,0.5-2,0.9-3,1.4c-1.9,1-3.9,1.9-5.7,3
	c-0.9,0.5-1.8,1-2.8,1.5c-0.9,0.5-1.8,1.1-2.6,1.6c-1.8,1-3.4,2.1-5.1,3.2c-3.2,2.2-6.3,4.3-9,6.4c-2.7,2.1-5.2,4.1-7.3,5.9
	c-2.1,1.8-3.9,3.5-5.4,4.9c-2.9,2.8-4.5,4.6-4.5,4.6c-0.2,0.2-0.5,0.2-0.7,0C523.5,484.8,523.4,484.6,523.5,484.4L523.5,484.4z"/>
<path d="M476.5,484.4c0,0-0.2-0.6-0.7-1.6c-0.5-1-1.3-2.5-2.4-4.2c-1.1-1.8-2.5-3.9-4.2-6.3c-1.7-2.4-3.8-4.9-6.3-7.6
	c-2.4-2.7-5.3-5.4-8.4-8.1c-3.2-2.7-6.6-5.4-10.4-8c-0.9-0.7-1.9-1.3-2.9-1.9c-1-0.6-2-1.2-3-1.8c-1-0.6-2.1-1.2-3.1-1.7l-1.6-0.9
	l-1.6-0.8c-1.1-0.5-2.2-1.1-3.2-1.6c-1.1-0.5-2.2-1-3.3-1.5c-2.2-1-4.5-1.8-6.8-2.7c-1.1-0.4-2.3-0.8-3.5-1.2
	c-1.2-0.4-2.3-0.7-3.5-1.1c-2.3-0.7-4.7-1.2-7-1.8c-2.3-0.5-4.7-0.9-7-1.3c-2.3-0.3-4.6-0.6-6.9-0.9c-2.3-0.2-4.5-0.3-6.7-0.4
	c-2.2-0.1-4.3,0-6.4,0c-2.1,0-4.1,0.2-6,0.3c-1.9,0.1-3.8,0.2-5.6,0.5c-3.6,0.5-6.8,1-9.7,1.6c-2.9,0.6-5.3,1.2-7.3,1.8
	c-4,1.2-6.2,2-6.2,2c-0.2,0.1-0.4,0.4-0.3,0.6c0.1,0.2,0.2,0.3,0.4,0.3l0,0c0,0,2.4,0.2,6.5,0.3c2,0,4.5,0.2,7.4,0.3
	c1.4,0.1,2.9,0.1,4.5,0.2c1.6,0.1,3.2,0.2,4.9,0.3c1.7,0.1,3.5,0.3,5.3,0.4c1.8,0.2,3.7,0.3,5.7,0.6c1.9,0.3,3.9,0.4,5.9,0.7
	c2,0.3,4.1,0.6,6.2,0.9c2.1,0.4,4.2,0.8,6.3,1.2c2.1,0.5,4.2,1,6.4,1.4c2.1,0.6,4.3,1.1,6.4,1.7c1.1,0.3,2.1,0.6,3.2,1
	c1.1,0.3,2.1,0.6,3.2,1c2.1,0.7,4.3,1.4,6.3,2.2c1,0.4,2.1,0.8,3.1,1.2c1,0.4,2,0.9,3.1,1.3l1.5,0.6l1.5,0.7c1,0.5,2,0.9,3,1.4
	c1.9,1,3.9,1.9,5.7,3c0.9,0.5,1.8,1,2.8,1.5c0.9,0.5,1.8,1.1,2.6,1.6c1.8,1,3.4,2.1,5.1,3.2c3.2,2.2,6.3,4.3,9,6.4
	c2.7,2.1,5.2,4.1,7.3,5.9c2.1,1.8,3.9,3.5,5.4,4.9c2.9,2.8,4.5,4.6,4.5,4.6c0.2,0.2,0.5,0.2,0.7,0
	C476.5,484.8,476.6,484.6,476.5,484.4L476.5,484.4z"/>
</svg>
