<?xml version="1.0" encoding="utf-8"?>
<!-- Generator: Adobe Illustrator 26.0.1, SVG Export Plug-In . SVG Version: 6.00 Build 0)  -->
<svg version="1.1" id="blacks" xmlns="http://www.w3.org/2000/svg" xmlns:xlink="http://www.w3.org/1999/xlink" x="0px" y="0px"
	 viewBox="0 0 1000 1000" style="enable-background:new 0 0 1000 1000;" xml:space="preserve">

<g id="blacks">
	<g>
		<path d="M535.5,475c0,0,1.5-0.8,4.1-2.2c1.3-0.7,2.8-1.5,4.6-2.5c1.8-0.9,3.9-2,6.2-3.2c2.3-1.1,4.7-2.4,7.3-3.7
			c1.3-0.7,2.6-1.3,4-2c1.4-0.7,2.8-1.3,4.2-2c2.9-1.4,5.8-2.8,8.8-4.3c3-1.5,6-2.8,9.1-4.2c3.1-1.4,6.1-2.9,9.1-4.3
			c3-1.3,6-2.7,8.8-3.9c2.9-1.3,5.6-2.5,8.3-3.7c2.6-1.2,5.1-2.2,7.4-3.2c4.6-1.9,8.4-3.7,11.1-4.8c2.7-1.2,4.2-1.9,4.2-1.9
			s-1.4,0.2-3.9,0.5c-2.5,0.3-6,0.8-10.3,1.5c-2.2,0.3-4.5,0.6-7,1.1c-2.5,0.4-5.1,0.9-7.9,1.5c-2.7,0.5-5.6,1.1-8.4,1.6
			c-2.9,0.6-5.8,1.3-8.8,2c-3,0.7-5.9,1.3-8.8,2.1c-2.9,0.8-5.8,1.5-8.6,2.2c-1.4,0.4-2.8,0.7-4.1,1.1c-1.4,0.4-2.7,0.8-4,1.2
			c-2.6,0.8-5.1,1.5-7.3,2.1c-2.3,0.7-4.4,1.4-6.3,2c-1.8,0.6-3.6,1.2-4.9,1.6c-1.4,0.5-2.5,0.9-3.2,1.1c-0.7,0.3-1.1,0.4-1.1,0.4
			c-6.3,2.3-12.4,9.7-13.7,16.6c-1.3,6.9,2.8,10.7,9.1,8.4c0.7-0.2,1.3-0.5,2-0.9L535.5,475z"/>
	</g>
</g>
<g id="blacks
       ">
	<g>
		<path d="M464.5,475c0,0-1.5-0.8-4.1-2.2c-1.3-0.7-2.8-1.5-4.6-2.5c-1.8-0.9-3.9-2-6.2-3.2c-2.3-1.1-4.7-2.4-7.3-3.7
			c-1.3-0.7-2.6-1.3-4-2c-1.4-0.7-2.8-1.3-4.2-2c-2.9-1.4-5.8-2.8-8.8-4.3c-3-1.5-6-2.8-9.1-4.2c-3.1-1.4-6.1-2.9-9.1-4.3
			c-3-1.3-6-2.7-8.8-3.9c-2.9-1.3-5.6-2.5-8.3-3.7c-2.6-1.2-5.1-2.2-7.4-3.2c-4.6-1.9-8.4-3.7-11.1-4.8c-2.7-1.2-4.2-1.9-4.2-1.9
			s1.4,0.2,3.9,0.5c2.5,0.3,6,0.8,10.3,1.5c2.2,0.3,4.5,0.6,7,1.1c2.5,0.4,5.1,0.9,7.9,1.5c2.7,0.5,5.6,1.1,8.4,1.6
			c2.9,0.6,5.8,1.3,8.8,2c3,0.7,5.9,1.3,8.8,2.1c2.9,0.8,5.8,1.5,8.6,2.2c1.4,0.4,2.8,0.7,4.1,1.1c1.4,0.4,2.7,0.8,4,1.2
			c2.6,0.8,5.1,1.5,7.3,2.1c2.3,0.7,4.4,1.4,6.3,2c1.8,0.6,3.6,1.2,4.9,1.6c1.4,0.5,2.5,0.9,3.2,1.1c0.7,0.3,1.1,0.4,1.1,0.4
			c6.3,2.3,12.4,9.7,13.7,16.6c1.3,6.9-2.8,10.7-9.1,8.4c-0.7-0.2-1.3-0.5-2-0.9L464.5,475z"/>
	</g>
</g>
</svg>
