<?xml version="1.0" encoding="utf-8"?>
<!-- Generator: Adobe Illustrator 26.0.1, SVG Export Plug-In . SVG Version: 6.00 Build 0)  -->
<svg version="1.1" id="blacks" xmlns="http://www.w3.org/2000/svg" xmlns:xlink="http://www.w3.org/1999/xlink" x="0px" y="0px"
	 viewBox="0 0 1000 1000" style="enable-background:new 0 0 1000 1000;" xml:space="preserve">
<g>
	<path d="M630.2,457.3c0,0-0.1-0.1-0.2-0.2c-0.1-0.2-0.4-0.4-0.7-0.7c-0.5-0.6-1.3-1.4-2.3-2.4c-2-2-5-4.7-8.9-7.5
		c-2-1.4-4.1-2.9-6.5-4.2c-1.2-0.7-2.5-1.4-3.7-2.1c-1.3-0.6-2.6-1.3-4-1.9c-2.8-1.3-5.8-2.3-8.8-3.3c-3.1-0.9-6.3-1.7-9.5-2.2
		c-0.8-0.1-1.6-0.3-2.4-0.4l-2.5-0.3c-1.6-0.2-3.3-0.3-4.9-0.4c-1.6-0.1-3.2,0-4.8,0s-3.2,0.2-4.7,0.2c-3.1,0.3-6,0.6-8.8,1.2
		c-0.7,0.1-1.4,0.2-2.1,0.4c-0.7,0.2-1.3,0.3-2,0.5c-1.3,0.3-2.6,0.6-3.7,0.9c-2.3,0.7-4.5,1.3-6.4,2s-3.5,1.2-4.8,1.8
		c-2.6,1.1-4.1,1.7-4.1,1.7c-0.2,0.1-0.4,0.2-0.6,0.3c-4.5,2.3-6.3,7.9-4,12.4s7.9,6.3,12.4,4l0.4-0.2c0,0,1.2-0.6,3.3-1.7
		c1-0.6,2.4-1.1,3.9-1.8c1.5-0.7,3.2-1.3,5.1-2.1c0.9-0.4,1.9-0.6,3-1c0.5-0.2,1-0.3,1.6-0.5c0.5-0.2,1.1-0.3,1.6-0.4
		c2.2-0.6,4.6-1.1,7-1.5c1.2-0.1,2.5-0.4,3.7-0.5c1.3-0.1,2.6-0.3,3.9-0.2c1.3,0,2.6-0.1,3.9,0l2,0.1l2,0.2c2.6,0.2,5.3,0.7,7.8,1.2
		c2.6,0.6,5.1,1.3,7.4,2.2c1.2,0.4,2.3,0.9,3.5,1.3c1.1,0.5,2.2,1,3.3,1.5c2.1,1,4,2.1,5.8,3.2c3.5,2.1,6.2,4.2,8,5.8
		c0.9,0.8,1.6,1.4,2,1.8c0.2,0.2,0.3,0.3,0.4,0.4c0.1,0.1,0.2,0.2,0.2,0.2l0.1,0.1c2.1,2.1,5.4,2.2,7.7,0.3
		C631.9,463.3,632.2,459.7,630.2,457.3z"/>
	<path d="M466.4,440.7c-0.2-0.1-0.4-0.2-0.6-0.3c0,0-1.5-0.6-4.1-1.7c-1.3-0.6-2.9-1.1-4.8-1.8c-1.8-0.7-4-1.3-6.4-2
		c-1.2-0.4-2.4-0.6-3.7-0.9c-0.6-0.2-1.3-0.3-2-0.5c-0.7-0.1-1.4-0.3-2.1-0.4c-2.8-0.5-5.7-0.9-8.8-1.2c-1.5-0.1-3.1-0.2-4.7-0.2
		s-3.2-0.1-4.8,0c-1.6,0.1-3.3,0.1-4.9,0.4l-2.5,0.3c-0.8,0.1-1.6,0.3-2.4,0.4c-3.3,0.5-6.4,1.3-9.5,2.2c-3.1,1-6.1,2-8.8,3.3
		c-1.4,0.6-2.7,1.3-4,1.9c-1.3,0.7-2.6,1.3-3.7,2.1c-2.4,1.4-4.6,2.9-6.5,4.2c-3.9,2.8-6.9,5.5-8.9,7.5c-1,1-1.8,1.8-2.3,2.4
		c-0.3,0.3-0.5,0.6-0.7,0.7c-0.1,0.2-0.2,0.2-0.2,0.2c-2,2.4-1.7,5.9,0.6,8c2.3,1.9,5.6,1.8,7.7-0.3l0.1-0.1c0,0,0.1-0.1,0.2-0.2
		s0.2-0.2,0.4-0.4c0.4-0.4,1.1-1,2-1.8c1.8-1.5,4.5-3.6,8-5.8c1.8-1,3.7-2.2,5.8-3.2c1-0.5,2.2-1,3.3-1.5c1.1-0.4,2.3-1,3.5-1.3
		c2.4-0.9,4.9-1.6,7.4-2.2c2.6-0.5,5.2-1,7.8-1.2l2-0.2l2-0.1c1.3-0.1,2.6,0,3.9,0s2.6,0.2,3.9,0.2c1.3,0.1,2.5,0.3,3.7,0.5
		c2.5,0.4,4.8,0.9,7,1.5c0.6,0.1,1.1,0.3,1.6,0.4c0.5,0.2,1.1,0.3,1.6,0.5c1,0.3,2,0.6,3,1c1.9,0.7,3.6,1.3,5.1,2.1
		c1.5,0.7,2.8,1.2,3.9,1.8c2.1,1.1,3.3,1.7,3.3,1.7l0.4,0.2c4.5,2.3,10,0.5,12.4-4C472.7,448.5,470.9,443,466.4,440.7z"/>
</g>
</svg>
