<?xml version="1.0" encoding="utf-8"?>
<!-- Generator: Adobe Illustrator 26.0.1, SVG Export Plug-In . SVG Version: 6.00 Build 0)  -->
<svg version="1.1" id="blacks" xmlns="http://www.w3.org/2000/svg" xmlns:xlink="http://www.w3.org/1999/xlink" x="0px" y="0px"
	 viewBox="0 0 1000 1000" style="enable-background:new 0 0 1000 1000;" xml:space="preserve">

<g>
	<path d="M601.5,441.3c0,0-0.3-0.2-0.8-0.5c-0.5-0.3-1.3-0.8-2.3-1.3c-1-0.5-2.3-1.1-3.8-1.6c-0.7-0.3-1.5-0.5-2.4-0.8
		c-0.9-0.2-1.8-0.4-2.7-0.7c-1-0.2-2-0.4-3-0.5c-1-0.2-2.1-0.2-3.2-0.4c-1.1-0.1-2.3-0.1-3.4-0.2c-1.2,0-2.4,0-3.6,0.1
		c-1.2,0.1-2.4,0.1-3.7,0.3c-0.6,0.1-1.2,0.1-1.9,0.2c-0.6,0.1-1.2,0.2-1.9,0.3c-2.5,0.4-5,1-7.4,1.7c-2.4,0.7-4.8,1.5-7.1,2.4
		c-1.1,0.4-2.3,0.9-3.4,1.4c-1.1,0.5-2.2,0.9-3.2,1.4c-4.2,1.9-7.9,3.9-11,5.6c-1.6,0.9-3,1.6-4.2,2.2c-1.2,0.6-2.3,1.2-3.2,1.5
		c-0.2,0.1-0.4,0.2-0.6,0.3c-0.2,0.1-0.4,0.1-0.5,0.2c-0.3,0.1-0.6,0.2-0.9,0.3c-0.6,0.1-0.9,0.2-0.9,0.2l0,0
		c-0.3,0.1-0.6,0.3-0.7,0.6c-0.3,0.5-0.1,1.2,0.5,1.5c0,0,0.3,0.1,0.8,0.4c0.2,0.1,0.7,0.2,1.1,0.4c0.2,0.1,0.5,0.1,0.8,0.2
		c0.3,0,0.5,0.1,0.8,0.1c1.2,0.2,2.6,0.2,4.3,0.2c1.6-0.1,3.4-0.3,5.3-0.6c1.9-0.3,3.9-0.7,5.9-1.2c2.1-0.5,4.2-1,6.3-1.6
		c1.1-0.3,2.2-0.6,3.3-0.9c1.1-0.3,2.2-0.6,3.3-1c2.2-0.6,4.4-1.3,6.7-1.9c2.2-0.7,4.4-1.2,6.6-1.8c2.2-0.6,4.3-1,6.4-1.5
		c1-0.2,2.1-0.4,3.1-0.6c1-0.2,2-0.4,2.9-0.5c1.9-0.3,3.8-0.6,5.5-0.8c0.9-0.1,1.7-0.2,2.5-0.3c0.8-0.1,1.5-0.1,2.3-0.2
		c1.4-0.2,2.7-0.2,3.8-0.3c1.1-0.1,1.9-0.1,2.5-0.1c0.6-0.1,0.9-0.1,0.9-0.1l0,0c0.3,0,0.6-0.2,0.8-0.5
		C602.2,442.3,602,441.6,601.5,441.3z"/>
	<path d="M476.5,453.5L476.5,453.5c0,0-0.3-0.1-0.9-0.2c-0.3,0-0.6-0.2-0.9-0.3c-0.2-0.1-0.3-0.1-0.5-0.2
		c-0.2-0.1-0.4-0.2-0.6-0.3c-0.9-0.4-2-0.9-3.2-1.5c-1.3-0.7-2.7-1.4-4.2-2.2c-3.1-1.7-6.8-3.7-11-5.6c-1-0.5-2.1-1-3.2-1.4
		c-1.1-0.5-2.2-0.9-3.4-1.4c-2.3-0.9-4.7-1.7-7.1-2.4c-2.4-0.7-4.9-1.3-7.4-1.7c-0.6-0.1-1.2-0.2-1.9-0.3c-0.6-0.1-1.2-0.1-1.9-0.2
		c-1.2-0.2-2.5-0.2-3.7-0.3c-1.2-0.1-2.4-0.1-3.6-0.1c-1.2,0.1-2.3,0.1-3.4,0.2c-1.1,0.1-2.2,0.2-3.2,0.4c-1,0.2-2,0.3-3,0.5
		c-1,0.2-1.9,0.4-2.7,0.7c-0.9,0.3-1.7,0.5-2.4,0.8c-1.5,0.5-2.7,1.1-3.8,1.6c-1,0.5-1.8,1-2.3,1.3c-0.5,0.3-0.8,0.5-0.8,0.5
		c-0.5,0.3-0.6,1-0.3,1.5c0.2,0.3,0.5,0.5,0.8,0.5l0,0c0,0,0.3,0,0.9,0.1c0.6,0,1.4,0.1,2.5,0.1c1.1,0.1,2.3,0.1,3.8,0.3
		c0.7,0.1,1.5,0.1,2.3,0.2c0.8,0.1,1.6,0.2,2.5,0.3c1.7,0.2,3.5,0.5,5.5,0.8c1,0.2,1.9,0.4,2.9,0.5c1,0.2,2,0.4,3.1,0.6
		c2.1,0.5,4.2,0.9,6.4,1.5c2.2,0.6,4.4,1.1,6.6,1.8c2.2,0.6,4.4,1.3,6.7,1.9c1.1,0.3,2.2,0.6,3.3,1c1.1,0.3,2.2,0.6,3.3,0.9
		c2.2,0.6,4.3,1.2,6.3,1.6c2.1,0.5,4,0.9,5.9,1.2c1.9,0.3,3.7,0.5,5.3,0.6c1.6,0,3.1,0,4.3-0.2c0.3,0,0.6-0.1,0.8-0.1
		c0.3-0.1,0.6-0.1,0.8-0.2c0.5-0.1,0.9-0.2,1.1-0.4c0.5-0.2,0.8-0.4,0.8-0.4c0.5-0.3,0.8-0.9,0.5-1.5
		C477.1,453.8,476.9,453.6,476.5,453.5z"/>
</g>
</svg>
