<?xml version="1.0" encoding="utf-8"?>
<!-- Generator: Adobe Illustrator 26.0.1, SVG Export Plug-In . SVG Version: 6.00 Build 0)  -->
<svg version="1.1" id="blacks" xmlns="http://www.w3.org/2000/svg" xmlns:xlink="http://www.w3.org/1999/xlink" x="0px" y="0px"
	 viewBox="0 0 1000 1000" style="enable-background:new 0 0 1000 1000;" xml:space="preserve">
<g>
	<path d="M631.2,455.5c0,0-0.9-1.6-2.8-4.2c-0.2-0.3-0.5-0.7-0.8-1s-0.6-0.7-0.9-1c-0.6-0.7-1.4-1.5-2.1-2.3
		c-1.5-1.7-3.4-3.3-5.5-5.1c-1-0.9-2.2-1.7-3.4-2.6s-2.5-1.7-3.8-2.6c-1.3-0.8-2.7-1.6-4.2-2.5c-0.7-0.4-1.4-0.8-2.2-1.2
		c-0.8-0.4-1.5-0.7-2.3-1.1c-1.5-0.7-3.1-1.5-4.7-2.2c-1.6-0.6-3.3-1.3-5-1.9c-1.7-0.7-3.4-1.1-5.1-1.7c-1.7-0.5-3.5-1-5.3-1.4
		s-3.5-0.8-5.3-1.1c-1.8-0.3-3.6-0.6-5.3-0.8c-0.9-0.1-1.8-0.2-2.6-0.4c-0.9-0.1-1.8-0.1-2.6-0.2c-1.8-0.1-3.5-0.2-5.2-0.3
		c-1.7,0-3.4,0-5,0c-0.8,0-1.6,0-2.4,0.1c-0.8,0.1-1.6,0.1-2.4,0.2c-1.6,0.2-3.1,0.3-4.5,0.5c-1.5,0.2-2.9,0.5-4.2,0.7
		c-1.3,0.3-2.6,0.5-3.8,0.8s-2.4,0.6-3.5,1c-1.1,0.3-2.1,0.6-3,0.9s-1.7,0.7-2.4,1c-2.9,1.2-4.5,2.1-4.5,2.1
		c-0.4,0.2-0.7,0.6-0.8,1.1c-0.2,0.9,0.4,1.8,1.3,2c0,0,1.8,0.4,4.9,0.8c0.8,0.1,1.6,0.2,2.5,0.4c0.9,0.2,1.8,0.3,2.9,0.5
		c1,0.2,2.1,0.3,3.2,0.5c1.1,0.2,2.3,0.4,3.6,0.6c1.2,0.2,2.5,0.4,3.8,0.6c1.3,0.3,2.7,0.5,4.1,0.8c0.7,0.1,1.4,0.2,2.1,0.4
		c0.7,0.1,1.4,0.3,2.2,0.4c1.5,0.3,2.9,0.6,4.4,0.8c1.5,0.3,3,0.6,4.6,1c0.8,0.1,1.5,0.3,2.3,0.4c0.8,0.2,1.5,0.4,2.3,0.5
		c1.6,0.3,3.1,0.7,4.7,1c1.6,0.4,3.1,0.8,4.7,1.1c1.6,0.3,3.1,0.8,4.7,1.2c1.6,0.4,3.1,0.7,4.7,1.2c1.5,0.4,3.1,0.8,4.6,1.2
		c1.5,0.4,3,0.9,4.4,1.3c0.7,0.2,1.5,0.4,2.2,0.6s1.4,0.4,2.1,0.7c1.4,0.4,2.8,0.9,4.1,1.2c1.3,0.4,2.6,0.9,3.9,1.3
		c1.3,0.4,2.5,0.8,3.7,1.2c2.3,0.9,4.5,1.5,6.4,2.3s3.7,1.3,5,1.9c2.8,1.1,4.5,1.7,4.5,1.7h0.1c0.4,0.1,0.9,0.1,1.3-0.1
		C631.4,457.3,631.6,456.3,631.2,455.5z"/>
	<path d="M474,429c0,0-1.6-0.9-4.5-2.1c-0.7-0.3-1.5-0.7-2.4-1s-1.9-0.6-3-0.9s-2.2-0.6-3.5-1c-1.2-0.3-2.5-0.5-3.8-0.8
		s-2.7-0.5-4.2-0.7s-3-0.3-4.5-0.5c-0.8-0.1-1.6-0.1-2.4-0.2c-0.8,0-1.6-0.1-2.4-0.1c-1.6,0-3.3,0-5,0c-1.7,0.1-3.4,0.2-5.2,0.3
		c-0.9,0.1-1.8,0.1-2.6,0.2c-0.9,0.1-1.8,0.2-2.6,0.4c-1.8,0.3-3.6,0.5-5.3,0.8c-1.8,0.4-3.5,0.8-5.3,1.1c-1.8,0.4-3.5,0.9-5.3,1.4
		c-1.7,0.5-3.5,1-5.1,1.7c-1.7,0.6-3.3,1.3-5,1.9c-1.6,0.7-3.2,1.4-4.7,2.2c-0.8,0.4-1.5,0.7-2.3,1.1c-0.7,0.4-1.5,0.8-2.2,1.2
		c-1.4,0.8-2.8,1.6-4.2,2.5c-1.3,0.9-2.6,1.8-3.8,2.6c-1.2,0.9-2.4,1.7-3.4,2.6c-2.1,1.8-4,3.4-5.5,5.1c-0.8,0.8-1.5,1.6-2.1,2.3
		c-0.3,0.4-0.6,0.7-0.9,1c-0.3,0.4-0.5,0.7-0.8,1c-1.9,2.6-2.8,4.2-2.8,4.2c-0.5,0.8-0.2,1.8,0.6,2.3c0.4,0.2,0.9,0.3,1.3,0.1h0.1
		c0,0,1.8-0.6,4.5-1.7c1.3-0.6,3.1-1.1,5-1.9s4.1-1.4,6.4-2.3c1.1-0.4,2.4-0.8,3.7-1.2c1.3-0.4,2.5-0.9,3.9-1.3s2.7-0.8,4.1-1.2
		c0.7-0.2,1.4-0.4,2.1-0.7c0.7-0.2,1.5-0.4,2.2-0.6c1.5-0.4,2.9-0.9,4.4-1.3s3-0.8,4.6-1.2c1.5-0.5,3.1-0.8,4.7-1.2
		c1.6-0.4,3.1-0.9,4.7-1.2c1.6-0.4,3.2-0.7,4.7-1.1c1.6-0.3,3.1-0.7,4.7-1c0.8-0.2,1.6-0.4,2.3-0.5c0.8-0.2,1.6-0.3,2.3-0.4
		c1.5-0.3,3.1-0.6,4.6-1c1.5-0.3,3-0.5,4.4-0.8c0.7-0.1,1.4-0.3,2.2-0.4c0.7-0.1,1.4-0.2,2.1-0.4c1.4-0.3,2.8-0.5,4.1-0.8
		c1.3-0.3,2.6-0.4,3.8-0.6c1.2-0.2,2.4-0.4,3.6-0.6c1.1-0.2,2.2-0.3,3.2-0.5s2-0.3,2.9-0.5s1.8-0.2,2.5-0.4c3.1-0.4,4.9-0.8,4.9-0.8
		c0.9-0.2,1.5-1.1,1.3-2C474.7,429.6,474.4,429.2,474,429z"/>
</g>
</svg>
