<?xml version="1.0" encoding="utf-8"?>
<!-- Generator: Adobe Illustrator 26.0.1, SVG Export Plug-In . SVG Version: 6.00 Build 0)  -->
<svg version="1.1" id="blacks" xmlns="http://www.w3.org/2000/svg" xmlns:xlink="http://www.w3.org/1999/xlink" x="0px" y="0px"
	 viewBox="0 0 1000 1000" style="enable-background:new 0 0 1000 1000;" xml:space="preserve">

<g>
	<path d="M631.8,450.3c0,0-0.2-0.4-0.7-1.2c-0.2-0.4-0.5-0.8-0.9-1.3c-0.4-0.5-0.9-1.1-1.5-1.8c-0.6-0.6-1.3-1.3-2-2
		c-0.8-0.7-1.6-1.4-2.6-2.1c-1.9-1.4-4.2-2.8-6.7-4.1c-2.6-1.3-5.5-2.4-8.6-3.3c-3.1-0.9-6.4-1.6-9.8-2.1c-0.9-0.1-1.7-0.2-2.6-0.3
		l-1.3-0.1l-0.7-0.1l-1,0l-0.6,0l-0.3,0l-0.5,0c-0.6,0-1.3,0.1-1.9,0.1c-1,0.1-2.1,0.2-3.1,0.4c-4,0.6-7.6,1.6-11.1,2.7
		c-7,2.2-13.5,5.1-19.4,8c-2.9,1.5-5.7,3-8.4,4.5c-1.3,0.8-2.6,1.5-3.8,2.2c-1.2,0.8-2.4,1.5-3.5,2.2c-2.2,1.4-4.2,2.8-6,4
		c-1.8,1.2-3.3,2.3-4.5,3.3c-2.5,1.9-3.8,3.1-3.8,3.1l0,0c-0.4,0.3-0.6,0.9-0.5,1.4c0.1,0.9,0.9,1.6,1.8,1.5c0,0,1.8-0.2,4.8-0.7
		c1.5-0.3,3.4-0.6,5.4-1.1c2.1-0.5,4.4-1,6.9-1.6c1.3-0.3,2.6-0.6,3.9-1c1.3-0.4,2.7-0.7,4.1-1.1c2.8-0.8,5.8-1.6,8.9-2.5
		c6.1-1.7,12.5-3.6,18.7-5.2c3.1-0.8,6.2-1.5,8.8-1.9c0.7-0.1,1.3-0.2,1.9-0.2c0.2,0,0.4,0,0.6,0l0.1,0l0.3,0l0.6,0l0.3,0l0.2,0l0,0
		c-0.1,0,0.4,0-0.3,0l0.1,0l0.6,0l1.2,0c0.8,0,1.5,0.1,2.3,0.1c3,0.1,5.9,0.2,8.6,0.3c2.7,0.1,5.3,0.2,7.6,0.4
		c1.2,0.1,2.3,0.1,3.4,0.3c1.1,0.1,2.1,0.2,3.1,0.3c1,0.1,1.9,0.3,2.8,0.3c0.8,0.1,1.7,0.2,2.4,0.3c0.7,0.1,1.3,0.2,1.9,0.3
		c0.6,0.1,1.1,0.2,1.6,0.3c0.9,0.2,1.3,0.2,1.3,0.2c0.4,0,0.7,0,1.1-0.2C632,452.2,632.3,451.1,631.8,450.3z"/>
	<path d="M473.4,462.3c0,0-1.3-1.2-3.8-3.1c-1.2-0.9-2.7-2-4.5-3.3c-1.8-1.2-3.7-2.6-6-4c-1.1-0.7-2.3-1.4-3.5-2.2
		c-1.2-0.7-2.5-1.5-3.8-2.2c-2.6-1.5-5.4-3-8.4-4.5c-5.9-3-12.4-5.8-19.4-8c-3.5-1.1-7.1-2.1-11.1-2.7c-1-0.2-2.1-0.3-3.1-0.4
		c-0.6,0-1.3-0.1-1.9-0.1l-0.5,0l-0.3,0l-0.6,0l-1,0l-0.7,0.1l-1.3,0.1c-0.9,0.1-1.7,0.2-2.6,0.3c-3.4,0.5-6.7,1.2-9.8,2.1
		c-3.1,0.9-6,2.1-8.6,3.3c-2.6,1.3-4.8,2.7-6.7,4.1c-0.9,0.7-1.8,1.4-2.6,2.1c-0.8,0.7-1.4,1.4-2,2c-0.6,0.6-1.1,1.3-1.5,1.8
		c-0.4,0.5-0.7,1-0.9,1.3c-0.5,0.7-0.7,1.2-0.7,1.2c-0.5,0.8-0.2,1.9,0.7,2.4c0.3,0.2,0.7,0.2,1.1,0.2c0,0,0.5-0.1,1.3-0.2
		c0.4-0.1,1-0.2,1.6-0.3c0.6-0.1,1.2-0.2,1.9-0.3c0.7-0.1,1.5-0.2,2.4-0.3c0.9-0.1,1.8-0.2,2.8-0.3c1-0.1,2-0.2,3.1-0.3
		c1.1-0.1,2.2-0.2,3.4-0.3c2.4-0.2,4.9-0.3,7.6-0.4c2.7-0.1,5.6-0.2,8.6-0.3c0.8,0,1.5-0.1,2.3-0.1l1.2,0l0.6,0l0.1,0
		c-0.7,0-0.2,0-0.3,0l0,0l0.2,0l0.3,0l0.6,0l0.3,0l0.1,0c0.2,0,0.4,0,0.6,0c0.6,0.1,1.2,0.1,1.9,0.2c2.7,0.4,5.8,1.1,8.8,1.9
		c6.2,1.6,12.6,3.5,18.7,5.2c3.1,0.9,6,1.7,8.9,2.5c1.4,0.4,2.8,0.7,4.1,1.1c1.4,0.3,2.7,0.7,3.9,1c2.5,0.6,4.8,1.2,6.9,1.6
		c2.1,0.4,3.9,0.8,5.4,1.1c3,0.6,4.8,0.7,4.8,0.7c0.9,0.1,1.7-0.6,1.8-1.5C474,463.2,473.8,462.7,473.4,462.3L473.4,462.3z"/>
</g>
</svg>
