<?xml version="1.0" encoding="utf-8"?>
<!-- Generator: Adobe Illustrator 26.0.1, SVG Export Plug-In . SVG Version: 6.00 Build 0)  -->
<svg version="1.1" id="blacks" xmlns="http://www.w3.org/2000/svg" xmlns:xlink="http://www.w3.org/1999/xlink" x="0px" y="0px"
	 viewBox="0 0 1000 1000" style="enable-background:new 0 0 1000 1000;" xml:space="preserve">

<g>
	<path d="M627.7,434.4c-27-2.4-55.8-0.6-90.5,5.7c-4.9,0.9-8.1,5.6-7.3,10.5c0.8,4.3,4.6,7.4,8.8,7.4
		c0.5,0,1.1,0,1.6-0.1c33.6-6.1,60-7.8,85.7-5.5c4.9,0.4,9.3-3.2,9.8-8.2C636.3,439.2,632.6,434.8,627.7,434.4z"/>
	<path d="M462.8,440.1c-34.8-6.3-63.5-8.1-90.5-5.7c-5,0.4-8.6,4.8-8.2,9.8c0.4,5,4.8,8.6,9.8,8.2
		c25.7-2.3,52.2-0.6,85.7,5.5c0.5,0.1,1.1,0.1,1.6,0.1c4.3,0,8.1-3,8.8-7.4C471,445.7,467.7,441,462.8,440.1z"/>
</g>
</svg>
