<?xml version="1.0" encoding="utf-8"?>
<!-- Generator: Adobe Illustrator 26.0.1, SVG Export Plug-In . SVG Version: 6.00 Build 0)  -->
<svg version="1.1" id="blacks" xmlns="http://www.w3.org/2000/svg" xmlns:xlink="http://www.w3.org/1999/xlink" x="0px" y="0px"
	 viewBox="0 0 1000 1000" style="enable-background:new 0 0 1000 1000;" xml:space="preserve">

<g>
	<path d="M640,430.3c-23.8-9.8-53.2-10.9-87.9,0.2c-6.6,2.1-11.1,6.1-12.5,9.8c-1.2,3.3-10.6,26.5-8,27.9
		c2.6,1.4,7.2,0.9,10.4-0.7c18.8-9.2,47.2-13.9,69.8-4.6c4.3,1.8,16.4-12.9,28.5-25.2C643.4,434.5,644.4,432.1,640,430.3z"/>
	<path d="M447.8,430.4c-34.6-11-64.1-10-87.9-0.2c-4.4,1.8-3.3,4.2-0.3,7.3c12.1,12.3,24.1,27,28.5,25.2
		c22.6-9.4,51-4.6,69.8,4.6c3.3,1.6,7.8,2.1,10.4,0.7c2.6-1.4-6.8-24.6-8-27.9C459,436.5,454.4,432.5,447.8,430.4z"/>
</g>
</svg>
