<?xml version="1.0" encoding="utf-8"?>
<!-- Generator: Adobe Illustrator 26.0.1, SVG Export Plug-In . SVG Version: 6.00 Build 0)  -->
<svg version="1.1" id="blacks" xmlns="http://www.w3.org/2000/svg" xmlns:xlink="http://www.w3.org/1999/xlink" x="0px" y="0px"
	 viewBox="0 0 1000 1000" style="enable-background:new 0 0 1000 1000;" xml:space="preserve">
<g>
	<path d="M611,445.7c0,0-0.9-0.7-2.6-1.9c-0.4-0.3-0.9-0.6-1.4-0.9s-1.1-0.7-1.7-1.1c-1.2-0.7-2.6-1.6-4.2-2.4
		c-1.5-0.9-3.3-1.6-5.2-2.5c-0.9-0.4-1.9-0.8-2.9-1.2c-0.5-0.2-1-0.4-1.5-0.6s-1.1-0.3-1.6-0.5c-1.1-0.3-2.2-0.7-3.3-0.9
		c-1.1-0.3-2.3-0.6-3.5-0.8c-1.2-0.2-2.4-0.4-3.6-0.5l-1.9-0.2l-1.9-0.1c-2.5-0.1-5.1,0-7.6,0.2c-2.5,0.3-5,0.7-7.3,1.5
		c-1.2,0.3-2.3,0.8-3.4,1.1c-1.1,0.5-2.1,0.9-3.1,1.4c-2,1-3.8,2.1-5.3,3.3c-1.6,1.1-2.8,2.4-3.9,3.5c-1.1,1.1-1.9,2.2-2.6,3.1
		c-0.7,0.9-1.1,1.7-1.4,2.3c-0.2,0.3-0.3,0.6-0.4,0.7c-0.1,0.2-0.1,0.2-0.1,0.2c-1.5,2-1.1,4.8,0.9,6.3s4.8,1.1,6.3-0.9l0.1-0.1
		c0.1,0,0.2-0.1,0.4-0.2c0.4-0.2,0.9-0.6,1.6-1c0.7-0.4,1.6-0.9,2.6-1.5c1-0.5,2.1-1.1,3.4-1.7c1.3-0.6,2.6-1.2,4.1-1.7
		c1.5-0.6,3-1,4.7-1.5c1.6-0.5,3.4-0.8,5.2-1s3.7-0.4,5.6-0.3h1.4l1.4,0.1c0.9,0,1.9,0.1,2.8,0.2c0.9,0.1,1.9,0.2,2.8,0.4
		c0.9,0.1,1.9,0.3,2.8,0.5c0.5,0.1,0.9,0.2,1.4,0.3c0.4,0.1,0.9,0.2,1.3,0.3c0.9,0.2,1.8,0.4,2.6,0.6s1.7,0.5,2.5,0.7
		s1.5,0.5,2.3,0.7c1.5,0.4,2.8,0.9,4,1.4c0.6,0.2,1.2,0.4,1.7,0.6s1,0.4,1.4,0.6c1.7,0.7,2.7,1,2.7,1l0.2,0.1c1.8,0.6,3.9,0,5.1-1.6
		C613.5,450,613,447.2,611,445.7z"/>
	<path d="M459.3,449.5c-0.1-0.2-0.2-0.4-0.4-0.7c-0.3-0.6-0.8-1.4-1.4-2.3c-0.7-0.9-1.5-2-2.6-3.1s-2.4-2.4-3.9-3.5
		c-1.5-1.2-3.3-2.3-5.3-3.3c-1-0.5-2-1-3.1-1.4s-2.2-0.9-3.4-1.1c-2.3-0.7-4.8-1.1-7.3-1.5c-2.5-0.3-5-0.4-7.6-0.2l-1.9,0.1
		l-1.9,0.2c-1.2,0.1-2.4,0.3-3.6,0.5s-2.4,0.5-3.5,0.8c-1.2,0.3-2.3,0.6-3.3,0.9c-0.5,0.2-1.1,0.3-1.6,0.5s-1,0.4-1.5,0.6
		c-1,0.4-2,0.7-2.9,1.2c-1.9,0.8-3.6,1.6-5.2,2.5c-1.6,0.8-3,1.6-4.2,2.4c-0.6,0.4-1.2,0.7-1.7,1.1c-0.5,0.3-1,0.7-1.4,0.9
		c-1.7,1.2-2.6,1.9-2.6,1.9c-2,1.5-2.4,4.3-0.9,6.3c1.2,1.6,3.3,2.2,5.1,1.6l0.2-0.1c0,0,1-0.4,2.7-1c0.4-0.2,0.9-0.4,1.4-0.6
		s1.1-0.4,1.7-0.6c1.2-0.4,2.5-0.9,4-1.4c0.7-0.2,1.5-0.5,2.3-0.7s1.6-0.5,2.5-0.7c0.8-0.3,1.7-0.4,2.6-0.6c0.4-0.1,0.9-0.2,1.3-0.3
		c0.4-0.1,0.9-0.2,1.4-0.3c0.9-0.2,1.8-0.4,2.8-0.5c0.9-0.1,1.9-0.3,2.8-0.4s1.9-0.2,2.8-0.2l1.4-0.1h1.4c1.9,0,3.7,0.2,5.6,0.3
		c1.8,0.3,3.5,0.6,5.2,1s3.2,0.9,4.7,1.5c1.5,0.5,2.8,1.1,4.1,1.7c1.3,0.6,2.4,1.2,3.4,1.7s1.9,1.1,2.6,1.5s1.2,0.8,1.6,1
		c0.2,0.1,0.3,0.2,0.4,0.2s0.1,0.1,0.1,0.1c1.5,2,4.3,2.4,6.3,0.9s2.4-4.3,0.9-6.3C459.4,449.7,459.4,449.7,459.3,449.5z"/>
</g>
</svg>
