<?xml version="1.0" encoding="utf-8"?>
<!-- Generator: Adobe Illustrator 26.0.1, SVG Export Plug-In . SVG Version: 6.00 Build 0)  -->
<svg version="1.1" id="blacks" xmlns="http://www.w3.org/2000/svg" xmlns:xlink="http://www.w3.org/1999/xlink" x="0px" y="0px"
	 viewBox="0 0 1000 1000" style="enable-background:new 0 0 1000 1000;" xml:space="preserve">

<g>
	<path d="M648.2,446.6c-11.7-14.5-34-22.5-59.5-19.5c-24.4,2.9-45.9,15.2-58,31.4c-1.9,2.5,1.4,5.6,3.8,3.6
		c13.7-11.4,32.9-19.8,54.1-22.3c22.2-2.6,42.2,1.7,56,10.7C647.2,452.1,650.1,448.9,648.2,446.6z"/>
	<path d="M411.3,427c-25.5-3-47.7,5.1-59.5,19.5c-1.9,2.3,1,5.5,3.5,3.9c13.8-9,33.8-13.3,56-10.7
		c21.2,2.5,40.4,10.9,54.1,22.3c2.4,2,5.7-1.1,3.8-3.6C457.2,442.3,435.7,429.9,411.3,427z"/>
</g>
</svg>
