<?xml version="1.0" encoding="utf-8"?>
<!-- Generator: Adobe Illustrator 26.0.1, SVG Export Plug-In . SVG Version: 6.00 Build 0)  -->
<svg version="1.1" id="blacks" xmlns="http://www.w3.org/2000/svg" xmlns:xlink="http://www.w3.org/1999/xlink" x="0px" y="0px"
	 viewBox="0 0 1000 1000" style="enable-background:new 0 0 1000 1000;" xml:space="preserve">

<g>
	<path d="M634.4,437.3c-3.2,0.3-7.1,0.4-11,0.3c16.6-11.1,16.5-22.3,16.5-22.3s-10.1,5.3-24.1,11
		c-1.8,0.7-3.9,1.5-6,2.2c10.6-17.9,5.6-30.8,5.6-30.8s-7.9,9.7-19.6,21.1c-4.5,4.4-10.9,9.3-17.1,13.6c6.1-18-0.4-26.6-0.4-26.6
		s-5,10.3-12.8,23.2c-1.9,3.2-4.5,6.8-7.3,10.5c1.3-8.6-1.9-12.6-1.9-12.6s-4,7.8-10.2,17.7c-6.2,9.9-20.7,25.4-20.7,25.4
		s12.4,0,21.9-8.8c6.5-1.2,15.8-4.5,23-12.9c6.7,1.2,15.5,1.3,23.8-3.2c2.7,0.4,5.6,0.6,8.6,0.3c6.7,4.7,16.5,8.7,29.1,6.3
		c25.2-4.8,29.1-18,29.1-18S649.4,435.9,634.4,437.3z"/>
	<path d="M443.9,427.1c0,0-3.2,4-1.9,12.6c-2.8-3.7-5.4-7.3-7.3-10.5c-7.8-12.9-12.8-23.2-12.8-23.2s-6.5,8.6-0.4,26.6
		c-6.2-4.4-12.6-9.2-17.1-13.6c-11.6-11.4-19.6-21.1-19.6-21.1s-5,12.9,5.6,30.8c-2.2-0.7-4.2-1.5-6-2.2c-14-5.7-24.1-11-24.1-11
		s-0.2,11.2,16.5,22.3c-4,0-7.8-0.1-11-0.3c-15-1.3-26.3-3.4-26.3-3.4s3.9,13.2,29.1,18c12.6,2.4,22.5-1.6,29.1-6.3
		c3,0.2,5.9,0.1,8.6-0.3c8.3,4.5,17.1,4.4,23.8,3.2c7.1,8.4,16.4,11.7,23,12.9c9.5,8.8,21.9,8.8,21.9,8.8s-14.4-15.5-20.7-25.4
		C447.9,434.9,443.9,427.1,443.9,427.1z"/>
</g>
</svg>
