<?xml version="1.0" encoding="utf-8"?>
<!-- Generator: Adobe Illustrator 26.0.1, SVG Export Plug-In . SVG Version: 6.00 Build 0)  -->
<svg version="1.1" id="blacks" xmlns="http://www.w3.org/2000/svg" xmlns:xlink="http://www.w3.org/1999/xlink" x="0px" y="0px"
	 viewBox="0 0 1000 1000" style="enable-background:new 0 0 1000 1000;" xml:space="preserve">

<g>
	<path d="M617,438.2l-83.8-0.8c-5.4,0.7-9.3,5.5-8.6,10.8l1.8,13.6c0.7,5.3,5.7,9,11.1,8.4l74.7,0.7
		c5.4,0.8,10.4-2.9,11.2-8.2l2-13.5C626.2,443.9,622.4,439,617,438.2z"/>
	<path d="M466.8,437.5l-83.8,0.8c-5.4,0.8-9.2,5.7-8.4,10.9l2,13.5c0.8,5.3,5.8,8.9,11.2,8.2l74.7-0.7
		c5.4,0.7,10.4-3.1,11.1-8.4l1.8-13.6C476.1,443,472.2,438.2,466.8,437.5z"/>
</g>
</svg>
