<?xml version="1.0" encoding="utf-8"?>
<!-- Generator: Adobe Illustrator 26.0.1, SVG Export Plug-In . SVG Version: 6.00 Build 0)  -->
<svg version="1.1" id="blacks" xmlns="http://www.w3.org/2000/svg" xmlns:xlink="http://www.w3.org/1999/xlink" x="0px" y="0px"
	 viewBox="0 0 1000 1000" style="enable-background:new 0 0 1000 1000;" xml:space="preserve">

<path d="M614.5,426.5c-24.3-1.7-54.7,7.9-76.8,15c-9.8,3.1-21,6.7-24.6,6.7h-8h-10.1h-8c-3.6,0-14.7-3.5-24.6-6.7
	c-22.2-7-52.5-16.7-76.8-15c-5.5,0.4-9.7,5.2-9.3,10.7s5.2,9.6,10.7,9.3c20.5-1.5,48.7,7.5,69.4,14.1c15.3,4.9,24.3,7.6,30.6,7.6h8
	h10.1h8c6.4,0,15.3-2.8,30.6-7.6c20.6-6.6,48.8-15.5,69.4-14.1c5.5,0.4,10.3-3.8,10.7-9.3S620,426.9,614.5,426.5z"/>
</svg>
