<?xml version="1.0" encoding="utf-8"?>
<!-- Generator: Adobe Illustrator 26.0.1, SVG Export Plug-In . SVG Version: 6.00 Build 0)  -->
<svg version="1.1" id="blacks" xmlns="http://www.w3.org/2000/svg" xmlns:xlink="http://www.w3.org/1999/xlink" x="0px" y="0px"
	 viewBox="0 0 1000 1000" style="enable-background:new 0 0 1000 1000;" xml:space="preserve">

<g>
	<path d="M634.5,451.6c0,0-0.1-0.1-0.3-0.3c-0.2-0.2-0.4-0.4-0.7-0.8c-0.6-0.7-1.6-1.5-2.8-2.6c-1.2-1-2.8-2.2-4.6-3.4
		c-0.9-0.6-1.9-1.2-3-1.8c-1.1-0.6-2.2-1.2-3.5-1.8c-2.4-1.2-5.2-2.2-8.2-3.2c-1.5-0.5-3-0.8-4.7-1.2c-0.8-0.2-1.7-0.3-2.6-0.5
		c-0.4-0.1-0.9-0.2-1.3-0.2c-0.5-0.1-0.8-0.1-1.2-0.2c-0.8-0.1-1.5-0.2-2.3-0.3l-0.6-0.1l-0.1,0l-0.4,0l-0.3,0l-1.3-0.1
		c-0.9,0-1.7-0.1-2.6-0.1c-0.9,0-1.7,0-2.6,0c-3.5,0-7.1,0.3-10.5,0.6c-3.4,0.4-6.7,0.9-9.7,1.3c-3.1,0.4-6,0.8-8.7,1
		c-0.7,0.1-1.4,0.1-2,0.2c-0.7,0-1.3,0.1-2,0.1c-0.7,0-1.3,0.1-1.9,0.1c-0.6,0-1.3,0-1.9,0.1c-1.2,0.1-2.5,0.1-3.6,0.1
		c-1.2,0-2.3,0.1-3.4,0.1c-2.2,0.1-4.2,0.1-6,0.2c-0.9,0-1.7,0.1-2.5,0.1c-0.4,0-0.8,0-1.2,0c-0.4,0-0.8,0-1.1,0
		c-2.9,0.1-4.5,0.4-4.5,0.4c-2.3,0.4-4.4,1.8-5.5,4c-1.8,3.6-0.2,8,3.4,9.8l0,0c0,0,1.5,0.7,4.2,1.7c0.7,0.2,1.4,0.5,2.3,0.7
		c0.9,0.2,1.9,0.5,3,0.7c2.1,0.5,4.5,0.9,7.1,1.2c1.3,0.2,2.7,0.2,4.1,0.3c0.7,0,1.4,0.1,2.2,0.1c0.7,0,1.5,0,2.3,0
		c1.5,0,3.1-0.1,4.7-0.3c0.8-0.1,1.6-0.2,2.4-0.2c0.8-0.1,1.6-0.2,2.4-0.3c3.3-0.4,6.5-1.1,9.7-1.8c3.2-0.7,6.3-1.4,9.2-2
		c3-0.6,5.8-1.1,8.6-1.4c0.7-0.1,1.4-0.2,2.1-0.2c0.7,0,1.4-0.1,2.1-0.1l1-0.1l0.3,0l0.1,0l0,0c-0.1,0,0.3,0-0.2,0l0.1,0l0.6,0
		c0.8,0,1.5,0,2.3,0c0.4,0,0.8,0,1.1,0l0.9,0c0.6,0,1.2,0,1.8,0c1.2,0.1,2.5,0.2,3.7,0.4c1.2,0.2,2.4,0.3,3.5,0.6
		c0.6,0.1,1.1,0.2,1.7,0.3c0.5,0.1,1.1,0.3,1.6,0.4c1.1,0.2,2,0.6,3,0.8c0.9,0.3,1.8,0.6,2.6,0.9c1.6,0.6,3,1.3,4.1,1.8
		c1.1,0.5,2,1,2.5,1.3c0.3,0.1,0.5,0.3,0.6,0.3c0.1,0.1,0.1,0,0.1,0.1l0.1,0.1c1.8,1.5,4.5,1.5,6.3-0.2
		C636.2,456.5,636.3,453.5,634.5,451.6z"/>
	<path d="M467.8,439.3c0,0-1.7-0.3-4.5-0.4c-0.4,0-0.7,0-1.1,0c-0.4,0-0.8,0-1.2,0c-0.8-0.1-1.6-0.1-2.5-0.1
		c-1.8-0.1-3.8-0.1-6-0.2c-1.1,0-2.2-0.1-3.4-0.1c-1.2,0-2.4-0.1-3.6-0.1c-0.6,0-1.3,0-1.9-0.1c-0.6,0-1.3-0.1-1.9-0.1
		c-0.7,0-1.3-0.1-2-0.1c-0.7-0.1-1.4-0.1-2-0.2c-2.7-0.2-5.6-0.6-8.7-1c-3.1-0.5-6.3-0.9-9.7-1.3c-3.4-0.4-7-0.6-10.5-0.6
		c-0.9,0-1.8,0-2.6,0c-0.9,0-1.7,0.1-2.6,0.1l-1.3,0.1l-0.3,0l-0.4,0l-0.1,0l-0.6,0.1c-0.8,0.1-1.5,0.2-2.3,0.3
		c-0.4,0.1-0.7,0.1-1.2,0.2c-0.4,0.1-0.9,0.2-1.3,0.2c-0.9,0.1-1.7,0.3-2.6,0.5c-1.6,0.4-3.2,0.8-4.7,1.2c-3,0.9-5.8,1.9-8.2,3.2
		c-1.2,0.6-2.4,1.2-3.5,1.8c-1.1,0.6-2.1,1.2-3,1.8c-1.8,1.2-3.4,2.4-4.6,3.4c-1.2,1.1-2.1,1.9-2.8,2.6c-0.3,0.3-0.6,0.6-0.7,0.8
		c-0.2,0.2-0.3,0.3-0.3,0.3c-1.8,2-1.6,5,0.3,6.8c1.8,1.6,4.5,1.7,6.3,0.2l0.1-0.1c0,0,0,0,0.1-0.1c0.1-0.1,0.3-0.2,0.6-0.3
		c0.5-0.3,1.4-0.8,2.5-1.3c1.1-0.5,2.5-1.2,4.1-1.8c0.8-0.3,1.7-0.6,2.6-0.9c0.9-0.3,1.9-0.6,3-0.8c0.5-0.1,1-0.3,1.6-0.4
		c0.5-0.1,1.1-0.2,1.7-0.3c1.1-0.3,2.3-0.4,3.5-0.6c1.2-0.2,2.5-0.2,3.7-0.4c0.6,0,1.2,0,1.8,0l0.9,0c0.3,0,0.7,0,1.1,0
		c0.8,0,1.5,0,2.3,0l0.6,0l0.1,0c-0.5,0-0.1,0-0.2,0l0,0l0.1,0l0.3,0l1,0.1c0.7,0,1.4,0.1,2.1,0.1c0.7,0.1,1.4,0.2,2.1,0.2
		c2.8,0.3,5.7,0.8,8.6,1.4c3,0.6,6,1.3,9.2,2c3.2,0.7,6.5,1.3,9.7,1.8c0.8,0.1,1.6,0.2,2.4,0.3c0.8,0.1,1.6,0.2,2.4,0.2
		c1.6,0.1,3.2,0.3,4.7,0.3c0.8,0,1.5,0,2.3,0c0.7,0,1.5-0.1,2.2-0.1c1.4-0.1,2.8-0.1,4.1-0.3c2.6-0.3,5-0.7,7.1-1.2
		c1.1-0.2,2.1-0.5,3-0.7c0.9-0.2,1.6-0.5,2.3-0.7c2.7-1,4.2-1.7,4.2-1.7l0,0c3.6-1.8,5.2-6.2,3.4-9.8
		C472.2,441.1,470.1,439.7,467.8,439.3z"/>
</g>
</svg>
