<?xml version="1.0" encoding="utf-8"?>
<!-- Generator: Adobe Illustrator 26.0.1, SVG Export Plug-In . SVG Version: 6.00 Build 0)  -->
<svg version="1.1" id="blacks" xmlns="http://www.w3.org/2000/svg" xmlns:xlink="http://www.w3.org/1999/xlink" x="0px" y="0px"
	 viewBox="0 0 1000 1000" style="enable-background:new 0 0 1000 1000;" xml:space="preserve">
<g>
	<path d="M625.3,440.5c0,0-1.2-0.5-3.2-1.4c-1-0.4-2.3-1-3.7-1.6s-3.1-1.1-5-1.7c-0.9-0.3-1.9-0.6-2.9-1c-1-0.3-2.1-0.5-3.1-0.8
		c-2.2-0.5-4.4-1.2-6.8-1.5c-2.4-0.4-4.9-0.9-7.4-1.1c-1.3-0.1-2.6-0.3-3.8-0.4c-1.3-0.1-2.6-0.1-3.9-0.2c-1.3,0-2.6-0.1-3.9-0.1
		c-1.3,0-2.6,0-3.9,0.1c-2.6,0-5.1,0.3-7.5,0.4c-1.2,0.1-2.4,0.3-3.6,0.4c-1.2,0.2-2.3,0.3-3.4,0.5c-2.2,0.4-4.3,0.7-6.3,1.1
		c-1.9,0.4-3.7,0.8-5.3,1.2c-1.6,0.4-2.9,0.8-4.1,1.2c-0.6,0.2-1.1,0.4-1.5,0.5c-0.5,0.2-0.9,0.3-1.3,0.5c-0.6,0.2-0.9,0.3-0.9,0.3
		c-0.4,0.1-0.8,0.3-1.2,0.5c-5.2,2.7-7.3,9.1-4.6,14.3s9.1,7.3,14.3,4.6l0.1-0.1c0,0,0.2-0.1,0.7-0.3c0.2-0.1,0.4-0.2,0.6-0.3
		c0.3-0.1,0.7-0.3,1.1-0.5c0.8-0.4,1.9-0.8,3.1-1.3c1.2-0.5,2.6-1,4.2-1.5c1.5-0.6,3.2-1,5.1-1.6c0.9-0.3,1.8-0.5,2.8-0.7
		s1.9-0.5,3-0.7c2-0.4,4.1-0.9,6.3-1.1c1.1-0.2,2.2-0.3,3.3-0.5c1.1-0.1,2.2-0.2,3.3-0.3c1.1-0.1,2.2-0.2,3.3-0.2s2.2,0,3.3-0.1
		c2.2-0.1,4.3,0.1,6.4,0.2c2.1,0,4.1,0.4,6,0.6c0.9,0.1,1.9,0.2,2.8,0.4c0.9,0.2,1.7,0.4,2.5,0.5c1.6,0.4,3.2,0.6,4.5,1
		s2.4,0.7,3.4,1c1.9,0.6,3,0.9,3,0.9l0.5,0.2c2.9,0.8,6-0.6,7.2-3.4C629.7,445.4,628.3,441.8,625.3,440.5z"/>
	<path d="M457.4,437.3c-0.4-0.2-0.8-0.4-1.2-0.5c0,0-0.3-0.1-0.9-0.3c-0.3-0.1-0.8-0.3-1.3-0.5c-0.4-0.1-1-0.3-1.5-0.5
		c-1.2-0.4-2.5-0.7-4.1-1.2c-1.6-0.4-3.3-0.9-5.3-1.2c-1.9-0.4-4-0.8-6.3-1.1c-1.1-0.2-2.3-0.3-3.4-0.5c-1.2-0.1-2.4-0.3-3.6-0.4
		c-2.4-0.1-4.9-0.4-7.5-0.4c-1.3,0-2.6,0-3.9-0.1c-1.3,0-2.6,0.1-3.9,0.1c-1.3,0.1-2.6,0.1-3.9,0.2s-2.6,0.3-3.8,0.4
		c-2.5,0.2-5,0.7-7.4,1.1c-2.4,0.3-4.7,1-6.8,1.5c-1.1,0.3-2.1,0.5-3.1,0.8s-1.9,0.7-2.9,1c-1.8,0.6-3.5,1.1-5,1.7
		c-1.4,0.6-2.7,1.2-3.7,1.6c-2.1,0.9-3.2,1.4-3.2,1.4c-3,1.3-4.4,4.8-3.1,7.9c1.2,2.8,4.3,4.2,7.2,3.4l0.5-0.2c0,0,1.1-0.3,3-0.9
		c0.9-0.3,2.1-0.6,3.4-1s2.8-0.6,4.5-1c0.8-0.2,1.7-0.3,2.5-0.5c0.9-0.2,1.8-0.2,2.8-0.4c1.9-0.2,3.9-0.6,6-0.6
		c2.1-0.1,4.2-0.3,6.4-0.2c1.1,0,2.2,0,3.3,0.1c1.1,0,2.2,0.2,3.3,0.2c1.1,0.1,2.2,0.2,3.3,0.3c1.1,0.2,2.2,0.3,3.3,0.5
		c2.2,0.2,4.2,0.8,6.3,1.1c1,0.2,2,0.5,3,0.7s1.9,0.4,2.8,0.7c1.8,0.5,3.5,1,5.1,1.6c1.6,0.5,2.9,1.1,4.2,1.5
		c1.2,0.5,2.3,0.9,3.1,1.3c0.4,0.2,0.8,0.4,1.1,0.5c0.3,0.1,0.5,0.2,0.6,0.3c0.4,0.2,0.7,0.3,0.7,0.3l0.1,0.1
		c5.2,2.7,11.6,0.6,14.3-4.6S462.6,439.9,457.4,437.3z"/>
</g>
</svg>
