<?xml version="1.0" encoding="utf-8"?>
<!-- Generator: Adobe Illustrator 26.0.1, SVG Export Plug-In . SVG Version: 6.00 Build 0)  -->
<svg version="1.1" id="blacks" xmlns="http://www.w3.org/2000/svg" xmlns:xlink="http://www.w3.org/1999/xlink" x="0px" y="0px"
	 viewBox="0 0 1000 1000" style="enable-background:new 0 0 1000 1000;" xml:space="preserve">
<g>
	<path d="M628.3,437.2c-1.7-0.2-3.7-0.5-6-0.7s-5-0.6-7.8-0.6c-1.4,0-2.9-0.1-4.5-0.1s-3.2,0-4.8-0.1c-3.3-0.1-6.8,0.2-10.4,0.4
		c-3.6,0.2-7.3,0.5-11.1,1.1s-7.6,1-11.4,2c-3.8,0.9-7.6,1.6-11.3,2.8c-1.8,0.6-3.7,1.1-5.5,1.7s-3.5,1.4-5.2,2.1
		c-3.4,1.3-6.6,3.1-9.6,4.7c-1.5,0.8-2.9,1.8-4.2,2.7c-1.3,0.9-2.6,1.8-3.8,2.8s-2.3,1.8-3.3,2.8s-1.9,1.9-2.8,2.8
		c-0.9,0.9-1.6,1.8-2.2,2.6c-0.7,0.8-1.2,1.6-1.7,2.4c-1,1.5-1.6,2.7-2,3.6s-0.5,1.4-0.5,1.4s0.1-0.1,0.3-0.2s0.5-0.3,0.9-0.5
		s0.9-0.5,1.5-0.8s1.2-0.6,2-1c0.7-0.4,1.5-0.8,2.5-1.1c0.4-0.2,0.9-0.4,1.4-0.6s1-0.5,1.5-0.6c1.1-0.4,2.2-0.9,3.3-1.3
		c1.2-0.4,2.4-0.9,3.7-1.4c0.6-0.2,1.3-0.5,1.9-0.7c0.7-0.2,1.4-0.5,2.1-0.7c0.7-0.2,1.4-0.5,2.1-0.7c0.7-0.3,1.4-0.5,2.2-0.7
		c3-0.9,6-2,9.3-3c1.6-0.5,3.2-1,4.9-1.6c1.7-0.5,3.4-1,5.1-1.5c3.4-1.1,7-1.9,10.5-2.9l2.6-0.7c0.9-0.2,1.8-0.4,2.7-0.6
		c1.8-0.4,3.6-0.9,5.3-1.3c1.8-0.4,3.5-1,5.2-1.3c1.7-0.4,3.5-0.7,5.2-1.1c3.4-0.7,6.7-1.6,9.8-2.2c1.6-0.3,3.1-0.7,4.6-1
		s2.9-0.7,4.3-1c1.4-0.3,2.7-0.7,4-0.9c1.3-0.3,2.5-0.5,3.6-0.8c2.3-0.5,4.2-1,5.8-1.4c3.2-0.8,5.1-1.5,5.1-1.5
		S631.6,437.7,628.3,437.2z"/>
	<path d="M477.2,466.5c-0.5-0.7-1-1.6-1.7-2.4s-1.4-1.8-2.2-2.6c-0.8-0.9-1.8-1.8-2.8-2.8c-1-0.9-2.1-1.8-3.3-2.8
		c-1.2-1-2.4-1.8-3.8-2.8c-1.3-0.9-2.7-1.9-4.2-2.7c-3-1.6-6.1-3.4-9.6-4.7c-1.7-0.7-3.4-1.4-5.2-2.1c-1.8-0.6-3.6-1.2-5.5-1.7
		c-3.7-1.2-7.5-2-11.3-2.8c-3.8-0.9-7.6-1.4-11.4-2s-7.5-0.9-11.1-1.1c-3.6-0.3-7.1-0.5-10.4-0.4c-1.6,0-3.3,0-4.8,0.1
		c-1.5,0-3,0.1-4.5,0.1c-2.9,0.1-5.5,0.4-7.8,0.6c-2.3,0.3-4.4,0.5-6,0.7c-3.3,0.5-5.2,0.9-5.2,0.9s1.9,0.6,5.1,1.5
		c1.6,0.4,3.6,0.9,5.8,1.4c1.1,0.2,2.3,0.5,3.6,0.8c1.3,0.2,2.6,0.6,4,0.9s2.8,0.7,4.3,1s3,0.7,4.6,1c3.2,0.6,6.4,1.5,9.8,2.2
		c1.7,0.4,3.4,0.8,5.2,1.1c1.8,0.3,3.5,0.9,5.2,1.3c1.8,0.4,3.5,0.9,5.3,1.3c0.9,0.2,1.8,0.4,2.7,0.6l2.6,0.7
		c3.5,1,7.1,1.8,10.5,2.9c1.7,0.5,3.4,1,5.1,1.5s3.3,1,4.9,1.6c3.3,0.9,6.3,2.1,9.3,3c0.8,0.2,1.5,0.5,2.2,0.7
		c0.7,0.3,1.4,0.5,2.1,0.7s1.4,0.5,2.1,0.7s1.3,0.5,1.9,0.7c1.3,0.5,2.5,0.9,3.7,1.4c1.1,0.5,2.2,0.9,3.3,1.3c0.5,0.2,1,0.4,1.5,0.6
		s0.9,0.4,1.4,0.6c0.9,0.4,1.7,0.8,2.5,1.1c0.7,0.4,1.4,0.7,2,1s1.1,0.6,1.5,0.8c0.4,0.2,0.7,0.4,0.9,0.5c0.2,0.1,0.3,0.2,0.3,0.2
		s-0.1-0.5-0.5-1.4C478.8,469.2,478.2,467.9,477.2,466.5z"/>
</g>
</svg>
