<?xml version="1.0" encoding="utf-8"?>
<!-- Generator: Adobe Illustrator 26.0.1, SVG Export Plug-In . SVG Version: 6.00 Build 0)  -->
<svg version="1.1" id="blacks" xmlns="http://www.w3.org/2000/svg" xmlns:xlink="http://www.w3.org/1999/xlink" x="0px" y="0px"
	 viewBox="0 0 1000 1000" style="enable-background:new 0 0 1000 1000;" xml:space="preserve">
<g>
	<path d="M613.8,433c-5.7-2.5-11.4-4.5-17-5.9c0.9-1.9,1.8-3.8,2.7-5.7c-3.2-0.3-6.6-0.4-10.2-0.4c-7.3,0.1-14.5,0.8-21,2.2
		c0.2-2,0.4-4,0.7-6c-3.1,0.8-6.4,1.7-9.8,3c-22.9,8.2-41.6,23.3-41.9,33.8c-0.2,10.5,18.1,12.4,41,4.2c0,0,25.9-0.9,37.8-5.1
		s22.4-9.8,26.7-15.4C620.1,435.9,617.1,434.4,613.8,433z"/>
	<path d="M440.8,420c-3.4-1.2-6.6-2.2-9.8-3c0.3,2,0.5,4,0.7,6c-6.6-1.3-13.7-2.1-21-2.2c-3.6,0-7,0.1-10.2,0.4
		c0.9,1.9,1.8,3.8,2.7,5.7c-5.6,1.5-11.4,3.4-17,5.9c-3.3,1.4-6.3,3-9.1,4.6c4.3,5.6,14.8,11.2,26.7,15.4s37.8,5.1,37.8,5.1
		c22.9,8.2,41.3,6.3,41-4.2C482.4,443.3,463.7,428.2,440.8,420z"/>
</g>
</svg>
