<svg version="1.1" id="Layer_1" xmlns="http://www.w3.org/2000/svg" xmlns:xlink="http://www.w3.org/1999/xlink" x="0px" y="0px"
	 viewBox="0 0 1000 1000" style="enable-background:new 0 0 1000 1000;" xml:space="preserve">
<g id="blacks">
	<path d="M440.7,440.5c-2.1-1.1-3.9-2.4-5.4-3.7c-2.1-1.9-7.5-2.4-14.3-1.2c-9.4,1.6-18.4,6-21.3,9.8
		c-1.9,2.5-1.1,4.5,1.9,5.6c-0.8,3.1,3.1,5.4,10.8,5.4c10.8,0,24.8-4.5,29.3-10C443.8,443.9,443.2,441.8,440.7,440.5z"/>
	<path d="M559.3,440.5c2.1-1.1,3.9-2.4,5.4-3.7c2.1-1.9,7.5-2.4,14.3-1.2c9.4,1.6,18.4,6,21.3,9.8
		c1.9,2.5,1.1,4.5-1.9,5.6c0.8,3.1-3.1,5.4-10.8,5.4c-10.8,0-24.8-4.5-29.3-10C556.2,443.9,556.8,441.8,559.3,440.5z"/>
</g>
</svg>
