<?xml version="1.0" encoding="utf-8"?>
<!-- Generator: Adobe Illustrator 24.0.1, SVG Export Plug-In . SVG Version: 6.00 Build 0)  -->
<svg version="1.1" id="Layer_1" xmlns="http://www.w3.org/2000/svg" xmlns:xlink="http://www.w3.org/1999/xlink" x="0px" y="0px"
	 viewBox="0 0 800 800" style="enable-background:new 0 0 800 800;" xml:space="preserve">
<style type="text/css">
	.st0{fill-rule:evenodd;clip-rule:evenodd;fill:#FFFFFF;}
</style>
<g>
	<path class="st0" d="M506.9,600c4.5,3.4,10.6-2.3,12.2,0.2s-2.3,5.2-2.3,5.2s-26.5,5.2-33.5,11.3s-7,26.9-7,26.9l0.2,4.3
		c0,0-5.9,22.2-1.6,24.2s32.3,4.7,61.5,4.1c0,0,34.4-0.7,39.4-2.3s17.2-14,16.1-26.5c-1.1-12.4-7.5-59-7.5-59l7-0.2
		c0,0,5.4-30.8-2-39.1s-16.3-8.8-16.3-8.8l-17.2,2.3c0,0-11.1,0-18.5,2s-19.7,3.4-19.7,3.4l-6.3,5.2c0,0-8.4,12.7-7.9,23.1
		C503.9,586.7,502.3,596.6,506.9,600z"/>
	<path d="M598.2,560.9c-0.2-3.3-0.6-6.6-1.7-10c-0.5-1.6-1.2-3.3-2.2-5c-0.5-0.8-1.1-1.7-1.7-2.4c-0.6-0.7-1.2-1.4-1.9-2
		c-2.6-2.5-5.8-4.5-9.2-5.6c-3.4-1.2-7-1.6-10.5-1.4c-3.5,0.3-7,1-10.4,2.8c-0.5,0.3-1,0.7-1.3,1.2c-0.2,0-0.3-0.1-0.5-0.1
		c-3.1-0.5-6.2-0.6-9.3-0.3c-3.1,0.4-6.2,1.1-9.1,2.7c-0.4,0.2-0.6,0.5-0.8,0.8c-1.8-0.8-3.6-1.4-5.6-1.7c-3.9-0.8-8-0.6-11.9,0.4
		c-4,0.9-7.6,2.8-10.8,5.2c-3.1,2.4-5.8,5.3-8,8.5s-4,6.7-5.1,10.6c-1,3.8-1.4,7.9-0.9,11.9c0.4,3.9,1.7,7.8,3.5,11.3
		c3.2,6,8.1,11,13.8,14.5c-0.4,0-0.9,0-1.3,0c-5.6,0.1-11.1,0.9-16.5,2.6c-5.3,1.7-10.5,4.2-15.1,7.9c-2.3,1.9-4.4,4.1-6.1,6.6
		c-0.8,1.2-1.6,2.6-2.2,4c-0.3,0.7-0.6,1.4-0.8,2.1c-0.3,0.6-0.5,1.3-0.7,2c-0.8,2.7-1.4,5.7-1.5,8.7c-0.1,3.1,0.3,6.2,1.3,9.2
		c0.5,1.6,1.3,3.2,2.2,4.7c-0.4,0.5-0.8,0.9-1.1,1.4c-0.8,1-1.4,2-1.9,3.1c-1.1,2.2-1.8,4.4-2.2,6.6c-0.9,4.4-0.8,8.8-0.2,13
		l0.3,2.3l2,0.8c0.4,0.2,0.7,0.3,1,0.4s0.6,0.2,0.9,0.3c0.5,0.2,1.1,0.4,1.6,0.5c1.1,0.2,2.1,0.5,3.2,0.7c2.2,0.5,4.3,0.8,6.4,1.1
		s4.2,0.6,6.3,0.7l3.2,0.3l3.1,0.2l3.1,0.2c1,0.1,2.1,0.1,3.1,0.1c2.1,0,4.2,0.1,6.3,0.1h6.3c2-0.1,4.1-0.1,6.2-0.2
		c16.7-0.5,33.2-2.2,49.6-4.3l3.1-0.4c0.5,0,1.1-0.1,1.7-0.2c0.5-0.1,1.1-0.3,1.7-0.4c2.3-0.6,4.5-1.6,6.5-3s3.7-3.2,5.1-5.1
		c1.4-2,2.4-4.1,3.2-6.2c1.5-4.3,2-8.7,2.2-13c0.1-2.2,0-4.3-0.1-6.5c-0.1-2.1-0.3-4.2-0.5-6.3c-0.4-4.1-0.8-8.3-1.3-12.4
		s-1-8.2-1.6-12.3l-1.8-12.2c-0.3-2-0.6-4-0.8-6c0-0.4-0.1-0.8-0.1-1.2c0.3,0,0.7,0,1,0c0.7,0.1,1.3,0.1,2.1,0.1h3.2l0.7-3.1
		c0.7-3.1,1.2-6.2,1.7-9.3s0.8-6.2,1-9.4C598.3,567.4,598.4,564.2,598.2,560.9z M506,575.4c0-10,8.2-18.1,18.3-18.1
		s18.3,8.1,18.3,18.1s-8.2,18.1-18.3,18.1S506,585.4,506,575.4z M479.9,630c0.1-0.6,0.3-1.1,0.5-1.7s0.4-1,0.6-1.5
		c0.4-1,0.9-1.9,1.5-2.8c1.2-1.7,2.7-3.3,4.4-4.8c3.5-2.9,7.8-5,12.3-6.5c9.1-2.9,19.2-3.2,28.4-0.7c2.3,0.6,4.5,1.4,6.7,2.3
		c2.1,0.9,4.3,1.9,6.4,3c4.2,2.3,7.9,5.4,12.1,9c-0.5-2.8-1.5-5.4-2.7-7.5c-1.5-2.4-3.4-4.5-5.4-6.4c-2.4-2.3-5.2-4.1-8.1-5.5
		c1.4-0.2,2.7-0.5,4-0.9c0.9-0.3,1.9-0.6,2.8-1c0.9-0.4,1.8-0.8,2.7-1.3c1.7-1,3.4-2,5-3.3c3.2-2.5,5.9-5.9,7.4-9.7
		s1.9-7.9,1.4-11.7c-0.3-1.9-0.8-3.8-1.5-5.5c-0.8-1.8-1.7-3.4-3.1-4.8c-0.3,2-0.4,3.7-0.6,5.4c-0.2,1.7-0.4,3.3-0.6,4.9
		c-0.5,3.1-1.4,6.1-2.7,8.6c-0.6,1.3-1.4,2.5-2.3,3.6c-0.9,1.1-2,2.1-3.1,3c-1.2,0.9-2.5,1.6-3.8,2.3c-0.7,0.3-1.4,0.6-2.1,0.9
		c-0.7,0.3-1.4,0.5-2.1,0.7c-2.8,0.9-5.8,1.2-8.8,0.9c11-2.3,19.4-12,19.4-23.6c0-13.3-10.9-24.1-24.3-24.1c-3.3,0-6.5,0.7-9.4,1.9
		c0.4-0.4,0.8-0.7,1.2-1.1c2.4-1.9,5-3.3,7.8-4.1c1.4-0.4,2.8-0.7,4.3-0.8s3-0.1,4.5,0c3,0.2,6,0.9,8.9,2c1.5,0.6,2.8,1.4,4.2,2.2
		s2.8,1.6,4.4,2.8c0.2-2-0.6-3.9-1.4-5.4c-1.1-1.6-2.6-2.9-4.1-4.1c-0.2-0.2-0.5-0.3-0.7-0.5c1.9-0.6,3.9-0.9,5.9-1
		c2.7-0.1,5.3,0.2,7.9,0.8c2.5,0.6,5,1.5,7.2,2.7s4,2.9,4.7,4.5c0.7,1.5,0.8,4.1,0.7,6.8s-0.3,5.5-0.5,8.4
		c-0.4,5.8-0.6,11.6-0.6,17.5s0.4,11.8,1,17.6c0.3,2.9,0.7,5.8,1.1,8.7l0.6,4.2c0.2,1.4,0.3,2.8,0.5,4.2c0.6,5.6,0.9,11.1,0.4,16.4
		c-0.2,2.7-0.7,5.2-1.5,7.5c-0.4,1.1-0.8,2.2-1.4,3c-0.3,0.4-0.6,0.8-0.9,1.1c-0.2,0.2-0.3,0.3-0.4,0.4l-0.1,0.1
		c-3,0.7-6.3,1.4-9.4,2c-3.4,0.6-6.8,1.2-10.3,1.7c-7,1-13.9,1.8-20.9,2.2c-7,0.5-14,0.6-20.9,0.3c-6.8-0.2-13.5-0.9-20-1.9
		l-0.2-0.1c-0.2-0.1-0.4-0.3-0.6-0.4c-0.5-0.3-0.9-0.6-1.3-0.9c-0.8-0.6-1.6-1.3-2.3-2.1c-1.4-1.5-2.4-3.3-3.1-5.2
		C478.3,638.9,478.6,634.4,479.9,630z M580.7,668.4c-0.4,0.3-0.9,0.6-1.3,0.8l-0.7-3.7c-0.3-1.4-1.7-2.3-3.1-2.1
		c-1.4,0.3-2.3,1.7-2.1,3.1l0.9,4.3c-0.4,0-0.7,0.1-1.1,0.2l-3.1,0.4c-0.6,0.1-1.3,0.1-1.9,0.2l-0.2-3.4c-0.1-1.4-1.3-2.6-2.7-2.5
		s-2.6,1.3-2.5,2.7l0.2,3.7c-2.6,0.3-5.2,0.5-7.8,0.8l-0.1-3.6c0-1.5-1.2-2.6-2.7-2.6s-2.6,1.2-2.6,2.7l0.1,3.9
		c-2.6,0.2-5.2,0.4-7.8,0.6l-0.1-3.8c0-1.5-1.2-2.6-2.7-2.6s-2.6,1.2-2.6,2.7l0.1,4c-2.6,0.1-5.1,0.3-7.7,0.4l-0.1-4.3
		c0-1.4-1.3-2.6-2.7-2.5s-2.6,1.3-2.5,2.7l0.1,4.2c-1,0-1.9,0.1-2.9,0.1c-1.6,0-3.2,0-4.8,0l0.1-4.3c0-1.5-1.1-2.6-2.6-2.7
		c-1.5,0-2.6,1.1-2.7,2.6l-0.1,4.4c-2.7-0.1-5.3-0.1-8-0.3l0.3-3.9c0.1-1.4-1-2.7-2.4-2.8s-2.7,1-2.8,2.4l-0.3,4
		c-0.4,0-0.8,0-1.2-0.1l-3-0.2l-3-0.3c-0.3,0-0.6-0.1-0.8-0.1l0.4-4.2c0.1-1.4-0.9-2.7-2.3-2.9c-1.4-0.1-2.7,0.9-2.9,2.3l-0.4,4
		c-1.6-0.3-3.2-0.6-4.8-1l0.5-5.1c0.1-0.7-0.5-1.4-1.2-1.5s-1.4,0.5-1.5,1.2l-0.5,4.8c-0.4-0.1-0.7-0.2-1.1-0.3
		c-0.1,0-0.2-0.1-0.2-0.1c-0.2-2.8-0.1-5.5,0.3-8c0.3-1.7,0.8-3.2,1.5-4.6c0.4-0.7,0.8-1.3,1.2-1.9c0.1-0.1,0.2-0.2,0.3-0.4
		c0.2,0.2,0.4,0.3,0.6,0.5c0.6,0.4,1.2,0.9,1.9,1.3c0.3,0.2,0.6,0.4,1,0.6l0.6,0.3c0.2,0.1,0.4,0.2,0.7,0.3c0.3,0.2,0.6,0.2,0.9,0.3
		c7.2,1.2,14.4,1.9,21.7,2.1c7.2,0.2,14.5,0.1,21.7-0.4c7.2-0.4,14.4-1.2,21.5-2.3c3.6-0.5,7.2-1.1,10.7-1.8
		c3.6-0.7,7.1-1.5,10.7-2.4c0.1,0,0.2-0.1,0.3-0.1c0.4-0.2,0.5-0.2,0.7-0.3l0.5-0.3c0.2-0.1,0.5-0.3,0.7-0.5
		c0.4-0.4,0.8-0.7,1.2-1.1c0.7-0.8,1.3-1.5,1.8-2.3c1-1.5,1.7-3.1,2.3-4.7c1.1-3.2,1.7-6.3,2-9.4c0.6-6.2,0.3-12.2-0.3-18.1
		c-0.1-1.5-0.3-2.9-0.5-4.4l-0.6-4.3c-0.4-2.8-0.7-5.6-1-8.4c-0.6-5.6-0.9-11.2-1-16.8s0.1-11.3,0.4-17c0.1-2.8,0.2-5.7,0.1-8.8
		c0-1.6-0.1-3.1-0.4-4.8c-0.2-1.6-0.7-3.4-1.7-5.2c-0.9-1.7-2.2-3.1-3.6-4.2c-0.6-0.5-1.2-0.9-1.8-1.3c0.4,0,0.7-0.1,1.1-0.1
		c2.6-0.1,5.1,0.2,7.5,1s4.5,2.1,6.3,3.8c0.5,0.5,0.9,0.9,1.3,1.4c0.4,0.4,0.7,0.8,1,1.3c0.5,1,1,2.1,1.4,3.3
		c0.1,0.2,0.1,0.4,0.2,0.6l-4.1-0.3c-1.3-0.1-2.4,0.9-2.5,2.1s0.9,2.4,2.1,2.5l5.3,0.4c0.1,0.8,0.2,1.7,0.2,2.5l-4.6-0.5
		c-1.3-0.1-2.4,0.8-2.6,2.1c-0.1,1.3,0.8,2.4,2.1,2.6l5.2,0.6c0,0.9,0,1.8-0.1,2.6l-4.4-0.7c-1.3-0.2-2.5,0.7-2.7,1.9
		c-0.2,1.3,0.7,2.5,1.9,2.7l4.8,0.8c-0.1,1-0.2,2-0.3,3.1l-3.7-0.7c-1.3-0.2-2.5,0.6-2.7,1.9l0,0c-0.2,1.3,0.6,2.5,1.9,2.7l4,0.7
		c-0.2,1.1-0.4,2.1-0.6,3.2c-0.1,0-0.1,0-0.2,0c-1.2-0.1-2.4-0.2-3.5-0.4l-4.4-0.8l-0.3,4.5c-0.2,2.5,0,4.6,0.2,6.8
		c0.2,2.1,0.5,4.2,0.8,6.3c0.6,3.3,1.1,6.5,1.7,9.7c-0.6,0.1-1.1,0.6-1.1,1.3c0,0.8,0.5,1.4,1.3,1.5h0.4c0.1,0.4,0.2,0.9,0.3,1.3
		h-0.5c-0.8,0-1.4,0.5-1.5,1.3c0,0.8,0.5,1.4,1.3,1.5l1.2,0.1c0.1,0.5,0.2,0.9,0.3,1.4l-0.9-0.1c-0.8,0-1.4,0.5-1.5,1.3
		c0,0.8,0.5,1.4,1.3,1.5l1.7,0.1c0.1,0.5,0.2,0.9,0.3,1.4l-1.5-0.1c-0.8,0-1.4,0.5-1.5,1.3c0,0.8,0.5,1.4,1.3,1.5l2.3,0.1
		c0.1,0.5,0.2,0.9,0.3,1.4l-1.9-0.1c-0.8,0-1.4,0.5-1.5,1.3c0,0.8,0.5,1.4,1.3,1.5l2.6,0.2c0.1,0.7,0.3,1.4,0.4,2.2l-2.4-0.1
		c-1-0.1-1.8,0.7-1.9,1.7c-0.1,1,0.7,1.8,1.7,1.9l3.2,0.2c0.1,0.5,0.2,1,0.2,1.5c0,0.2,0.1,0.4,0.1,0.6l-3-0.5
		c-1-0.2-1.9,0.5-2.1,1.5s0.5,1.9,1.5,2.1l4.1,0.7c0.1,0.6,0.1,1.1,0.1,1.7c0,0.3,0,0.6,0.1,0.8l-3.3-1c-0.9-0.3-1.9,0.2-2.2,1.2
		c-0.3,0.9,0.2,1.9,1.2,2.2l4.4,1.3c0,0.4,0,0.9,0,1.3c-0.1,1.2-0.1,2.3-0.3,3.4l-4.2-2.6c-0.8-0.5-1.9-0.3-2.5,0.6
		c-0.5,0.8-0.3,1.9,0.6,2.5l5.5,3.4c-0.3,1.3-0.7,2.7-1.1,3.9c-0.1,0.3-0.2,0.6-0.4,1l-4-4.8c-0.6-0.8-1.8-0.9-2.5-0.2
		c-0.8,0.6-0.9,1.8-0.2,2.5l4.9,5.9C583.6,666,582.2,667.4,580.7,668.4z"/>
</g>
</svg>
