<?xml version="1.0" encoding="utf-8"?>
<!-- Generator: Adobe Illustrator 24.0.1, SVG Export Plug-In . SVG Version: 6.00 Build 0)  -->
<svg version="1.1" id="Layer_1" xmlns="http://www.w3.org/2000/svg" xmlns:xlink="http://www.w3.org/1999/xlink" x="0px" y="0px"
	 viewBox="0 0 800 800" style="enable-background:new 0 0 800 800;" xml:space="preserve">
<g>
	<g>
		<path d="M582.1,188c-7.1-8.1-17.2-11.8-17.2-11.8s-31.3-39.8-69.8-29.7c-16.1,4.2-26.5,11.7-31.9,19.9c0.2-1.9,0.7-3.7,1.3-5.6
			c0.3-1,0.7-2,1.2-3.1c0.5-1,0.9-2.1,1.5-3.1l0.9-1.6l1-1.6c0.6-1.1,1.4-2.1,2.1-3.2c0.7-1.1,1.5-2.1,2.3-3.2
			c0.8-1.1,1.6-2.2,2.4-3.4l0.1-0.2c0.5-0.8,0.6-1.9,0.1-2.9c-0.7-1.3-2.3-1.8-3.7-1.4c-1.4,0.5-2.8,1-4.1,1.6
			c-0.7,0.3-1.4,0.7-2,1.1c-0.7,0.4-1.4,0.7-2,1.2c-0.7,0.4-1.3,0.9-1.9,1.3c-0.3,0.2-0.6,0.5-1,0.7l-0.9,0.8l-1.8,1.6
			c-0.6,0.6-1.1,1.2-1.7,1.8c-0.3,0.3-0.6,0.6-0.8,0.9c-0.3,0.3-0.5,0.7-0.7,1c-0.5,0.7-1,1.3-1.5,2c-0.8,1.5-1.8,2.9-2.4,4.5
			c-1.4,3.1-2.3,6.6-2.5,10.1c-0.3,3.5,0.1,6.9,0.9,10.2c0.8,3.2,2.2,6.3,3.8,9c1.7,2.7,3.7,5.1,6,7.2c1.5,1.3,3.1,2.5,4.8,3.6
			c-0.9-0.1-1.7-0.3-2.6-0.4c-1.8-0.4-3.4-0.8-4.9-1.3c-3-1.1-5.3-2.4-7.2-4c-1.8-1.6-3.3-3.8-4.6-6.6c-1.3-2.8-2.2-6.3-3.5-10.1
			v-0.1c-0.2-0.7-0.7-1.2-1.5-1.5c-1.3-0.5-2.7,0.2-3.3,1.4c-0.9,1.9-1.6,4-1.9,6.1c-0.4,2.2-0.4,4.5-0.1,6.9s1,4.8,2.2,7.1
			s2.9,4.4,4.9,6.1c2.1,1.7,4.6,3.2,6.9,3.7c16.1,3.3,26.4-5.5,26.4-5.5l0,0c0,0,15.2,11,36.1,10.3c1.7-0.1,2.6-2,1.4-3.2
			c-7.6-8-19.1-9.6-27-9.7c-1.7,0-1.9-2.5-0.3-2.8c7.9-1.6,21.3-0.6,46.1,11.1c0,0,2.6,23.1,18.8,33.4c0,0.1-0.1,0.2-0.1,0.3
			c0,0.7,0.6,1.3,1.3,1.3c0.3,0,0.6-0.1,0.9-0.3c2.7,1.4,5.7,2.5,9.1,3.1c0,0,11.8-7.8,14.2-32C576,208.9,589.2,196.1,582.1,188z"/>
		<circle cx="532" cy="215.4" r="1.3"/>
		<path d="M535.5,219.5c-0.7,0-1.3,0.6-1.3,1.3s0.6,1.3,1.3,1.3s1.3-0.6,1.3-1.3C536.8,220,536.2,219.5,535.5,219.5z"/>
		<circle cx="532" cy="226.1" r="1.3"/>
		<circle cx="538.6" cy="226.1" r="1.3"/>
		<path d="M535.5,230.2c-0.7,0-1.3,0.6-1.3,1.3s0.6,1.3,1.3,1.3s1.3-0.6,1.3-1.3S536.2,230.2,535.5,230.2z"/>
		<path d="M542.1,230.2c-0.7,0-1.3,0.6-1.3,1.3s0.6,1.3,1.3,1.3s1.3-0.6,1.3-1.3C543.4,230.8,542.8,230.2,542.1,230.2z"/>
		<circle cx="532" cy="236.8" r="1.3"/>
		<circle cx="538.6" cy="236.8" r="1.3"/>
		<circle cx="545.3" cy="236.8" r="1.3"/>
		<path d="M528.9,240.9c-0.7,0-1.3,0.6-1.3,1.3s0.6,1.3,1.3,1.3s1.3-0.6,1.3-1.3S529.6,240.9,528.9,240.9z"/>
		<path d="M535.5,240.9c-0.7,0-1.3,0.6-1.3,1.3s0.6,1.3,1.3,1.3s1.3-0.6,1.3-1.3S536.2,240.9,535.5,240.9z"/>
		<path d="M542.1,240.9c-0.7,0-1.3,0.6-1.3,1.3s0.6,1.3,1.3,1.3s1.3-0.6,1.3-1.3C543.4,241.5,542.8,240.9,542.1,240.9z"/>
		<path d="M548.7,240.9c-0.7,0-1.3,0.6-1.3,1.3s0.6,1.3,1.3,1.3s1.3-0.6,1.3-1.3S549.5,240.9,548.7,240.9z"/>
		<path d="M555.4,240.9c-0.7,0-1.3,0.6-1.3,1.3s0.6,1.3,1.3,1.3s1.3-0.6,1.3-1.3S556.1,240.9,555.4,240.9z"/>
		<path d="M525.4,246.3c-0.7,0-1.3,0.6-1.3,1.3s0.6,1.3,1.3,1.3s1.3-0.6,1.3-1.3C526.7,246.9,526.1,246.3,525.4,246.3z"/>
		<path d="M532,246.3c-0.7,0-1.3,0.6-1.3,1.3s0.6,1.3,1.3,1.3s1.3-0.6,1.3-1.3C533.3,246.9,532.7,246.3,532,246.3z"/>
		<path d="M538.6,246.3c-0.7,0-1.3,0.6-1.3,1.3s0.6,1.3,1.3,1.3s1.3-0.6,1.3-1.3C539.9,246.9,539.4,246.3,538.6,246.3z"/>
		<path d="M545.3,246.3c-0.7,0-1.3,0.6-1.3,1.3s0.6,1.3,1.3,1.3s1.3-0.6,1.3-1.3C546.6,246.9,546,246.3,545.3,246.3z"/>
		<path d="M551.9,246.3c-0.7,0-1.3,0.6-1.3,1.3s0.6,1.3,1.3,1.3s1.3-0.6,1.3-1.3C553.2,246.9,552.6,246.3,551.9,246.3z"/>
		<circle cx="528.9" cy="252.9" r="1.3"/>
		<circle cx="535.5" cy="252.9" r="1.3"/>
		<circle cx="542.1" cy="252.9" r="1.3"/>
		<circle cx="548.7" cy="252.9" r="1.3"/>
		<path d="M525.4,257c-0.7,0-1.3,0.6-1.3,1.3c0,0.7,0.6,1.3,1.3,1.3s1.3-0.6,1.3-1.3S526.1,257,525.4,257z"/>
		<path d="M532,257c-0.7,0-1.3,0.6-1.3,1.3c0,0.7,0.6,1.3,1.3,1.3s1.3-0.6,1.3-1.3S532.7,257,532,257z"/>
		<path d="M538.6,257c-0.7,0-1.3,0.6-1.3,1.3c0,0.7,0.6,1.3,1.3,1.3s1.3-0.6,1.3-1.3C539.9,257.6,539.4,257,538.6,257z"/>
		<path d="M545.3,257c-0.7,0-1.3,0.6-1.3,1.3c0,0.7,0.6,1.3,1.3,1.3s1.3-0.6,1.3-1.3S546,257,545.3,257z"/>
		<circle cx="522.2" cy="263.7" r="1.3"/>
		<circle cx="528.9" cy="263.7" r="1.3"/>
		<circle cx="535.5" cy="263.7" r="1.3"/>
		<circle cx="542.1" cy="263.7" r="1.3"/>
		<path d="M518.8,267.7c-0.7,0-1.3,0.6-1.3,1.3c0,0.7,0.6,1.3,1.3,1.3s1.3-0.6,1.3-1.3C520.1,268.3,519.5,267.7,518.8,267.7z"/>
		<path d="M525.4,267.7c-0.7,0-1.3,0.6-1.3,1.3c0,0.7,0.6,1.3,1.3,1.3s1.3-0.6,1.3-1.3C526.7,268.3,526.1,267.7,525.4,267.7z"/>
		<path d="M532,267.7c-0.7,0-1.3,0.6-1.3,1.3c0,0.7,0.6,1.3,1.3,1.3s1.3-0.6,1.3-1.3C533.3,268.3,532.7,267.7,532,267.7z"/>
		<path d="M538.6,267.7c-0.7,0-1.3,0.6-1.3,1.3c0,0.7,0.6,1.3,1.3,1.3s1.3-0.6,1.3-1.3C539.9,268.3,539.4,267.7,538.6,267.7z"/>
		<circle cx="522.2" cy="274.4" r="1.3"/>
		<circle cx="528.9" cy="274.4" r="1.3"/>
		<circle cx="535.5" cy="274.4" r="1.3"/>
		<path d="M518.8,278.5c-0.7,0-1.3,0.6-1.3,1.3c0,0.7,0.6,1.3,1.3,1.3s1.3-0.6,1.3-1.3C520.1,279,519.5,278.5,518.8,278.5z"/>
		<path d="M525.4,278.5c-0.7,0-1.3,0.6-1.3,1.3c0,0.7,0.6,1.3,1.3,1.3s1.3-0.6,1.3-1.3C526.7,279,526.1,278.5,525.4,278.5z"/>
		<path d="M532,278.5c-0.7,0-1.3,0.6-1.3,1.3c0,0.7,0.6,1.3,1.3,1.3s1.3-0.6,1.3-1.3C533.3,279,532.7,278.5,532,278.5z"/>
		<circle cx="515.6" cy="285.1" r="1.3"/>
		<circle cx="522.2" cy="285.1" r="1.3"/>
		<circle cx="528.9" cy="285.1" r="1.3"/>
	</g>
</g>
</svg>
