<?xml version="1.0" encoding="utf-8"?>
<!-- Generator: Adobe Illustrator 24.0.1, SVG Export Plug-In . SVG Version: 6.00 Build 0)  -->
<svg version="1.1" id="Layer_1" xmlns="http://www.w3.org/2000/svg" xmlns:xlink="http://www.w3.org/1999/xlink" x="0px" y="0px"
	 viewBox="0 0 800 800" style="enable-background:new 0 0 800 800;" xml:space="preserve">
<style type="text/css">
	.st0{fill:#FFFFFF;}
</style>
<g>
	<g>
		<path class="st0" d="M426.9,238.1l11.6-13.2l16-21c0,0,32.9,6.5,46.3,13.5c13.5,7,58,37.8,58,37.8l-20.7,27.2
			c0,0,10.1,3.6,19.7,3.6c9.6,0,15.3-3.4,15.3-3.4l-2.1-33.9l-2.8-11.9l1.8-39.3c0,0-17.9-32.1-44.8-37c-26.9-4.9-34.2-3.4-34.2-3.4
			L455.8,183c0,0-41.9,8.3-51.2,17.3c-9.3,9.1-7.2,15.8-1,22.5S426.9,238.1,426.9,238.1z"/>
		<path d="M578.2,276.7c-0.2-1.3-0.6-2.4-1.1-3.5c-0.7-4.5-1.4-9-2.3-13.4c-0.7-3.5-1.4-7.1-2.2-10.6c-0.7-3.4-1.6-6.7-2.4-10.1
			c0-3,0.3-6.1,0.6-9.2c0.3-3.2,0.7-6.4,1.1-9.6c0.4-3.2,0.9-6.4,1.4-9.6l1.5-9.6V201c0.1-0.8,0-1.6-0.4-2.3
			c-0.8-1.4-1.6-2.9-2.4-4.3c-0.9-1.4-1.7-2.8-2.6-4.2c-1.8-2.8-3.7-5.4-5.8-8s-4.3-5-6.8-7.3c-1.2-1.2-2.5-2.3-3.8-3.4
			c-0.7-0.5-1.3-1.1-2-1.6c-0.4-0.3-0.7-0.5-1.1-0.8c-0.3-0.2-0.6-0.4-1-0.7c-4.1-3-8.5-5.7-13.1-8c-4.7-2.3-9.6-4.2-14.6-5.6
			c-5.1-1.3-10.3-2.1-15.6-2.2c-2.6,0-5.3,0.1-7.9,0.4c-1.3,0.2-2.6,0.4-3.9,0.7c-0.7,0.1-1.3,0.3-2,0.5s-1.3,0.3-2.1,0.6h-0.1
			c-0.5,0.2-1,0.5-1.4,1c-2,2.7-4.9,5.2-7.8,7.6c-2.9,2.4-6.1,4.6-9.3,6.8c-3.2,2.2-6.5,4.2-9.8,6.3c-1.9,1.1-3.7,2.2-5.6,3.4
			c-1.8,1.1-3.9,1.6-5.9,1.6c-1.3,0-2.6,0-3.9,0.1c-2.6,0.1-5.2,0.5-7.8,0.9c-5.2,0.8-10.2,2.3-15.3,3.9c-1.3,0.4-2.5,0.9-3.7,1.4
			s-2.5,0.9-3.7,1.5s-2.4,1.1-3.6,1.7c-1.2,0.6-2.4,1.3-3.6,1.9c-1.1,0.8-2.3,1.5-3.4,2.3s-2.2,1.6-3.2,2.6c-1,0.9-2,2-2.9,3.1
			l-0.7,0.9c-0.2,0.3-0.4,0.7-0.6,1s-0.4,0.7-0.5,1.1v0.1c-0.6,0.7-1.1,1.4-1.5,2.2c-0.5,1-0.9,2.1-1,3.3c-0.1,1.1-0.1,2.3,0.1,3.3
			l0.1,0.8l0.2,0.7c0.1,0.5,0.3,1,0.5,1.4c0.4,0.9,0.8,1.6,1.3,2.4c0.4,0.8,0.9,1.5,1.4,2.2s1,1.4,1.6,2l1.7,1.9l1.8,1.7
			c2.5,2.2,5.1,4.1,7.9,5.8c5.5,3.4,11.2,6,17.2,8.1l1.2-2.9c-5.4-2.7-10.7-5.8-15.6-9.4c-2.4-1.8-4.7-3.7-6.7-5.8
			c-2.1-2.1-3.8-4.3-5-6.7c-0.3-0.6-0.6-1.2-0.8-1.7c-0.1-0.3-0.2-0.5-0.2-0.8l-0.1-0.4v-0.4c-0.1-1,0.1-1.7,0.5-2.4
			c0.8-1.5,3-2.9,5.5-3.8c2.5-0.9,5.3-1.6,8.2-1.9c2.9-0.4,5.8-0.6,8.8-0.6c1.9,0,4.9-0.1,5,1.2c0.1,2.4-10.2,1.5-11.4,4.1
			c-1.7,3.7,5.2,4.2,9.4,4.2c1.3,0,2.3,1.3,1.9,2.6c-1.3,3.9-2.6,11.3,3.5,17.9l23.8-26.6c1.2,0.3,2.4,0.5,3.6,0.8
			c11.8,2.7,23.4,6.5,34.6,11.3c5.6,2.4,11,5,16.4,8c5.3,2.9,10.5,6.1,15.6,9.5c9.1,6.1,17.9,12.6,26.2,19.8L537.1,280
			c-0.8-0.2-1.7-0.3-2.5-0.5l-1.2,5.1c6.1,1.6,12.2,3,18.5,4c3.2,0.5,6.4,0.8,9.7,0.9c1.7,0,3.3,0,5.1-0.2c1.7-0.2,3.5-0.5,5.4-1.2
			c0.5-0.2,0.9-0.4,1.4-0.7c0.5-0.3,1-0.6,1.4-0.9c0.9-0.7,1.8-1.6,2.5-2.8c0.2-0.4,0.4-0.8,0.6-1.2c0.3-0.3,0.4-0.7,0.4-1.2v-0.1
			c0.1-0.4,0.2-0.7,0.2-1.1C578.5,278.8,578.4,277.7,578.2,276.7z M473.6,174.4c3.5-1.9,6.9-4,10.2-6.3c2.6-1.8,5.2-3.8,7.6-6.2
			c1-0.5,1.9-1,2.9-1.5c0.2,0,0.4-0.1,0.6-0.1c1.1-0.2,2.3-0.3,3.4-0.3c2.3-0.2,4.6-0.2,7,0c4.7,0.3,9.3,1.2,13.8,2.4
			c2.3,0.7,4.5,1.4,6.7,2.3c2.2,0.9,4.3,1.8,6.5,2.9c4.2,2.1,8.3,4.6,12.2,7.4c0.1,0.1,0.2,0.1,0.2,0.2h0.1c0.2,0.1,0.5,0.3,0.8,0.5
			s0.6,0.4,0.9,0.6c0.6,0.4,1.2,0.9,1.7,1.3c1.1,0.9,2.3,1.9,3.3,2.9c2.2,2.1,4.2,4.3,6.2,6.6c1.9,2.3,3.8,4.7,5.5,7.3
			c0.9,1.2,1.6,2.6,2.5,3.8c0.2,0.3,0.4,0.6,0.6,0.9c0.8,1.3,1,2.8,0.8,4.3c-0.3,2.1-0.5,4.1-0.8,6.2c-0.4,3.3-0.7,6.5-1.1,9.8
			c-0.2,2.3-0.2,5.6-0.3,8.5c0,1-1.3,1.4-1.9,0.6l-2.2-3.2c-3.4-4.9-7.5-9.3-11.7-13.5c-4.3-4.1-8.9-8-13.9-11.4
			c-4.9-3.4-10.1-6.4-15.4-9.1c-10.7-5.4-22.2-9.2-34-11.1c-5.9-0.9-6.3-0.9-12.3-1.3c-1.8-0.1-5.7,0.3-6.2-0.8
			C466.6,177.2,470.4,176.2,473.6,174.4z M531,229.1c-5.2-3.5-10.5-6.9-16.1-10.1c-5.5-3.1-11.2-6-17-8.5
			c-11.6-5.1-23.8-9-36.1-11.8c-6.2-1.3-12.5-2.4-18.8-3.1c-6.3-0.7-12.7-1-19.2-0.7c-1,0-2,0.1-3.1,0.2c0.3-0.1,0.6-0.2,1-0.3
			c1.2-0.4,2.3-0.8,3.5-1.1l3.6-1l1.8-0.5c0.6-0.2,1.2-0.3,1.8-0.4c2.4-0.5,4.8-1.3,7.3-1.8c2.4-0.6,4.9-1.4,7.3-2
			c1-0.3,2-0.6,3-0.9c3-1,6.1-1.5,9.2-1.5h0.1c1.4,0,2.8,0.1,4.2,0.1c1.4,0.1,2.8,0.2,4.2,0.3c5.6,0.6,11.1,1.4,16.6,2.5
			c5.5,1.2,10.9,2.6,16.3,4.3s10.6,3.7,15.7,6c10.2,4.6,19.9,10.5,28.5,17.8c5.8,4.8,11,10.3,15.6,16.3c2.5,3.3,4.4,7.1,5.4,11.1
			l2.8,10.5c0.5,1.9-1.7,3.4-3.2,2.1l-4.7-4C551.4,243.9,541.4,236.3,531,229.1z M571.2,280.3c-0.1,0.2-0.3,0.4-0.6,0.7
			c-0.2,0.1-0.3,0.2-0.5,0.4c-0.2,0.1-0.4,0.2-0.7,0.3c-1,0.4-2.3,0.8-3.6,0.9c-1.3,0.2-2.8,0.3-4.2,0.3c-2.9,0-5.9-0.2-8.9-0.5
			c-3.7-0.4-7.3-1-11-1.6c0.1-0.4,0.5-0.8,1.8-1.1c3.5-0.7,18.5,0.2,20.1-3.5c1.1-2.5,1.5-3.7,2.8-3.9c1.1-0.2,2.2,0.4,2.9,1.4
			c0.2,0.3,0.4,0.7,0.6,1c0.6,1.2,1.2,2.3,1.4,3.4C571.4,279.2,571.4,279.9,571.2,280.3z"/>
	</g>
</g>
</svg>
