<?xml version="1.0" encoding="utf-8"?>
<!-- Generator: Adobe Illustrator 26.0.1, SVG Export Plug-In . SVG Version: 6.00 Build 0)  -->
<svg version="1.0" id="Layer_2" xmlns="http://www.w3.org/2000/svg" xmlns:xlink="http://www.w3.org/1999/xlink" x="0px" y="0px"
	 viewBox="0 0 1000 1000" style="enable-background:new 0 0 1000 1000;" xml:space="preserve">

<g id="eyes">
	<g id="blacks">
		<path d="M554.1,476.6c-34,26.2-35.5,65.2-25.1,83.7c10.3,18.5,68.8,27.2,105.6,0.8c36.5-26.2,33.7-67.6,6.8-90.3
        C620.2,453.1,582.8,454.5,554.1,476.6z"/>
		<path d="M445.9,476.6c34,26.2,35.5,65.2,25.1,83.7c-10.3,18.5-68.8,27.2-105.6,0.8c-36.5-26.2-33.7-67.6-6.8-90.3
        C379.8,453.1,417.2,454.5,445.9,476.6z"/>
	</g>
	<g id="eye-D">
		<path d="M443.5,481.6c29.1,22.5,30.4,55.9,21.5,71.7c-8.8,15.8-59,23.3-90.4,0.7c-31.2-22.4-28.9-57.9-5.9-77.3 
        C386.9,461.4,418.9,462.6,443.5,481.6z"/>
		<path d="M556.5,481.6c-29.1,22.5-30.4,55.9-21.5,71.7c8.8,15.8,59,23.3,90.4,0.7c31.2-22.4,28.9-57.9,5.9-77.3 
        C613.1,461.4,581.1,462.6,556.5,481.6z"/>
	</g>
	<g id="eye">
		<path d="M353.1,500.4c3-3.9,6.6-7.6,10.9-10.8c20.5-15.4,56.3-14.4,83.8,4.4c7.8,5.3,13.7,11.2,18.2,17.4
                 c6.1,16.2,4.4,32.3-0.9,42c-8.8,15.8-59,23.3-90.4,0.7C353.8,539.1,347.9,518.3,353.1,500.4z"/>
		<path d="M646.9,500.4c-3-3.9-6.6-7.6-10.9-10.8c-20.5-15.4-56.3-14.4-83.8,4.4c-7.8,5.3-13.7,11.2-18.2,17.4
        c-6.1,16.2
        4.4,32.3,0.9,42c8.8,15.8,59,23.3,90.4,0.7C646.2,539.1,652.1,518.3,646.9,500.4z"/>
	</g>
	<g id="eye-L">
		<path d="M630.5,525.3c-1.6-21.2-26-33.8-54.5-28c-21.3,4.3-38.9,17.6-45.8,32.9c-0.4,9.2,1.5,17.4,4.8,23.2
        c7.4,13.2,43.4,20.6,73.4,9.6C622.6,553.2,631.5,539.1,630.5,525.3z"/>
		<path d="M369.5,525.3c1.6-21.2,26-33.8,54.5-28c21.3,4.3,38.9,17.6,45.8,32.9c0.4,9.2-1.5,17.4-4.8,23.2
        c-7.4,13.2-43.4,20.6-73.4,9.6C377.4,553.2,368.5,539.1,369.5,525.3z"/>
	</g>
</g>
<g id="r_x3C_Clip_Group_x3E_">
	<defs>
		<path id="rpath" d="M556.5,481.6c-29.1,22.5-30.4,55.9-21.5,71.7c8.8,15.8,59,23.3,90.4,0.7c31.2-22.4,28.9-57.9,5.9-77.3
			C613.1,461.4,581.1,462.6,556.5,481.6z"/>
	</defs>
	<clipPath id="rpath_1_">
		<use xlink:href="#rpath"  overflow="visible"/>
	</clipPath>
	<circle id="eyes-mask-r" clip-path="url(#rpath_1_)" fill="#5D5D5D" cx="995" cy="3" r="5"/>
</g>
<g id="l_x3C_Clip_Group_x3E_">
	<defs>
		<path id="lpath" d="M443.5,481.6c29.1,22.5,30.4,55.9,21.5,71.7
			c-8.8,15.8-59,23.3-90.4,0.7c-31.2-22.4-28.9-57.9-5.9-77.3C386.9,461.4,418.9,462.6,443.5,481.6z"/>
	</defs>
	<clipPath id="lpath_1_">
		<use xlink:href="#lpath"  overflow="visible"/>
	</clipPath>
	<circle id="eyes-mask-l" clip-path="url(#lpath_1_)" fill="#5D5D5D" cx="5" cy="3" r="5"/>
</g>
</svg>
