<?xml version="1.0" encoding="utf-8"?>
<!-- Generator: Adobe Illustrator 19.2.0, SVG Export Plug-In . SVG Version: 6.00 Build 0)  -->
<svg version="1.0" id="Layer_2" xmlns="http://www.w3.org/2000/svg" xmlns:xlink="http://www.w3.org/1999/xlink" x="0px" y="0px"
	 viewBox="0 0 1000 1000" enable-background="new 0 0 1000 1000" xml:space="preserve">
<g id="eyes">
	<g id="blacks">
		<path d="M434.7,474.4c29.5,17.6,49.9,61,32.8,93.1c-37.8,12.6-73.9,8.9-101.4-13.3c-27.5-22.2-25.8-58.4-16.1-81.7
			C374,460.4,409.8,459.6,434.7,474.4z"/>
		<path d="M565.8,474.4c-29.5,17.6-49.9,61-32.8,93.1c37.8,12.6,73.9,8.9,101.4-13.3c27.5-22.2,25.8-58.4,16.1-81.7
			C626.5,460.4,590.7,459.6,565.8,474.4z"/>
	</g>
	<g id="eye-D">
		<path d="M432.3,484.1c28,15.7,41.1,46.9,32.2,78.6c-35.8,11.2-73.4,4.2-95.2-16.9c-18.5-17.9-21.3-42.1-12.2-62.9
			C380,472,408.7,470.8,432.3,484.1z"/>
		<path d="M568.2,484.1c-28,15.7-41.1,46.9-32.2,78.6c35.8,11.2,73.4,4.2,95.2-16.9c18.5-17.9,21.3-42.1,12.2-62.9
			C620.5,472,591.8,470.8,568.2,484.1z"/>
	</g>
	<g id="eye">
		<path d="M354.8,489.5c23.4-7.8,51.3-7.6,74.5,3.9c22.9,11.4,36.7,31.1,37.9,53.2c-0.3,5.3-1.1,10.7-2.6,16.1
			c-35.8,11.2-73.4,4.2-95.2-16.9C352.8,529.8,348.8,508.7,354.8,489.5z"/>
		<path d="M645.7,489.5c-23.4-7.8-51.3-7.6-74.5,3.9c-22.9,11.4-36.7,31.1-37.9,53.2c0.3,5.3,1.1,10.7,2.6,16.1
			c35.8,11.2,73.4,4.2,95.2-16.9C647.7,529.8,651.7,508.7,645.7,489.5z"/>
	</g>
	<g id="eye-L">
		<path d="M416.7,502.9c18.6,0,35.2,9.4,45.7,24c2.7,6.2,4.3,12.9,4.7,19.7c-0.3,5.3-1.1,10.7-2.6,16.1
			c-35.8,11.2-73.4,4.2-95.2-16.9c-2-2-3.9-4-5.5-6.1C372.7,518,393.1,502.9,416.7,502.9z"/>
		<path d="M583.8,502.9c-18.6,0-35.2,9.4-45.7,24c-2.7,6.2-4.3,12.9-4.7,19.7c0.3,5.3,1.1,10.7,2.6,16.1
			c35.8,11.2,73.4,4.2,95.2-16.9c2-2,3.9-4,5.5-6.1C627.8,518,607.4,502.9,583.8,502.9z"/>
	</g>
</g>
<g id="r_x3C_Clip_Group_x3E_">
	<defs>
		<path id="rpath" d="M568.2,484.1c-28,15.7-41.1,46.9-32.2,78.6c35.8,11.2,73.4,4.2,95.2-16.9c18.5-17.9,21.3-42.1,12.2-62.9
			C620.5,472,591.8,470.8,568.2,484.1z"/>
	</defs>
	<clipPath id="rpath_1_">
		<use xlink:href="#rpath"  overflow="visible"/>
	</clipPath>
	<circle id="eyes-mask-r" clip-path="url(#rpath_1_)" fill="#5D5D5D" cx="995" cy="3" r="5"/>
</g>
<g id="l_x3C_Clip_Group_x3E_">
	<defs>
		<path id="lpath" d="M432.3,484.1c28,15.7,41.1,46.9,32.2,78.6
			c-35.8,11.2-73.4,4.2-95.2-16.9c-18.5-17.9-21.3-42.1-12.2-62.9C380,472,408.7,470.8,432.3,484.1z"/>
	</defs>
	<clipPath id="lpath_1_">
		<use xlink:href="#lpath"  overflow="visible"/>
	</clipPath>
	<circle id="eyes-mask-l" clip-path="url(#lpath_1_)" fill="#5D5D5D" cx="5" cy="3" r="5"/>
</g>
</svg>