<?xml version="1.0" encoding="utf-8"?>
<!-- Generator: Adobe Illustrator 26.0.1, SVG Export Plug-In . SVG Version: 6.00 Build 0)  -->
<svg version="1.0" id="Layer_2" xmlns="http://www.w3.org/2000/svg" xmlns:xlink="http://www.w3.org/1999/xlink" x="0px" y="0px"
	 viewBox="0 0 1000 1000" enable-background="new 0 0 1000 1000" xml:space="preserve">

<g id="eyes">
	<g id="blacks">
		<path d="M522.2,506.4c-8.5,30.9,15,63.3,52.4,72.4c37.4,9.1,74.7-8.7,83.2-39.6c8.5-30.9-15-63.3-52.4-72.4
			C568,457.8,530.7,475.5,522.2,506.4z"/>
		<path d="M482.8,506.4c8.5,30.9-15,63.3-52.4,72.4c-37.4,9.1-74.7-8.7-83.2-39.6c-8.5-30.9,15-63.3,52.4-72.4
			C437,457.8,474.3,475.5,482.8,506.4z"/>
	</g>
	<g id="eye-D">
		<path d="M529.1,506.8c-7.4,26.9,13,55.1,45.5,63c32.5,7.9,64.9-7.6,72.3-34.5c7.4-26.9-13-55.1-45.5-63
			C568.9,464.4,536.5,479.8,529.1,506.8z"/>
		<path d="M475.8,506.8c7.4,26.9-13,55.1-45.5,63c-32.5,7.9-64.9-7.6-72.3-34.5c-7.4-26.9,13-55.1,45.5-63
			C436.1,464.4,468.4,479.8,475.8,506.8z"/>
	</g>
	<g id="eye">
		<path d="M607.2,482.2c-34.5-8.3-68.8,8-76.6,36.6c-0.9,3.3-1.4,6.6-1.6,9.9c4.8,18.9,22,35.3,45.6,41.1
			c32.5,7.9,64.9-7.6,72.3-34.5c3-11.1,1.4-22.4-3.9-32.4C634.3,493.2,621.9,485.7,607.2,482.2z"/>
		<path d="M397.8,482.2c34.5-8.3,68.8,8,76.6,36.6c0.9,3.3,1.4,6.6,1.6,9.9c-4.8,18.9-22,35.3-45.6,41.1
			c-32.5,7.9-64.9-7.6-72.3-34.5c-3-11.1-1.4-22.4,3.9-32.4C370.7,493.2,383.1,485.7,397.8,482.2z"/>
	</g>
	<g id="eye-L">
		<path d="M592.5,493.8c-17.8-4.3-35.5-2.3-49.9,4.3c-5.7,5.8-9.9,12.7-12,20.6c-0.9,3.3-1.4,6.6-1.6,9.9
			c4.8,18.9,22,35.3,45.6,41.1c28.1,6.8,56-3.8,67.9-24.1c0.4-2.1,0.6-4.2,0.7-6.3C637.8,518.4,618.7,500.1,592.5,493.8z"/>
		<path d="M412.5,493.8c17.8-4.3,35.5-2.3,49.9,4.3c5.7,5.8,9.9,12.7,12,20.6c0.9,3.3,1.4,6.6,1.6,9.9
			c-4.8,18.9-22,35.3-45.6,41.1c-28.1,6.8-56-3.8-67.9-24.1c-0.4-2.1-0.6-4.2-0.7-6.3C367.2,518.4,386.3,500.1,412.5,493.8z"/>
	</g>
</g>
<g id="l_x3C_Clip_Group_x3E_">
	<defs>
		<path id="lpath" d="M475.8,506.8c7.4,26.9-13,55.1-45.5,63c-32.5,7.9-64.9-7.6-72.3-34.5c-7.4-26.9,13-55.1,45.5-63
			C436.1,464.4,468.4,479.8,475.8,506.8z"/>
	</defs>
	<clipPath id="lpath_1_">
		<use xlink:href="#lpath"  overflow="visible"/>
	</clipPath>
	<circle id="eyes-mask-l" clip-path="url(#lpath_1_)" fill="#5D5D5D" cx="5" cy="3" r="5"/>
</g>
<g id="r_x3C_Clip_Group_x3E_">
	<defs>
		<path id="rpath" d="M529.1,506.8c-7.4,26.9,13,55.1,45.5,63
			c32.5,7.9,64.9-7.6,72.3-34.5c7.4-26.9-13-55.1-45.5-63C568.9,464.4,536.5,479.8,529.1,506.8z"/>
	</defs>
	<clipPath id="rpath_1_">
		<use xlink:href="#rpath"  overflow="visible"/>
	</clipPath>
	<circle id="eyes-mask-r" clip-path="url(#rpath_1_)" fill="#5D5D5D" cx="995" cy="3" r="5"/>
</g>
</svg>
