<?xml version="1.0" encoding="utf-8"?>
<!-- Generator: Adobe Illustrator 19.2.0, SVG Export Plug-In . SVG Version: 6.00 Build 0)  -->
<svg version="1.0" id="Layer_2" xmlns="http://www.w3.org/2000/svg" xmlns:xlink="http://www.w3.org/1999/xlink" x="0px" y="0px"
	 viewBox="0 0 1000 1000" enable-background="new 0 0 1000 1000" xml:space="preserve">
<g id="eyes_1_">
	<g id="blacks">
		<path id="path_7_" fill="#6C1E4D" d="M565.36,473.61c-30.39,17.6-43.42,57.75-33.82,93.13c38.91,12.56,76.16,8.91,104.48-13.29
			c28.32-22.2,26.56-58.43,16.59-81.69C627.89,459.56,591.01,458.76,565.36,473.61z"/>
		<path id="path_6_" fill="#6C1E4D" d="M434.63,473.61c30.39,17.6,43.42,57.75,33.82,93.13c-38.91,12.56-76.16,8.91-104.48-13.29
			c-28.32-22.2-26.56-58.43-16.59-81.69C372.11,459.56,408.99,458.76,434.63,473.61z"/>
	</g>
	<g id="eye-D_2_">
		<path id="path_5_" fill="#B5C9C0" d="M568.47,484.34c-28.02,15.31-41.13,45.59-32.28,76.37c35.87,10.93,73.47,4.11,95.33-16.43
			c18.49-17.38,21.37-40.91,12.17-61.14C620.9,472.53,592.12,471.43,568.47,484.34z"/>
		<path id="path_4_" fill="#B5C9C0" d="M431.52,484.34c28.02,15.31,41.13,45.59,32.28,76.37c-35.87,10.93-73.47,4.11-95.33-16.43
			c-18.49-17.38-21.37-40.91-12.17-61.14C379.1,472.53,407.88,471.43,431.52,484.34z"/>
	</g>
	<g id="eye_2_">
		<path id="path_3_" fill="#DFEEE8" d="M646.17,489.57c-23.47-7.62-51.34-7.42-74.63,3.79c-22.96,11.06-36.71,30.27-37.98,51.69
			c0.27,5.16,1.12,10.4,2.63,15.66c35.87,10.93,73.47,4.11,95.33-16.43C648.08,528.72,652.12,508.22,646.17,489.57z"/>
		<path id="path_2_" fill="#DFEEE8" d="M353.83,489.57c23.47-7.62,51.34-7.42,74.63,3.79c22.96,11.06,36.71,30.27,37.98,51.69
			c-0.27,5.16-1.12,10.4-2.63,15.66c-35.87,10.93-73.47,4.11-95.33-16.43C351.92,528.72,347.88,508.22,353.83,489.57z"/>
	</g>
	<g id="eye-L_2_">
		<path id="path_1_" fill="#F1F2F2" d="M584.09,502.57c-18.67,0-35.27,9.14-45.81,23.29c-2.72,6.06-4.32,12.52-4.72,19.19
			c0.27,5.16,1.12,10.4,2.63,15.66c35.87,10.93,73.47,4.11,95.33-16.43c2.03-1.9,3.86-3.88,5.51-5.92
			C628.18,517.31,607.81,502.57,584.09,502.57z"/>
		<path id="path" fill="#F1F2F2" d="M415.91,502.57c18.67,0,35.27,9.14,45.81,23.29c2.72,6.06,4.32,12.52,4.72,19.19
			c-0.27,5.16-1.12,10.4-2.63,15.66c-35.87,10.93-73.47,4.11-95.33-16.43c-2.03-1.9-3.86-3.88-5.51-5.92
			C371.82,517.31,392.19,502.57,415.91,502.57z"/>
	</g>
</g>
<g id="r_x3C_Clip_Group_x3E_">
	<defs>
		<path id="rpath" d="M568.47,484.34c-28.02,15.31-41.13,45.59-32.28,76.37c35.87,10.93,73.47,4.11,95.33-16.43
			c18.49-17.38,21.37-40.91,12.17-61.14C620.9,472.53,592.12,471.43,568.47,484.34z"/>
	</defs>
	<clipPath id="rpath_1_">
		<use xlink:href="#rpath"  overflow="visible"/>
	</clipPath>
	<circle id="eyes-mask-r" clip-path="url(#rpath_1_)" fill="#5D5D5D" cx="995" cy="3" r="5"/>
</g>
<g id="l_x3C_Clip_Group_x3E_">
	<defs>
		<path id="lpath" d="M431.52,484.34c28.02,15.31,41.13,45.59,32.28,76.37c-35.87,10.93-73.47,4.11-95.33-16.43
			c-18.49-17.38-21.37-40.91-12.17-61.14C379.1,472.53,407.88,471.43,431.52,484.34z"/>
	</defs>
	<clipPath id="lpath_1_">
		<use xlink:href="#lpath"  overflow="visible"/>
	</clipPath>
	<circle id="eyes-mask-l" clip-path="url(#lpath_1_)" fill="#5D5D5D" cx="5" cy="3" r="5"/>
</g>
</svg>
