<?xml version="1.0" encoding="utf-8"?>
<!-- Generator: Adobe Illustrator 26.0.1, SVG Export Plug-In . SVG Version: 6.00 Build 0)  -->
<svg version="1.1" id="layer" xmlns="http://www.w3.org/2000/svg" xmlns:xlink="http://www.w3.org/1999/xlink" x="0px" y="0px"
	 viewBox="0 0 1000 1000" style="enable-background:new 0 0 1000 1000;" xml:space="preserve">

<g id="eyes">
	<g id="blacks">
		<path d="M651.2,480.7c17.6,26.8,5.3,64.8-27.5,85c-32.8,20.2-73.7,14.8-91.3-11.9c-17.6-26.8-5.3-64.8,27.5-85
			C592.7,448.6,633.6,454,651.2,480.7z"/>
		<path d="M348.8,480.7c-17.6,26.8-5.3,64.8,27.5,85c32.8,20.2,73.7,14.8,91.3-11.9c17.6-26.8,5.3-64.8-27.5-85
			C407.3,448.6,366.4,454,348.8,480.7z"/>
	</g>
	<g id="eye-D">
		<path d="M639.1,485.1c15.4,23.3,4.7,56.4-23.8,74c-28.5,17.5-64,12.8-79.4-10.5c-15.4-23.3-4.7-56.4,23.8-74
			C588.2,457.1,623.7,461.7,639.1,485.1z"/>
		<path d="M360.9,485.1c-15.4,23.3-4.7,56.4,23.8,74c28.5,17.5,64,12.8,79.4-10.5c15.4-23.3,4.7-56.4-23.8-74
			C411.8,457.1,376.3,461.7,360.9,485.1z"/>
	</g>
	<g id="eye">
		<path d="M559.7,487.4c-17.4,10.7-28.1,27.2-30.4,43.7c0.9,6.1,3,12,6.6,17.4c15.4,23.3,50.9,28,79.4,10.5
			c17.4-10.7,28.1-27.2,30.4-43.7c-0.9-6.1-3-12-6.6-17.4C623.7,474.6,588.2,469.9,559.7,487.4z"/>
		<path d="M440.3,487.4c17.4,10.7,28.1,27.2,30.4,43.7c-0.9,6.1-3,12-6.6,17.4c-15.4,23.3-50.9,28-79.4,10.5
			c-17.4-10.7-28.1-27.2-30.4-43.7c0.9-6.1,3-12,6.6-17.4C376.3,474.6,411.8,469.9,440.3,487.4z"/>
	</g>
	<g id="eye-L">
		<path d="M618.7,532.3c-2.7-9.4-18.8-13.1-36.1-8.2c-17.2,4.9-29.1,16.5-26.4,25.9c2.7,9.4,18.8,13.1,36.1,8.2
			C609.6,553.3,621.4,541.8,618.7,532.3z"/>
		<path d="M381.3,532.3c2.7-9.4,18.8-13.1,36.1-8.2c17.2,4.9,29.1,16.5,26.4,25.9c-2.7,9.4-18.8,13.1-36.1,8.2
			C390.4,553.3,378.6,541.8,381.3,532.3z"/>
	</g>
</g>
<g id="r_x3C_Clip_Group_x3E_">
	<defs>
		<path id="rpath" d="M639.1,485.1c15.4,23.3,4.7,56.4-23.8,74c-28.5,17.5-64,12.8-79.4-10.5c-15.4-23.3-4.7-56.4,23.8-74
			C588.2,457.1,623.7,461.7,639.1,485.1z"/>
	</defs>
	<clipPath id="rpath_1_">
		<use xlink:href="#rpath"  overflow="visible"/>
	</clipPath>
	<circle id="eyes-mask-r" clip-path="url(#rpath_1_)" fill="#5D5D5D" cx="995" cy="3" r="5"/>
</g>
<g id="l_x3C_Clip_Group_x3E_">
	<defs>
		<path id="lpath" d="M360.9,485.1c-15.4,23.3-4.7,56.4,23.8,74
			c28.5,17.5,64,12.8,79.4-10.5c15.4-23.3,4.7-56.4-23.8-74C411.8,457.1,376.3,461.7,360.9,485.1z"/>
		</defs>
	<clipPath id="lpath_1_">
		<use xlink:href="#lpath"  overflow="visible"/>
	</clipPath>
	<circle id="eyes-mask-l" clip-path="url(#lpath_1_)" fill="#5D5D5D" cx="5" cy="3" r="5"/>
</g>
</svg>
