<?xml version="1.0" encoding="utf-8"?>
<!-- Generator: Adobe Illustrator 26.0.1, SVG Export Plug-In . SVG Version: 6.00 Build 0)  -->
<svg version="1.1" id="Слой_2" xmlns="http://www.w3.org/2000/svg" xmlns:xlink="http://www.w3.org/1999/xlink" x="0px" y="0px"
	 viewBox="0 0 1000 1000" style="enable-background:new 0 0 1000 1000;" xml:space="preserve">

<g>
	<g id="blacks">
		<path d="M434.3,472.7c-44.4-20.3-91.8,8.9-91.8,8.9c3.2,1.6,8.8,2.7,13.8,3.5c-2.6,16.6-1.8,42.5,10.2,57.9
			c18.7,24.1,47.5,27.5,87.2,20.8c-2.3,3.2-5.8,7-10.3,9.4c-5.5,7.5-6.2,21.2-6.2,21.2l10.1-15.8c0,0,5.1-1.6,10.3-6.7
			c5.2-5.1,7.1-10.1,7.1-10.1C477.1,523,460.9,484.9,434.3,472.7z"/>
		<path d="M657.5,481.6c0,0-47.4-29.2-91.8-8.9c-26.6,12.2-42.8,50.3-30.4,89.1c0,0,1.8,5,7.1,10.1
			c5.2,5.1,10.3,6.7,10.3,6.7l10.1,15.8c0,0-0.8-13.7-6.2-21.2c-4.5-2.4-7.9-6.1-10.3-9.4c39.6,6.6,68.4,3.3,87.2-20.8
			c12-15.4,12.9-41.3,10.2-57.9C648.7,484.3,654.3,483.2,657.5,481.6z"/>
	</g>
	<g id="eye-D">
		<path d="M427.3,481.6c24.8,12.2,39.5,39.9,31.5,72.2c-40.5,7.6-67.8,5.1-82.7-17c-10.6-15.9-11.8-41.7-6.4-57.2
			C387.6,473.1,409.1,472.6,427.3,481.6z"/>
		<path d="M572.7,481.6c-24.8,12.2-39.5,39.9-31.5,72.2c40.5,7.6,67.8,5.1,82.7-17c10.6-15.9,11.8-41.7,6.4-57.2
			C612.4,473.1,590.9,472.6,572.7,481.6z"/>
	</g>
	<g id="eye">
		<path d="M376.1,536.7c-8.1-12.1-10.7-30-9.1-44.7c11.1-15.6,52-8.4,80.3,18.6c4.9,4.7,9.2,9.7,12.7,14.8
			c1.5,8.8,1.2,18.3-1.3,28.3C418.3,561.3,391,558.9,376.1,536.7z"/>
		<path d="M623.9,536.7c8.1-12.1,10.7-30,9.1-44.7c-11.1-15.6-52-8.4-80.3,18.6c-4.9,4.7-9.2,9.7-12.7,14.8
			c-1.5,8.8-1.2,18.3,1.3,28.3C581.7,561.3,609,558.9,623.9,536.7z"/>
	</g>
	<g id="eye-L">
		<path d="M376.1,536.7c-4.1-6.1-6.8-13.7-8.2-21.5c0.9-1.6,1.9-3.1,3-4.5c16.1-20.1,51.7-18.3,79.5,4
			c3.3,2.7,6.4,5.5,9.2,8.5c2,9.4,1.8,19.7-0.9,30.6C418.3,561.3,391,558.9,376.1,536.7z"/>
		<path d="M623.9,536.7c4.1-6.1,6.8-13.7,8.2-21.5c-0.9-1.6-1.9-3.1-3-4.5c-16.1-20.1-51.7-18.3-79.5,4
			c-3.3,2.7-6.4,5.5-9.2,8.5c-2,9.4-1.8,19.7,0.9,30.6C581.7,561.3,609,558.9,623.9,536.7z"/>
	</g>
</g>
<g id="l_x3C_Clip_Group_x3E_">
	<defs>
		<path id="lpath" d="M427.3,481.6c24.8,12.2,39.5,39.9,31.5,72.2c-40.5,7.6-67.8,5.1-82.7-17c-10.6-15.9-11.8-41.7-6.4-57.2
			C387.6,473.1,409.1,472.6,427.3,481.6z"/>
	</defs>
	<clipPath id="lpath_1_">
		<use xlink:href="#lpath"  overflow="visible"/>
	</clipPath>
	<circle id="eyes-mask-l" clip-path="url(#lpath_1_)" fill="#5D5D5D" cx="5" cy="3" r="5"/>
</g>
<g id="r_x3C_Clip_Group_x3E_">
	<defs>
		<path id="rpath" d="M572.7,481.6c-24.8,12.2-39.5,39.9-31.5,72.2
			c40.5,7.6,67.8,5.1,82.7-17c10.6-15.9,11.8-41.7,6.4-57.2C612.4,473.1,590.9,472.6,572.7,481.6z"/>
	</defs>
	<clipPath id="rpath_1_">
		<use xlink:href="#rpath"  overflow="visible"/>
	</clipPath>
	<circle id="eyes-mask-r" clip-path="url(#rpath_1_)" fill="#5D5D5D" cx="995" cy="3" r="5"/>
</g>
</svg>
