<?xml version="1.0" encoding="utf-8"?>
<!-- Generator: Adobe Illustrator 26.0.1, SVG Export Plug-In . SVG Version: 6.00 Build 0)  -->
<svg version="1.1" id="Слой_3" xmlns="http://www.w3.org/2000/svg" xmlns:xlink="http://www.w3.org/1999/xlink" x="0px" y="0px"
	 viewBox="0 0 1000 1000" style="enable-background:new 0 0 1000 1000;" xml:space="preserve">

<g id="eyes">
	<g id="blacks">
		<path d="M417.2,473.8c43.8-4.7,61.9,31.9,65.4,66.2c0,0-36.5,49.8-86.3,34.1c-34.9-11-48.8-51.7-48.8-51.7
			C356.8,504.3,371.5,478.6,417.2,473.8z"/>
		<path d="M582.8,473.8c-43.8-4.7-61.9,31.9-65.4,66.2c0,0,36.5,49.8,86.3,34.1c34.9-11,48.8-51.7,48.8-51.7
			C643.2,504.3,628.5,478.6,582.8,473.8z"/>
	</g>
	<g id="eye-D">
		<path d="M402.7,488.4c45.1-10.7,69.4,19.7,72.4,49.5c-16.3,25-48.4,36.2-73.9,28.3c-18.2-5.6-38-25.5-43.6-40.8
			C367.5,509.1,383,492.8,402.7,488.4z"/>
		<path d="M597.3,488.4c-45.1-10.7-69.4,19.7-72.4,49.5c16.3,25,48.4,36.2,73.9,28.3c18.2-5.6,38-25.5,43.6-40.8
			C632.5,509.1,617,492.8,597.3,488.4z"/>
	</g>
	<g id="eye">
		<path d="M404.7,499.2c39.7-9.4,63.2,12.9,70.4,38.7c-16.3,24.9-48.4,36.1-73.9,28.2c-15.2-4.7-31.5-19.3-39.7-32.9
			C371.4,518,386.2,503.4,404.7,499.2z"/>
		<path d="M595.3,499.2c-39.7-9.4-63.2,12.9-70.4,38.7c16.3,24.9,48.4,36.1,73.9,28.2c15.2-4.7,31.5-19.3,39.7-32.9
			C628.6,518,613.8,503.4,595.3,499.2z"/>
	</g>
	<g id="eye-L">
		<path d="M378.4,548.5c0-26.5,20.3-47.9,45.3-47.9c24.2,0,44,20.1,45.2,45.3c-17.4,19.2-45.1,27.2-67.7,20.2
			c-7.7-2.4-15.6-7.2-22.6-13.2C378.5,551.5,378.4,550,378.4,548.5z"/>
		<path d="M621.6,548.5c0-26.5-20.3-47.9-45.3-47.9c-24.2,0-44,20.1-45.2,45.3c17.4,19.2,45.1,27.2,67.7,20.2
			c7.7-2.4,15.6-7.2,22.6-13.2C621.5,551.5,621.6,550,621.6,548.5z"/>
	</g>
</g>
<g id="l_x3C_Clip_Group_x3E_">
	<defs>
		<path id="lpath"d="M402.7,488.4c45.1-10.7,69.4,19.7,72.4,49.5c-16.3,25-48.4,36.2-73.9,28.3c-18.2-5.6-38-25.5-43.6-40.8
			C367.5,509.1,383,492.8,402.7,488.4z"/>
	</defs>
	<clipPath id="lpath_1_">
		<use xlink:href="#lpath"  overflow="visible"/>
	</clipPath>
	<circle id="eyes-mask-l" clip-path="url(#lpath_1_)" fill="#5D5D5D" cx="5" cy="3" r="5"/>
</g>
<g id="r_x3C_Clip_Group_x3E_">
	<defs>
		<path id="rpath" d="M597.3,488.4c-45.1-10.7-69.4,19.7-72.4,49.5
			c16.3,25,48.4,36.2,73.9,28.3c18.2-5.6,38-25.5,43.6-40.8C632.5,509.1,617,492.8,597.3,488.4z"/>
	</defs>
	<clipPath id="rpath_1_">
		<use xlink:href="#rpath"  overflow="visible"/>
	</clipPath>
	<circle id="eyes-mask-r" clip-path="url(#rpath_1_)" fill="#5D5D5D" cx="995" cy="3" r="5"/>
</g>
</svg>
