<?xml version="1.0" encoding="utf-8"?>
<!-- Generator: Adobe Illustrator 26.0.1, SVG Export Plug-In . SVG Version: 6.00 Build 0)  -->
<svg version="1.1" id="Слой_2" xmlns="http://www.w3.org/2000/svg" xmlns:xlink="http://www.w3.org/1999/xlink" x="0px" y="0px"
	 viewBox="0 0 1000 1000" style="enable-background:new 0 0 1000 1000;" xml:space="preserve">

<g id="eyes">
	<g id="blacks">
		<g>
			<path d="M349.8,491c2.9,3.1,5.8,5.2,8.4,6.5c15.9-20.3,49.6-28.9,73.8-17.9c23.6,10.8,35.6,38.9,31.2,63.7
				c1.2,4.4,1.7,11.5-2,20.4c-0.9-4.9-3-7.9-4.3-9.4c-16.5,17-45,22.4-67.4,12.1c-22.8-10.4-37-35.6-34.3-59.4
				C352.9,502.6,351,497.4,349.8,491z"/>
		</g>
		<path d="M650.2,491c-2.9,3.1-5.8,5.2-8.4,6.5c-15.9-20.3-49.6-28.9-73.8-17.9c-23.6,10.8-35.6,38.9-31.2,63.7
			c-1.2,4.4-1.7,11.5,2,20.4c0.9-4.9,3-7.9,4.3-9.4c16.5,17,45,22.4,67.4,12.1c22.8-10.4,37-35.6,34.3-59.4
			C647.1,502.6,649,497.4,650.2,491z"/>
	</g>
	<g id="eye-D">
		<path d="M421.4,506.6c21.9,10.5,34.8,38.5,34.8,38.5c-13.2,19.4-38.9,27-60.9,16.9c-22.1-10.1-33-34.5-27-57.1
			C368.3,504.9,389.5,491.3,421.4,506.6z"/>
		<path d="M578.6,506.6c-21.9,10.5-34.8,38.5-34.8,38.5c13.2,19.4,38.9,27,60.9,16.9c22.1-10.1,33-34.5,27-57.1
			C631.7,504.9,610.5,491.3,578.6,506.6z"/>
	</g>
	<g id="eye">
		<path d="M395.3,562c-18.8-8.6-29.6-27.7-28.6-47.2c10.8-8.9,30.1-10.9,49.2-3.8c21.7,8,35.9,25.1,35.1,40.4
			C436.9,566,414.7,570.9,395.3,562z"/>
		<path d="M604.7,562c18.8-8.6,29.6-27.7,28.6-47.2c-10.8-8.9-30.1-10.9-49.2-3.8c-21.7,8-35.9,25.1-35.1,40.4
			C563.1,566,585.3,570.9,604.7,562z"/>
	</g>
	<g id="eye-L">
		<g>
			<path d="M368,528.6c12.7-15.3,32.5-20.8,47.4-12.1c15.2,8.9,20,29.6,12.2,48.5c-10.4,2.6-21.7,1.8-32.2-3
				C381,555.4,371.3,542.8,368,528.6z"/>
		</g>
		<path d="M632,528.6c-12.7-15.3-32.5-20.8-47.4-12.1c-15.2,8.9-20,29.6-12.2,48.5c10.4,2.6,21.7,1.8,32.2-3
			C619,555.4,628.7,542.8,632,528.6z"/>
	</g>
</g>
<g id="l_x3C_Clip_Group_x3E_">
	<defs>
		<path id="lpath" d="M421.4,506.6c21.9,10.5,34.8,38.5,34.8,38.5c-13.2,19.4-38.9,27-60.9,16.9c-22.1-10.1-33-34.5-27-57.1
			C368.3,504.9,389.5,491.3,421.4,506.6z"/>
	</defs>
	<clipPath id="lpath_1_">
		<use xlink:href="#lpath"  overflow="visible"/>
	</clipPath>
	<circle id="eyes-mask-l" clip-path="url(#lpath_1_)" fill="#5D5D5D" cx="5" cy="3" r="5"/>
</g>
<g id="r_x3C_Clip_Group_x3E_">
	<defs>
		<path id="rpath" d="M578.6,506.6c-21.9,10.5-34.8,38.5-34.8,38.5
			c13.2,19.4,38.9,27,60.9,16.9c22.1-10.1,33-34.5,27-57.1C631.7,504.9,610.5,491.3,578.6,506.6z"/>
	</defs>
	<clipPath id="rpath_1_">
		<use xlink:href="#rpath"  overflow="visible"/>
	</clipPath>
	<circle id="eyes-mask-r" clip-path="url(#rpath_1_)" fill="#5D5D5D" cx="995" cy="3" r="5"/>
</g>
</svg>
