<?xml version="1.0" encoding="utf-8"?>
<!-- Generator: Adobe Illustrator 26.0.1, SVG Export Plug-In . SVG Version: 6.00 Build 0)  -->
<svg version="1.1" id="Слой_3" xmlns="http://www.w3.org/2000/svg" xmlns:xlink="http://www.w3.org/1999/xlink" x="0px" y="0px"
	 viewBox="0 0 1000 1000" style="enable-background:new 0 0 1000 1000;" xml:space="preserve">

<g>
	<g id="blacks">
		<path d="M371.2,506.2c-9.8,23.7,5.1,50.6,32.2,59.4c25.7,8.3,54.8-7.2,60.9-24.8c6.1-17.2-3.8-46.8-28.2-57
			C410.5,473.1,380.9,482.8,371.2,506.2z"/>
		<path d="M628.8,506.2c9.8,23.7-5.1,50.6-32.2,59.4c-25.7,8.3-54.8-7.2-60.9-24.8c-6.1-17.2,3.8-46.8,28.2-57
			C589.5,473.1,619.1,482.8,628.8,506.2z"/>
	</g>
	<g id="eye-D">
		<path d="M377.4,508.6c-5.7,19.4,3.7,41.6,27.2,49.2c22.3,7.2,48.2-4,53.5-19.2c5.3-14.9-3.3-37-24.5-45.9
			C411.4,483.4,385.8,488.3,377.4,508.6z"/>
		<path d="M622.6,508.6c5.7,19.4-3.7,41.6-27.2,49.2c-22.3,7.2-48.2-4-53.5-19.2c-5.3-14.9,3.3-37,24.5-45.9
			C588.6,483.4,614.2,488.3,622.6,508.6z"/>
	</g>
	<g id="eye">
		<path d="M376.4,512.8c9.1-9.2,25.6-14.1,43.3-11.6c19.2,2.7,34.6,13.3,39.8,26c0.3,4-0.2,7.9-1.4,11.4
			c-5.4,15.2-31.3,26.4-53.5,19.2C382.8,550.7,373.1,531.1,376.4,512.8z"/>
		<path d="M623.6,512.8c-9.1-9.2-25.6-14.1-43.3-11.6c-19.2,2.7-34.6,13.3-39.8,26c-0.3,4,0.2,7.9,1.4,11.4
			c5.4,15.2,31.3,26.4,53.5,19.2C617.2,550.7,626.9,531.1,623.6,512.8z"/>
	</g>
	<g id="eye-L">
		<path d="M417.2,512.9c19.2,0,35.6,10,41.5,23.9c-0.2,0.6-0.3,1.2-0.5,1.8c-5.4,15.2-31.3,26.4-53.5,19.2
			c-13.9-4.5-22.8-14.1-26.7-25.2C385.1,520.9,400,512.9,417.2,512.9z"/>
		<path d="M582.8,512.9c-19.2,0-35.6,10-41.5,23.9c0.2,0.6,0.3,1.2,0.5,1.8c5.4,15.2,31.3,26.4,53.5,19.2
			c13.9-4.5,22.8-14.1,26.7-25.2C614.9,520.9,600,512.9,582.8,512.9z"/>
	</g>
</g>
<g id="r_x3C_Clip_Group_x3E_">
	<defs>
		<path id="rpath" d="M622.6,508.6c5.7,19.4-3.7,41.6-27.2,49.2c-22.3,7.2-48.2-4-53.5-19.2c-5.3-14.9,3.3-37,24.5-45.9
				C588.6,483.4,614.2,488.3,622.6,508.6z"/>
	</defs>
	<clipPath id="rpath_1_">
		<use xlink:href="#rpath"  overflow="visible"/>
	</clipPath>
	<circle id="eyes-mask-r" clip-path="url(#rpath_1_)" fill="#5D5D5D" cx="995" cy="3" r="5"/>
</g>
<g id="l_x3C_Clip_Group_x3E_">
	<defs>
		<path id="lpath" d="M377.4,508.6c-5.7,19.4,3.7,41.6,27.2,49.2
				c22.3,7.2,48.2-4,53.5-19.2c5.3-14.9-3.3-37-24.5-45.9C411.4,483.4,385.8,488.3,377.4,508.6z"/>
	</defs>
	<clipPath id="lpath_1_">
		<use xlink:href="#lpath"  overflow="visible"/>
	</clipPath>
	<circle id="eyes-mask-l" clip-path="url(#lpath_1_)" fill="#5D5D5D" cx="5" cy="3" r="5"/>
</g>
</svg>
