<?xml version="1.0" encoding="utf-8"?>
<!-- Generator: Adobe Illustrator 26.0.1, SVG Export Plug-In . SVG Version: 6.00 Build 0)  -->
<svg version="1.1" id="Слой_2" xmlns="http://www.w3.org/2000/svg" xmlns:xlink="http://www.w3.org/1999/xlink" x="0px" y="0px"
	 viewBox="0 0 1000 1000" style="enable-background:new 0 0 1000 1000;" xml:space="preserve">

<g id="eyes">
	<g id="blacks">
		<path d="M430.6,480.2c-40.9-9.6-74.8,18.1-74.8,18.1s-0.1,24.2,19.3,36.6c0.2,15.2,11.8,30.2,30.3,37.1
			c23.9,8.9,50.2,0.9,58.8-17.9c1.4-3.1,2.3-6.4,2.6-9.6c4.1-0.4,5.7-0.8,5.7-0.8S481.5,492.1,430.6,480.2z"/>
		<path d="M644.3,498.2c0,0-33.9-27.7-74.8-18.1c-51,12-42,63.6-42,63.6s1.6,0.4,5.7,0.8c0.3,3.2,1.2,6.5,2.6,9.6
			c8.6,18.8,35,26.8,58.8,17.9c18.5-6.9,30.1-22,30.3-37.1C644.4,522.4,644.3,498.2,644.3,498.2z"/>
	</g>
	<g id="eye-D">
		<path d="M437.9,491.4c25.6,9.9,38.8,34.1,34.5,59.8c-23.8,16.8-55,20.9-78.9,9.3c-22.6-11-32.6-33.5-28.4-56.2
			C385.2,488.1,413.7,482,437.9,491.4z"/>
		<path d="M562.1,491.4c-25.6,9.9-38.8,34.1-34.5,59.8c23.8,16.8,55,20.9,78.9,9.3c22.6-11,32.6-33.5,28.4-56.2
			C614.8,488.1,586.3,482,562.1,491.4z"/>
	</g>
	<g id="eye">
		<path d="M418,494.8c19.5,0,36.8,7.6,47.7,19.4c6.5,10.7,9,23.6,6.8,37c-23.8,16.8-55,20.9-78.9,9.3
			c-16.8-8.2-26.6-22.7-28.8-38.9C374.4,505.7,394.6,494.8,418,494.8z"/>
		<path d="M582,494.8c-19.5,0-36.8,7.6-47.7,19.4c-6.5,10.7-9,23.6-6.8,37c23.8,16.8,55,20.9,78.9,9.3
			c16.8-8.2,26.6-22.7,28.8-38.9C625.6,505.7,605.4,494.8,582,494.8z"/>
	</g>
	<g id="eye-L">
		<path d="M393.5,560.4c-11.5-5.6-19.8-14.2-24.5-24.3c4.8-20.7,24.5-36.2,48-36.2c27.1,0,49.1,20.7,49.1,46.2
			c0,3.4-0.4,6.7-1.1,9.8C442.3,568.6,414.9,570.9,393.5,560.4z"/>
		<path d="M606.5,560.4c11.5-5.6,19.8-14.2,24.5-24.3c-4.8-20.7-24.5-36.2-48-36.2c-27.1,0-49.1,20.7-49.1,46.2
			c0,3.4,0.4,6.7,1.1,9.8C557.7,568.6,585.1,570.9,606.5,560.4z"/>
	</g>
</g>
<g id="r_x3C_Clip_Group_x3E_">
	<defs>
		<path id="rpath" d="M562.1,491.4c-25.6,9.9-38.8,34.1-34.5,59.8c23.8,16.8,55,20.9,78.9,9.3c22.6-11,32.6-33.5,28.4-56.2
			C614.8,488.1,586.3,482,562.1,491.4z"/>
	</defs>
	<clipPath id="rpath_1_">
		<use xlink:href="#rpath"  overflow="visible"/>
	</clipPath>
	<circle id="eyes-mask-r" clip-path="url(#rpath_1_)" fill="#5D5D5D" cx="995" cy="3" r="5"/>
</g>
<g id="l_x3C_Clip_Group_x3E_">
	<defs>
		<path id="lpath" d="M437.9,491.4c25.6,9.9,38.8,34.1,34.5,59.8
			c-23.8,16.8-55,20.9-78.9,9.3c-22.6-11-32.6-33.5-28.4-56.2C385.2,488.1,413.7,482,437.9,491.4z"/>
	</defs>
	<clipPath id="lpath_1_">
		<use xlink:href="#lpath"  overflow="visible"/>
	</clipPath>
	<circle id="eyes-mask-l" clip-path="url(#lpath_1_)" fill="#5D5D5D" cx="5" cy="3" r="5"/>
</g>
</svg>
