<?xml version="1.0" encoding="utf-8"?>
<!-- Generator: Adobe Illustrator 26.0.1, SVG Export Plug-In . SVG Version: 6.00 Build 0)  -->
<svg version="1.1" id="eyes_00000105413247919068805260000011157158589810801299_"
	 xmlns="http://www.w3.org/2000/svg" xmlns:xlink="http://www.w3.org/1999/xlink" x="0px" y="0px" viewBox="0 0 1000 1000"
	 style="enable-background:new 0 0 1000 1000;" xml:space="preserve">

<g id="skin">
	<path d="M612.3,501.9c-0.5-0.1-1.5-0.4-2.9-0.8c-0.5-0.1-1-0.4-1.6-0.6c-0.6-0.2-1.2-0.4-1.9-0.6
		c-0.7-0.2-1.4-0.5-2.1-0.8c-0.8-0.3-1.5-0.5-2.3-0.8c-1.6-0.6-3.3-1.2-5.2-1.9c-0.9-0.3-1.9-0.6-2.8-0.9c-0.5-0.2-1-0.3-1.5-0.4
		c-0.5-0.1-1-0.3-1.5-0.4c-2-0.5-4.1-0.9-6.2-1.3c-2.1-0.4-4.3-0.5-6.5-0.6c-2.2,0-4.3,0.1-6.4,0.4c-2.1,0.3-4.1,0.8-6.1,1.4
		c-1.9,0.6-3.8,1.3-5.5,2c-1.7,0.7-3.4,1.4-4.9,2.2c-3,1.5-5.5,2.9-7.3,3.9c-1.4,0.8-2.4,1.3-2.8,1.5c-0.1,0.1-0.1,0.1-0.1,0.1
		s-10.2,7.3-13.2,15.6c1.4-0.8,3.2-1.7,5.3-2.5c2.1-0.9,4.5-1.6,7.2-2.4c2.7-0.6,5.6-1.4,8.7-1.9c1.6-0.3,3.2-0.5,4.8-0.7
		c1.6-0.2,3.3-0.3,5-0.5c3.4-0.3,7-0.3,10.6-0.5c3.6-0.1,7.3-0.1,10.9-0.1c3.7,0.1,7.3,0.2,10.9,0.4c1.8,0.1,3.6,0.3,5.3,0.4
		c1.8,0.1,3.5,0.3,5.2,0.5c1.7,0.2,3.4,0.5,5,0.8c1.6,0.3,3.2,0.5,4.8,0.8c3.1,0.6,6,1.3,8.6,2c2.7,0.7,5.1,1.5,7.2,2.3c0,0,0,0,0,0
		l0.1,0C631.2,518.6,622.7,510.1,612.3,501.9z"/>
	<path d="M387.7,501.9c0.5-0.1,1.5-0.4,2.9-0.8c0.5-0.1,1-0.4,1.6-0.6c0.6-0.2,1.2-0.4,1.9-0.6c0.7-0.2,1.4-0.5,2.1-0.8
		c0.8-0.3,1.5-0.5,2.3-0.8c1.6-0.6,3.3-1.2,5.2-1.9c0.9-0.3,1.9-0.6,2.8-0.9c0.5-0.2,1-0.3,1.5-0.4c0.5-0.1,1-0.3,1.5-0.4
		c2-0.5,4.1-0.9,6.2-1.3c2.1-0.4,4.3-0.5,6.5-0.6c2.2,0,4.3,0.1,6.4,0.4c2.1,0.3,4.1,0.8,6.1,1.4c1.9,0.6,3.8,1.3,5.5,2
		c1.7,0.7,3.4,1.4,4.9,2.2c3,1.5,5.5,2.9,7.3,3.9c1.4,0.8,2.4,1.3,2.8,1.5c0.1,0.1,0.1,0.1,0.1,0.1s10.2,7.3,13.2,15.6
		c-1.4-0.8-3.2-1.7-5.3-2.5c-2.1-0.9-4.5-1.6-7.2-2.4c-2.7-0.6-5.6-1.4-8.7-1.9c-1.6-0.3-3.2-0.5-4.8-0.7c-1.6-0.2-3.3-0.3-5-0.5
		c-3.4-0.3-7-0.3-10.6-0.5c-3.6-0.1-7.3-0.1-10.9-0.1c-3.7,0.1-7.3,0.2-10.9,0.4c-1.8,0.1-3.6,0.3-5.3,0.4c-1.8,0.1-3.5,0.3-5.2,0.5
		c-1.7,0.2-3.4,0.5-5,0.8c-1.6,0.3-3.2,0.5-4.8,0.8c-3.1,0.6-6,1.3-8.6,2c-2.7,0.7-5.1,1.5-7.2,2.3c0,0,0,0,0,0l-0.1,0
		C368.8,518.6,377.3,510.1,387.7,501.9z"/>
</g>
<g id="eye-D">
	<path d="M622.7,524.9c-1.3,0-2.7,0-4.2-0.1c-1.4-0.1-2.9-0.2-4.4-0.2c-1.5,0-3.1-0.1-4.7-0.1c-1.6-0.1-3.2-0.1-4.9-0.2
		c-3.3-0.1-6.7-0.2-10.2-0.4c-3.5-0.1-7-0.3-10.5-0.4c-3.5,0-7-0.1-10.5,0c-3.5,0.1-6.9,0.1-10.1,0.4c-1.6,0.1-3.3,0.1-4.8,0.2
		c-1.6,0.1-3.1,0.1-4.6,0.2c-0.8,0-1.5,0-2.2,0c-0.7,0-1.5,0-2.2,0.1c-1.4,0-2.8,0-4.1,0c-2.6,0.1-5.1,0-7.3-0.1
		c-1.5-0.1-2.9-0.2-4.1-0.3c-2.6,6.2-4.3,13-4.9,20.2c16.4,21.4,41.8,32.1,64.5,25.8c20.3-5.6,33.4-23.6,35.9-45.1
		C627.3,524.9,625.1,525,622.7,524.9z"/>
	<path d="M377.3,524.9c1.3,0,2.7,0,4.2-0.1c1.4-0.1,2.9-0.2,4.4-0.2c1.5,0,3.1-0.1,4.7-0.1c1.6-0.1,3.2-0.1,4.9-0.2
		c3.3-0.1,6.7-0.2,10.2-0.4c3.5-0.1,7-0.3,10.5-0.4c3.5,0,7-0.1,10.5,0c3.5,0.1,6.9,0.1,10.1,0.4c1.6,0.1,3.3,0.1,4.8,0.2
		c1.6,0.1,3.1,0.1,4.6,0.2c0.8,0,1.5,0,2.2,0c0.7,0,1.5,0,2.2,0.1c1.4,0,2.8,0,4.1,0c2.6,0.1,5.1,0,7.3-0.1c1.5-0.1,2.9-0.2,4.1-0.3
		c2.6,6.2,4.3,13,4.9,20.2c-16.4,21.4-41.8,32.1-64.5,25.8c-20.3-5.6-33.4-23.6-35.9-45.1C372.7,524.9,374.9,525,377.3,524.9z"/>
</g>
<g id="eye">
	<path d="M618.5,524.8c-1.4-0.1-2.9-0.2-4.4-0.2c-1.5,0-3.1-0.1-4.7-0.1c-1.6-0.1-3.2-0.1-4.9-0.2
		c-3.3-0.1-6.7-0.2-10.2-0.4c-3.5-0.1-7-0.3-10.5-0.4c-3.5,0-7-0.1-10.5,0c-3.5,0.1-6.9,0.1-10.1,0.4c-1.6,0.1-3.3,0.1-4.8,0.2
		c-1.6,0.1-3.1,0.1-4.6,0.2c-0.8,0-1.5,0-2.2,0c-0.7,0-1.5,0-2.2,0.1c-1.4,0-2.8,0-4.1,0c-2.6,0.1-5.1,0-7.3-0.1
		c-1.5-0.1-2.9-0.2-4.1-0.3c-2.6,6.2-4.3,13-4.9,20.2c16.4,21.4,41.8,32.1,64.5,25.8c15.9-4.4,27.4-16.4,32.8-31.8
		c-1.3-4.6-3.2-9.1-5.8-13.2C619.8,524.9,619.2,524.9,618.5,524.8z"/>
	<path d="M381.5,524.8c1.4-0.1,2.9-0.2,4.4-0.2c1.5,0,3.1-0.1,4.7-0.1c1.6-0.1,3.2-0.1,4.9-0.2
		c3.3-0.1,6.7-0.2,10.2-0.4c3.5-0.1,7-0.3,10.5-0.4c3.5,0,7-0.1,10.5,0c3.5,0.1,6.9,0.1,10.1,0.4c1.6,0.1,3.3,0.1,4.8,0.2
		c1.6,0.1,3.1,0.1,4.6,0.2c0.8,0,1.5,0,2.2,0c0.7,0,1.5,0,2.2,0.1c1.4,0,2.8,0,4.1,0c2.6,0.1,5.1,0,7.3-0.1c1.5-0.1,2.9-0.2,4.1-0.3
		c2.6,6.2,4.3,13,4.9,20.2c-16.4,21.4-41.8,32.1-64.5,25.8c-15.9-4.4-27.4-16.4-32.8-31.8c1.3-4.6,3.2-9.1,5.8-13.2
		C380.2,524.9,380.8,524.9,381.5,524.8z"/>
</g>
<g id="eye-L">
	<path d="M390.6,524.5c1.6-0.1,3.2-0.1,4.9-0.2c3.3-0.1,6.7-0.2,10.2-0.4c3.5-0.1,7-0.3,10.5-0.4c3.5,0,7-0.1,10.5,0
		c3.5,0.1,6.9,0.1,10.1,0.4c1.6,0.1,3.3,0.1,4.8,0.2c1.6,0.1,3.1,0.1,4.6,0.2c0.8,0,1.5,0,2.2,0c0.7,0,1.5,0,2.2,0.1
		c1.4,0,2.8,0,4.1,0c1,0,2,0,3,0c3.1,4.7,5.5,10.2,6.9,16.2c0.7,3.3,1.1,6.6,1.2,9.8c-16.3,17.2-38.9,25.3-59.2,19.6
		c-10.9-3-19.8-9.7-26-18.5c-0.2-9.7,2.5-19.1,7.3-26.8C388.8,524.6,389.7,524.6,390.6,524.5z"/>
	<path d="M609.4,524.5c-1.6-0.1-3.2-0.1-4.9-0.2c-3.3-0.1-6.7-0.2-10.2-0.4c-3.5-0.1-7-0.3-10.5-0.4
		c-3.5,0-7-0.1-10.5,0c-3.5,0.1-6.9,0.1-10.1,0.4c-1.6,0.1-3.3,0.1-4.8,0.2c-1.6,0.1-3.1,0.1-4.6,0.2c-0.8,0-1.5,0-2.2,0
		c-0.7,0-1.5,0-2.2,0.1c-1.4,0-2.8,0-4.1,0c-1,0-2,0-3,0c-3.1,4.7-5.5,10.2-6.9,16.2c-0.7,3.3-1.1,6.6-1.2,9.8
		c16.3,17.2,38.9,25.3,59.2,19.6c10.9-3,19.8-9.7,26-18.5c0.2-9.7-2.5-19.1-7.3-26.8C611.2,524.6,610.3,524.6,609.4,524.5z"/>
</g>
<g id="skin-L">
	<path d="M573.2,511.4c3.6-0.1,7.3-0.1,10.9-0.1c3.7,0.1,7.3,0.2,10.9,0.4c1.8,0.1,3.6,0.3,5.3,0.4
		c1.8,0.1,3.5,0.3,5.2,0.5c1.5,0.2,2.9,0.4,4.3,0.7c-5.3-7.3-14.4-12.5-22.9-12.5c-7.8,0-13,4.4-14.1,10.7
		C572.9,511.5,573,511.5,573.2,511.4z"/>
	<path d="M426.8,511.4c-3.6-0.1-7.3-0.1-10.9-0.1c-3.7,0.1-7.3,0.2-10.9,0.4c-1.8,0.1-3.6,0.3-5.3,0.4
		c-1.8,0.1-3.5,0.3-5.2,0.5c-1.5,0.2-2.9,0.4-4.3,0.7c5.3-7.3,14.4-12.5,22.9-12.5c7.8,0,13,4.4,14.1,10.7
		C427.1,511.5,427,511.5,426.8,511.4z"/>
</g>
<g id="blacks">
	<path d="M473,523c0,0-0.4-0.3-1.1-0.9c-0.7-0.6-1.8-1.3-3.3-2.1c-1.5-0.8-3.3-1.7-5.4-2.6c-2.1-0.9-4.5-1.6-7.2-2.4
		c-2.7-0.6-5.6-1.4-8.7-1.9c-1.6-0.3-3.2-0.5-4.8-0.7c-1.6-0.2-3.3-0.3-5-0.5c-3.4-0.3-7-0.3-10.6-0.5c-3.6-0.1-7.3-0.1-10.9-0.1
		c-3.7,0.1-7.3,0.2-10.9,0.4c-1.8,0.1-3.6,0.3-5.3,0.4c-1.8,0.1-3.5,0.3-5.2,0.5c-1.7,0.2-3.4,0.5-5,0.8c-1.6,0.3-3.2,0.5-4.8,0.8
		c-3.1,0.6-6,1.3-8.6,2c-2.7,0.7-5.1,1.5-7.2,2.3c-2.1,0.8-3.9,1.7-5.4,2.4c-2.9,1.5-4.6,2.6-4.6,2.6s1.9,0.5,5.2,0.9
		c1.6,0.2,3.6,0.3,5.8,0.4c2.2,0,4.7,0.2,7.4,0.2c1.3,0,2.7,0,4.2-0.1c1.4-0.1,2.9-0.2,4.4-0.2c1.5,0,3.1-0.1,4.7-0.1
		c1.6-0.1,3.2-0.1,4.9-0.2c3.3-0.1,6.7-0.2,10.2-0.4c3.5-0.1,7-0.3,10.5-0.4c3.5,0,7-0.1,10.5,0c3.5,0.1,6.9,0.1,10.1,0.4
		c1.6,0.1,3.3,0.1,4.8,0.2c1.6,0.1,3.1,0.1,4.6,0.2c0.8,0,1.5,0,2.2,0c0.7,0,1.5,0,2.2,0.1c1.4,0,2.8,0,4.1,0c2.6,0.1,5.1,0,7.3-0.1
		c2.2-0.1,4.1-0.2,5.8-0.4c1.6-0.2,2.9-0.3,3.8-0.5C472.5,523.1,473,523,473,523z"/>
	<path d="M406.6,569.9c16.5,4.6,34.5,0.2,49.4-10.9c-6,13.7-24,21.9-43.4,18.9c-19.6-3-34.1-16.5-35.1-31.5
		C383.7,557.8,393.7,566.3,406.6,569.9z"/>
	<path d="M527,523c0,0,0.4-0.3,1.1-0.9c0.7-0.6,1.8-1.3,3.3-2.1c1.5-0.8,3.3-1.7,5.4-2.6c2.1-0.9,4.5-1.6,7.2-2.4
		c2.7-0.6,5.6-1.4,8.7-1.9c1.6-0.3,3.2-0.5,4.8-0.7c1.6-0.2,3.3-0.3,5-0.5c3.4-0.3,7-0.3,10.6-0.5c3.6-0.1,7.3-0.1,10.9-0.1
		c3.7,0.1,7.3,0.2,10.9,0.4c1.8,0.1,3.6,0.3,5.3,0.4c1.8,0.1,3.5,0.3,5.2,0.5c1.7,0.2,3.4,0.5,5,0.8c1.6,0.3,3.2,0.5,4.8,0.8
		c3.1,0.6,6,1.3,8.6,2c2.7,0.7,5.1,1.5,7.2,2.3c2.1,0.8,3.9,1.7,5.4,2.4c2.9,1.5,4.6,2.6,4.6,2.6s-1.9,0.5-5.2,0.9
		c-1.6,0.2-3.6,0.3-5.8,0.4c-2.2,0-4.7,0.2-7.4,0.2c-1.3,0-2.7,0-4.2-0.1c-1.4-0.1-2.9-0.2-4.4-0.2c-1.5,0-3.1-0.1-4.7-0.1
		c-1.6-0.1-3.2-0.1-4.9-0.2c-3.3-0.1-6.7-0.2-10.2-0.4c-3.5-0.1-7-0.3-10.5-0.4c-3.5,0-7-0.1-10.5,0c-3.5,0.1-6.9,0.1-10.1,0.4
		c-1.6,0.1-3.3,0.1-4.8,0.2c-1.6,0.1-3.1,0.1-4.6,0.2c-0.8,0-1.5,0-2.2,0c-0.7,0-1.5,0-2.2,0.1c-1.4,0-2.8,0-4.1,0
		c-2.6,0.1-5.1,0-7.3-0.1c-2.2-0.1-4.1-0.2-5.8-0.4c-1.6-0.2-2.9-0.3-3.8-0.5C527.5,523.1,527,523,527,523z"/>
	<path d="M544.6,504.3c0,0,0.3-1.3,1.4-3.2c0.5-1,1.3-2.1,2.3-3.2c1-1.2,2.2-2.4,3.6-3.6c1.4-1.2,3.1-2.4,5-3.5
		c1.9-1.1,4-2,6.3-2.8c2.3-0.8,4.7-1.4,7.1-1.7c2.5-0.4,5-0.5,7.5-0.6c2.5,0,5.1,0.3,7.5,0.7c1.2,0.2,2.4,0.4,3.6,0.7
		c1.2,0.3,2.3,0.6,3.4,1c2.2,0.7,4.3,1.6,6.2,2.5c1.9,1,3.7,1.9,5.2,2.9c0.8,0.5,1.5,1,2.2,1.5c0.7,0.5,1.3,1,1.8,1.5
		c1.1,1,2.1,1.9,2.8,2.7c1.5,1.6,2.2,2.6,2.2,2.6s-1.3-0.3-3.2-0.9c-0.5-0.1-1-0.4-1.6-0.6c-0.6-0.2-1.2-0.4-1.9-0.6
		c-0.7-0.2-1.4-0.5-2.1-0.8c-0.8-0.3-1.5-0.5-2.3-0.8c-1.6-0.6-3.3-1.2-5.2-1.9c-0.9-0.3-1.9-0.6-2.8-0.9c-0.5-0.2-1-0.3-1.5-0.4
		c-0.5-0.1-1-0.3-1.5-0.4c-2-0.5-4.1-0.9-6.2-1.3c-2.1-0.4-4.3-0.5-6.5-0.6c-2.2,0-4.3,0.1-6.4,0.4c-2.1,0.3-4.1,0.8-6.1,1.4
		c-1.9,0.6-3.8,1.3-5.5,2c-1.7,0.7-3.4,1.4-4.9,2.2c-3,1.5-5.5,2.9-7.3,3.9C545.7,503.7,544.6,504.3,544.6,504.3z"/>
	<path d="M593.4,569.9c-16.5,4.6-34.5,0.2-49.4-10.9c6,13.7,24,21.9,43.4,18.9c19.6-3,34.1-16.5,35.1-31.5
		C616.3,557.8,606.3,566.3,593.4,569.9z"/>
	<path d="M455.4,504.3c0,0-0.3-1.3-1.4-3.2c-0.5-1-1.3-2.1-2.3-3.2c-1-1.2-2.2-2.4-3.6-3.6c-1.4-1.2-3.1-2.4-5-3.5
		c-1.9-1.1-4-2-6.3-2.8c-2.3-0.8-4.7-1.4-7.1-1.7c-2.5-0.4-5-0.5-7.5-0.6c-2.5,0-5.1,0.3-7.5,0.7c-1.2,0.2-2.4,0.4-3.6,0.7
		c-1.2,0.3-2.3,0.6-3.4,1c-2.2,0.7-4.3,1.6-6.2,2.5c-1.9,1-3.7,1.9-5.2,2.9c-0.8,0.5-1.5,1-2.2,1.5c-0.7,0.5-1.3,1-1.8,1.5
		c-1.1,1-2.1,1.9-2.8,2.7c-1.5,1.6-2.2,2.6-2.2,2.6s1.3-0.3,3.2-0.9c0.5-0.1,1-0.4,1.6-0.6c0.6-0.2,1.2-0.4,1.9-0.6
		c0.7-0.2,1.4-0.5,2.1-0.8c0.8-0.3,1.5-0.5,2.3-0.8c1.6-0.6,3.3-1.2,5.2-1.9c0.9-0.3,1.9-0.6,2.8-0.9c0.5-0.2,1-0.3,1.5-0.4
		c0.5-0.1,1-0.3,1.5-0.4c2-0.5,4.1-0.9,6.2-1.3c2.1-0.4,4.3-0.5,6.5-0.6c2.2,0,4.3,0.1,6.4,0.4c2.1,0.3,4.1,0.8,6.1,1.4
		c1.9,0.6,3.8,1.3,5.5,2c1.7,0.7,3.4,1.4,4.9,2.2c3,1.5,5.5,2.9,7.3,3.9C454.3,503.7,455.4,504.3,455.4,504.3z"/>
</g>
<g id="l_x3C_Clip_Group_x3E_">
	<defs>
		<path id="lpath" d="M377.3,524.9c1.3,0,2.7,0,4.2-0.1c1.4-0.1,2.9-0.2,4.4-0.2c1.5,0,3.1-0.1,4.7-0.1c1.6-0.1,3.2-0.1,4.9-0.2
			c3.3-0.1,6.7-0.2,10.2-0.4c3.5-0.1,7-0.3,10.5-0.4c3.5,0,7-0.1,10.5,0c3.5,0.1,6.9,0.1,10.1,0.4c1.6,0.1,3.3,0.1,4.8,0.2
			c1.6,0.1,3.1,0.1,4.6,0.2c0.8,0,1.5,0,2.2,0c0.7,0,1.5,0,2.2,0.1c1.4,0,2.8,0,4.1,0c2.6,0.1,5.1,0,7.3-0.1
			c1.5-0.1,2.9-0.2,4.1-0.3c2.6,6.2,4.3,13,4.9,20.2c-16.4,21.4-41.8,32.1-64.5,25.8c-20.3-5.6-33.4-23.6-35.9-45.1
			C372.7,524.9,374.9,525,377.3,524.9z"/>
	</defs>
	<clipPath id="lpath_1_">
		<use xlink:href="#lpath"  overflow="visible"/>
	</clipPath>
	<circle id="eyes-mask-l" clip-path="url(#lpath_1_)" fill="#5D5D5D" cx="5" cy="3" r="5"/>
</g>
<g id="r_x3C_Clip_Group_x3E_">
	<defs>
		<path id="rpath" d="M622.7,524.9c-1.3,0-2.7,0-4.2-0.1
			c-1.4-0.1-2.9-0.2-4.4-0.2c-1.5,0-3.1-0.1-4.7-0.1c-1.6-0.1-3.2-0.1-4.9-0.2c-3.3-0.1-6.7-0.2-10.2-0.4c-3.5-0.1-7-0.3-10.5-0.4
			c-3.5,0-7-0.1-10.5,0c-3.5,0.1-6.9,0.1-10.1,0.4c-1.6,0.1-3.3,0.1-4.8,0.2c-1.6,0.1-3.1,0.1-4.6,0.2c-0.8,0-1.5,0-2.2,0
			c-0.7,0-1.5,0-2.2,0.1c-1.4,0-2.8,0-4.1,0c-2.6,0.1-5.1,0-7.3-0.1c-1.5-0.1-2.9-0.2-4.1-0.3c-2.6,6.2-4.3,13-4.9,20.2
			c16.4,21.4,41.8,32.1,64.5,25.8c20.3-5.6,33.4-23.6,35.9-45.1C627.3,524.9,625.1,525,622.7,524.9z"/>
	</defs>
	<clipPath id="rpath_1_">
		<use xlink:href="#rpath"  overflow="visible"/>
	</clipPath>
	<circle id="eyes-mask-r" clip-path="url(#rpath_1_)" fill="#5D5D5D" cx="995" cy="3" r="5"/>
</g>
</svg>
