<?xml version="1.0" encoding="utf-8"?>
<!-- Generator: Adobe Illustrator 26.0.1, SVG Export Plug-In . SVG Version: 6.00 Build 0)  -->
<svg version="1.1" id="Слой_2" xmlns="http://www.w3.org/2000/svg" xmlns:xlink="http://www.w3.org/1999/xlink" x="0px" y="0px"
	 viewBox="0 0 1000 1000" style="enable-background:new 0 0 1000 1000;" xml:space="preserve">

<g id="eyes">
	<g id="skin-L">
		<path d="M422.8,516.8c0,0,37.6,42,43.4,32.8c5.9-9.2,5.1-45.2-21.4-62.3c-37.9-24.6-80.3,9-72.5,19.2
			c8.9,11.7-11.5,10.5,15.3,12.3C414.5,520.6,422.8,516.8,422.8,516.8z"/>
		<path d="M577.2,516.8c0,0-37.6,42-43.4,32.8c-5.9-9.2-5.1-45.2,21.4-62.3c37.9-24.6,80.3,9,72.5,19.2
			c-8.9,11.7,11.5,10.5-15.3,12.3C585.5,520.6,577.2,516.8,577.2,516.8z"/>
	</g>
	<g id="blacks">
		<path d="M392.3,571.4c-26.1-13.2-32.2-39.7-26.9-59.2c-2.5-1.9-3.6-4.6-2.7-7.2v0c1.1-3.5,5.5-5.7,10.1-5
			c23.6-14.5,47-16.1,65.9-4.5c18,11,29.7,32.7,29.9,55.3c2.2,2.4,2.8,5.5,1.5,7.9c-1,1.9-2.9,3.1-5.3,3.5
			c-6.1,6.9-18.1,12.2-32.2,14.3c-6.6,1-13.2,1.1-19.4,0.6C405.4,576.3,398.2,574.4,392.3,571.4z"/>
		<path d="M586.7,577c-6.2,0.6-12.8,0.4-19.4-0.6c-14.1-2.1-26-7.4-32.2-14.3c-2.4-0.4-4.3-1.7-5.3-3.5
			c-1.3-2.5-0.7-5.6,1.5-7.9c0.2-22.6,11.9-44.3,29.9-55.3c19-11.6,42.4-10,65.9,4.5c4.6-0.7,9,1.4,10.1,5v0
			c0.8,2.6-0.3,5.4-2.7,7.2c5.3,19.5-0.8,46-26.9,59.2C601.8,574.4,594.6,576.3,586.7,577z"/>
	</g>
	<g id="eye-D">
		<path d="M461.9,554.8c7.2-15.1-24-87.4-87.9-45.2c-3.9,18.7,0.4,35.7,13.1,48.1C402.9,573.3,445.2,572,461.9,554.8z"
			/>
		<path d="M538.1,554.8c-7.2-15.1,24-87.4,87.9-45.2c3.9,18.7-0.4,35.7-13.1,48.1C597.1,573.3,554.8,572,538.1,554.8z"
			/>
	</g>
	<g id="eye">
		<path d="M418.6,503.7c22.2,2,40.2,19.1,40.2,38.2c0,8.3-3.4,15.7-9.2,21.1c-17.7,7.9-43.4,7.5-57.9-1.5
			c-8.2-7.1-13.4-16.7-13.4-26.9C378.4,515.5,396.4,501.7,418.6,503.7z"/>
		<path d="M581.4,503.7c-22.2,2-40.2,19.1-40.2,38.2c0,8.3,3.4,15.7,9.2,21.1c17.7,7.9,43.4,7.5,57.9-1.5
			c8.2-7.1,13.4-16.7,13.4-26.9C621.6,515.5,603.6,501.7,581.4,503.7z"/>
	</g>
	<g id="eye-L">
		
			<ellipse transform="matrix(0.9662 -0.2576 0.2576 0.9662 -119.6049 167.7553)" class="st4" cx="580.4" cy="540.3" rx="34.7" ry="27.8"/>
		
			<ellipse transform="matrix(0.2576 -0.9662 0.9662 0.2576 -210.5397 806.5736)" class="st4" cx="419.6" cy="540.3" rx="27.8" ry="34.7"/>
	</g>
</g>
<g id="r_x3C_Clip_Group_x3E_">
	<defs>
		<path id="rpath" d="M538.1,554.8c-7.2-15.1,24-87.4,87.9-45.2c3.9,18.7-0.4,35.7-13.1,48.1C597.1,573.3,554.8,572,538.1,554.8z
			"/>
	</defs>
	<clipPath id="rpath_1_">
		<use xlink:href="#rpath"  overflow="visible"/>
	</clipPath>
	<circle id="eyes-mask-r" clip-path="url(#rpath_1_)" fill="#5D5D5D" cx="995" cy="3" r="5"/>
</g>
<g id="l_x3C_Clip_Group_x3E_">
	<defs>
		<path id="lpath" d="M461.9,554.8c7.2-15.1-24-87.4-87.9-45.2
			c-3.9,18.7,0.4,35.7,13.1,48.1C402.9,573.3,445.2,572,461.9,554.8z"/>
	</defs>
	<clipPath id="lpath_1_">
		<use xlink:href="#lpath"  overflow="visible"/>
	</clipPath>
	<circle id="eyes-mask-l" clip-path="url(#lpath_1_)" fill="#5D5D5D" cx="5" cy="3" r="5"/>
</g>
</svg>
