<?xml version="1.0" encoding="utf-8"?>
<!-- Generator: Adobe Illustrator 26.0.1, SVG Export Plug-In . SVG Version: 6.00 Build 0)  -->
<svg version="1.1" id="Слой_2" xmlns="http://www.w3.org/2000/svg" xmlns:xlink="http://www.w3.org/1999/xlink" x="0px" y="0px"
	 viewBox="0 0 1000 1000" style="enable-background:new 0 0 1000 1000;" xml:space="preserve">

<g id="eyes">
	<g id="blacks">
		<path d="M353.3,498.2c-2.4-0.4-5.9-0.6-9.1,0c-5.6,1.1-8.3,4-8.1,5.1c0.2,1.1,3.3,0,8.9-1c1.9-0.4,3.9-0.7,5.6-1
			c-8.2,39.8,43.5,94.3,115.1,65.9c0.4-35.6-7.3-57.7-12.5-63.3C448.1,498.3,411.9,485.1,353.3,498.2z"/>
		<path d="M655.8,498.3c-3.2-0.6-6.7-0.5-9.1,0c-58.6-13.1-94.8,0.1-99.9,5.7c-5.2,5.6-12.9,27.8-12.5,63.3
			c71.5,28.4,123.3-26.1,115.1-65.9c1.7,0.3,3.7,0.6,5.6,1c5.6,1.1,8.7,2.2,8.9,1C664.1,502.2,661.4,499.3,655.8,498.3z"/>
	</g>
	<g id="eye-D">
		<path d="M359.9,502.6c0,0.9-0.1,1.8-0.1,2.7c0,34,27.4,61.6,61.1,61.6c14,0,26.9-4.7,37.2-12.7
			c-2-23.8-7.7-38.7-11.8-43.2C441.6,505.7,410.5,494.1,359.9,502.6z"/>
		<path d="M640.1,502.6c-50.6-8.4-81.7,3.2-86.4,8.3c-4.1,4.5-9.8,19.4-11.8,43.2c10.3,8,23.2,12.7,37.2,12.7
			c33.7,0,61.1-27.6,61.1-61.6C640.2,504.3,640.1,503.4,640.1,502.6z"/>
	</g>
	<g id="eye">
		<path d="M428.8,507c-21.4-8.1-49.4-2.5-65.9,8.7c6.6,16,15.1,32.3,36.5,40.4c21.4,8.1,49.3,5.6,56-5.3
			C454.4,534.4,450.2,515.2,428.8,507z"/>
		<path d="M571.2,507c-21.4,8.1-25.6,27.3-26.6,43.8c6.6,11,34.6,13.4,56,5.3c21.4-8.1,29.9-24.4,36.5-40.4
			C620.6,504.5,592.6,498.9,571.2,507z"/>
	</g>
	<g id="eye-L">
		
			<ellipse transform="matrix(0.2641 -0.9645 0.9645 0.2641 -209.6009 785.7607)" class="st3" cx="410.1" cy="530.2" rx="27.5" ry="34.6"/>
		
			<ellipse transform="matrix(0.9645 -0.2641 0.2641 0.9645 -119.1013 174.6278)" class="st3" cx="589.9" cy="530.2" rx="34.6" ry="27.5"/>
	</g>
</g>
<g id="r_x3C_Clip_Group_x3E_">
	<defs>
		<path id="rpath" d="M640.1,502.6c-50.6-8.4-81.7,3.2-86.4,8.3c-4.1,4.5-9.8,19.4-11.8,43.2c10.3,8,23.2,12.7,37.2,12.7
			c33.7,0,61.1-27.6,61.1-61.6C640.2,504.3,640.1,503.4,640.1,502.6z"/>
	</defs>
	<clipPath id="rpath_1_">
		<use xlink:href="#rpath"  overflow="visible"/>
	</clipPath>
	<circle id="eyes-mask-r" clip-path="url(#rpath_1_)" fill="#5D5D5D" cx="995" cy="3" r="5"/>
</g>
<g id="l_x3C_Clip_Group_x3E_">
	<defs>
		<path id="lpath" d="M359.9,502.6c0,0.9-0.1,1.8-0.1,2.7
			c0,34,27.4,61.6,61.1,61.6c14,0,26.9-4.7,37.2-12.7c-2-23.8-7.7-38.7-11.8-43.2C441.6,505.7,410.5,494.1,359.9,502.6z"/>
	</defs>
	<clipPath id="lpath_1_">
		<use xlink:href="#lpath"  overflow="visible"/>
	</clipPath>
	<circle id="eyes-mask-l" clip-path="url(#lpath_1_)" fill="#5D5D5D" cx="5" cy="3" r="5"/>
</g>
</svg>
