<?xml version="1.0" encoding="utf-8"?>
<!-- Generator: Adobe Illustrator 26.0.1, SVG Export Plug-In . SVG Version: 6.00 Build 0)  -->
<svg version="1.1" id="Слой_1" xmlns="http://www.w3.org/2000/svg" xmlns:xlink="http://www.w3.org/1999/xlink" x="0px" y="0px"
	 viewBox="0 0 1000 1000" style="enable-background:new 0 0 1000 1000;" xml:space="preserve">
<g id="eyes">
	<g id="blacks">
		<path d="M376,547.6c13.8,24.1,46.7,32.9,76.6,15.8c5.6-3.2,10.6-7,15.1-11.3c-0.2-1.2-0.3-2.3-0.6-3.5
			c0.5-1.3,0.9-2.4,0.9-2.4s0.2-0.5,0.6-1.4s1-2.2,1.5-4.1c0.3-0.9,0.6-1.9,0.9-3c0.2-1.1,0.5-2.3,0.7-3.7c0.1-1.3,0.3-2.7,0.4-4.2
			c0-0.8,0-1.5,0-2.3c0-0.4,0-0.8,0-1.2s-0.1-0.8-0.1-1.2c-0.1-0.8-0.2-1.7-0.2-2.5c-0.1-0.9-0.3-1.7-0.5-2.6
			c-0.1-0.4-0.2-0.9-0.3-1.3c-0.1-0.4-0.2-0.9-0.4-1.3c-0.3-0.9-0.5-1.8-0.8-2.7c-1.3-3.6-3.1-7.3-5.5-10.8
			c-0.6-0.8-1.2-1.7-1.9-2.6c-0.7-0.8-1.4-1.6-2.1-2.4s-1.5-1.6-2.3-2.3l-1.2-1.1l-1.3-1.1c-0.9-0.7-1.7-1.5-2.6-2.1
			s-1.8-1.3-2.7-1.9c-1.9-1.2-3.8-2.4-5.8-3.3c-4-2-8.1-3.6-12.4-4.7l-1.6-0.4c-0.5-0.1-1.1-0.2-1.6-0.3c-1.1-0.2-2.1-0.4-3.2-0.6
			c-2.1-0.3-4.2-0.6-6.3-0.7c-1-0.1-2.1-0.1-3.1-0.2c-1,0-2,0-3,0c-0.5,0-1,0-1.5,0s-1,0.1-1.5,0.1c-1,0.1-1.9,0.1-2.9,0.2
			c-1.9,0.2-3.7,0.5-5.4,0.7c-1.7,0.4-3.4,0.7-5,1.1s-3.1,0.8-4.5,1.3c-1.4,0.4-2.7,1-4,1.4c-0.6,0.2-1.2,0.4-1.8,0.7
			c-0.6,0.2-1.1,0.5-1.6,0.7c-1,0.5-2,0.9-2.8,1.3c-1.7,0.8-3,1.6-3.9,2c-0.9,0.5-1.3,0.7-1.3,0.7s-0.2,0.2-0.4,0.4
			c-0.2,0-0.4,0.1-0.6,0.1C367.1,509.6,366.6,531.3,376,547.6z"/>
		<path d="M623.6,490.7c-0.2,0-0.4-0.1-0.6-0.1c-0.2-0.2-0.4-0.4-0.4-0.4s-0.5-0.3-1.3-0.7c-0.9-0.5-2.2-1.2-3.9-2
			c-0.9-0.4-1.8-0.8-2.8-1.3c-0.5-0.2-1.1-0.5-1.6-0.7c-0.6-0.2-1.2-0.4-1.8-0.7c-1.2-0.4-2.5-1-4-1.4c-1.4-0.4-2.9-0.8-4.5-1.3
			c-1.6-0.3-3.3-0.7-5-1.1c-1.7-0.3-3.5-0.5-5.4-0.7c-0.9-0.1-1.9-0.1-2.9-0.2c-0.5,0-1-0.1-1.5-0.1s-1,0-1.5,0c-1,0-2,0-3,0
			s-2,0.1-3.1,0.2c-2.1,0.1-4.1,0.4-6.3,0.7c-1.1,0.2-2.1,0.4-3.2,0.6c-0.5,0.1-1.1,0.2-1.6,0.3l-1.6,0.4c-4.2,1.1-8.4,2.7-12.4,4.7
			c-2,1-3.9,2.2-5.8,3.3c-0.9,0.6-1.8,1.3-2.7,1.9s-1.7,1.4-2.6,2.1l-1.3,1.1l-1.2,1.1c-0.8,0.8-1.6,1.5-2.3,2.3s-1.4,1.6-2.1,2.4
			c-0.6,0.9-1.3,1.7-1.9,2.6c-2.4,3.5-4.2,7.1-5.5,10.8c-0.3,0.9-0.5,1.8-0.8,2.7c-0.1,0.4-0.3,0.9-0.4,1.3
			c-0.1,0.5-0.2,0.9-0.3,1.3c-0.2,0.9-0.3,1.8-0.5,2.6c-0.1,0.9-0.2,1.7-0.2,2.5c0,0.4-0.1,0.8-0.1,1.2s0,0.8,0,1.2
			c0,0.8,0,1.6,0,2.3c0.1,1.5,0.3,2.9,0.4,4.2c0.2,1.3,0.5,2.5,0.7,3.7c0.2,1.1,0.6,2.1,0.9,3c0.5,1.8,1.2,3.1,1.5,4.1
			c0.4,0.9,0.6,1.4,0.6,1.4s0.4,1.2,0.9,2.4c-0.2,1.2-0.4,2.3-0.6,3.5c4.4,4.3,9.5,8.1,15.1,11.3c29.9,17.1,62.8,8.3,76.6-15.8
			C633.5,531.3,633,509.6,623.6,490.7z"/>
	</g>
	<g id="eye-D">
		<path d="M437.7,508.8c-17.1-14.4-38.5-12.8-55.2-10.1c-8,15.5-8.4,33.3-0.4,46.7c11.7,19.7,39.6,26.9,65,12.9
			c4.8-2.7,9-5.8,12.8-9.3C457.7,533.5,449.1,518.4,437.7,508.8z"/>
		<path d="M617.6,498.7c-16.7-2.7-38.1-4.3-55.2,10.1c-11.4,9.6-20,24.7-22.2,40.2c3.8,3.5,8,6.6,12.8,9.3
			c25.4,14,53.3,6.8,65-12.9C626,532,625.6,514.2,617.6,498.7z"/>
	</g>
	<g id="eye">
		<path d="M437.6,508.8c-12.4-10.4-27-12.5-40.4-11.8c-9.4,6.8-15.3,16.7-15.3,27.8c0,20.4,20.2,37,45,37
			c8.3,0,16.1-1.8,22.8-5.1c3.7-2.3,7.1-4.9,10.1-7.7C457.6,533.5,449,518.4,437.6,508.8z"/>
		<path d="M602.8,497c-13.4-0.7-28,1.4-40.4,11.8c-11.4,9.6-20,24.7-22.2,40.2c3,2.8,6.4,5.4,10.1,7.7
			c6.7,3.3,14.5,5.1,22.8,5.1c24.9,0,45-16.6,45-37C618.1,513.7,612.2,503.8,602.8,497z"/>
	</g>
	<g id="eye-L">
		<path d="M437.7,508.8c-7.1-6-14.9-9.2-22.8-10.7c-14.4,4.3-24.6,15.4-24.6,28.5c0,16.8,16.8,30.4,37.6,30.4
			c12.9,0,24.2-5.2,31-13.2C455.7,530.2,447.8,517.3,437.7,508.8z"/>
		<path d="M585.1,498.1c-7.9,1.5-15.7,4.7-22.8,10.7c-10.1,8.5-18,21.4-21.2,35c6.8,8,18.2,13.2,31,13.2
			c20.8,0,37.6-13.6,37.6-30.4C609.7,513.5,599.5,502.4,585.1,498.1z"/>
	</g>
	<g id="skin-L">
		<path d="M531.4,544.5c0.5,1.3,1,2.6,1.7,3.8c3.3-17.5,13-34.3,25.5-45.2c19-16.5,42.5-15.7,61.5-12.9
			c-0.5-0.4-1.1-0.9-1.7-1.3c-0.4-0.1-0.9-0.3-1.4-0.4c-0.9-0.2-1.9-0.5-3-0.8c-0.5-0.1-1.1-0.3-1.7-0.5c-0.6-0.1-1.2-0.3-1.8-0.4
			c-1.3-0.3-2.6-0.6-4-0.8c-1.4-0.2-2.9-0.5-4.5-0.7s-3.2-0.3-4.9-0.5c-1.7-0.1-3.4-0.2-5.2-0.3c-0.9,0-1.8,0-2.7,0
			c-0.5,0-0.9,0-1.4,0s-0.9,0.1-1.4,0.1c-0.9,0.1-1.9,0.1-2.8,0.2c-0.9,0.1-1.9,0.2-2.9,0.3c-1.9,0.2-3.8,0.6-5.8,0.9
			c-1,0.2-1.9,0.5-2.9,0.7l-1.5,0.3l-1.4,0.4c-3.9,1.1-7.7,2.6-11.3,4.4c-1.8,0.9-3.6,2-5.3,3c-1.6,1.2-3.3,2.3-4.9,3.6
			c-3.1,2.5-5.9,5.3-8.2,8.3s-4.2,6.2-5.6,9.4c-0.3,0.8-0.6,1.6-0.9,2.4c-0.1,0.4-0.3,0.8-0.4,1.2c-0.1,0.4-0.2,0.8-0.3,1.2
			c-0.2,0.8-0.5,1.6-0.7,2.3c-0.2,0.8-0.3,1.6-0.5,2.3c-0.1,0.4-0.1,0.8-0.2,1.1c0,0.4-0.1,0.7-0.1,1.1c-0.1,0.7-0.2,1.5-0.2,2.2
			c-0.1,1.4-0.1,2.8-0.2,4c0.1,1.3,0.1,2.5,0.2,3.6c0.1,1.1,0.3,2.1,0.4,3c0.2,1.8,0.6,3.3,0.8,4.3s0.3,1.5,0.3,1.5
			s-0.2-0.5-0.6-1.4C531.4,544.7,531.4,544.6,531.4,544.5z"/>
		<path d="M468.7,544.5c-0.5,1.3-1,2.6-1.7,3.8c-3.3-17.5-13-34.3-25.5-45.2c-19-16.5-42.5-15.7-61.5-12.9
			c0.5-0.4,1.1-0.9,1.7-1.3c0.4-0.1,0.9-0.3,1.4-0.4c0.9-0.2,1.9-0.5,3-0.8c0.5-0.1,1.1-0.3,1.7-0.5c0.6-0.1,1.2-0.3,1.8-0.4
			c1.3-0.3,2.6-0.6,4-0.8c1.4-0.2,2.9-0.5,4.5-0.7s3.2-0.3,4.9-0.5c1.7-0.1,3.4-0.2,5.2-0.3c0.9,0,1.8,0,2.7,0c0.5,0,0.9,0,1.4,0
			s0.9,0.1,1.4,0.1c0.9,0.1,1.9,0.1,2.8,0.2s1.9,0.2,2.9,0.3c1.9,0.2,3.8,0.6,5.8,0.9c1,0.2,1.9,0.5,2.9,0.7l1.5,0.3l1.4,0.4
			c3.9,1.1,7.7,2.6,11.3,4.4c1.8,0.9,3.6,2,5.3,3c1.6,1.2,3.3,2.3,4.9,3.6c3.1,2.5,5.9,5.3,8.2,8.3c2.3,3,4.2,6.2,5.6,9.4
			c0.3,0.8,0.6,1.6,0.9,2.4c0.1,0.4,0.3,0.8,0.4,1.2s0.2,0.8,0.3,1.2c0.2,0.8,0.5,1.6,0.7,2.3c0.2,0.8,0.3,1.6,0.5,2.3
			c0.1,0.4,0.1,0.8,0.2,1.1c0,0.4,0.1,0.7,0.1,1.1c0.1,0.7,0.2,1.5,0.2,2.2c0.1,1.4,0.1,2.8,0.2,4c-0.1,1.3-0.1,2.5-0.2,3.6
			s-0.3,2.1-0.4,3c-0.2,1.8-0.6,3.3-0.8,4.3c-0.2,1-0.3,1.5-0.3,1.5s0.2-0.5,0.6-1.4C468.6,544.7,468.7,544.6,468.7,544.5z"/>
	</g>
</g>
<g id="l_x3C_Clip_Group_x3E_">
	<defs>
		<path id="lpath" d="M437.7,508.8c-17.1-14.4-38.5-12.8-55.2-10.1c-8,15.5-8.4,33.3-0.4,46.7c11.7,19.7,39.6,26.9,65,12.9
			c4.8-2.7,9-5.8,12.8-9.3C457.7,533.5,449.1,518.4,437.7,508.8z"/>
	</defs>
	<clipPath id="lpath_1_">
		<use xlink:href="#lpath"  overflow="visible"/>
	</clipPath>
	<circle id="eyes-mask-l" clip-path="url(#lpath_1_)" fill="#5D5D5D" cx="5" cy="3" r="5"/>
</g>
<g id="r_x3C_Clip_Group_x3E_">
	<defs>
		<path id="rpath" d="M617.6,498.7c-16.7-2.7-38.1-4.3-55.2,10.1
			c-11.4,9.6-20,24.7-22.2,40.2c3.8,3.5,8,6.6,12.8,9.3c25.4,14,53.3,6.8,65-12.9C626,532,625.6,514.2,617.6,498.7z"/>
	</defs>
	<clipPath id="rpath_1_">
		<use xlink:href="#rpath"  overflow="visible"/>
	</clipPath>
	<circle id="eyes-mask-r" clip-path="url(#rpath_1_)" fill="#5D5D5D" cx="995" cy="3" r="5"/>
</g>
</svg>
