<?xml version="1.0" encoding="utf-8"?>
<!-- Generator: Adobe Illustrator 26.0.1, SVG Export Plug-In . SVG Version: 6.00 Build 0)  -->
<svg version="1.1" id="Слой_2" xmlns="http://www.w3.org/2000/svg" xmlns:xlink="http://www.w3.org/1999/xlink" x="0px" y="0px"
	 viewBox="0 0 1000 1000" style="enable-background:new 0 0 1000 1000;" xml:space="preserve">

<g id="eyes">
	<g id="blacks">
		<path d="M627.4,533.5c-1.6-18.8-34.6-46.3-62-43c-28.9,3.5-36.9,39-33.5,59.3c3.3,19.7,29.7,19.7,55.9,14.6
			C612.8,559.6,629,551.7,627.4,533.5z"/>
		<path d="M434.6,490.5c-27.5-3.3-60.4,24.1-62,43c-1.5,18.2,14.7,26.1,39.6,31c26.2,5.1,52.6,5,55.9-14.6
			C471.5,529.5,463.5,494,434.6,490.5z"/>
	</g>
	<g id="eye-D">
		<path d="M621.8,533.5c-1.4-14.9-30.5-36.7-54.8-34.1c-25.6,2.8-32.6,30.9-29.6,47c2.9,15.6,26.2,15.6,49.4,11.6
			C608.9,554.2,623.2,547.9,621.8,533.5z"/>
		<path d="M433,499.4c-24.3-2.6-53.4,19.1-54.8,34.1c-1.3,14.5,12.9,20.7,35,24.6c23.1,4,46.4,4,49.4-11.6
			C465.5,530.3,458.5,502.2,433,499.4z"/>
	</g>
	<g id="eye">
		<path d="M616.2,538c-1.2-15.1-26.5-37.2-47.5-34.5c-22.2,2.8-28.3,31.3-25.6,47.7c0.3,2,0.9,3.8,1.8,5.3
			c9.3,5.2,25.7,4.4,42,1.6c11.3-2,20.5-4.6,26.7-8.6C615.6,546.3,616.5,542.6,616.2,538z"/>
		<path d="M431.3,503.5c-21-2.7-46.3,19.4-47.5,34.5c-0.4,4.6,0.6,8.3,2.7,11.5c6.2,4,15.4,6.6,26.7,8.6
			c16.3,2.8,32.7,3.7,42-1.6c0.9-1.5,1.5-3.3,1.8-5.3C459.6,534.8,453.5,506.3,431.3,503.5z"/>
	</g>
	<g id="eye-L">
		<path d="M575.6,509.2c-13.6,0-23.6,20.1-26.6,49c9.6,3.2,23.7,2.3,37.9-0.2c8.5-1.5,15.8-3.3,21.5-5.8
			C600.6,526.6,588.2,509.2,575.6,509.2z"/>
		<path d="M424.4,509.2c-12.6,0-25,17.3-32.8,43c5.7,2.5,13.1,4.4,21.5,5.8c14.1,2.5,28.3,3.4,37.9,0.2
			C448,529.3,438,509.2,424.4,509.2z"/>
	</g>
</g>
<g id="r_x3C_Clip_Group_x3E_">
	<defs>
		<path id="rpath" d="M621.8,533.5c-1.4-14.9-30.5-36.7-54.8-34.1c-25.6,2.8-32.6,30.9-29.6,47c2.9,15.6,26.2,15.6,49.4,11.6
			C608.9,554.2,623.2,547.9,621.8,533.5z"/>
	</defs>
	<clipPath id="rpath_1_">
		<use xlink:href="#rpath"  overflow="visible"/>
	</clipPath>
	<circle id="eyes-mask-r" clip-path="url(#rpath_1_)" fill="#5D5D5D" cx="995" cy="3" r="5"/>
</g>
<g id="l_x3C_Clip_Group_x3E_">
	<defs>
		<path id="lpath" d="M433,499.4c-24.3-2.6-53.4,19.1-54.8,34.1
			c-1.3,14.5,12.9,20.7,35,24.6c23.1,4,46.4,4,49.4-11.6C465.5,530.3,458.5,502.2,433,499.4z"/>
	</defs>
	<clipPath id="lpath_1_">
		<use xlink:href="#lpath"  overflow="visible"/>
	</clipPath>
	<circle id="eyes-mask-l" clip-path="url(#lpath_1_)" fill="#5D5D5D" cx="5" cy="3" r="5"/>
</g>
</svg>
