<?xml version="1.0" encoding="utf-8"?>
<!-- Generator: Adobe Illustrator 26.0.1, SVG Export Plug-In . SVG Version: 6.00 Build 0)  -->
<svg version="1.1" id="Слой_3" xmlns="http://www.w3.org/2000/svg" xmlns:xlink="http://www.w3.org/1999/xlink" x="0px" y="0px"
	 viewBox="0 0 1000 1000" style="enable-background:new 0 0 1000 1000;" xml:space="preserve">

<g id="eyes">
	<g id="blacks">
		<path d="M636.9,545.3c-9-30.3-31.2-52.2-54.6-51.3c-23.7,0.9-40.8,24.9-42.1,56.3c-0.3,6.3,5.1,11.3,11.2,10.5
			c11.2-1.5,22.9-2.6,35-3c14-0.5,27.5-0.3,40.3,0.7C633.6,558.9,638.9,552.1,636.9,545.3z"/>
		<path d="M417.7,493.9c-23.4-0.9-45.7,21-54.6,51.3c-2,6.9,3.3,13.6,10.3,13.1c12.8-1,26.3-1.3,40.3-0.7
			c12.1,0.5,23.8,1.5,35,3c6.1,0.8,11.5-4.2,11.2-10.5C458.5,518.8,441.4,494.8,417.7,493.9z"/>
	</g>
	<g id="eye-D">
		<path d="M581.7,500.9c-20.7,0.8-35.7,21.8-36.8,51.6c44.6-6.6,84.5-1.7,84.5-1.7C621.6,523,602.1,500.1,581.7,500.9z"
			/>
		<path d="M418.3,500.9c-20.4-0.8-39.9,22-47.7,49.8c0,0,39.9-4.9,84.5,1.7C454,522.8,439,501.8,418.3,500.9z"/>
	</g>
	<g id="eye">
		<path d="M582.4,503.7c-18.1,0.8-31.3,20.4-32.5,48.1c33.1-4.3,62.9-2.6,74.4-1.6C617.3,524.2,600.3,502.9,582.4,503.7
			z"/>
		<path d="M417.6,503.7c-17.9-0.8-34.9,20.5-42,46.6c11.6-1,41.3-2.8,74.4,1.6C449,524,435.8,504.5,417.6,503.7z"/>
	</g>
	<g id="eye-L">
		<path d="M417.8,508.1c-14.4,0-27.6,17.5-33,41.5c14-0.8,36.7-1.2,61.8,1.8C444.1,526.4,432.6,508.1,417.8,508.1z"/>
		<path d="M582.2,508.1c-14.8,0-26.2,18.3-28.8,43.3c25.1-3,47.8-2.6,61.8-1.8C609.8,525.5,596.6,508.1,582.2,508.1z"/>
	</g>
</g>
<g id="r_x3C_Clip_Group_x3E_">
	<defs>
		<path id="rpath" d="M581.7,500.9c-20.7,0.8-35.7,21.8-36.8,51.6c44.6-6.6,84.5-1.7,84.5-1.7C621.6,523,602.1,500.1,581.7,500.9
			z"/>
	</defs>
	<clipPath id="rpath_1_">
		<use xlink:href="#rpath"  overflow="visible"/>
	</clipPath>
	<circle id="eyes-mask-r" clip-path="url(#rpath_1_)" fill="#5D5D5D" cx="995" cy="3" r="5"/>
</g>
<g id="l_x3C_Clip_Group_x3E_">
	<defs>
		<path id="lpath" d="M418.3,500.9c-20.4-0.8-39.9,22-47.7,49.8
			c0,0,39.9-4.9,84.5,1.7C454,522.8,439,501.8,418.3,500.9z"/>
	</defs>
	<clipPath id="lpath_1_">
		<use xlink:href="#lpath"  overflow="visible"/>
	</clipPath>
	<circle id="eyes-mask-l" clip-path="url(#lpath_1_)" fill="#5D5D5D" cx="5" cy="3" r="5"/>
</g>
</svg>
