<?xml version="1.0" encoding="utf-8"?>
<!-- Generator: Adobe Illustrator 26.0.1, SVG Export Plug-In . SVG Version: 6.00 Build 0)  -->
<svg version="1.1" id="Слой_1" xmlns="http://www.w3.org/2000/svg" xmlns:xlink="http://www.w3.org/1999/xlink" x="0px" y="0px"
	 viewBox="0 0 1000 1000" style="enable-background:new 0 0 1000 1000;" xml:space="preserve">

<g id="eyes">
	<g id="blacks">
		<path d="M421.2,481.4c-32-12-55.3,7-63,30.5s10,49.8,33.5,57.6c23.5,7.7,69.4,1.7,77.1-21.8S444.4,490.1,421.2,481.4z
			"/>
		<path  d="M641.8,511.9c-7.7-23.5-31-42.5-63-30.5c-23.2,8.7-55.3,42.8-47.6,66.3c7.7,23.5,53.6,29.6,77.1,21.8
			S649.5,535.4,641.8,511.9z"/>
	</g>
	<g id="eye-D">
		<path d="M419.3,489.4c-20.9-6.9-43.5,4.5-50.3,25.4c-6.9,20.9,4.5,43.5,25.4,50.4c20.9,6.9,61.7,1.5,68.6-19.4
			C469.9,524.9,440.2,496.3,419.3,489.4z"/>
		<path d="M631,514.8c-6.8-20.9-29.4-32.3-50.3-25.4c-20.9,6.9-50.6,35.5-43.7,56.4c6.9,20.9,47.7,26.3,68.6,19.4
			S637.9,535.7,631,514.8z"/>
	</g>
	<g id="eye">
		<path d="M629,520.8c-6.9-20.9-29.4-32.3-50.4-25.4c-15.2,5-34.9,21.4-42,38c-1,4.3-1,8.5,0.3,12.4
			c6.9,20.9,47.7,26.3,68.6,19.4c11.4-3.7,19.9-12.1,24.2-22.3C631.6,535.8,631.5,528.2,629,520.8z"/>
		<path d="M421.4,495.4c-21-6.9-43.5,4.5-50.4,25.4c-2.5,7.4-2.6,15-0.7,22.1c4.3,10.2,12.8,18.6,24.2,22.3
			c20.9,6.9,61.7,1.5,68.6-19.4c1.3-3.9,1.3-8.1,0.3-12.4C456.3,516.8,436.6,500.4,421.4,495.4z"/>
	</g>
	<g id="eye-L">
		<path d="M421.2,500.4c-19.7-6.9-40.9,4.5-47.4,25.4c-2.3,7.4-2.4,15-0.8,22.1c0.3,0.6,0.5,1.2,0.8,1.8
			c4.7,7,11.8,12.6,20.5,15.5c19.2,6.3,55.1,2.3,66.2-14.5c1.2-3.9,1.2-8.1,0.3-12.3C454.1,521.8,435.5,505.4,421.2,500.4z"/>
		<path d="M626.2,525.8c-6.5-20.9-27.7-32.3-47.4-25.4c-14.3,5-32.9,21.4-39.6,38c-0.9,4.2-0.9,8.4,0.3,12.3
			c11.1,16.8,47,20.8,66.2,14.5c8.7-2.9,15.8-8.5,20.5-15.5c0.3-0.6,0.5-1.2,0.8-1.8C628.6,540.8,628.5,533.2,626.2,525.8z"/>
	</g>
	<g id="skin">
		<path d="M419.4,489.4c-21-6.9-43.5,4.5-50.4,25.4c-0.4,1.1-0.7,2.3-1,3.4c18.7-1.8,38.3-2.7,58.4-2.7
			c9.7,0,19.2,0.3,28.4,0.7C445.5,503.9,431.1,493.3,419.4,489.4z"/>
		<path d="M631,514.8c-6.9-20.9-29.4-32.3-50.4-25.4c-11.7,3.9-26.1,14.5-35.4,26.8c9.2-0.4,18.7-0.7,28.4-0.7
			c20.1,0,39.7,0.9,58.4,2.7C631.7,517.1,631.4,515.9,631,514.8z"/>
	</g>
	<g id="skin-L">
		<path d="M597.6,493.3c-5.7,0-7,9.2-7,22.4c9.9,0.3,19.7,0.8,29.2,1.5C612.9,503.2,603.5,493.3,597.6,493.3z"/>
		<path d="M402.4,493.3c-5.9,0-15.3,9.9-22.2,23.9c9.5-0.7,19.3-1.2,29.2-1.5C409.4,502.5,408.1,493.3,402.4,493.3z"/>
	</g>
	<g id="skin-D">
		<path d="M631.1,515.1c-18.4-1.7-37.8-2.6-57.5-2.6c-8.9,0-17.5,0.2-25.8,0.5c-0.9,1-1.7,2.1-2.5,3.1
			c9.1-0.4,18.6-0.6,28.3-0.6c20.1,0,39.7,0.9,58.4,2.7C631.8,517.2,631.5,516.1,631.1,515.1z"/>
		<path d="M426.4,512.5c-19.7,0-39.1,0.9-57.5,2.6c-0.4,1-0.7,2.1-0.9,3.1c18.7-1.8,38.3-2.7,58.4-2.7
			c9.7,0,19.2,0.2,28.3,0.6c-0.8-1-1.6-2.1-2.5-3.1C443.9,512.7,435.3,512.5,426.4,512.5z"/>
	</g>
<g id="r_x3C_Clip_Group_x3E_">
	<defs>
		<path id="rpath" d="M631.9,518.2c-18.7-1.8-38.3-2.7-58.3-2.7
				c-9.7,0-19.1,0.3-28.3,0.7c-7.3,9.7-11.4,20.4-8.3,29.6c6.9,20.9,47.7,26.3,68.6,19.4C625.4,558.7,636.6,538.1,631.9,518.2z"/>
			c18.49-17.38,21.37-40.91,12.17-61.14C620.9,472.53,592.12,471.43,568.47,484.34z"/>
	</defs>
	<clipPath id="rpath_1_">
		<use xlink:href="#rpath"  overflow="visible"/>
	</clipPath>
	<circle id="eyes-mask-r" clip-path="url(#rpath_1_)" fill="#5D5D5D" cx="995" cy="3" r="5"/>
</g>
<g id="l_x3C_Clip_Group_x3E_">
	<defs>
		<path id="lpath" d="M454.7,516.2c-9.2-0.4-18.6-0.7-28.3-0.7
				c-20.1,0-39.7,0.9-58.3,2.7c-4.7,19.9,6.6,40.5,26.3,47c20.9,6.9,61.7,1.5,68.6-19.4C466,536.6,462,525.9,454.7,516.2z"/>
	</defs>
	<clipPath id="lpath_1_">
		<use xlink:href="#lpath"  overflow="visible"/>
	</clipPath>
	<circle id="eyes-mask-l" clip-path="url(#lpath_1_)" fill="#5D5D5D" cx="5" cy="3" r="5"/>
</g>
</g>
</svg>
