<?xml version="1.0" encoding="utf-8"?>
<!-- Generator: Adobe Illustrator 26.0.1, SVG Export Plug-In . SVG Version: 6.00 Build 0)  -->
<svg version="1.1" id="eyes_00000144332579675144242900000003198150573384540347_"
	 xmlns="http://www.w3.org/2000/svg" xmlns:xlink="http://www.w3.org/1999/xlink" x="0px" y="0px" viewBox="0 0 1000 1000"
	 style="enable-background:new 0 0 1000 1000;" xml:space="preserve">

<g id="skin-L">
	<path d="M416.1,468.2c-29.4,0-53.2,29-52.3,48c0.9,18.9,25.4,34.3,54.8,34.3s54.2-5.5,54.2-25.7
		C472.7,503.8,464.6,468.2,416.1,468.2z"/>
	<path d="M583.9,468.2c-48.5,0-56.7,35.5-56.7,56.5c0,20.2,24.8,25.7,54.2,25.7s54-15.3,54.8-34.3
		C637.1,497.3,613.3,468.2,583.9,468.2z"/>
</g>
<g id="blacks">
	<path d="M416.5,468.8c-37.8-1.7-60.2,31-53.7,56.6c5.8,23.1,24.6,40.4,55,40.4c30.4,0,55-18.1,55-40.4
		C472.9,503.1,446.9,470.2,416.5,468.8z"/>
	<path d="M583.5,468.8c-30.4,1.3-56.4,34.3-56.4,56.6c0,22.3,24.6,40.4,55,40.4c30.4,0,49.2-17.3,55-40.4
		C643.7,499.8,621.3,467.2,583.5,468.8z"/>
</g>
<g id="eye-D">
	<g>
		<g>
			<g>
				<g>
					<g>
						<path d="M370,526c5.2,19.2,22.1,33.6,49.4,33.6s49.4-15.1,49.4-33.6s-23.4-46-50.6-47.1
							C384.3,477.5,364.2,504.7,370,526z"/>
					</g>
				</g>
			</g>
		</g>
	</g>
	<g>
		<g>
			<path d="M630,526c-5.2,19.2-22.1,33.6-49.4,33.6s-49.4-15.1-49.4-33.6s23.4-46,50.6-47.1
				C615.7,477.5,635.8,504.7,630,526z"/>
		</g>
	</g>
</g>
<g id="eye">
	<g>
		<g>
			<g>
				<g>
					<g>
						<path d="M419.8,485.3c22.8,0.9,42.8,20.1,48.8,37.3c0.2,1.2,0.2,2.3,0.2,3.4c0,18.6-22.1,33.6-49.4,33.6
							c-25.9,0-42.4-12.9-48.5-30.7C368,508.2,387.7,484,419.8,485.3z"/>
					</g>
				</g>
			</g>
		</g>
	</g>
	<g>
		<g>
			<path d="M580.2,485.3c-22.8,0.9-42.8,20.1-48.8,37.3c-0.2,1.2-0.2,2.3-0.2,3.4c0,18.6,22.1,33.6,49.4,33.6
				c25.9,0,42.4-12.9,48.5-30.7C632,508.2,612.3,484,580.2,485.3z"/>
		</g>
	</g>
</g>
<g id="eye-L">
	<path d="M577.5,491.7c-20.1,0.8-38.1,16-46.2,31.3c-0.1,1-0.2,2-0.2,3c0,18.6,22.1,33.6,49.4,33.6
		c22.8,0,38.3-10,45.9-24.5C629.2,514.5,609.5,490.4,577.5,491.7z"/>
	<path d="M422.5,491.7c-32-1.3-51.7,22.7-49,43.4c7.6,14.5,23.1,24.5,45.9,24.5c27.3,0,49.4-15.1,49.4-33.6
		c0-1-0.1-1.9-0.2-3C460.6,507.7,442.6,492.6,422.5,491.7z"/>
</g>
<g id="r_x3C_Clip_Group_x3E_">
	<defs>
		<path id="rpath" d="M630,526c-5.2,19.2-22.1,33.6-49.4,33.6s-49.4-15.1-49.4-33.6s23.4-46,50.6-47.1
			C615.7,477.5,635.8,504.7,630,526z"/>
	</defs>
	<clipPath id="rpath_1_">
		<use xlink:href="#rpath"  overflow="visible"/>
	</clipPath>
	<circle id="eyes-mask-r" clip-path="url(#rpath_1_)" fill="#5D5D5D" cx="995" cy="3" r="5"/>
</g>
<g id="l_x3C_Clip_Group_x3E_">
	<defs>
		<path id="lpath" d="M370,526c5.2,19.2,22.1,33.6,49.4,33.6
			s49.4-15.1,49.4-33.6s-23.4-46-50.6-47.1C384.3,477.5,364.2,504.7,370,526z"/>
	</defs>
	<clipPath id="lpath_1_">
		<use xlink:href="#lpath"  overflow="visible"/>
	</clipPath>
	<circle id="eyes-mask-l" clip-path="url(#lpath_1_)" fill="#5D5D5D" cx="5" cy="3" r="5"/>
</g>
</svg>
