<?xml version="1.0" encoding="utf-8"?>
<!-- Generator: Adobe Illustrator 26.0.1, SVG Export Plug-In . SVG Version: 6.00 Build 0)  -->
<svg version="1.1" id="Слой_1" xmlns="http://www.w3.org/2000/svg" xmlns:xlink="http://www.w3.org/1999/xlink" x="0px" y="0px"
	 viewBox="0 0 1000 1000" style="enable-background:new 0 0 1000 1000;" xml:space="preserve">

<g id="eyes">
	<g id="blacks">
		<path d="M431.6,467.5c-30.4-8.3-61.8,8-72.8,36.9c-11.5-1.7-19.4-3.4-19.4-3.4s3.4,11.1,18.5,19.2c2,24.8,19.3,46.8,44.6,53.7
			c30.6,8.3,62-8.2,73-37.2C480.9,506,462.1,475.9,431.6,467.5z"/>
		<path d="M659.5,501c0,0-7.8,1.7-19.4,3.4c-11.1-28.8-42.4-45.2-72.8-36.9c-30.6,8.3-49.3,38.5-44,69.1
			c10.9,29.1,42.4,45.6,73,37.2C621.8,567,639,545,641,520.2C656.2,512.1,659.5,501,659.5,501z"/>
	</g>
	<g id="eye-D">
		<path d="M421.9,472.6c27.1,0,49,22.9,49,50s-21.9,49-49,49s-50-21.9-50-49S394.8,472.6,421.9,472.6z"/>
		<path d="M577.1,472.6c27.1,0,50,22.9,50,50s-22.9,49-50,49s-49-21.9-49-49S550,472.6,577.1,472.6z"/>
	</g>
	<g id="eye">
		<ellipse transform="matrix(0.7071 -0.7071 0.7071 0.7071 -246.3602 452.3905)" cx="422.9" cy="523.6" rx="45.6" ry="45.6"/>
		<ellipse cx="576.1" cy="523.6" rx="45.6" ry="45.6"/>
	</g>
	<g id="eye-L">
		<path d="M424.3,483.6c22.8,0,41.3,17.5,41.3,40.3c0,22.8-18.5,41.3-41.3,41.3S383,546.7,383,523.9
			C383,501.1,401.5,483.6,424.3,483.6z"/>
		<path d="M574.6,483.7c22.8,0,41.3,17.5,41.3,40.3s-18.5,41.3-41.3,41.3s-41.3-18.5-41.3-41.3S551.8,483.7,574.6,483.7z"/>
	</g>
<g id="l_x3C_Clip_Group_x3E_">
	<defs>
		<path id="lpath" d="M421.9,472.6c27.1,0,49,22.9,49,50s-21.9,49-49,49s-50-21.9-50-49S394.8,472.6,421.9,472.6z"/>
	</defs>
	<clipPath id="lpath_1_">
		<use xlink:href="#lpath"  overflow="visible"/>
	</clipPath>
	<circle id="eyes-mask-l" clip-path="url(#lpath_1_)" fill="#5D5D5D" cx="995" cy="3" r="5"/>
</g>
<g id="r_x3C_Clip_Group_x3E_">
	<defs>
		<path id="rpath" d="M577.1,472.6c27.1,0,50,22.9,50,50s-22.9,49-50,49
				s-49-21.9-49-49S550,472.6,577.1,472.6z"/>
	</defs>
	<clipPath id="rpath_1_">
		<use xlink:href="#rpath"  overflow="visible"/>
	</clipPath>
	<circle id="eyes-mask-r" clip-path="url(#rpath_1_)" fill="#5D5D5D" cx="5" cy="3" r="5"/>
</g>
</g>
</svg>
