<?xml version="1.0" encoding="utf-8"?>
<!-- Generator: Adobe Illustrator 26.0.1, SVG Export Plug-In . SVG Version: 6.00 Build 0)  -->
<svg version="1.1" id="eyes" xmlns="http://www.w3.org/2000/svg" xmlns:xlink="http://www.w3.org/1999/xlink" x="0px" y="0px"
	 viewBox="0 0 1000 1000" style="enable-background:new 0 0 1000 1000;" xml:space="preserve">

<g id="skin-L">
	<path d="M564.2,471.1c-22.6,3.2-40.9,22.4-40.9,42.9s18.3,34.5,40.9,31.3s57.2-24.7,57.2-45.2
		C621.4,479.6,586.8,467.9,564.2,471.1z"/>
	<path d="M435.8,471.1c-22.6-3.2-57.2,8.6-57.2,29.1c0,20.5,34.6,42,57.2,45.2s40.9-10.9,40.9-31.3
		S458.4,474.3,435.8,471.1z"/>
</g>
<g id="blacks">
	<path d="M632.6,490.6c-13.8-7.3-30.1-12.5-44.6-13.8c-20.8-2.5-41.4,3.9-54.5,19c-1.6,1.9-3.1,3.8-4.4,5.8
		c-3.5-5.3-7.4-9.5-11.9-11.4c-3.8,15.8-4.4,33.7-0.8,46.9c2.2,8.3,5.8,13.3,9.9,15.1c28.7,16.8,64.7,13.5,84.2-9
		c11.1-12.9,14.6-29.5,11.2-45.7C626.1,495.7,629.9,493.4,632.6,490.6z"/>
	<path d="M470.9,501.6c-1.3-2-2.7-4-4.4-5.8c-13.1-15.1-33.7-21.6-54.5-19c-14.5,1.3-30.8,6.6-44.6,13.8
		c2.6,2.9,6.5,5.2,11,7c-3.5,16.2,0,32.8,11.2,45.7c19.5,22.5,55.5,25.8,84.2,9c4.1-1.8,7.6-6.9,9.9-15.1c3.6-13.2,3-31.1-0.8-46.9
		C478.4,492.1,474.4,496.3,470.9,501.6z"/>
</g>
<g id="eye-D">
	<path d="M611.5,493.5c-47-28.1-100.5,8.6-84.2,51.9C565.8,583.3,631.3,540,611.5,493.5z"/>
	<path d="M388.5,493.5c-19.8,46.5,45.7,89.8,84.2,51.9C489,502.1,435.6,465.5,388.5,493.5z"/>
</g>
<g id="eye">
	<path d="M608.1,496.2c-44.3-26.5-94.7,8.1-79.4,48.9C565,580.8,626.7,540,608.1,496.2z"/>
	<path d="M391.9,496.2C373.3,540,435,580.8,471.3,545C486.7,504.2,436.3,469.7,391.9,496.2z"/>
</g>
<g id="eye-L">
	<path d="M603.6,498.7c-40.8-24.3-87.2,7.4-73,45C564,576.6,620.7,539.1,603.6,498.7z"/>
	<path d="M396.4,498.7c-17.2,40.3,39.6,77.9,73,45C483.6,506.1,437.2,474.4,396.4,498.7z"/>
</g>
<g id="r_x3C_Clip_Group_x3E_">
	<defs>
		<path id="rpath" d="M611.5,493.5c-47-28.1-100.5,8.6-84.2,51.9C565.8,583.3,631.3,540,611.5,493.5z"/>
	</defs>
	<clipPath id="rpath_1_">
		<use xlink:href="#rpath"  overflow="visible"/>
	</clipPath>
	<circle id="eyes-mask-r" clip-path="url(#rpath_1_)" fill="#5D5D5D" cx="995" cy="3" r="5"/>
</g>
<g id="l_x3C_Clip_Group_x3E_">
	<defs>
		<path id="lpath" d="M388.5,493.5c-19.8,46.5,45.7,89.8,84.2,51.9
			C489,502.1,435.6,465.5,388.5,493.5z"/>
	</defs>
	<clipPath id="lpath_1_">
		<use xlink:href="#lpath"  overflow="visible"/>
	</clipPath>
	<circle id="eyes-mask-l" clip-path="url(#lpath_1_)" fill="#5D5D5D" cx="5" cy="3" r="5"/>
</g>
</svg>
