<?xml version="1.0" encoding="utf-8"?>
<!-- Generator: Adobe Illustrator 26.0.1, SVG Export Plug-In . SVG Version: 6.00 Build 0)  -->
<svg version="1.1" id="eyes"
	 xmlns="http://www.w3.org/2000/svg" xmlns:xlink="http://www.w3.org/1999/xlink" x="0px" y="0px" viewBox="0 0 1000 1000"
	 style="enable-background:new 0 0 1000 1000;" xml:space="preserve">

<g id="skin-L">
	<path d="M628.9,494.1c0,20.5-34.6,42-57.2,45.2c-22.6,3.2-33.5,8.7-37.5,4.7c-16.7-50,14.9-75.8,37.5-79
		S628.9,473.6,628.9,494.1z"/>
	<path d="M371.1,494.1c0,20.5,34.6,42,57.2,45.2c22.6,3.2,33.5,8.7,37.5,4.7c16.7-50-14.9-75.8-37.5-79
		S371.1,473.6,371.1,494.1z"/>
</g>
<g id="blacks">
	<path d="M636.7,478.7c-1.1-3.5-4.8-1.8-10.7,2.6c0,0,0,0,0-0.1c0,0-37.3,4-71.1,30.1c-17.3,13.4-21,26.9-21.7,32.1
		c-5.3,2-7.6,3.9-5.7,6.4c1.8,2.3,4.1,1,7.2-2.9c22.4,16.7,57.9,17.9,80-1.3c20.3-17.6,19.1-43.6,12-62.7
		C633.9,483.1,637.8,482.2,636.7,478.7z"/>
	<path d="M363.3,478.7c1.1-3.5,4.8-1.8,10.7,2.6c0,0,0,0,0-0.1c0,0,37.3,4,71.1,30.1c17.3,13.4,21,26.9,21.7,32.1
		c5.3,2,7.6,3.9,5.7,6.4c-1.8,2.3-4.1,1-7.2-2.9c-22.4,16.7-57.9,17.9-80-1.3c-20.3-17.6-19.1-43.6-12-62.7
		C366.1,483.1,362.2,482.2,363.3,478.7z"/>
</g>
<g id="eye-D">
	<path d="M619.5,487.1c0,0-30.8,1.7-59.6,24c-18.8,14.5-19.7,30.9-19.7,30.9c19,15.3,50,14.3,69.3-2.5
		C627.4,524.1,626.1,503.5,619.5,487.1z"/>
	<path d="M380.5,487.1c0,0,30.8,1.7,59.6,24c18.8,14.5,19.7,30.9,19.7,30.9c-19,15.3-50,14.3-69.3-2.5
		C372.6,524.1,373.9,503.5,380.5,487.1z"/>
</g>
<g id="eye">
	<path d="M383.2,489.6c0,0,29.4,1.7,56.9,22.9c17.9,13.9,18.8,29.5,18.8,29.5c-18.1,14.6-47.7,13.6-66.2-2.4
		C375.7,524.9,376.9,505.2,383.2,489.6z"/>
	<path d="M616.8,489.6c0,0-29.4,1.7-56.9,22.9c-17.9,13.9-18.8,29.5-18.8,29.5c18.1,14.6,47.7,13.6,66.2-2.4
		C624.3,524.9,623.1,505.2,616.8,489.6z"/>
</g>
<g id="eye-L">
	<path d="M614.1,492.1c0,0-28,1.6-54.1,21.8c-17.1,13.2-17.9,28.1-17.9,28.1c17.2,13.9,45.4,13,63-2.3
		C621.3,525.7,620,507,614.1,492.1z"/>
	<path d="M385.9,492.1c0,0,28,1.6,54.1,21.8c17.1,13.2,17.9,28.1,17.9,28.1c-17.2,13.9-45.4,13-63-2.3
		C378.7,525.7,380,507,385.9,492.1z"/>
</g>
<g id="r_x3C_Clip_Group_x3E_">
	<defs>
		<path id="rpath" d="M619.5,487.1c0,0-30.8,1.7-59.6,24c-18.8,14.5-19.7,30.9-19.7,30.9c19,15.3,50,14.3,69.3-2.5
			C627.4,524.1,626.1,503.5,619.5,487.1z"/>
	</defs>
	<clipPath id="rpath_1_">
		<use xlink:href="#rpath"  overflow="visible"/>
	</clipPath>
	<circle id="eyes-mask-r" clip-path="url(#rpath_1_)" fill="#5D5D5D" cx="995" cy="3" r="5"/>
</g>
<g id="l_x3C_Clip_Group_x3E_">
	<defs>
		<path id="lpath" d="M380.5,487.1c0,0,30.8,1.7,59.6,24
			c18.8,14.5,19.7,30.9,19.7,30.9c-19,15.3-50,14.3-69.3-2.5C372.6,524.1,373.9,503.5,380.5,487.1z"/>
	</defs>
	<clipPath id="lpath_1_">
		<use xlink:href="#lpath"  overflow="visible"/>
	</clipPath>
	<circle id="eyes-mask-l" clip-path="url(#lpath_1_)" fill="#5D5D5D" cx="5" cy="3" r="5"/>
</g>
</svg>
