<?xml version="1.0" encoding="utf-8"?>
<!-- Generator: Adobe Illustrator 26.0.1, SVG Export Plug-In . SVG Version: 6.00 Build 0)  -->
<svg version="1.1" id="eyes" xmlns="http://www.w3.org/2000/svg" xmlns:xlink="http://www.w3.org/1999/xlink" x="0px" y="0px"
	 viewBox="0 0 1000 1000" style="enable-background:new 0 0 1000 1000;" xml:space="preserve">

<g id="blacks">
	<path d="M630.4,511.9c-1.9-31.1-38-41.2-65.2-40.3c-27.2,0.9-33.8,21-33.7,42.9c0.1,9,3,18.5,8.3,26.6
		c-2,1.5-3.9,3-4.8,4c-2.3,2.4-2.9,5.6-1.3,7.1c1.6,1.5,4.7,0.7,7-1.7c0.8-0.8,2-2.4,3.1-4.1c7.7,8.7,18.7,14.8,32.2,14.8
		C597,561.1,632.9,551.6,630.4,511.9z"/>
	<path d="M369.6,511.9c1.9-31.1,38-41.2,65.2-40.3c27.2,0.9,33.8,21,33.7,42.9c-0.1,9-3,18.5-8.3,26.6
		c2,1.5,3.9,3,4.8,4c2.3,2.4,2.9,5.6,1.3,7.1c-1.6,1.5-4.7,0.7-7-1.7c-0.8-0.8-2-2.4-3.1-4.1c-7.7,8.7-18.7,14.8-32.2,14.8
		C403,561.1,367.1,551.6,369.6,511.9z"/>
</g>
<g id="eye-D">
	<circle cx="425.6" cy="521.3" r="36"/>
	<circle cx="574.4" cy="521.3" r="36"/>
</g>
<g id="eye">
	<circle cx="426.6" cy="520.3" r="32.7"/>
	<circle cx="573.4" cy="520.3" r="32.7"/>
</g>
<g id="eye-L">
	<circle cx="427.6" cy="519.3" r="29.5"/>
	<circle cx="572.4" cy="519.3" r="29.5"/>
</g>
<g id="r_x3C_Clip_Group_x3E_">
	<defs>
		<circle id="rpath" cx="574.4" cy="521.3" r="36"/>
	</defs>
	<clipPath id="rpath_1_">
		<use xlink:href="#rpath"  overflow="visible"/>
	</clipPath>
	<circle id="eyes-mask-r" clip-path="url(#rpath_1_)" fill="#5D5D5D" cx="995" cy="3" r="5"/>
</g>
<g id="l_x3C_Clip_Group_x3E_">
	<defs>
		<circle id="lpath" cx="425.6" cy="521.3" r="36"/>
	</defs>
	<clipPath id="lpath_1_">
		<use xlink:href="#lpath"  overflow="visible"/>
	</clipPath>
	<circle id="eyes-mask-l" clip-path="url(#lpath_1_)" fill="#5D5D5D" cx="5" cy="3" r="5"/>
</g>
</svg>
