<?xml version="1.0" encoding="utf-8"?>
<!-- Generator: Adobe Illustrator 26.0.1, SVG Export Plug-In . SVG Version: 6.00 Build 0)  -->
<svg version="1.1" id="eyes"
	 xmlns="http://www.w3.org/2000/svg" xmlns:xlink="http://www.w3.org/1999/xlink" x="0px" y="0px" viewBox="0 0 1000 1000"
	 style="enable-background:new 0 0 1000 1000;" xml:space="preserve">

<g id="blacks">
	<path d="M618,485.2c-15.6-15.4-50.9-17.5-71.6,3.2c-13.8,13.8-17.6,40.9-8.7,57.4c-1.1,0.9-2,1.7-2.6,2.3
		c-2.3,2.4-2.9,5.6-1.3,7.1c1.6,1.5,4.7,0.7,7-1.7c0.6-0.6,1.4-1.6,2.2-2.8c32,14.3,57.9,6.9,75.1-13.2
		C629.3,524.4,633.6,500.7,618,485.2z"/>
	<path d="M382,485.2c15.6-15.4,50.9-17.5,71.6,3.2c13.8,13.8,17.6,40.9,8.7,57.4c1.1,0.9,2,1.7,2.6,2.3
		c2.3,2.4,2.9,5.6,1.3,7.1c-1.6,1.5-4.7,0.7-7-1.7c-0.6-0.6-1.4-1.6-2.2-2.8c-32,14.3-57.9,6.9-75.1-13.2
		C370.7,524.4,366.4,500.7,382,485.2z"/>
</g>
<g id="eye-D">
	<path class="st1" d="M426.4,517.5c16.6,0,28.6,1.8,34.2,2.9c0.9,9.2-0.7,18.4-5.4,24.8c-18.6,9.2-48,6.3-61.6-6.7
		c-5.2-4.9-8.4-11.3-10.1-18C391.5,519.5,408.9,517.5,426.4,517.5z"/>
	<path class="st1" d="M573.6,517.5c-16.6,0-28.6,1.8-34.2,2.9c-0.9,9.2,0.7,18.4,5.4,24.8c18.6,9.2,48,6.3,61.6-6.7
		c5.2-4.9,8.4-11.3,10.1-18C608.5,519.5,591.1,517.5,573.6,517.5z"/>
</g>
<g id="eye">
	<path d="M614,520.2c-1.1-0.1-2.2-0.3-3.5-0.4c-0.1,0-0.2,0-0.3,0c-0.5-0.1-1.1-0.1-1.6-0.2c-0.1,0-0.2,0-0.4,0
		c-1.3-0.1-2.7-0.3-4.1-0.4c-0.2,0-0.3,0-0.5-0.1c-0.6-0.1-1.1-0.1-1.7-0.2c-0.2,0-0.4,0-0.6-0.1c-1.5-0.1-3-0.3-4.6-0.4
		c-0.2,0-0.5,0-0.7-0.1c-0.6,0-1.2-0.1-1.8-0.1c-0.3,0-0.5,0-0.8-0.1c-0.8-0.1-1.6-0.1-2.5-0.2c0,0,0,0,0,0
		c-0.8-0.1-1.7-0.1-2.5-0.1c-0.3,0-0.5,0-0.8,0c-0.6,0-1.2-0.1-1.9-0.1c-0.3,0-0.5,0-0.8,0c-0.9,0-1.7-0.1-2.6-0.1c0,0,0,0-0.1,0
		c-0.9,0-1.7-0.1-2.6-0.1c-0.3,0-0.5,0-0.8,0c-0.7,0-1.3,0-2,0c-0.3,0-0.5,0-0.8,0c-0.9,0-1.8,0-2.7,0c-0.9,0-1.8,0-2.6,0
		c-0.3,0-0.5,0-0.8,0c-0.6,0-1.2,0-1.8,0c-0.3,0-0.5,0-0.8,0c-0.8,0-1.6,0-2.4,0.1c0,0,0,0-0.1,0c-0.8,0-1.6,0.1-2.3,0.1
		c-0.2,0-0.5,0-0.7,0c-0.5,0-1.1,0.1-1.6,0.1c-0.2,0-0.5,0-0.7,0c-0.7,0-1.4,0.1-2,0.1c0,0-0.1,0-0.1,0c-0.7,0.1-1.4,0.1-2,0.2
		c-0.2,0-0.4,0-0.6,0.1c-0.5,0-1,0.1-1.4,0.1c-0.2,0-0.4,0-0.6,0.1c-0.6,0.1-1.2,0.1-1.7,0.2c0,0-0.1,0-0.1,0
		c-0.6,0.1-1.2,0.1-1.8,0.2c-0.2,0-0.3,0-0.5,0.1c-0.4,0.1-0.9,0.1-1.3,0.2c-0.1,0-0.3,0-0.4,0.1c-1.1,0.1-2.1,0.3-3,0.4
		c-0.1,0-0.2,0-0.2,0c-0.4,0.1-0.8,0.1-1.2,0.2c-0.1,0-0.1,0-0.2,0c-0.9,0.1-1.7,0.3-2.4,0.4c0,0,0,0,0,0
		c-1.1,9.1,0.4,18.3,5.1,24.7c17.7,8.7,45.8,6,58.7-6.4C609.3,533.5,612.5,527,614,520.2C614,520.2,614,520.2,614,520.2z"/>
	<path d="M386,520.2c1.1-0.1,2.2-0.3,3.5-0.4c0.1,0,0.2,0,0.3,0c0.5-0.1,1.1-0.1,1.6-0.2c0.1,0,0.2,0,0.4,0
		c1.3-0.1,2.7-0.3,4.1-0.4c0.2,0,0.3,0,0.5-0.1c0.6-0.1,1.1-0.1,1.7-0.2c0.2,0,0.4,0,0.6-0.1c1.5-0.1,3-0.3,4.6-0.4
		c0.2,0,0.5,0,0.7-0.1c0.6,0,1.2-0.1,1.8-0.1c0.3,0,0.5,0,0.8-0.1c0.8-0.1,1.6-0.1,2.5-0.2c0,0,0,0,0,0c0.8-0.1,1.7-0.1,2.5-0.1
		c0.3,0,0.5,0,0.8,0c0.6,0,1.2-0.1,1.9-0.1c0.3,0,0.5,0,0.8,0c0.9,0,1.7-0.1,2.6-0.1c0,0,0,0,0.1,0c0.9,0,1.7-0.1,2.6-0.1
		c0.3,0,0.5,0,0.8,0c0.7,0,1.3,0,2,0c0.3,0,0.5,0,0.8,0c0.9,0,1.8,0,2.7,0c0.9,0,1.8,0,2.6,0c0.3,0,0.5,0,0.8,0c0.6,0,1.2,0,1.8,0
		c0.3,0,0.5,0,0.8,0c0.8,0,1.6,0,2.4,0.1c0,0,0,0,0.1,0c0.8,0,1.6,0.1,2.3,0.1c0.2,0,0.5,0,0.7,0c0.5,0,1.1,0.1,1.6,0.1
		c0.2,0,0.5,0,0.7,0c0.7,0,1.4,0.1,2,0.1c0,0,0.1,0,0.1,0c0.7,0.1,1.4,0.1,2,0.2c0.2,0,0.4,0,0.6,0.1c0.5,0,1,0.1,1.4,0.1
		c0.2,0,0.4,0,0.6,0.1c0.6,0.1,1.2,0.1,1.7,0.2c0,0,0.1,0,0.1,0c0.6,0.1,1.2,0.1,1.8,0.2c0.2,0,0.3,0,0.5,0.1
		c0.4,0.1,0.9,0.1,1.3,0.2c0.1,0,0.3,0,0.4,0.1c1.1,0.1,2.1,0.3,3,0.4c0.1,0,0.2,0,0.2,0c0.4,0.1,0.8,0.1,1.2,0.2c0.1,0,0.1,0,0.2,0
		c0.9,0.1,1.7,0.3,2.4,0.4c0,0,0,0,0,0c1.1,9.1-0.4,18.3-5.1,24.7c-17.7,8.7-45.8,6-58.7-6.4C390.7,533.5,387.5,527,386,520.2
		C386,520.2,386,520.2,386,520.2z"/>
</g>
<g id="eye-L">
	<path d="M573.6,517.5c-14.5,0-25.4,1.4-31.7,2.5c-1.3,8.9,0,18,4.6,24.2c16.5,8.2,42.8,5.6,54.9-6
		c5.2-5,8.2-11.5,9.5-18.3C601.8,518.8,587.7,517.5,573.6,517.5z"/>
	<path d="M426.4,517.5c14.5,0,25.4,1.4,31.7,2.5c1.3,8.9,0,18-4.6,24.2c-16.5,8.2-42.8,5.6-54.9-6
		c-5.2-5-8.2-11.5-9.5-18.3C398.2,518.8,412.3,517.5,426.4,517.5z"/>
</g>
<g id="skin">
	<g>
		<path d="M383,503.6c0,4.2,17-7.5,36.4-7.5c19.4,0,34,11.7,34,7.5s-14.5-22.6-34-22.6C400,481,383,499.5,383,503.6z"/>
	</g>
	<g>
		<g>
			<path d="M617,503.6c0,4.2-17-7.5-36.4-7.5s-34,11.7-34,7.5s14.5-22.6,34-22.6S617,499.5,617,503.6z"/>
		</g>
	</g>
</g>
<g id="r_x3C_Clip_Group_x3E_">
	<defs>
		<path id="rpath" d="M573.6,517.5c-16.6,0-28.6,1.8-34.2,2.9c-0.9,9.2,0.7,18.4,5.4,24.8c18.6,9.2,48,6.3,61.6-6.7
			c5.2-4.9,8.4-11.3,10.1-18C608.5,519.5,591.1,517.5,573.6,517.5z"/>
	</defs>
	<clipPath id="rpath_1_">
		<use xlink:href="#rpath"  overflow="visible"/>
	</clipPath>
	<circle id="eyes-mask-r" clip-path="url(#rpath_1_)" fill="#5D5D5D" cx="995" cy="3" r="5"/>
</g>
<g id="l_x3C_Clip_Group_x3E_">
	<defs>
		<path id="lpath" d="M426.4,517.5c16.6,0,28.6,1.8,34.2,2.9
			c0.9,9.2-0.7,18.4-5.4,24.8c-18.6,9.2-48,6.3-61.6-6.7c-5.2-4.9-8.4-11.3-10.1-18C391.5,519.5,408.9,517.5,426.4,517.5z"/>
	</defs>
	<clipPath id="lpath_1_">
		<use xlink:href="#lpath"  overflow="visible"/>
	</clipPath>
	<circle id="eyes-mask-l" clip-path="url(#lpath_1_)" fill="#5D5D5D" cx="5" cy="3" r="5"/>
</g>
</svg>
