<?xml version="1.0" encoding="utf-8"?>
<!-- Generator: Adobe Illustrator 26.0.1, SVG Export Plug-In . SVG Version: 6.00 Build 0)  -->
<svg version="1.1" id="eyes" xmlns="http://www.w3.org/2000/svg" xmlns:xlink="http://www.w3.org/1999/xlink" x="0px" y="0px"
	 viewBox="0 0 1000 1000" style="enable-background:new 0 0 1000 1000;" xml:space="preserve">
<g id="blacks">
	<path d="M432.1,474.1c-21.6-8.1-46.4,2.4-55.5,23.5s1,44.7,22.6,52.8c21.6,8.1,55.4,4,69.7-16.2
		C468.8,507.8,453.6,482.2,432.1,474.1z"/>
	<path d="M623.5,497.6c-9.1-21.1-33.9-31.6-55.5-23.5c-21.6,8.1-36.7,33.7-36.7,60.1c14.2,20.2,48.1,24.3,69.7,16.2
		C622.4,542.3,632.6,518.6,623.5,497.6z"/>
</g>
<g id="eye-D">
	<path d="M609.7,511.9c-8.9-15.8-33.7-24.5-48-19.7c-14.8,4.9-28.2,25.1-25.5,40.2c11.6,14.5,36.4,22.2,51.7,15.7
		C602.6,541.8,610.3,523.4,609.7,511.9z"/>
	<path d="M438.2,492.2c-14.3-4.8-39,3.9-48,19.7c-0.5,11.6,7.1,29.9,21.8,36.1c15.3,6.5,40.1-1.1,51.7-15.7
		C466.4,517.2,453,497.1,438.2,492.2z"/>
</g>
<g id="eye">
	<path d="M607.1,512.7c-8.5-15.1-32.2-23.4-45.9-18.8c-14.1,4.7-26.9,24-24.4,38.4c11,13.8,34.7,21.1,49.3,14.9
		C600.2,541.3,607.6,523.8,607.1,512.7z"/>
	<path d="M438.8,493.9c-13.7-4.6-37.3,3.7-45.9,18.8c-0.5,11.1,6.8,28.6,20.9,34.5c14.6,6.2,38.3-1.1,49.3-14.9
		C465.7,517.8,452.9,498.6,438.8,493.9z"/>
</g>
<g id="eye-L">
	<path d="M439.2,496.1c-12.8-4.3-35,3.4-43.1,17.6c-0.5,10.4,6.5,26.8,19.7,32.4c13.7,5.8,35.8-1.1,46.1-14
		C464.3,518.5,452.4,500.5,439.2,496.1z"/>
	<path d="M560.2,496.1c12.8-4.3,35,3.4,43.1,17.6c0.5,10.4-6.5,26.8-19.7,32.4c-13.7,5.8-35.8-1.1-46.1-14
		C535,518.5,546.9,500.5,560.2,496.1z"/>
</g>
<g id="l_x3C_Clip_Group_x3E_">
	<defs>
		<path id="lpath" d="M438.2,492.2c-14.3-4.8-39,3.9-48,19.7c-0.5,11.6,7.1,29.9,21.8,36.1c15.3,6.5,40.1-1.1,51.7-15.7
			C466.4,517.2,453,497.1,438.2,492.2z"/>
	</defs>
	<clipPath id="lpath_1_">
		<use xlink:href="#lpath"  overflow="visible"/>
	</clipPath>
	<circle id="eyes-mask-l" clip-path="url(#lpath_1_)" fill="#5D5D5D" cx="5" cy="3" r="5"/>
</g>
<g id="r_x3C_Clip_Group_x3E_">
	<defs>
		<path id="rpath" d="M609.7,511.9c-8.9-15.8-33.7-24.5-48-19.7
			c-14.8,4.9-28.2,25.1-25.5,40.2c11.6,14.5,36.4,22.2,51.7,15.7C602.6,541.8,610.3,523.4,609.7,511.9z"/>
	</defs>
	<clipPath id="rpath_1_">
		<use xlink:href="#rpath"  overflow="visible"/>
	</clipPath>
	<circle id="eyes-mask-r" clip-path="url(#rpath_1_)" fill="#5D5D5D" cx="995" cy="3" r="5"/>
</g>
</svg>