<?xml version="1.0" encoding="utf-8"?>
<!-- Generator: Adobe Illustrator 26.0.1, SVG Export Plug-In . SVG Version: 6.00 Build 0)  -->
<svg version="1.1" id="Слой_3" xmlns="http://www.w3.org/2000/svg" xmlns:xlink="http://www.w3.org/1999/xlink" x="0px" y="0px"
	 viewBox="0 0 1000 1000" style="enable-background:new 0 0 1000 1000;" xml:space="preserve">

<g id="blacks">
	<path d="M631.7,501.4c-7.3-20.7-44.1-23.5-64.6-16.3c-20.4,7.2-36.7,33.3-29.4,54c7.3,20.7,35.4,28.2,55.8,21
		C613.9,553,639,522.1,631.7,501.4z"/>
	<path d="M432.8,485.1c-20.4-7.2-57.3-4.4-64.6,16.3c-7.3,20.7,17.8,51.6,38.2,58.7c20.4,7.2,48.5-0.3,55.8-21
		C469.5,518.5,453.3,492.3,432.8,485.1z"/>
</g>
<g id="eye-D">
	<path d="M622.5,504.8c-6.5-17.5-37.9-19.1-55.1-12.7c-17.2,6.5-30.5,28.9-24,46.4s30.5,23.3,47.7,16.8
		C608.3,548.9,629,522.2,622.5,504.8z"/>
	<path d="M432.6,492.1c-17.2-6.5-48.5-4.8-55.1,12.7c-6.5,17.5,14.2,44.1,31.4,50.5c17.2,6.5,41.1,0.6,47.7-16.8
		C463.1,521,449.8,498.6,432.6,492.1z"/>
</g>
<g id="eye">
	<path d="M620.1,506.4c-6.3-16.9-36.6-18.5-53.2-12.2c-16.6,6.2-29.5,27.9-23.2,44.8s29.5,22.5,46.1,16.2
		C606.5,549,626.5,523.2,620.1,506.4z"/>
	<path d="M433.1,494.1c-16.6-6.2-46.9-4.6-53.2,12.2s13.7,42.6,30.3,48.8c16.6,6.2,39.8,0.6,46.1-16.2S449.7,500.4,433.1,494.1z"/>
</g>
<g id="eye-L">
	<path d="M617.3,508.2c-6-16.1-34.9-17.6-50.7-11.7s-28.1,26.6-22.1,42.7c6,16.1,28.1,21.4,43.9,15.5
		C604.3,548.7,623.4,524.2,617.3,508.2z"/>
	<path d="M433.3,496.5c-15.8-5.9-44.7-4.4-50.7,11.7c-6,16.1,13,40.6,28.9,46.5c15.8,5.9,37.9,0.6,43.9-15.5
		C461.4,523.1,449.2,502.5,433.3,496.5z"/>
</g>
<g id="r_x3C_Clip_Group_x3E_">
	<defs>
		<path id="rpath" d="M622.5,504.8c-6.5-17.5-37.9-19.1-55.1-12.7c-17.2,6.5-30.5,28.9-24,46.4s30.5,23.3,47.7,16.8
				C608.3,548.9,629,522.2,622.5,504.8z"/>
	</defs>
	<clipPath id="rpath_1_">
		<use xlink:href="#rpath"  overflow="visible"/>
	</clipPath>
	<circle id="eyes-mask-r" clip-path="url(#rpath_1_)" fill="#5D5D5D" cx="995" cy="3" r="5"/>
</g>
<g id="l_x3C_Clip_Group_x3E_">
	<defs>
		<path id="lpath" d="M432.6,492.1c-17.2-6.5-48.5-4.8-55.1,12.7
				c-6.5,17.5,14.2,44.1,31.4,50.5c17.2,6.5,41.1,0.6,47.7-16.8C463.1,521,449.8,498.6,432.6,492.1z"/>
	</defs>
	<clipPath id="lpath_1_">
		<use xlink:href="#lpath"  overflow="visible"/>
	</clipPath>
	<circle id="eyes-mask-l" clip-path="url(#lpath_1_)" fill="#5D5D5D" cx="5" cy="3" r="5"/>
</g>
</svg>
