<?xml version="1.0" encoding="utf-8"?>
<!-- Generator: Adobe Illustrator 24.0.1, SVG Export Plug-In . SVG Version: 6.00 Build 0)  -->
<svg version="1.1" id="eyes" xmlns="http://www.w3.org/2000/svg" xmlns:xlink="http://www.w3.org/1999/xlink" x="0px" y="0px"
	 viewBox="0 0 1000 1000" style="enable-background:new 0 0 1000 1000;" xml:space="preserve">
<g id="skin-D">
	<path d="M534.7,533.8c0,0,1.5,12.9,22.9,17.4c27.1,5.6,67.8-12.7,65.5-36.5C602.5,504,534.7,533.8,534.7,533.8z"/>
	<path d="M465.3,533.8c0,0-1.5,12.9-22.9,17.4c-27.1,5.6-67.8-12.7-65.5-36.5C397.5,504,465.3,533.8,465.3,533.8z"/>
</g>
<g id="skin-L">
	<path d="M623.7,508.2c1.4-13.1-36.3-29-66.7-21.7c-20.9,5.1-27,32.3-23.3,44c3.7,11.7,28.4,16.2,49,9.7
		C603.3,533.8,622.4,520.4,623.7,508.2z"/>
	<path d="M376.3,508.2c-1.4-13.1,36.3-29,66.7-21.7c20.9,5.1,27,32.3,23.3,44c-3.7,11.7-28.4,16.2-49,9.7
		C396.7,533.8,377.6,520.4,376.3,508.2z"/>
</g>
<g id="blacks">
	<path d="M399.2,530.2c19.2,8.9,49.4,9.9,65.3,0.6c1.9-1.1,4.3,0.2,4.3,2.4c0,0,0,0,0,0.1c0,0.7-0.2,1.3-0.6,1.8
		c-14.5,17.5-47.2,15.8-69.1,6.4c-12.7-5.5-23.8-18.4-26-30.9c-0.4-2.3,2.6-3.4,3.8-1.4C381.4,516.3,387.3,524.6,399.2,530.2z"/>
	<path d="M601,530.2c-19.2,8.9-49.4,9.9-65.3,0.6c-1.9-1.1-4.3,0.2-4.3,2.4c0,0,0,0,0,0.1c0,0.7,0.2,1.3,0.6,1.8
		c14.5,17.5,47.2,15.8,69.1,6.4c12.7-5.5,23.8-18.4,26-30.9c0.4-2.3-2.6-3.4-3.8-1.4C618.9,516.3,612.9,524.6,601,530.2z"/>
</g>
</svg>
