<?xml version="1.0" encoding="utf-8"?>
<!-- Generator: Adobe Illustrator 26.0.1, SVG Export Plug-In . SVG Version: 6.00 Build 0)  -->
<svg version="1.1" id="pups" xmlns="http://www.w3.org/2000/svg" xmlns:xlink="http://www.w3.org/1999/xlink" x="0px" y="0px"
	 viewBox="0 0 1000 1000" style="enable-background:new 0 0 1000 1000;" xml:space="preserve">
<g id="filler-eyes-l">
<g id="pupil">
	<path d="M549.9,528.9c0,15.9,12.9,28.8,28.8,28.8c15.9,0,28.8-12.9,28.8-28.8c0-15.9-12.9-28.8-28.8-28.8
		C562.8,500.2,549.9,513,549.9,528.9z"/>
	<path d="M392.5,528.9c0,15.9,12.9,28.8,28.8,28.8s28.8-12.9,28.8-28.8c0-15.9-12.9-28.8-28.8-28.8
		C405.4,500.2,392.5,513,392.5,528.9z"/>
</g>
<g id="pupil-L">
	<path d="M562.4,546.6c0,6.1,7.3,11.1,16.3,11.1s16.3-4.9,16.3-11.1c0-6.1-7.3-11.1-16.3-11.1
		C569.7,535.6,562.4,540.5,562.4,546.6z"/>
	<path d="M405,546.6c0,6.1,7.3,11.1,16.3,11.1s16.3-4.9,16.3-11.1c0-6.1-7.3-11.1-16.3-11.1
		C412.3,535.6,405,540.5,405,546.6z"/>
</g>
<g id="pupil-D">
	<path d="M559.2,528.9c0,10.7,8.7,19.5,19.5,19.5c10.7,0,19.5-8.7,19.5-19.5c0-10.7-8.7-19.5-19.5-19.5
		C567.9,509.5,559.2,518.2,559.2,528.9z"/>
	<path d="M401.9,528.9c0,10.7,8.7,19.5,19.5,19.5c10.7,0,19.5-8.7,19.5-19.5c0-10.7-8.7-19.5-19.5-19.5
		C410.6,509.5,401.9,518.2,401.9,528.9z"/>
</g>
<g id="whites">
	<path d="M597,510.5c-2.1-2.1-7-0.7-10.9,3.3c-3.9,3.9-5.4,8.8-3.3,10.9c2.1,2.1,7,0.7,10.9-3.3
		C597.6,517.6,599.1,512.7,597,510.5z"/>
	<path d="M439.6,510.5c-2.1-2.1-7-0.7-10.9,3.3c-3.9,3.9-5.4,8.8-3.3,10.9c2.1,2.1,7,0.7,10.9-3.3
		C440.2,517.6,441.7,512.7,439.6,510.5z"/>
</g>
    </g>
</svg>
