<?xml version="1.0" encoding="utf-8"?>
<!-- Generator: Adobe Illustrator 26.0.1, SVG Export Plug-In . SVG Version: 6.00 Build 0)  -->
<svg version="1.1" id="pups" xmlns="http://www.w3.org/2000/svg" xmlns:xlink="http://www.w3.org/1999/xlink" x="0px" y="0px"
	 viewBox="0 0 1000 1000" style="enable-background:new 0 0 1000 1000;" xml:space="preserve">
<g id="filler-eyes-l">
<g id="blacks">
	<path d="M578.3,488.1c-2.3-0.1-4.2,18-4.2,40.4c0,22.3,1.9,40.4,4.2,40.4s4.2-18.1,4.2-40.4
		C582.5,506.2,580.6,488.1,578.3,488.1z"/>
	<path d="M420.9,488.1c-2.3-0.1-4.2,18-4.2,40.4c0,22.3,1.9,40.4,4.2,40.4s4.2-18.1,4.2-40.4
		C425.1,506.2,423.2,488.1,420.9,488.1z"/>
</g>
<g id="whites">
	<path d="M597.1,505.3c-2.7-2.7-8.9-0.8-13.8,4.1c-5,5-6.8,11.1-4.1,13.8s8.9,0.8,13.8-4.1
		C597.9,514.1,599.7,508,597.1,505.3z"/>
	<path d="M425.9,509.4c-5,5-6.8,11.1-4.1,13.8s8.9,0.8,13.8-4.1c4.9-5,6.7-11.1,4.1-13.8
		C437,502.6,430.8,504.5,425.9,509.4z"/>
</g>
</g>    
</svg>
