<?xml version="1.0" encoding="utf-8"?>
<!-- Generator: Adobe Illustrator 26.0.1, SVG Export Plug-In . SVG Version: 6.00 Build 0)  -->
<svg version="1.1" id="pups" xmlns="http://www.w3.org/2000/svg" xmlns:xlink="http://www.w3.org/1999/xlink" x="0px" y="0px"
	 viewBox="0 0 1000 1000" style="enable-background:new 0 0 1000 1000;" xml:space="preserve">
<g id="filler-eyes-l">
<g id="pupil-D">
	
		<ellipse transform="matrix(0.7071 -0.7071 0.7071 0.7071 -204.4551 564.0959)" cx="578.7" cy="528.8" rx="39.4" ry="39.4"/>
	
		<ellipse transform="matrix(0.7071 -0.7071 0.7071 0.7071 -250.5594 452.8049)" cx="421.3" cy="528.9" rx="39.4" ry="39.4"/>
</g>
<g id="pupil">
	<ellipse cx="578.7" cy="543.8" rx="33.5" ry="24.5"/>
	<ellipse cx="421.3" cy="543.8" rx="33.5" ry="24.5"/>
</g>
<g id="blacks">
	<circle cx="578.7" cy="528.9" r="24.7"/>
	<circle cx="421.3" cy="528.9" r="24.7"/>
</g>
<g id="pupil-L">
	<path d="M578.7,533.4c-7.5,0-13.7,3.7-14.3,8.5c3.3,4,8.5,6.6,14.3,6.6s11-2.6,14.3-6.6
		C592.4,537.2,586.2,533.4,578.7,533.4z"/>
	<path d="M421.3,533.4c-7.5,0-13.7,3.7-14.3,8.5c3.3,4,8.5,6.6,14.3,6.6c5.8,0,11-2.6,14.3-6.6
		C435,537.2,428.8,533.4,421.3,533.4z"/>
</g>
<g id="whites">
	<path d="M551.6,510.1c-2.2,2.2-0.7,7.3,3.4,11.4c4.1,4.1,9.2,5.6,11.4,3.4c2.2-2.2,0.7-7.3-3.4-11.4
		C558.9,509.4,553.8,507.9,551.6,510.1z"/>
	<path d="M394.2,510.1c-2.2,2.2-0.7,7.3,3.4,11.4c4.1,4.1,9.2,5.6,11.4,3.4s0.7-7.3-3.4-11.4
		C401.5,509.4,396.4,507.9,394.2,510.1z"/>
	<circle cx="591.5" cy="514.8" r="17"/>
	<path d="M585.4,543.9c-2.2,2.2-0.7,7.3,3.4,11.4s9.2,5.6,11.4,3.4c2.2-2.2,0.7-7.3-3.4-11.4
		C592.7,543.2,587.6,541.7,585.4,543.9z"/>
	<circle cx="434.1" cy="514.8" r="17"/>
	<path d="M428,543.9c-2.2,2.2-0.7,7.3,3.4,11.4c4.1,4.1,9.2,5.6,11.4,3.4s0.7-7.3-3.4-11.4
		C435.3,543.2,430.2,541.7,428,543.9z"/>
</g>
    </g>
</svg>
