<?xml version="1.0" encoding="utf-8"?>
<!-- Generator: Adobe Illustrator 26.0.1, SVG Export Plug-In . SVG Version: 6.00 Build 0)  -->
<svg version="1.1" id="pups" xmlns="http://www.w3.org/2000/svg" xmlns:xlink="http://www.w3.org/1999/xlink" x="0px" y="0px"
	 viewBox="0 0 1000 1000" style="enable-background:new 0 0 1000 1000;" xml:space="preserve">
<g id="filler-eyes-l">
<g id="pupil-D">
	
		<ellipse transform="matrix(0.8237 -0.5671 0.5671 0.8237 -225.6327 332.1592)" cx="421.3" cy="528.9" rx="33.1" ry="33.1"/>
	
		<ellipse transform="matrix(0.7071 -0.7071 0.7071 0.7071 -204.4915 564.114)" cx="578.7" cy="528.9" rx="33.1" ry="33.1"/>
</g>
<g id="pupil">
	<circle cx="421.3" cy="528.9" r="25.2"/>
	<circle cx="578.7" cy="528.9" r="25.2"/>
</g>
<g id="pupil-L">
	<path d="M421.3,534.5c-8.6,0-15.5,4.4-15.5,9.8c0,5.4,6.9,9.8,15.5,9.8c8.6,0,15.5-4.4,15.5-9.8
		C436.8,538.9,429.9,534.4,421.3,534.5z"/>
	<path d="M578.7,534.5c-8.6,0-15.5,4.4-15.5,9.8c0,5.4,6.9,9.8,15.5,9.8s15.5-4.4,15.5-9.8
		C594.2,538.9,587.3,534.4,578.7,534.5z"/>
</g>
<g id="pupil-D">
	<circle cx="421.3" cy="528.9" r="6.2"/>
	<circle cx="578.7" cy="528.9" r="6.2"/>
</g>
<g id="whites">
	<path d="M429.1,510.8c-5.5,5.5-7.5,12.3-4.6,15.3c3,3,9.8,0.9,15.3-4.6c5.5-5.5,7.6-12.3,4.6-15.3
		S434.6,505.3,429.1,510.8z"/>
	<path d="M601.8,506.2c-3-3-9.8-0.9-15.3,4.6s-7.5,12.3-4.6,15.3c3,3,9.8,0.9,15.3-4.6
		C602.7,516,604.8,509.2,601.8,506.2z"/>
</g>
    </g>    
</svg>
