<?xml version="1.0" encoding="utf-8"?>
<!-- Generator: Adobe Illustrator 26.0.1, SVG Export Plug-In . SVG Version: 6.00 Build 0)  -->
<svg version="1.1" id="pups" xmlns="http://www.w3.org/2000/svg" xmlns:xlink="http://www.w3.org/1999/xlink" x="0px" y="0px"
	 viewBox="0 0 1000 1000" style="enable-background:new 0 0 1000 1000;" xml:space="preserve">
<g id="filler-eyes-l">
<g id="pupil-D">
	
		<ellipse transform="matrix(0.3827 -0.9239 0.9239 0.3827 -228.472 715.6674)" cx="421.3" cy="528.8" rx="33.1" ry="33.1"/>
	<circle cx="578.7" cy="528.8" r="33.1"/>
</g>
<g id="pupil-L">
	<ellipse cx="578.7" cy="546.6" rx="21.2" ry="15.5"/>
	<ellipse cx="421.3" cy="546.6" rx="21.2" ry="15.5"/>
</g>
<g id="pupil">
	<circle cx="578.7" cy="528.8" r="18.1"/>
	
		<ellipse transform="matrix(0.3827 -0.9239 0.9239 0.3827 -228.472 715.6673)" cx="421.3" cy="528.8" rx="18.1" ry="18.1"/>
</g>
<g id="blacks">
	<circle cx="578.7" cy="528.8" r="6.2"/>
	<circle cx="421.3" cy="528.8" r="6.2"/>
</g>
<g id="whites">
	<path d="M601.8,506.1c-3-3-9.8-0.9-15.3,4.6S579,523,581.9,526c3,3,9.8,0.9,15.3-4.6S604.8,509.1,601.8,506.1z"/>
	<path d="M429.1,510.7c-5.5,5.5-7.5,12.3-4.6,15.3c3,3,9.8,0.9,15.3-4.6s7.6-12.3,4.6-15.3S434.6,505.2,429.1,510.7z"/>
</g>
    </g>
</svg>
