<?xml version="1.0" encoding="utf-8"?>
<!-- Generator: Adobe Illustrator 26.0.1, SVG Export Plug-In . SVG Version: 6.00 Build 0)  -->
<svg version="1.1" id="pups" xmlns="http://www.w3.org/2000/svg" xmlns:xlink="http://www.w3.org/1999/xlink" x="0px" y="0px"
	 viewBox="0 0 1000 1000" style="enable-background:new 0 0 1000 1000;" xml:space="preserve">
<g id="filler-eyes-l">
<g id="pupil">
	<circle cx="578.3" cy="529.5" r="29.7"/>
	<circle cx="421.7" cy="529.5" r="29.7"/>
</g>
<g id="pupil-L">
	<path d="M578.3,524c-10.9,0-21,1.6-29.7,4.3c0,0.4,0,0.8,0,1.2c0,16.4,13.3,29.7,29.7,29.7s29.7-13.3,29.7-29.7
		c0-0.4,0-0.8,0-1.2C599.3,525.6,589.2,524,578.3,524z"/>
	<path d="M392,528.3c0,0.4,0,0.8,0,1.2c0,16.4,13.3,29.7,29.7,29.7s29.7-13.3,29.7-29.7c0-0.4,0-0.8,0-1.2
		c-8.7-2.7-18.8-4.3-29.7-4.3S400.7,525.6,392,528.3z"/>
</g>
<g id="pupil-D">
	<path d="M578.3,517.6c-6.6,0-11.9,5.3-11.9,11.9c0,6.6,5.3,11.9,11.9,11.9c6.6,0,11.9-5.3,11.9-11.9
		S584.9,517.5,578.3,517.6z"/>
	<path d="M421.7,517.6c-6.6,0-11.9,5.3-11.9,11.9c0,6.6,5.3,11.9,11.9,11.9c6.6,0,11.9-5.3,11.9-11.9
		S428.3,517.5,421.7,517.6z"/>
</g>
<g id="whites">
	<path d="M601.3,504.1c-2.7-2.7-9-0.8-14.1,4.2c-5,5-6.9,11.3-4.2,14.1c2.7,2.7,9,0.8,14.1-4.2
		C602.1,513.1,604,506.8,601.3,504.1z"/>
	<path d="M430.6,508.3c-5,5-6.9,11.3-4.2,14.1c2.7,2.7,9,0.8,14.1-4.2c5-5.1,6.9-11.4,4.2-14.1
		C442,501.4,435.7,503.3,430.6,508.3z"/>
</g>
    </g>
</svg>
