<?xml version="1.0" encoding="utf-8"?>
<!-- Generator: Adobe Illustrator 26.0.1, SVG Export Plug-In . SVG Version: 6.00 Build 0)  -->
<svg version="1.1" id="pups" xmlns="http://www.w3.org/2000/svg" xmlns:xlink="http://www.w3.org/1999/xlink" x="0px" y="0px"
	 viewBox="0 0 1000 1000" style="enable-background:new 0 0 1000 1000;" xml:space="preserve">
<g id="filler-eyes-l">
<g id="pupil-D">
	<path d="M466.7,528.9c0,25-20.3,45.3-45.3,45.3s-45.3-20.3-45.3-45.3s20.3-45.3,45.3-45.3
		C446.4,483.6,466.7,503.9,466.7,528.9z"/>
	<path d="M624,528.9c0,25-20.3,45.3-45.3,45.3s-45.3-20.3-45.3-45.3s20.3-45.3,45.3-45.3
		C603.7,483.6,624,503.9,624,528.9z"/>
</g>
<g id="pupil-L">
	<path d="M381.8,527.3c0,0.5,0,1,0,1.6c0,21.9,17.7,39.6,39.6,39.6s39.6-17.7,39.6-39.6c0-0.5,0-1,0-1.6
		c-11.5-3.6-25.1-5.7-39.6-5.7S393.3,523.7,381.8,527.3z"/>
	<path d="M539.1,527.3c0,0.5,0,1,0,1.6c0,21.9,17.7,39.6,39.6,39.6c21.9,0,39.6-17.7,39.6-39.6c0-0.5,0-1,0-1.6
		c-11.5-3.6-25.1-5.7-39.6-5.7C564.2,521.6,550.6,523.7,539.1,527.3z"/>
	<path d="M451.6,528.9c0,16.7-13.6,30.3-30.3,30.3c-16.7,0-30.3-13.6-30.3-30.3s13.6-30.3,30.3-30.3
		C438.1,498.6,451.6,512.2,451.6,528.9z"/>
	<path d="M608.9,528.9c0,16.7-13.6,30.3-30.3,30.3s-30.3-13.6-30.3-30.3s13.6-30.3,30.3-30.3
		C595.4,498.6,608.9,512.2,608.9,528.9z"/>
</g>
<g id="pupil">
	<path d="M439,528.9c0,9.7-7.9,17.6-17.6,17.6s-17.6-7.9-17.6-17.6c0-9.7,7.9-17.6,17.6-17.6
		C431.1,511.3,439,519.2,439,528.9z"/>
	<path d="M596.3,528.9c0,9.7-7.9,17.6-17.6,17.6c-9.7,0-17.6-7.9-17.6-17.6c0-9.7,7.9-17.6,17.6-17.6
		C588.4,511.3,596.3,519.2,596.3,528.9z"/>
</g>
<g id="blacks">
	<path d="M429.4,528.9c0,19.1-3.6,34.5-8,34.5s-8-15.5-8-34.5c0-19.1,3.6-34.5,8-34.5
		C425.8,494.4,429.4,509.8,429.4,528.9z"/>
	<path d="M586.7,528.9c0,19.1-3.6,34.5-8,34.5s-8-15.5-8-34.5c0-19.1,3.6-34.5,8-34.5
		C583.1,494.4,586.7,509.8,586.7,528.9z"/>
</g>
<g id="whites">
	<path d="M449,500.8c-4-4-13.1-1.2-20.5,6.1c-7.4,7.4-10.1,16.5-6.1,20.5s13.1,1.2,20.5-6.1
		C450.3,513.9,453,504.7,449,500.8z"/>
	<path d="M606.3,500.8c-4-4-13.1-1.2-20.5,6.1c-7.4,7.4-10.1,16.5-6.1,20.5s13.1,1.2,20.5-6.1
		C607.6,513.9,610.3,504.7,606.3,500.8z"/>
</g>
    </g>
</svg>
