<?xml version="1.0" encoding="utf-8"?>
<!-- Generator: Adobe Illustrator 26.0.1, SVG Export Plug-In . SVG Version: 6.00 Build 0)  -->
<svg version="1.1" id="pups" xmlns="http://www.w3.org/2000/svg" xmlns:xlink="http://www.w3.org/1999/xlink" x="0px" y="0px"
	 viewBox="0 0 1000 1000" style="enable-background:new 0 0 1000 1000;" xml:space="preserve">
<g id="filler-eyes-l">
<g id="pupil">
	<path d="M448.3,528.9c0,14.9-12.1,27-27,27s-27-12.1-27-27s12.1-27,27-27C436.3,501.9,448.3,514,448.3,528.9z"/>
	<path d="M605.6,528.9c0,14.9-12.1,27-27,27s-27-12.1-27-27s12.1-27,27-27C593.6,501.9,605.6,514,605.6,528.9z"/>
</g>
<g id="pupil-L">
	<path d="M444.3,528.9c0,12.7-10.3,23-23,23s-23-10.3-23-23s10.3-23,23-23C434,505.9,444.3,516.2,444.3,528.9z"/>
	<path d="M601.6,528.9c0,12.7-10.3,23-23,23s-23-10.3-23-23s10.3-23,23-23C591.3,505.9,601.6,516.2,601.6,528.9z"/>
</g>
<g id="pupil-D">
	<path d="M409.7,521.8c2.6-0.6,5.4,0.9,7.8,2.6c1.7,1.2,4.5,0.6,5.6-1.2c1.5-2.5,3.4-5.1,5.9-5.6
		c6.5-1.4,12.6,1.6,13.8,6.7c1.1,5.1-3.2,10.4-9.7,11.8c-2.6,0.6-5.4-0.9-7.8-2.6c-1.7-1.2-4.5-0.6-5.6,1.2
		c-1.5,2.5-3.4,5.1-5.9,5.6c-6.5,1.4-12.6-1.6-13.8-6.7C398.9,528.6,403.2,523.3,409.7,521.8z"/>
	<path d="M590.3,521.8c-2.6-0.6-5.4,0.9-7.8,2.6c-1.7,1.2-4.5,0.6-5.6-1.2c-1.5-2.5-3.4-5.1-5.9-5.6
		c-6.5-1.4-12.6,1.6-13.8,6.7c-1.1,5.1,3.2,10.4,9.7,11.8c2.6,0.6,5.4-0.9,7.8-2.6c1.7-1.2,4.5-0.6,5.6,1.2c1.5,2.5,3.4,5.1,5.9,5.6
		c6.5,1.4,12.6-1.6,13.8-6.7C601.1,528.6,596.8,523.3,590.3,521.8z"/>
</g>
<g id="whites">
	<path d="M440.6,503.6c-2.4-2.4-8.1-0.8-12.6,3.8c-4.5,4.5-6.2,10.2-3.8,12.6c2.4,2.4,8.1,0.8,12.6-3.8
		C441.4,511.7,443.1,506,440.6,503.6z"/>
	<path d="M597.9,503.6c-2.4-2.4-8.1-0.8-12.6,3.8c-4.5,4.5-6.2,10.2-3.8,12.6s8.1,0.8,12.6-3.8
		C598.7,511.7,600.4,506,597.9,503.6z"/>
</g>
    </g>
</svg>
