<?xml version="1.0" encoding="utf-8"?>
<!-- Generator: Adobe Illustrator 26.0.1, SVG Export Plug-In . SVG Version: 6.00 Build 0)  -->
<svg version="1.1" id="pups" xmlns="http://www.w3.org/2000/svg" xmlns:xlink="http://www.w3.org/1999/xlink" x="0px" y="0px"
	 viewBox="0 0 1000 1000" style="enable-background:new 0 0 1000 1000;" xml:space="preserve">
<g id="filler-eyes-l">
<g id="pupil-D">
	<path d="M448.3,528.9c0,14.9-12.1,27-27,27s-27-12.1-27-27s12.1-27,27-27C436.2,501.9,448.3,514,448.3,528.9z"/>
	<path d="M605.7,528.9c0,14.9-12.1,27-27,27s-27-12.1-27-27s12.1-27,27-27C593.6,501.9,605.7,514,605.7,528.9z"/>
</g>
<g id="pupil">
	<path d="M444.3,528.9c0,12.7-10.3,23-23,23s-23-10.3-23-23s10.3-23,23-23C434,505.9,444.3,516.2,444.3,528.9z"/>
	<path d="M601.7,528.9c0,12.7-10.3,23-23,23s-23-10.3-23-23s10.3-23,23-23C591.4,505.9,601.7,516.2,601.7,528.9z"/>
</g>
<g id="pupil-L">
	<path d="M437.6,540c0,6.5-7.3,11.9-16.3,11.9S405,546.6,405,540c0-6.5,7.3-11.9,16.3-11.9
		C430.3,528.2,437.6,533.5,437.6,540z"/>
	<path d="M595,540c0,6.5-7.3,11.9-16.3,11.9s-16.3-5.3-16.3-11.9c0-6.5,7.3-11.9,16.3-11.9
		C587.7,528.2,595,533.5,595,540z"/>
</g>
<g id="blacks">
	<path d="M428.1,528.9c0,3.7-3,6.8-6.8,6.8c-3.7,0-6.8-3-6.8-6.8c0-3.7,3-6.8,6.8-6.8
		C425,522.1,428.1,525.2,428.1,528.9z"/>
	<path d="M585.5,528.9c0,3.7-3,6.8-6.8,6.8c-3.7,0-6.8-3-6.8-6.8c0-3.7,3-6.8,6.8-6.8
		C582.4,522.1,585.5,525.2,585.5,528.9z"/>
</g>
<g id="whites">
	<path d="M598,503.6c-2.4-2.4-8.1-0.8-12.6,3.8c-4.5,4.5-6.2,10.2-3.8,12.6s8.1,0.8,12.6-3.8
		C598.7,511.7,600.4,506,598,503.6z"/>
	<path d="M436.8,503.6c-2.4-2.4-8.1-0.8-12.6,3.8c-4.5,4.5-6.2,10.2-3.8,12.6s8.1,0.8,12.6-3.8
		C437.5,511.7,439.2,506,436.8,503.6z"/>
</g>
    </g>
</svg>
