<svg version="1.1" id="pups" xmlns="http://www.w3.org/2000/svg" xmlns:xlink="http://www.w3.org/1999/xlink" x="0px" y="0px"
	 viewBox="0 0 1000 1000" style="enable-background:new 0 0 1000 1000;" xml:space="preserve">
<g id="filler-eyes-l">
<g id="pupil-D">
	<g>
		<path d="M596.6,528.9c0,9.9-8,17.9-17.9,17.9s-17.9-8-17.9-17.9s8-17.9,17.9-17.9C588.6,511,596.6,519,596.6,528.9z"
			/>
	</g>
	<g>
		<path d="M439.2,528.9c0,9.9-8,17.9-17.9,17.9s-17.9-8-17.9-17.9s8-17.9,17.9-17.9C431.2,511,439.2,519,439.2,528.9z"
			/>
	</g>
</g>
<g id="pupil">
	<g>
		<path d="M588.9,528.9c0,5.7-4.6,10.2-10.2,10.2c-5.7,0-10.2-4.6-10.2-10.2c0-5.7,4.6-10.2,10.2-10.2
			C584.4,518.7,588.9,523.2,588.9,528.9z"/>
	</g>
	<g>
		<path d="M431.5,528.9c0,5.7-4.6,10.2-10.2,10.2c-5.7,0-10.2-4.6-10.2-10.2c0-5.7,4.6-10.2,10.2-10.2
			C427,518.7,431.5,523.2,431.5,528.9z"/>
	</g>
</g>
<g id="pupil-L">
	<g>
		<path d="M586,533.9c0,2.9-3.2,5.3-7.3,5.3c-4,0-7.3-2.4-7.3-5.3c0-2.9,3.2-5.3,7.3-5.3
			C582.7,528.6,586,530.9,586,533.9z"/>
	</g>
	<g>
		<path d="M428.6,533.9c0,2.9-3.2,5.3-7.3,5.3c-4,0-7.3-2.4-7.3-5.3c0-2.9,3.2-5.3,7.3-5.3
			C425.3,528.6,428.6,530.9,428.6,533.9z"/>
	</g>
</g>
<g id="blacks">
	<g>
		<path d="M582.7,528.9c0,2.2-1.8,4-4,4s-4-1.8-4-4s1.8-4,4-4S582.7,526.7,582.7,528.9z"/>
	</g>
	<g>
		<path d="M425.3,528.9c0,2.2-1.8,4-4,4s-4-1.8-4-4s1.8-4,4-4S425.3,526.7,425.3,528.9z"/>
	</g>
</g>
<g id="whites">
	<path d="M431.3,514.6c-1.2-0.8-3.3,0.3-4.8,2.5s-6,11.1-4.8,11.9c1.2,0.8,7.5-6.9,9-9.1
		C432.2,517.8,432.4,515.4,431.3,514.6z"/>
	<path d="M588.7,514.6c-1.2-0.8-3.3,0.3-4.8,2.5s-6,11.1-4.8,11.9c1.2,0.8,7.5-6.9,9-9.1
		C589.6,517.8,589.8,515.4,588.7,514.6z"/>
</g>
    </g>
</svg>
