<?xml version="1.0" encoding="utf-8"?>
<!-- Generator: Adobe Illustrator 26.0.1, SVG Export Plug-In . SVG Version: 6.00 Build 0)  -->
<svg version="1.1" id="pups" xmlns="http://www.w3.org/2000/svg" xmlns:xlink="http://www.w3.org/1999/xlink" x="0px" y="0px"
	 viewBox="0 0 1000 1000" style="enable-background:new 0 0 1000 1000;" xml:space="preserve">
<g id="filler-eyes-l">
<g id="pupil-D">
	<path d="M452.1,528.9c0,17-13.8,30.8-30.8,30.8s-30.8-13.8-30.8-30.8s13.8-30.8,30.8-30.8
		C438.3,498.1,452.1,511.9,452.1,528.9z"/>
	<path d="M609.5,528.9c0,17-13.8,30.8-30.8,30.8s-30.8-13.8-30.8-30.8s13.8-30.8,30.8-30.8
		C595.7,498.1,609.5,511.9,609.5,528.9z"/>
</g>
<g id="pupil">
	<path d="M446.5,528.9c0,13.9-11.3,25.2-25.2,25.2c-13.9,0-25.2-11.3-25.2-25.2s11.3-25.2,25.2-25.2
		S446.5,515,446.5,528.9z"/>
	<path d="M603.9,528.9c0,13.9-11.3,25.2-25.2,25.2s-25.2-11.3-25.2-25.2s11.3-25.2,25.2-25.2
		C592.6,503.7,603.9,515,603.9,528.9z"/>
</g>
<g id="pupil-L">
	<path d="M439.1,541.1c0,7.2-8,13-17.8,13s-17.8-5.8-17.8-13s8-13,17.8-13S439.1,533.9,439.1,541.1z"/>
	<path d="M596.5,541.1c0,7.2-8,13-17.8,13s-17.8-5.8-17.8-13s8-13,17.8-13S596.5,533.9,596.5,541.1z"/>
</g>
<g id="blacks">
	<path d="M427.9,528.9c0,3.7-3,6.6-6.6,6.6c-3.7,0-6.6-3-6.6-6.6c0-3.7,3-6.6,6.6-6.6
		C425,522.3,427.9,525.2,427.9,528.9z"/>
	<path d="M585.3,528.9c0,3.7-3,6.6-6.6,6.6c-3.7,0-6.6-3-6.6-6.6c0-3.7,3-6.6,6.6-6.6
		C582.4,522.3,585.3,525.2,585.3,528.9z"/>
</g>
<g id="whites">
	<g>
		<path d="M440.6,503.6c-2.4-2.4-8.1-0.8-12.6,3.8c-4.5,4.5-6.2,10.2-3.8,12.6c2.4,2.4,8.1,0.8,12.6-3.8
			C441.3,511.7,443,506,440.6,503.6z"/>
	</g>
	<g>
		<path d="M598,503.6c-2.4-2.4-8.1-0.8-12.6,3.8c-4.5,4.5-6.2,10.2-3.8,12.6s8.1,0.8,12.6-3.8
			C598.7,511.7,600.4,506,598,503.6z"/>
	</g>
</g>
    </g>
</svg>
