<svg version="1.1" id="Layer_1" xmlns="http://www.w3.org/2000/svg" xmlns:xlink="http://www.w3.org/1999/xlink" x="0px" y="0px"
	 viewBox="0 0 1000 1000" style="enable-background:new 0 0 1000 1000;" xml:space="preserve">
<g id="filler-eyes-l">
	<ellipse id="pupil" cx="420.8" cy="529.2" rx="38.8" ry="38.8"/>
	<g id="pupil-L">
		<path d="M420.8,512.1c-8.3,0-14.9,7.7-14.9,17.1h29.9C435.8,519.7,429.1,512.1,420.8,512.1z"/>
		<path d="M436.4,540.9c0,0-6.3,6.9-15.3,6.9c-9.1,0-15.3-6.9-15.3-6.9c-3.5-3.1-9,0.4-7.6,4.9c2.4,7.9,8.2,14.2,15.9,17.2
			c0,0,3.6,1.5,7.1,1.5s7.1-1.5,7.1-1.5c7.6-3,13.5-9.3,15.9-17.2C445.4,541.3,440,537.8,436.4,540.9z"/>
	</g>
	<circle id="pupil-D" cx="420.8" cy="529.2" r="14.9"/>
	<path id="whites" d="M446.1,504.8c-3.8-3.8-10.4-3.4-17.4,3.6c-7,6.9-9.7,15.6-5.9,19.4c3.8,3.8,12.5,1.3,19.5-5.6
		C449.3,515.2,449.9,508.6,446.1,504.8z"/>
</g>
</svg>
