<?xml version="1.0" encoding="utf-8"?>
<!-- Generator: Adobe Illustrator 26.0.1, SVG Export Plug-In . SVG Version: 6.00 Build 0)  -->
<svg version="1.1" id="Слой_3" xmlns="http://www.w3.org/2000/svg" xmlns:xlink="http://www.w3.org/1999/xlink" x="0px" y="0px"
	 viewBox="0 0 1000 1000" style="enable-background:new 0 0 1000 1000;" xml:space="preserve">

<g id="eyes">
	<g id="skin">
        <path d="M418.9,488.2c49.2,7.4,41.7,58.3,41.7,58.3s-98.4-16.5-98.4-22.9C362.2,517.2,373.3,481.3,418.9,488.2z"/>
		<path d="M581.1,488.2c-49.2,7.4-41.7,58.3-41.7,58.3s98.4-16.5,98.4-22.9C637.8,517.2,626.7,481.3,581.1,488.2z"/>
    </g>
</g>

	<g id="blacks">
		<g>

							<path d="M463.9,555.4c0.6-1.2-3.2-7.7-3.2-7.7s1.9-52.8-47.5-56.8c-43.5-3.5-51,32.4-51,32.4s-7.5,1.2-7,5.2
								c0.6,4.1,6.4,4.6,6.4,4.6s-0.6,29,35.3,38.8c37.5,10.3,57.9-16.8,57.9-16.8S463.3,556.5,463.9,555.4z"/>

		</g>
		<path d="M536.1,555.4c-0.6-1.2,3.2-7.7,3.2-7.7s-1.9-52.8,47.5-56.8c43.5-3.5,51,32.4,51,32.4s7.5,1.2,7,5.2
			c-0.6,4.1-6.4,4.6-6.4,4.6s0.6,29-35.3,38.8c-37.5,10.3-57.9-16.8-57.9-16.8S536.7,556.5,536.1,555.4z"/>
	</g>
	<g id="eye-D">
		<path d="M370,525.7c1.1-9.8,16.3-33,50.6-25.4c21.6,4.8,30.5,29.5,27.5,43.7c-2.6,12-20.4,29.6-49.6,22.5
			C373.1,560.4,368.5,538.4,370,525.7z"/>
		<path d="M630,525.7c-1.1-9.8-16.3-33-50.6-25.4c-21.6,4.8-30.5,29.5-27.5,43.7c2.6,12,20.4,29.6,49.6,22.5
			C626.9,560.4,631.5,538.4,630,525.7z"/>
	</g>
	<g id="eye">
		<g>
			<g>
				<g>
					<g>
						<g>
							<path d="M371.4,520.6c4.6-10.9,20-26.7,49.2-20.2c3.6,0.8,6.9,2.2,9.9,4c11.5,9.2,15.4,25.9,12.7,36.1
								c-2.9,11-20.2,26.5-46.9,18.6C373.2,552.4,369.7,532.4,371.4,520.6z"/>
						</g>
					</g>
				</g>
			</g>
		</g>
		<path d="M628.6,520.6c-4.6-10.9-20-26.7-49.2-20.2c-3.6,0.8-6.9,2.2-9.9,4c-11.5,9.2-15.4,25.9-12.7,36.1
			c2.9,11,20.2,26.5,46.9,18.6C626.8,552.4,630.3,532.4,628.6,520.6z"/>
	</g>
	<g id="eye-L">
		
			<ellipse transform="matrix(0.9862 -0.1657 0.1657 0.9862 -81.8715 74.5538)"  cx="405.9" cy="528" rx="34.5" ry="27.2"/>
		
			<ellipse transform="matrix(0.1657 -0.9862 0.9862 0.1657 -25.0921 1026.3835)"  cx="594.1" cy="528" rx="27.2" ry="34.5"/>

</g>
<g id="l_x3C_Clip_Group_x3E_">
	<defs>
		<path id="lpath" d="M370,525.7c1.1-9.8,16.3-33,50.6-25.4c21.6,4.8,30.5,29.5,27.5,43.7c-2.6,12-20.4,29.6-49.6,22.5
			C373.1,560.4,368.5,538.4,370,525.7z"/>
	</defs>
	<clipPath id="lpath_1_">
		<use xlink:href="#lpath"  overflow="visible"/>
	</clipPath>
	<circle id="eyes-mask-l" clip-path="url(#lpath_1_)" fill="#5D5D5D" cx="5" cy="3" r="5"/>
</g>
<g id="r_x3C_Clip_Group_x3E_">
	<defs>
		<path id="rpath" d="M630,525.7c-1.1-9.8-16.3-33-50.6-25.4
			c-21.6,4.8-30.5,29.5-27.5,43.7c2.6,12,20.4,29.6,49.6,22.5C626.9,560.4,631.5,538.4,630,525.7z"/>
	</defs>
	<clipPath id="rpath_1_">
		<use xlink:href="#rpath"  overflow="visible"/>
	</clipPath>
	<circle id="eyes-mask-r" clip-path="url(#rpath_1_)" fill="#5D5D5D" cx="995" cy="3" r="5"/>
</g>
</svg>
