<?xml version="1.0" encoding="utf-8"?>
<!-- Generator: Adobe Illustrator 26.0.1, SVG Export Plug-In . SVG Version: 6.00 Build 0)  -->
<svg version="1.1" id="Layer_2" xmlns="http://www.w3.org/2000/svg" xmlns:xlink="http://www.w3.org/1999/xlink" x="0px" y="0px"
	 viewBox="0 0 1000 1000" style="enable-background:new 0 0 1000 1000;" xml:space="preserve">

<g id="eyes">
	<g id="skin">
		<ellipse transform="matrix(0.9713 -0.238 0.238 0.9713 -111.8524 116.3281)" cx="425.8" cy="521.4" rx="40.7" ry="34.2"/>
		<ellipse transform="matrix(0.238 -0.9713 0.9713 0.238 -68.8081 955.0348)" cx="574.2" cy="521.4" rx="34.2" ry="40.7"/>
	</g>
	<g id="blacks">
		
			<ellipse transform="matrix(0.9963 -8.610856e-02 8.610856e-02 0.9963 -43.99 38.5793)" cx="425.2" cy="529.2" rx="42.7" ry="38.7"/>
		
			<ellipse transform="matrix(8.610856e-02 -0.9963 0.9963 8.610856e-02 -1.957 1056.2903)" cx="574.8" cy="529.2" rx="38.7" ry="42.7"/>
	</g>
	<g id="eye-D">
		<path d="M421.4,495.5c-21.1,1.8-36.8,18.9-35.1,38.1c0.5,5.9,2.6,11.3,5.8,15.9c3.7-1.1,14.8-3.7,38-4.9
			c15.1-0.7,24.1,0.6,28.2,1.5c3.3-5.7,4.9-12.3,4.3-19.1C460.9,507.8,442.5,493.7,421.4,495.5z"/>
		<path d="M578.6,495.5c-21.1-1.8-39.5,12.3-41.2,31.5c-0.6,6.8,1,13.4,4.3,19.1c4.1-0.9,13-2.2,28.2-1.5c23.2,1.1,34.2,3.8,38,4.9
			c3.2-4.6,5.3-10,5.8-15.9C615.4,514.4,599.7,497.3,578.6,495.5z"/>
	</g>
	<g id="eye">
		<path d="M421.7,499.2c-18.8,1.6-32.9,17.5-31.3,35.4c0.4,5.2,2.1,9.9,4.8,14.1c5.5-1.3,16.3-3.2,34.9-4.1
			c12.2-0.6,20.4,0.2,25.3,0.9c2.6-5.1,3.8-10.8,3.3-16.8C457.1,510.7,440.6,497.5,421.7,499.2z"/>
		<path d="M578.3,499.2c-18.8-1.6-35.4,11.6-36.9,29.5c-0.5,6,0.7,11.8,3.3,16.8c4.8-0.8,13-1.5,25.3-0.9
			c18.7,0.9,29.5,2.8,34.9,4.1c2.6-4.1,4.3-8.9,4.8-14.1C611.1,516.7,597.1,500.8,578.3,499.2z"/>
	</g>
	<g id="eye-L">
		<path d="M422,502.2c-17.1,1.5-29.8,16.1-28.4,32.7c0.4,4.9,2,9.3,4.5,13.2c6.1-1.2,16.2-2.7,32-3.4c10.1-0.5,17.4-0.1,22.4,0.5
			c2.4-4.7,3.5-10.1,3-15.7C454.1,512.9,439.1,500.7,422,502.2z"/>
		<path d="M578,502.2c-17.1-1.5-32.1,10.7-33.6,27.3c-0.5,5.6,0.6,10.9,3,15.7c5-0.6,12.3-1,22.4-0.5c15.8,0.8,25.9,2.2,32,3.4
			c2.5-3.9,4.1-8.3,4.5-13.2C607.8,518.3,595.1,503.7,578,502.2z"/>
	</g>
</g>
<g id="l_x3C_Clip_Group_x3E_">
	<defs>
		<path id="lpath" d="M421.4,495.5c-21.1,1.8-36.8,18.9-35.1,38.1c0.5,5.9,2.6,11.3,5.8,15.9c3.7-1.1,14.8-3.7,38-4.9
				c15.1-0.7,24.1,0.6,28.2,1.5c3.3-5.7,4.9-12.3,4.3-19.1C460.9,507.8,442.5,493.7,421.4,495.5z"/>
	</defs>
	<clipPath id="lpath_1_">
		<use xlink:href="#lpath"  overflow="visible"/>
	</clipPath>
	<circle id="eyes-mask-l" clip-path="url(#lpath_1_)" fill="#5D5D5D" cx="995" cy="3" r="5"/>
</g>
<g id="r_x3C_Clip_Group_x3E_">
	<defs>
		<path id="rpath" d="M578.6,495.5c-21.1-1.8-39.5,12.3-41.2,31.5
				c-0.6,6.8,1,13.4,4.3,19.1c4.1-0.9,13-2.2,28.2-1.5c23.2,1.1,34.2,3.8,38,4.9c3.2-4.6,5.3-10,5.8-15.9
				C615.4,514.4,599.7,497.3,578.6,495.5z"/>
	</defs>
	<clipPath id="rpath_1_">
		<use xlink:href="#rpath"  overflow="visible"/>
	</clipPath>
	<circle id="eyes-mask-r" clip-path="url(#rpath_1_)" fill="#5D5D5D" cx="5" cy="3" r="5"/>
</g>
</svg>
