<?xml version="1.0" encoding="utf-8"?>
<!-- Generator: Adobe Illustrator 26.0.1, SVG Export Plug-In . SVG Version: 6.00 Build 0)  -->
<svg version="1.1" id="Слой_2" xmlns="http://www.w3.org/2000/svg" xmlns:xlink="http://www.w3.org/1999/xlink" x="0px" y="0px"
	 viewBox="0 0 1000 1000" style="enable-background:new 0 0 1000 1000;" xml:space="preserve">

<g id="eyes">
	<g id="blacks">
		<path d="M649.1,493.6l-0.7-1c-9-13.5-23-23-39.5-27c-16.4-3.9-33.9-1.9-49.2,5.8c-26.1,13.1-41,40.2-37.1,67.4
			l0.3,1.8l1,1.5c9,13.5,23,23,39.5,27c5.5,1.3,11,1.9,16.6,1.9c11.2,0,22.4-2.6,32.6-7.7c23.3-11.7,37.7-34.5,37.7-58.6
			c7.8-6.7,9.7-13.2,9.7-13.2S655.9,492.5,649.1,493.6z"/>
		<path d="M440.2,471.5c-15.3-7.6-32.7-9.7-49.2-5.8c-16.5,3.9-30.5,13.5-39.5,27l-0.7,1c-6.8-1.2-11-2.1-11-2.1
			s2,6.5,9.7,13.2c0.1,24.1,14.4,47,37.7,58.6c10.2,5.1,21.4,7.7,32.6,7.7c5.6,0,11.1-0.6,16.6-1.9c16.5-3.9,30.5-13.5,39.5-27
			l1-1.5l0.3-1.8C481.3,511.6,466.4,484.5,440.2,471.5z"/>
	</g>
	<g id="eye-D">
		<path d="M534.9,502.6c-6.2,10.7-8.8,23-7.1,35.1c16.3,24.3,50.4,32.6,78.7,18.5c19.7-9.8,31.6-28.1,33.2-47.3
			C577.2,492,546.9,498,534.9,502.6z"/>
		<path d="M360.2,508.9c1.6,19.2,13.5,37.5,33.2,47.3c28.3,14.1,62.4,5.8,78.7-18.5c1.7-12.1-0.8-24.4-7.1-35.1
			C453.1,498,422.8,492,360.2,508.9z"/>
	</g>
	<g id="eye">
		<path d="M366.1,507.4c0.3,18.9,11.6,37.4,31,47.1c26.3,13.1,57.9,5.3,73-17.2c1.8-12.5-1.4-25.2-8.6-35.9
			C448.1,497.3,419.4,493.7,366.1,507.4z"/>
		<path d="M538.5,501.4c-7.2,10.7-10.4,23.4-8.6,35.9c15.1,22.5,46.8,30.3,73,17.2c19.4-9.7,30.7-28.1,31-47.1
			C580.6,493.7,551.9,497.3,538.5,501.4z"/>
	</g>
	<g id="eye-L">
		<path d="M373.5,505.5c-1.2,18.7,9.3,37.4,28.4,47c24.1,12.1,53.2,4.9,67.1-15.8c1.8-12.7-2-25.8-10.3-36.1
			C444.9,497.1,418.7,494.9,373.5,505.5z"/>
		<path d="M626.5,505.5c-45.2-10.7-71.4-8.5-85.2-5c-8.3,10.4-12.1,23.4-10.3,36.1c13.9,20.7,42.9,27.8,67.1,15.8
			C617.2,543,627.8,524.2,626.5,505.5z"/>
	</g>
</g>
<g id="r_x3C_Clip_Group_x3E_">
	<defs>
		<path id="rpath" d="M534.9,502.6c-6.2,10.7-8.8,23-7.1,35.1c16.3,24.3,50.4,32.6,78.7,18.5c19.7-9.8,31.6-28.1,33.2-47.3
			C577.2,492,546.9,498,534.9,502.6z"/>
	</defs>
	<clipPath id="rpath_1_">
		<use xlink:href="#rpath"  overflow="visible"/>
	</clipPath>
	<circle id="eyes-mask-r" clip-path="url(#rpath_1_)" fill="#5D5D5D" cx="995" cy="3" r="5"/>
</g>
<g id="l_x3C_Clip_Group_x3E_">
	<defs>
		<path id="lpath" d="M360.2,508.9c1.6,19.2,13.5,37.5,33.2,47.3
			c28.3,14.1,62.4,5.8,78.7-18.5c1.7-12.1-0.8-24.4-7.1-35.1C453.1,498,422.8,492,360.2,508.9z"/>
	</defs>
	<clipPath id="lpath_1_">
		<use xlink:href="#lpath"  overflow="visible"/>
	</clipPath>
	<circle id="eyes-mask-l" clip-path="url(#lpath_1_)" fill="#5D5D5D" cx="5" cy="3" r="5"/>
</g>
</svg>
