<?xml version="1.0" encoding="utf-8"?>
<!-- Generator: Adobe Illustrator 26.0.1, SVG Export Plug-In . SVG Version: 6.00 Build 0)  -->
<svg version="1.1" id="eyes"
	 xmlns="http://www.w3.org/2000/svg" xmlns:xlink="http://www.w3.org/1999/xlink" x="0px" y="0px" viewBox="0 0 1000 1000"
	 style="enable-background:new 0 0 1000 1000;" xml:space="preserve">

<g id="skin-L">
	<path d="M610.9,510.9c0,21.6-31.5,39.1-52.1,39.1s-37.2-17.5-37.2-39.1s16.7-39.1,37.2-39.1S610.9,489.3,610.9,510.9z"
		/>
	<path d="M389.1,510.9c0,21.6,31.5,39.1,52.1,39.1c20.6,0,37.2-17.5,37.2-39.1s-16.7-39.1-37.2-39.1
		C420.6,471.8,389.1,489.3,389.1,510.9z"/>
</g>
<g id="blacks">
	<path d="M377.8,521.8c1.7-20.1,35.9-41.2,55.8-41.2c19.9,0,47.8,21.1,46.1,41.2c-1.7,20.1-19.3,36.5-39.2,36.5H411
		C391.1,558.4,376.2,541.9,377.8,521.8z"/>
	<path d="M435.4,567.5c10-1.7,18.6-5.4,24.3-9.7c-2.6,7.1-11.7,13.4-23.3,15.5c-11.6,2-22.3-0.9-27.1-6.7
		C416.1,568.7,425.4,569.2,435.4,567.5z"/>
	<path d="M622.2,521.8c-1.7-20.1-35.9-41.2-55.8-41.2c-19.9,0-47.8,21.1-46.1,41.2c1.7,20.1,19.3,36.5,39.2,36.5H589
		C608.9,558.4,623.8,541.9,622.2,521.8z"/>
	<path d="M564.6,567.5c-10-1.7-18.6-5.4-24.3-9.7c2.6,7.1,11.7,13.4,23.3,15.5c11.6,2,22.3-0.9,27.1-6.7
		C583.9,568.7,574.6,569.2,564.6,567.5z"/>
</g>
<g id="eye-D">
	<path d="M608.6,541.2c3.3-4.7,5.1-10.4,5.1-16.7c0-16.5-23.5-35.6-49.4-35.2c-18.2,0.3-35.7,17.8-35.7,34.3
		c0,4.2,1,8.2,2.7,11.8C542.6,534.1,578.1,531.1,608.6,541.2z"/>
	<path d="M391.4,541.2c-3.3-4.7-5.1-10.4-5.1-16.7c0-16.5,23.5-35.6,49.4-35.2c18.2,0.3,35.7,17.8,35.7,34.3
		c0,4.2-1,8.2-2.7,11.8C457.4,534.1,421.9,531.1,391.4,541.2z"/>
</g>
<g id="eye">
	<path d="M607.4,540.8c2.6-4.2,4.1-9.1,4.1-14.5c0-15.5-22.1-33.4-46.3-33.1c-17.1,0.2-33.5,16.7-33.5,32.2
		c0,3.4,0.7,6.7,1.9,9.7C546.6,533.8,579,531.8,607.4,540.8z"/>
	<path d="M392.6,540.8c-2.6-4.2-4.1-9.1-4.1-14.5c0-15.5,22.1-33.4,46.3-33.1c17.1,0.2,33.5,16.7,33.5,32.2
		c0,3.4-0.7,6.7-1.9,9.7C453.4,533.8,421,531.8,392.6,540.8z"/>
</g>
<g id="eye-L">
	<path d="M396.3,539.7c-2.2-3.7-3.5-8-3.5-12.7c0-13.8,19.7-29.8,41.4-29.5c15.2,0.2,29.9,14.9,29.9,28.7
		c0,3-0.6,5.9-1.7,8.6C448.2,533.6,421.1,532.7,396.3,539.7z"/>
	<path d="M603.7,539.7c2.2-3.7,3.5-8,3.5-12.7c0-13.8-19.7-29.8-41.4-29.5c-15.2,0.2-29.9,14.9-29.9,28.7
		c0,3,0.6,5.9,1.7,8.6C551.8,533.6,578.9,532.7,603.7,539.7z"/>
</g>
<g id="r_x3C_Clip_Group_x3E_">
	<defs>
		<path id="rpath" d="M608.6,541.2c3.3-4.7,5.1-10.4,5.1-16.7c0-16.5-23.5-35.6-49.4-35.2c-18.2,0.3-35.7,17.8-35.7,34.3
			c0,4.2,1,8.2,2.7,11.8C542.6,534.1,578.1,531.1,608.6,541.2z"/>
	</defs>
	<clipPath id="rpath_1_">
		<use xlink:href="#rpath"  overflow="visible"/>
	</clipPath>
	<circle id="eyes-mask-r" clip-path="url(#rpath_1_)" fill="#5D5D5D" cx="995" cy="3" r="5"/>
</g>
<g id="l_x3C_Clip_Group_x3E_">
	<defs>
		<path id="lpath"d="M391.4,541.2c-3.3-4.7-5.1-10.4-5.1-16.7
			c0-16.5,23.5-35.6,49.4-35.2c18.2,0.3,35.7,17.8,35.7,34.3c0,4.2-1,8.2-2.7,11.8C457.4,534.1,421.9,531.1,391.4,541.2z"/>
	</defs>
	<clipPath id="lpath_1_">
		<use xlink:href="#lpath"  overflow="visible"/>
	</clipPath>
	<circle id="eyes-mask-l" clip-path="url(#lpath_1_)" fill="#5D5D5D" cx="5" cy="3" r="5"/>
</g>
</svg>
