<?xml version="1.0" encoding="utf-8"?>
<!-- Generator: Adobe Illustrator 26.0.1, SVG Export Plug-In . SVG Version: 6.00 Build 0)  -->
<svg version="1.0" id="Layer_2" xmlns="http://www.w3.org/2000/svg" xmlns:xlink="http://www.w3.org/1999/xlink" x="0px" y="0px"
	 viewBox="0 0 1000 1000" enable-background="new 0 0 1000 1000" xml:space="preserve">
<g id="blacks">
	<path d="M431.5,477.5c-38.8-5.3-55.3,23.3-57.8,44.7c-2.5,21.4,28,31,49.5,33s41.6-1.6,44-22.9
		C469.7,510.9,461.8,481.6,431.5,477.5z"/>
	<path d="M626.3,522.2c-2.5-21.4-19-50-57.8-44.7c-30.3,4.1-38.2,33.4-35.7,54.8c2.5,21.4,22.5,24.9,44,22.9
		S628.8,543.6,626.3,522.2z"/>
</g>
<g id="eye-D">
	<path d="M433.9,512.7c-29.1,0-47.3,6.8-53.4,9.5c-0.3,1.7-0.4,3.2-0.3,4.5c0.5,12.1,21.9,24.1,45,24.1
		c24,0,37.6-8.2,37.6-23.6c0-1.9-0.1-4.2-0.4-6.6C459.2,517.3,451.4,512.7,433.9,512.7z"/>
	<path d="M619.5,522.1c-6.1-2.7-24.3-9.5-53.4-9.5c-17.5,0-25.2,4.6-28.5,7.9c-0.3,2.4-0.4,4.7-0.4,6.6
		c0,15.3,13.6,23.6,37.6,23.6c23.1,0,44.5-12,45-24.1C619.8,525.3,619.7,523.8,619.5,522.1z"/>
</g>
<g id="eye">
	<path d="M433.9,512.7c-26.1,0-43.4,5.4-51.1,8.5c-0.1,0.9-0.1,1.7-0.1,2.4c0.5,12.1,20.6,24.1,42.2,24.1
		c22.5,0,35.3-8.2,35.3-23.6c0-1.7-0.1-3.6-0.2-5.6C455.8,515.7,448.1,512.7,433.9,512.7z"/>
	<path d="M617.2,521.2c-7.7-3.1-25-8.5-51.1-8.5c-14.1,0-21.9,3-26.1,5.9c-0.2,2-0.2,3.9-0.2,5.6
		c0,15.3,12.8,23.6,35.3,23.6c21.6,0,41.8-12,42.2-24.1C617.3,522.9,617.3,522,617.2,521.2z"/>
</g>
<g id="eye-L">
	<path d="M433.9,512.7c-24.3,0-40.9,4.7-49.3,7.8c0,0.5,0,1,0,1.4c0.4,11.5,19.6,23,40.2,23c21.4,0,33.6-7.9,33.6-22.4
		c0-1.5-0.1-3.2-0.2-5C453.7,515,446.3,512.7,433.9,512.7z"/>
	<path d="M615.4,520.5c-8.4-3.1-25.1-7.8-49.3-7.8c-12.3,0-19.8,2.3-24.3,4.8c-0.1,1.8-0.2,3.5-0.2,5
		c0,14.6,12.2,22.4,33.6,22.4c20.6,0,39.8-11.4,40.2-23C615.4,521.5,615.4,521,615.4,520.5z"/>
</g>
<g id="r_x3C_Clip_Group_x3E_">
	<defs>
		<path id="rpath" d="M619.5,522.1c-6.1-2.7-24.3-9.5-53.4-9.5c-17.5,0-25.2,4.6-28.5,7.9c-0.3,2.4-0.4,4.7-0.4,6.6
			c0,15.3,13.6,23.6,37.6,23.6c23.1,0,44.5-12,45-24.1C619.8,525.3,619.7,523.8,619.5,522.1z"/>
	</defs>
	<clipPath id="rpath_1_">
		<use xlink:href="#rpath"  overflow="visible"/>
	</clipPath>
	<circle id="eyes-mask-r" clip-path="url(#rpath_1_)" fill="#5D5D5D" cx="995" cy="3" r="5"/>
</g>
<g id="l_x3C_Clip_Group_x3E_">
	<defs>
		<path id="lpath" d="M433.9,512.7c-29.1,0-47.3,6.8-53.4,9.5
			c-0.3,1.7-0.4,3.2-0.3,4.5c0.5,12.1,21.9,24.1,45,24.1c24,0,37.6-8.2,37.6-23.6c0-1.9-0.1-4.2-0.4-6.6
			C459.2,517.3,451.4,512.7,433.9,512.7z"/>
	</defs>
	<clipPath id="lpath_1_">
		<use xlink:href="#lpath"  overflow="visible"/>
	</clipPath>
	<circle id="eyes-mask-l" clip-path="url(#lpath_1_)" fill="#5D5D5D" cx="5" cy="3" r="5"/>
</g>
</svg>