<?xml version="1.0" encoding="utf-8"?>
<!-- Generator: Adobe Illustrator 26.0.1, SVG Export Plug-In . SVG Version: 6.00 Build 0)  -->
<svg version="1.1" id="Слой_2" xmlns="http://www.w3.org/2000/svg" xmlns:xlink="http://www.w3.org/1999/xlink" x="0px" y="0px"
	 viewBox="0 0 1000 1000" style="enable-background:new 0 0 1000 1000;" xml:space="preserve">

<g id="blacks">
	<path d="M441.2,478.3c-19.6-7.4-41.5,2.8-49,22.7c-7.5,19.9,2.4,42,22,49.3c19.6,7.4,46.9,0.7,54.3-19.2
		C476,511.3,460.8,485.7,441.2,478.3z"/>
	<path d="M606.3,501c-7.5-19.9-29.4-30-49-22.7c-19.6,7.4-34.8,33-27.3,52.8c7.5,19.9,34.8,26.5,54.3,19.2
		C603.9,543,613.8,520.9,606.3,501z"/>
</g>
<g id="eye-D">
	<path d="M441.9,483.8c-17.2-6.5-36.4,2.5-43,19.9c-6.5,17.5,2.1,36.8,19.3,43.3c17.2,6.5,41.1,0.6,47.7-16.8
		C472.4,512.7,459.1,490.2,441.9,483.8z"/>
	<path d="M599.7,503.7c-6.5-17.5-25.8-26.4-43-19.9c-17.2,6.5-30.5,28.9-24,46.4c6.5,17.5,30.5,23.3,47.7,16.8
		C597.6,540.5,606.2,521.2,599.7,503.7z"/>
</g>
<g id="eye">
	<path d="M442.3,486.7c-16.2-6.1-34.3,2.3-40.5,18.7c-6.2,16.4,2,34.7,18.1,40.7s38.7,0.6,44.9-15.8
		C471.1,513.9,458.5,492.8,442.3,486.7z"/>
	<path d="M596.7,505.4c-6.2-16.4-24.3-24.8-40.5-18.7c-16.2,6.1-28.7,27.2-22.6,43.7c6.2,16.4,28.7,21.9,44.9,15.8
		S602.9,521.9,596.7,505.4z"/>
</g>
<g id="eye-L">
	<path d="M442.8,489.6c-15.2-5.7-32.2,2.2-37.9,17.6c-5.8,15.4,1.8,32.5,17,38.2c15.2,5.7,36.3,0.6,42.1-14.8
		C469.7,515.1,458,495.3,442.8,489.6z"/>
	<path d="M593.7,507.2c-5.8-15.4-22.8-23.3-37.9-17.6c-15.2,5.7-26.9,25.5-21.2,40.9c5.8,15.4,26.9,20.5,42.1,14.8
		C591.9,539.7,599.5,522.6,593.7,507.2z"/>
</g>
<g id="r_x3C_Clip_Group_x3E_">
	<defs>
		<path id="rpath" d="M599.7,503.7c-6.5-17.5-25.8-26.4-43-19.9c-17.2,6.5-30.5,28.9-24,46.4c6.5,17.5,30.5,23.3,47.7,16.8
			C597.6,540.5,606.2,521.2,599.7,503.7z"/>
	</defs>
	<clipPath id="rpath_1_">
		<use xlink:href="#rpath"  overflow="visible"/>
	</clipPath>
	<circle id="eyes-mask-r" clip-path="url(#rpath_1_)" fill="#5D5D5D" cx="995" cy="3" r="5"/>
</g>
<g id="l_x3C_Clip_Group_x3E_">
	<defs>
		<path id="lpath" d="M441.9,483.8c-17.2-6.5-36.4,2.5-43,19.9
			c-6.5,17.5,2.1,36.8,19.3,43.3c17.2,6.5,41.1,0.6,47.7-16.8C472.4,512.7,459.1,490.2,441.9,483.8z"/>
	</defs>
	<clipPath id="lpath_1_">
		<use xlink:href="#lpath"  overflow="visible"/>
	</clipPath>
	<circle id="eyes-mask-l" clip-path="url(#lpath_1_)" fill="#5D5D5D" cx="5" cy="3" r="5"/>
</g>
</svg>
