<?xml version="1.0" encoding="utf-8"?>
<!-- Generator: Adobe Illustrator 24.0.1, SVG Export Plug-In . SVG Version: 6.00 Build 0)  -->
<svg version="1.1" id="eyes_1_" xmlns="http://www.w3.org/2000/svg" xmlns:xlink="http://www.w3.org/1999/xlink" x="0px" y="0px"
	 viewBox="0 0 1000 1000" style="enable-background:new 0 0 1000 1000;" xml:space="preserve">

<g id="skin">
	<path d="M537.2,532.7l-6.7,10.2c0,0,1.5-18.9,12-30.1c10.5-11.1,47.4-18.5,84.6,15.5l-52-9.8l-24,4.6L537.2,532.7z"/>
	<path d="M462.8,532.7l6.7,10.2c0,0-1.5-18.9-12-30.1c-10.5-11.1-47.4-18.5-84.6,15.5l52-9.8l24,4.6L462.8,532.7z"/>
</g>
<g id="blacks">
	<path d="M348.4,548.5c4.4-4.8,9.6-6.6,14.3-7c-0.6-2.2,0.3-5.1,1.5-6.2c19.3-18.5,60.6-26.7,76-20.2c17.7,7.5,24.8,16.9,29.7,24.2
		c1,1.5,3.4,5.4,4.3,6.7c1.2,1.6,0,4.1-1.8,3.8c-2-0.4-5.7-3.3-7.9-3.7c-28.5-4.7-65.3-2.8-87.9-2.2c-15.8,0.4-22.9,4.3-27.7,5.8
		C348.4,549.7,347.9,548.9,348.4,548.5z"/>
	<path d="M417.8,565.5c18.8-1.3,38.6-10.4,45.2-13.7c0.5-0.3,1.1,0.4,0.7,0.9c-15.8,18.5-37.6,15.8-46,13.9
		C417.1,566.4,417.1,565.5,417.8,565.5z"/>
	<path d="M651.6,548.5c-4.4-4.8-9.6-6.6-14.3-7c0.6-2.2-0.3-5.1-1.5-6.2c-19.3-18.5-60.6-26.7-76-20.2
		c-17.7,7.5-24.8,16.9-29.7,24.2c-1,1.5-3.4,5.4-4.3,6.7c-1.2,1.6,0,4.1,1.8,3.8c2-0.4,5.7-3.3,7.9-3.7c28.5-4.7,65.3-2.8,87.9-2.2
		c15.8,0.4,22.9,4.3,27.7,5.8C651.6,549.7,652.1,548.9,651.6,548.5z"/>
	<path d="M582.2,565.5c-18.8-1.3-38.6-10.4-45.2-13.7c-0.5-0.3-1.1,0.4-0.7,0.9c15.8,18.5,37.6,15.8,46,13.9
		C582.9,566.4,582.9,565.5,582.2,565.5z"/>
</g>
<g id="whites">
	<path d="M465.4,540.8c-4.5-3.8-15.1-13.5-28.7-17.1c-16.5-4.3-42.1,3.7-63.3,13.7c-0.7,0.3-0.4,1.4,0.3,1.3
		c22.1-2.2,63.7-5.3,90.2,4C465.3,543.2,466.4,541.6,465.4,540.8z"/>
	<path d="M534.6,540.8c4.5-3.8,15.1-13.5,28.7-17.1c16.5-4.3,42.1,3.7,63.3,13.7c0.7,0.3,0.4,1.4-0.3,1.3
		c-22.1-2.2-63.7-5.3-90.2,4C534.7,543.2,533.6,541.6,534.6,540.8z"/>
</g>
<g id="l_x3C_Clip_Group_x3E_">
	<defs>
		<path id="lpath" d="M534.6,540.8c4.5-3.8,15.1-13.5,28.7-17.1c16.5-4.3,42.1,3.7,63.3,13.7c0.7,0.3,0.4,1.4-0.3,1.3
			c-22.1-2.2-63.7-5.3-90.2,4C534.7,543.2,533.6,541.6,534.6,540.8z"/>
	</defs>
	<clipPath id="lpath_1_">
		<use xlink:href="#lpath"  overflow="visible"/>
	</clipPath>
	<circle id="eyes-mask-l" clip-path="url(#lpath_1_)" fill="#5D5D5D" cx="5" cy="3" r="5"/>
</g>
<g id="r_x3C_Clip_Group_x3E_">
	<defs>
		<path id="rpath" d="M465.4,540.8c-4.5-3.8-15.1-13.5-28.7-17.1c-16.5-4.3-42.1,3.7-63.3,13.7c-0.7,0.3-0.4,1.4,0.3,1.3
			c22.1-2.2,63.7-5.3,90.2,4C465.3,543.2,466.4,541.6,465.4,540.8z"/>
	</defs>
	<clipPath id="rpath_1_">
		<use xlink:href="#rpath"  overflow="visible"/>
	</clipPath>
	<circle id="eyes-mask-r" clip-path="url(#rpath_1_)";fill="#5D5D5D" cx="995" cy="3" r="5"/>
</g>
</svg>
