<svg version="1.1" id="Layer_1" xmlns="http://www.w3.org/2000/svg" xmlns:xlink="http://www.w3.org/1999/xlink" x="0px" y="0px"
	 viewBox="0 0 1000 1000" style="enable-background:new 0 0 1000 1000;" xml:space="preserve">
<g id="skin">
	<path d="M526.5,526.9c0,0-8.2-42.6,35.2-51.9c29.7-6.3,73.7,12,76,50.2C640.1,565.5,526.5,526.9,526.5,526.9z"/>
	<path d="M473.5,526.9c0,0,8.2-42.6-35.2-51.9c-29.7-6.3-73.7,12-76,50.2C359.9,565.5,473.5,526.9,473.5,526.9z"/>
</g>
<g id="skin-L">
	<ellipse cx="565.3" cy="491.5" rx="5.3" ry="16"/>
	<ellipse cx="434.7" cy="491.5" rx="5.3" ry="16"/>
</g>
<g id="blacks">
	<path d="M443.4,487.9c-16.3-4.5-38.1-1.6-52.8,4.6l-9.1-9.6c-1.5-1.7-4.2-0.4-3.9,1.8l1.4,14.6c-0.4,0.3-0.7,0.6-1.1,0.9l-9.9-5.8
		c-1.9-1.2-4.2,0.8-3.2,2.8l4.7,11.8c-0.6,0.8-1.2,1.6-1.7,2.4l-12.6-0.7c-2.2-0.2-3.3,2.6-1.6,4l9.1,7.9c-0.8,3.7-0.8,7.4,0.4,10.9
		c0,0,0.5,2.3,2,5.7l-7.1,6.7c-1.5,1.3-0.3,3.7,1.6,3.5l10.8-1c1.2,1.6,2.5,3.2,4.1,4.9l-3.3,5.6c-1,1.7,0.7,3.7,2.5,2.9l7.1-2.8
		c1.6,1.2,3.3,2.4,5.2,3.6l-0.3,5.7c-0.2,2,2.3,2.9,3.5,1.4l3.2-3.7c1,0.5,2,0.9,3,1.3c19.6,7.9,54.6,10.2,73.5-24.1
		C479.8,523.4,471.1,495.6,443.4,487.9z"/>
	<path d="M556.6,487.9c16.3-4.5,38.1-1.6,52.8,4.6l9.1-9.6c1.5-1.7,4.2-0.4,3.9,1.8l-1.4,14.6c0.4,0.3,0.7,0.6,1.1,0.9l9.9-5.8
		c1.9-1.2,4.2,0.8,3.2,2.8l-4.7,11.8c0.6,0.8,1.2,1.6,1.7,2.4l12.6-0.7c2.2-0.2,3.3,2.6,1.6,4l-9.1,7.9c0.8,3.7,0.8,7.4-0.4,10.9
		c0,0-0.5,2.3-2,5.7l7.1,6.7c1.5,1.3,0.3,3.7-1.6,3.5l-10.8-1c-1.2,1.6-2.5,3.2-4.1,4.9l3.3,5.6c1,1.7-0.7,3.7-2.5,2.9l-7.1-2.8
		c-1.6,1.2-3.3,2.4-5.2,3.6l0.3,5.7c0.2,2-2.3,2.9-3.5,1.4l-3.2-3.7c-1,0.5-2,0.9-3,1.3c-19.6,7.9-54.6,10.2-73.5-24.1
		C520.2,523.4,528.9,495.6,556.6,487.9z"/>
</g>
<g id="eye-D">
	<path d="M468.2,529.7c1.6-28.1-26.9-39.9-56.3-35.3c-29.4,4.7-44.9,28.3-43.5,35.3s12,26,43.5,31.1
		C438.2,565,466.9,554,468.2,529.7z"/>
	<path d="M531.8,529.7c-1.6-28.1,26.9-39.9,56.3-35.3c29.4,4.7,44.9,28.3,43.5,35.3s-12,26-43.5,31.1
		C561.8,565,533.1,554,531.8,529.7z"/>
</g>
<g id="eye">
	<path d="M468.1,529.5c1.6-25.4-26.9-30.6-56.2-26.4c-29.4,4.2-44.8,20.1-43.4,26.4s12,23.5,43.4,28.1
		C438.2,561.4,466.8,551.4,468.1,529.5z"/>
	<path d="M531.9,529.5c-1.6-25.4,26.9-30.6,56.2-26.4c29.4,4.2,44.8,20.1,43.4,26.4s-12,23.5-43.4,28.1
		C561.8,561.4,533.2,551.4,531.9,529.5z"/>
</g>
<g id="eye-L">
	<path d="M460.4,529.5c3.3-18.8-20.7-22.5-37.2-20.2c-21.1,2.9-38.3,14.9-37.1,20.2c2.1,9.4,17.5,18.5,32.2,19.9
		C440.7,551.5,457.7,545.1,460.4,529.5z"/>
	<path d="M539.6,529.5c-3.3-18.8,20.7-22.5,37.2-20.2c21.1,2.9,38.3,14.9,37.1,20.2c-2.1,9.4-17.5,18.5-32.2,19.9
		C559.3,551.5,542.3,545.1,539.6,529.5z"/>
</g>
<g id="l_x3C_Clip_Group_x3E_">
    <defs>
        <path id="lpath" d="M468.2,529.7c1.6-28.1-26.9-39.9-56.3-35.3c-29.4,4.7-44.9,28.3-43.5,35.3s12,26,43.5,31.1
		C438.2,565,466.9,554,468.2,529.7z"/>
	</defs>
	<clipPath id="lpath_1_">
		<use xlink:href="#lpath"  overflow="visible"/>
	</clipPath>
	<circle id="eyes-mask-l" clip-path="url(#lpath_1_)" fill="#5D5D5D" cx="5" cy="3" r="5"/>
</g>
<g id="r_x3C_Clip_Group_x3E_">
	    <defs>
        <path id="rpath" d="M531.8,529.7c-1.6-28.1,26.9-39.9,56.3-35.3c29.4,4.7,44.9,28.3,43.5,35.3s-12,26-43.5,31.1
		C561.8,565,533.1,554,531.8,529.7z"/>
	</defs>
	<clipPath id="rpath_1_">
		<use xlink:href="#rpath"  overflow="visible"/>
	</clipPath>
	<circle id="eyes-mask-r" clip-path="url(#rpath_1_)" fill="#5D5D5D" cx="995" cy="3" r="5"/>
</g>
</svg>
