<?xml version="1.0" encoding="utf-8"?>
<!-- Generator: Adobe Illustrator 19.2.0, SVG Export Plug-In . SVG Version: 6.00 Build 0)  -->
<svg version="1.0" id="headLayer_1" xmlns="http://www.w3.org/2000/svg" xmlns:xlink="http://www.w3.org/1999/xlink" x="0px"
	 y="0px" viewBox="0 0 1000 1000" enable-background="new 0 0 1000 1000" xml:space="preserve">
<g id="headLayer_1_2_">
	<g id="headLayer_1_1_">
		<path id="skin-D" fill="#705AD7" d="M500.1,360.6L500.1,360.6H500l0,0c-112.4,0-203.8,40.6-203.5,118.2
			c0.3,69.3,56.7,140.3,135.7,155.8c9.6,15,36.3,25.9,67.7,25.9l0,0h0.1l0,0c31.4,0,58.1-10.9,67.7-25.9
			c79.1-15.4,135.4-86.5,135.7-155.8C703.9,401.2,612.4,360.7,500.1,360.6z"/>
		<g id="skin">
			<path fill="#856DEC" d="M408.6,436.9c36.2,0,68.9,9.1,92,23.8c23.1-14.7,55.8-23.8,92-23.8c34.38,0,65.57,8.25,88.46,21.64
				c-15.52-58.05-90.82-88.34-180.96-88.34H500c-90.67,0-166.28,30.5-181.22,89.16C341.78,445.47,373.54,436.9,408.6,436.9z"/>
			<path fill="#856DEC" d="M592.7,516.7c-19.9,0-38.7,2.8-55.4,7.7c-7.2-19.9-21-33.3-36.8-33.3s-29.5,13.4-36.8,33.3
				c-16.7-4.9-35.4-7.6-55.1-7.6c-31.05,0-59.48,6.67-81.54,17.84c18.68,45.28,59.76,83.65,111.74,94.26
				c8.7,14.2,32.8,24.4,61.2,24.4h0.1c28.4,0,52.5-10.2,61.2-24.4c52.19-10.66,93.4-49.29,111.97-94.81
				C651.34,523.22,623.29,516.7,592.7,516.7z"/>
		</g>
		<ellipse id="skin-L" fill="#9B7FFF" cx="500.5" cy="422" rx="89.4" ry="38.7"/>
		<path id="skin2-L" fill="#C8E7C2" d="M536.3,584.2c-10.6,3-23.1,4.7-36.4,4.7c-13.3,0-25.7-1.7-36.4-4.7
			c-11.7,16.7-22.5,35.9-32,50.3c0,0,14.2,26.2,68.3,26.2s68.5-26.2,68.5-26.2C558.8,620.2,548,601,536.3,584.2z"/>
	</g>
</g>
<g id="head_x3C_Clip_Group_x3E_">
	<defs>
		<path id="head_x3C_Path_x3E_" d="M500.1,360.6L500.1,360.6H500l0,0c-112.4,0-203.8,40.6-203.5,118.2
			c0.3,69.3,56.7,140.3,135.7,155.8c9.6,15,36.3,25.9,67.7,25.9l0,0h0.1l0,0c31.4,0,58.1-10.9,67.7-25.9
			c79.1-15.4,135.4-86.5,135.7-155.8C703.9,401.2,612.4,360.7,500.1,360.6z"/>
	</defs>
	<clipPath id="head_x3C_Path_x3E__1_">
		<use xlink:href="#head_x3C_Path_x3E_"  overflow="visible"/>
	</clipPath>
	<circle id="head-mask" clip-path="url(#head_x3C_Path_x3E__1_)" fill="#705AD7" cx="5" cy="5" r="5"/>
</g>
</svg>
