<?xml version="1.0" encoding="utf-8"?>
<!-- Generator: Adobe Illustrator 26.0.1, SVG Export Plug-In . SVG Version: 6.00 Build 0)  -->
<svg version="1.1" id="Layer_2" xmlns="http://www.w3.org/2000/svg" xmlns:xlink="http://www.w3.org/1999/xlink" x="0px" y="0px"
	 viewBox="0 0 1000 1000" enable-background="new 0 0 1000 1000" xml:space="preserve">
<path id="skin-D" fill="#642339" d="M305.6,481.6
	c0-73.2,86.6-132.5,193.4-132.5s193.4,59.3,193.4,132.5S605.8,641.8,499,641.8S305.6,554.8,305.6,481.6z"/>
<path id="skin" fill="#763943" d="M351.8,483.2c0-64.6,65.9-117,147.2-117
	s147.2,52.4,147.2,117S580.3,624.7,499,624.7S351.8,547.8,351.8,483.2z"/>
<path id="skin-L" fill="#824355" d="M573.1,411.4c0,21.4-33.2,38.7-74.1,38.7
	c-40.9,0-74.1-17.3-74.1-38.7c0-21.4,33.2-38.7,74.1-38.7C539.9,372.7,573.1,390,573.1,411.4z"/>
<path id="skin2-L" fill="#CFA6AA" d="M499,528.9c-50.6,0-69.3,70.8-67.6,101.3
	c10.1,14.4,36.8,20.2,67.6,20.2c30.8,0,57.5-5.8,67.6-20.2C568.3,599.7,549.6,528.9,499,528.9z"/>
</svg>
