<?xml version="1.0" encoding="utf-8"?>
<!-- Generator: Adobe Illustrator 19.2.0, SVG Export Plug-In . SVG Version: 6.00 Build 0)  -->
<svg version="1.0" id="Layer_2" xmlns="http://www.w3.org/2000/svg" xmlns:xlink="http://www.w3.org/1999/xlink" x="0px" y="0px"
	 viewBox="0 0 1000 1000" enable-background="new 0 0 1000 1000" xml:space="preserve">
<g id="head">
	<path id="skin-D" fill="#EB6E40" d="M702.75,521.62c0-68.84-91.14-161.5-203.57-161.5s-203.57,92.66-203.57,161.5
		s91.14,124.64,203.57,124.64C611.6,646.26,702.75,590.46,702.75,521.62z"/>
	<path id="skin" fill="#F79F44" d="M393.49,438.43c53.74,0,98.39,41.58,107.32,96.27c8.93-54.69,53.58-96.27,107.32-96.27
		c13.08,0,25.63,2.47,37.25,6.99c-31.23-42.33-85.04-77.51-146.2-77.51c-62.1,0-116.62,36.26-147.62,79.46
		C364.46,441.62,378.62,438.43,393.49,438.43z"/>
	<path id="skin2" fill="#FFECB7" d="M398.24,629.88c29.75,10.42,64.21,16.38,100.94,16.38s71.19-5.96,100.94-16.38
		c-26.87-22.09-61.61-38.79-100.94-47.62C459.85,591.09,425.11,607.79,398.24,629.88z"/>
	<path id="skin-L" fill="#FFB339" d="M499.17,389.57c-49.38,0-89.41,18.18-89.41,40.61c0,3.46,0.96,6.82,2.75,10.03
		c20.29,3.82,38.64,13.63,53.39,27.67c10.28,1.87,21.51,2.91,33.27,2.91c13.35,0,26.01-1.33,37.39-3.71
		c13.69-12.76,30.39-21.91,48.82-26.1c2.08-3.44,3.2-7.06,3.2-10.8C588.58,407.76,548.55,389.57,499.17,389.57z"/>
</g>
<g id="head_x3C_Clip_Group_x3E_">
	<defs>
		<path id="headdy" d="M702.75,521.62c0-68.84-91.14-161.5-203.57-161.5s-203.57,92.66-203.57,161.5s91.14,124.64,203.57,124.64
			C611.6,646.26,702.75,590.46,702.75,521.62z"/>
	</defs>
	<clipPath id="headdy_1_">
		<use xlink:href="#headdy"  overflow="visible"/>
	</clipPath>
	<circle id="head-mask" clip-path="url(#headdy_1_)" fill="#EB6E40" cx="5" cy="5" r="5"/>
</g>
</svg>
