<?xml version="1.0" encoding="utf-8"?>
<!-- Generator: Adobe Illustrator 26.0.1, SVG Export Plug-In . SVG Version: 6.00 Build 0)  -->
<svg version="1.1" id="lizz" xmlns="http://www.w3.org/2000/svg" xmlns:xlink="http://www.w3.org/1999/xlink" x="0px" y="0px"
	 viewBox="0 0 1000 1000" style="enable-background:new 0 0 1000 1000;" xml:space="preserve">
<style type="text/css">
	.st0{fill:#008369;}
	.st1{fill:#1BA977;}
	.st2{fill:#0CBD7C;}
	.st3{fill:#FFF46C;}
</style>
<path id="skin-D" 
d="M702.6,507.9c0-74.4-91.1-148.7-203.6-148.7c-112.4,0-203.6,74.3-203.6,148.7
	S386.5,642.7,499,642.7C611.4,642.7,702.6,582.3,702.6,507.9z"/>
<path id="skin" d="M680.2,511.2c0-72.6-81.1-143.6-181.2-143.6s-181.2,71-181.2,143.6S398.9,642.7,499,642.7
	S680.2,583.8,680.2,511.2z"/>
<path id="skin-L" 
d="M588.4,414.8c0,15.9-40,28.8-89.4,28.8s-89.4-12.9-89.4-28.8s40-39.7,89.4-39.7
	S588.4,398.9,588.4,414.8z"/>
<path id="skin2-L" d="M391.8,622.5c31.1,12.8,67.9,20.2,107.2,20.2s76.1-7.4,107.2-20.2c-31.4-18.7-67.7-33.1-107.2-42
	C459.5,589.4,423.2,603.8,391.8,622.5z"/>
</svg>
