<?xml version="1.0" encoding="utf-8"?>
<!-- Generator: Adobe Illustrator 26.0.1, SVG Export Plug-In . SVG Version: 6.00 Build 0)  -->
<svg version="1.1" id="Layer_2" xmlns="http://www.w3.org/2000/svg" xmlns:xlink="http://www.w3.org/1999/xlink" x="0px" y="0px"
	 viewBox="0 0 1000 1000" enable-background="new 0 0 1000 1000" xml:space="preserve">
<path id="skin-D" fill="#EF676B" d="M294.9,479.3
	c0,74.4,91.1,161.7,203.6,161.7C610.9,641,702,553.7,702,479.3c0-74.4-91.1-121.8-203.6-121.8C386,357.5,294.9,404.8,294.9,479.3z"
	/>
<path id="skin" fill="#F8A17A" d="M317.3,481.3c0,70.1,81.1,151.2,181.2,151.2
	c100.1,0,181.2-81.1,181.2-151.2c0-70.1-81.1-114.4-181.2-114.4C398.4,366.9,317.3,411.2,317.3,481.3z"/>
<path id="skin-L" fill="#FFBB6B" d="M587.9,413.1c0,15.9-40,28.8-89.4,28.8
	s-89.4-12.9-89.4-28.8c0-15.9,40-39.7,89.4-39.7S587.9,397.2,587.9,413.1z"/>
<path id="skin2-L" fill="#DDFFF3" d="M557.1,599.9c1.1-2.7,1.2-5.8-0.1-9
	c-4.4-11.3-22.8-20.5-41.2-20.5c-6.9,0-12.8,1.3-17.3,3.5c-4.5-2.2-10.4-3.5-17.3-3.5c-18.4,0-36.8,9.2-41.2,20.5
	c-1.3,3.2-1.2,6.3-0.1,9c-13.6,5.4-26.6,11.6-38.9,18.3c29,14.1,62.2,22.8,97.5,22.8s68.6-8.6,97.5-22.8
	C583.7,611.4,570.7,605.3,557.1,599.9z"/>
</svg>
