<?xml version="1.0" encoding="utf-8"?>
<!-- Generator: Adobe Illustrator 19.2.0, SVG Export Plug-In . SVG Version: 6.00 Build 0)  -->
<svg version="1.0" id="Layer_2" xmlns="http://www.w3.org/2000/svg" xmlns:xlink="http://www.w3.org/1999/xlink" x="0px" y="0px"
	 viewBox="0 0 1000 1000" enable-background="new 0 0 1000 1000" xml:space="preserve">
<g id="skin-D">
	<path id="path" fill="#EF67B0" d="M702.18,524.37c0-74.45-91.14-161.71-203.57-161.71s-203.57,87.26-203.57,161.7
		s91.14,121.8,203.57,121.8S702.18,598.81,702.18,524.37z"/>
</g>
<g id="skin">
	<path id="path_1_" fill="#EF85D8" d="M498.61,371.1c-100.06,0-181.18,81.08-181.18,151.2s81.12,114.4,181.18,114.4
		s181.18-44.29,181.18-114.4C679.79,452.18,598.67,371.1,498.61,371.1z M435.03,602.01c-8.99,14.04-39.28,10.71-67.66-7.45
		c-28.38-18.16-44.11-44.27-35.12-58.31s39.28-10.71,67.66,7.45C428.29,561.86,444.01,587.97,435.03,602.01z M633.2,594.57
		c-28.38,18.16-58.67,21.49-67.66,7.45s6.74-40.15,35.12-58.31s58.67-21.49,67.66-7.45C677.3,550.3,661.58,576.41,633.2,594.57z"/>
</g>
<g id="skin-L">
	<path id="path_2_" fill="#F8A5D8" d="M588.58,418.32c0,15.93-40.03,28.84-89.41,28.84s-89.41-12.91-89.41-28.84
		s40.03-39.66,89.41-39.66S588.58,402.39,588.58,418.32z"/>
</g>
<g id="head_x3C_Clip_Group_x3E_">
	<defs>
		<path id="path_3_" d="M702.18,524.37c0-74.45-91.14-161.71-203.57-161.71s-203.57,87.26-203.57,161.7s91.14,121.8,203.57,121.8
			S702.18,598.81,702.18,524.37z"/>
	</defs>
	<clipPath id="path_4_">
		<use xlink:href="#path_3_"  overflow="visible"/>
	</clipPath>
	<circle id="head-mask" clip-path="url(#path_4_)" fill="#5D5D5D" cx="5" cy="5" r="5"/>
</g>
</svg>
