<?xml version="1.0" encoding="utf-8"?>
<!-- Generator: Adobe Illustrator 26.0.1, SVG Export Plug-In . SVG Version: 6.00 Build 0)  -->
<svg version="1.1" id="Layer_2" xmlns="http://www.w3.org/2000/svg" xmlns:xlink="http://www.w3.org/1999/xlink" x="0px" y="0px"
	 viewBox="0 0 1000 1000" style="enable-background:new 0 0 1000 1000;" xml:space="preserve">
<style type="text/css">
	.st0{fill:#ABBEDB;}
	.st1{fill:#BECDEA;}
	.st2{fill:#D2E1F7;}
</style>
<path id="skin-D" 
d="M673.5,471.2c-47.6-79.9-84.8-109.9-173.5-109.9s-125.9,30.1-173.5,109.9
	C273.7,559.7,385,644.7,500,644.8C615,644.7,726.3,559.7,673.5,471.2z"/>
<path id="skin" d="M670.9,499c-7.8-11.9-23-17.2-41-16.1c-9.9-65.2-64.3-115-129.9-115s-120,49.8-129.9,115
	c-17.9-1.1-33.1,4.2-41,16.1c-14.9,22.6,2.6,60.5,39,84.5c12.5,8.3,25.7,13.8,38.1,16.6c23.9,25.2,57,40.8,93.7,40.8
	s69.9-15.6,93.7-40.8c12.5-2.8,25.6-8.4,38.1-16.6C668.3,559.5,685.8,521.7,670.9,499z"/>
<path id="skin-L"
d="M420.7,413.4c0-20.6,35.5-37.2,79.3-37.2s79.3,16.7,79.3,37.2s-35.5,51.2-79.3,51.2
	S420.7,434,420.7,413.4z"/>
</svg>
