<?xml version="1.0" encoding="utf-8"?>
<!-- Generator: Adobe Illustrator 26.0.1, SVG Export Plug-In . SVG Version: 6.00 Build 0)  -->
<svg version="1.1" id="Layer_2" xmlns="http://www.w3.org/2000/svg" xmlns:xlink="http://www.w3.org/1999/xlink" x="0px" y="0px"
	 viewBox="0 0 1000 1000" style="enable-background:new 0 0 1000 1000;" xml:space="preserve">
<style type="text/css">
	.st0{fill:#ABBEDB;}
	.st1{fill:#BECDEA;}
	.st2{fill:#D2E1F7;}
</style>
<path id="skin-D"  d="M652.7,414.3c-7-13.4-18.8-23.6-33.2-28.5c-30.5-10.4-78.9-25.2-119.5-25.2s-89,14.9-119.5,25.2
	c-14.3,4.9-26.2,15.1-33.2,28.5c-16.8,32.4-43.2,94.8-20.8,132.3c47.6,79.9,111.5,94.9,173.5,94.9s125.9-15.1,173.5-94.9
	C695.9,509.1,669.5,446.7,652.7,414.3z"/>
<path id="skin"  d="M642.6,420.8c-9.6-13.8-23-24.7-38.4-31.5c-21.9-9.8-68.4-25-104.2-25s-82.3,15.3-104.2,25
	c-15.4,6.9-28.7,17.7-38.4,31.5c-22.6,32.3-40,80.2-28.3,98c2.9,4.5,8.3,8,14.8,10.6c21.3,8.5,38.2,25.2,48.4,45.8
	c19.3,39.1,57.2,59.7,107.7,59.7c50.4,0,88.3-20.6,107.7-59.7c10.2-20.6,27.1-37.3,48.4-45.8c6.5-2.6,11.9-6.1,14.8-10.6
	C682.6,501,665.1,453.1,642.6,420.8z"/>
<path id="skin-L"  d="M500,441.9c43.8,0,79.3-13,79.3-29S543.8,373,500,373s-79.3,23.9-79.3,39.9S456.2,441.9,500,441.9z
	"/>
</svg>
