<?xml version="1.0" encoding="utf-8"?>
<!-- Generator: Adobe Illustrator 26.0.1, SVG Export Plug-In . SVG Version: 6.00 Build 0)  -->
<svg version="1.1" id="Layer_2" xmlns="http://www.w3.org/2000/svg" xmlns:xlink="http://www.w3.org/1999/xlink" x="0px" y="0px"
	 viewBox="0 0 1000 1000" style="enable-background:new 0 0 1000 1000;" xml:space="preserve">
<style type="text/css">
	.st0{fill:#ABBEDB;}
	.st1{fill:#BECDEA;}
	.st2{fill:#D2E1F7;}
</style>
<path id="skin-D" d="M638.3,407.8c-7.5-17.1-32.1-32.9-46.4-38c-30.5-10.8-52-6.1-92.7-6.1c-40.6,0-62.1-4.6-92.7,6.1
	c-14.3,5.1-38.9,20.9-46.4,38c-27.8,63.4-85.7,125.2-58.8,161.1c32.6,43.7,61.9,52.1,96,50.6c24.4,12,61,19.7,101.9,19.7
	c40.9,0,77.5-7.7,101.9-19.7c34.1,1.5,63.4-6.9,96-50.6C723.9,532.9,666,471.2,638.3,407.8z"/>
<path id="skin"
d="M645.3,466.7c-10.3-16.7-18.9-40.3-27.4-53.7c-8.5-13.4-22.9-24.3-46.4-34.1
	c-20-8.3-40.4-8.9-72.2-8.9s-52.3,0.6-72.2,8.9c-23.5,9.8-37.9,20.7-46.4,34.1c-8.5,13.4-17.2,37-27.4,53.7
	c-15.4,25.1-54.3,67.9-38.7,96.7c11.7,21.7,31.4,36,51.4,44.9c4.8,1.4,11,2.8,19.2,3.6c24.3,2.6,42.7-23,42.7-23
	s-3.2,12.7-11.5,22.7c16.1,11,47.3,18.4,83.1,18.4c35.8,0,67-7.4,83.1-18.4c-8.4-10-11.5-22.7-11.5-22.7s18.4,25.5,42.7,23
	c8.2-0.9,14.4-2.2,19.2-3.6c20-9,39.7-23.3,51.4-44.9C699.6,534.6,660.7,491.8,645.3,466.7z"/>
<path id="skin-L" d="M499.2,417.6c38.5,0,69.8-9.2,69.8-20.5c0-11.3-31.2-17.9-69.8-17.9s-69.8,6.5-69.8,17.9
	C429.5,408.4,460.7,417.6,499.2,417.6z"/>
<path id="skin" 
d="M572.2,425.1c0,2.7-32.7,20.4-73,20.4
	c-40.3,0-73-17.8-73-20.4c0-2.7,32.7,10.8,73,10.8C539.5,435.9,572.2,422.4,572.2,425.1z"/>
<path id="skin" 
d="M551.4,447.4c0,1.9-23.3,14.6-52.2,14.6
	c-28.8,0-52.2-12.7-52.2-14.6c0-1.9,23.3,7.7,52.2,7.7C528,455.1,551.4,445.5,551.4,447.4z"/>
</svg>
