<?xml version="1.0" encoding="utf-8"?>
<!-- Generator: Adobe Illustrator 26.0.1, SVG Export Plug-In . SVG Version: 6.00 Build 0)  -->
<svg version="1.1" id="Layer_2" xmlns="http://www.w3.org/2000/svg" xmlns:xlink="http://www.w3.org/1999/xlink" x="0px" y="0px"
	 viewBox="0 0 1000 1000" style="enable-background:new 0 0 1000 1000;" xml:space="preserve">
<style type="text/css">
	.st0{fill:#F2EDD3;}
</style>
<path id="skin-D" d="M721.7,514.1c0,0-11.6-4.5-17.4-5.6c5.1-5.6,6.8-11.1,6.8-11.1s-1.4-0.4-3.4-0.5c-1.8-1.1-4.7-2.9-7.3-4.3
	c2-0.7,4-1.7,5.6-3c5.2-4.2,7.3-8.9,7.3-8.9s-10.1-0.7-14.9-0.2c2.6-5.5,2.6-10.2,2.6-10.2s-0.5,0-1.4,0.1c-1.7-0.5-5.3-1.4-8.5-2.1
	c1.6-1.2,3.1-2.6,4.1-4.2c3.4-5.1,4-9.8,4-9.8s-9,2.1-13.1,3.9c0.6-4.6-0.1-8.3-0.4-9.4c0.1-0.2,0.1-0.4,0.1-0.4s-2.4-0.2-5.2-0.3
	c-0.4-0.8-0.8-1.5-1.3-2.3c0.4-0.6,0.7-1.2,1-1.9c1.9-4.7,1.6-8.6,1.6-8.6s-3.7,1.7-6.9,3.5c-5.2-7.2-11.9-13.1-19.6-17.2
	c-27.7-14.7-51-17-67.7-33.6c-6.5-6.4-14.4-11.2-23-13.9c-23.2-7.4-45.9-11.1-64.7-11.1s-41.5,3.7-64.7,11.1
	c-8.6,2.8-16.6,7.5-23,13.9c-16.6,16.6-39.9,18.9-67.7,33.6c-7.7,4.1-14.4,9.9-19.6,17.2c-3.2-1.7-6.9-3.5-6.9-3.5s-0.3,3.9,1.6,8.6
	c0.3,0.6,0.6,1.3,1,1.9c-0.4,0.8-0.8,1.5-1.3,2.3c-2.8,0.1-5.2,0.3-5.2,0.3s0,0.1,0.1,0.4c-0.3,1.1-1,4.7-0.4,9.4
	c-4.1-1.7-13.1-3.9-13.1-3.9s0.6,4.8,4,9.8c1.1,1.6,2.6,3,4.1,4.2c-3.2,0.7-6.8,1.6-8.5,2.1c-0.8-0.1-1.4-0.1-1.4-0.1
	s0,4.7,2.6,10.2c-4.8-0.5-14.9,0.2-14.9,0.2s2.1,4.8,7.3,8.9c1.6,1.3,3.6,2.3,5.6,3c-2.6,1.4-5.5,3.2-7.3,4.3
	c-2,0.1-3.4,0.5-3.4,0.5s1.7,5.5,6.8,11.1c-5.8,1.2-17.4,5.6-17.4,5.6s4.2,4.8,11.8,7.8c2.4,0.9,5.1,1.4,7.7,1.5
	c-4.2,4.3-8.8,9.8-8.8,9.8s2.1,1.1,4.9,1.6c1.6,1.3,3.9,2.9,6.8,4.2c-4.2,3-11.9,10.6-11.9,10.6s5,2.4,12.1,2.1
	c2.2-0.1,4.5-0.7,6.7-1.5c-1.8,4.9-3.6,10.9-3.6,10.9s1,0.1,2.4-0.1c1.1,0.8,4.3,3,9.1,4.3c-3.4,3.4-9.4,11.5-9.4,11.5
	s5,1.4,11.5,0.1c2-0.4,4.1-1.3,5.9-2.4c-1,4.8-1.7,10.6-1.7,10.6s1.5-0.1,3.2-0.8c1.3,0.3,4.2,0.7,7.8,0.3
	c-1.5,3.6-3.5,11.6-3.5,11.6s4.2-0.5,8.7-3.5c1.4-0.9,2.7-2.3,3.7-3.7c0.8,3.9,2.1,8.5,2.1,8.5s3.2-1.7,4.4-4.7
	c15.8,12.6,34.3,23.3,53.3,30.7c10.2,4,20,6.5,29.1,7.7c7.3,1,14.3,3.4,20.6,7.3c12.5,7.5,29.7,12.2,48.5,12.2
	c18.8,0,36-4.6,48.5-12.2c6.4-3.8,13.4-6.3,20.6-7.3c9.1-1.2,18.9-3.7,29.1-7.7c19-7.4,37.5-18.1,53.3-30.7c1.2,3,4.4,4.7,4.4,4.7
	s1.3-4.6,2.1-8.5c1.1,1.4,2.3,2.7,3.7,3.7c4.5,3,8.7,3.5,8.7,3.5s-1.9-8-3.5-11.6c3.6,0.5,6.5,0,7.8-0.3c1.8,0.7,3.2,0.8,3.2,0.8
	s-0.7-5.8-1.7-10.6c1.9,1.1,3.9,2,5.9,2.4c6.5,1.3,11.5-0.1,11.5-0.1s-6-8.2-9.4-11.5c4.8-1.3,8.1-3.5,9.1-4.3
	c1.4,0.2,2.4,0.1,2.4,0.1s-1.8-6-3.6-10.9c2.1,0.8,4.5,1.4,6.7,1.5c7.1,0.3,12.1-2.1,12.1-2.1s-7.7-7.6-11.9-10.6
	c2.9-1.3,5.2-2.9,6.8-4.2c2.8-0.4,4.9-1.6,4.9-1.6s-4.6-5.5-8.8-9.8c2.6-0.1,5.4-0.6,7.7-1.5C717.5,518.9,721.7,514.1,721.7,514.1z
	 M303.2,499.6c0,0.2-0.1,0.4-0.1,0.7c-0.1-0.1-0.2-0.2-0.4-0.3C302.9,499.8,303,499.7,303.2,499.6z M314.4,556.3L314.4,556.3
	L314.4,556.3L314.4,556.3z M331.2,577.4c0.1,0.1,0.1,0.1,0.2,0.2c-0.1,0-0.1,0-0.2,0C331.2,577.5,331.2,577.5,331.2,577.4z
	 M697.3,499.9c-0.1,0.1-0.2,0.2-0.4,0.3c0-0.2-0.1-0.4-0.1-0.7C697,499.7,697.1,499.8,697.3,499.9z M668.7,577.6
	c0.1-0.1,0.1-0.1,0.2-0.2c0,0.1,0,0.1,0,0.2C668.8,577.6,668.7,577.6,668.7,577.6z M685.6,556.3L685.6,556.3L685.6,556.3
	L685.6,556.3z"/>
<path id="skin" d="M676.8,467.3c-12-32.2-37-35-54.6-44.2c-17.8-9.3-53.8-48.5-122.2-48.5s-104.4,39.1-122.2,48.5
	c-17.6,9.2-42.7,12-54.6,44.2c-12,32.2-7.1,65.2,11.3,72.4c83.7,32.4,135.1,38.7,165.5,29.6c30.4,9.1,81.8,2.8,165.5-29.6
	C683.9,532.5,688.7,499.5,676.8,467.3z"/>
<g id="skin2-L">
	<path  d="M663.8,476.5c-38.3-28.2-106.5,26.2-139.6,68c-5.4,6.8-9.8,13.8-13.3,20.7c-3.6-0.7-7.2-1.1-10.9-1.1
		c-3.7,0-7.4,0.4-10.9,1.1c-3.4-6.9-7.8-13.9-13.3-20.7c-33.1-41.8-101.2-96.2-139.6-68c-47.9,35.2,5.9,110.7,73.6,137
		c13.7,5.3,26.5,7.8,37.8,7.9c11.4,10.3,30.6,17,52.4,17c21.7,0,40.9-6.7,52.4-17c11.3-0.2,24.1-2.6,37.8-7.9
		C657.9,587.2,711.7,511.7,663.8,476.5z"/>
	<path  d="M567.1,421.6c-20.8,0-44.3,23.8-44.3,53.2c0,29.3,10.5,23.7,31.3,9.6c15.1-10.3,37.6-16.8,37.7-33.1
		C591.8,434.9,582.2,421.6,567.1,421.6z"/>
	<path d="M432.9,421.6c-15.1,0-24.7,13.3-24.6,29.7c0,16.4,22.6,22.8,37.7,33.1c20.7,14.1,31.3,19.7,31.3-9.6
		C477.2,445.4,453.7,421.6,432.9,421.6z"/>
</g>
</svg>
