<?xml version="1.0" encoding="utf-8"?>
<!-- Generator: Adobe Illustrator 26.0.1, SVG Export Plug-In . SVG Version: 6.00 Build 0)  -->
<svg version="1.1" id="Layer_2" xmlns="http://www.w3.org/2000/svg" xmlns:xlink="http://www.w3.org/1999/xlink" x="0px" y="0px"
	 viewBox="0 0 1000 1000" style="enable-background:new 0 0 1000 1000;" xml:space="preserve">
<style type="text/css">
	.st0{fill:#918E90;}
	.st1{fill:#E0C1B8;}
	.st2{fill:#EFD5CE;}
</style>
<path id="skin-D" 
d="M612.5,383.3c-41.7-34.2-97.2-25.6-111.4-25.6s-69.7-8.6-111.4,25.6
	c-50.9,41.8-93.4,59.8-91.1,130.5c0.9,27.2,18.8,60.8,54.1,72.6c48.1,16.1,52.7,57,148.4,57c95.7,0,100.3-40.8,148.4-57
	c35.3-11.9,53.2-45.4,54.1-72.6C705.9,443.1,663.4,425.1,612.5,383.3z"/>
<path id="skin" 
d="M601,391.3c-37.4-31.9-87.2-23.9-99.9-23.9s-62.5-8-99.9,23.9c-45.6,38.9-83.7,55.7-81.7,121.6
	c0.8,25.4,16.8,66.6,48.5,77.7c17,5.9,27.9,5.4,40.1,14.7c-0.4-3.8,0.1-7.8,1.3-12c5.8-20.2,28.9-39.2,51.5-42.3c0.1,0,0.2,0,0.2,0
	c2.9-0.4,5.1-2,5.5-3.4c0.1-0.3,0.2-0.6,0.4-0.8c4.4-8.9,20.5-10.1,34-10.1c25.7,0,31.8,5.3,34,10.1c0.2,0.2,0.3,0.5,0.4,0.8
	c0.4,1.4,2.6,3,5.5,3.4c0.1,0,0.2,0,0.2,0c22.6,3.1,45.7,22.1,51.5,42.3c1.2,4.2,1.6,8.2,1.3,12c12.2-9.3,23.2-8.8,40.1-14.7
	c31.7-11,47.7-52.3,48.5-77.7C684.8,447,646.6,430.2,601,391.3z"/>
<g id="skin-D">
	<path  d="M664.4,499.3c-3.7-7.8-11.5-12.9-21.4-15c-3-9.1-11.7-18-24.6-23.6c-22.3-9.8-68.8-6.4-79.2,7.5
		c-1.3,1.7-2.2,3.5-2.9,5.3c-8.3,9.2-0.2,10.7-7.5,21.7c-0.9-1.5-1.8-3.1-2.6-4.8c-1.5-3-2.7-6.3-3.4-9.7c-0.8-3.4-1.1-6.8-0.7-10.3
		c0.1-0.9,0.2-1.7,0.4-2.6l0-0.1c0,0,0-0.2,0,0.1l0-0.1l0-0.2l0.1-0.4c0.1-0.2,0.1-0.6,0.2-0.8c0.1-0.4,0.2-0.7,0.3-1.2
		c0.5-1.7,1.1-3.4,1.9-5.1c1.6-3.3,3.8-6.3,6.5-9.1c2.6-2.7,5.7-5.1,8.9-7.2c6.4-4.1,13.4-6.7,19.5-8.2c3.1-0.8,5.9-1.1,8.5-1.7
		c2.5-0.5,4.8-1,6.7-1.5c1.9-0.5,3.5-0.9,4.6-1.3c1.1-0.3,1.7-0.6,1.7-0.6s-0.5-0.4-1.5-1.1c-1-0.6-2.5-1.4-4.5-2.1
		c-2-0.7-4.5-1.3-7.4-1.5c-2.9-0.3-6.2,0-9.7,0.5c-7.1,1-15.3,3-23.6,7.1c-4.1,2.1-8.2,4.7-12.1,8c-1.9,1.6-3.7,3.5-5.4,5.4
		c-1.7,2-3.2,4.1-4.5,6.4c-1.3,2.3-2.5,4.7-3.4,7.2c-0.2,0.6-0.4,1.3-0.7,2l-0.2,0.9l-0.1,0.4l-0.1,0.2l-0.1,0.4
		c-0.3,1.3-0.6,2.6-0.8,4c-0.8,5.3-0.5,10.6,0.5,15.5c1,4.9,2.6,9.3,4.5,13.2c1.9,3.9,4,7.3,6.1,10.4c1.6,2.3,3.2,4.4,4.8,6.2
		c1.9,13,31.2,35.8,55.3,44.9c3.3,1.5,7.1,2.6,11.1,3.2c2.2,0.4,4.4,0.6,6.3,0.6c0.4,0,0.9,0,1.3,0c10.2,0.1,21.7-2.4,32.8-7.7
		C657.3,541.7,672.7,516.9,664.4,499.3z"/>
	<path  d="M337.9,499.3c3.7-7.8,11.5-12.9,21.4-15c3-9.1,11.7-18,24.6-23.6c22.3-9.8,68.8-6.4,79.2,7.5
		c1.3,1.7,2.2,3.5,2.9,5.3c8.3,9.2,0.2,10.7,7.5,21.7c0.9-1.5,1.8-3.1,2.6-4.8c1.5-3,2.7-6.3,3.4-9.7c0.8-3.4,1.1-6.8,0.7-10.3
		c-0.1-0.9-0.2-1.7-0.4-2.6l0-0.1c0,0,0-0.2,0,0.1l0-0.1l0-0.2l-0.1-0.4c-0.1-0.2-0.1-0.6-0.2-0.8c-0.1-0.4-0.2-0.7-0.3-1.2
		c-0.5-1.7-1.1-3.4-1.9-5.1c-1.6-3.3-3.8-6.3-6.5-9.1c-2.6-2.7-5.7-5.1-8.9-7.2c-6.4-4.1-13.4-6.7-19.5-8.2
		c-3.1-0.8-5.9-1.1-8.5-1.7c-2.5-0.5-4.8-1-6.7-1.5c-1.9-0.5-3.5-0.9-4.6-1.3c-1.1-0.3-1.7-0.6-1.7-0.6s0.5-0.4,1.5-1.1
		c1-0.6,2.5-1.4,4.5-2.1c2-0.7,4.5-1.3,7.4-1.5c2.9-0.3,6.2,0,9.7,0.5c7.1,1,15.3,3,23.6,7.1c4.1,2.1,8.2,4.7,12.1,8
		c1.9,1.6,3.7,3.5,5.4,5.4c1.7,2,3.2,4.1,4.5,6.4c1.3,2.3,2.5,4.7,3.4,7.2c0.2,0.6,0.4,1.3,0.7,2l0.2,0.9l0.1,0.4l0.1,0.2l0.1,0.4
		c0.3,1.3,0.6,2.6,0.8,4c0.8,5.3,0.5,10.6-0.5,15.5c-1,4.9-2.6,9.3-4.5,13.2c-1.9,3.9-4,7.3-6.1,10.4c-1.6,2.3-3.2,4.4-4.8,6.2
		c-1.9,13-31.2,35.8-55.3,44.9c-3.3,1.5-7.1,2.6-11.1,3.2c-2.2,0.4-4.4,0.6-6.3,0.6c-0.4,0-0.9,0-1.3,0c-10.2,0.1-21.7-2.4-32.8-7.7
		C345,541.7,329.5,516.9,337.9,499.3z"/>
</g>
<path id="skin-D" 
d="M554.2,536.3c0-5.3-24.2-29.3-53.5-29.3
	c-29.3,0-52.6,24-52.6,29.3s23.3-10.1,52.6-10.1C530,526.3,554.2,541.6,554.2,536.3z"/>
<g id="skin-L">
	<path  d="M674,519.5c3.3,4.7-1.2,34.4-22.2,49.1c-21,14.7-50.4,8.8-53.7,4.1c-3.3-4.7,20.8-6.4,41.8-21.1
		C660.8,536.9,670.7,514.8,674,519.5z"/>
	<path  d="M328.3,519.5c-3.3,4.7,1.2,34.4,22.2,49.1c21,14.7,50.4,8.8,53.7,4.1c3.3-4.7-20.8-6.4-41.8-21.1
		C341.4,536.9,331.6,514.8,328.3,519.5z"/>
	<path id="_x3C_Контур_x3E_" d="M550.4,401.2c0,6.1-22.1,29.2-49.3,29.2c-27.2,0-49.3-23.1-49.3-29.2
		c0-6.1,22.1,7.1,49.3,7.1C528.3,408.3,550.4,395.1,550.4,401.2z"/>
	<path 
d="M538.9,387c0,4.7-16.4,7-37.2,7c-20.9,0-38.4-2.3-38.4-7c0-4.7,17.5-10,38.4-10
		C522.5,377,538.9,382.3,538.9,387z"/>
</g>
</svg>
