<?xml version="1.0" encoding="utf-8"?>
<!-- Generator: Adobe Illustrator 26.0.1, SVG Export Plug-In . SVG Version: 6.00 Build 0)  -->
<svg version="1.1" id="bear" xmlns="http://www.w3.org/2000/svg" xmlns:xlink="http://www.w3.org/1999/xlink" x="0px" y="0px"
	 viewBox="0 0 1000 1000" style="enable-background:new 0 0 1000 1000;" xml:space="preserve">
<style type="text/css">
	.st0{fill:#7B5F74;}
	.st1{fill:#D29CA2;}
	.st2{fill:#F1B3BC;}
	.st3{fill:#FFECE9;}
</style>
<path id="skin-D"  
d="M670.1,436.9c-9.2-34.7-76.6-70.8-171.1-70.8c-94.5,0-161.8,36-171.1,70.8
	c-9.2,34.7-45.6,91.7-38.8,143.6c1.8,13.7,14.7,22.5,14.7,22.5c65.2-4.8,120.3,52.7,195.2,52.7s130-57.6,195.2-52.7
	c0,0,12.9-8.9,14.7-22.5C715.7,528.6,679.3,471.6,670.1,436.9z"/>
<path id="skin" 
d="M656.6,441.3c-8.5-32.7-70.6-66.6-157.6-66.6c-87.1,0-149.1,33.9-157.6,66.6
	c-8.5,32.7-42,86.2-35.8,135c1.7,12.9,13.5,21.2,13.5,21.2c60.1-4.5,159.3,49.6,179.9,49.6c20.6,0,119.8-54.1,179.9-49.6
	c0,0,11.9-8.3,13.5-21.2C698.7,527.5,665.1,473.9,656.6,441.3z"/>
<path id="skin-L"  d="M580.7,406.1c0,11-36.6,43.1-81.7,43.1c-45.1,0-81.7-32.1-81.7-43.1c0-11,36.6-19.8,81.7-19.8
	C544.1,386.2,580.7,395.1,580.7,406.1z"/>
<g id="skin2-L">
	<path  d="M455.2,561.1c1.3,6.5,4.1,10.8,7.8,10.8c6.3,0,12.8-12.3,14.6-27.5c1.7-15.2-2-27.5-8.3-27.5
		c-1.6,0-8.2,0.8-17.1,2.2c1.7-2.5,2.6-5.2,2.6-8c0-13.4-21-24.2-46.8-24.2c-22.9,0-50.6,8.7-56.8,17.3l-0.3-0.2
		c-14.1,25.8-6.1,60.3,17.8,77.1C390.1,596,435.5,582.4,455.2,561.1z"/>
	<path 
d="M646.8,504.3c-6.1-8.7-33.9-17.3-56.8-17.3c-25.8,0-46.8,10.9-46.8,24.2c0,2.8,0.9,5.5,2.6,8
		c-8.9-1.4-15.5-2.2-17.1-2.2c-6.3,0-10,12.3-8.3,27.5c1.7,15.2,8.3,27.5,14.6,27.5c3.7,0,6.5-4.2,7.8-10.8
		c19.7,21.4,65.1,35,86.4,20c24-16.8,32-51.3,17.8-77.1L646.8,504.3z"/>
	<path  d="M694.6,580.4l27.3,16c-10.7-39.1-42.9-25.1-42.9-25.1l13,7.6c-13.9-7.2-29.1-2.1-29.1-2.1l16.6,11.8
		c-10-5.3-20.9-3.1-20.9-3.1l36.8,33.5c-0.8-13.4-5.1-21.6-10.5-26.6l27.6,19.5C709.3,594.9,702.4,585.5,694.6,580.4z"/>
	<path  
d="M318.5,588.6l16.6-11.8c0,0-15.3-5.1-29.1,2.1l13-7.6c0,0-32.3-14-42.9,25.1l27.3-16
		c-7.8,5-14.8,14.5-17.9,31.5l27.6-19.5c-5.4,5-9.7,13.2-10.5,26.6l36.8-33.5C339.4,585.4,328.5,583.2,318.5,588.6z"/>
	<path  d="M412.8,616.6c39.5,14,74.8,30.5,86.2,30.5c11.4,0,46.7-16.5,86.2-30.5c-21.9-18.6-52.4-30.1-86.2-30.1
		C465.2,586.4,434.6,598,412.8,616.6z"/>
</g>
</svg>
