<?xml version="1.0" encoding="utf-8"?>
<!-- Generator: Adobe Illustrator 26.0.1, SVG Export Plug-In . SVG Version: 6.00 Build 0)  -->
<svg version="1.1" id="bear" xmlns="http://www.w3.org/2000/svg" xmlns:xlink="http://www.w3.org/1999/xlink" x="0px" y="0px"
	 viewBox="0 0 1000 1000" style="enable-background:new 0 0 1000 1000;" xml:space="preserve">
<path id="skin-D" d="M651.1,401.7c-13.5-19.8-67.6-39.3-151.1-39.3s-137.6,19.5-151.1,39.3c-117.4,172.3,67.6,247,151.1,247
	S768.5,574,651.1,401.7z"/>
<path id="skin" d="M667.2,457.5c-9.9-46.9-80.6-88-167.1-88s-157.3,41.1-167.1,88c-28,133.2,114.9,184.4,167.1,184.4
	S695.2,590.7,667.2,457.5z"/>
<path id="skin-L" d="M581.6,407.5c0,16.8-36.5,65.9-81.6,65.9s-81.6-49.1-81.6-65.9s36.5-30.4,81.6-30.4S581.6,390.7,581.6,407.5z"
	/>
</svg>
