<?xml version="1.0" encoding="utf-8"?>
<!-- Generator: Adobe Illustrator 26.0.1, SVG Export Plug-In . SVG Version: 6.00 Build 0)  -->
<svg version="1.1" id="bear" xmlns="http://www.w3.org/2000/svg" xmlns:xlink="http://www.w3.org/1999/xlink" x="0px" y="0px"
	 viewBox="0 0 1000 1000" style="enable-background:new 0 0 1000 1000;" xml:space="preserve">
<style type="text/css">
	.st0{fill:#32C682;}
	.st1{fill:#2CE589;}
	.st2{fill:#5BF4A4;}
</style>
<path id="skin-D"  d="M671,518.9c28.7-154.6-86.2-161.2-171-161.2c-84.9,0-199.7,6.6-171,161.2c-0.5-0.5-35,23-14.3,56.4
	c20.7,33.5,90.8,67.1,185.3,67.1s164.6-33.6,185.3-67.1C706,541.8,671.5,518.3,671,518.9z"/>
<path id="skin"  d="M655.8,517.1c25-145.4-81.8-141-155.8-141c-74,0-180.8-4.5-155.8,141c2.8,16.5-24.1,22.3-6,53.7
	c18.1,31.5,79.4,63.1,161.9,63.1s143.8-31.6,161.9-63.1C679.9,539.3,653,533.5,655.8,517.1z"/>
<path id="skin-L"  d="M599.3,402.4c0,7.9-44.4,31.2-99.3,31.2s-99.3-23.2-99.3-31.2c0-7.9,44.4-20.9,99.3-20.9
	S599.3,394.4,599.3,402.4z"/>
</svg>
