<?xml version="1.0" encoding="utf-8"?>
<!-- Generator: Adobe Illustrator 26.0.1, SVG Export Plug-In . SVG Version: 6.00 Build 0)  -->
<svg version="1.1" id="head" xmlns="http://www.w3.org/2000/svg" xmlns:xlink="http://www.w3.org/1999/xlink" x="0px" y="0px"
	 viewBox="0 0 1000 1000" style="enable-background:new 0 0 1000 1000;" xml:space="preserve">
<path id="skin-D" d="M670.8,483c-12-75.9-86-121.2-170.8-121.2S341.1,407.2,329.2,483c-3.8,24.2-35,63-14.3,96.4
	c20.7,33.5,90.6,67.1,185.1,67.1s164.4-33.6,185.1-67.1C705.9,546,674.7,507.2,670.8,483z"/>
<path id="skin" d="M655.7,481.2c-10-80.1-81.6-101-155.7-101c-74,0-145.7,20.9-155.7,101c-2.1,16.6-24.1,62.3-6,93.7
	C356.4,606.4,417.6,638,500,638s143.6-31.6,161.7-63.1C679.8,543.5,657.7,497.8,655.7,481.2z"/>
<path id="skin-L" d="M583.5,413.6c0,11.8-37.4,46.3-83.5,46.3s-83.5-34.5-83.5-46.3s37.4-24,83.5-24S583.5,401.9,583.5,413.6z"/>
<g id="skin-D">
	<path d="M636.1,514c-3.6,15.4-28.5,34.3-55.7,42.1s-60.2-27.5-56.6-43s28.5-34.3,55.7-42.1C606.7,463.3,639.7,498.6,636.1,514z"/>
	<path d="M363.9,514c3.6,15.4,28.5,34.3,55.7,42.1s60.2-27.5,56.6-43c-3.6-15.4-28.5-34.3-55.7-42.1
		C393.3,463.3,360.3,498.6,363.9,514z"/>
</g>
</svg>
