<?xml version="1.0" encoding="utf-8"?>
<!-- Generator: Adobe Illustrator 26.0.1, SVG Export Plug-In . SVG Version: 6.00 Build 0)  -->
<svg version="1.1" id="head" xmlns="http://www.w3.org/2000/svg" xmlns:xlink="http://www.w3.org/1999/xlink" x="0px" y="0px"
	 viewBox="0 0 1000 1000" style="enable-background:new 0 0 1000 1000;" xml:space="preserve">
<style type="text/css">
	.st0{fill:#513786;}
	.st1{fill:#7785BD;}
	.st2{fill:#8C9DD1;}
</style>
<path id="skin-D" 
d="M500,358.3c-102,0-186.2,72.1-199.5,139.7c13.3,73.3,97.5,139.8,199.5,139.8
	c102,0,186.2-66.5,199.5-139.8C686.2,430.4,602,358.3,500,358.3z"/>
<path id="skin" 
d="M500,365.5c-90.6,0-165.5,69.4-177.2,133.5c11.8,69.5,86.6,131.5,177.2,131.5
	c90.6,0,165.5-62,177.2-131.5C665.5,434.9,590.6,365.5,500,365.5z"/>
<path id="skin-L"
d="M580,402.9c0,19.6-35.8,29.5-80,29.5c-44.2,0-80-9.9-80-29.5c0-19.6,35.8-35.4,80-35.4
	C544.2,367.5,580,383.3,580,402.9z"/>
<path id="skin-D"
d="M500,450.8c-91.1,0-165.9,30.4-174.2,69.3
	c3.3,18.9,16.8,36.2,37.6,50.3c12.9,5.1,27.5,8,43,8c29.1,0,55-10.1,72.2-26c11.4-10.5,28.7-10.5,40.1,0c17.2,15.9,43.1,26,72.2,26
	c18.6,0,35.9-4.1,50.4-11.3c18.1-13.4,29.9-29.5,32.9-47C665.9,481.3,591.1,450.8,500,450.8z"/>
</svg>
