<?xml version="1.0" encoding="utf-8"?>
<!-- Generator: Adobe Illustrator 26.0.1, SVG Export Plug-In . SVG Version: 6.00 Build 0)  -->
<svg version="1.1" id="head" xmlns="http://www.w3.org/2000/svg" xmlns:xlink="http://www.w3.org/1999/xlink" x="0px" y="0px"
	 viewBox="0 0 1000 1000" style="enable-background:new 0 0 1000 1000;" xml:space="preserve">
<style type="text/css">
	.st0{fill:#823853;}
	.st1{fill:#BC778C;}
	.st2{fill:#D18BA4;}
</style>
<path id="skin-D" d="M500,352.5c-102,0-199.4,48.6-199.4,123.6S359.9,643.6,500,643.6s199.4-92.5,199.4-167.5
	S602,352.5,500,352.5z"/>
<path id="skin" d="M500,635.4c125,0,164.3-81.6,176-158.1c-11.7-82.9-86-110.9-176-110.9c-89.9,0-164.3,27.9-176,110.9
	C335.8,553.8,375.1,635.4,500,635.4z"/>
<path id="skin-L" d="M580,402.2c0,19.6-35.8,29.5-80,29.5c-44.2,0-80-9.9-80-29.5c0-19.6,35.8-35.4,80-35.4
	C544.2,366.8,580,382.6,580,402.2z"/>
<path id="skin-D"
d="M500,553.1c91.1,0,165.9-23.4,174.2-53.2
	c-3.3-14.5-16.8-27.8-37.6-38.6c-12.9-3.9-27.5-6.1-43-6.1c-29.1,0-55,7.8-72.2,19.9c-11.4,8-28.7,8-40.1,0
	c-17.2-12.2-43.1-19.9-72.2-19.9c-18.6,0-35.9,3.2-50.4,8.6c-18.1,10.3-29.9,22.7-32.9,36.1C334.1,529.7,408.9,553.1,500,553.1z"/>
</svg>
