<?xml version="1.0" encoding="utf-8"?>
<!-- Generator: Adobe Illustrator 26.0.1, SVG Export Plug-In . SVG Version: 6.00 Build 0)  -->
<svg version="1.1" id="head" xmlns="http://www.w3.org/2000/svg" xmlns:xlink="http://www.w3.org/1999/xlink" x="0px" y="0px"
	 viewBox="0 0 1000 1000" style="enable-background:new 0 0 1000 1000;" xml:space="preserve">
<style type="text/css">
	.st0{fill:#384A82;}
	.st1{fill:#7784BB;}
	.st2{fill:#8A9CD1;}
</style>
<path id="skin-D"
d="M499,354.2c-99.4,0-187.1,48.6-187.1,123.6c0,30.1,30.5,58.5,35.7,85.7
	c8.9,47.1,69.5,81.8,151.4,81.8s142.5-34.7,151.4-81.8c5.8-30.3,35.7-52.4,35.7-85.7C686.1,402.8,598.4,354.2,499,354.2z"/>
<path id="skin"
d="M499,361.9c-87.7,0-160.2,41.7-171.6,109.8l42.5,74.5c8.6,66.3,63.1,88.6,129.1,88.6
	c66,0,120.5-22.3,129.1-88.6l42.5-74.5C659.2,403.6,586.7,361.9,499,361.9z"/>
<path id="skin-L" d="M608.4,426.8c0,31.7-49,20.7-109.4,20.7c-60.4,0-109.4,11-109.4-20.7c0-31.7,49-57.4,109.4-57.4
	C559.4,369.4,608.4,395.1,608.4,426.8z"/>
</svg>
