<?xml version="1.0" encoding="utf-8"?>
<!-- Generator: Adobe Illustrator 26.0.1, SVG Export Plug-In . SVG Version: 6.00 Build 0)  -->
<svg version="1.1" id="head" xmlns="http://www.w3.org/2000/svg" xmlns:xlink="http://www.w3.org/1999/xlink" x="0px" y="0px"
	 viewBox="0 0 1000 1000" style="enable-background:new 0 0 1000 1000;" xml:space="preserve">
<path id="blacks" d="M499,655c16-2.3,47.2-9.6,75.6-21c-2.2,7-4.6,13-7.1,17.5c10.4-1.3,41-15.9,63.5-40.4c0.5,11.8,0.1,22-1.7,29.3
	c10.7-4.7,40.4-31.6,53.7-64.6c3.5,9.9,5.9,18.8,6.5,25.8c9.4-9.7,31.7-55.7,28.6-97.9c10.6,11.4,19.5,22.2,24.4,30.7
	c1.5-12.2-7.1-68.7-33.6-103.1c-1.8-42.2-29-63.1-55.5-73.4c-6.1-35.4-45.3-42.5-74.2-42.8c-17.1-29-72.8-17.3-80.2-15.6
	c-7.4-1.7-63-13.5-80.2,15.6c-28.9,0.3-68,7.4-74.2,42.8c-26.5,10.4-53.7,31.3-55.5,73.4c-26.6,34.5-35.2,90.9-33.6,103.1
	c4.9-8.4,13.9-19.2,24.4-30.7c-3.1,42.3,19.2,88.3,28.6,97.9c0.6-7,3-15.9,6.5-25.8c13.3,33,43,59.9,53.7,64.6
	c-1.8-7.3-2.2-17.5-1.7-29.3c22.5,24.5,53,39.1,63.5,40.4c-2.6-4.5-4.9-10.5-7.1-17.5C451.8,645.5,483,652.7,499,655z"/>
<path id="skin-D" d="M612.2,583.1c9.1-4.2,18.2-7.4,26.8-9.7c3-2.5,5.7-4.8,8-7c28.3-27.3,24.4-105.6,11.9-130
	c-12.6-24.4-97-77.3-159.8-77.3S351.8,412,339.3,436.4c-12.6,24.4-16.4,102.7,11.9,130c2.3,2.2,4.9,4.5,8,7
	c8.6,2.2,17.7,5.5,26.8,9.7c23,10.6,41,25,49.7,38.3c27.2,14.2,52.6,24.9,63.4,24.9s36.2-10.7,63.4-24.9
	C571.1,608.2,589.2,593.8,612.2,583.1z"/>
<path id="skin" d="M633.3,440.2c-10.6-23.1-81.6-73-134.3-73c-52.8,0-123.8,50-134.3,73c-10.6,23.1-13.8,96.9,10,122.7
	c15.7,17.1,56.2,9,87.7,1.6c-11.4,11.4-18.7,25-18.7,30.1c0,9.4,24.8,17.1,55.3,17.1s55.3-7.6,55.3-17.1c0-5.1-7.2-18.7-18.7-30.1
	c31.5,7.4,72,15.4,87.7-1.6C647.1,537.1,643.9,463.2,633.3,440.2z"/>
<g id="skin-L">
	<path d="M627.9,505.9c0,20.5-34.6,42-57.2,45.2c-22.6,3.2-33.5,8.7-37.5,4.7c-16.7-50,14.9-75.8,37.5-79
		C593.3,473.7,627.9,485.4,627.9,505.9z"/>
	<path d="M370.1,505.9c0,20.5,34.6,42,57.2,45.2s33.5,8.7,37.5,4.7c16.7-50-14.9-75.8-37.5-79C404.7,473.7,370.1,485.4,370.1,505.9z
		"/>
	<path d="M575.5,410.2c0,6.1-34.3,11-76.5,11s-76.5-4.9-76.5-11s34.3-31,76.5-31S575.5,404.1,575.5,410.2z"/>
</g>
</svg>
