<?xml version="1.0" encoding="utf-8"?>
<!-- Generator: Adobe Illustrator 19.2.0, SVG Export Plug-In . SVG Version: 6.00 Build 0)  -->
<svg version="1.0" id="bear" xmlns="http://www.w3.org/2000/svg" xmlns:xlink="http://www.w3.org/1999/xlink" x="0px" y="0px"
	 viewBox="0 0 1000 1000" enable-background="new 0 0 1000 1000" xml:space="preserve">
<path id="skin-D" fill="#EF533F" d="M714.24,531.19c-4.51-44.91-30.66-88.4-37.86-99.66c-0.44-0.99-0.88-1.94-1.34-2.81
	c-13.76-26.28-106.27-67.1-175.04-67.1c-68.78,0-161.29,40.82-175.04,67.11c-0.46,0.87-0.9,1.81-1.34,2.81
	c-7.21,11.26-33.35,54.74-37.86,99.66c-4.22,41.92,3.11,59.32,3.11,59.32l15.9,2.54c0,0,8.69,21.94,40.64,31.57
	c5.62-4.7,9.18-10.31,9.18-10.31s24.68,21.45,55.07,29c12.3-2.5,24.19-5.72,34.2-8.75c24.5,11.87,46.05,20.15,56.14,20.15
	s31.63-8.28,56.13-20.15c10.01,3.04,21.9,6.25,34.2,8.75c30.39-7.55,55.07-29,55.07-29s3.56,5.62,9.18,10.31
	c31.97-9.63,40.64-31.57,40.64-31.57l15.9-2.54C711.12,590.51,718.45,573.1,714.24,531.19z"/>
<path id="skin" fill="#FF8844" d="M647.13,432.73c-11.57-24.81-89.33-62.44-147.13-62.44s-135.58,37.62-147.13,62.44
	c-11.57,24.81-58.9,104.35-32.89,132.12c15.33,16.37,67.45,33.73,112.2,45.23c18.17,17.6,41.88,32.22,67.82,32.22
	s49.65-14.61,67.82-32.22c44.74-11.5,96.86-28.86,112.2-45.23C706.03,537.07,658.69,457.54,647.13,432.73z M572.58,547.33
	c-17.87,3.16-34.4-6.68-47.76-18.18c-14.19-12.21-35.45-12.21-49.65,0c-13.37,11.5-29.89,21.35-47.76,18.18
	c-44.55-7.89-80.67-12.85-80.67-37.62s36.12-60.01,80.67-52.12c11.97,2.12,23.33,5.57,33.55,9.99c24.81,10.71,53.27,10.71,78.08,0
	c10.22-4.41,21.58-7.87,33.55-9.99c44.55-7.89,80.67,27.34,80.67,52.12C653.25,534.48,617.13,539.44,572.58,547.33z"/>
<g id="skin-L">
	<path id="_x3C_path_x3E__1_" fill="#FFA476" d="M583.78,400.43c0,6.55-37.51,11.84-83.78,11.84s-83.78-5.3-83.78-11.84
		c0-6.55,37.51-17.22,83.78-17.22S583.78,393.88,583.78,400.43z"/>
</g>
</svg>
