<?xml version="1.0" encoding="utf-8"?>
<!-- Generator: Adobe Illustrator 26.0.1, SVG Export Plug-In . SVG Version: 6.00 Build 0)  -->
<svg version="1.1" id="head" xmlns="http://www.w3.org/2000/svg" xmlns:xlink="http://www.w3.org/1999/xlink" x="0px" y="0px"
	 viewBox="0 0 1000 1000" style="enable-background:new 0 0 1000 1000;" xml:space="preserve">
<path id="skin-D" d="M709,485.3c0,68-94,163.2-210,163.2s-210-95.2-210-163.2s94-123,210-123S709,417.3,709,485.3z"/>
<path id="skin" d="M669,434.4c-9.9-25.5-79.5-64-170-64s-160.1,38.6-170,64c-9.9,25.5-28.4,62.8-6.1,91.3
	c13.1,16.8,79.8,78.7,118.1,90.5c15.6,18.1,35.9,22,58,22s42.5-4,58-22c38.3-11.8,104.9-73.7,118.1-90.5
	C697.4,497.2,678.9,459.9,669,434.4z"/>
<path id="skin-L" d="M614,412.8c0,13.1-51.4,23.7-115,23.7s-115-10.6-115-23.7s51.4-34.5,115-34.5S614,399.7,614,412.8z"/>
</svg>
