<?xml version="1.0" encoding="utf-8"?>
<!-- Generator: Adobe Illustrator 26.0.1, SVG Export Plug-In . SVG Version: 6.00 Build 0)  -->
<svg version="1.1" id="head" xmlns="http://www.w3.org/2000/svg" xmlns:xlink="http://www.w3.org/1999/xlink" x="0px" y="0px"
	 viewBox="0 0 1000 1000" style="enable-background:new 0 0 1000 1000;" xml:space="preserve">
<path id="skin-D" d="M499,358.2c-115.9,0-226.6,71.7-219.7,143.3c1.8,19.2,51.3,66.4,95.2,95.6c44.4,29.6,65.5,64.3,124.5,64.3
	s80.1-34.7,124.5-64.3c43.8-29.2,93.3-76.4,95.2-95.6C725.6,429.9,614.9,358.2,499,358.2z"/>
<path id="skin" d="M669.4,434.7c-9.9-26.9-80-67.8-170.4-67.8s-160.6,40.8-170.4,67.8c-9.9,26.9-37.2,77.3-6.1,96.7
	c62.6,39.1,99.6,74.3,118,95.9c18.4,21.5,36.3,23.3,58.5,23.3c22.2,0,40.1-1.7,58.5-23.3c18.4-21.5,55.4-56.7,118-95.9
	C706.6,511.9,679.3,461.6,669.4,434.7z"/>
<path id="skin-L" d="M626.8,439.1c10.4-4.3,16.8-9.1,16.8-14.1c0-18.9-90.7-49.8-144.8-49.8S353.9,406.1,353.9,425
	c0,5,6.4,9.8,16.8,14.1c-14.5,8.5-25.8,18-24.5,22.9c2.3,8.7,111.1-15.4,152.6-15.4c41.4,0,150.2,24,152.6,15.4
	C652.7,457.1,641.4,447.6,626.8,439.1z"/>
</svg>
