<?xml version="1.0" encoding="utf-8"?>
<!-- Generator: Adobe Illustrator 26.0.1, SVG Export Plug-In . SVG Version: 6.00 Build 0)  -->
<svg version="1.1" id="head" xmlns="http://www.w3.org/2000/svg" xmlns:xlink="http://www.w3.org/1999/xlink" x="0px" y="0px"
	 viewBox="0 0 1000 1000" style="enable-background:new 0 0 1000 1000;" xml:space="preserve">
<path id="skin-D" d="M499,362.5c-109.5,0-203.1,67.8-196.7,135.5c0.8,9.1,1.9,24.8,19.1,41.6c4.8,27.1,13.8,60.5,30.3,74.8
	c39.3,33.9,145,34.7,145,34.7h-0.1c0.8,0,1.6,0,2.4,0s1.6,0,2.4,0h-0.1c0,0,105.7-0.8,145-34.7c16.5-14.3,25.5-47.7,30.3-74.8
	c17.1-16.8,18.1-32.5,19.1-41.6C702.1,430.3,608.5,362.5,499,362.5z"/>
<path id="skin" d="M660.2,434.7c-9.3-25.5-75.6-64.1-161.2-64.1s-151.8,38.7-161.2,64.1c-9.3,25.5-35.2,73.1-5.7,91.4
	c50.2,31.4,82.9,60.1,102.3,80.4v0.1c-28.4-4.6-54.8-13.5-73.3-24.4c-3.8-2.2-8.4,1.7-6.5,5.8l0,0c11.3,24.4,66.4,46.9,123,50.4
	c7.5,0.4,14.6,0.5,21.4,0.3c6.8,0.2,13.9,0.1,21.4-0.3c56.6-3.5,111.6-26.2,123-50.4c0,0,0-0.1,0.1-0.1c1.8-4-2.6-7.9-6.5-5.7
	c-18.5,10.9-44.9,19.8-73.3,24.4c0,0-0.1,0,0-0.1c19.4-20.4,52.1-49,102.3-80.4C695.3,507.8,669.5,460.3,660.2,434.7z"/>
<g id="skin-L">
	<path d="M445.4,624.2c0,6.5,18.1,18.2,53.6,18.2c35.4,0,53.6-11.8,53.6-18.2c0-24.5-48.1-16.1-53.6-16.1
		C493.5,608.1,445.4,599.9,445.4,624.2z"/>
	<path d="M592.8,423.7c3.5-11.5-2.4-23.8-13.7-28.2c-25.3-9.6-56.7-17.2-80.2-17.2c-23.4,0-54.8,7.4-80.2,17.2
		c-11.2,4.3-17.2,16.6-13.7,28.2l3.9,12.9c2.3,7.7,8.7,13.7,16.5,15.6c23.9,5.9,52,9.7,73.3,9.7c21.4,0,49.4-3.8,73.3-9.7
		c7.8-1.9,14.1-7.8,16.5-15.6L592.8,423.7z"/>
</g>
</svg>
