<?xml version="1.0" encoding="utf-8"?>
<!-- Generator: Adobe Illustrator 26.0.1, SVG Export Plug-In . SVG Version: 6.00 Build 0)  -->
<svg version="1.1" id="head" xmlns="http://www.w3.org/2000/svg" xmlns:xlink="http://www.w3.org/1999/xlink" x="0px" y="0px"
	 viewBox="0 0 1000 1000" style="enable-background:new 0 0 1000 1000;" xml:space="preserve">
<style type="text/css">
	.st0{fill:#A03732;}
	.st1{fill:#B74444;}
	.st2{fill:#C65858;}
	.st3{fill:#A4DDDD;}
</style>
<path id="skin-D"
d="M499,364.9c-123.8,0-225,120.3-225,187.1s101.2,94.6,225,94.6c123.8,0,225-27.8,225-94.6
	S622.8,364.9,499,364.9z"/>
<path id="skin"
d="M499,372.6c-109.9,0-199.8,113.8-199.8,177S389.1,639,499,639s199.8-26.3,199.8-89.5
	S608.9,372.6,499,372.6z"/>
<path id="skin-L"
d="M594,422.2c0-13.6-32.9-38.2-97.2-38.2s-97.2,24.6-97.2,38.2c0,51.3,87.3,33.8,97.2,33.8
	C506.8,456,594,473.5,594,422.2z"/>
<path id="skin2-L"
d="M312.6,587.3c29,36,101.7,51.7,186.4,51.7c83.6,0,155.5-15.2,185.2-50.3
	c-30.9-14.2-93.7,11-187.4,11C406.2,599.8,344.5,573.7,312.6,587.3z"/>
</svg>
