<?xml version="1.0" encoding="utf-8"?>
<!-- Generator: Adobe Illustrator 26.0.1, SVG Export Plug-In . SVG Version: 6.00 Build 0)  -->
<svg version="1.1" id="head" xmlns="http://www.w3.org/2000/svg" xmlns:xlink="http://www.w3.org/1999/xlink" x="0px" y="0px"
	 viewBox="0 0 1000 1000" style="enable-background:new 0 0 1000 1000;" xml:space="preserve">
<path id="skin-D" d="M714.1,461.6C691.1,405.4,603.2,349,499,349s-192.1,56.6-215.1,112.6c-6.4,11.9-9.9,24.3-9.9,36.6
	c0,66.5,101.3,147.3,225,147.3s225-80.7,225-147.3C724,485.9,720.5,473.6,714.1,461.6z"/>
<path id="skin" d="M685.7,440.8c-1.2-1.8-2.5-3.5-4-5.1C651.6,394.2,580.9,357,498.9,357c-81.9,0-152.7,37.1-182.8,78.6
	c-1.4,1.6-2.8,3.3-4,5.1c-10.5,15.6-16.4,32.3-16.4,48.9c0,41,35.4,87.2,89.1,116.4c20.4-27.4,58.6-52.7,114-52.7
	s93.6,25.4,114,52.7c53.7-29.2,89.1-75.5,89.1-116.4C702.1,473,696.3,456.4,685.7,440.8z"/>
<path id="skin-L" d="M603,395.2c0-11.5-35.2-32.3-104-32.3s-104,20.8-104,32.3c0,43.3,93.3,28.5,104,28.5
	C509.6,423.8,603,438.6,603,395.2z"/>
</svg>
