<?xml version="1.0" encoding="utf-8"?>
<!-- Generator: Adobe Illustrator 24.0.1, SVG Export Plug-In . SVG Version: 6.00 Build 0)  -->
<svg version="1.1" id="head" xmlns="http://www.w3.org/2000/svg" xmlns:xlink="http://www.w3.org/1999/xlink" x="0px" y="0px"
	 viewBox="0 0 1000 1000" style="enable-background:new 0 0 1000 1000;" xml:space="preserve">
<path id="skin-D" d="M695.7,513.6c-0.6-6.8-1.4-17.4-9-29.3c-5.5-8.7-20.7-17.7-24.7-27.1c-10.1-23.5-22.1-48.2-35.7-60
	c-39.3-33.9-97.7-34.7-127.3-34.7s-88,0.8-127.3,34.7c-14,12.2-27.1,38.1-36.6,62.3c-3.2,8-17.4,15.6-22.3,22.7
	c-8.9,12.8-9.7,24.2-10.5,31.5c-6.4,67.7,87.2,135.5,196.7,135.5C608.5,649.1,702.1,581.3,695.7,513.6z"/>
<path id="skin" d="M685.3,533.2c0.9-3.5,1.2-7.1,0.9-11c-0.5-6.2-0.3-15-6.4-24.6c-1.7-2.7-5.7-6.3-9.5-9.7
	c-6.3-5.7-12.9-19.6-16-26.9c-8.1-18.9-20.3-39.3-33-50.4c-37.4-32.3-65.1-42.2-120.8-42.2s-83.4,9.9-120.8,42.2
	c-10.6,9.2-22.6,23.9-33.9,52.4c-2.8,7-9.2,20.3-15.4,25.3c-3.1,2.6-6.7,5.5-8,7.3c-7,10-8,19.6-8.7,26.2c-0.3,3.4-0.1,6.6,0.7,9.7
	c6,43.4,44.7,69.9,83.8,85.7c2.5,1.2,5,2.3,7.8,3.4c29.3,11.9,62,25.2,94.5,25.2s65.2-13.3,94.5-25.2c4.4-1.8,8.5-3.7,12.3-5.7
	C644,599.3,678.9,573.7,685.3,533.2z"/>
<g id="skin-L">
	<path d="M500,449.7c7.5,0,72.8-12.2,72.8-45.2c0-8.8-24.6-24.7-72.8-24.7c-48.1,0-72.8,16-72.8,24.7
		C427.2,437.8,492.6,449.7,500,449.7z"/>
	<path d="M500,579.8c-81.3,0-147.3-39.7-147.3-22.3s66,84.9,147.3,84.9s147.3-67.5,147.3-84.9S581.3,579.8,500,579.8z"/>
</g>
</svg>
