<?xml version="1.0" encoding="utf-8"?>
<!-- Generator: Adobe Illustrator 24.0.1, SVG Export Plug-In . SVG Version: 6.00 Build 0)  -->
<svg version="1.1" id="Layer_1" xmlns="http://www.w3.org/2000/svg" xmlns:xlink="http://www.w3.org/1999/xlink" x="0px" y="0px"
	 viewBox="0 0 1000 1000" style="enable-background:new 0 0 1000 1000;" xml:space="preserve">
<path id="skin-D" d="M683.8,509.2c-0.4-2.3-0.5-4.5-0.7-6.9c-2.1-29.6-9.4-73.2-33.9-89.3c-9.8-6.4-17.6-4.8-23.8,1.3
	c-7.9-18.3-18.7-34.7-33.6-41.2c-10.1-4.5-17.3-1.6-22.2,5.3c-9.3-11.4-20-20.3-31.7-23.1c-8.8-1.9-14.5,0.8-18.2,6.3
	c0,0-5.7-6.4-19.7-9.6c-13.9,3.1-19.7,9.6-19.7,9.6c-3.7-5.6-9.4-8.3-18.2-6.3c-11.7,2.6-22.4,11.5-31.7,23.1
	c-5-6.9-12-9.9-22.2-5.3c-14.8,6.5-25.6,23.1-33.6,41.2c-6.2-6.1-14.1-7.8-23.8-1.3c-24.6,16.1-31.8,59.7-33.9,89.3
	c-0.1,2.3-0.4,4.5-0.7,6.9c-0.9,7.1-1,14.3-0.1,21.3C328.5,634.1,452.8,646.4,498,647c-0.5,0-0.4,0,0.9,0c0.5,0,0.9,0,1.3,0
	c0.5,0,0.9,0,1.3,0c1.2,0,1.3,0,0.9,0c45.1-0.6,169.5-12.9,181.7-116.5C684.9,523.5,684.8,516.4,683.8,509.2z"/>
<path id="skin" d="M675.1,514.2c-0.2-2.5-0.5-5-0.6-7.1c-2.6-39.9-12.5-67.3-27.4-76.7c-4.3-2.6-8-3.4-13,1.2l-9.5,8.9l-6.2-14.3
	c-5.5-12.5-14.7-28.2-27.1-33.5c-4.3-1.8-8-2-11.9,3.2l-6.7,8.8l-8.6-10.2c-8.5-10.4-17-16.5-25.1-18.2c-4.5-0.9-7.1-0.1-9.4,3.1
	l-6.9,10.2l-8.5-10.7c-0.9-0.7-5-4-14.1-5.8c-9.1,1.9-13.2,5.1-14.1,5.8l-8.5,10.7l-6.9-10.2c-2.2-3.2-4.8-4.2-9.4-3.1
	c-7.9,1.9-16.4,7.9-25.1,18.2l-8.6,10.2l-6.7-8.8c-3.9-5.2-7.6-5-11.9-3.2c-12.5,5.3-21.7,21-27.1,33.5l-6.2,14.3l-9.5-8.9
	c-5-4.6-8.8-3.8-13-1.2c-14.9,9.5-25,37-27.4,76.7c-0.1,2.1-0.2,4.6-0.6,7.1c-0.7,6.2,9.1,11.8,9.8,17.6
	c5.6,39.1,40.8,68.2,80.2,85.6c31.3,13.8,62.1,16.8,82.4,17.2c-0.8,0-0.9,0,0.5,0c0.6,0,1,0,1.6,0c1,0,2.1,0,3.1,0
	c1.6,0,1.1,0,0.1,0c20.1-0.4,51.2-3.2,82.7-17.2c39.4-17.4,74.6-46.5,80.2-85.6C666.2,526.1,675.9,520.4,675.1,514.2z"/>
<path id="skin-L" d="M650.2,528.7c-1.4-5.6-2.5-11-3-16.4c-0.6-6.3-1.6-13.8-3-22.6c-1.4-9.3-14.7-35.2-26.1-35.7
	c-5.6-0.4-9.7,5.3-12.5,12.2c-4.9-11-13.9-24.6-22.3-25.2c-5.1-0.4-9.3,4.4-12.2,10.7c-4.9-8.2-11.3-15.3-17.4-15.7
	c-5.5-0.4-9.9,5-13,11.5c-3.3-3.7-6.9-6.1-10.5-6.2c-7.7-0.5-13.4,9.7-16.3,19.7c-4.2-6.4-8.3-13.2-14.2-13.2
	c-5.8,0-10,6.7-14.2,13.2c-2.9-10-8.6-20.2-16.3-19.7c-3.6,0.2-7.2,2.6-10.5,6.2c-3-6.7-7.5-11.9-13-11.5
	c-6.1,0.4-12.5,7.6-17.4,15.7c-2.9-6.2-7-10.9-12.2-10.7c-8.3,0.5-17.4,14-22.3,25.2c-2.7-6.9-6.9-12.6-12.5-12.2
	c-11.3,0.6-24.7,26.5-26.1,35.7c-1.3,8.7-2.4,16.2-3,22.6c-0.6,5.5-1.6,11-3,16.4c-6.1,22.9,18.2,46.6,35,60.3l1,0.8
	c19.1,15.6,48.3,12.5,69.9-7.6l0,0c9.4-8.7,19.1-21,44.4-21s35.1,12.4,44.4,21l0,0c21.6,20.1,50.8,23.2,69.9,7.6l1-0.8
	C632.1,575.1,656.5,551.6,650.2,528.7z"/>
</svg>
