<?xml version="1.0" encoding="utf-8"?>
<!-- Generator: Adobe Illustrator 26.0.1, SVG Export Plug-In . SVG Version: 6.00 Build 0)  -->
<svg version="1.1" xmlns="http://www.w3.org/2000/svg" xmlns:xlink="http://www.w3.org/1999/xlink" x="0px" y="0px"
	 viewBox="0 0 1000 1000" style="enable-background:new 0 0 1000 1000;" xml:space="preserve">

<g id="skin-D">
	<g>
		<path d="M707.8,747.8c-3.1-6.8-7.4-13.7-12.8-20.6c1.8-2.5,2.5-4.6,2.5-4.6s-2.9,0.2-5.8,0.5
			c-1.2-1.4-2.4-2.8-3.6-4.1c0.1-0.8,0.1-1.4,0-1.9c0.8-1.4,1.2-2.6,1.2-2.6s-2.6-0.1-5.6-0.2c-0.7-0.7-1.4-1.4-2.1-2.1
			c0.5-0.8,1-1.7,1.4-2.6c2.1-5.3,1.7-9.8,1.7-9.8s-6.6,3.2-10.3,5.6c-0.4-0.3-0.8-0.7-1.2-1c-0.5-3.4-1.6-5.9-2.1-6.7
			c0.3-1.2,0.4-2,0.4-2s-3.8,0.4-7.6,1c0.8-1,1.2-1.9,1.2-1.9s-0.8-0.2-2.1-0.5c0.4-0.9,0.7-1.8,0.9-2.7c1.3-6-0.3-10.7-0.3-10.7
			s-8,2.1-11.4,3.7c0.3-3.4-0.2-6.2-0.5-7.5c0.6-1.7,0.6-3.1,0.6-3.1s-5.6,0.9-10.1,2c1-1.8,1.8-3.8,2.1-5.8c1-6.3-0.5-11-0.5-11
			s-7.6,6-10.7,9.4c-1.4-4.6-3.6-7.6-4.4-8.6c0.1-1.3,0-2.3,0-2.3s-5.7,1.9-10.4,3.8c0.7-2.1,1.2-4.3,1.2-6.5
			c0-6.8-2.4-11.6-2.4-11.6s-7,7.6-9.7,11.8c-1.4-2.8-3-4.9-4.2-6.4c-0.5-2.7-1.7-4.7-1.7-4.7s-4.1,3.8-7.9,7.5
			c-9.1-43.3-47.4-75.9-93.5-75.9s-84.4,32.6-93.5,75.9c-3.7-3.8-7.9-7.5-7.9-7.5s-1.2,2-1.7,4.7c-1.3,1.5-2.9,3.6-4.2,6.4
			c-2.7-4.1-9.7-11.8-9.7-11.8s-2.4,4.7-2.4,11.6c0,2.1,0.5,4.4,1.2,6.5c-4.6-1.9-10.4-3.8-10.4-3.8s-0.1,0.9,0,2.3
			c-0.8,1-3.1,4.1-4.4,8.6c-3.1-3.4-10.7-9.4-10.7-9.4s-1.5,4.7-0.5,11c0.3,2,1.1,4,2.1,5.8c-4.6-1.1-10.1-2-10.1-2s0.1,1.4,0.6,3.1
			c-0.3,1.3-0.9,4-0.5,7.5c-3.4-1.6-11.4-3.7-11.4-3.7s-1.6,4.7-0.3,10.7c0.2,0.9,0.5,1.8,0.9,2.7c-1.2,0.3-2.1,0.5-2.1,0.5
			s0.4,0.9,1.2,1.9c-3.8-0.6-7.6-1-7.6-1s0.1,0.8,0.4,2c-0.4,0.9-1.5,3.3-2.1,6.7c-0.4,0.3-0.8,0.7-1.2,1
			c-3.7-2.4-10.3-5.6-10.3-5.6s-0.4,4.5,1.7,9.8c0.3,0.9,0.8,1.7,1.4,2.6c-0.7,0.7-1.4,1.4-2.1,2.1c-3,0-5.6,0.2-5.6,0.2
			s0.3,1.2,1.2,2.6c0,0.4,0,1.1,0,1.9c-1.2,1.4-2.5,2.8-3.6,4.1c-3-0.3-5.8-0.5-5.8-0.5s0.7,2.1,2.5,4.6
			c-5.4,6.9-9.7,13.8-12.8,20.6c-19,41.6,110.2,41.1,110.2,41.1H500h97.6C597.6,788.9,726.8,789.4,707.8,747.8z M401,659.1
			c0.1,0.1,0.3,0.2,0.4,0.3c-0.3,0.1-0.5,0.2-0.8,0.3C400.8,659.5,400.9,659.3,401,659.1z M599.3,659.7c-0.3-0.1-0.5-0.2-0.8-0.3
			c0.1-0.1,0.3-0.2,0.4-0.3C599.1,659.3,599.2,659.5,599.3,659.7z"/>
	</g>
</g>
</svg>
