<?xml version="1.0" encoding="utf-8"?>
<!-- Generator: Adobe Illustrator 26.0.1, SVG Export Plug-In . SVG Version: 6.00 Build 0)  -->
<svg version="1.1" xmlns="http://www.w3.org/2000/svg" xmlns:xlink="http://www.w3.org/1999/xlink" x="0px" y="0px"
	 viewBox="0 0 1000 1000" style="enable-background:new 0 0 1000 1000;" xml:space="preserve">

<path id="skin-D" d="M670.2,688.2c-10.1-3.4-23.9,2.9-32.4,2.9c-30.8,0-40.8-4.2-55.7-36.4s-46.5-84.6-82-84.6
	c-35.5,0-67.2,52.4-82.1,84.6c-14.9,32.2-25,36.4-55.7,36.4c-8.5,0-22.3-6.3-32.4-2.9c-56.5,19.2-48.9,61.7-33.6,81.6
	c10.8,13.9,21.8,4.6,83.7,5c26.5,0.2,73.3,16.2,120.2,11.9c46.9,4.3,93.6-11.8,120-11.9c61.9-0.4,72.9,8.9,83.7-5
	C719.1,749.9,726.6,707.4,670.2,688.2z"/>
</svg>
