<?xml version="1.0" encoding="utf-8"?>
<!-- Generator: Adobe Illustrator 26.0.1, SVG Export Plug-In . SVG Version: 6.00 Build 0)  -->
<svg version="1.1" id="Слой_1" xmlns="http://www.w3.org/2000/svg" xmlns:xlink="http://www.w3.org/1999/xlink" x="0px" y="0px"
	 viewBox="0 0 1000 1000" style="enable-background:new 0 0 1000 1000;" xml:space="preserve">
<path id="skin-D" d="M658.3,702.8c-43.1-15-73.2-5.6-73.2-5.6c0-66.4-49.6-124.2-85.1-124.2s-85.1,57.8-85.1,124.2
	c0,0-40.1-9.3-83.2,5.6c-35.8,12.4-71.2,39.9-41.6,68.8c5.5,5.4,20.9-4.9,56.4-3.1c38.7,2,90.5,15.9,153.5,15.9
	s114.8-13.9,153.5-15.9c35.5-1.8,50.8,8.5,56.4,3.1C739.6,742.7,694.1,715.2,658.3,702.8z"/>
</svg>
