<?xml version="1.0" encoding="utf-8"?>
<!-- Generator: Adobe Illustrator 24.0.1, SVG Export Plug-In . SVG Version: 6.00 Build 0)  -->
<svg version="1.1" id="group" xmlns="http://www.w3.org/2000/svg" xmlns:xlink="http://www.w3.org/1999/xlink" x="0px" y="0px"
	 viewBox="0 0 1000 1000" style="enable-background:new 0 0 1000 1000;" xml:space="preserve">
<path id="skin-D" d="M647.5,660.9c-13-4.6-23.2,13.5-31,13c-15.4-1-29.1-10-36.2-23.7c-13.6-26.2-39.7-74.5-80.2-74.5
	s-66.6,48.3-80.2,74.5c-7.1,13.7-20.8,22.7-36.2,23.7c-7.8,0.5-17.9-17.6-31-13c-48.7,20.3-88.3,84.4-60.2,113.4
	c16.8,19.1,108.5-0.6,207.5-0.6s190.7,19.7,207.5,0.6C735.8,745.3,696.1,681.2,647.5,660.9z"/>
<g id="skin-L">
	<ellipse transform="matrix(0.8101 -0.5863 0.5863 0.8101 -326.7547 333.9947)" cx="352.2" cy="671.4" rx="8.7" ry="4.5"/>
	<ellipse transform="matrix(0.5863 -0.8101 0.8101 0.5863 -275.9087 802.5443)" cx="647.8" cy="671.4" rx="4.5" ry="8.7"/>
</g>
</svg>
