<?xml version="1.0" encoding="utf-8"?>
<!-- Generator: Adobe Illustrator 19.2.0, SVG Export Plug-In . SVG Version: 6.00 Build 0)  -->
<svg version="1.0" id="Layer_2" xmlns="http://www.w3.org/2000/svg" xmlns:xlink="http://www.w3.org/1999/xlink" x="0px" y="0px"
	 viewBox="0 0 1000 1000" enable-background="new 0 0 1000 1000" xml:space="preserve">
<g id="blacks">
	<path d="M629.13,436.41c0,0-0.08-0.05-0.24-0.15c-0.17-0.11-0.42-0.26-0.75-0.45c-0.61-0.37-1.5-0.88-2.64-1.49
		c-2.28-1.23-5.62-2.82-9.88-4.47c-2.14-0.8-4.48-1.64-7.05-2.39c-1.27-0.4-2.62-0.73-3.99-1.11c-1.39-0.32-2.8-0.7-4.27-0.97
		c-2.92-0.64-6.02-1.1-9.19-1.51c-3.18-0.34-6.46-0.62-9.76-0.68c-0.82-0.01-1.64-0.04-2.47-0.05l-2.47,0.04
		c-1.64,0-3.28,0.14-4.89,0.22c-1.63,0.08-3.2,0.29-4.79,0.43c-1.58,0.17-3.11,0.42-4.63,0.63c-3.02,0.49-5.9,1.05-8.57,1.7
		c-0.67,0.16-1.34,0.31-1.98,0.47c-0.63,0.18-1.27,0.35-1.88,0.52c-1.22,0.36-2.45,0.65-3.55,1.03c-2.22,0.73-4.3,1.37-6.03,2.06
		c-1.75,0.67-3.31,1.22-4.5,1.76c-2.44,1.04-3.83,1.64-3.83,1.64c-0.19,0.08-0.38,0.17-0.57,0.27c-4.14,2.09-5.15,6.2-2.25,9.17
		c2.91,2.97,8.63,3.7,12.77,1.62l0.35-0.17c0,0,1.1-0.56,3.05-1.53c0.95-0.52,2.19-1.03,3.58-1.66c1.38-0.66,3.01-1.25,4.76-1.96
		c0.88-0.37,1.84-0.65,2.8-0.99c0.48-0.17,0.99-0.34,1.49-0.51c0.5-0.17,1.03-0.3,1.56-0.47c2.11-0.65,4.37-1.22,6.74-1.75
		c1.2-0.23,2.41-0.51,3.65-0.7c1.25-0.17,2.5-0.42,3.79-0.55c1.29-0.14,2.58-0.32,3.89-0.39l1.97-0.14l1.99-0.06
		c2.65-0.11,5.32-0.01,7.94,0.12c2.61,0.2,5.2,0.42,7.67,0.83c1.24,0.16,2.44,0.42,3.63,0.63c1.17,0.25,2.33,0.47,3.43,0.75
		c2.23,0.51,4.28,1.11,6.17,1.7c3.75,1.19,6.74,2.41,8.71,3.31c0.99,0.45,1.74,0.82,2.22,1.07c0.21,0.11,0.38,0.19,0.49,0.26
		c0.12,0.06,0.18,0.1,0.18,0.1l0.17,0.09c2.32,1.26,5.65,1.06,7.62-0.54C631.66,440.46,631.45,437.9,629.13,436.41z"/>
	<path d="M369.5,442.17c1.97,1.59,5.3,1.8,7.62,0.54l0.17-0.09c0,0,0.06-0.03,0.18-0.1
		c0.11-0.06,0.28-0.14,0.49-0.26c0.48-0.25,1.23-0.62,2.22-1.07c1.98-0.91,4.97-2.12,8.71-3.31c1.89-0.57,3.94-1.19,6.17-1.7
		c1.1-0.28,2.26-0.5,3.43-0.75c1.19-0.2,2.39-0.46,3.63-0.63c2.47-0.41,5.06-0.63,7.67-0.83c2.62-0.14,5.28-0.23,7.94-0.12
		l1.99,0.06l1.97,0.14c1.31,0.07,2.61,0.26,3.89,0.39c1.29,0.13,2.54,0.38,3.79,0.55c1.25,0.19,2.45,0.47,3.65,0.7
		c2.37,0.52,4.64,1.09,6.74,1.75c0.52,0.16,1.05,0.3,1.56,0.47c0.5,0.17,1.01,0.34,1.49,0.51c0.96,0.34,1.92,0.63,2.8,0.99
		c1.75,0.71,3.39,1.31,4.76,1.96c1.39,0.63,2.63,1.14,3.58,1.66c1.94,0.98,3.05,1.53,3.05,1.53l0.35,0.17
		c4.15,2.08,9.86,1.36,12.77-1.62c2.9-2.98,1.89-7.08-2.25-9.17c-0.18-0.09-0.38-0.19-0.57-0.27c0,0-1.39-0.6-3.83-1.64
		c-1.19-0.54-2.75-1.1-4.5-1.76c-1.73-0.69-3.8-1.33-6.03-2.06c-1.1-0.37-2.33-0.67-3.55-1.03c-0.61-0.18-1.25-0.34-1.88-0.52
		c-0.63-0.17-1.31-0.32-1.98-0.47c-2.67-0.65-5.55-1.21-8.57-1.7c-1.52-0.21-3.05-0.47-4.63-0.63c-1.59-0.14-3.16-0.35-4.79-0.43
		c-1.62-0.09-3.25-0.22-4.89-0.22l-2.47-0.04c-0.83,0.01-1.65,0.04-2.47,0.05c-3.3,0.05-6.57,0.33-9.76,0.68
		c-3.17,0.41-6.27,0.86-9.19,1.51c-1.48,0.27-2.88,0.65-4.27,0.97c-1.36,0.38-2.72,0.7-3.99,1.11c-2.57,0.74-4.91,1.58-7.05,2.39
		c-4.26,1.64-7.6,3.24-9.88,4.47c-1.14,0.6-2.03,1.12-2.64,1.49c-0.33,0.2-0.58,0.35-0.75,0.45c-0.16,0.1-0.24,0.15-0.24,0.15
		C367.62,437.9,367.42,440.46,369.5,442.17z"/>
</g>
</svg>
