<?xml version="1.0" encoding="utf-8"?>
<!-- Generator: Adobe Illustrator 26.0.1, SVG Export Plug-In . SVG Version: 6.00 Build 0)  -->
<svg version="1.1" id="blacks" xmlns="http://www.w3.org/2000/svg" xmlns:xlink="http://www.w3.org/1999/xlink" x="0px" y="0px"
	 viewBox="0 0 1000 1000" style="enable-background:new 0 0 1000 1000;" xml:space="preserve">

<g>
	<path d="M637,441.6L637,441.6c-0.1,0-0.6,0-1.5,0c-0.9,0-2.3,0-4,0c-1.7-0.1-3.8,0-6.1-0.1c-0.6,0-1.2,0-1.8-0.1
		c-0.6,0-1.2-0.1-1.8-0.1c-1.3-0.1-2.5-0.2-3.9-0.4c-2.6-0.4-5.3-1-8-1.9c-1.3-0.4-2.7-1-4.2-1.6c-1.5-0.6-3.1-1.3-5.1-2.1
		c-0.9-0.3-2.2-0.7-3.3-1.1l-1.4-0.4l-0.3-0.1l-0.2,0l-0.1,0c-0.1,0,0.2,0-0.3-0.1l0,0l-0.8-0.1c-1.1-0.2-2.1-0.4-3.2-0.6
		c-1.1-0.2-2.2-0.2-3.3-0.4c-4.4-0.4-8.9-0.4-13.4,0.3c-4.5,0.6-8.8,1.7-13,3.3c-4.1,1.5-7.9,3.5-11.4,5.7c-3.5,2.2-6.6,4.6-9.3,7.1
		c-2.7,2.5-5.1,5-7,7.5c-4,4.9-6.6,9.5-8.1,12.8c-0.8,1.6-1.3,3-1.6,3.9c-0.2,0.5-0.3,0.8-0.4,1.1c-0.1,0.2-0.1,0.4-0.1,0.4
		c-0.1,0.5-0.1,1,0.3,1.4c0.5,0.7,1.5,0.8,2.2,0.2l0.1-0.1c0,0,0.4-0.3,1.1-0.9c0.7-0.6,1.8-1.4,3.1-2.5c2.7-2.1,6.5-5,11.2-8.2
		c2.3-1.6,4.8-3.2,7.6-4.7c2.7-1.5,5.6-3,8.6-4.4c3-1.3,6.1-2.5,9.4-3.5c3.2-0.9,6.5-1.7,9.8-2.1c3.3-0.5,6.7-0.6,10-0.5
		c0.8,0,1.7,0,2.5,0.1c0.8,0.1,1.7,0.1,2.5,0.2l0.6,0l0,0c-0.5-0.1-0.1,0-0.2,0l0.1,0l0.2,0l0.4,0l1.4,0.2c0.6,0.1,1.2,0.2,2,0.4
		c3.1,0.7,7.2,1.8,11.1,2.1c3.9,0.4,7.7,0.2,11-0.3c1.6-0.3,3.2-0.6,4.6-1c0.7-0.2,1.4-0.4,2.1-0.6c0.7-0.2,1.3-0.4,1.9-0.7
		c2.4-0.8,4.4-1.8,6.1-2.6c1.6-0.8,2.8-1.5,3.7-2c0.8-0.5,1.3-0.8,1.3-0.8c0.4-0.3,0.7-0.7,0.7-1.3
		C638.6,442.4,637.9,441.6,637,441.6z"/>
	<path d="M476.4,474.1c-0.1-0.3-0.2-0.6-0.4-1.1c-0.3-0.9-0.9-2.3-1.6-3.9c-1.6-3.3-4.1-7.9-8.1-12.8
		c-2-2.5-4.3-5-7-7.5c-2.7-2.5-5.8-4.9-9.3-7.1c-3.5-2.2-7.3-4.2-11.4-5.7c-4.1-1.5-8.5-2.6-13-3.3c-4.5-0.6-9-0.6-13.4-0.3
		c-1.1,0.1-2.2,0.2-3.3,0.4c-1.1,0.2-2.1,0.4-3.2,0.6l-0.8,0.1l0,0c-0.5,0.1-0.2,0-0.3,0.1l-0.1,0l-0.2,0l-0.3,0.1l-1.4,0.4
		c-1.2,0.3-2.5,0.7-3.3,1.1c-2,0.7-3.6,1.4-5.1,2.1c-1.5,0.6-2.9,1.2-4.2,1.6c-2.7,0.9-5.3,1.5-8,1.9c-1.3,0.2-2.6,0.3-3.9,0.4
		c-0.6,0-1.2,0.1-1.8,0.1c-0.6,0-1.2,0-1.8,0.1c-2.3,0.1-4.4,0.1-6.1,0.1c-1.7,0-3.1,0-4,0c-1,0-1.5,0-1.5,0l-0.1,0
		c-0.9,0-1.5,0.7-1.5,1.6c0,0.5,0.3,1,0.7,1.3c0,0,0.4,0.3,1.3,0.8c0.8,0.5,2.1,1.2,3.7,2c1.6,0.8,3.6,1.7,6.1,2.6
		c0.6,0.2,1.2,0.5,1.9,0.7c0.7,0.2,1.4,0.4,2.1,0.6c1.4,0.4,3,0.7,4.6,1c3.3,0.5,7,0.7,11,0.3c3.9-0.4,7.9-1.5,11.1-2.1
		c0.9-0.2,1.4-0.2,2-0.4l1.4-0.2l0.4,0l0.2,0l0.1,0c-0.1,0,0.3-0.1-0.2,0l0,0l0.6,0c0.8-0.1,1.7-0.1,2.5-0.2
		c0.8-0.1,1.7-0.1,2.5-0.1c3.3-0.1,6.7,0,10,0.5c3.3,0.5,6.6,1.2,9.8,2.1c3.2,0.9,6.3,2.1,9.4,3.5c3,1.3,5.9,2.8,8.6,4.4
		c2.7,1.5,5.2,3.1,7.6,4.7c4.6,3.1,8.5,6,11.2,8.2c1.3,1.1,2.4,1.9,3.1,2.5c0.7,0.6,1.1,0.9,1.1,0.9l0.1,0.1
		c0.7,0.5,1.6,0.4,2.2-0.2c0.3-0.4,0.4-1,0.3-1.4C476.5,474.4,476.5,474.3,476.4,474.1z"/>
</g>
</svg>
