<?xml version="1.0" encoding="utf-8"?>
<!-- Generator: Adobe Illustrator 26.0.1, SVG Export Plug-In . SVG Version: 6.00 Build 0)  -->
<svg version="1.1" id="blacks" xmlns="http://www.w3.org/2000/svg" xmlns:xlink="http://www.w3.org/1999/xlink" x="0px" y="0px"
	 viewBox="0 0 1000 1000" style="enable-background:new 0 0 1000 1000;" xml:space="preserve">

<g>
	<path d="M537.3,444.4c0,0,0.7-4,0.4-7.3c-7.8,5.6-10.3,17.4-10.3,17.4s-0.5-2-3.3-3.7c-2.6,7.3,0.1,18.9,0.1,18.9
		s28.9-21.5,72.5-29.4C559.2,433.2,537.3,444.4,537.3,444.4z"/>
	<path d="M472.6,454.5c0,0-2.5-11.8-10.3-17.4c-0.3,3.3,0.4,7.3,0.4,7.3s-21.9-11.2-59.5-4.1
		c43.7,7.8,72.5,29.4,72.5,29.4s2.8-11.6,0.1-18.9C473.1,452.5,472.6,454.5,472.6,454.5z"/>
</g>
</svg>
