<?xml version="1.0" encoding="utf-8"?>
<!-- Generator: Adobe Illustrator 26.0.1, SVG Export Plug-In . SVG Version: 6.00 Build 0)  -->
<svg version="1.1" id="blacks" xmlns="http://www.w3.org/2000/svg" xmlns:xlink="http://www.w3.org/1999/xlink" x="0px" y="0px"
	 viewBox="0 0 1000 1000" style="enable-background:new 0 0 1000 1000;" xml:space="preserve">
<g>
	<path d="M555.8,444.6c-11.9,6.6-20.6,15.7-24,24.3c2.2-7.2,5.1-14.9,8.7-22.6c4-8.7,8.5-16.7,13.1-23.6
		c-8.8,1.5-17.8,8.7-22.7,19.4c-5,10.8-4.7,22.2-0.1,29.9c0,0.1,0,0.1-0.1,0.2c8.9-6.3,19.1-12.8,30.2-18.9
		c10.9-6,21.5-11,31.4-15.1C583.2,435.1,569.2,437.2,555.8,444.6z"/>
	<path d="M469.1,442.2c-5-10.8-13.9-17.9-22.7-19.4c4.6,6.9,9.1,14.9,13.1,23.6c3.6,7.7,6.5,15.4,8.7,22.6c-3.4-8.6-12-17.7-24-24.3
		c-13.4-7.4-27.4-9.5-36.6-6.4c9.9,4,20.6,9.1,31.4,15.1c11.1,6.1,21.3,12.6,30.2,18.9c0-0.1,0-0.1-0.1-0.2
		C473.8,464.4,474.1,452.9,469.1,442.2z"/>
</g>
</svg>
