<?xml version="1.0" encoding="utf-8"?>
<!-- Generator: Adobe Illustrator 19.2.0, SVG Export Plug-In . SVG Version: 6.00 Build 0)  -->
<svg version="1.0" id="bear" xmlns="http://www.w3.org/2000/svg" xmlns:xlink="http://www.w3.org/1999/xlink" x="0px" y="0px"
	 viewBox="0 0 1000 1000" enable-background="new 0 0 1000 1000" xml:space="preserve">
<g id="blacks">
	<g>
		<g>
			<g>
				<path fill="#113D44" d="M529.53,444.13c-1.29,0.31-2.57,0.61-3.85,0.92c0.91,11.89,2.62,25.85,5.2,26.04
					c0.99,0.07,2.01,0,3.03-0.24c3.13-0.74,6.28-1.5,9.43-2.26c22.96-5.55,46.7-11.3,69.54-8.64c3.72,0.42,2.49-15.11,1.22-26.83
					C586.27,430.41,557.44,437.38,529.53,444.13z"/>
			</g>
		</g>
	</g>
	<g>
		<g>
			<g>
				<g>
					<g>
						<path fill="#113D44" d="M470.49,444.13c1.29,0.31,2.57,0.61,3.85,0.92c-0.91,11.89-2.62,25.85-5.2,26.04
							c-0.99,0.07-2.01,0-3.03-0.24c-3.13-0.74-6.28-1.5-9.43-2.26c-22.96-5.55-46.7-11.3-69.54-8.64
							c-3.72,0.42-2.49-15.11-1.22-26.83C413.75,430.41,442.58,437.38,470.49,444.13z"/>
					</g>
				</g>
			</g>
		</g>
	</g>
</g>
</svg>
