<?xml version="1.0" encoding="utf-8"?>
<!-- Generator: Adobe Illustrator 26.0.1, SVG Export Plug-In . SVG Version: 6.00 Build 0)  -->
<svg version="1.1" id="Layer_1" xmlns="http://www.w3.org/2000/svg" xmlns:xlink="http://www.w3.org/1999/xlink" x="0px" y="0px"
	 viewBox="0 0 1000 1000" style="enable-background:new 0 0 1000 1000;" xml:space="preserve">

<g id="skin-D">
	<path d="M508.1,365.8c2.7-1.6,5.6-3.6,8.5-5.9c8.2-6.7,12.7-13.5,10.2-15.1s-11.2,2.4-19.3,9.1
		c-0.9,0.7-1.7,1.4-2.5,2.2c0.5-1.7,0.9-3.6,1.2-5.5c1.5-9.3,0.1-17.3-3.1-17.9s-6.9,6.4-8.4,15.7c-0.3,2.1-0.5,4.1-0.6,6
		c-0.2-0.5-0.4-1-0.6-1.5c-3.8-9.6-9.3-17.1-12.4-16.8c-3,0.3-2.4,8.3,1.4,17.8c2,5,4.4,9.1,6.8,12.5
		C495,374.8,505.4,367.4,508.1,365.8z"/>
</g>
</svg>
