<?xml version="1.0" encoding="utf-8"?>
<!-- Generator: Adobe Illustrator 26.0.1, SVG Export Plug-In . SVG Version: 6.00 Build 0)  -->
<svg version="1.1" id="Layer_2" xmlns="http://www.w3.org/2000/svg" xmlns:xlink="http://www.w3.org/1999/xlink" x="0px" y="0px"
	 viewBox="0 0 1000 1000" style="enable-background:new 0 0 1000 1000;" xml:space="preserve">

<path id="skin-D" d="M511.2,360.6c4.6-9.7,4.1-22-9.6-33.3c-1.5,11.8-4,20.8-6.6,27.6c-1.7-4.8-6.2-8.8-14.4-9.9
	c1.8,4.5,2.3,8.6,1.9,12c-0.3,3.5,1.5,6.8,4.6,8.5c5.2,2.9,10.7,6.9,16.4,6.9c5.7,0,11.2-3.9,16.3-6.8c5.2-2.9,7.4-9.3,4.9-14.7
	c-0.4-1-1-2-1.6-3.1C520,353.3,515.7,357.4,511.2,360.6z"/>
</svg>
