<?xml version="1.0" encoding="utf-8"?>
<!-- Generator: Adobe Illustrator 26.0.1, SVG Export Plug-In . SVG Version: 6.00 Build 0)  -->
<svg version="1.1" id="Layer_1" xmlns="http://www.w3.org/2000/svg" xmlns:xlink="http://www.w3.org/1999/xlink" x="0px" y="0px"
	 viewBox="0 0 1000 1000" style="enable-background:new 0 0 1000 1000;" xml:space="preserve">

<g id="hair">
	<g>
		<path d="M500,377.3c5.5,0,13.5-4,18.9-7c5.4-3.1,6.8-10.4,2.7-15.1c0,0-0.1-0.1-0.1-0.1c-3.9,0.9-7.8,2.5-11.1,4.8
			c-0.5-8.4-4.5-15.7-10.4-19.7c-5.8,4-9.9,11.3-10.4,19.7c-3.4-2.3-7.2-3.9-11.1-4.8c0,0-0.1,0.1-0.1,0.1c-4.1,4.7-2.7,12,2.7,15.1
			C486.5,373.4,494.5,377.3,500,377.3z"/>
	</g>
</g>
</svg>
