<?xml version="1.0" encoding="utf-8"?>
<!-- Generator: Adobe Illustrator 26.0.1, SVG Export Plug-In . SVG Version: 6.00 Build 0)  -->
<svg version="1.1" id="Layer_1" xmlns="http://www.w3.org/2000/svg" xmlns:xlink="http://www.w3.org/1999/xlink" x="0px" y="0px"
	 viewBox="0 0 1000 1000" style="enable-background:new 0 0 1000 1000;" xml:space="preserve">
<path id="hair" d="M539.3,376.2c0-0.1,9.4,2.2,11-0.1c1.6-2.2,4.6-10.8,4.6-10.8c0,0-4,0-8.3,2.4c-0.1,0.1-0.2,0.2-0.4,0.2
	c0.8-2.2,1.4-4,1.4-4c0,0-4,0.1-8.2,2.6c-0.1,0.1-0.2,0.2-0.4,0.3c0.7-2.2,1.2-4.1,1.2-4.1c0,0-4,0.2-8.1,2.8
	c-0.1,0.1-0.2,0.2-0.3,0.3c0.7-2.2,1.1-4.1,1.1-4.1c0,0-4,0.3-8.1,3.1c-0.1,0.1-0.2,0.2-0.3,0.3c0.6-2.3,1-4.1,1-4.1
	c0,0-4,0.4-8,3.3c-0.1,0.1-0.2,0.2-0.3,0.3c0.6-2.3,0.9-4.1,0.9-4.1c0,0-4,0.5-7.9,3.5c-0.1,0.1-0.2,0.2-0.3,0.3
	c0.5-2.3,0.8-4.2,0.8-4.2c0,0-4,0.6-7.8,3.7c-0.1,0.1-0.2,0.2-0.3,0.3c0.4-2.3,0.7-4.2,0.7-4.2c0,0-4,0.7-7.7,3.9
	c-0.1,0.1-0.2,0.2-0.3,0.3c0.4-2.3,0.6-4.2,0.6-4.2c0,0-3.9,0.9-7.6,4.1c-0.1,0.1-0.2,0.2-0.3,0.3c0.3-2.3,0.4-4.2,0.4-4.2
	c0,0-3.9,1-7.4,4.3c-0.1,0.1-0.2,0.2-0.3,0.3c0.2-2.3,0.3-4.2,0.3-4.2c0,0-3.9,1.1-7.3,4.5c-0.1,0.1-0.2,0.2-0.3,0.3
	c0.2-2.3,0.2-4.2,0.2-4.2c0,0-3.9,1.2-7.2,4.7c-0.1,0.1-0.2,0.2-0.3,0.3c0.1-2.3,0.1-4.2,0.1-4.2c0,0-3.8,1.3-7.1,4.9
	c-0.1,0.1-0.2,0.2-0.3,0.3c0.1-2.3,0-4.2,0-4.2c0,0-3.8,1.4-6.9,5.1c-1,1.2-1.8,2.7-2.3,4.2c-1.1,2.8,1.3,5.8,4.3,5.2
	C482.3,372.2,511.1,371.8,539.3,376.2C539.3,376.2,539.3,376.2,539.3,376.2z"/>
</svg>
