<?xml version="1.0" encoding="utf-8"?>
<!-- Generator: Adobe Illustrator 26.0.1, SVG Export Plug-In . SVG Version: 6.00 Build 0)  -->
<svg version="1.1" id="Layer_1" xmlns="http://www.w3.org/2000/svg" xmlns:xlink="http://www.w3.org/1999/xlink" x="0px" y="0px"
	 viewBox="0 0 1000 1000" style="enable-background:new 0 0 1000 1000;" xml:space="preserve">

<g id="hair">
	<g>
		<g>
			<g>
				<g>
					<g>
						<g>
							<g>
								<g>
									<g>
										<g>
											<path d="M511.7,368.8c7.1-5.6,8.6-12.6,8.6-12.6s-1.1,0.5-3,1.5c0.9-1.6,1.5-2.7,1.5-2.7s-4.2,1.2-9.8,4.5
												c0.9-4.6,1.5-9.8,1.5-9.8s-4.5,3.3-9.5,8.8c0-1.1,0-1.8,0-1.8s-1.9,1.1-3.9,2.8c-1.1-3.6-2.4-7.1-2.4-7.1
												s-3.9,4.5-6.6,11.1c-1.2,1.5-2.6,3.6-3.3,5.6c-2.8-1.8-5.7-3.3-5.7-3.3s-3.1,11.6,24.2,11c15.4-0.3,17.8-9,17.8-9
												S517.4,367.3,511.7,368.8z"/>
										</g>
									</g>
								</g>
							</g>
						</g>
					</g>
				</g>
			</g>
		</g>
	</g>
</g>
</svg>
