<?xml version="1.0" encoding="utf-8"?>
<!-- Generator: Adobe Illustrator 26.0.1, SVG Export Plug-In . SVG Version: 6.00 Build 0)  -->
<svg version="1.1" id="Layer_1" xmlns="http://www.w3.org/2000/svg" xmlns:xlink="http://www.w3.org/1999/xlink" x="0px" y="0px"
	 viewBox="0 0 1000 1000" style="enable-background:new 0 0 1000 1000;" xml:space="preserve">
<g id="texture">
	<g>
		<g>
			<g>
				<g>
					<g>
						<g>
							<g>
								<path d="M511.2,362.8c0,0,0.1,0,0.1-0.1c0.1,0,0.2-0.1,0.3-0.1c0.3-0.2,0.9-0.4,1.4-0.8c0.3-0.2,0.6-0.4,0.9-0.6
									c0.3-0.3,0.6-0.5,0.9-0.8s0.6-0.6,0.9-1c0.3-0.3,0.6-0.7,0.9-1.1s0.5-0.8,0.7-1.2c0.2-0.4,0.4-0.8,0.6-1.2
									c0.2-0.4,0.3-0.8,0.4-1.2c0.2-0.4,0.2-0.8,0.3-1.1c0.1-0.4,0.2-0.7,0.2-1s0.1-0.6,0.1-0.8c0.1-0.4,0.1-0.7,0.1-0.7v-0.3
									c0.3-1.6,1.8-2.7,3.4-2.5c1.6,0.3,2.7,1.8,2.5,3.4l0,0c0,0-0.1,0.3-0.1,0.9c0,0.3-0.1,0.6-0.2,1c-0.1,0.4-0.2,0.8-0.3,1.3
									s-0.2,1-0.5,1.5c-0.2,0.5-0.4,1.1-0.6,1.7c-0.3,0.6-0.5,1.1-0.9,1.7s-0.7,1.1-1.1,1.7c-0.4,0.5-0.8,1.1-1.2,1.6
									c-0.4,0.5-0.9,1-1.4,1.4c-0.4,0.4-0.9,0.8-1.4,1.2c-0.5,0.3-0.9,0.7-1.3,0.9c-0.8,0.5-1.6,0.9-2.2,1.2
									c-0.3,0.1-0.5,0.2-0.7,0.3c-0.2,0.1-0.2,0.1-0.2,0.1c-1.5,0.5-3.2-0.3-3.7-1.8C508.8,364.9,509.7,363.3,511.2,362.8z"/>
							</g>
						</g>
					</g>
				</g>
			</g>
		</g>
	</g>
	<g>
		<g>
			<g>
				<g>
					<g>
						<g>
							<g>
								<path d="M498.3,351.2c0,0,0,0-0.1,0.1c0,0.1-0.1,0.2-0.1,0.3c-0.1,0.3-0.3,0.8-0.5,1.4s-0.4,1.3-0.6,2
									c-0.2,0.8-0.3,1.6-0.3,2.3c0,0.4,0,0.8,0,1.2c0,0.4,0,0.7,0.1,1.1c0,0.3,0.1,0.7,0.2,1s0.1,0.6,0.3,0.8
									c0.1,0.2,0.2,0.5,0.3,0.7c0.1,0.2,0.2,0.3,0.3,0.5c0.1,0.3,0.2,0.4,0.2,0.4l0.2,0.3c0.8,1.5,0.2,3.3-1.2,4
									c-1.5,0.8-3.3,0.2-4-1.2c0,0-0.1-0.3-0.4-0.7c-0.1-0.2-0.3-0.5-0.4-0.9c-0.1-0.3-0.3-0.7-0.5-1.2c-0.2-0.4-0.3-0.9-0.4-1.4
									s-0.2-1-0.3-1.6c-0.1-0.6-0.1-1.1-0.1-1.7s0-1.1,0-1.7c0.1-1.1,0.3-2.2,0.5-3.3c0.2-1,0.5-1.9,0.8-2.7
									c0.3-0.8,0.5-1.4,0.8-1.9c0.1-0.2,0.2-0.4,0.3-0.6c0.1-0.1,0.1-0.2,0.1-0.2c0.7-1.4,2.5-2,3.9-1.3
									C498.5,347.9,499.1,349.7,498.3,351.2L498.3,351.2z"/>
							</g>
						</g>
					</g>
				</g>
			</g>
		</g>
	</g>
	<g>
		<g>
			<g>
				<g>
					<g>
						<g>
							<g>
								<path d="M501.3,364.5c0,0,0-0.1,0.1-0.2s0.2-0.3,0.3-0.5c0.2-0.5,0.6-1.2,1-2.1c0.2-0.4,0.3-1,0.5-1.5s0.4-1.1,0.5-1.7
									c0.2-0.6,0.3-1.2,0.4-1.8c0.1-0.6,0.2-1.3,0.3-1.9c0.1-0.6,0.1-1.3,0.2-2c0-0.6,0-1.3,0-1.9s-0.1-1.2-0.1-1.8
									c0-0.6-0.1-1.1-0.2-1.6s-0.1-0.9-0.2-1.3s-0.2-0.7-0.2-1c-0.1-0.6-0.2-0.9-0.2-0.9v-0.2c-0.3-1.6,0.7-3.2,2.3-3.5
									c1.6-0.3,3.2,0.7,3.5,2.3c0,0,0.1,0.4,0.2,1.1c0.1,0.3,0.2,0.7,0.3,1.2c0.1,0.5,0.2,1,0.2,1.6c0.1,0.6,0.2,1.2,0.2,1.9
									c0,0.7,0.1,1.4,0.1,2.1s0,1.5,0,2.3c-0.1,0.8-0.1,1.6-0.2,2.4s-0.2,1.6-0.4,2.3c-0.1,0.8-0.3,1.5-0.5,2.2s-0.4,1.4-0.6,2.1
									c-0.2,0.6-0.4,1.3-0.7,1.8c-0.4,1.1-0.9,2-1.2,2.7c-0.2,0.3-0.3,0.6-0.4,0.8c-0.1,0.2-0.2,0.3-0.2,0.3
									c-0.9,1.4-2.7,1.9-4.1,1C500.9,367.8,500.4,366,501.3,364.5L501.3,364.5z"/>
							</g>
						</g>
					</g>
				</g>
			</g>
		</g>
	</g>
</g>
</svg>
