<?xml version="1.0" encoding="utf-8"?>
<!-- Generator: Adobe Illustrator 26.0.1, SVG Export Plug-In . SVG Version: 6.00 Build 0)  -->
<svg version="1.1" id="Layer_1" xmlns="http://www.w3.org/2000/svg" xmlns:xlink="http://www.w3.org/1999/xlink" x="0px" y="0px"
	 viewBox="0 0 1000 1000" style="enable-background:new 0 0 1000 1000;" xml:space="preserve">
<g id="hair">
	<g>
		<g>
			<g>
				<g>
					<g>
						<g>
							<g>
								<g>
									<path d="M553.2,348.7c0,0-8.9,3.9-21.8,8.3c0.9-0.8,1.8-1.7,2.7-2.6c21.2-22.8,15.4-41.9,15.4-41.9s-9.9,10.5-24.1,22.4
										l0,0c5-15.9-0.3-24-0.3-24s-11,21.2-26.5,36.4c-8.4,8.3-18,14.9-23.7,18.6c-2.9,1.9-3.5,5.8-1.2,8.4
										c5.9,7,18.6,18,38.3,15.7c28.3-3.3,33.6-17.6,33.6-17.6s-6.1,0.7-15.4,1.2C552.4,362.3,553.2,348.7,553.2,348.7z"/>
								</g>
							</g>
						</g>
					</g>
				</g>
			</g>
		</g>
	</g>
</g>
</svg>
