<?xml version="1.0" encoding="utf-8"?>
<!-- Generator: Adobe Illustrator 26.0.1, SVG Export Plug-In . SVG Version: 6.00 Build 0)  -->
<svg version="1.1" id="hair_00000019646598929401526340000002432673091567333030_"
	 xmlns="http://www.w3.org/2000/svg" xmlns:xlink="http://www.w3.org/1999/xlink" x="0px" y="0px" viewBox="0 0 1000 1000"
	 style="enable-background:new 0 0 1000 1000;" xml:space="preserve">
<path id="hair" d="M500.4,382.1c12.1,0,20.3-7.8,24.8-13.6c4.2-5.4,4.5-12.9,0.8-18.6l-0.1-0.1c-1.4-2.1-3-3.8-5-5.2
	c-1.3,1-3.1,1.9-5.1,2.7c-2.3-6.5-7.6-15.7-19.8-23.1c-2.3,8.4-5.2,15.2-9.1,20.8c-1.4-0.9-2.6-1.8-3.5-2.8
	c-2.2,1.2-4.3,2.7-6.2,4.5c-0.2,0.2-0.5,0.5-0.7,0.8c-6.1,7-5.3,17.6,1.1,24.2C482.9,376.9,490.5,382.1,500.4,382.1z"/>
</svg>
