<?xml version="1.0" encoding="utf-8"?>
<!-- Generator: Adobe Illustrator 26.0.1, SVG Export Plug-In . SVG Version: 6.00 Build 0)  -->
<svg version="1.1" id="hair_00000019646598929401526340000002432673091567333030_"
	 xmlns="http://www.w3.org/2000/svg" xmlns:xlink="http://www.w3.org/1999/xlink" x="0px" y="0px" viewBox="0 0 1000 1000"
	 style="enable-background:new 0 0 1000 1000;" xml:space="preserve">
<path id="hair" d="M533.9,372.4c-1.5-3.8-10.3-18.2-15.6-21.4c-0.8,2.8-0.5,7.9,0.3,12.9c-2.1-6.6-5.1-13.8-7.9-16.7
	c-1.9,3.1-3.1,9.6-3.7,15.9c-1.6-7.8-4.1-16.1-6.9-19.8c-2.8,3.7-5.3,12-6.9,19.8c-0.7-6.3-1.9-12.8-3.7-15.9
	c-2.8,2.9-5.8,10.1-7.9,16.7c0.7-5,1.1-10.1,0.3-12.9c-5.4,3.2-14.1,17.6-15.6,21.4s-0.2,8.1,3,10.4c3.8,0.5,7.6-1.5,9.2-5.2
	c0.2,4.1,2.8,7.6,6.6,9c2.7-0.4,5.1-1.8,6.7-3.8c1.3,3.8,4.5,6.8,8.5,7.8c4-1,7.2-3.9,8.5-7.8c1.6,2.1,4,3.5,6.7,3.8
	c3.8-1.4,6.4-4.9,6.6-9c1.6,3.6,5.4,5.7,9.2,5.2C534.1,380.4,535.5,376.2,533.9,372.4z"/>
</svg>
