<?xml version="1.0" encoding="utf-8"?>
<!-- Generator: Adobe Illustrator 19.2.0, SVG Export Plug-In . SVG Version: 6.00 Build 0)  -->
<svg version="1.0" id="Layer_2" xmlns="http://www.w3.org/2000/svg" xmlns:xlink="http://www.w3.org/1999/xlink" x="0px" y="0px"
	 viewBox="0 0 1000 1000" enable-background="new 0 0 1000 1000" xml:space="preserve">
<path id="skin-D" fill="#525771" d="M728.36,487.5c0,0-8.3,1.98-17.03,4.32c5.72-9.08,9.45-16.44,9.45-16.44s-8.68,1.36-17.51,2.75
	c-37.9-37.29-46.46-117.27-202.97-117.27s-165.06,79.98-202.97,117.27c-8.83-1.38-17.51-2.75-17.51-2.75s3.73,7.36,9.45,16.44
	c-8.73-2.34-17.03-4.32-17.03-4.32s7.77,16.1,18.97,28.68c-5.38-0.83-9.43-1.48-9.43-1.48s13.32,24.38,28.17,38.66
	c37.6,46.29,118.47,72.95,122.12,81.52c9.64,15.05,36.81,21.06,68.23,21.09c31.42-0.03,58.59-6.04,68.23-21.09
	c3.65-8.57,84.52-35.23,122.12-81.52c14.85-14.27,28.17-38.66,28.17-38.66s-4.05,0.65-9.43,1.48
	C720.59,503.59,728.36,487.5,728.36,487.5z"/>
<path id="skin" fill="#5C6481" d="M500.31,368.62c-138.35,0-144.77,77.17-178.75,112.12c-8.07,22.02-4.98,41.52,4.27,58.57
	c3.08,0.42,6.21,0.95,9.41,1.59c30.55,6.11,59.05,41.03,77.98,74.92c27.24,4.99,56.43,7.7,86.78,7.7c30.61,0,60.03-2.76,87.48-7.83
	c18.93-33.84,47.39-68.69,77.9-74.79c3.19-0.64,6.33-1.17,9.41-1.59c9.25-17.05,12.34-36.55,4.27-58.57
	C645.08,445.79,638.66,368.62,500.31,368.62z"/>
<ellipse id="skin-L" fill="#66738D" cx="500.31" cy="422.23" rx="89.41" ry="38.67"/>
<path id="skin2-L" fill="#BEC0C7" d="M500.31,655.96c30.79-0.03,57.48-5.81,67.62-20.19c-14.04-40.25-39.08-67.71-67.64-67.71
	c-28.52,0-53.55,27.46-67.59,67.71C442.83,650.16,469.52,655.94,500.31,655.96z"/>
<g id="head_x3C_Clip_Group_x3E_">
	<defs>
		<path id="clip_path" d="M728.36,487.5c0,0-8.3,1.98-17.03,4.32c5.72-9.08,9.45-16.44,9.45-16.44s-8.68,1.36-17.51,2.75
			c-37.9-37.29-46.46-117.27-202.97-117.27s-165.06,79.98-202.97,117.27c-8.83-1.38-17.51-2.75-17.51-2.75s3.73,7.36,9.45,16.44
			c-8.73-2.34-17.03-4.32-17.03-4.32s7.77,16.1,18.97,28.68c-5.38-0.83-9.43-1.48-9.43-1.48s13.32,24.38,28.17,38.66
			c37.6,46.29,118.47,72.95,122.12,81.52c9.64,15.05,36.81,21.06,68.23,21.09c31.42-0.03,58.59-6.04,68.23-21.09
			c3.65-8.57,84.52-35.23,122.12-81.52c14.85-14.27,28.17-38.66,28.17-38.66s-4.05,0.65-9.43,1.48
			C720.59,503.59,728.36,487.5,728.36,487.5z"/>
	</defs>
	<clipPath id="clip_path_1_">
		<use xlink:href="#clip_path"  overflow="visible"/>
	</clipPath>
	<circle id="head-mask" clip-path="url(#clip_path_1_)" fill="#525771" cx="5" cy="5" r="5"/>
</g>
</svg>
