<?xml version="1.0" encoding="utf-8"?>
<!-- Generator: Adobe Illustrator 26.0.1, SVG Export Plug-In . SVG Version: 6.00 Build 0)  -->
<svg version="1.1" id="Layer_2" xmlns="http://www.w3.org/2000/svg" xmlns:xlink="http://www.w3.org/1999/xlink" x="0px" y="0px"
	 viewBox="0 0 1000 1000" style="enable-background:new 0 0 1000 1000;" xml:space="preserve">
<style type="text/css">
	.st0{fill:#FFFCBB;}
</style>
<path id="skin-D" d="M669.3,468c-55.9-80-81.5-110-170.3-110s-114.4,30-170.3,109.9c-62,88.5,55.3,173.6,170.3,173.6
	S731.3,556.5,669.3,468z"/>
<path id="skin-L" d="M429.4,404.9c0-17.7,31.2-32,69.6-32c38.5,0,69.6,14.3,69.6,32s-31.2,44-69.6,44
	C460.5,448.9,429.4,422.6,429.4,404.9z"/>
<path id="skin" d="M669.8,468.7c-0.2-0.2-0.3-0.5-0.5-0.7c-55.9-80-81.5-110-170.3-110s-114.4,30-170.3,110
	c-0.2,0.2-0.3,0.5-0.5,0.7c3.2,9.6,6,17.9,7.9,24.1c10.8,34.8,26.2,42.4,26.2,42.4s-12.5-33.2,20.8-34.1
	c2.8,20.8,12.8,45.9,30.4,57.2c28.4,18.2,46-6.4,55-20.5c9-14,13.3-40.2-15.1-58.3c-15.9-10.2-32.3-15.7-45.3-16.1
	c-8.5-18.5-17.3-48.3-0.5-70.3c19.1-25,67-29.4,91.6-30c24.5,0.5,72.5,4.9,91.6,30c16.8,22,8,51.8-0.5,70.3
	c-13,0.4-29.5,5.9-45.3,16.1c-28.4,18.2-24.1,44.3-15.1,58.3s26.6,38.6,55,20.5c17.6-11.3,27.5-36.4,30.4-57.2
	c33.3,1,20.8,34.1,20.8,34.1s15.3-7.6,26.2-42.4C663.8,486.6,666.6,478.2,669.8,468.7z"/>
<g id="skin2-L">
	<path id="skin2-L_00000149365713270664563960000015565349020570817203_"  
d="M637.1,474.8
		c-20.8-36.5-81.7-48.5-87.9-46.3c-14.5,5.3-25,48.4-26,70.2c-1.3,29.6,4.9,44.4,11.4,44.3C580.4,542.7,647.9,493.7,637.1,474.8z"/>
	<path id="skin2-L_00000156558154907353085880000011873290611932470409_"  d="M448.7,428.5c-6.1-2.2-67.1,9.8-87.9,46.3
		c-10.8,19,56.7,68,102.4,68.2c6.5,0,12.7-14.7,11.4-44.3C473.8,476.9,463.3,433.8,448.7,428.5z"/>
	<path id="skin2-L_00000027577174539516099830000006239878104576513964_"  d="M705.4,531.5c-0.9-7.2-5.6-12.8-10.3-16.3
		c2-1.5,4-3.1,5.6-4.7c-4.5-6.8-10.1-9.2-18.1-8.5c-40.9,3.6-32.4,85.6-116.7,118.2c-4.7,1.8,2.8,13.2,6.7,18.9
		c6.1-2.6,9.5-8.5,10.9-13.3c1.4,2.9,3,5.8,4.7,8.2c6.9-2.9,11.1-9.3,13.1-14.9c2.2,3.5,4.8,6.9,7.4,9.7c6.7-4,10.5-10.8,12.3-17.1
		c3.3,3.7,7.2,7.2,11,9.9c5.5-5.1,7.9-12,8.5-18.3c4.3,3.4,9.3,6.4,14,8.5c4.6-6.4,5.4-14.1,4.6-20.6c4.5,2.1,9.5,3.8,14,4.8
		c3.8-8.7,1.9-18.1-1.2-24.7c5.1,2,10.9,3.4,16,4.1c2.5-7.4,1-15-1.7-21c4.9,0.7,10.2,0.8,14.8,0.5c1-8-2.2-15.3-6.2-20.6
		C698.4,533.5,702.1,532.6,705.4,531.5z"/>
	<path id="skin2-L_00000072995765164385763400000001857007057524390305_" 
d="M432.1,620.2
		c-84.3-32.6-75.8-114.6-116.7-118.2c-8-0.7-13.7,1.7-18.1,8.5c1.6,1.6,3.6,3.3,5.6,4.7c-4.7,3.5-9.4,9.1-10.3,16.3
		c3.3,1.1,7.1,2,10.8,2.5c-4,5.4-7.2,12.6-6.2,20.6c4.6,0.4,9.9,0.2,14.8-0.5c-2.7,6-4.2,13.6-1.7,21c5.1-0.6,10.9-2.1,16-4.1
		c-3.1,6.7-5,16.1-1.2,24.7c4.5-1,9.5-2.7,14-4.8c-0.8,6.5,0,14.2,4.6,20.6c4.7-2.1,9.7-5.1,14-8.5c0.6,6.3,3,13.2,8.5,18.3
		c3.7-2.7,7.7-6.2,11-9.9c1.8,6.3,5.6,13.1,12.3,17.1c2.6-2.8,5.2-6.2,7.4-9.7c2.1,5.7,6.2,12,13.1,14.9c1.7-2.4,3.3-5.3,4.7-8.2
		c1.4,4.8,4.8,10.7,10.9,13.3C429.3,633.4,436.9,622,432.1,620.2z"/>
</g>
</svg>
