<?xml version="1.0" encoding="utf-8"?>
<!-- Generator: Adobe Illustrator 26.0.1, SVG Export Plug-In . SVG Version: 6.00 Build 0)  -->
<svg version="1.1" id="bear" xmlns="http://www.w3.org/2000/svg" xmlns:xlink="http://www.w3.org/1999/xlink" x="0px" y="0px"
	 viewBox="0 0 1000 1000" style="enable-background:new 0 0 1000 1000;" xml:space="preserve">
<style type="text/css">
	.st0{fill:#C73056;}
	.st1{fill:#F35C82;}
	.st2{fill:#FF8599;}
</style>
<path id="skin-D"  d="M500,357.9c-96.4,0-250.7,13.4-169.8,226.8c8.6,22.8,73.3,59.6,169.8,59.6s161.1-36.8,169.8-59.6
	C750.7,371.3,596.4,357.9,500,357.9z"/>
<path id="skin"  d="M500,367.1c-84,0-218.3,12.6-147.8,212.1c7.5,21.3,63.8,55.7,147.8,55.7s140.3-34.4,147.8-55.7
	C718.3,379.7,584,367.1,500,367.1z"/>
<path id="skin-L"  d="M617.9,408.9c0,11.2-52.8,43.9-117.9,43.9S382.1,420,382.1,408.9c0-11.2,52.8-29.4,117.9-29.4
	S617.9,397.7,617.9,408.9z"/>
</svg>
