<?xml version="1.0" encoding="utf-8"?>
<!-- Generator: Adobe Illustrator 26.0.1, SVG Export Plug-In . SVG Version: 6.00 Build 0)  -->
<svg version="1.1" id="head" xmlns="http://www.w3.org/2000/svg" xmlns:xlink="http://www.w3.org/1999/xlink" x="0px" y="0px"
	 viewBox="0 0 1000 1000" style="enable-background:new 0 0 1000 1000;" xml:space="preserve">
<style type="text/css">
	.st0{fill:#0081B2;}
	.st1{fill:#009CD6;}
	.st2{fill:#1FB4E3;}
</style>
<path id="skin-D"  d="M617.1,407.8c-19.9-17.5-69.1-44.3-117.9-44.3s-98.1,26.7-117.9,44.3s-61.3,61.5-61.3,97.8
	c0,33,16.5,68.5,51.4,84.8c35,16.2,74,59.2,127.8,59.2s92.8-42.9,127.8-59.2c35-16.2,51.4-51.7,51.4-84.8
	C678.4,469.3,637,425.4,617.1,407.8z"/>
<path id="skin"  d="M608.8,414.8c-18.5-16.3-64.2-41.2-109.7-41.2s-91.2,24.9-109.7,41.2c-18.5,16.3-57,57.2-57,91
	c0,30.7,15.3,63.7,47.8,78.8c32.5,15.1,68.8,55,118.8,55s86.3-39.9,118.8-55c32.5-15.1,47.8-48.1,47.8-78.8
	C665.8,472,627.3,431.1,608.8,414.8z"/>
<path id="skin-L"  d="M412.7,441.3c0-14.7,38.7-57.6,86.5-57.6s86.5,42.9,86.5,57.6c0,14.7-38.7,29.8-86.5,29.8
	S412.7,456,412.7,441.3z"/>
<path id="skin-D" 
d="M587.7,479.9c-20.2,0-50,30-88.6,30
	s-68.3-30-88.6-30c-31.8,0-53.8,19.3-49.1,43c4.7,23.8,34.4,43,66.2,43c13.9,0,52.2-17.2,71.4-17.2c19.2,0,57.5,17.2,71.4,17.2
	c31.8,0,61.5-19.3,66.2-43C641.5,499.1,619.5,479.9,587.7,479.9z"/>
</svg>
