<?xml version="1.0" encoding="utf-8"?>
<!-- Generator: Adobe Illustrator 26.0.1, SVG Export Plug-In . SVG Version: 6.00 Build 0)  -->
<svg version="1.1" id="head" xmlns="http://www.w3.org/2000/svg" xmlns:xlink="http://www.w3.org/1999/xlink" x="0px" y="0px"
	 viewBox="0 0 1000 1000" style="enable-background:new 0 0 1000 1000;" xml:space="preserve">
<path id="skin-D" d="M538.4,338.9c-13.3,1.9-28.7,10.4-38.4,10.4s-25.1-8.5-38.4-10.4c-79.2-11.4-143.5,69.3-143.5,143.1
	s64.2,143,143.5,154.3c13.3,1.9,26.2,2.1,38.4,0.7c12.2,1.4,25.1,1.3,38.4-0.7C617.7,625,681.9,555.9,681.9,482
	S617.7,327.5,538.4,338.9z"/>
<path id="skin" d="M449.7,475.1c19.1,7.8,36.1,17.5,50.3,28.5c14.3-11,31.2-20.7,50.3-28.5c37.3-15.2,75.6-19.8,107.2-15.2
	c-7.7-49.4-60.3-111.7-124.1-103.7c-11.6,1.5-25,7.9-33.5,7.9s-21.9-6.5-33.5-7.9c-63.8-8-116.4,54.3-124.1,103.7
	C374.1,455.3,412.4,460,449.7,475.1z"/>
<path id="skin-L" d="M555.3,407.6c0,10.7-24.8,40.1-55.3,40.1s-55.3-29.4-55.3-40.1s24.8,1.3,55.3,1.3S555.3,396.9,555.3,407.6z"/>
</svg>
