<?xml version="1.0" encoding="utf-8"?>
<!-- Generator: Adobe Illustrator 26.0.1, SVG Export Plug-In . SVG Version: 6.00 Build 0)  -->
<svg version="1.1" id="head" xmlns="http://www.w3.org/2000/svg" xmlns:xlink="http://www.w3.org/1999/xlink" x="0px" y="0px"
	 viewBox="0 0 1000 1000" style="enable-background:new 0 0 1000 1000;" xml:space="preserve">
<style type="text/css">
	.st0{fill:#773882;}
	.st1{fill:#B177B9;}
	.st2{fill:#C288D1;}
</style>
<path id="skin-D"
d="M688.8,433.5c-12.6-24.4-127-77.3-189.8-77.3c-62.8,0-177.3,52.9-189.8,77.3
	c-12.6,24.4,13.6,122.7,41.9,150c28.3,27.3,123.9,59.9,148,59.9s119.7-32.6,148-59.9C675.2,556.2,701.4,457.9,688.8,433.5z"/>
<path id="skin"
d="M678.2,454.1c-6.4-30.1-48-53.9-91.6-68.8c-14.9,14.5-62.8,32.2-60.5,41.1c7.2-3.8,11.8-6.4,11.8-0.7
	c0,11.1-17.4,73.7-38.8,73.7c-21.4,0-38.8-62.6-38.8-73.7c0-5.7,4.5-3.1,11.8,0.7c2.3-8.9-45.7-26.6-60.5-41.1
	c-43.6,14.9-85.2,38.6-91.6,68.8c-11.2,52.8,37.1,110.5,52.5,125.3c18.5,17.8,92.3,56.6,126.7,56.6s108.2-38.9,126.7-56.6
	C641.1,564.7,689.4,507,678.2,454.1z"/>
<g id="skin-D">
	<path d="M650.6,563c-5.7,7.7-2.2-40.6-26.3-58.5c-24.1-17.9-48.5-2.7-42.8-10.4c5.7-7.7,29.8-22.4,53.9-4.6
		C659.4,507.4,656.3,555.3,650.6,563z"/>
	<path d="M347.4,563c5.7,7.7,2.2-40.6,26.3-58.5c24.1-17.9,48.5-2.7,42.8-10.4c-5.7-7.7-29.8-22.4-53.9-4.6
		C338.6,507.4,341.7,555.3,347.4,563z"/>
</g>
<g id="skin-L">
	<path d="M396.5,419.4c24.4-0.2,46.9,13.8,65.3,16.8c-1-4.7-1.6-8.3-1.6-10.3c0-5.7,4.5-3.1,11.8,0.7
		c2.3-8.9-45.7-26.6-60.5-41.1c-39,13.3-76.4,33.7-88.5,59.5C343.8,436.2,368.4,419.6,396.5,419.4z"/>
	<path d="M586.6,385.4c-14.9,14.5-62.8,32.2-60.5,41.1c7.2-3.8,11.8-6.4,11.8-0.7c0,2-0.6,5.7-1.6,10.3
		c18.4-3,40.9-16.9,65.3-16.8c28.1,0.2,52.7,16.8,73.5,25.5C663,419.1,625.6,398.7,586.6,385.4z"/>
	<path
d="M566.6,588.6c-11-12,12.7-14.5,30.1-30.4c17.4-15.9,22-39.2,33-27.2c11,12,5.7,34.6-11.7,50.5
		C600.6,597.4,577.6,600.6,566.6,588.6z"/>
	<path d="M431.4,588.6c11-12-12.7-14.5-30.1-30.4c-17.4-15.9-22-39.2-33-27.2c-11,12-5.7,34.6,11.7,50.5
		C397.4,597.4,420.4,600.6,431.4,588.6z"/>
</g>
</svg>
