<?xml version="1.0" encoding="utf-8"?>
<!-- Generator: Adobe Illustrator 19.2.0, SVG Export Plug-In . SVG Version: 6.00 Build 0)  -->
<svg version="1.0" id="Layer_1" xmlns="http://www.w3.org/2000/svg" xmlns:xlink="http://www.w3.org/1999/xlink" x="0px" y="0px"
	 viewBox="0 0 1000 1000" enable-background="new 0 0 1000 1000" xml:space="preserve">
<g id="skin-L">
	<g id="frontpaws_Group_">
		<path id="frontpaws_Path_" fill="#9B7FFF" d="M589.6,614.6c-28.2,2.7-19,45.4-30.5,79.3c-9.6,28.3-47.7,63.6-47.2,86
			c0.4,0.7,0.9,1.4,1.4,2.1c5-2.94,10.25-5.42,15.7-7.4c-3.7,7.8-6.3,14.6-7.5,17.6c0.8,0.9,1.6,1.8,2.5,2.7
			c28.8,6.5,100.1-48.1,108.4-80.5C641.4,679,617.8,611.8,589.6,614.6z"/>
	</g>
	<g id="frontpaws_Group_2">
		<path id="frontpaws_Path_2" fill="#9B7FFF" d="M410.4,614.6c28.2,2.7,19,45.4,30.5,79.3c9.6,28.3,47.7,63.6,47.2,86
			c-0.4,0.7-0.9,1.4-1.4,2.1c-5-2.94-10.25-5.42-15.7-7.4c3.7,7.8,6.3,14.6,7.5,17.6c-0.8,0.9-1.6,1.8-2.5,2.7
			c-28.8,6.5-100.1-48.1-108.4-80.5C358.6,679,382.2,611.8,410.4,614.6z"/>
	</g>
</g>
<g id="skin2-L">
	<path id="frontpaws_Path_3" fill="#C8E7C2" d="M551,790c10.3-4.3,21.4-11,32.2-18.8c-5.23-6.09-11.54-11.18-18.6-15
		c1.7-6.5,1.94-13.3,0.7-19.9c-13,0.9-18.1,4.5-18.1,4.5c-0.2-6.3-7.7-12.7-7.7-12.7c-6.4,9.1-13,18.1-18.2,26.6
		C530.8,766,542.9,780.4,551,790z"/>
	<path id="frontpaws_Path_4" fill="#C8E7C2" d="M449,790c-10.3-4.3-21.4-11-32.2-18.8c5.23-6.09,11.54-11.18,18.6-15
		c-1.7-6.5-1.94-13.3-0.7-19.9c13,0.9,18.1,4.5,18.1,4.5c0.2-6.3,7.7-12.7,7.7-12.7c6.4,9.1,13,18.1,18.2,26.6
		C469.2,766,457.1,780.4,449,790z"/>
</g>
<g id="bone">
	<g id="frontpaws_Group_3">
		<path id="frontpaws_Path_5" fill="#523259" d="M551.9,749c-6.9-4.9-15.9-5.6-25.1-2.9c-14.3,16.8-16.2,32-14.4,41.9
			c0,0,3.3,0.6,11.5-9c-2.71,4.59-4.54,9.64-5.4,14.9c9.1,4,27.4,0.5,43-9C564.9,770,561.8,756.2,551.9,749z"/>
		<path id="frontpaws_Path_6" fill="#523259" d="M448.1,749c6.9-4.9,15.9-5.6,25.1-2.9c14.3,16.8,16.2,32,14.4,41.9
			c0,0-3.3,0.6-11.5-9c2.71,4.59,4.54,9.64,5.4,14.9c-9.1,4-27.4,0.5-43-9C435.1,770,438.2,756.2,448.1,749z"/>
	</g>
</g>
<g id="R_x3C_Clip_Group_x3E_">
	<g>
		<g>
			<defs>
				<path id="SVGID_1_" d="M589.6,614.6c-28.2,2.7-19,45.4-30.5,79.3c-9.6,28.3-47.7,63.6-47.2,86c0.4,0.7,0.9,1.4,1.4,2.1
					c5-2.94,10.25-5.42,15.7-7.4c-3.7,7.8-6.3,14.6-7.5,17.6c0.8,0.9,1.6,1.8,2.5,2.7c28.8,6.5,100.1-48.1,108.4-80.5
					C641.4,679,617.8,611.8,589.6,614.6z"/>
			</defs>
			<clipPath id="SVGID_2_">
				<use xlink:href="#SVGID_1_"  overflow="visible"/>
			</clipPath>
			<circle id="frontpaws-mask-r" clip-path="url(#SVGID_2_)" fill="#523259" cx="995" cy="5" r="5"/>
		</g>
	</g>
</g>
<g id="L_x3C_Clip_Group_x3E_">
	<g>
		<g>
			<defs>
				<path id="SVGID_3_" d="M410.4,614.6c-28.2-2.8-51.8,64.4-42.8,99.8c8.3,32.4,79.6,87,108.4,80.5c0.9-0.9,1.7-1.8,2.5-2.7
					c-1.2-3-3.8-9.8-7.5-17.6c5.45,1.98,10.7,4.46,15.7,7.4c0.5-0.7,1-1.4,1.4-2.1c0.5-22.4-37.6-57.7-47.2-86
					C429.4,660,438.6,617.3,410.4,614.6z"/>
			</defs>
			<clipPath id="SVGID_4_">
				<use xlink:href="#SVGID_3_"  overflow="visible"/>
			</clipPath>
			<circle id="frontpaws-mask-l" clip-path="url(#SVGID_4_)" fill="#523259" cx="5" cy="5" r="5"/>
		</g>
	</g>
</g>
</svg>
