<?xml version="1.0" encoding="utf-8"?>
<!-- Generator: Adobe Illustrator 26.0.1, SVG Export Plug-In . SVG Version: 6.00 Build 0)  -->
<svg version="1.1" id="lizard" xmlns="http://www.w3.org/2000/svg" xmlns:xlink="http://www.w3.org/1999/xlink" x="0px" y="0px"
	 viewBox="0 0 1000 1000" style="enable-background:new 0 0 1000 1000;" xml:space="preserve">
<g id="skin">
	<path d="M589.6,613.9c-28.2,2.7-12.5,47.5-24.1,81.4c-5.8,17-22,37.6-30.3,42c-1.5,0.4-2.9,1.1-4.3,2c-5.2,3.6-7.2,9.8-4.7,14.1
		c-3,4.4-3,9.8,0.2,12.9c1.5,1.5,3.5,2.2,5.6,2.2c0,0.2,0,0.4,0.1,0.6c1,5.1,7,8.2,13.4,7c0.6-0.1,1.2-0.3,1.8-0.5
		c10.1,0.3,14-7.9,25.7-12.5c17.3-6.8,49.2-30.8,54.8-52.6C637,675.1,617.8,611.1,589.6,613.9z"/>
	<path d="M469.1,739.3c-1.4-0.9-2.8-1.6-4.3-2c-8.4-4.4-24.6-25-30.3-42c-11.5-33.9,4.1-78.7-24.1-81.4s-47.4,61.3-38.3,96.7
		c5.6,21.8,37.5,45.8,54.8,52.6c11.7,4.6,15.6,12.8,25.7,12.5c0.6,0.2,1.2,0.4,1.8,0.5c6.4,1.3,12.4-1.9,13.4-7
		c0-0.2,0.1-0.4,0.1-0.6c2.1-0.1,4.1-0.8,5.6-2.2c3.2-3.1,3.1-8.5,0.2-12.9C476.3,749.1,474.3,742.9,469.1,739.3z"/>
</g>
<g id="skin2">
	<path d="M547.3,748.8c-3.8-4.2-6.7-8.9-8.6-13.9c-1.3,1-2.4,1.8-3.5,2.4c-1.5,0.4-2.9,1.1-4.3,2c-5.2,3.6-7.2,9.8-4.7,14.1
		c-3,4.4-3,9.8,0.2,12.9c1.5,1.5,3.5,2.2,5.6,2.2c0,0.2,0,0.4,0.1,0.6c1,5.1,7,8.2,13.4,7c0.6-0.1,1.2-0.3,1.8-0.5
		c10.1,0.3,14-7.9,25.7-12.5c0.2-0.1,0.5-0.2,0.7-0.3C563.7,761.2,554.4,756.6,547.3,748.8z"/>
	<path d="M469.1,739.3c-1.4-0.9-2.8-1.6-4.3-2c-1.1-0.6-2.2-1.4-3.5-2.4c-1.9,5.1-4.8,9.8-8.6,13.9c-7.1,7.8-16.5,12.4-26.6,14
		c0.2,0.1,0.5,0.2,0.7,0.3c11.7,4.6,15.6,12.8,25.7,12.5c0.6,0.2,1.2,0.4,1.8,0.5c6.4,1.3,12.4-1.9,13.4-7c0-0.2,0.1-0.4,0.1-0.6
		c2.1-0.1,4.1-0.8,5.6-2.2c3.2-3.1,3.1-8.5,0.2-12.9C476.3,749.1,474.3,742.9,469.1,739.3z"/>
</g>
</svg>
