<?xml version="1.0" encoding="utf-8"?>
<!-- Generator: Adobe Illustrator 26.0.1, SVG Export Plug-In . SVG Version: 6.00 Build 0)  -->
<svg version="1.1" id="lynx" xmlns="http://www.w3.org/2000/svg" xmlns:xlink="http://www.w3.org/1999/xlink" x="0px" y="0px"
	 viewBox="0 0 1000 1000" style="enable-background:new 0 0 1000 1000;" xml:space="preserve">
<g id="skin">
	<path d="M621.3,685.5c0.7-22.4-17.9-58-47.2-71c-12-5.3,3.4,53-4.7,69.1s-39.6,38.7-39.6,38.7c-3.5,2.1-5.1,5.4-4.6,8.7
		c-3.5,2.2-6.2,6-6.8,10.2c-0.7,4.9,1.8,8.8,5.7,9.9c0.6,4.5,4.1,7.6,8.9,7.2c0.4,0,0.8-0.1,1.3-0.2c0.9,1.2,2.2,2.2,3.8,2.9
		c5.4,2.1,12.5-0.3,16-5.5c0.4-0.6,0.7-1.2,1-1.8c0,0,11-6.5,24-16.1v5c0,0,5.6-2.4,10.1-11.7l1.3,6.1c0,0,4.8-3.3,7.4-12.8l3.9,8.9
		c0,0,5.4-5.6,4.7-19.2c0.1-0.1,0.2-0.2,0.2-0.2l5.8,11.2c0,0,5.2-6.1,3.3-19.8l3.9,7.5C619.7,712.6,626.6,704.3,621.3,685.5z"/>
	<path d="M474.8,731c0.5-3.2-1.2-6.6-4.6-8.7c0,0-31.5-22.5-39.6-38.7s7.3-74.4-4.7-69.1c-29.3,13-47.8,48.5-47.2,71
		c-5.2,18.8,1.7,27.1,1.7,27.1l3.9-7.5c-1.8,13.7,3.3,19.8,3.3,19.8l5.8-11.2c0.1,0.1,0.2,0.2,0.2,0.2c-0.8,13.5,4.7,19.2,4.7,19.2
		l3.9-8.9c2.6,9.5,7.4,12.8,7.4,12.8l1.3-6.1c4.5,9.3,10.1,11.7,10.1,11.7v-5c13,9.6,24,16.1,24,16.1c0.3,0.6,0.6,1.2,1,1.8
		c3.4,5.1,10.6,7.6,16,5.5c1.6-0.6,2.9-1.6,3.8-2.9c0.4,0.1,0.8,0.2,1.3,0.2c4.8,0.4,8.3-2.7,8.9-7.2c4-1.1,6.4-5,5.7-9.9
		C481,736.9,478.3,733.1,474.8,731z"/>
</g>
</svg>
