<?xml version="1.0" encoding="utf-8"?>
<!-- Generator: Adobe Illustrator 26.0.1, SVG Export Plug-In . SVG Version: 6.00 Build 0)  -->
<svg version="1.1" id="moose" xmlns="http://www.w3.org/2000/svg" xmlns:xlink="http://www.w3.org/1999/xlink" x="0px" y="0px"
	 viewBox="0 0 1000 1000" style="enable-background:new 0 0 1000 1000;" xml:space="preserve">
<g id="skin">
	<path d="M568.6,607.7c-22.4,3.3,10.1,43.6,5.6,78.7c-3.3,25.3-40.9,37.9-49.4,58.9c0,0-5.4,12.1-0.5,20.6s10.3,8.9,10.3,8.9
		c26.7,0.1,83.9-43.8,85.7-72.7C622.7,665.6,590.9,604.4,568.6,607.7z"/>
	<path d="M425.8,686.3c-4.5-35.1,28-75.4,5.6-78.7s-54.1,57.9-51.8,94.4c1.9,28.9,59,72.8,85.7,72.7c0,0,5.4-0.4,10.3-8.9
		s-0.5-20.6-0.5-20.6C466.7,724.3,429.1,711.7,425.8,686.3z"/>
</g>
<g id="bone">
	<path d="M565.8,730.8c-8.3-9.3-26.9-6.8-45.1,4.8c-7.5,4.8-9.5,14.9-4.3,22.1c2.5,3.5,5.2,6.9,8.2,10.2s6.1,6.4,9.2,9.2
		c6.6,5.9,16.9,5,22.4-1.9C569.7,758.2,574.1,740.1,565.8,730.8z"/>
	<path d="M479.3,735.6c-18.2-11.6-36.8-14.1-45.1-4.8s-3.9,27.4,9.5,44.3c5.5,7,15.8,7.9,22.4,1.9c3.2-2.8,6.3-5.9,9.2-9.2
		c3-3.3,5.7-6.7,8.2-10.2C488.8,750.5,486.8,740.4,479.3,735.6z"/>
</g>
</svg>
