<?xml version="1.0" encoding="utf-8"?>
<!-- Generator: Adobe Illustrator 26.0.1, SVG Export Plug-In . SVG Version: 6.00 Build 0)  -->
<svg version="1.1" id="fenek" xmlns="http://www.w3.org/2000/svg" xmlns:xlink="http://www.w3.org/1999/xlink" x="0px" y="0px"
	 viewBox="0 0 1000 1000" style="enable-background:new 0 0 1000 1000;" xml:space="preserve">
<g id="skin">
	<path d="M568.6,607.3c-22.4,3.1,10.1,41.6,5.6,75.1c0,0-75.4,51.1-49.8,89.3c7.5,11.2,37.9-6.2,41.1-25.3
		c41.9-10.5,57.3-25.2,61.7-49.8C631.5,672.1,590.9,604.1,568.6,607.3z"/>
	<path d="M425.8,682.4c-4.5-33.5,28-72,5.6-75.1s-62.9,64.8-58.5,89.3s19.8,39.3,61.7,49.8c3.2,19,33.6,36.4,41.1,25.3
		C501.2,733.5,425.8,682.4,425.8,682.4z"/>
</g>
</svg>
