<?xml version="1.0" encoding="utf-8"?>
<!-- Generator: Adobe Illustrator 26.0.1, SVG Export Plug-In . SVG Version: 6.00 Build 0)  -->
<svg version="1.1" id="goat" xmlns="http://www.w3.org/2000/svg" xmlns:xlink="http://www.w3.org/1999/xlink" x="0px" y="0px"
	 viewBox="0 0 1000 1000" style="enable-background:new 0 0 1000 1000;" xml:space="preserve">
<g id="skin">
	<path d="M631.5,685.2c0-0.4,0-0.9-0.1-1.3l-0.1-1.2l-0.1-1.2l-0.2-1.1c-0.5-2.9-1.1-5.2-1.9-7.4c-1.5-4.2-3.2-7.6-4.9-10.7
		c-3.5-6.1-7.3-11-11.1-15.5c-7.7-8.8-15.6-15.7-22.8-21.1c-3.6-2.7-7-5-10.1-6.9s-5.9-3.5-8.3-4.8c-2.4-1.2-4.3-2.1-5.6-2.7
		c-1.3-0.6-2.1-0.9-2.1-0.9c-1.1-0.4-2.2-0.5-3.4-0.1c-2.7,0.9-4.3,3.8-3.4,6.5l0.1,0.2c0,0,0.2,0.7,0.7,2.1
		c0.5,1.3,1.2,3.3,2.2,5.6c2,4.8,5,11.4,8.7,19c1.9,3.8,3.9,7.8,6,12s4.4,8.4,6.5,12.7s4.2,8.6,5.7,12.4c0.4,1,0.7,1.8,1,2.7
		c0.2,0.6,0.3,1.2,0.5,1.6c-0.1,0.4-0.4,1.2-0.8,2.2c-0.5,1.3-1.4,3-2.3,4.7c-1.9,3.5-4.4,7.3-7,11.1c-5.3,7.6-10.9,15.1-15.7,21.8
		s-8.8,12.5-11.5,16.7c-1.4,2.1-2.4,3.8-3.1,5c-0.4,0.6-0.6,1.1-0.8,1.4c-0.2,0.3-0.2,0.4-0.2,0.4l-0.6,1.4c-0.8,1.9-1,4.1-0.3,6.2
		c1.5,4.7,6.4,7.4,11.2,5.9c0,0,0.8-0.2,2.2-0.7s3.4-1.1,5.9-2.2c5-2,11.8-5.2,19.5-10s16.3-11.1,24.7-19.7
		c4.2-4.3,8.4-9.2,12.2-15.2c1-1.5,1.9-3.1,2.8-4.8c0.9-1.7,1.8-3.5,2.6-5.4c1.6-3.8,3.1-8.4,3.8-13.7l0.1-0.5
		c0,0.1,0.1-1.2,0.1-0.7v-0.2v-0.4v-0.7c0-0.5,0-1,0-1.4L631.5,685.2z M588.9,686.5L588.9,686.5
		C588.9,686.4,588.9,686.4,588.9,686.5v-0.2v-0.2c0-0.1,0-0.2,0-0.2c0-0.1,0-0.2,0-0.3c0,0.1,0,0.2,0.1,0.2
		C588.9,686.2,588.9,686.6,588.9,686.5z"/>
	<path d="M452.6,748.5c0,0-0.1-0.1-0.2-0.4c-0.2-0.3-0.4-0.8-0.8-1.4c-0.7-1.2-1.7-2.9-3.1-5c-2.7-4.2-6.7-10.1-11.5-16.7
		c-4.8-6.6-10.4-14.1-15.7-21.8c-2.6-3.8-5.1-7.6-7-11.1c-0.9-1.7-1.8-3.4-2.3-4.7c-0.4-1-0.7-1.8-0.8-2.2c0.1-0.5,0.3-1,0.5-1.6
		c0.3-0.8,0.6-1.7,1-2.7c1.5-3.8,3.6-8.2,5.7-12.4c2.1-4.3,4.4-8.6,6.5-12.7c2.1-4.2,4.2-8.2,6-12c3.7-7.6,6.7-14.2,8.7-19
		c1-2.4,1.7-4.3,2.2-5.6s0.7-2.1,0.7-2.1l0.1-0.2c0.9-2.7-0.7-5.6-3.4-6.5c-1.2-0.4-2.4-0.3-3.4,0.1c0,0-0.8,0.3-2.1,0.9
		c-1.3,0.6-3.3,1.5-5.6,2.7c-2.4,1.2-5.2,2.8-8.3,4.8c-3.1,2-6.5,4.2-10.1,6.9c-7.2,5.4-15.1,12.2-22.8,21.1
		c-3.8,4.5-7.6,9.4-11.1,15.5c-1.7,3.1-3.5,6.5-4.9,10.7c-0.7,2.1-1.4,4.5-1.9,7.4l-0.2,1.1l-0.1,1.2l-0.1,1.2c0,0.4,0,0.9-0.1,1.3
		v1.3c0,0.5,0,1,0,1.4v0.7v0.4v0.2c-0.1-0.5,0.1,0.9,0.1,0.7l0.1,0.5c0.6,5.4,2.1,9.9,3.8,13.7c0.8,1.9,1.7,3.7,2.6,5.4
		s1.9,3.3,2.8,4.8c3.9,6,8,10.9,12.2,15.2c8.4,8.6,17,14.9,24.7,19.7s14.5,8,19.5,10c2.5,1,4.5,1.7,5.9,2.2c1.4,0.4,2.2,0.7,2.2,0.7
		c4.7,1.5,9.7-1.2,11.2-5.9c0.7-2.1,0.5-4.3-0.3-6.2L452.6,748.5z M411.2,686v0.2v0.1v0.1l0,0c0,0.1,0-0.3,0.1-0.8
		c0-0.1,0-0.2,0.1-0.2c0,0.1,0,0.2,0,0.3C411.2,685.9,411.2,685.9,411.2,686z"/>
</g>
<g id="bone">
	<path d="M568.1,736.7c-9-6.5-28.6,5.2-31.7,9.5c-3.1,4.2,1.8,13,10.8,19.5s18.9,8.3,21.9,4.1C572.2,765.5,577.1,743.2,568.1,736.7z
		"/>
	<path d="M431.9,736.7c-9,6.5-4.1,28.8-1.1,33c3.1,4.2,12.9,2.4,21.9-4.1s13.9-15.2,10.8-19.5C460.6,741.9,441,730.2,431.9,736.7z"
		/>
</g>
</svg>
