<?xml version="1.0" encoding="utf-8"?>
<!-- Generator: Adobe Illustrator 24.0.1, SVG Export Plug-In . SVG Version: 6.00 Build 0)  -->
<svg version="1.1" id="hands" xmlns="http://www.w3.org/2000/svg" xmlns:xlink="http://www.w3.org/1999/xlink" x="0px" y="0px"
	 viewBox="0 0 1000 1000" style="enable-background:new 0 0 1000 1000;" xml:space="preserve">

<g id="skin">
	<path d="M544.8,612.7c-24.8,6.8,17.2,36.2,16.9,67.5c-0.1,9.9-5.7,20.7-12,31.5c-2.6,4.4-6.8,7.6-11.8,8.6
		c-14.1,3.1-31.2,10.3-32.5,18.6c-0.6,3.9,18.4,6.1,18.4,6.1s-21.4,13.7-17.1,21.5c3,5.4,24.2-2.6,24.2-2.6s-5,15.4-0.2,17.8
		c4.8,2.4,21-10.1,21-10.1s3.5,11.6,10.1,11c4.4-0.3,10.6-8.4,14.2-18.7c2.7-7.8,7-15,12.5-21.3c16.1-18.5,28.4-41.4,27.3-56.6
		C613.5,653.6,569.5,605.9,544.8,612.7z"/>
	<path d="M455.2,612.7c24.8,6.8-17.2,36.2-16.9,67.5c0.1,9.9,5.7,20.7,12,31.5c2.6,4.4,6.8,7.6,11.8,8.6
		c14.1,3.1,31.2,10.3,32.5,18.6c0.6,3.9-18.4,6.1-18.4,6.1s21.4,13.7,17.1,21.5c-3,5.4-24.2-2.6-24.2-2.6s5,15.4,0.2,17.8
		c-4.8,2.4-21-10.1-21-10.1s-3.5,11.6-10.1,11c-4.4-0.3-10.6-8.4-14.2-18.7c-2.7-7.8-7-15-12.5-21.3c-16.1-18.5-28.4-41.4-27.3-56.6
		C386.5,653.6,430.5,605.9,455.2,612.7z"/>
</g>
<g id="skin-L">
	
		<ellipse transform="matrix(0.8005 -0.5993 0.5993 0.8005 -338.0212 470.705)" cx="538.1" cy="743.1" rx="3.1" ry="2.3"/>
	
		<ellipse transform="matrix(0.7206 -0.6934 0.6934 0.7206 -368.2952 590.6163)" cx="548.6" cy="752.3" rx="3.1" ry="2.3"/>
	
		<ellipse transform="matrix(0.7206 -0.6934 0.6934 0.7206 -306.2961 614.6887)" cx="609.5" cy="687.4" rx="4.6" ry="4"/>
	
		<ellipse transform="matrix(0.521 -0.8535 0.8535 0.521 -377.3282 842.1134)" cx="561.7" cy="757.3" rx="3.1" ry="2.3"/>
	
		<ellipse transform="matrix(0.9511 -0.3088 0.3088 0.9511 -205.0448 206.2327)" cx="549" cy="750.9" rx="1.4" ry="1.1"/>
	
		<ellipse transform="matrix(0.5993 -0.8005 0.8005 0.5993 -409.9061 667.5433)" cx="461.9" cy="743.2" rx="2.3" ry="3.1"/>
	
		<ellipse transform="matrix(0.6934 -0.7206 0.7206 0.6934 -403.6075 556.0789)" cx="451.6" cy="752.3" rx="2.3" ry="3.1"/>
	
		<ellipse transform="matrix(0.6934 -0.7206 0.7206 0.6934 -375.5541 492.2672)"  cx="390.6" cy="687.4" rx="4" ry="4.6"/>
	
		<ellipse transform="matrix(0.8535 -0.521 0.521 0.8535 -330.3704 339.2566)" cx="438.3" cy="757.3" rx="2.3" ry="3.1"/>
	<ellipse transform="matrix(0.3088 -0.9511 0.9511 0.3088 -402.5641 947.9865)" cx="451" cy="751" rx="1.1" ry="1.4"/>
</g>
</svg>
