<?xml version="1.0" encoding="utf-8"?>
<!-- Generator: Adobe Illustrator 24.0.1, SVG Export Plug-In . SVG Version: 6.00 Build 0)  -->
<svg version="1.1" id="Layer_1" xmlns="http://www.w3.org/2000/svg" xmlns:xlink="http://www.w3.org/1999/xlink" x="0px" y="0px"
	 viewBox="0 0 800 800" style="enable-background:new 0 0 800 800;" xml:space="preserve">
<style type="text/css">
	.st0{fill:#FFFFFF;}
</style>
<path id="white" class="st0" d="M314.6,461.3c0,0,10,4,16.3,5.3c0,0,1.8-26-1.4-36.8c0,0,24,4.2,45.7-10.7
	c21.7-15,46.1-42.8,46.1-42.8l-4.8-13c0,0,2.7-5.4,12.9-10.4c10.2-5,13-4.2,13-4.2l1.9,32.9l14.6-1.9c0,0,7.2-18.5,9.9-20.5
	c2.6-2,12.8-8.6,12.8-8.6l12.1-11.7c0,0,5.1,4.2,4.4,11.7c0,0,7.9-3.1,15.7-1c3,0.8,0.4,9.3,7.2,8c14-2.5,37.8,1.3,49.6,8.1
	c0,0,16.6-0.7,20.8,2.9s4.3,8.3,4.3,8.3l-4,1.9c0,0,9.1,13.4,9.5,16.1c0.4,2.8-13.3,1-13.3,1s-12.2-3.5-25.8,4.2s-14.4,9.1-14.4,9.1
	s-12.2-11.6-28.9-10.3c-16.7,1.3-19.5,3-19.5,3s-8.1,37.6-9,46.7s-3.3,30.9-2.5,44.8s-2.7,30.6-2.7,30.6s-17.1-0.9-34-1
	s-44.2,0.1-53.3-0.9c-9.1-1-42.8-9.9-42.8-9.9l16.4-33.4c0,0-20.3,7.7-34.5,8.6s-19.1,1.2-19.1,1.2S308.4,477.6,314.6,461.3z"/>
<path id="black" d="M604.3,391.5c-1.2-2.4-2.6-4.6-4.1-6.6c-1-1.4-2.2-2.8-3.3-4.1l2.7-0.9c0.3-2,0-3.6-0.4-5.1s-0.9-2.8-1.5-4
	s-1.3-2.4-2-3.5c-0.7-1.1-1.4-2.1-2.3-3.2V364c-1-1.3-2.7-1.8-4.3-1.2c-0.2,0.1-0.7,0.2-1.3,0.2s-1.2,0-1.9,0s-1.4-0.1-2-0.1
	c-0.7-0.1-1.4-0.2-2-0.2h-0.2c-0.2,0-0.4,0-0.7,0c-2,0.2-4,0.4-6,0.8c-3.4-1.8-6.8-3.5-10.4-4.8c-9.3-3.5-19.2-5.4-29.1-5.7
	c-5.4-0.1-10.8,0.2-16.2,0.9c-0.1-2.6-0.7-5.7-1.9-7.2c-1.9-2.4-5.2-3-9.8-2c-2.5,0.6-4.7,0.9-6.7,1.1c0-0.3,0-0.7,0-1
	c0-1.3-0.1-2.7-0.5-4.2c-0.4-1.5-1-3.2-2.3-4.7c-0.7-0.7-1.5-1.4-2.4-1.9c-0.9-0.5-1.9-0.8-2.8-0.9c-0.9-0.1-1.8-0.1-2.7-0.1
	c-0.4,0-0.8,0.1-1.2,0.2c-0.2,0-0.4,0.1-0.6,0.1c-0.2,0.1-0.4,0.1-0.8,0.2l-2,5.9c0-0.1-0.1-0.1-0.1-0.2v0.1c0,0.1,0.1,0.2,0,0.4
	c0,0.1,0,0.3,0,0.5s0,0.3-0.1,0.5c-0.1,0.7-0.6,1.7-1.1,2.6c-1.1,1.8-3,3.6-5,5.2c-1,0.8-2,1.6-3.2,2.3c-1.1,0.7-2.2,1.5-3.4,2.1
	c-2.3,1.4-4.8,2.6-7.3,3.8l-2.2,4.4v0.1c0,0.1,0,0.3,0,0.4c0,0.3,0,0.6-0.1,1c-0.1,0.7-0.2,1.4-0.4,2.2c-0.4,1.5-1,3-1.8,4.4
	c-1.5,2.8-3.4,5.4-5.6,7.8c-0.3,0-0.6,0.1-0.9,0.1c-0.8,0.1-1.5,0.2-2.3,0.3c-0.8,0.1-1.5,0.2-2.3,0.3c-0.7,0-1.3,0.1-2,0.2
	c0.2-2.1,0.3-4.2,0.4-6.2c0.4-2.8,0.4-5.7,0-8.6c0-0.2-0.1-0.5-0.1-0.7c-0.2-4.9-0.7-9.2-1.1-12.1c1.3-0.4,2.3-1.6,2.3-3.1
	c0-1.8-1.5-3.3-3.3-3.3c-0.5,0-1.1,0-1.6,0.1c-0.6-0.3-1.3-0.4-2-0.2c-0.5,0.1-1,0.3-1.4,0.6c-1.5,0.3-3,0.6-4.5,1
	c-3,0.9-5.8,2.2-8.6,3.6c-2.7,1.4-5.3,3-7.8,4.7c-1.2,0.9-2.5,1.7-3.6,2.7c-1.2,0.9-2.3,1.8-3.6,3l-0.2,0.2c-1.2,1.1-1.6,3-0.7,4.4
	c1.8,2.8,3.5,5.7,5.2,8.5c-1.6,1.1-4.7,3-9.9,4.6c-5.7,1.7-7.8,6.3-7.2,10.1c0.2,1.1,0.5,2.2,1.1,3.1c-1.4,1.3-2.9,2.7-4.3,4.1
	c-1.7,1.7-3.4,3.6-5,5.3c-1.6,1.7-3.1,3.4-4.7,5.1c-3.2,3.3-6.6,6.3-10.2,9.1c-7.2,5.5-15.2,10-23.8,12.1c-4.3,1-8.7,1.4-13.1,1.2
	c-4.4-0.3-8.7-1.2-12.8-2.7c-1-0.4-2.1-0.3-3.2,0.2c-1.9,1-2.6,3.3-1.6,5.2l0.4,0.7c1,1.2,2,2.9,2.8,4.7c0.8,1.8,1.5,3.7,2,5.7
	c1.1,4,1.8,8.1,2.1,12.2c0.2,2.1,0.3,4.2,0.2,6.2c0,0.6,0,1.2,0,1.9c-3.4-1.1-12.4-4-12.4-4c-2.4-1.2-4.6-2.6-6.3-4.5
	c-0.4,0.4-0.8,0.8-1,1.4c-1.2,2.7-1.6,5.2-1.8,7.6c-0.2,2.4-0.2,4.7-0.1,7c0.3,4.6,1,9.1,2.4,13.6c0.8,2.2,1.6,4.5,3.3,6.8
	c0.9,1.1,2,2.4,4,3.1c0.5,0.2,1,0.2,1.6,0.3c0.4,0,0.8,0,1.2-0.1c0.4,0.1,0.8,0.2,1.3,0.2c1.2,0,2.4-0.1,3.5-0.1
	c0.2,0.1,0.3,0.3,0.5,0.4l8.2,4.9c0.6,0.4,1.4,0.6,2.1,0.6c0.9,0,1.8-0.3,2.5-0.9l9.5-7.5c0.2-0.1,0.3-0.3,0.5-0.5
	c0.2,0,0.5-0.1,0.7-0.1c4.5-0.9,8.9-2.2,13.4-3.5c0.2-0.1,0.4-0.1,0.6-0.2l-0.8,1.1c-0.8,1.1-1.6,2.3-2.3,3.5
	c-1.5,2.3-2.8,4.8-4.1,7.2s-2.4,4.9-3.5,7.4c-1.1,2.5-2,5-2.9,7.8L350,513c-0.2,0.6-0.2,1.3-0.1,1.9c0.4,2.1,2.4,3.4,4.5,3l0.7-0.1
	h0.2h0.3h0.5c0.4,0,0.7,0,1.1,0l1.2,0.1c0.8,0,1.6,0.1,2.4,0.3c0.8,0.1,1.6,0.2,2.4,0.4c3.2,0.6,6.4,1.3,9.6,2.1s6.4,1.7,9.6,2.6
	c3,0.8,6,1.8,9,2.8c0.1,0,0.1,0,0.2,0.1c0.1,0,0.2,0.1,0.3,0.1c0.1,0,0.2,0.1,0.3,0.1c0.2,0.1,0.4,0.1,0.7,0.1
	c0.8,0.1,1.5,0.2,2.3,0.3l3,0.3c2,0.2,3.9,0.4,5.9,0.5c3.9,0.2,7.8,0.4,11.8,0.4c3.9,0,7.8,0,11.7-0.2l11.6-0.4
	c7.7-0.2,15.3-0.5,22.9-0.3c3.8,0.1,7.6,0.4,11.3,0.9c1.9,0.2,3.7,0.6,5.5,0.9l2.6,0.6c0.8,0.3,1.7,0.5,2.5,0.8
	c2,0.6,4.2-0.4,4.8-2.4l0.2-0.6l0.1-0.5c0.1-0.4,0.2-0.7,0.3-1c0.2-0.7,0.3-1.4,0.4-2c0.3-1.3,0.5-2.7,0.7-4c0.4-2.7,0.6-5.3,0.8-8
	c0.3-5.3,0.3-10.6-0.1-15.8c-0.1-2.6-0.4-5.3-0.6-7.8l-0.2-3.6c-0.1-1.2,0-2.5,0-3.7c0-2.5,0.2-5,0.4-7.5s0.5-5,0.8-7.5
	c1.3-10,3.1-20,5.3-30c2.1-9.9,4.6-19.9,7.3-29.6v-0.1v-0.1c0.1-0.6,0.6-1.3,1.1-2.2c0.3-0.1,0.5-0.1,0.8-0.2
	c1.4-0.3,2.9-0.6,4.3-0.8c1.5-0.2,2.9-0.3,4.4-0.4c2.9-0.2,5.8-0.1,8.7,0.2c2.8,0.4,5.6,1,8.3,1.8c2.7,0.9,5.2,2.1,7.6,3.6
	c2.3,1.5,4.8,3.3,6.4,5.3c4.3,5.2,9.2,2.7,9.2,2.7c0.4-0.4-1.5-4.6-1.1-5c0.9-0.7,1.8-1.4,2.7-2.1c1.9-1.4,3.8-2.6,5.8-3.8
	c4-2.3,8.2-4.1,12.5-5.1c2.2-0.5,4.4-0.9,6.6-1c2.2-0.1,4.4-0.1,6.6,0.3c0.5,0.1,1.1,0.2,1.6,0.3s1.1,0.2,1.6,0.3
	c1,0.3,2.1,0.6,3.1,1l2,6c0,0,6.6-2.1,8.1-5.8C606.2,396,604.9,392.7,604.3,391.5z M570.2,373.1l1.2-0.4c3-1.2,6.2-1.6,9.4-1.9
	c0.9,0,1.6,0,2.2,0.1c0.8,0.1,1.7,0.1,2.5,0.2c0.9,0,1.7,0,2.7,0c0.1,0,0.1,0,0.2,0c0.2,0.2,0.3,0.4,0.4,0.7
	c0.3,0.5,0.6,1.1,0.9,1.6c-0.3,0-0.6,0-0.9-0.1l-0.9-0.1H587l-1.8,0.1l-1.7,0.3c-4.6,0.8-8.7,2.5-12.5,4.5c-0.1,0-0.2,0.1-0.3,0.2
	c-0.7-1.4-1.5-2.7-2.3-4.1c-0.1-0.1-0.1-0.2-0.2-0.3c0.3-0.1,0.6-0.2,0.9-0.3L570.2,373.1z M585.6,387.7l-0.3,3
	c-1.5-0.1-3.1-0.1-4.6,0c-0.8,0-1.6,0.1-2.4,0.2c0.1-0.2,0.1-0.4,0-0.7c-0.5-1.6-1-4.8,0.6-7.1c0.7-1,1.9-1.7,3.2-1.9
	c1-0.1,1.8,0.1,2.4,0.7C585.9,383.2,585.8,385.6,585.6,387.7z M537.9,392.5c-0.8,1.7-1.3,3.6-1.4,5.5c-0.5-0.2-1.1-0.4-1.6-0.6
	l-2.7-10c-0.3-1.2-0.7-2.5-0.4-3.7c0.3-1.4,1.4-2.5,2.7-3.7l13.3-12.5c2.3,1.6,4.1,3.8,5.2,6.4c-1.5,1.2-2.9,2.5-4.2,3.9
	c-0.7,0.7-1.3,1.4-2,2.2c-0.6,0.8-1.3,1.5-1.9,2.3c-0.6,0.8-1.2,1.6-1.8,2.4s-1.1,1.6-1.7,2.6c-0.4,0.6-0.5,1.3-0.5,2
	C539.6,389.9,538.5,391.2,537.9,392.5z M567.2,375c0.8,1.3,1.6,2.6,2.3,4c-0.4,0.3-0.9,0.5-1.3,0.8c-0.9,0.6-1.9,1.1-2.7,1.7
	l-2.6,1.8l-1.3,0.9l-1.2,1l-2.5,2l-1.2,1l-0.3,0.2l-0.2,0.2l-0.4,0.3c-1,0.9-1.7,2-2.5,3.2c-1-1.1-1.9-2.2-2.8-3.1l-0.1-0.1
	c0.3-0.5,0.7-0.9,1-1.4c0.5-0.7,1.1-1.3,1.6-2c0.6-0.6,1.2-1.3,1.7-1.9c2.4-2.5,5-4.6,7.8-6.5c0.7-0.4,1.4-1,2.1-1.3l2.2-1.2
	c0,0,0.1,0,0.1-0.1C567,374.7,567.1,374.8,567.2,375z M553.7,399.7c2.1-1.6,4.3-3.4,6.3-5.3l0.7-0.7l0.4-0.4l0.3-0.3l1.1-1l2.2-2
	l1.1-1l1.1-0.9l0.1,0c0.9,1.6,1.8,3.1,2.9,4.6c-4.1,1.3-8.1,3.1-11.8,5.2c-1.5,0.9-3,1.8-4.4,2.8c-0.3-0.5-0.6-1-0.9-1.5
	C553,399.3,553.4,399.5,553.7,399.7z M576.7,382.2c-1.7,2.6-1.5,5.7-1.1,7.8l-4.9,1.4c-1-1.3-1.8-2.7-2.7-4.2l1.2-0.9
	c0.8-0.6,1.6-1.1,2.4-1.6c0.8-0.5,1.6-1,2.4-1.5c1-0.6,2.1-1.1,3.1-1.5C577,381.8,576.8,382,576.7,382.2z M561.2,365.9
	c0.8,0.3,1.6,0.6,2.4,1c-0.2,0.1-0.4,0.2-0.6,0.3l-2.6,1.4c-0.9,0.5-1.7,1.1-2.5,1.6c-1.4,0.9-2.7,1.9-4,2.9c-1.4-3-3.7-5.7-6.4-7.4
	c-0.4-0.2-0.9-0.2-1.2,0.1l-13.9,13c-1.2,1.1-2.8,2.6-3.3,4.7c-0.4,1.6,0.1,3.3,0.4,4.6l2.3,8.4c-2.6-0.7-5.2-1.1-7.8-1.5
	c-0.4-0.8-0.5-1.8-0.5-2.8l-0.8-10.2c-0.3-3.5-0.3-7.1,1.7-9.5c1-1.2,2.4-1.9,3.9-2.8c1-0.5,2-1.1,2.9-1.8c1.7-1.3,2.9-3.4,3-5.4
	c0-0.6,0-1.2-0.2-1.7c0.3,0,0.6,0,0.8,0C543.8,361,552.8,362.7,561.2,365.9z M509.4,352.4c0.4-0.1,0.7-0.1,1-0.2
	c-0.1,0.8-0.3,2-0.3,3.3c-0.7,0.2-1.4,0.3-2.2,0.5c-0.3-0.2-0.6-0.3-0.9-0.5c-0.4-0.2-0.9-0.4-1.3-0.5c-0.4-0.2-0.9-0.3-1.3-0.5
	c-0.9-0.3-1.8-0.5-2.7-0.6c-0.3-0.1-0.6-0.1-0.8-0.1C503.4,353.6,506.2,353.2,509.4,352.4z M501.6,362c0.3,0.1,0.5,0.2,0.8,0.3
	c0.3,0.1,0.5,0.2,0.8,0.3c0.3,0.1,0.5,0.2,0.7,0.4c0.1,0.1,0.2,0.1,0.3,0.2c0.1,0.1,0.2,0.1,0.2,0.1l3.4,0.7
	c5-1.3,10.1-2.2,15.2-2.8c-3.9,3.1-8,6.3-11.2,10.4c-3.1,3.8-4.2,7.3-3.4,10.5c0.2,0.9,0.6,1.8,1,2.6c0.5,1.2,1.1,2.4,1,3.5
	c-0.1,1.2-0.8,2.3-1.6,3.5c-0.8,1.1-1.6,2.4-1.8,3.9c-0.4,0.1-0.7,0.1-1.1,0.2c-5.1-0.3-10.3,0.2-15.3,1.5c-0.3-3.1-2.1-6-4.8-7.7
	c1.3,0,2.8-0.2,4.6-0.7c3.4-0.9,6.9-2.1,8.6-5.1c0.9-1.5,1.2-3.3,1.4-4.8l1.1-7.3c0.5-3.1,0.8-7-0.9-9.9
	C500.9,361.8,501.2,361.9,501.6,362z M473.3,517.5c-0.7-0.7-1.4-1.4-2.1-2.1c-0.5-0.5-1.1-0.9-1.6-1.3l3.5-2.6l1.3-1.7
	c0.5-0.6,0.6-1.4,0.3-2.2c-0.7-2-1.3-4-1.9-6.1c-0.5-2.1-1-4.1-1.3-6.2c-0.3-2.1-0.6-4.2-0.7-6.3c0-0.8-0.1-1.6-0.1-2.4l0.4-0.1
	c0.1,0,0.2,0,0.2,0c2.2-0.5,3.5-2.6,3-4.8l-1.8-7.8c-0.4-1.8-2-3.1-3.9-3.1h-0.2c-0.3,0-0.5,0.1-0.8,0.1c0.5-0.5,0.8-1.1,1.1-1.7
	c0.3-0.6,0.6-1.1,1-1.4c0.9-0.8,2.4-0.5,3.9-0.3h0.3c3.4,0.6,6.9,0.3,10.2-0.5c-0.4,4.4-0.9,8.7-1,13.2c0,0.3,0,0.5,0,0.8
	c-3.4,4.1-6.2,8.7-8.2,13.7c-0.6,1.4-1.1,2.9-1,4.5c0.1,3.5,2.7,6.4,4.5,8.3c0.2,0.2,0.5,0.3,0.8,0.3s0.6-0.1,0.7-0.4l3.5-4.5
	c0.2,0.6,0.3,1.2,0.4,1.8c-0.1,2-0.2,4-0.3,6c-0.2,2.5-0.5,4.9-1,7.3c-0.2,1.2-0.5,2.4-0.8,3.5c-1.5-0.2-3-0.4-4.4-0.5
	C475.8,520.1,474.6,518.9,473.3,517.5z M438.5,520.7l-1.3,0c-4-0.8-7.8-2.8-10.6-6c-3.7-4.1-5.6-9.8-5.4-15.7c0.2-0.6,0.3-1.3,0.5-2
	l5,1.5c-0.6,2.5-1.3,5-2.1,7.4c0,0.1-0.1,0.3-0.1,0.4c-0.4,2,1,3.8,2.9,4.2l0.9,0.2c3,0.2,6.1,0.5,9.1,0.7c2.5,0.3,5.1,0.5,7.6,0.8
	c-0.1,1.6,0,3.3,0.6,4.9l0.1,0.3c0.3,0.9,0.6,1.8,0.3,2.3c-0.2,0.4-0.9,0.6-1.4,0.8c-0.1,0-0.2,0.1-0.4,0.1
	C442.4,520.6,440.4,520.6,438.5,520.7z M380,511.9c-0.6,1-0.5,2.1-0.4,3.2l-5.5-1.5c-1.5-0.3-3-0.7-4.5-1c-0.1-0.5-0.1-1,0-1.4
	c0.1-2.4,0.6-5.5,2.4-8.2c0.3-0.1,0.7-0.1,1-0.2c1.5-0.2,3-0.2,4.6-0.2c1.6,0,3.2,0.2,4.8,0.4c0.8,0.1,1.6,0.2,2.4,0.4
	c0.8,0.1,1.6,0.3,2.3,0.5l1.9-0.1c1.4,0,2.6-1.1,2.8-2.5c0.3-2.3,0.8-4.6,1.4-6.8c0.6-2.2,1.2-4.5,1.9-6.6c0.7-2.2,1.4-4.4,2.3-6.5
	c0.5-1.1,0.9-2.1,1.5-3.1c0.5-1,1.1-2,1.8-3c0.1-0.1,0.2-0.3,0.3-0.4c0.3-0.3,0.6-0.7,0.8-1.1l4-7.9l0.2-0.5
	c0.5-1.1,0.5-2.5-0.1-3.6c-1.1-1.8-3.4-2.4-5.2-1.4c-0.7,0.6-1.5,1.2-2.4,1.7c-0.9,0.5-1.8,1-2.7,1.4c-1.1,0.5-2.1,0.9-3.2,1.3
	c0-0.4,0-0.8,0-1.1c0-0.3,0-0.7,0-1c0-0.9,0.2-1.8,0.5-2.7l12.6-4.4c1-0.4,1.9-1.1,2.3-2.1l9.6-20.5c-0.2,0.6-0.5,1.3-0.7,1.9
	c-2.5,7.2-4.9,14.3-7.3,21.5c-2.4,7.1-4.8,14.3-7.4,21.2c-2.8,7.2-5.1,14.5-7.3,21.8c-0.7,2.4-1.4,4.8-2,7.2c-2.4-0.1-4.8,1-6.5,1.8
	l-4.1,1.9C381.4,510.6,380.5,511.1,380,511.9z M370.9,462.9c-1.7-6.9-9.9-9.8-16.9-9h-0.3c-2.6,0.3-5.4,0.6-6.7-1.1
	c-0.5-0.8-0.5-1.6-0.3-2.2c0.3-1.2,1.2-2.3,2.3-2.9c1.7-0.8,3.7-0.8,5.6-0.5l-1.5,2.2c-0.2,0.3-0.2,0.7-0.1,1.1
	c0.2,0.3,0.5,0.5,0.9,0.5c2.7-0.1,5.4,0,8,0.3c0.4,0,0.8-0.2,1-0.5c1-1.8,2.5-4.6,1.8-7.4c-0.8-3.3-4.1-5.1-7-5.4
	c-3-0.3-5.8,0.6-8.4,1.5l-9.6,3.1c-1.5,0.5-3.3,1.1-4.7,2.3c-0.2-1.9-0.5-3.7-0.9-5.6c1.1,0,2.2-0.2,3.3-0.7
	c1.8-0.7,3.2-2.4,3.7-4.3c0.1-0.2,0.1-0.4,0.2-0.7c4.6-0.1,9.1-0.7,13.5-1.8c2.1-0.6,4.1-1.2,6.1-1.9c1.1,0.3,2.1,0.7,3,1.3
	c3.6,2.5,4.4,7,5.2,11.8c0.7,4,1.4,8.1,3.8,11.4c0.7,0.9,1.5,1.7,2.2,2.5c0.8,0.8,1.5,1.5,2.1,2.4c0.5,0.6,0.9,1.4,1.1,2.2
	c-0.8,1.5-1.7,3-2.5,4.5c-0.6,0.2-1.2,0.4-1.8,0.6c-1.5,0.5-3,1-4.1,2c-1.2-0.9-2.2-1.8-2.4-3c-0.1-0.7,0.4-1.4,1-1.7
	c0.5-0.3,0.7-0.1,0.8,0c0.3,0.3,0.8,0.3,1.2,0.1S371,463.3,370.9,462.9z M360.6,477.3c-0.3,0.4-1,0.7-1.7,0.9l-0.3,0.1
	c-2,0.7-3.8,1.8-5.3,3.4l-1.8-14.2c0-0.3-0.2-0.5-0.4-0.7c-1.8-1.2-4.4-1.1-6.5,0.3c-2.1,1.4-3.2,3.7-2.8,5.9
	c0.1,0.8,0.4,1.5,0.7,2.2c0.4,1.1,0.8,2.1,0.6,2.9c-0.2,0.5-0.5,0.9-1,1.1c-1.2,0.5-3.2,0.2-4.9-0.4c0.4-2,0.8-4.1,0.4-6.3
	c-0.3-1.6-1.1-3.3-2.5-4.5c0.1-0.7,0.2-1.4,0.3-2c0.3-2.6,0.4-5.2,0.4-7.8c0.7,0.9,1.5,1.7,2.2,2.4c0.7,0.7,1.6,1.8,3,2.1
	c1.1,0.3,2.2-0.1,3.1-0.4c0.4-0.1,0.7-0.2,1.1-0.4c1.9-0.7,3.7-1.3,5.5-1.2c3.3,0.2,5.9,2.7,7.2,5.1c1.6,2.9,2.2,6.2,2.8,9.5
	C360.8,476.1,360.9,476.8,360.6,477.3z M398.3,417.3c0.2-0.1,0.3-0.2,0.3-0.3c0,0,0,0.1,0.1,0.1l2.3,3.9c-0.3,0.7-0.7,1.4-1.1,2.1
	c-1.1,1.6-2.4,3.2-3.8,4.7c-1-1.4-1.4-3.3-1.2-5.2C395.2,420.3,396.5,418.3,398.3,417.3z M408.1,402.1c-1.5-1.6-3.1-3.1-4.7-4.5
	c2.8-2.6,5.8-5,8.8-7.5c0.4-0.3,0.9-0.7,1.3-1c3.5,2.5,6.1,6.5,6.8,10.7c0,0.3,0.2,0.6,0.5,0.7c0.3,0.2,0.6,0.2,0.9,0.1
	c2.2-0.9,5.2-2.1,7.2-4.3c0.1,0.5,0.2,1.1,0.2,1.6c0.1,0.5,0.1,1,0.2,1.6c-1-0.1-2.1,0.2-2.9,0.9c-0.1,0.1-0.3,0.3-0.5,0.4l-0.7,0.4
	c-0.4,0.3-0.9,0.5-1.4,0.8c-0.9,0.5-1.8,0.8-2.5,0.8c-0.7,0.1-1.2,0-1.5-0.2c-0.3-0.1-0.7-0.6-1.1-1.2l-0.3-0.4
	c-0.1-0.1-0.1-0.2-0.2-0.3c-1.5-1.6-4-1.8-5.6-0.3l-3.4,3.1C408.8,402.9,408.4,402.4,408.1,402.1z M441,360.5
	c-0.3-0.2-0.7-0.5-0.9-0.7c-0.4-0.5-0.1-1.1,0.2-1.4c0.1-0.2,0.3-0.3,0.5-0.5C440.8,358.8,440.9,359.6,441,360.5z M441.1,374.3
	c-2.1,0-4.2-0.1-6.2-0.3c-0.4,0-0.8,0.2-1,0.6c-1.6,3.4-1.6,7.5,0,10.9c0.5,1.1,1.2,2.2,1.9,3.3c1.5,2.5,3,4.8,2.2,7.1
	c0,0.1,0,0.2,0,0.3c-0.5,0.6-1,1.2-1.6,1.9c-0.1-0.6-0.2-1.1-0.4-1.7c-0.6-2.4-1.7-4.7-3.2-6.7c-1.3-1.7-2.4-3.5-3.4-5.4
	c-1-1.9-1.9-3.9-2.8-5.8c-0.9-2-1.8-3.9-2.6-5.9c-0.3-0.6-0.5-1.3-0.8-2c1.2-3.3,3.2-6.4,5.8-8.7c0.5,2.4,2.2,4.6,4.4,5.7
	c2.5,1.2,5.5,1,7.9-0.4C441.3,369.5,441.2,371.9,441.1,374.3z M472,385.9c-1.4-2.6-3.4-4.8-5.7-6.6l-0.1-0.1
	c-0.4-0.3-0.7-0.5-0.8-0.8c-0.2-0.4,0-0.9,0.4-1.7c0.3-0.6,0.6-1.2,0.7-2c0-0.1,0.1-0.1,0.1-0.2c3.1-0.7,6.4-1.1,8.4,0.8
	c0.7,0.7,1.3,1.6,1.9,2.6c1,1.7,2.2,3.7,4.5,4.1c1.7,0.3,3.2-0.5,4.5-1.2c1.1-0.6,2.2-1.1,3.3-1c0.5,0.1,1-0.3,1.1-0.8
	c0.5-2.5-1.3-4.5-2.8-6.2c-1.3-1.5-2.6-2.9-2.4-4.5c0.1-1.2,1.1-2.1,2.2-3.2c0.6-0.5,1.2-1.1,1.7-1.6c0.7-0.3,1.3-0.6,2-0.9
	c1.1-0.5,2.2-0.8,3.2-1c0.4,0,0.7-0.1,1.1-0.2c1-0.1,1.9-0.1,2.9-0.1c0.1,0,0.1,0,0.2,0c2,1.5,2.5,4.6,1.8,9.8l-1.1,7.3
	c-0.2,1.4-0.4,2.9-1.2,4.1c-1.4,2.3-4.4,3.3-7.4,4.1c-2.2,0.6-6.2,1.3-7.5-1c-0.1-0.2-0.4-0.4-0.6-0.5c-0.3-0.1-0.6,0-0.8,0.1
	l-15.5,10.1c-0.5,0.4-1.4,0.9-1.7,1.9c-0.3,1,0.1,1.9,0.3,2.5l3.3,7.9c0.2,0.6,0.5,1.2,0.9,1.9c-1-0.1-2-0.2-2.9-0.3
	c-1.9-0.2-3.8-0.5-5.7-1c-0.9-0.2-1.9-0.5-2.8-0.9c-0.9-0.3-1.8-0.7-2.7-1.2h-1c-1.3,0-2.5,0.7-3.2,1.8c3.1-6.3,6.1-11.9,8.6-16.3
	c1.8-0.7,3.8-1.4,5.8-2.1c2.2-0.8,4.4-1.5,6.5-2.3c0.3-0.1,0.5-0.3,0.6-0.6C472.2,386.4,472.2,386.1,472,385.9z M485.4,374.3
	c1.1,1.2,2.2,2.4,2.4,3.7c-1.2,0.1-2.3,0.7-3.3,1.2c-1.2,0.6-2.3,1.2-3.3,1c-1.4-0.2-2.2-1.6-3.1-3.2c-0.6-1.1-1.3-2.2-2.2-3.1
	c-1-0.9-2.1-1.4-3.3-1.7c0,0,0.1,0,0.1,0c2.4-1.4,6.2-3.6,10.4-5.7c-0.3,0.5-0.5,1.2-0.6,1.8C482.2,370.8,483.9,372.7,485.4,374.3z
	 M484.7,434.7c-0.2-0.3-0.4-0.5-0.6-0.8c-0.6-1,0-2.5,0.8-3.6c0.6-0.8,1.8-2.2,3.3-2.3c0.9-0.1,1.6,0.3,2.3,0.9
	c-0.4,1.7-0.7,3.4-1.1,5.1c-1.1,5.8-2.2,11.7-3.2,17.6c0,0.1-0.1,0.1-0.1,0.2c-0.3,0.4-0.7,0.9-1.1,1.1c-0.5,0.2-1.2-0.1-2.1-0.5
	c-0.5-0.3-1.1-0.5-1.7-0.7c-2.4-0.7-4.7,0.7-6.1,2.3c0-1,0.1-2,0.1-3.1c0.1-1.5,0.1-3,0.3-4.5c0.1-1.5,0.2-3,0.3-4.5l0.1-1.7
	l7.4-0.9c0.6-0.1,1.6-0.2,2.2-1.1C486.4,436.8,485.4,435.5,484.7,434.7z M483.1,484c0,0.1,0,0.1,0,0.2l0.2,4.1
	c0.2,2.6,0.4,5,0.5,7.5c0.1,1.3,0.1,2.7,0.1,4c-0.4-0.1-0.7,0.1-1,0.4l-4,5c-1.7-1.9-3.1-3.9-3.1-6.1c0-1.2,0.3-2.4,0.9-3.8
	C478.3,491.3,480.5,487.4,483.1,484z M484.2,464.8c-3.3,1-6.8,1.2-10.2,0.7h-0.3c-1.7-0.3-3.9-0.6-5.5,0.7c-0.7,0.6-1.1,1.3-1.5,2
	c-0.2,0.5-0.5,0.9-0.8,1.2c-1,1.1-2.8,1.2-4.4,1.1c-1.8,0-3.5-0.2-5.3-0.4c-1.1-0.2-2.3-0.4-3.4-0.7c-2.2-0.5-4.2-1-6.3-1.7
	c0-0.3,0.3-0.7,0.9-1.3l6.9-6.4l16,3.3l0.6,0.1c0.3,0.1,0.5,0.1,0.8,0.1c1.9-0.1,3.5-1.7,3.4-3.6c0-0.9,0-1.7,0-2.6
	c0.3-0.7,0.7-1.4,1.1-2c0.9-1.2,2.6-2.2,4.2-1.8c0.4,0.1,0.9,0.3,1.3,0.5c1.1,0.5,2.3,1.1,3.7,0.6c0.1,0,0.3-0.1,0.4-0.2
	c-0.5,3.4-1,6.8-1.5,10.2C484.3,464.7,484.3,464.7,484.2,464.8C484.3,464.8,484.2,464.8,484.2,464.8z M447.8,504.3
	c-3.1-0.4-6.2-0.7-9.3-1c-1.7-0.2-3.5-0.3-5.2-0.5c0.4-3.6,1-7.1,1.6-10.6c0.1-0.4,0.1-0.7,0.2-1.1c3.5,2.1,7,4.2,10.5,6.1
	c0.5,0.3,1.2,0.7,2,0.6c0.7,0,1.3-0.4,1.8-0.8c3.1-2.2,5.8-5,7.8-8.2l3.6-0.6l4.2,1.3c0,0.2,0.1,0.3,0.1,0.4
	c0.5,2.1,0.9,4.1,1.2,6.2c0,0.3,0.1,0.5,0.1,0.8c-2.8-0.4-5.9-0.6-9-0.5c-0.6,0-1.8,0.1-2.6,0.8c-0.6,0.6-0.9,1.3-1.1,1.9l-2,5.7
	C450.4,504.6,449.1,504.5,447.8,504.3z M381.1,482.6l2.5,0.5c0.9,0.2,1.9,0.1,2.7-0.4l5.8-3.1c-0.6,2.1-1.3,4.2-2.1,6.2
	c-0.1,0.4-0.3,0.7-0.4,1.1c-2.7-0.1-5.3,1-7.2,2.9c-1.7-0.2-3.3-0.6-4.9-1.2C378,486.3,379.3,484.2,381.1,482.6z M388.9,472.4
	l1.4-2.2c0.3-0.1,0.5-0.1,0.8-0.2c1.3-0.4,2.7-0.7,4.1-1L388.9,472.4z M390.4,463c0,0.8,0,1.5-0.1,2.2c0,0.1-0.1,0.3-0.1,0.4
	c-0.1,0-0.3,0.1-0.4,0.1c-1.8,0.6-3.6,1-5.4,1.3c0.9-1.6,1.8-3.2,2.6-4.9l3.5-1.2c0,0.3-0.1,0.7-0.1,1
	C390.4,462.3,390.4,462.7,390.4,463z M402.3,441.7c-0.2-0.5-0.7-0.7-1.2-0.6l-1.6,0.5c-0.4-0.6-0.8-1.2-1.4-1.7
	c4-4.3,8.3-8.3,12.8-12.1l-8.2,17.4C402.9,444,402.8,442.8,402.3,441.7z M414.9,409.2c0.4,0.3,0.8,0.5,1.2,0.7
	c1.5,0.7,3,1.1,4.5,1.1l-1.3,2.5l-0.2-0.2c-0.4-0.2-0.9-0.2-1.2,0.1c-0.9,0.8-2.1,1.2-3.5,1.5c-1.2,0.3-2.4,0.7-3.5,1.3
	c-0.8,0.5-1.5,1.3-2.1,2.2l-0.5-0.4l-1.1-1.9L414.9,409.2z M422.7,382.2l1.8,3.4c0,0-0.1,0-0.1,0c-1.6-0.1-3-0.7-4.3-1.5
	C420.9,383.4,421.8,382.8,422.7,382.2z M436.9,409.9c0.1,0.6,0.2,1.2,0.3,1.8c0,0.3,0.1,0.5,0.1,0.8c0.9,6.2-1.5,12.6-6,16.9
	l-1.7-4.7c-0.1-0.3-0.3-0.5-0.6-0.6c0.3-0.8,0.7-1.6,1-2.4c0.7-1.6,1.5-3.2,2.4-4.7c0.8-1.5,1.8-3,2.7-4.4c0.1-0.1,0.1-0.1,0.1-0.2
	C435.8,411.6,436.4,410.7,436.9,409.9z M471.2,416.3c1,0.2,1.9,0.4,2.9,0.7l0.2,0.1c-0.2,1.1-0.4,2.1-0.6,3.1
	c-0.3,0.2-0.7,0.4-0.9,0.7l-14.3,3l-5.2-3.5l3.5-6.4c0.9,0,1.9,0.1,2.8,0.2c2,0.2,3.9,0.5,5.8,0.9
	C467.3,415.5,469.3,415.8,471.2,416.3z M435.9,472.1c-0.1,0.1-0.2,0-0.2,0H435.9z M436.4,484.8c0.2-0.8,0.4-1.7,0.6-2.5l14.6,6.7
	c0.7,0.3,1.5,0.4,2.3,0.3l0.8-0.1c-1.8,2.4-3.9,4.6-6.4,6.3c-0.3,0.2-0.6,0.4-0.8,0.4c-0.2,0-0.6-0.2-0.9-0.4
	c-3.7-2.1-7.4-4.3-11.1-6.5C435.8,487.6,436.1,486.2,436.4,484.8z M463.5,479.7l-9.6,1.6l-15.3-7.1c-0.1-0.5-0.1-1-0.2-1.5l0.7,0.2
	l4.1,0.8l8.3,1.9c2.8,0.6,5.6,1.2,8.4,1.8c1.7,0.3,3.3,0.6,5.1,0.9C464.4,478.6,463.9,479.1,463.5,479.7z M444.9,467.2
	c-1.3-0.4-2.6-0.9-3.9-1.3c-0.6-0.2-1.3-0.5-1.9-0.7l-1-0.4l-0.5-0.2l-0.1-0.1h-0.1h-0.1c-0.5-0.2-1.1-0.2-1.8-0.2
	c-0.6,0.1-1.2,0.3-1.7,0.5c-0.3,0.8-0.7,1.7-1,2.6l-2.6-2.3c0.2-0.9,0.5-1.8,0.7-2.7l2.2-2.6c0.2-0.3,0.5-0.6,0.7-0.7
	c0.2-0.1,0.6-0.1,0.8-0.1c2.9,0.1,5.8,0.3,8.7,0.7c0.4,0.1,1,0.1,1.6-0.2c0.5-0.3,0.8-0.9,0.9-1.2c0,0,0,0,0,0l6.4,1.3l-5.9,5.5
	C445.5,465.9,445.1,466.6,444.9,467.2z M444.4,446.6c0.7-2.5,1.4-5.1,2.2-7.6c0-0.1,0.1-0.3,0.1-0.4c3.1,1.3,6.1,2.7,8,5.2
	c0.5,0.6,1.2,1.6,2.4,1.4c0.6-0.1,1.1-0.5,1.3-0.7l4.1-3.4l7,5c0.1,0.1,0.2,0.1,0.2,0.1c0,0.1,0,0.1,0,0.2c0,0.2-0.1,0.4-0.3,0.6
	c-0.5,1.3-0.6,2.6-0.5,4c-0.3,1.3-0.4,2.7-0.7,4l-24.6-5C443.9,448.9,444.1,447.8,444.4,446.6z M455.4,431.5c0.9,0.6,2,0.8,3.1,0.6
	l12.9-2.7c0,1-0.2,2.1-0.3,3.2l-0.5,4.5c-0.1,0.8-0.2,1.6-0.2,2.4l-0.1,1.1l-0.1,1.1c-0.1,0.8-0.1,1.6-0.2,2.4l-6.3-4.5
	c-0.2-0.2-0.6-0.4-1.2-0.4c-0.6,0-1,0.3-1.2,0.5l-4.1,3.4c-0.1,0.1-0.3,0.2-0.3,0.2c-0.2,0-0.5-0.5-0.6-0.7c-2.2-3-5.7-4.5-9-5.9
	c0.6-1.7,1.2-3.5,1.9-5.1c0.5-1.1,0.9-2.2,1.5-3.3L455.4,431.5z M443.6,429.5c-0.4,1.6-0.9,3.2-1.5,4.7c-0.4-0.2-0.7-0.4-1-0.6
	c-0.5-0.3-1.1-0.2-1.4,0.3s-0.2,1.1,0.3,1.4c0.5,0.3,1,0.6,1.5,0.9c-0.1,0.3-0.2,0.5-0.3,0.8c-0.9,2.5-1.8,4.9-2.8,7.4
	c-1,2.4-2.1,4.8-3.3,7.2c-0.1,0.3-0.3,0.6-0.3,0.9c-0.4,1.9,0.8,3.7,2.7,4.1l0.6,0.1l5.7,1.2c0,0,0,0,0,0c-0.1,0-0.2,0-0.3,0
	c-3-0.4-6-0.6-8.9-0.7c-0.1-0.1-0.8-0.1-1.4,0.1c-0.4,0.2-0.8,0.5-1,0.7c2.4-8.5,4.5-15.9,6.1-20.5c1.7-5,3.7-10,5.8-14.9
	c0.1,0.4,0.4,0.9,0.7,1.2C444.5,425.7,444.1,427.6,443.6,429.5z M430.5,435c-0.7,2-2.2,7.3-4.2,14.4c-0.3-1.9-0.7-3.8-1.2-5.7
	c-0.2-0.5-0.3-1-0.5-1.5c-0.4-1.3-0.8-2.5-1-3.7c0.1-0.4,0.3-0.8,0.4-1.2c1-2.9,2.1-5.8,3.2-8.7c0.5-0.6,1-1.2,1.5-1.8l1.6,4.5
	c0.1,0.3,0.4,0.5,0.7,0.6c0.3,0.1,0.5,0,0.8-0.2C431.1,433.3,430.7,434.5,430.5,435z M410.8,419.4c0.3-0.4,0.7-0.8,1.2-1.1
	c0.8-0.5,1.9-0.8,2.9-1.1c1.1-0.3,2.2-0.6,3.1-1.2l-0.5,1.1L410.8,419.4z M422.2,442.6c0,0.1,0.1,0.3,0.1,0.4c0.2,0.5,0.3,1,0.5,1.5
	c1.2,3.8,1.6,7.8,1.7,11.7c-0.2,0.8-0.4,1.5-0.6,2.3c-1.8-1.5-3.7-2.8-5.7-4.1C419.4,450.5,420.8,446.5,422.2,442.6z M416.7,458.7
	c0.3-0.9,0.6-1.8,0.9-2.7c2,1.3,3.9,2.7,5.8,4.2c-0.7,2.6-1.4,5.3-2.2,8.1c-0.3-0.2-0.5-0.3-0.8-0.5c-0.9-0.6-1.8-1.1-2.6-1.8
	c-1.1-1-1.9-2.2-2.4-3.6C415.8,461.2,416.3,459.9,416.7,458.7z M429.6,467.2l2.5,2.2c-0.1,0.3-0.2,0.6-0.3,0.9
	c-0.4,1.4-0.8,2.9-1.1,4.4c-0.2,0.4-0.3,0.9-0.3,1.4v0.1c-0.1,0.4-0.1,0.7,0,1.1c-0.1,2.2-0.3,4.3-0.6,6.4c-0.4,2.5-0.9,5-1.4,7.5
	c-0.4,1.8-0.8,3.6-1.2,5.4l-5-1.4C424.5,486.3,427.1,476.4,429.6,467.2z M455.5,499.8c0.1-0.4,0.3-0.8,0.5-1.1
	c0.3-0.3,0.9-0.3,1.4-0.3c3.1-0.1,6.2,0.1,9.3,0.8c0.1,1.1,0.2,2.2,0.3,3.2c0.1,1.2,0.1,2.4,0.1,3.6l-2.3,1.6
	c-0.1,0-0.2-0.1-0.3-0.1c-0.8-0.2-1.7-0.5-2.5-0.7c-1.6-0.4-3.2-0.7-4.8-1.1c-1.2-0.2-2.4-0.4-3.5-0.6L455.5,499.8z M475.9,403.7
	c-0.1,1.3-0.2,2.6-0.6,3.7c-0.3,0.9-1,1.8-1.8,2.4c-0.6,0-1.1,0-1.7,0c-0.5,0-0.9-0.1-1.4-0.1c-0.5-0.6-0.9-1.4-1.3-2.3l-3.3-7.9
	c-0.1-0.3-0.4-0.9-0.3-1.2c0.1-0.3,0.6-0.6,0.9-0.8l14.7-9.6c0.7,0.8,1.8,1.5,3.6,1.7c0.1,0.1,0,0.1-0.1,0.2
	c-3,2.4-7.1,5.6-8.2,10.3C476.1,401.3,476,402.5,475.9,403.7z M443.9,407.7c-1.2,1.9-2.6,4.4-4,7.1c0-0.9-0.1-1.8-0.2-2.7
	c0-0.3-0.1-0.6-0.1-0.8c-0.2-1.2-0.4-2.3-0.1-3.3s1-1.9,1.6-2.8l7.2-9.3c1.4-1.6,2.9-3.2,4.4-4.8l2-2.1c0.8,0.4,1.5,1,2.1,1.6
	C452.7,395.4,447.9,401.5,443.9,407.7z M418.2,385.4c1.9,1.4,3.9,2.4,6.3,2.5c0.3,0,0.5,0,0.8,0c0.1,0,0.3,0,0.4,0
	c0.7,1.5,1.4,3,2.1,4.6c0.2,0.5,0.4,1,0.5,1.5c0,0.1-0.1,0.1-0.1,0.2c-1.3,2-3.5,3.2-6.1,4.3c-1-4.2-3.6-8-7-10.6
	C416.1,387,417.2,386.2,418.2,385.4z M400.7,429.9c1.4-1.5,2.8-3,4.4-4.3l2.2,1.6c0.1,0.1,0.3,0.2,0.4,0.3
	c-4.1,3.5-8.1,7.3-11.7,11.2c-0.2,0.2-0.3,0.5-0.3,0.7s0.1,0.5,0.4,0.7c0.8,0.7,1.6,1.6,2.1,2.5c0.2,0.4,0.7,0.6,1.2,0.5l1.4-0.4
	c0.4,2.1-0.8,4.5-2.2,6.1c-0.2,0.3-0.5,0.5-0.8,0.8l-11.7,4.1l-1.1-1.8c1.2-2.1,2.5-4.1,3.8-6c1.8-2.8,3.8-5.5,5.7-8.2
	C396.5,435,398.5,432.4,400.7,429.9z M385.2,471.9c0.5-0.2,1.1-0.4,1.6-0.6l-2.2,3.4l-0.9,0.5l-3.5-0.7
	C381.8,473.4,383.5,472.6,385.2,471.9z M375.8,481.5l2.5,0.5c-1.5,1.8-2.5,4-2.8,6.3c-0.1,0.4,0.2,0.9,0.6,1.1
	c2.2,0.9,4.4,1.5,6.7,1.8c0.3,0,0.7-0.1,0.9-0.4c1.3-1.6,3.3-2.5,5.4-2.6c-0.6,1.4-1.1,2.8-1.7,4.2c-0.5,1-0.9,2-1.4,3
	c-0.8-0.1-1.7-0.3-2.5-0.4c-1.9-0.2-3.7-0.4-5.6-0.5c-1.9,0-3.9,0-5.9,0.3c-1.1,0.2-2.2,0.4-3.3,0.7l-1.3-1.5
	c0.6-0.9,1.2-1.9,1.8-2.8l2.3-3.2C373,485.9,374.5,483.7,375.8,481.5z M402,501.4c0.3-1.1,0.7-2.2,1-3.4c1.1,1.5,2.4,2.7,4,3.5
	l0.2,0.1c0.4,0.2,0.9,0.4,1,0.7c0.1,0.3-0.2,1-0.4,1.4l-5,9.7l-4.1-0.4C399.8,509.1,400.9,505.2,402,501.4z M409.1,480.2
	c1.9-4.8,3.5-9.7,5.2-14.5c0.5,0.8,1.2,1.6,1.9,2.2c0.9,0.7,1.9,1.4,2.8,2c0.5,0.3,1,0.6,1.5,1c-1.7,6.2-3.4,12.6-5,18.6
	c-0.3-0.5-0.6-1.1-0.9-1.7c-0.4-0.8-0.8-1.5-1.2-2.3c-1-1.6-2.6-3.4-4.7-4.2C408.8,480.9,409,480.6,409.1,480.2z M490.9,426.7
	c-0.9-0.6-1.9-1-3-0.9c-1.8,0.1-3.5,1.2-4.9,3.1c-1.5,2.1-1.8,4.2-0.9,5.8c0.2,0.3,0.5,0.7,0.7,1c0.3,0.3,0.7,0.9,0.7,1.1
	c0,0-0.2,0.1-0.8,0.2l-6.6,0.7c0,0,0-0.1,0-0.1c0.2-1.4,0.5-2.8,0.8-4.3c0.4-1.9,1-3.9,1.6-5.8c1.6-0.5,2.8-2,2.8-3.8
	c0-1.8-0.1-3.8-0.2-5.7c2.4-0.2,4.8,0,7.1,0.6h0.2c1,0.2,2.2,0.5,3.4,0.1c0.3-0.1,0.6-0.3,0.9-0.5
	C492.1,421.1,491.5,423.9,490.9,426.7z M488.4,407.9c2.4-0.5,4.8-1.3,7.1-2c-0.8,3.4-1.6,6.8-2.3,10.2c-0.5,0.5-0.9,1-1.6,1.2
	c-0.7,0.2-1.5,0-2.4-0.2L489,417c-2.6-0.6-5.2-0.8-7.9-0.6c-0.1,0-0.1,0-0.2,0c-0.2-1.9-0.4-3.8-0.7-5.5c-0.9-0.4-2-0.7-3-0.9
	c-0.2,0-0.4-0.1-0.6-0.1c0.6-0.7,1.1-1.5,1.3-2.3c0.5-1.4,0.6-2.8,0.6-4.2c0.1-1.1,0.2-2.2,0.4-3.3c0.9-3.5,3.6-6.1,7-8.7
	c2.1,1.6,3.4,4.2,3.3,6.9c0,0.3,0.1,0.6,0.4,0.8c0.2,0.2,0.6,0.3,0.9,0.2c1.2-0.3,2.4-0.6,3.6-0.8c-2.7,0.9-5.5,1.9-8.1,3.3
	c-2.7,1.7-5.4,3.6-7.2,6.9C482.5,409,485.4,408.5,488.4,407.9z M470.7,363.4c0-0.3,0.1-0.5,0.1-0.8c1.9-0.9,3.7-1.9,5.6-3
	c1.3-0.7,2.6-1.6,3.9-2.4s2.5-1.8,3.7-2.7c2.4-2,4.8-4.1,6.8-7.2c0.6-1.1,1.3-2.3,1.7-3.6c0,0.3,0,0.6,0,0.9c0,1.8-0.3,3.8-0.7,5.8
	c-0.2,1-0.5,2.1-0.7,3.1c0,0,0,0,0,0.1c-0.1,0.2-0.1,0.5-0.2,0.7c-1.1,0.3-2.1,0.6-2.7,0.9c-8.2,4.3-13.9,12.1-16.4,16
	c-0.2,0.3-0.1,0.7,0.2,0.9c-1.3-0.2-2.7-0.1-4.1,0.1c0.9-1.7,1.6-3.5,2.1-5.4C470.3,365.7,470.5,364.6,470.7,363.4z M463.2,379.5
	c0.3,0.7,0.9,1.1,1.4,1.5c1.8,1.4,3.4,3,4.6,5c-1.7,0.6-3.5,1.3-5.3,1.9c-1.1,0.4-2.2,0.8-3.3,1.2c0.2-0.3,0.4-0.7,0.6-1
	c0.5-0.9-0.7-1.7-1.4-1c-0.7,0.7-1.3,1.5-2.1,2.4c-0.6-0.7-1.2-1.2-2-1.7l4.6-5C461.4,381.7,462.3,380.6,463.2,379.5z M448.3,384.7
	l-0.9,1c-2.4,2.6-4.8,5.2-7.2,7.9c-0.3-2-1.5-3.8-2.6-5.6c-0.6-1-1.3-2.1-1.8-3.1c-1.2-2.7-1.3-5.8-0.2-8.6c1.8,0.1,3.5,0.2,5.3,0.2
	c0,0.4-0.1,0.8-0.1,1.2c0,0.1,0,0.3,0,0.4c-0.1,0-0.2,0-0.2,0c-0.9,0-1.7,0.1-2.8,0.1c0.2,1.1,0.8,2,1.5,2.8
	c0.7,0.7,1.5,1.3,2.4,1.7c1.7,0.8,3.5,1.4,5.4,1.8C447.5,384.6,447.9,384.7,448.3,384.7z M421.5,362.4c0.9-0.8,2-1.6,3.1-2.4
	c2.2-1.6,4.4-3.2,6.8-4.5c2.3-1.3,4.7-2.5,7.2-3.4c0.5-0.2,1-0.3,1.5-0.5c0.2,1.2,0.3,2.8,0.5,4.5c-0.7,0.3-1.3,0.8-1.7,1.3
	c-1,1.2-1.1,2.7-0.2,3.9c0.5,0.7,1.2,1.1,1.9,1.5c0.2,0.1,0.4,0.2,0.5,0.3c0,0.7,0.1,1.4,0.1,2.1c0,0,0,0,0,0
	c-1.8,1.6-4.6,2-6.7,0.9c-2.2-1-3.6-3.4-3.5-5.8c0-0.4-0.2-0.8-0.5-0.9c-0.3-0.2-0.8-0.2-1.1,0.1c-3.1,2.3-5.5,5.4-7.1,8.9
	c-0.6-1.6-1.3-3.3-1.9-5C420.8,363.1,421.1,362.7,421.5,362.4z M401.7,399.1c0.1-0.1,0.1-0.1,0.2-0.2c1.7,1.5,3.3,3,4.8,4.7
	c0.4,0.4,0.7,0.8,1,1.2l-8.2,7.3c-0.8,0.7-1.3,1.7-1.3,2.8c-1.3-2.6-3.3-4.8-5.6-6.5c1.5-1.5,2.9-2.9,4.3-4.4
	C398.6,402.3,400.1,400.7,401.7,399.1z M391.1,409.8c2.3,1.6,4.1,3.7,5.4,6.2c-1.9,1.4-3.2,3.7-3.6,6.3c-0.4,2.9,0.5,5.8,2.4,7.7
	c-1.3,1.6-2.7,3.3-4,4.8c-0.1,0.1-0.2,0.3-0.3,0.4c0-1.1-0.2-2.2-0.7-3.3c-1-2.1-2.8-3.6-4.6-5c-2.3-1.9-4.2-3.5-3.9-5.8
	c0.2-1.1,0.9-2.1,1.6-3.1c0.3-0.5,0.7-0.9,1-1.4c0.3-0.4,0.5-0.8,0.7-1.3C387.2,413.6,389.2,411.7,391.1,409.8z M380.3,419.1
	c-0.2,0.5-0.4,1.1-0.5,1.7c-0.5,3.4,2.1,5.6,4.6,7.7c1.6,1.3,3.3,2.7,4,4.4c0.9,2,0.5,4.1-0.6,6c-1,1.1-2,2.3-3.1,3.4
	c-0.4,0.4-0.7,0.8-1.1,1.1c-0.2,0.1-0.3,0.2-0.5,0.4c-5.1-5.4-9-11.9-11.4-19C374.7,423.1,377.5,421.2,380.3,419.1z M370,425.8
	c2.6,7.2,6.6,13.9,11.9,19.5c-1.4,1.4-2.8,2.8-4.3,4.1c-0.8,0.8-1.2,2-0.8,3.1l0.5,1.4l2.7,4.6c-0.1,0.2-0.2,0.5-0.4,0.7
	c-0.2-0.3-0.3-0.6-0.5-0.9c-0.7-1-1.5-1.8-2.3-2.6c-0.7-0.8-1.4-1.5-2-2.3c-2.1-2.9-2.8-6.8-3.5-10.5c-0.9-5-1.8-10.2-6-13.1
	c-0.5-0.4-1.1-0.7-1.7-0.9c1.7-0.7,3.5-1.5,5.1-2.4C369.1,426.3,369.5,426,370,425.8z M339.3,433.6c0,0.1,0,0.2-0.1,0.3
	c-0.3,1.3-1.4,2.4-2.6,2.9c-0.9,0.4-1.9,0.5-2.9,0.5c-0.3-1.4-0.7-2.7-1.1-4.1C334.8,433.5,337,433.6,339.3,433.6z M348.2,483.1
	c-4.3,0.8-8.6,1.4-12.9,1.6c-1.9,0.1-3.8,0.2-5.7,0.1c1.1-1.7,2-3.5,2.7-5.4c1.1-2.9,1.9-5.8,2.4-8.8c0.4,0.7,0.7,1.5,0.9,2.3
	c0.4,2.1-0.1,4.2-0.5,6.3c-0.1,0.5,0.1,0.9,0.6,1.1c2.1,1,5.1,1.7,7.2,0.7c1-0.4,1.7-1.2,2.1-2.3c0.5-1.5-0.1-3-0.6-4.3
	c-0.3-0.6-0.5-1.2-0.6-1.8c-0.3-1.7,0.8-3.1,1.9-3.8c1-0.7,2.6-1.2,3.9-0.5l1.8,14.1L348.2,483.1z M363.7,478.1
	c-0.6,0.4-1.2,0.7-1.8,1c0.2-0.2,0.4-0.4,0.5-0.6c0.7-1.1,0.5-2.5,0.3-3.4c-0.6-3.3-1.2-7-3-10.1c-2-3.6-5.4-6-8.9-6.1
	c-2.2-0.1-4.3,0.6-6.2,1.4c-0.3,0.1-0.7,0.2-1,0.4c-0.7,0.2-1.4,0.5-2.1,0.3s-1.3-0.8-1.9-1.5c-1.4-1.5-2.9-3-3.8-4.8
	c0-0.7,0-1.4-0.1-2.1c-0.1-1.6-0.2-3.2-0.4-4.8c0.1-0.2,0.3-0.5,0.5-0.7c1.1-1.3,3-1.9,4.6-2.4l9.6-3.1c2.4-0.8,5-1.6,7.6-1.4
	c2.2,0.2,4.7,1.6,5.2,3.9c0.4,1.7-0.3,3.5-1.3,5.4c-1.9-0.2-3.8-0.3-5.7-0.3l1.3-1.9c0.2-0.3,0.2-0.6,0.1-1
	c-0.1-0.3-0.4-0.5-0.8-0.6c-2.9-0.5-5.8-0.8-8.4,0.5c-1.6,0.8-2.9,2.4-3.4,4.2c-0.4,1.4-0.1,2.8,0.6,3.9c1.9,2.7,5.6,2.3,8.5,2h0.3
	c5.5-0.6,11.9,1.3,14.2,5.9c-0.3,0.1-0.6,0.2-0.9,0.3c-1.2,0.7-2.2,2.2-2,3.8c0.3,2.2,2.2,3.6,3.9,4.8c0.8,0,1.4,0,1.7-0.4
	c0.6-0.7,1.6-1.2,2.6-1.6c-0.3,0.5-0.5,1.1-0.5,1.7c-0.7,1.1-1.3,2.2-2,3.3c-0.6,0.4-1.1,0.7-1.7,1.1c-0.5,0.3-0.9,0.6-1.3,0.8
	l-1.4,0.7C365.6,477.2,364.7,477.7,363.7,478.1z M359.1,510.5c0.3-0.9,0.7-1.7,1-2.6c0.9-2.2,1.9-4.4,3-6.5l1.3,1.4
	c1.1,1.2,3,1.7,4.6,1h0.1c0,0,0,0,0,0c-1,2.4-1.3,4.8-1.4,6.7c0,0.5,0,1.1,0,1.7c-1.2-0.3-2.4-0.5-3.5-0.7
	C362.5,511.2,360.8,510.8,359.1,510.5z M389.7,517.6l-5.8-1.4l-1.9-0.5c0-0.4-0.1-0.8-0.1-1.1c-0.1-0.9-0.3-1.7,0.1-2.2
	c0.2-0.4,0.7-0.6,1.3-0.9l4.1-1.9c1.7-0.8,3.3-1.5,4.9-1.6C391.4,511.2,390.5,514.4,389.7,517.6z M404,519.9
	c-1.9-0.2-3.7-0.5-5.6-0.7c-0.4-0.1-0.8-0.1-1.3-0.2c0.4-1.5,0.8-3.1,1.2-4.6l5.3,0.6c0.4,0,0.8-0.2,1-0.5l5.3-10.3
	c0.3-0.7,1-1.9,0.4-3.1c-0.4-1-1.3-1.4-2-1.7l-0.1-0.1c-1.8-0.9-3.3-2.4-4.2-4.4c1.3-4.1,2.7-8.2,4.2-12.2c1.4,0.6,2.9,1.8,3.7,3.4
	c0.4,0.7,0.8,1.4,1.2,2.1c0.6,1.1,1.2,2.2,1.9,3.3c-3.7,13.8-6.8,25.5-7.7,28.7C406.2,520.1,405.1,520,404,519.9z M427,520.9
	c-3.8,0-7.5,0-11.3-0.2c0.8-3,2.2-8.6,4-15.6c0.8,4.2,2.6,8,5.3,11c1.7,2,3.8,3.6,6.1,4.7L427,520.9z M461.7,520.4
	c-4.6,0-9.2,0-13.8,0.1c0.5-1.2,0.1-2.5-0.3-3.6l-0.1-0.3c-0.4-1.3-0.6-2.8-0.5-4.1c2.9,0.4,5.7,0.8,8.5,1.3
	c1.4,0.3,2.9,0.6,4.3,0.9c0.7,0.2,1.3,0.4,2,0.6c0.3,0.1,0.6,0.2,0.9,0.3l0.8,0.3l0.3,0.1c1.2,0.5,2.6,0.3,3.8-0.5l0,0
	c0.7,0.5,1.4,1,2.1,1.6c0.7,0.6,1.4,1.3,2,2c0.5,0.5,1.1,1.1,1.6,1.6C469.4,520.5,465.5,520.4,461.7,520.4z M514,394.9
	c-1.4,0.1-2.9,0.2-4.3,0.4c0.3-0.8,0.8-1.6,1.4-2.6c0.9-1.3,1.8-2.7,1.9-4.4s-0.5-3.1-1.1-4.5c-0.4-0.8-0.7-1.5-0.9-2.3
	c-0.8-3.2,1.2-6.5,3.1-8.8c3.3-4.1,7.6-7.4,11.7-10.6c0.4-0.3,1.1-0.8,1.8-1.2c1.7-0.1,3.3-0.1,5-0.1c0.3,0.4,0.4,0.9,0.4,1.5
	c-0.1,1.3-1,2.9-2.2,3.9c-0.8,0.6-1.7,1.1-2.7,1.6c-1.6,0.9-3.2,1.8-4.5,3.2c-2.5,3-2.4,7-2.1,11l0.8,10.2c0.1,0.8,0.2,1.8,0.4,2.7
	C519.8,394.7,516.9,394.7,514,394.9z M551.5,402.2c-1,0.8-2.1,1.6-3.1,2.4c-0.1,0.1-0.1,0.1-0.2,0.2c-1.6-1.3-3.4-2.6-5.2-3.7
	c-1.4-0.8-2.9-1.6-4.5-2.3c0-1.9,0.4-3.8,1.2-5.5c0.4-0.8,1-1.6,1.7-2.1c0.3,0.4,0.6,0.8,1,1.2h0.1c1.8,1.4,3.6,2.7,5.5,3.9
	c0.3,0.2,0.6,0.4,1,0.6c1.1,1.6,2.2,3.2,3.1,4.9C551.9,401.9,551.7,402.1,551.5,402.2z M594.2,392.3c-1.7-0.5-3.5-0.9-5.3-1.2
	c-0.5-0.1-1.1-0.1-1.6-0.2l0.3-3.3c-0.3-2.2-0.3-5.1-2.3-6.9c-0.5-0.5-1.1-0.8-1.7-1c0.2,0,0.5-0.1,0.7-0.1c0.1,0,0.2,0,0.4,0
	c3.3,2.9,6.3,6.1,8.9,9.6c0.4,0.5,0.8,1.1,1.1,1.6C595.3,391.8,594.8,392.4,594.2,392.3z"/>
</svg>
