<?xml version="1.0" encoding="utf-8"?>
<!-- Generator: Adobe Illustrator 24.0.1, SVG Export Plug-In . SVG Version: 6.00 Build 0)  -->
<svg version="1.1" id="Layer_1" xmlns="http://www.w3.org/2000/svg" xmlns:xlink="http://www.w3.org/1999/xlink" x="0px" y="0px"
	 viewBox="0 0 800 800" style="enable-background:new 0 0 800 800;" xml:space="preserve">
<style type="text/css">
	.st0{fill:#FFFFFF;}
</style>
<path id="black" d="M549.2,355.9l-4.8-1.5c-3.3-1-6.8-1.4-10.2-1.3s-6.7,0.7-9.9,1.6s-6.3,2.1-9.1,3.7l-1.5,0.9
	c-0.2-0.1-0.5-0.2-0.7-0.2c-1.3-0.3-2.5-0.6-3.8-0.7c-2.6-0.3-5.2-0.2-7.7,0.2s-5,1-7.5,1.8c-1.2,0.4-2.4,0.8-3.6,1.3
	c-0.6,0.2-1.2,0.5-1.8,0.8c-0.2,0.1-0.3,0.1-0.5,0.2l-5.7-1l-1-0.2h-0.1c-0.6-0.1-1.2,0.4-1.3,1c-3.7,6.4-7.8,12.6-12.3,18.3
	c-2.3,2.8-4.7,5.6-7.2,8c-1.3,1.2-2.6,2.3-4,3.3s-2.8,1.9-4.2,2.6c-1.4,0.7-2.9,1.2-4.3,1.5c-0.7,0.1-1.4,0.2-2.1,0.2
	s-1.4,0-2.2-0.1c-1.5-0.2-2.9-0.6-4.1-1.2s-2.1-1.4-2.8-2.4c-1.5-2-2.3-5-2.6-8.4c-0.1-1-0.2-2.1-0.2-3.2c-0.1-3.3,2.4-6,5.7-6.2
	c0.9-0.3-0.1-1.9-0.9-2.6c-2.5-2.1-5.4-1.8-6.8-1.8c-1,0-2,0.1-3.1,0.1c-0.5,0-1,0.1-1.5,0.1l-1.5,0.3c-1,0.2-2,0.4-3,0.6
	c-1,0.3-2,0.6-3,0.9s-1.9,0.8-2.9,1.2c-0.9,0.4-1.9,0.8-2.8,1.4c-0.9,0.5-1.8,1-2.7,1.5l-2.5,1.7c-3.3,2.4-6.3,5.2-8.9,8.2
	s-4.9,6.1-7.2,9.2c-2.3,3-4.6,6-7.2,8.5c-2.8,2.5-5.6,5.1-8.5,7.4s-6,4.5-9.1,6.5c-1.6,1-3.2,2-4.8,2.8c-0.8,0.5-1.6,0.9-2.5,1.3
	c-0.4,0.2-0.8,0.4-1.2,0.6c-1.4-0.1-2.9-0.1-4.3-0.1c-0.9,0-1.7,0.1-2.6,0.1c-0.9,0.1-1.4,0-3.2,0.3c-1.4,0.3-2.7,1-3.7,1.8
	s-1.7,1.7-2.3,2.5c-0.6,0.9-1.1,1.8-1.5,2.7c-0.4,0.9-0.7,1.8-1,2.9s0.2,2.4,1.4,3c1.2,0.6,2.7,0.1,3.5-1l0.1-0.2
	c0.1,0.1,0.2,0.3,0.3,0.4c0.7,0.6,1.6,0.6,2.3,0.1c0.2,0.4,0.4,0.8,0.6,1.3c0.2,0.4,0.4,0.9,0.6,1.4l0.3,0.7
	c0.1,0.3,0.1,0.4,0.2,0.6c0.3,0.8,0.5,1.8,0.7,2.8c0.4,2,0.8,4.1,1.1,6.2c0.3,2.1,0.7,4.2,1,6.4c0.6,4.1,1.1,8.2,1.5,12.3
	c-2.2,0.5-4.9,1-7.7,1.1c-0.3-1.2-0.6-2.4-0.9-3.7v-0.1c-0.2-0.9-1.1-1.6-2.1-1.5s-1.7,1-1.7,2c-0.2,4.5,0,8.9,0.5,13.4
	c0.3,2.3,0.6,4.5,1.1,6.8s1.1,4.6,2.1,6.9c0.5,1.2,1.2,2.3,1.9,3.5c0.8,1.2,1.9,2.4,3.5,3.5l0.6,0.4c0.2,0.1,0.5,0.2,0.8,0.3
	s0.5,0.2,0.8,0.3s0.6,0.1,0.8,0.2c0.3,0,0.6,0.1,0.9,0.1c0.4,0,0.8,0,1.2-0.1c0.8-0.1,1.6-0.4,2.3-0.8c0.2-0.1,0.4-0.3,0.6-0.4
	c-0.2,0.4-0.3,0.8-0.5,1.1c-0.8,2.1-1.7,4.3-2.5,6.4l-1.6,4.1c-0.2,0-0.4,0-0.6,0.1c-1.1,0.2-2.1,0.4-3.2,0.6
	c-2.1,0.5-4.2,1.2-6.3,2.2s-4.1,2.3-5.8,4.2c-0.9,0.9-1.6,2-2.3,3.2c-0.6,1.2-1.1,2.4-1.4,3.7c0,0-0.9,7.3,4.4,10.5
	c6.5,4,14.3,4.1,14.3,4.1c5.5,3.6,10.8,7.3,16.1,11.2c5.2,3.9,10.4,8,15.3,12.2c0.6,0.5,1.4,1.1,2.1,1.7c0.8,0.6,1.6,1.1,2.4,1.6
	c1.6,1,3.3,1.8,5.1,2.5c3.5,1.4,7,2.2,10.5,2.7c7,1,14,0.8,20.8,0.1s13.5-1.9,20-3.4c6.6-1.5,13.1-3.3,19.5-5.3s12.7-4.2,19-6.7
	c1.1-0.5,2-1.4,2.3-2.6c1.3-5.1,2.5-10.1,3.5-15.2c1-5.1,1.9-10.2,2.6-15.4c0.3-2.6,0.6-5.3,0.7-7.9c0.1-2.7,0.2-5.3,0.1-8
	s-0.3-5.3-0.6-8c-0.2-1.3-0.3-2.7-0.5-4c-0.2-1.1-0.4-2.2-0.6-3.4c0.3-5.1,0.7-10.3,1.2-15.4c0.5-5.3,1-10.6,1.7-15.9
	c1.2-10.1,2.7-20.2,4.7-30.1c4.7,1.2,9.3,2.7,13.9,4.4c2.6,1,5.3,1.9,8,2.9c1.4,0.5,2.8,0.9,4.4,1.3c0.4,0.1,0.8,0.2,1.2,0.3
	s0.8,0.2,1.4,0.2l0.7,0.1h1.4c0.1,0,0.1,0,0.2,0h0.3c0.4-0.1,0.9-0.2,1.3-0.3c0.4-0.1,0.7-0.3,1-0.5c0.7-0.2,1.2-0.5,1.6-0.8
	c0.6-0.4,1-0.8,1.4-1.2c1.4-1.5,2.1-2.8,2.9-4.2c1.4-2.7,2.4-5.3,3.3-7.9c1.8-5.3,3.1-10.6,4.1-16c0.5-2.7,0.9-5.4,1.2-8.2
	c0.3-2.8,0.4-5.5,0.3-8.4l-5.5,0.1v0.1c0,0.8-0.1,1.6-0.1,2.3c-1.6-0.7-4.7-1.5-9.3-1.7c0.3-1.8,0.6-3.7,0.9-5.5
	c1-5,2.3-10,4.2-14.6c0.9-2.3,2-4.5,3.2-6.5c0.6-1,1.3-1.9,1.9-2.6c0.3-0.4,0.7-0.7,0.9-0.9c0.3-0.2,0.5-0.4,0.5-0.4
	c0.5,0.8,1.3,1.4,2.2,1.7c2.3,0.7,4.7-0.7,5.2-3.1C552.6,358.6,551.2,356.5,549.2,355.9z M482.1,369.2c0,0-0.8,0.7-1.9,1.8
	c0.8-1.7,1.5-3.3,2.2-5.1l2.9,2.6L482.1,369.2z M507.6,364.2c-0.3,0.3-0.5,0.8-0.5,1.3c-0.5,0-1,0-1.6,0.1c-3,0.1-6,0.4-8.8,0.8
	c1.9-1.1,4-2,6.1-2.6c2.1-0.7,4.2-1.2,6.4-1.3c0,0,0,0,0.1,0C508.7,363,508.1,363.6,507.6,364.2z"/>
<g id="white">
	<g>
		<path class="st0" d="M465.7,417.5l-10.2,8.7l-6.7,38.4l8.8,0.8l10.2-8.7l5.1-29.5L465.7,417.5z M460.9,452.6l-1.6,1.3L458,455
			l4.3-24.9l1.6-1.3l0.9,1.2L460.9,452.6z"/>
		<polygon class="st0" points="442.9,452.6 442,451.3 446,428.8 447.5,427.5 449.4,430 455.5,424.5 449.3,416.1 439.1,424.8 
			438.7,427.1 434.4,451.5 433.9,454.2 441.2,463.9 450.1,456.3 445.8,450.1 		"/>
		<path class="st0" d="M420.4,423.7L420,426l-4.2,24.3l-0.5,2.9l7.2,9.7l10.2-8.7l0.4-2.3l1.2-6.6l0.8-4.4l-0.8-2.2l1.5-1.8
			l2.1-12.2l-7.2-9.7L420.4,423.7z M426.8,444.8l-0.9,5.4l-1.6,1.3l-0.9-1.2l2.1-12.2l1.7,4.4L426.8,444.8z M429.8,427.6l-1.1,6.2
			l-3.1,3.6l1.7-9.6l1.6-1.3L429.8,427.6z"/>
		<path class="st0" d="M401.8,422.1l-6.6,37.8l7.5,0.6l2.3-13l2.4,0.2l-2.3,13l7.5,0.6l6.7-38.3l-7.2-9.7L401.8,422.1z M411.1,426
			l-2.8,16l-2.4-0.2l2.7-15.7l1.6-1.3L411.1,426z"/>
	</g>
	<path class="st0" d="M443.9,537.9l-5.2-0.1c-1.7-0.1-3.5-0.1-5.2-0.3l-5.2-0.5l-1.3-0.1l-1.3-0.2l-2.5-0.4
		c-0.8-0.1-1.7-0.3-2.5-0.4l-1.3-0.2l-1.3-0.3l-5-1c-6.6-1.6-13-3.7-19.3-6.2c-0.8-0.3-1.6-0.6-2.4-0.9c-0.8-0.3-1.5-0.7-2.3-1
		s-1.6-0.7-2.3-1l-2.3-1.2c-3-1.7-5.9-3.3-9.7-4.5c1.1,3.9,3.8,6.7,6.6,9l2.2,1.7c0.7,0.6,1.5,1.1,2.3,1.6s1.5,1.1,2.3,1.5
		c0.8,0.5,1.6,0.9,2.4,1.4c6.5,3.6,13.7,5.8,20.9,7.2l5.5,0.8l1.4,0.2l1.4,0.1c0.9,0.1,1.8,0.1,2.7,0.1l2.7,0.1c0.5,0,0.9,0,1.4,0
		l1.4-0.1l5.5-0.3c7.2-0.8,14.5-1.2,21.2-4.5C450.9,537.7,447.4,537.8,443.9,537.9z"/>
	<path class="st0" d="M362.1,493.6c-1-5.5-1.6-10.8-2.1-16.1l-1.6-15.7c-0.5-5.2-1.2-10.3-2-15.4c-0.4-2.5-0.9-5.1-1.5-7.7
		c-0.6-2.5-1.2-5.1-2-7.7c3.2,3.6,5.5,8.6,7.2,13.8c1.7,5.2,2.8,10.7,3.5,16.2s1,11,0.8,16.5c-0.1,2.7-0.3,5.5-0.7,8.2
		C363.3,488.4,362.9,491.1,362.1,493.6z"/>
	<path class="st0" d="M536.2,361.6c-1.2,5.5-2.7,10.6-4.2,15.7l-4.6,15.1c-1.5,5-2.9,10-4.1,15c-0.6,2.5-1.2,5.1-1.6,7.6
		c-0.5,2.6-0.8,5.2-1.2,7.9c-1.5-4.6-1.7-10.1-1.3-15.5c0.4-5.5,1.5-10.9,3-16.3c1.5-5.3,3.4-10.6,5.7-15.6c1.2-2.5,2.4-4.9,3.8-7.3
		C533,366,534.5,363.7,536.2,361.6z"/>
	<path class="st0" d="M380,469.7c-1.2,2.1-2.4,5.4-3.6,7.5c-2.4,4.2-4,8.9-6.2,13.2l-6.7,12.9c1.2-4.7,2.6-9.4,4.2-14
		c1.5-4.6,3.2-9.2,5-13.8c1.8-4.6,3.6-9.1,5.8-13.6c2.1-4.5,4.4-8.9,7-13.2l0,0l-0.7,1.6c0.5-3.1,1.2-6.2,1.9-9.3
		c0.7-3.1,1.4-6.2,2.2-9.3c0.7-3.1,1.6-6.2,2.3-9.2c0.8-3.1,1.9-6.1,3.5-9.2c0,2.7-0.7,4.5-0.7,7.7c-0.1,3.2-0.2,6.5-0.5,9.7
		c-0.2,3.2-0.6,6.4-1,9.6s-0.9,6.3-1.6,9.5l-0.2,0.9l-0.5,0.7l0,0c-2.8,3.6-3.9,8-6.5,12.1"/>
	<path class="st0" d="M427,399.1c4,1,7.2,2,10.4,2.6c1.6,0.3,3.1,0.7,4.7,0.8c1.6,0.1,3.2,0.1,4.8-0.1c1.6-0.2,3.2-0.6,4.8-1.1
		c0.8-0.3,1.6-0.5,2.4-0.9l1.2-0.5l1.2-0.6c3.1-1.6,6.1-3.6,9.2-5.7c-1.7,3.4-4,6.5-7,9c-1.5,1.3-3.1,2.4-4.9,3.4
		c-1.8,0.9-3.7,1.6-5.8,2.1c-2,0.5-4.1,0.6-6.2,0.5s-4.1-0.5-6.1-1.3c-1.9-0.8-3.7-1.9-5.1-3.2C429,402.7,427.7,401,427,399.1z"/>
	<path class="st0" d="M494.9,378.5c0.7-2.3,1.9-4.3,3.2-6.2c1.3-1.9,2.9-3.6,4.6-5.1s3.6-2.9,5.9-3.8c0.5-0.2,1.1-0.4,1.7-0.6
		s1.2-0.3,1.8-0.4c0.6-0.1,1.2-0.1,1.8-0.1c0.6,0.1,1.3,0.1,1.9,0.3c-1.8,1.7-3.3,3.1-4.9,4.5s-3.2,2.7-4.9,4
		c-1.7,1.3-3.4,2.6-5.2,3.8C499,376.2,497.1,377.4,494.9,378.5z"/>
</g>
</svg>
