<?xml version="1.0" encoding="utf-8"?>
<!-- Generator: Adobe Illustrator 24.0.1, SVG Export Plug-In . SVG Version: 6.00 Build 0)  -->
<svg version="1.1" id="Layer_1" xmlns="http://www.w3.org/2000/svg" xmlns:xlink="http://www.w3.org/1999/xlink" x="0px" y="0px"
	 viewBox="0 0 800 800" style="enable-background:new 0 0 800 800;" xml:space="preserve">
<path id="black" d="M502.5,361.6c-4.4-3.6-6.1-3.3-8.9-3.1c-3.5-3.5-9.6,0.9-15.6,6.5c-8.5,3.2-12,11.4-12.7,13.3
	c-7.9,14.4-21.9,34.6-28.6,35c-0.4,0-0.9,0.1-1.7-1c-7.7-10.7-0.2-29.2,1.4-32.9l4.4-3.7c1-0.8,1.4-2.1,1.2-3.4
	c-0.3-1.2-1.2-2.3-2.4-2.6c-9.4-3-20.5,6.7-21.8,7.8c-0.6,0.5-1,1.3-1.1,2.1C405.4,452,394.5,452,394,452c-3.6-0.3-6.9,1.7-8.6,4.9
	l-0.7,1.4c-2.9,0.4-4.4,1.8-5.2,3.1c-1.3,2.1-1.1,4.6-0.5,6.3c-1.2,1.5-3,4.1-5.6,8.4l-1.2,2c-1,1.6-1.7,2.8-2,3.2c0,0,0,0-0.1,0
	c-0.4,0.3-1.1,0.7-2.3,1.6c-5.2,4.2-2.1,13.7-1.5,15.6c0.4,1,1.2,1.8,2.2,2.1s2.2,0.2,3.1-0.5c34.2-23.6,105.9,11.5,106.6,11.9
	c0.5,0.2,1,0.4,1.6,0.4c0.9,0,1.9-0.4,2.6-1.1l4.9-5.3c1.1-1.2,1.2-2.9,0.4-4.2c0,0-2.2-3.6-3.8-10.9c-1.2-5.7-1.6-11.2-1.7-13.5
	c1.6-2,4.6-6.5,7.9-14.8c4.5-11.6,2.8-31.1,2.7-31.9c-0.2-1.9-3-9.9-4.9-9.7c-1.9,0.2-2.2,8.4-2.1,10.3c0.9,11.8-9,32.9-14.4,33.5
	c-1,0.1-4.3-2.6-6.2-16.3c-6-42.6,30.4-80.7,30.8-81.1C496.9,366.5,500.8,362.7,502.5,361.6z"/>
</svg>
