<?xml version="1.0" encoding="utf-8"?>
<!-- Generator: Adobe Illustrator 24.0.1, SVG Export Plug-In . SVG Version: 6.00 Build 0)  -->
<svg version="1.1" id="Layer_1" xmlns="http://www.w3.org/2000/svg" xmlns:xlink="http://www.w3.org/1999/xlink" x="0px" y="0px"
	 viewBox="0 0 800 800" style="enable-background:new 0 0 800 800;" xml:space="preserve">
<style type="text/css">
	.st0{fill:#FFFFFF;}
</style>
<path id="white_1_" class="st0" d="M436.4,369.3c0,0-1.2,7.2,41.9-3.6c0,0-14.8,90.2-51.1,102.2S436.4,369.3,436.4,369.3z"/>
<path id="black" d="M592.9,383c-0.4-3.9-47-37-102-23.1c0,0-1.6-3.3-10.3-2.9c0,0-0.9,1.4-2.4,3.8c-19.7,11.1-29.5,10.8-33.6,9.6
	c-3.3-1-4.3-2.8-4.3-2.9v0.1l-0.4,0.2l0.3-3.4c0,0-15.6,3.9-19.5,12.6c0,0-18.2,6.9-20.4,9.5c-2.2,2.6-6.1,11.3-6.1,11.3
	s-24,42.6-60.4,28.6c0,0-8.6,19.9-18.6,29.9l-7.8-0.9c0,0-1.3,4.8-1.3,9.1s0.9,7.4,4.3,8.7c3.5,1.3,32.4,11.9,65-6.9
	c0,0-10,28.6-12.6,42.5c0,0,5.3,11,22.1,15.3c3.3,0.9,6.9-0.3,9.1-3l7-8.5l4.1,11.2c1.2,3.2,4.2,5.4,7.6,5.4
	c12.6,0.3,44.3,0.2,73.7-7.6c0,0,0-19.5-5.6-40.8c0,0,11.8-39.6,16.3-72.3c0.1-0.9,0.6-1.8,1.4-2.3c5.2-3.6,26.6-16.1,51.9,4.1
	c0,0,3.5,1.9,10-1.1c0,0-1.1-3.3-3.6-5.9c1.2-6.9,13.5-16.3,28.3-10.3l1.6,2.5C586.8,395.6,593.3,386.9,592.9,383z M431.7,392.6
	c1.9,1.4,4,2.3,6,1.5c0.1,0,0.1-0.1,0.2-0.1c0,1.3,0,2.7,0.2,3.5c0,0-7.1,13-14,27.3C425.9,414.9,428.5,403.2,431.7,392.6z
	 M444.4,398.1c0,0,2-2.2,3.1-4.6c0.5,0.9,0.9,1.3,1.3,1.6c0.5,0.4,1.1,0.9,2.9,0.9c1,0,2.5-0.2,4.6-0.5c-6.3,10-12.9,20.7-18.7,30.2
	C441.1,412.6,444.1,400.9,444.4,398.1z M461.7,387c-3.6,0.9-6.6,1.6-8.4,1.9c-0.5-1.8-1.1-5.4-1.8-11c5.5-0.4,12-2.2,19.4-5.5
	C468.2,376.6,465,381.6,461.7,387z M442,376.9h0.1c-3,4.8-5.3,8.1-6.6,9.8c-0.4-0.4-0.9-0.9-1.5-1.4c1.3-3.7,2.7-7.1,4.3-10.2
	C439.3,375.8,440.6,376.4,442,376.9z"/>
<g id="white">
	<path class="st0" d="M490.5,377.9c0-2.8-0.3-5.5-0.4-8.2s-0.4-5.4-0.1-8.2c-0.9,1.1-1.4,2.5-1.8,3.9s-0.7,2.8-0.9,4.2
		c-0.4,2.8-0.6,5.6-0.7,8.3c0,0.7,0,1.3-0.1,2l-3.7,1.5c-2.6,1-5.1,2-7.7,3.1l-3.8,1.6l-1.9,0.8l-0.2,0.1l-0.1,0.1
		c-0.2,0.1-0.3,0.1-0.5,0.2c-0.6,0.4-1,1-1.2,1.7c-0.1,0.3-0.1,0.7,0,1c0,0.2,0.1,0.4,0.1,0.5v0.1l0.2,0.5l2.9,7.8l0.7,1.9
		c0,0.1,0.1,0.2,0.1,0.2l0,0l-1.1,1.6c-0.4,0.6-0.8,1.1-1.2,1.7c-1.6,2.2-3.3,4.4-5,6.5c-6.9,8.5-14.6,16.4-22.4,24.1
		c-3.9,3.8-7.8,7.7-11.7,11.6L418.1,458c4.7-3,9.2-6.3,13.6-9.7c4.4-3.4,8.7-7,12.7-10.8c8.1-7.6,15.8-15.7,22.8-24.4
		c1.7-2.2,3.5-4.4,5.1-6.7c0.4-0.6,0.8-1.1,1.2-1.7l0.6-0.9l0.3-0.4c0.1-0.2,0.2-0.2,0.4-0.5c0.3-0.5,0.6-1.1,0.6-1.9
		c0-0.4,0-0.8-0.1-1.1c-0.1-0.5-0.2-0.5-0.2-0.7l-0.7-1.9l-2.6-7.2l1.1-0.4l3.8-1.5c2.6-1,5.1-2.1,7.7-3.1l3.9-1.6
		c0.7-0.3,1.2-0.8,1.6-1.4c0.2-0.3,0.3-0.6,0.4-1c0-0.2,0.1-0.4,0.1-0.5c0-0.2,0-0.4,0-0.4C490.5,379.3,490.5,378.6,490.5,377.9z
		 M486.5,380L486.5,380C486.5,379.9,486.5,379.9,486.5,380L486.5,380z"/>
	<path class="st0" d="M415.5,456.7c0-9.1-0.1-18.1,0.1-27.1l0.4-13.4c0.1-2.2,0.2-4.5,0.3-6.7c0.2-2.2,0.3-4.5,0.6-6.6l0.4-3.1l0,0
		l0.3-0.3l1.3-1.1c1.7-1.5,3.5-2.9,5.2-4.4l2.6-2.2l0.6-0.5l0.3-0.3l0.1-0.1c0.1-0.1,0.2-0.2,0.3-0.3c0.2-0.2,0.3-0.4,0.5-0.7
		c0.5-1,0.4-2.2-0.2-3.1c-0.1-0.1-0.2-0.2-0.2-0.3l-0.1-0.1l-0.1-0.2l-0.3-0.3c-1.5-1.7-3.1-3.3-4.7-4.9l-0.3-0.3l0.1-0.3
		c0.4-1,0.9-1.9,1.4-2.8c1.1-1.8,2.4-3.5,3.9-5c3-3.1,6.7-5.6,10.6-7.9c-2.2,0.5-4.4,1.2-6.5,2.2c-1.1,0.5-2.1,1.1-3.1,1.6l-1.5,1
		c-0.5,0.3-0.9,0.7-1.4,1.1c-1.9,1.5-3.6,3.2-5,5.1c-0.7,1-1.4,2-1.9,3.1l-0.4,0.8l-0.2,0.3v0.1l-0.1,0.2c0,0.1-0.1,0.2-0.1,0.2
		c-0.1,0.3-0.2,0.7-0.1,1c0,0.4,0.2,0.7,0.3,1c0.1,0.2,0.2,0.3,0.3,0.4l0.1,0.1l0.3,0.3l0.6,0.6c1.3,1.5,2.7,3,4,4.5l-2.5,2.2
		c-1.7,1.5-3.4,3-5.1,4.5l-1.3,1.1l-0.3,0.3c-0.1,0.1-0.1,0.1-0.5,0.5c-0.6,0.6-0.7,1.3-0.8,1.7l-0.5,3.5
		c-1.3,9.1-1.7,18.3-1.1,27.4C412.4,438.7,413.5,447.8,415.5,456.7z M424.9,389.5L424.9,389.5L424.9,389.5L424.9,389.5L424.9,389.5z
		 M422.2,381.8C422.2,381.9,422.2,381.9,422.2,381.8L422.2,381.8v-0.1C422.3,381.7,422.3,381.8,422.2,381.8z"/>
	<path class="st0" d="M381.9,450.8c1.8-4.9,3.6-9.8,5.3-14.7c1.7-4.9,3.4-9.8,5.1-14.7c1.6-4.9,3.2-9.9,4.7-15
		c-1.6,2.1-2.9,4.4-4.2,6.7c-1.3,2.3-2.5,4.7-3.5,7c-2.2,4.8-4.1,9.7-5.7,14.7c-1.7,5-3.1,10-4.4,15.1c-0.3,1.3-0.6,2.5-0.9,3.8
		s-0.6,2.6-0.8,3.8c-0.5,2.6-0.9,5.2-1.3,7.8c1.1-2.4,2-4.8,3-7.3C380.1,455.7,381,453.3,381.9,450.8z"/>
	<ellipse class="st0" cx="326.2" cy="466.1" rx="4.8" ry="2.8"/>
	<path class="st0" d="M447.5,526.7c-6,0.4-12,0.7-18.1,0.8c-3,0.1-6,0.1-9,0c-0.8,0-1.5-0.1-2.2-0.1s-1.3-0.1-2-0.2
		c-1.3-0.3-2.7-0.6-4-1.2c-1.3-0.5-2.5-1.2-3.5-1.9c-0.5-0.4-0.9-0.8-1.2-1.2l-0.2-0.3l-0.3-0.5c-0.2-0.3-0.3-0.6-0.5-0.9
		c-1.3-2.5-2.1-5.2-2.4-8c-0.3-2.7-0.1-5.3,0.4-8c0.2-0.8,0.5-1.7,0.7-2.5h-0.1c0.5-2.2,1-4.4,1.6-6.6c2.9-11.7,6.4-23.3,9-35.2
		c-2.8,5.5-5,11.1-7.1,16.8c-1,2.9-2,5.8-2.9,8.7c-0.9,2.9-1.8,5.8-2.6,8.8c-0.6,2.2-1.2,4.4-1.7,6.7l0,0c-1.1,4.3-2.3,8.7-4.2,12.5
		c-0.9,1.9-2.1,3.7-3.5,5.2c-1.4,1.4-3.1,2.4-5,2.8c-3.9,0.9-8.2-0.5-12.1-2.6c-2-1-3.8-2.3-5.7-3.5c-1.9-1.3-3.7-2.6-5.5-4
		c1.1,2.1,2.7,3.8,4.4,5.4c1.7,1.6,3.6,3,5.6,4.3c2,1.2,4.1,2.3,6.5,3.1c1.2,0.4,2.4,0.6,3.7,0.7c1.2,0.1,2.5,0.1,3.8-0.1
		c2.6-0.4,5.1-1.8,6.9-3.5c1.9-1.8,3.2-3.8,4.3-6c0.5,2.4,1.2,4.8,2.3,7c0.2,0.4,0.4,0.7,0.6,1.1l0.3,0.5l0.4,0.6
		c0.6,0.8,1.3,1.5,2,2c1.4,1.1,2.9,1.8,4.5,2.5c1.5,0.6,3.1,1,4.8,1.3c0.8,0.1,1.7,0.2,2.5,0.3c0.8,0,1.6,0.1,2.3,0.1
		c3.1,0,6.1,0,9.2-0.1c6.1-0.2,12.2-0.6,18.3-1.2c12.1-1.3,24.3-3.3,35.7-7.5c-6,1-12,1.8-18,2.5
		C459.5,525.8,453.5,526.4,447.5,526.7z"/>
	<path class="st0" d="M437.5,482.1c1.1,0.9,2.2,1.8,3.3,2.7c2.2,1.8,4.3,3.7,6.5,5.7c2.1,1.9,4.2,3.9,6.3,5.9c1.1,1,2.1,2,3.3,2.9
		c1.1,0.9,2.3,1.9,3.5,2.7c-1.2-2.8-2.9-5.2-4.6-7.6c-0.9-1.2-1.8-2.3-2.8-3.4s-1.9-2.2-2.9-3.3c-2-2.2-4.1-4.3-6.3-6.2
		c-1.1-1-2.2-2-3.4-2.9c-1.2-0.9-2.4-1.8-3.8-2.6l0,0l-1.8-0.8l-0.7,0.9l-6.4,8.2l7.5-4C435.9,480.9,436.8,481.5,437.5,482.1z"/>
	<path class="st0" d="M380.5,491.9c1.4-1.6,2.8-3.2,4.3-4.7c1.4-1.5,2.9-3.1,4.4-4.5c0.7-0.7,1.5-1.4,2.2-2.1l1-0.9l5,4l-3.4-8.2
		l-0.8-2L391,475c-0.6,0.4-1,0.7-1.5,1.1c-0.4,0.4-0.9,0.7-1.3,1.1c-0.8,0.8-1.6,1.6-2.4,2.4c-1.5,1.6-2.9,3.3-4.2,5.1
		c-0.7,0.9-1.3,1.8-1.9,2.7c-0.6,0.9-1.2,1.8-1.7,2.8c-1.1,1.9-2,3.9-2.5,6.2c1-0.7,1.8-1.4,2.6-2.1
		C379,493.5,379.7,492.7,380.5,491.9z"/>
</g>
</svg>
