<?xml version="1.0" encoding="utf-8"?>
<!-- Generator: Adobe Illustrator 24.0.1, SVG Export Plug-In . SVG Version: 6.00 Build 0)  -->
<svg version="1.1" id="Layer_1" xmlns="http://www.w3.org/2000/svg" xmlns:xlink="http://www.w3.org/1999/xlink" x="0px" y="0px"
	 viewBox="0 0 800 800" style="enable-background:new 0 0 800 800;" xml:space="preserve">
<style type="text/css">
	.st0{fill:#FFFFFF;}
	.st1{fill:#E1DB82;}
</style>
<path id="white" class="st0" d="M429.7,414.2c0,0-15.2,1-15.7,15c-0.5,13.9-12.4,48.1-12.4,48.1s-4.4,19.9,2.1,22.7
	c6.5,2.7,18.2,0,18.2,0s-0.3-10.5,0.7-18s8.9-49.1,8.9-49.1l7.7-8.7L429.7,414.2z"/>
<path id="BG" class="st1" d="M447.2,463.6c-0.3,2.4-0.8,4.8-1.4,7.1c-0.7,2.3-1.4,4.6-2.5,6.6c-0.5,1.1-1.1,2.1-1.7,3.1
	c-0.5,1-1.4,2-2.1,2.9c-0.8,1-1.5,1.9-2.3,2.8s-1.5,1.7-2.4,2.6c-1.6,1.7-3.5,3.3-5.2,4.8l-3.7,2.5c-1,0.7-2.2,0.2-2.6-0.9
	c-0.3-1-0.7-2-1-3.1c-0.3-1.6-0.5-3.3-0.4-4.8c0.1-1.6,0.4-3.6,0.7-5.3c1.2-7.3,2.7-14.6,4.5-21.8c1.7-7.3,3.6-14.4,5.6-21.7
	c0.5-1.7,0.9-3.9,1.4-5.2c0.5-1.4,1.4-2.8,2.4-4l3.2-2.7c0.5-0.4,1.3-0.3,1.6,0.3c3.2,7,5.2,14.7,6,22.5c0.2,2.4,0.3,4.9,0.3,7.3
	C447.7,458.7,447.6,461.2,447.2,463.6z"/>
<path id="black" d="M450.8,449.7c-0.3-4.7-0.9-9.4-1.8-14.1c-1-4.7-2.3-9.3-4.2-13.8c-1-2.2-2.2-4.5-3.7-6.6
	c-0.8-1.1-1.6-2.1-2.6-3.1s-2.1-2-3.6-2.7c-1.4-0.7-3.1-1.3-4.9-1.4s-3.7,0.3-5.3,1c-1.6,0.7-2.8,1.7-3.9,2.7s-1.9,2.2-2.7,3.3
	c-1.3,2-2.6,4.1-3.7,6.3c-1.1,2.2-2,4.6-2.7,6.9c-1.4,4.6-2.4,9.2-3.4,13.7c-2,9-4.2,17.9-6.8,26.8l-1,3.3l-1,3.4
	c-0.6,2.3-1.1,4.6-1.5,7c-0.2,1.2-0.3,2.4-0.4,3.7l-0.1,1.9c0,0.6,0,1.3,0,1.9c0.1,2.6,0.6,5.3,1.7,7.9c1.2,2.6,3.3,5.2,6.2,6.7
	c2.8,1.5,5.9,1.9,8.7,1.7c2.8-0.3,5.4-1.1,7.8-2.1s4.6-2.3,6.6-3.7c4.1-2.8,7.6-6.3,10.7-10c1.5-1.9,2.9-3.8,4.3-5.9
	c0.6-1,1.3-2,1.9-3.1s1.1-2.2,1.6-3.3c1.9-4.5,2.9-9.3,3.4-14C451,459.1,451,454.4,450.8,449.7z M419.8,479.2
	c-0.4,1.7-0.9,3.3-1.3,5.1c-0.5,1.9-0.5,3.9-0.4,5.8s0.3,3.8,0.7,5.7c0.1,0.4,0.2,0.8,0.3,1.1c-1.8,0.6-3.7,1-5.4,1.1
	c-1.8,0.2-3.4,0.1-4.7-0.5c-1.3-0.6-2.4-1.5-3.3-3c-0.8-1.5-1.5-3.3-1.7-5.3c-0.1-0.5-0.1-1-0.2-1.5l-0.1-1.6c0-1.1,0-2.1,0.1-3.2
	c0.1-2.2,0.4-4.4,0.8-6.5l0.7-3.3l0.8-3.4c2.2-8.9,4.6-17.8,7.4-26.6c1.4-4.3,2.9-8.7,4.7-12.7c1.2-2.9,2.7-5.5,4.5-8.1
	c1.2-1.7,3.4-2.4,5.3-1.6l5.4,2.2c0.9,0.4,1.2,1.6,0.6,2.4c-0.8,1-1.5,2-2.1,3.1c-1,1.7-1.8,3.5-2.2,5.5c-0.4,2.1-0.5,3.6-0.7,5.3
	c-1,6.7-2.4,13.4-3.9,20.1C423.3,465.9,421.6,472.6,419.8,479.2z M446.2,463.4c-0.3,2.2-0.7,4.4-1.3,6.5c-0.6,2.1-1.3,4.2-2.3,6.1
	c-0.5,1-1,1.9-1.6,2.8c-0.5,0.9-1.3,1.8-1.9,2.7c-0.7,0.9-1.4,1.7-2.1,2.6c-0.7,0.8-1.4,1.6-2.2,2.4c-1.5,1.6-3.2,3-4.8,4.4
	l-3.4,2.3c-0.9,0.6-2,0.2-2.4-0.8c-0.3-0.9-0.6-1.8-0.9-2.8c-0.3-1.5-0.5-3-0.4-4.4c0.1-1.5,0.4-3.3,0.6-4.9
	c1.1-6.7,2.5-13.4,4.1-20c1.6-6.7,3.3-13.2,5.1-19.9c0.5-1.6,0.8-3.6,1.3-4.8c0.5-1.3,1.3-2.6,2.2-3.7l2.9-2.5
	c0.5-0.4,1.2-0.3,1.5,0.3c2.9,6.4,4.8,13.5,5.5,20.6c0.2,2.2,0.3,4.5,0.3,6.7C446.6,458.9,446.5,461.2,446.2,463.4z"/>
</svg>
