<?xml version="1.0" encoding="utf-8"?>
<!-- Generator: Adobe Illustrator 24.0.1, SVG Export Plug-In . SVG Version: 6.00 Build 0)  -->
<svg version="1.1" id="Layer_1" xmlns="http://www.w3.org/2000/svg" xmlns:xlink="http://www.w3.org/1999/xlink" x="0px" y="0px"
	 viewBox="0 0 800 800" style="enable-background:new 0 0 800 800;" xml:space="preserve">
<style type="text/css">
	.st0{fill:#FFFFFF;}
</style>
<path id="white" class="st0" d="M370.7,415.7c0,0,22.8-11.6,30.5-17.5s17.2-19.4,17.2-19.4l19.9-4.6c0,0-5.9,26-1.7,39.3
	c0,0,9.4-10.4,14.3-19.8c4.8-9.4,5.2-14.9,5.2-14.9s14.5-16.2,28.1-15.5c13.7,0.7,18.9-3.7,31.9-4.3c12.9-0.5,16.5,1.1,16.5,1.1
	s-14,12.5-14.3,27.6s-2.5,31.7-2.5,31.7s-18.5-5.8-20.5-2.1c-2,3.7-13.7,42.7-13.7,42.7l0.9,30.6c0,0,11.3,12.4,7.2,18.7
	c-4.1,6.4-13.5,11-13.5,11s-39.6,24.3-43,23c-3.3-1.2-24.3-47.6-24.3-47.6l-23.3,37.6L363.1,517c0,0,5.2-10.3,6.2-14.9
	s11.7-41.2,14.7-43.6c2.9-2.4-2.9-10.6-2.9-10.6s-9.5-11.4-10.5-20.1S370.7,415.7,370.7,415.7z"/>
<g id="black">
	<path d="M545.9,361.1c-1.2-2.7-3.5-4.6-6.3-5.3c0,0,0,0-0.1,0c-0.2,0-0.3-0.1-0.5-0.1s-0.4-0.1-0.6-0.1c-4.2-0.7-8.5-1.2-12.8-1.3
		c-4.6-0.2-9.3,0-13.9,0.4c-4.6,0.4-9.2,1.2-13.7,2.2c-2.3,0.5-4.5,1.1-6.7,1.7c-1.1,0.3-2.2,0.7-3.3,1c-0.5,0.2-1,0.3-1.4,0.5
		l-2-1.1l-0.1-0.1c-1-0.5-2.1-0.7-3.2-0.3c-1.3,0.5-2.6,0.9-4,1.4c-1.3,0.5-2.6,1-3.9,1.6c-2.6,1.1-5.1,2.4-7.5,3.8
		c-2.4,1.4-4.8,3-7,4.7c-1.1,0.9-2.2,1.8-3.3,2.7c-0.5,0.5-1.1,1-1.6,1.5c-0.3,0.3-0.5,0.5-0.8,0.8s-0.5,0.5-0.9,0.9
		c-0.6,0.7-1,1.6-1,2.6v0.1c0,0.7,0,1.7-0.1,2.5c-0.1,0.9-0.1,1.8-0.2,2.6c-0.2,1.7-0.5,3.4-0.9,5.1c-0.4,1.6-1,3.1-1.7,4.4
		c-0.9,1.5-1.9,3.2-2.9,4.8c-1.1,1.7-2.2,3.4-3.2,5.1c-0.2,0.1-0.3,0.2-0.5,0.3c-1.1,0.7-2.1,1.6-2.8,2.6c-0.2,0.3-0.5,0.7-0.7,1
		c-0.2-1.6-0.4-3.3-0.4-4.9c-0.1-1.8-0.2-3.7-0.2-5.5v-2.8l0.1-2.7c0-0.9,0.1-1.8,0.2-2.7c0.1-0.9,0.2-1.8,0.3-2.7
		c0.2-1.8,0.6-3.5,1.1-5.2c0.3-0.8,0.5-1.6,0.8-2.4c1.6-0.5,2.7-2,2.7-3.8c0-2.2-1.8-4-4.1-3.9c-2.1,0-3.9,0.2-5.8,0.4
		c-1.9,0.2-3.8,0.5-5.7,0.8c-3.8,0.7-7.6,1.8-11.3,3.5l-0.3,0.1c-0.4,0.2-0.8,0.5-1.1,0.9l-11.1,15.1c-0.8,0.8-1.7,1.5-2.6,2.2
		c-3.3,2.8-6.8,5.5-10.4,7.9c-3.6,2.5-7.3,4.7-11.1,6.7c-3.8,2-7.8,3.8-11.8,5.3c-1.2,0.4-2,1.5-2.1,2.9c0,1.2,0,2.1,0,3.1
		s0.1,2,0.2,3c0.2,2,0.5,3.9,0.9,5.8c0.8,3.8,2,7.6,3.6,11.3c1.6,3.6,3.7,7.1,6.2,10.3c1.7,2.1,3.5,4,5.5,5.8
		c-17.7,24.5-18.6,43.9-18.2,50.7c-4.6,3.9-6,10.3-6.2,11.1c-0.2,1.2,0.1,2.3,0.8,3.3c0.7,0.9,1.8,1.5,3,1.5
		c6.8,0.2,16.9,10.6,21.7,17.1c0.8,1,2,1.6,3.2,1.6c0.1,0,0.3,0,0.4,0c1.4-0.2,2.6-1.1,3.2-2.4c5.1-11.7,13.9-27.9,19-37.1
		c2.8,6.5,5.6,12.9,8.3,19.4c1.9,4.5,3.7,9,5.4,13.5s3.4,9.1,4.8,13.5v0.1c0.1,0.2,0.2,0.4,0.3,0.6c1,2,3.4,2.7,5.4,1.8
		c4.9-2.5,9.6-5,14.3-7.6c4.7-2.6,9.4-5.3,13.9-8.2c4.6-2.8,9.1-5.8,13.6-8.9c2.4-1.7,4.8-3.5,7.2-5.5l0.9,4.7
		c0.7-0.6,5.9-5.3,6.5-5.9c0.6-0.6,1.1-1.1,1.6-1.7c1.1-1.2,2.1-2.5,3-4.2c0.2-0.4,0.4-0.9,0.6-1.4s0.4-1.1,0.5-1.6
		c0.1-0.3,0.1-0.6,0.1-1c0-0.3,0.1-0.7,0-1c0-0.4-0.1-0.7-0.1-1.1c0-0.2-0.1-0.4-0.1-0.5l-0.1-0.4c-0.6-2-1.2-3.2-1.9-4.6
		c-1.4-2.7-2.9-5.1-4.4-7.6c-1-1.7-2.1-3.3-3.2-5c0.2-0.4,0.4-0.9,0.6-1.4c0.5-1.5,0.7-3.1,0.5-4.7c-0.2-1.6-0.6-3-1.3-4.3
		c-0.3-0.7-0.7-1.2-1-1.8c0-0.1-0.1-0.1-0.1-0.2c0.4-4.6,1-9.3,1.9-13.7c0.3-1.2,0.5-2.4,0.9-3.6c0.2-0.6,0.3-1.1,0.5-1.7l0.6-1.7
		c1.1-2.8,1.8-5.3,2.5-7.9c1.4-5.2,2.7-10.3,4-15.4c1-4.1,2-8.2,2.9-12.3c1,0,2,0.1,3.1,0.2c2.1,0.2,4.1,0.5,6.1,0.8
		c2,0.4,4,0.9,5.9,1.5c1.9,0.6,3.7,1.3,5.4,2.2c0.1,0,0.2,0.1,0.2,0.1c0.1,0,0.2,0.1,0.3,0.1c0.2,0.1,0.4,0.1,0.6,0.2
		c0.6,0.1,0.7,0.1,1.1,0.1c0.3,0,0.6,0,0.8,0c0.6,0,1.1-0.1,1.6-0.1c1-0.2,2-0.4,3-0.8c0.5-0.1,0.9-0.3,1.4-0.6
		c0.4-0.2,0.9-0.4,1.3-0.7l1.2-0.8c0.4-0.3,0.8-0.5,1.2-0.8c1.5-1.2,2.8-2.5,4-3.9c0.5-0.7,1.1-1.4,1.6-2.2l1.3-2.3
		c0.5-0.7,0.8-1.5,1.2-2.3c0.3-0.8,0.7-1.6,1.1-2.3l0.9-2.4c0.3-0.8,0.6-1.6,0.8-2.4c0.4-1.6,0.9-3.2,1.2-4.8l0.9-4.8
		c0.4-2.2-1-4.3-3.2-4.7c-1.6-0.3-11.9-2-17.5-2c0.2-0.5,0.3-1,0.5-1.5c7.4-21.6,13.7-22.2,14-22.3c0.2,0,0.3,0,0.5,0.1
		c0.4,0.1,0.5,0.5,0.6,0.6c0.9,2,3.2,3,5.3,2.1C545.8,365.5,546.8,363.2,545.9,361.1z M489.1,368.8
		C489.1,368.8,489.1,368.8,489.1,368.8c0,0.1,0,0.3,0,0.4c0.1,0.7,0.8,1.2,1.4,0.6c0.1-0.1,0.2-0.2,0.3-0.3c0.1,0.2,0.2,0.3,0.3,0.5
		c0.4,0.5,1.2,1.1,1.9,0.7c0.6-0.4,0.8-1.2,0.5-1.8c0-0.1-0.1-0.3-0.2-0.4h0.1c0.3-0.1,0.7-0.3,0.8-0.6c0.1-0.3,0-0.5-0.1-0.7
		c1.8-0.5,3.7-1,5.6-1.4c1-0.2,2.1-0.5,3.1-0.7c0,0,0,0.1,0.1,0.1c0.3,0.2,0.5,0.4,0.7,0.6c-1.3,2.5-4.6,3.8-7.3,2.8
		c-0.3-0.1-0.5,0.1-0.7,0.3c-0.3,0.5,0,1.1,0.4,1.4c0.4,0.3,1,0.4,1.5,0.7c0.8,0.4,1.5,0.9,2,1.6c-0.1,0-0.1,0-0.2,0
		c-0.5,0.1-0.6,0.8-0.2,1.1c0.4,0.2,0.4,0.8,0.5,1.2c0.1,0.6,0.2,1.2,0.2,1.8c0.1,0.7,0.4,2.4-0.6,2.6c-0.5,0.1-1.1,0-1.6-0.1
		c-0.6-0.1-1.1-0.2-1.7-0.3c-0.6-0.1-1.1-0.3-1.7-0.5c-0.4-0.2-0.6-0.1-0.9,0.1c-0.2,0.1-0.4,0.3-0.6,0.4c-0.8-0.5-0.9-1.6-0.8-2.4
		c0.1-1.2,0.6-2.3,0.6-3.5c0-0.1,0-0.1,0-0.2c0-0.3-0.2-0.5-0.5-0.5c-0.2,0-0.3,0-0.5,0.1c-0.1,0.1-0.2,0.2-0.2,0.3
		c-0.7,1.4-1.5,2.7-2.3,4c-0.2-0.2-0.5-0.2-0.7,0.1c-0.3,0.3-0.6,0.5-1,0.7c0.1-0.9,0.3-1.8,0.4-2.7
		C488,372.7,488.5,370.7,489.1,368.8z M501.6,372.7c-0.3-0.5-0.7-1-1-1.4c0.9,0.3,1.9,0.5,2.9,0.4c0.3,0,0.6-0.3,0.6-0.6
		s-0.3-0.6-0.6-0.6c-1.5,0.3-2.8,0-3.9-0.6c0.8-0.2,1.6-0.5,2.4-0.9c0.3-0.2,0.5-0.3,0.7-0.5c0,0,0,0,0.1,0c1.1,0.3,2.2,0.8,3.1,1.6
		c0.3,0.3,0.6,0.7,0.8,1.1c0.1,0.1,0.1,0.2,0.1,0.3s0,0.1,0.1,0.2c-0.2,0.1-0.4,0.2-0.5,0.3c-0.9,0.4-1.8,0.8-2.7,1.1
		c-0.5,0.1-0.9,0.2-1.4,0.3c-0.2,0-0.5,0-0.7,0h-0.1C501.7,373.2,501.7,373,501.6,372.7z M476.9,410.3c-0.2-0.5-0.3-0.9-0.5-1.4
		c1.3,1.4,2.4,3.1,2.8,5c0.1,0.3,0.3,0.6,0.7,0.5c0.3,0,0.6-0.3,0.5-0.7c-0.4-1.8-1.2-3.3-2.3-4.7c0.4,0.1,0.8,0.1,1.2,0
		c0.4-0.1,0.9-0.2,1.1-0.5c0.1-0.1,0.1-0.2,0.1-0.3c0.3,0.4,0.5,0.9,0.7,1.3c0.3,0.8,0.4,1.6,0.5,2.4c0.1,0.8,0.1,1.6,0,2.4
		c-0.1,0.4-0.1,0.8-0.2,1.2c0,0.2-0.1,0.4-0.2,0.6c0,0.1-0.1,0.2-0.1,0.4c-0.1,0-0.2-0.1-0.2-0.1c-0.1,0-0.3-0.1-0.4-0.2
		c-0.3-0.1-0.6-0.3-0.9-0.4c-0.6-0.3-1.1-0.7-1.5-1.1c-0.9-0.9-1.6-2-2-3.2c0-0.1-0.1-0.2-0.1-0.2c0-0.1,0-0.1,0-0.2
		C476.6,411.3,477.1,410.9,476.9,410.3z M480.1,406.3c-0.4,0.2-0.5,0.4-0.5,0.8c0,0.2,0,0.5-0.1,0.7c-0.8,0.3-1.8-0.3-2.4-0.8
		c-0.9-0.8-1.5-1.9-2.4-2.7c0-0.1-0.1-0.1-0.2-0.1c-0.2-0.2-0.5-0.1-0.7,0.1c-0.1,0.1-0.2,0.3-0.2,0.5c0,0.1,0,0.2,0.1,0.3
		c0.6,1.4,1.2,2.9,1.8,4.3c-0.3,0.1-0.4,0.3-0.4,0.6c0.1,1.3-0.2,2.5-0.8,3.6c0-0.1-0.1-0.1-0.1-0.2c-0.2-0.3-0.6-0.3-0.8-0.1
		c-0.4,0.3-1.1,0.8-1.7,0.6c-0.4-0.1-0.6-0.5-0.8-0.7c-0.2-0.3-0.4-0.7-0.6-1c-0.7-1.5-1.1-3.1-1-4.8c0-0.8-1.1-1-1.2-0.2
		c-0.1,1.6-0.2,3.3-1,4.7c-0.6,1-1.8,1.9-3,1.7c0-0.2,0.1-0.4,0.1-0.5c0.1-0.6-0.5-0.8-0.9-0.6c-1.5,0.9-3.4,0.4-4.6-0.8
		c0.4-0.3,0.8-0.7,1.2-1c0.5-0.4,0.2-1.1-0.4-1.1c-0.4,0-0.6-0.4-0.6-0.7c0-0.1,0-0.2,0-0.4l2.3-1.7l1.9-1.4c1,0,1.9-0.2,2.8-0.8
		c0.3-0.2,0.3-0.6,0.1-0.8c-0.1-0.2-0.4-0.3-0.6-0.2c0.2-0.1,0.3-0.3,0.5-0.4c0.2,0.2,0.4,0.3,0.6,0.4c0.5,0.3,1,0.4,1.5,0.5
		c0.2,0,0.4-0.1,0.5-0.2c0.2,0.4,0.5,0.9,0.9,1.2c0.6,0.3,1.4,0.1,1.4-0.7c0-0.1,0-0.3-0.1-0.4c0.2,0,0.4,0,0.6,0
		c0.7,0,1.6-0.2,1.7-1c0.1-0.7-0.5-1.3-1.1-1.5c-0.1,0-0.3-0.1-0.4-0.1c0,0,0,0,0-0.1c0.2-0.3,0.2-0.7,0-1s-0.7-0.3-1-0.2
		c-0.2,0.1-0.4,0.2-0.6,0.3c0-0.2-0.1-0.4-0.2-0.6c0.5-1,0.6-2.2,0.1-3.2c1.1,0.9,2.3,1.8,3.5,2.6c0,0.1,0,0.3,0,0.4
		c0.2,0.6,0.7,0.7,1.3,0.6c1.8,1.3,3.6,2.6,5.3,3.9c0.6,0.4,1.4,0.7,2.1,0.8c-0.2,0.2-0.4,0.3-0.5,0.4
		C481,405.7,480.6,406,480.1,406.3z M449,416.8c0.2,0.5,0.1,1-0.2,1.4c-0.4,0.4-1,0.3-1.5,0.6c-0.6,0.4-0.6,1-0.5,1.7
		c0,0.1,0.1,0.3,0.1,0.4l-0.1,0.1c-0.2,0.2-0.4,0.3-0.6,0.4c-0.8,0.5-1.9,0.6-2.8,0.7c-1.2,0.2-2.4,0.5-3.3,1.4
		c-0.4,0.4,0,1.1,0.5,1c1.8-0.3,3.6,0.5,4.6,1.9h-0.1c-0.4,0-1,0.5-0.6,0.9c1.1,1.2,1.8,2.6,2.2,4.1c0,0.2,0.1,0.3,0.1,0.5
		c0,0.1,0,0.2,0,0.2h-0.1c-0.4,0.1-0.8,0.2-1.1,0.3c-0.9,0.2-1.7,0.2-2.6,0.1c-0.3,0-0.6,0.1-0.7,0.5c-0.1,0.3-0.2,0.6-0.3,0.8
		c-2.9-0.4-5.2-2.9-5.2-5.8c0,0,0-0.1,0-0.1c0.6-1.1,1.1-2.3,1.7-3.4c0.1,0,0.3,0,0.4,0c0.5,0,0.7-0.7,0.3-1c0,0-0.1-0.1-0.1-0.1
		c0.1-0.2,0.2-0.5,0.3-0.7c2.3-1.6,4.6-3.2,6.9-4.8c0.8-0.6,1.5-1.1,2.3-1.7C448.8,416.4,448.9,416.6,449,416.8z M471,432.3
		c-1.8,1.2-3.9,1-5.9,0.3c0.1,0,0.3-0.1,0.4-0.1c1-0.1,1.9-0.4,2.8-0.9c0.4-0.2,0.8-0.4,1.1-0.7c1.5-0.4,2.9-0.5,4.3-0.5
		c-0.8,0.6-1.6,1.2-2.5,1.8C471.1,432.2,471.1,432.2,471,432.3z M474.7,434.7c-0.4,0.1-0.7,0.2-1.1,0.3c-0.9,0.2-1.8,0.2-2.7,0.1
		c-1.1-0.1-2.1-0.4-3.1-0.8c0.1,0,0.2,0,0.3,0c0.1,0.1,0.2,0.1,0.4,0.1C470.6,434.5,472.6,434.6,474.7,434.7z M468.9,429.9
		c-0.8,0.2-1.7,0.5-2.5,0.9c-0.4,0.2-0.8,0.4-1.2,0.6c-0.6,0.1-1.2,0-1.7,0c-0.3,0-0.5,0.1-0.6,0.3c-0.7-0.3-1.3-0.7-1.9-1.1
		c1.5-0.2,2.9-0.7,4.3-1.3c1.7-0.4,3.4-0.6,5.1-0.8C469.9,429,469.4,429.5,468.9,429.9z M467.5,437.2c-0.7-0.5-1.3-1.2-1.8-1.8
		c-0.6-0.7-1.3-1.4-1.9-2.1c0.4,0.2,0.8,0.3,1.2,0.4c0,0.1,0,0.1,0.1,0.2C465.8,435.1,466.6,436.2,467.5,437.2z M450.2,426.2
		c-0.2-0.4-0.4-0.7-0.6-1.1c0.6,0.2,1.1,0.4,1.7,0.7c0,0.1,0,0.2,0.1,0.2c0.7,1.3,1.3,2.5,2,3.8c0.2,0.3,0.3,0.6,0.5,0.9
		C452.6,429.3,451.4,427.8,450.2,426.2z M450.5,430.5c-1.8-2-3.5-4.2-5-6.5c0.7,0.1,1.4,0.2,2.1,0.4c0.5,0.8,1.1,1.6,1.7,2.4
		C449.9,428,450.2,429.2,450.5,430.5z M453.3,426.9c0.5,0.3,0.9,0.6,1.3,0.9c0.4,0.3,0.8,0.6,1.2,0.8c-0.1,0.2-0.1,0.4,0,0.6
		c1.3,1.9,2.3,3.8,3.3,5.8c0,0-0.1-0.1-0.1-0.1c-0.8-1-1.5-2.1-2.3-3.1C455.6,430.2,454.4,428.5,453.3,426.9z M458.1,430.1
		c0.5,0.4,1.1,0.7,1.6,1c0,0,0,0,0,0.1c0.4,1.2,1,2.3,1.7,3.3c-0.3-0.3-0.5-0.6-0.6-0.8C459.9,432.5,459,431.3,458.1,430.1z
		 M464.9,428.1c-1.8,0.4-3.6,0.8-5.3,1.3c-0.1,0-0.1,0.1-0.2,0.1c-1.1-0.7-2.1-1.4-3.2-2.2c1.4,0,2.7,0.2,4.1-0.1h0.1
		c1.7,0.2,3.4,0.4,5,0.7C465.2,428,465.1,428.1,464.9,428.1z M460.3,426.1c-1.5-0.1-3,0-4.6,0.1c-0.3,0-0.5,0-0.8,0.1
		c-0.1,0-0.2,0-0.2,0.1c-0.5-0.3-1.1-0.7-1.6-1c0.8-0.2,1.7-0.4,2.5-0.7c2.4-0.4,4.7-0.3,7,0.2C461.9,425.3,461.2,425.8,460.3,426.1
		z M455.3,423.6c-1.3,0.2-2.6,0.5-3.9,1c-0.6-0.3-1.1-0.5-1.7-0.7c-0.2-0.1-0.5-0.2-0.7-0.2c0.9-0.3,1.8-0.7,2.6-1.2
		c0.8-0.3,1.7-0.5,2.6-0.5c1.5-0.2,3-0.1,4.5-0.1C457.6,422.6,456.5,423.1,455.3,423.6z M451.1,421.5c-1.2,0.4-2.4,0.9-3.6,1.5
		c-0.2,0.1-0.2,0.2-0.3,0.3c-0.8-0.3-1.6-0.5-2.5-0.5c0.6-0.1,1.1-0.2,1.6-0.4c0.2,0.1,0.4,0.1,0.6-0.1c2.4-1.9,5.2-3.2,8.1-3.7
		C453.8,419.7,452.5,420.7,451.1,421.5z M431.1,452.3c0.3,0.4,0.8,1.1,0.6,1.7c-0.1,0.3-0.5,0.6-0.7,0.8c-0.3,0.2-0.7,0.4-1,0.6
		c-1.5,0.7-3.1,1-4.8,0.9c-0.8-0.1-1,1.1-0.2,1.2c1.6,0.1,3.3,0.2,4.7,1.1c1,0.6,1.8,1.8,1.7,3c-0.2,0-0.4-0.1-0.5-0.1
		c-0.6-0.1-0.8,0.5-0.6,0.9c0.8,1.5,0.4,3.4-0.8,4.6c-0.3-0.4-0.6-0.8-1-1.2c-0.4-0.5-1.1-0.2-1.1,0.4c0,0.4-0.4,0.6-0.7,0.6
		c-0.5,0.1-1-0.3-1.4-0.6c-1-0.8-1.7-1.8-2.2-3c0.2-0.9,0.1-1.9-0.3-2.8c0.4-1.1,0.8-2.3,1.3-3.4c0.9-2.2,1.8-4.5,2.7-6.7
		c0.2-0.1,0.3-0.1,0.5-0.2c0.1,0.3,0.3,0.5,0.6,0.4c1.3-0.1,2.5,0.2,3.5,0.9c-0.1,0-0.1,0.1-0.2,0.1
		C430.9,451.7,430.9,452.1,431.1,452.3z M420.1,468.3c0-0.1,0.1-0.2,0.1-0.4c0.5-0.5,1-0.9,1.5-1.6c-0.4,2.2-0.6,4.5,0.5,6.6
		c0.2,0.3,0.6,0.3,0.8,0.1c0.3-0.2,0.3-0.5,0.1-0.8c-1.1-2-0.6-4.4-0.1-6.6c0.4,0.5,0.8,1,1.3,1.4c0,0.1-0.1,0.3,0,0.4
		c0.4,1.3,0.5,2.7,0.4,4.1c-0.1,0.7-0.2,1.4-0.5,2c-0.2,0.5-0.4,1-0.7,1.5c-0.1-0.1-0.3-0.2-0.4-0.3c-0.3-0.2-0.7-0.4-1-0.6
		c-0.6-0.4-1.1-1-1.4-1.7c-0.3-0.6-0.8-1.4-0.9-2.1C419.8,469.6,420.1,468.9,420.1,468.3z M416,482.3c0.5,0.9,0.9,1.9,1.2,3
		c-0.1-0.1-0.1-0.2-0.2-0.3c0-0.1,0-0.3-0.1-0.4c-0.4-0.5-0.8-1-1.1-1.5C415.8,482.8,415.9,482.5,416,482.3
		C416,482.3,416,482.3,416,482.3z M429.6,514.7c0.2,0.6,0.9,0.6,1.4,0.4c0.5-0.2,0.9-0.6,1.4-0.9c0.8-0.4,1.6-0.7,2.4-0.8
		c0,0,0,0.1-0.1,0.1c-0.2,0.5,0.4,0.9,0.8,0.7c0.4-0.2,0.9,0,1.2,0.2c0.5,0.3,1.1,0.5,1.6,0.8c0.7,0.3,2.3,1,1.8,2
		c-0.2,0.5-0.6,0.9-1,1.3c-0.4,0.4-0.8,0.8-1.2,1.2c-0.4,0.4-0.9,0.8-1.4,1.1c-0.3,0.2-0.4,0.4-0.4,0.8c0,0.2,0,0.5,0,0.7
		c-0.8,0.4-1.8-0.1-2.5-0.7c-0.9-0.8-1.6-1.8-2.6-2.5c-0.1-0.1-0.1-0.1-0.2-0.1c-0.3-0.1-0.5,0-0.7,0.1c-0.1,0.1-0.2,0.3-0.2,0.5
		c0,0.1,0,0.2,0.1,0.3c0.7,1.4,1.4,2.8,2.1,4.2c-0.2,0.1-0.4,0.3-0.4,0.6c0.2,1.2,0,2.5-0.5,3.6c0-0.1-0.1-0.1-0.1-0.2
		c-0.2-0.3-0.6-0.2-0.8-0.1c-0.4,0.3-0.9,0.8-1.4,0.8c-1.2-3.1-2.4-6.1-3.7-9.2c0.1,0,0.2-0.1,0.3-0.2c0.3,0.4,0.6,0.9,1,1.1
		c0.6,0.3,1.4-0.1,1.3-0.8c0-0.1-0.1-0.3-0.1-0.4c0.2,0,0.4,0,0.6,0c0.7-0.1,1.6-0.3,1.6-1.1c0-0.7-0.6-1.3-1.2-1.4
		c-0.1,0-0.3,0-0.4-0.1v-0.1c0.1-0.3,0.1-0.7-0.1-1c-0.3-0.3-0.7-0.3-1-0.1c-0.2,0.1-0.4,0.2-0.6,0.3c-0.1-0.5-0.4-1-0.7-1.5
		c-0.3-0.4-1-0.1-1,0.3c0,0.7-0.1,1.3-0.1,2c0,0.3,0,0.6,0.2,0.8c-0.1,0-0.3,0-0.4,0.1c-0.1,0-0.2,0-0.2,0c0,0,0,0,0,0
		c-0.5-1.3-1.1-2.6-1.6-3.9c0.4,0.3,0.9,0.5,1.4,0.6c0.5,0.1,0.8-0.6,0.5-1c-1.2-1.3-1.7-3.2-1.2-4.9c0,0,0,0.1,0.1,0.1
		c0.2,0.4,1,0.5,1.1-0.1c0.3-1.5,1-3,2-4.2c0.1-0.1,0.2-0.3,0.3-0.4c0,0,0.1-0.1,0.2-0.2c0,0,0,0,0.1,0c0.3,0.2,0.6,0.5,0.9,0.7
		c0.6,0.6,1.2,1.3,1.6,2c0.2,0.3,0.5,0.4,0.8,0.3c0.3-0.1,0.6-0.2,0.9-0.2c1.4,2.5,0.7,5.9-1.7,7.6
		C429.5,514.2,429.5,514.5,429.6,514.7z M436.3,512.4c-0.6,0-1.2,0-1.7,0.1c0.8-0.6,1.4-1.3,1.9-2.2c0.2-0.3,0.1-0.6-0.2-0.8
		c-0.3-0.2-0.7-0.1-0.8,0.2c-0.7,1.1-1.6,2-2.7,2.6c0.3-0.8,0.5-1.6,0.6-2.5c0-0.3,0-0.6,0-0.9c0,0,0,0,0.1,0
		c0.9-0.8,1.9-1.4,3.1-1.6c0.5-0.1,0.9-0.1,1.4,0c0.1,0,0.2,0,0.4,0.1c0.1,0,0.1,0,0.2,0.1c0,0.2-0.1,0.4-0.1,0.6
		c-0.1,1-0.3,1.9-0.6,2.9c-0.1,0.5-0.3,0.9-0.6,1.3c-0.1,0-0.2,0.2-0.4,0.4C436.8,512.6,436.6,512.4,436.3,512.4z M434.3,525.4
		c-0.2-0.5-0.4-0.9-0.6-1.4c1.4,1.3,2.6,2.9,3.2,4.7c0.1,0.3,0.4,0.5,0.7,0.5c0.3-0.1,0.6-0.4,0.5-0.7c-0.5-1.7-1.5-3.2-2.7-4.5
		c0.4,0.1,0.8,0.1,1.2,0c0.4-0.1,0.9-0.3,1-0.6c0-0.1,0.1-0.2,0.1-0.3c0.4,0.1,0.7,0.6,0.9,1.1c0.3,0.7,0.6,1.5,0.7,2.3
		c0.1,0.8,0.2,1.6,0.1,2.4c0,0.4-0.1,0.8-0.1,1.2c0,0.2-0.1,0.4-0.1,0.6c0,0.1,0,0.2-0.1,0.4c-0.1,0-0.2-0.1-0.2-0.1
		c-0.1,0-0.3-0.1-0.4-0.1c-0.3-0.1-0.6-0.2-0.9-0.3c-0.6-0.3-1.1-0.6-1.6-1c-1-0.8-1.7-1.8-2.2-3c0-0.1-0.1-0.2-0.2-0.2
		c0-0.1,0-0.1,0-0.2C434.1,526.3,434.6,525.9,434.3,525.4z M411.7,466.6c0.1-0.4,0.4-0.6,0.7-0.9c-0.2,0.6-0.4,1.1-0.6,1.7
		C411.7,467.1,411.6,466.9,411.7,466.6z M391.5,409.5c-0.3,0.2-0.7,0.5-1,0.7c-0.1,0-0.1,0-0.2,0c-0.6,0-1.3,0-1.9,0
		c0.1-0.1,0.2-0.1,0.3-0.2C389.6,409.9,390.6,409.7,391.5,409.5z M388.5,416.1c0-2.2,1.2-3.9,2.9-5.2c0,0.3-0.1,0.4-0.1,0.5
		c-0.4,0.9-0.7,1.8-0.8,2.8c0,0.4,0,0.9,0,1.3c-0.4,1.4-1,2.7-1.8,3.9c-0.1-1-0.1-2-0.2-3.1C388.5,416.2,388.5,416.2,388.5,416.1z
		 M388.3,412.6c0,0-0.2,0.1-0.2,0.3c-1.1,1.7-2.3,3.4-3.5,5.1c0.1-0.4,0.2-0.7,0.3-1.1c0.3-0.8,0.8-1.6,1.3-2.4
		c0.7-0.9,1.4-1.6,2.3-2.2C388.4,412.4,388.4,412.5,388.3,412.6z M419.6,399.7l-1.1,1.8l-0.3,0.6c-0.3,0.5-0.3,1-0.2,1.6
		c-0.2-0.1-0.4,0-0.5,0.1c-0.6,0.7-1.3,1.7-2.3,2c-0.6-0.5-1.3-0.9-2.1-1c0-0.4,0.3-0.9,0.3-1.4c0-0.7-0.6-1.1-1.1-1.3
		c-0.1,0-0.3-0.1-0.4-0.2c0,0,0-0.1-0.1-0.2c0-0.1-0.1-0.2-0.1-0.3L419.6,399.7z M430.8,402.6c0.1,1.9,0.2,3.7,0.4,5.6
		c-0.2,0.2-0.4,0.4-0.7,0.6l-2-1.8c0-0.1,0-0.3,0-0.4c0-1.3-0.2-2.6-0.7-3.8c-0.3-0.9-0.8-1.7-1.4-2.5l2-1.9
		c0.2,0.1,0.3,0.1,0.5,0.2c0.3,0.1,0.6,0,0.8-0.3c0.3-0.6,0.5-1.2,0.6-1.8l0.3-0.3l0.2-0.2c0,0.2,0,0.4,0,0.6
		C430.7,398.7,430.8,400.6,430.8,402.6z M422.1,462.8c-0.1,0.1-0.2,0.3-0.1,0.6c-0.2,0.8-0.5,1.5-0.9,2.1c0,0.1-0.1,0.1-0.1,0.2
		c0.4-1.1,0.7-2.2,1.1-3.2C422.1,462.6,422.1,462.7,422.1,462.8z M384,442.1c-0.9-0.8-2-1.4-3.1-1.8c2.1,0.4,4.3,0.7,6.5,0.9
		c0.5,0,0.8-0.7,0.4-1c-0.7-0.6-1.5-1.1-2.3-1.6c1.8,0.3,3.6,0.5,5.5,0.7c0.5,0,0.7-0.6,0.5-0.9c-0.1-0.2-0.2-0.3-0.3-0.4
		c1,0.2,2.1,0.5,3.1,0.7c0.6,0.1,1.3,0.2,1.9,0.3c0,0,0,0.1,0,0.1c-3.4,3.5-6.5,6.9-9.2,10.3c-1.4-1.2-2.8-2.5-4-4
		c0.2-0.2,0.4-0.5,0.6-0.7c0.3-0.4,0.6-0.8,0.8-1.3C384.6,442.9,384.3,442.4,384,442.1z M396.5,436.9
		C396.5,436.9,396.5,436.9,396.5,436.9C396.5,436.9,396.5,436.9,396.5,436.9C396.5,436.9,396.5,436.9,396.5,436.9z M396.9,434.5
		c-0.4-0.1-0.8-0.2-1.1-0.3c0.4,0,0.8,0.1,1.2,0.1C397,434.4,396.9,434.4,396.9,434.5z M396.1,435.3c-0.3-0.1-0.6-0.1-1-0.2
		c-1.5-0.3-3-0.6-4.4-0.9c0.6-0.1,1.3-0.2,1.9-0.3C393.8,434.5,394.9,434.9,396.1,435.3z M395.3,437.3c-0.2,0-0.4,0-0.7-0.1
		c-1.3-0.2-2.5-0.5-3.7-0.8c-1.9-0.4-3.9-0.9-5.8-1.4c0.5-0.1,1-0.2,1.6-0.3c0.5-0.1,1-0.1,1.4-0.2c0,0.2,0.2,0.4,0.4,0.4
		C390.8,435.5,393.1,436.3,395.3,437.3z M387,437.1c0.3,0.1,0.7,0.2,1,0.4c-1.9-0.2-3.8-0.5-5.7-1c-0.4-0.2-0.8-0.3-1.2-0.4
		c0.6-0.2,1.1-0.4,1.7-0.6c0.1,0,0.1,0.1,0.2,0.1C384.3,436.1,385.7,436.6,387,437.1z M391.5,456.9c0,0,0.1,0.1,0.1,0.1
		C391.6,457,391.5,457,391.5,456.9C391.5,456.9,391.5,456.9,391.5,456.9z M388.9,460.2c0.5,0.2,1,0.3,1.6,0.4
		c-0.4,0.1-0.8,0.1-1.2,0.2c0-0.1-0.1-0.1-0.2-0.1c-0.1-0.1-0.3-0.1-0.4-0.2C388.8,460.4,388.9,460.3,388.9,460.2z M389.7,459.2
		c0.1-0.1,0.2-0.2,0.2-0.3c0.6,0.3,1.2,0.6,1.9,0.9C391.1,459.6,390.4,459.4,389.7,459.2z M403,443.8c0.7-0.7,1.1-1.5,1.1-2.5
		c0-0.1,0.3-3,1.1-7c0.7-0.3,1.3-0.6,1.8-1.2c0.5-0.4-0.1-1.1-0.6-1c-0.3,0-0.5,0.1-0.8,0.1c0.3-1.3,0.7-2.8,1.1-4.2
		c0.6-0.8,1.3-1.9,0.9-2.9c1.7-5,4.2-10,7.7-13.4c1.4-1.3,1.6-3.5,0.6-5c0.5-0.4,1-0.8,1.5-1.4c0.2,0.2,0.4,0.5,0.6,0.7
		c0.3,0.4,0.8,0.3,1,0c0.1-0.2,0.2-0.4,0.3-0.5l8.8,10.5c0.2,0.4,0.4,0.7,0.7,1.1c-0.6-0.1-1.3-0.2-2-0.3c-0.9,0-2.1,0-2.7,0.8
		c-0.4,0.5-0.6,1.2-0.6,1.9c-0.2,0-0.3,0-0.5,0c-0.4,0-0.6,0.5-0.5,0.8c0.2,0.7,0.6,1.4,1,1.9c-2.2-0.2-4.5,0.5-6.2,1.9
		c-0.3,0.2-0.6,0.4-0.7,0.7c-0.2,0.4,0,0.8,0.3,1.1c0.4,0.6,0.9,1.1,1.5,1.5c1.1,0.9,2.4,1.7,3.8,2.2c1.3,0.4,2.7,0.8,3.9,0
		c0,0.6,0,1.3,0.1,1.9c-0.6,1.4-1.3,2.8-1.9,4.2c-0.5,1.2-1.1,2.4-1.6,3.6c-1.1-0.1-2.3-0.2-3.5-0.2c-1.9,0.1-3.9,0.4-5.8,1
		c-1.9,0.6-3.8,1.4-5.4,2.8c0.4,0.1,0.7,0.2,1.1,0.2c0,0,0,0,0,0.1c-0.1,0.5-0.1,1.1-0.1,1.6c0.1,1.2,0.6,2.3,1.2,3.2
		c-0.3,0-0.6,0.1-0.8,0.2c-0.4,0.1-1.2,0.3-1.4,0.7c-0.1,0.3-0.1,0.6-0.1,0.9c0,0.2,0,0.3,0.1,0.5c-0.8,0.4-1.5,0.9-2.2,1.5
		c-0.4,0.3-0.8,0.7-1,1.1c-0.3,0.5-0.1,1,0.2,1.4c0.7,0.9,1.7,1.7,2.7,2.3c-2-0.8-4.1-1.5-6.2-2.1c-0.5-0.1-0.9,0.6-0.6,0.9
		c0.6,0.7,1.3,1.4,1.9,2c-1.7-0.6-3.5-1.2-5.3-1.7c-0.5-0.1-0.8,0.4-0.7,0.8c0,0.2,0.1,0.3,0.2,0.4c-1-0.4-1.9-0.9-2.9-1.2
		c-0.4-0.2-0.8-0.3-1.3-0.4C395.8,451.5,399.1,447.7,403,443.8z M411.5,403.7c0.1,0.2-0.1,0.5-0.1,0.6c-0.1,0.2-0.1,0.5-0.1,0.7
		c-0.2,0-0.3,0.1-0.5,0.2c0.1-0.6,0.1-1.2,0.1-1.8C411.2,403.5,411.4,403.5,411.5,403.7z M415.9,444.6l0.1,0.1
		c-0.2,0-0.4,0.2-0.5,0.5c-0.1,0.6-0.1,1.2,0,1.7c-0.5-0.8-1.2-1.5-2-2.1c-0.3-0.2-0.6-0.2-0.8,0.1c-0.2,0.2-0.2,0.6,0.1,0.8
		c1,0.8,1.8,1.8,2.3,2.9c-0.7-0.4-1.6-0.7-2.4-0.8c-0.3,0-0.6-0.1-0.9-0.1c0,0,0,0,0-0.1c-0.9-0.8-1.4-1.9-1.5-3.1
		c0-0.4,0-0.8,0.1-1.2c1.8,0.4,3.5,0.7,5.1,1C415.6,444.4,415.8,444.5,415.9,444.6z M416.7,446.7c0.5,0.3,1-0.3,0.8-0.8
		c-0.1-0.4,0.1-0.9,0.3-1.2c0.4,0.1,0.7,0.1,1.1,0.2c0.4,0.1,0.8,0.1,1.2,0.1c-0.8,1.8-1.5,3.7-2.2,5.5c-0.1-0.5-0.5-0.9-0.7-1.4
		c-0.3-0.8-0.5-1.6-0.6-2.5L416.7,446.7z M426.9,430c0-0.1,0-0.2,0-0.3c0-0.4-0.1-0.6-0.4-0.8c-0.2-0.1-0.4-0.3-0.6-0.4
		c0.2-0.9,1.2-1.4,2-1.6c0.2,0,0.4-0.1,0.5-0.1C427.9,427.9,427.4,428.9,426.9,430z M420.6,426c1.7,0.6,3.5,0.7,5.2,0.5
		c-0.3,0.3-0.5,0.6-0.7,1c-0.1,0.3-0.3,0.9-0.1,1.2c0,0.1,0.1,0.2,0.2,0.2c-0.5,0.2-1,0.2-1.5,0.1c-0.8-0.1-1.6-0.4-2.3-0.8
		c-0.7-0.4-1.4-0.8-2.1-1.3c-0.3-0.3-0.6-0.5-0.9-0.8c-0.1-0.1-0.3-0.3-0.4-0.4c-0.1-0.1-0.2-0.2-0.2-0.3c0.1-0.1,0.2-0.1,0.2-0.1
		c0.1-0.1,0.2-0.2,0.4-0.3c0.3-0.2,0.5-0.4,0.8-0.5c0.6-0.3,1.2-0.6,1.8-0.7c1.1-0.5,2.4-0.5,3.6-0.2c0.1,0,0.2,0,0.3,0
		s0.1,0.1,0.2,0.1c-0.4,0.3-0.3,0.9,0.2,1.1c0.5,0.1,1,0.2,1.5,0.3c-1.9,0.4-3.9,0.4-5.7-0.2c-0.3-0.1-0.6,0-0.8,0.3
		C420.2,425.5,420.3,425.9,420.6,426z M424.5,420.5c0-0.5-0.1-1.4,0.3-1.8c0.3-0.2,0.7-0.3,1-0.3c0.4,0,0.8,0,1.2,0
		c1.6,0.1,3.2,0.7,4.6,1.7c0,0,0,0,0,0l0.1,0.1c-0.8,1.5-1.5,3.1-2.3,4.6c-0.9-0.1-1.8-0.3-2.7-0.4c0.1-0.3,0-0.5-0.3-0.7
		c-1.2-0.5-2.1-1.4-2.6-2.6c0.1,0,0.1,0,0.2,0C424.3,421.1,424.6,420.7,424.5,420.5z M424.1,403.1c-0.1-0.1-0.1-0.2-0.2-0.4l1.6-1.6
		c0.5,0.7,0.9,1.5,1.3,2.4c0.2,0.6,0.4,1.3,0.5,2c0,0.1,0,0.3,0.1,0.5L424.1,403.1z M393,458.8c1.4,0.6,2.8,1.2,4.2,1.8
		c-0.6,0-1.3-0.1-1.9-0.1c-1-0.8-2-1.4-3.1-2C392.4,458.6,392.7,458.7,393,458.8z M393.8,456.8c0,0,0.1,0.1,0.1,0.1
		c1.2,0.5,2.4,1,3.5,1.5c1.8,0.8,3.6,1.7,5.4,2.5c-0.5,0-1.1,0-1.6-0.1c-0.5,0-1-0.1-1.4-0.1c0-0.2-0.1-0.4-0.3-0.5
		C397.5,459.3,395.5,458.1,393.8,456.8z M401.3,458.3c-0.3-0.2-0.6-0.4-0.9-0.5c1.9,0.6,3.7,1.3,5.5,2.1c0.3,0.2,0.7,0.4,1.1,0.6
		c-0.6,0.1-1.2,0.2-1.8,0.3c-0.1-0.1-0.1-0.1-0.2-0.2C403.8,459.8,402.6,459.1,401.3,458.3z M406.4,458.8c-1.1-0.7-2-1.6-2.9-2.5
		c2.5,0.9,5.1,1.9,7.6,3c-0.7,0.3-1.3,0.5-2,0.7C408.2,459.6,407.3,459.2,406.4,458.8z M410.5,457.6L410.5,457.6
		c0.5-0.2,0.7-0.9,0.1-1.1c-1.8-0.5-3.1-1.4-4.2-2.5c-0.1-0.1-0.2-0.3-0.3-0.4c0,0-0.1-0.1-0.1-0.2c0,0,0,0,0-0.1
		c0.2-0.3,0.5-0.6,0.8-0.8c0.7-0.6,1.4-1.1,2.2-1.4c0.3-0.1,0.5-0.4,0.3-0.8c-0.1-0.3-0.2-0.6-0.1-0.9c2.6-1.1,6-0.1,7.4,2.4
		c0.1,0.2,0.5,0.3,0.7,0.2c-0.2,0.6-0.5,1.1-0.7,1.7c-0.4,1.1-0.8,2.2-1.2,3.3C414,458,412.2,458.3,410.5,457.6z M414.2,460.4
		c-0.5,1.4-1,2.8-1.5,4.2c0-0.4-0.2-0.7-0.5-1.1c-0.1-0.1-0.2-0.2-0.3-0.3c0,0,0-0.1,0-0.2c0-0.2,0.1-0.5,0.3-0.7
		C412.7,461.6,413.5,461,414.2,460.4z M428.5,446.2C428.5,446.2,428.6,446.2,428.5,446.2C428.6,446.2,428.5,446.3,428.5,446.2
		C428.5,446.3,428.5,446.2,428.5,446.2z M393.7,406.6c1.2-0.1,2.4-0.2,3.7-0.2c-0.6,0.3-1.2,0.5-1.7,0.8c0,0,0,0-0.1,0
		c-0.7-0.2-1.4-0.3-2.2-0.3C393.5,406.8,393.6,406.7,393.7,406.6z M392.2,407.7c0.2,0,0.4,0,0.7,0c-0.4,0.1-0.7,0.2-1.1,0.3
		C392,407.9,392.1,407.8,392.2,407.7z M392.3,413.1c0.1-0.4,0.1-0.9,0.2-1.3c0.3-0.5,0.6-1,1-1.4c0.2-0.2,0.2-0.5,0.1-0.7
		c0.6-0.4,1.3-0.7,1.9-1c-0.7,1.3-1,2.8-1.2,4.3c-0.6,1.6-1.3,3.2-2.1,4.8c-0.1-0.7-0.3-1.3-0.4-2C392,414.8,392.2,414,392.3,413.1z
		 M395.4,413.3c0.6-1.7,1.2-3.4,1.7-5.2c0-0.1,0-0.1,0-0.2c1.2-0.5,2.3-1,3.5-1.5c-0.7,1.1-1.7,2.1-2.1,3.4v0.1
		c-0.9,1.4-2,2.7-3.2,3.9C395.3,413.6,395.3,413.4,395.4,413.3z M399.4,410.5c0.9-1.2,1.6-2.6,2.3-3.9c0.1-0.2,0.3-0.5,0.4-0.7
		c0-0.1,0-0.2,0-0.2c0.6-0.3,1.1-0.5,1.7-0.9c-0.2,0.7-0.4,1.6-0.6,2.4c-0.9,2.2-2.3,4.1-4,5.8C399.2,412.2,399.2,411.3,399.4,410.5
		z M402.6,404c-0.5,0.2-1,0.5-1.4,0.7c-0.4,0.2-0.9,0.4-1.3,0.6c-0.1-0.2-0.3-0.3-0.5-0.3c-1.1,0-2.2,0-3.3,0c0.4-0.3,0.7-0.5,1-0.8
		c0.3,0,0.6,0,0.9,0c0.3,0.1,0.7,0.1,1.1,0.1h0.1l0.6-0.1C400.8,404,401.7,404,402.6,404z M404.4,407.5c0.5-1.2,0.9-2.5,1.2-3.8
		c0.5-0.3,1-0.7,1.5-1.1c0.1-0.1,0.2-0.1,0.2-0.2l0.3-0.1c-0.2,0.9-0.3,1.8-0.4,2.7c-0.2,0.9-0.5,1.7-0.9,2.5
		c-0.7,1.3-1.5,2.6-2.3,3.8C404,410,404.2,408.8,404.4,407.5z M408.3,405.2c0.2-1,0.4-2.1,0.6-3.1l1.1-0.2c0.1,1.3,0,2.7-0.2,4
		c0,0-0.1,0-0.1,0.1c-0.5,0.5-0.9,0.9-1.4,1.4C408.3,406.6,408.3,405.9,408.3,405.2z M397.3,432.8
		C397.2,432.8,397.2,432.8,397.3,432.8C397.2,432.8,397.2,432.8,397.3,432.8C397.3,432.8,397.3,432.8,397.3,432.8z M398.7,426.8
		c-0.5,0.7-0.9,1.5-1.2,2.3c-0.2,0.4-0.3,0.8-0.5,1.2c-0.4,0.4-0.8,0.8-1.3,1.1c-0.2,0.1-0.3,0.4-0.2,0.7c-0.7,0.2-1.4,0.3-2.1,0.5
		c1-1.1,1.7-2.4,2.3-3.8c0.9-1.4,2-2.7,3.2-4C398.9,425.5,398.8,426.2,398.7,426.8z M394.6,428.2c-1.1,1.5-2.1,3-3.1,4.5
		c0,0.1-0.1,0.1-0.1,0.2c-1.3,0.2-2.5,0.3-3.8,0.5c1-0.9,2.2-1.6,3-2.8l0.1-0.1c1.3-1,2.6-2,4.1-2.8
		C394.7,427.9,394.7,428,394.6,428.2z M389.8,429.7c-1.2,1-2.3,2-3.3,3.1c-0.2,0.2-0.4,0.4-0.5,0.6c-0.1,0.1-0.1,0.1-0.1,0.2
		c-0.6,0.1-1.3,0.2-1.9,0.4c0.5-0.7,0.9-1.4,1.3-2.2c1.5-1.8,3.3-3.4,5.4-4.5C390.4,428.1,390.2,428.9,389.8,429.7z M384.4,431.1
		c-0.8,1-1.6,2.1-2.2,3.3c-0.6,0.2-1.2,0.4-1.7,0.6c-0.2,0.1-0.4,0.2-0.7,0.3c0.5-0.8,0.8-1.7,1.2-2.6c0.3-0.6,0.9-1.3,1.5-2
		c1-1.1,2.2-2,3.3-3.1C385.4,428.8,384.9,430,384.4,431.1z M379.8,432.3c-0.7,1.1-1.2,2.3-1.7,3.5c-0.1,0.2-0.1,0.3,0,0.4
		c-0.3,0.2-0.6,0.4-0.9,0.6c0-0.1-0.1-0.2-0.2-0.3c0-0.1-0.1-0.2-0.1-0.3c0,0,0,0,0,0c0.2,0,0.3-0.2,0.4-0.4c0.5-3,1.7-5.8,3.5-8.2
		C380.7,429.2,380.4,430.8,379.8,432.3z M375.1,432.1c-0.3-0.8-0.5-1.5-0.8-2.3c0.2,0,0.4,0.1,0.6,0.2c0.4,0.2,0.8,0.7,0.7,1.2
		C375.6,431.5,375.3,431.8,375.1,432.1z M377.7,437.8c0.5-0.3,0.9-0.6,1.5-0.8c1,0.2,1.9,0.5,2.9,0.7c1.2,0.5,2.3,1.2,3.4,1.9
		c-2.6-0.3-5.1-0.7-7.6-1.3C377.8,438.1,377.8,438,377.7,437.8z M382.8,442.6c0.1,0.1,0.3,0.2,0.4,0.3c0,0,0.1,0.1,0.2,0.2v0.1
		c-0.2,0.3-0.4,0.7-0.7,1c-0.1,0.2-0.2,0.3-0.4,0.5c-0.9-1.1-1.8-2.2-2.6-3.4C380.9,441.5,381.9,441.9,382.8,442.6z M387,463
		c0.8-0.5,1.7-0.8,2.7-1c-0.1,0.1-0.2,0.2-0.3,0.3c-0.8,0.6-1.4,1.3-2,2.2c-0.2,0.4-0.4,0.8-0.6,1.2c-0.9,1-2,1.9-3.2,2.6
		C384.6,466.5,385.7,464.8,387,463z M388,466.3c0.6-0.6,1.2-1.3,1.6-2c0.2-0.4,0.5-0.8,0.8-1.1c0.5-0.3,1-0.6,1.5-0.8
		c0.2-0.1,0.4-0.4,0.4-0.6c0.7,0,1.5,0,2.2,0c-1.2,0.9-2.2,2-3,3.3c-1.4,1-2.8,2.1-4.1,3.1C387.6,467.5,387.7,466.9,388,466.3z
		 M392.3,465.8c1.4-1.2,2.7-2.5,3.9-3.8c0.1-0.1,0.1-0.1,0.1-0.2c1.3,0.1,2.6,0.2,3.8,0.2c-1.2,0.7-2.5,1.2-3.5,2.1l-0.1,0.1
		c-1.4,0.8-3,1.4-4.5,2C392.1,466.1,392.2,465.9,392.3,465.8z M397.3,465.1c1.3-0.7,2.6-1.5,3.9-2.4c0.2-0.1,0.4-0.3,0.6-0.5
		c0.1-0.1,0.1-0.1,0.1-0.2c0.6,0,1.3,0,1.9,0c-0.6,0.6-1.2,1.2-1.7,1.9c-1.9,1.6-4,2.7-6.2,3.4C396.3,466.6,396.7,465.8,397.3,465.1
		z M402.9,464.8c1-0.8,2-1.8,2.8-2.8c0.6-0.1,1.2-0.2,1.8-0.3c0.2,0,0.5-0.1,0.7-0.2c-0.6,0.7-1.2,1.5-1.7,2.3
		c-0.5,0.7-1.2,1.3-1.9,1.8c-1.2,0.9-2.5,1.6-3.8,2.4C401.4,466.9,402.1,465.8,402.9,464.8z M407.6,464.6c0.9-1,1.6-2,2.4-3.1
		c0.1-0.1,0.1-0.3,0.1-0.4c0.8-0.3,1.6-0.6,2.3-0.9c-0.4,0.4-0.8,0.8-1.2,1.2c-0.2,0-0.4,0.1-0.4,0.3c-1.1,2.7-2.9,5.3-5.1,7.3
		C406.1,467.4,406.7,465.9,407.6,464.6z M417.2,488.4c-0.1-0.1-0.2-0.2-0.4-0.3c-0.6-0.6-1.2-1.1-1.9-1.5c0.1-0.5,0.2-1.1,0.4-1.6
		C416.2,485.9,416.8,487.1,417.2,488.4z M421.9,509.4c-0.3-0.6-0.6-1.3-0.9-2c0.3-0.9,0.7-1.9,1-2.8c0.6-1.1,1.4-2.2,2.2-3.1
		C423.6,504.2,422.8,506.8,421.9,509.4z M420.8,504.2c-0.2,0.5-0.4,0.8-0.5,1.2c-0.2-0.6-0.3-1.2-0.4-1.8c0.1-0.1,0.1-0.1,0.1-0.2
		c0.6-1.3,1.3-2.6,1.9-3.9c0.2-0.3,0.3-0.6,0.5-0.9C422,500.5,421.4,502.4,420.8,504.2z M421.6,495.7c-0.7,1.9-1.4,3.8-2.1,5.7
		c0-0.5-0.1-1.1-0.1-1.6s0-1,0-1.5c0.2,0,0.4-0.1,0.5-0.4c0.8-2.3,1.8-4.5,3.1-6.5c-0.1,0.2-0.1,0.5-0.2,0.7
		C422.4,493.3,422,494.5,421.6,495.7z M420.7,491.3c-0.5,1.4-0.9,2.9-1.4,4.3c0-0.6-0.1-1.3-0.1-1.9c0.8-1,1.3-2.1,1.8-3.3
		C420.9,490.7,420.8,491,420.7,491.3z M418.6,489.1c-0.1-0.4-0.2-0.8-0.3-1.2c0.1,0,0.1-0.1,0.2-0.2c0.6-1.2,1-2.5,1.2-3.9
		c-0.1,0.8-0.3,1.7-0.5,2.5C419,487.2,418.8,488.2,418.6,489.1z M418.5,502.4c-0.3-0.3-0.6-0.5-0.9-0.8c-0.5-1.2-1-2.4-1.6-3.7
		c0.5,0.6,1,1.2,1.6,1.8c0.2,0.2,0.3,0.4,0.5,0.6c0.1,0.1,0.1,0.1,0.2,0.1C418.3,501.1,418.4,501.8,418.5,502.4z M415.9,495.4
		L415.9,495.4c-0.9-1.1-1.5-2.2-2.1-3.4c0-0.2,0.1-0.4,0.1-0.6c1.3,1.2,2.6,2.3,4.1,3.4c0.1,0,0.1,0.1,0.2,0.1
		c0.1,1.3,0.1,2.6,0.1,3.8C417.5,497.6,416.9,496.4,415.9,495.4z M414.5,490.2c-0.1-0.1-0.2-0.2-0.3-0.3c0.1-0.6,0.2-1.2,0.4-1.8
		c0.1,0.1,0.3,0.2,0.4,0.2c0.4,0.2,0.8,0.4,1.2,0.6c0.4,0.4,0.7,0.9,1,1.4c0.1,0.2,0.4,0.3,0.6,0.3c0.1,0.7,0.2,1.5,0.2,2.2
		C417,491.8,415.8,490.9,414.5,490.2z M428.9,449.3c-0.1,0-0.1,0-0.2,0c0.2-0.5-0.2-1-0.7-0.8c-0.2,0.1-0.4,0.1-0.5,0.2
		c0.1-0.2,0.2-0.4,0.3-0.6c0.8-0.6,1.7-1.2,2.7-1.5c0.7,0.1,1.5,0.2,2.2,0.4c-0.1,0.1-0.3,0.3-0.4,0.4c-0.9,0.9-2,1.6-3.2,1.9
		C429,449.2,428.9,449.3,428.9,449.3z M433.8,434.1C433.8,434.1,433.8,434,433.8,434.1c0.3,0.2,0.5,0.1,0.7-0.1
		c0.4-0.5,0.7-0.9,0.9-1.5c0,1,0.2,1.9,0.6,2.8c0.1,0.3,0.5,0.5,0.8,0.4c0.3-0.1,0.5-0.5,0.4-0.8c-0.5-1.2-0.6-2.5-0.5-3.7
		c0.4,0.7,1,1.4,1.7,1.9c0.2,0.2,0.5,0.4,0.7,0.5c0,0,0,0,0,0.1c0.1,1.2,0,2.4-0.5,3.4c-0.2,0.4-0.5,0.8-0.8,1.1
		c-0.1,0.1-0.2,0.2-0.3,0.2c-0.1,0-0.1,0.1-0.2,0.1c-0.2-0.1-0.3-0.3-0.4-0.4c-0.7-0.7-1.4-1.4-2-2.1c-0.3-0.4-0.6-0.8-0.8-1.2
		C434,434.6,433.9,434.4,433.8,434.1L433.8,434.1z M456.7,399.2c0,0,0,0,0.1,0L456.7,399.2C456.7,399.3,456.7,399.2,456.7,399.2z
		 M468.3,373.6c-0.1,0.2-0.3,0.4-0.4,0.6c0.1-0.1,0.1-0.3,0.2-0.4C468.1,373.7,468.2,373.7,468.3,373.6z M468.5,386
		C468.5,386,468.5,386,468.5,386c0-0.1,0-0.2,0.1-0.2C468.6,385.9,468.6,385.9,468.5,386z M468.1,402c-0.1,0-0.3,0-0.4,0
		c-0.1,0-0.2,0-0.2,0c0,0,0,0-0.1,0c0.2-0.2,0.4-0.3,0.6-0.5C468,401.7,468,401.9,468.1,402z M457.7,398.4c-0.5-1.2-1.3-2.8-0.4-4
		c0.3-0.4,0.8-0.6,1.3-0.5c0.5,0.1,0.8,0.7,1.3,0.9c0.5,0.3,1,0.1,1.5-0.3c0.1,0.4,0.2,0.8,0.3,1.2c-0.5,0.4-1.1,0.8-1.6,1.2
		l-2.4,1.7C457.7,398.5,457.7,398.5,457.7,398.4z M458.4,389c0.3,0.1,0.7,0.3,1,0.4c0.4,0.8,0.7,1.5,1,2.3c-0.8-0.5-1.6-1-2.3-1.6
		C458.3,389.8,458.4,389.4,458.4,389z M466.3,384.7c-0.1-0.1-0.2-0.1-0.3-0.2c0.2-0.3,0.3-0.5,0.5-0.8c0.2-0.3,0.4-0.6,0.5-0.9
		C466.8,383.4,466.6,384.1,466.3,384.7z M466.4,379.9c-0.6,1.3-1.1,2.5-1.7,3.8c-0.2-0.1-0.4-0.3-0.6-0.4c0-0.4,0.1-0.7,0.1-1
		c0.2,0,0.4-0.1,0.5-0.3c1-2.2,2.2-4.3,3.6-6.3c-0.1,0.2-0.2,0.5-0.3,0.7C467.4,377.6,466.9,378.8,466.4,379.9z M466.1,375.1
		c0,0.1-0.1,0.2-0.2,0.3c-0.6,1.4-1.1,2.8-1.7,4.2c0.1-0.6,0.1-1.3,0.1-1.9c0.6-0.8,1.1-1.6,1.6-2.5
		C466,375.2,466,375.1,466.1,375.1z M463,378.5c0.1,0.1,0.1,0.1,0.2,0.1c0,1.3-0.1,2.6-0.2,3.8c-0.7-1.1-1.2-2.3-2.1-3.3
		c0,0,0.1-0.1,0.1-0.1c0.4-0.4,0.9-0.8,1.3-1.1C462.5,378.1,462.8,378.3,463,378.5z M459.5,380.4c0.1-0.1,0.1-0.1,0.2-0.2
		c0.1-0.1,0.2-0.2,0.3-0.3c0.3,0.5,0.6,1.1,1,1.6c-0.4-0.1-0.9-0.2-1.5-0.1C459.5,381,459.5,380.7,459.5,380.4z M457.9,391.2
		c0-0.1,0-0.1,0-0.2c0.9,0.7,2,1.4,3,1.9c0,0.1,0.1,0.2,0.1,0.3c-0.1,0.1-0.2,0.1-0.2,0.1c-0.2,0-0.4-0.3-0.5-0.4
		c-0.8-0.8-2-0.8-2.9-0.3C457.6,392.2,457.8,391.7,457.9,391.2z M486.9,382c0.1-1.3,0.6-2.5,1.3-3.5c0.1-0.1,0.1-0.2,0.1-0.3
		c0.1,0,0.1-0.1,0.2-0.1c0.2,0.5,0.8,0.6,1.1,0.1c0.3-0.4,0.5-0.8,0.8-1.3c-0.3,1.9-0.9,3.8-2.2,5.3c-0.2,0.3-0.3,0.6,0,0.8
		c0.2,0.2,0.6,0.3,0.8,0c1.1-1.4,1.8-3,2.3-4.7c0.2,0.4,0.4,0.7,0.7,1c0.3,0.2,0.7,0.6,1.1,0.5c0.1,0,0.2-0.1,0.3-0.1
		c0,0.5-0.2,1-0.5,1.4c-0.4,0.7-1,1.3-1.5,1.9c-0.6,0.6-1.2,1.1-1.9,1.5c-0.4,0.2-0.7,0.4-1.1,0.6c-0.2,0.1-0.4,0.2-0.5,0.2
		c-0.1,0-0.2,0.1-0.3,0.1c0-0.1-0.1-0.2-0.1-0.2c-0.1-0.1-0.1-0.3-0.1-0.4c-0.1-0.3-0.2-0.6-0.2-0.9
		C486.8,383.3,486.8,382.6,486.9,382z M480.8,367.7c-0.4,1.2-0.7,2.4-0.9,3.7c-0.5-0.2-0.9-0.5-1.2-1l0.5-0.3
		c0.5-0.3,0.3-0.9-0.1-1.1c-0.3-0.1-0.5-0.2-0.7-0.4c0.6-0.2,1.2-0.5,1.8-0.7C480.4,367.8,480.6,367.7,480.8,367.7z M476.7,369.3
		c0.2-0.1,0.5-0.2,0.7-0.3c0.1,0.1,0.2,0.2,0.4,0.3c-0.3,0.1-0.4,0.5-0.3,0.7c0.4,1,1.2,1.8,2.2,2.2c0,0.1-0.1,0.3-0.1,0.4
		c-0.6,3.1-1,6.2-1.2,9.3s-0.4,6.1-0.4,9.2c0,0.3,0,0.6,0,0.8c0,0,0,0,0,0c-0.4-0.3-0.8-0.5-1.2-0.8c-0.1-0.4-0.3-0.7-0.6-0.9
		c-0.3-0.1-0.5-0.1-0.8-0.1c-0.4-0.2-0.7-0.5-1.1-0.7c-0.3-0.5-0.6-0.9-1-1.3c-0.3-0.4-0.7-0.8-1.1-1c-0.5-0.3-0.9-0.1-1.3,0.1
		c-0.4-0.2-0.7-0.4-1.1-0.7c0.3-0.9,0.6-1.8,0.8-2.7c0.1-0.5-0.6-0.9-0.9-0.6c-0.7,0.6-1.4,1.3-2,1.9c0.6-1.7,1.2-3.5,1.6-5.3
		c0.1-0.5-0.4-0.8-0.8-0.6c-0.2,0.1-0.3,0.1-0.4,0.2c0.4-1,0.8-1.9,1.2-2.9c0.4-1.1,0.8-2.3,0.9-3.5c0-0.2-0.1-0.4-0.2-0.5
		c0,0,0.1,0,0.1-0.1C472.2,371.4,474.4,370.3,476.7,369.3z M455.4,397.4c0.3-0.5,0.5-1,0.7-1.4c0.1,0.6,0.3,1.2,0.5,1.8
		c-0.3,0.1-0.6,0.1-0.9,0.2c-0.5,0.1-0.7,0.5-0.4,1c0.2,0.3,0.4,0.6,0.6,0.9l-2,1.4c-0.2,0.1-0.4,0.2-0.6,0.3
		c-0.3,0.1-0.5,0.3-0.8,0.4C453.5,400.4,454.4,399,455.4,397.4z M439.1,408.1c0.2-0.3,0.4-0.7,0.6-1
		C439.6,407.5,439.4,407.8,439.1,408.1z M428.8,379.6c1.5-0.3,3.1-0.5,4.7-0.7c-0.6,1.9-1.2,3.9-1.5,5.8c-0.4,2.3-0.8,4.6-1,6.9
		c-0.6-0.9-1.6-1.6-2.7-1.8c-0.7-0.7-1.6-1.1-2.5-1.3c-0.6-0.1-1.1-0.1-1.7,0c0.5-0.5,0.9-1,1.3-1.5c0.5-0.8,1.1-1.7,0.8-2.7
		c-0.2-0.7-0.8-1.1-1.3-1.5c0.1-0.1,0.2-0.3,0.2-0.4c0.2-0.3-0.1-0.8-0.4-0.9c-0.7-0.2-1.4-0.3-2.2-0.2c0,0,0-0.1,0.1-0.1
		C424.5,380.5,426.6,380,428.8,379.6z M415.5,387c0.2,0.1,0.3,0.1,0.5,0c0.1,0,0.2-0.1,0.3-0.2c1-1.2,2-2.4,3.1-3.5
		c0.2,0.2,0.5,0.3,0.7,0.1c1.1-0.7,2.3-1,3.6-0.8c0,0.1-0.1,0.1-0.1,0.2c-0.2,0.3,0,0.7,0.3,0.8c0.5,0.3,1.2,0.6,1.3,1.2
		c0.1,0.4-0.2,0.7-0.3,1c-0.2,0.4-0.4,0.7-0.7,1c-1,1.3-2.3,2.4-3.9,3c-0.7,0.3-0.4,1.4,0.4,1.1c1.5-0.6,3.1-1.3,4.7-1.2
		c0.3,0,0.6,0.1,0.9,0.2l-8.5,3c0-0.2-0.1-0.5-0.2-0.7c-0.1-0.2-0.2-0.3-0.4-0.4c0.3-0.4,0.6-0.9,0.6-1.4c0.1-0.7-0.6-1.3-1.2-0.9
		c-0.1,0.1-0.2,0.2-0.4,0.3c-0.1-0.2-0.1-0.4-0.2-0.6c-0.3-0.5-0.8-1.2-1.4-1.2L415.5,387z M413.4,389.4c0,0.1,0,0.3,0,0.4
		c0,0.1,0.1,0.3,0.1,0.4h-0.1c-0.3,0-0.7,0.1-0.9,0.4c-0.2,0.4,0,0.7,0.2,1c0.2,0.2,0.3,0.3,0.5,0.4c-0.4,0.3-0.8,0.7-1.1,1.2
		c-0.1,0.5,0.4,1.1,0.9,0.9c0.6-0.2,1.3-0.4,1.9-0.7c0.3-0.1,0.5-0.2,0.7-0.4c0,0.1,0.1,0.3,0.2,0.3c0,0.1,0.1,0.1,0.1,0.2
		c0,0,0,0,0,0l-2.9,1c-0.3-0.2-0.8-0.1-0.9,0.2c0,0.1-0.1,0.1-0.1,0.2l-4.8,1.6c-0.3,0-0.5,0.1-0.8,0.1l3.6-3.8
		C411.2,391.7,412.3,390.6,413.4,389.4z M372.2,418.6c3.5-1.5,7-3.1,10.3-4.9c1.1-0.6,2.3-1.3,3.4-2c0.6-0.1,1.2-0.3,1.8-0.3
		c-1,0.7-2,1.6-2.7,2.7c-0.6,0.9-1.1,1.8-1.5,2.9c-0.3,1-0.8,2.3,0,3.1c0.2,0.2,0.7,0.2,0.8,0c1-1.3,2-2.6,2.9-3.9
		c0.1,1.7,0.2,3.3,0.4,5c0,0.5,0.7,0.8,1,0.4c0.9-1.1,1.7-2.4,2.2-3.7c0.1,0.6,0.2,1.2,0.3,1.7c0,0.6,0.8,0.8,1.1,0.2
		c0.7-1.3,1.3-2.6,1.9-4c0.2,0.1,0.5,0.1,0.7-0.1c1.1-1.1,2.2-2.2,3.2-3.4c0,0.7,0,1.4-0.4,2.1c-0.2,0.5,0.4,1.2,0.9,0.8
		c1.6-1.3,3-2.9,4.1-4.6c-0.1,1,0,2,0,3c0,0.6,0.9,0.8,1.1,0.2c1-1.9,2.3-3.7,3.3-5.6c0,0.2,0,0.4,0.1,0.6c-3.2,4.1-5.5,9.2-7.2,14
		c-0.2-0.2-0.6-0.2-0.8,0.1c-1,1.1-2,2.2-2.9,3.3c-0.2-0.2-0.4-0.2-0.7-0.1c-1.4,0.7-2.7,1.5-4,2.4c0.2-0.7,0.4-1.4,0.9-1.9
		c0.4-0.4,0-1.2-0.6-1c-1.9,0.8-3.7,2-5.3,3.3c0.3-0.9,0.6-1.9,0.8-2.9c0.1-0.6-0.6-1-1-0.5c-1.5,1.6-3.2,2.9-4.7,4.5
		c0.2-1.3,0.3-2.6,0.3-3.9c0-0.5-0.7-0.8-1-0.4c-2,2.2-3.5,4.9-4.4,7.8c-0.2-0.1-0.4-0.3-0.4-0.4c0-0.2,0.2-0.4,0.3-0.6
		c0.8-1.2,0.3-2.8-1-3.4c-0.5-0.2-0.9-0.3-1.4-0.3c-0.2-0.6-0.4-1.3-0.5-2c-0.4-1.7-0.7-3.4-1-5.1c-0.1-0.9-0.2-1.7-0.3-2.6
		C372.2,418.9,372.2,418.8,372.2,418.6z M378.9,486.4c0.2,0.5,0.5,1,0.9,1.5c-0.9-0.4-1.8-0.7-2.8-0.8c-0.3,0-0.6,0.2-0.7,0.5
		c0,0.3,0.2,0.6,0.5,0.7c1.3,0.1,2.5,0.6,3.5,1.3c-0.8,0-1.7,0.2-2.5,0.5c-0.3,0.1-0.5,0.2-0.8,0.4c0,0,0,0-0.1,0
		c-1-0.3-1.8-0.9-2.5-1.6c0.3-0.9,0.5-1.8,0.8-2.7c0.5-0.1,1.1-0.3,1.5-0.3c0.5-0.1,1-0.1,1.4-0.1c0.2,0,0.5,0,0.7,0.1h0.1
		C378.8,485.9,378.7,486.2,378.9,486.4z M384,489.9c-0.4-0.4-0.9-0.6-1.4-0.9c-0.7-0.5-1.3-1.1-1.8-1.8c0.1,0,0.1,0,0.2,0
		c0.5,0,0.7-0.7,0.3-1.1c-0.3-0.3-0.3-0.8-0.3-1.2c0-0.6,0-1.2,0-1.8c0-0.7-0.1-2.5,1-2.5c0.5,0,1.1,0.2,1.5,0.3
		c0.6,0.2,1.1,0.4,1.6,0.6s1.1,0.5,1.6,0.7c0.4,0.2,0.6,0.2,0.9,0c0.2-0.1,0.4-0.2,0.7-0.3c0.7,0.6,0.7,1.7,0.5,2.5
		c-0.3,1.2-0.9,2.2-1.1,3.4c0,0.1,0,0.1,0,0.2c0,0.3,0.2,0.5,0.4,0.6c0.2,0.1,0.3,0.1,0.5,0c0.1-0.1,0.2-0.1,0.2-0.3
		c0.9-1.3,1.9-2.5,2.8-3.7c0.2,0.2,0.5,0.2,0.7,0c1-0.8,2.2-1.1,3.5-1.1c0,0.1-0.1,0.1-0.1,0.2c-0.2,0.3,0,0.7,0.3,0.8
		c0.5,0.2,1.2,0.5,1.4,1.1c0.1,0.3-0.1,0.7-0.2,1c-0.2,0.4-0.4,0.7-0.6,1c-0.9,1.4-2.2,2.5-3.6,3.2c-0.7,0.3-0.3,1.4,0.4,1.1
		c1.4-0.7,3-1.5,4.6-1.5c1.1,0,2.5,0.6,3,1.7c-0.2,0.1-0.3,0.1-0.5,0.2c-0.5,0.2-0.4,0.9,0,1.1c1.3,0.9,1.9,2.8,1.5,4.4
		c0,0,0,0,0,0.1l-1.5-0.6c-0.6-0.2-1,0.4-0.7,0.9c0.2,0.3,0,0.7-0.3,0.9c-0.4,0.3-1,0.3-1.5,0.2c-1.2-0.2-2.4-0.7-3.4-1.4
		c-0.5-1.1-1.2-2.1-2.3-2.6c-0.3-0.2-0.7,0-0.8,0.3c-0.1,0.3,0,0.6,0.3,0.8c0.7,0.4,1.3,1,1.6,1.8c0,0.2,0,0.4,0.2,0.5
		c0.2,0.7,0.3,1.5,0.3,2.3c-0.1,1.8-0.9,3.4-1.7,4.9c-0.2-0.2-0.4-0.4-0.5-0.6c-0.2-0.3-0.7-0.4-0.9,0c-0.7,1-1.8,2.6-3.3,2.4
		c-0.5-0.1-1-0.4-1.1-0.9c-0.1-0.5,0.2-1,0.2-1.6c-0.1-0.7-0.6-1-1.2-1.2c-0.1,0-0.3-0.1-0.4-0.1c0,0,0-0.1-0.1-0.2
		c-0.1-0.2-0.1-0.5-0.1-0.7c0-1,0.4-1.9,0.7-2.8c0.4-1.2,0.7-2.3,0.4-3.6c-0.1-0.5-0.9-0.5-1.1,0c-0.6,1.7-2.2,2.9-3.9,3.2
		c0,0,0-0.1,0.1-0.1c0.2-0.4,0-1.1-0.5-1c-1.5,0.4-3.1,0.4-4.6,0c-0.2,0-0.3-0.1-0.5-0.2c-0.1,0-0.2,0-0.2-0.1v-0.1
		c0-0.4,0.2-0.8,0.3-1.1c0.3-0.8,0.6-1.6,1.1-2.3c0.2-0.3,0.2-0.6-0.1-0.8c-0.2-0.2-0.4-0.4-0.6-0.7c1.7-2.3,5-3.2,7.6-1.8
		c0.2,0.1,0.5,0,0.7-0.2C384.6,490.9,384.4,490.3,384,489.9z M394.7,476.5c0,0.3,0.1,0.6,0.1,0.9c0,0.6-0.1,1.3-0.2,1.9
		c-0.3,1.2-0.9,2.4-1.8,3.3c-0.1,0.1-0.1,0.2-0.1,0.2c-0.1,0-0.1,0.1-0.2,0.1c-0.1-0.5-0.7-0.7-1-0.3c-0.3,0.4-0.6,0.8-0.9,1.2
		c0.6-1.9,1.5-3.6,2.9-5c0.2-0.2,0.3-0.6,0.1-0.8c-0.2-0.2-0.6-0.4-0.8-0.1c-1.3,1.2-2.2,2.7-2.9,4.4c-0.1-0.4-0.3-0.7-0.6-1
		c-0.2-0.3-0.6-0.6-1-0.7c-0.1,0-0.2,0-0.3,0.1c-0.1-0.5,0.2-1,0.5-1.4c0.5-0.6,1.1-1.2,1.8-1.6c0.7-0.5,1.4-0.9,2.1-1.2
		c0.4-0.2,0.8-0.3,1.2-0.4c0.2-0.1,0.4-0.1,0.6-0.1c0.1,0,0.2-0.1,0.4-0.1c0,0.1,0,0.2,0,0.2C394.6,476.2,394.7,476.4,394.7,476.5z
		 M399.4,502.6c-0.3,0.6-0.7,1.3-1.1,2c-1.2-1.3-1.8-3-2.3-4.7c0.6,0.2,1.2,0.4,1.8,0.5c0,0.1,0.1,0.3,0.2,0.4
		C398.5,501.4,399,501.9,399.4,502.6z M398.6,500.7c0.6-0.1,1.1-0.4,1.4-0.9c0.2-0.3,0.3-0.5,0.3-0.8c0.3,0.1,0.6,0.2,0.9,0.3
		c-0.5,0.9-1,1.8-1.5,2.7C399.4,501.6,399,501.1,398.6,500.7z M397.8,505.7c-0.2,0.4-0.4,0.8-0.6,1.2c-0.6-0.4-1.2-0.7-1.6-1.3
		c-0.4-0.6-0.4-1.4-0.8-2c0-0.1-0.1-0.1-0.1-0.1c0.3-0.7,0.4-1.5,0.5-2.3C395.7,502.8,396.5,504.5,397.8,505.7z M382.8,511.8
		c-0.4-1.6-0.7-3.2-0.7-4.8c0.2-1.3,0.3-2.6,0.4-3.9c0-0.2,0-0.3-0.1-0.4c0.5-0.6,1.1-1.3,1.5-2c-0.2,0.5-0.3,1.1-0.4,1.6
		c-0.1,0.1-0.2,0.3-0.2,0.5C383.8,505.9,383.7,509,382.8,511.8z M371.9,517.6c-0.4-0.2-0.8-0.5-1.2-0.7c0.5-0.6,0.9-1.3,1.4-1.9
		c0,0.7,0.1,1.4-0.2,2.1C371.7,517.3,371.8,517.4,371.9,517.6z M367.1,515.3c0.4-0.7,0.8-1.5,1.4-2.1c-0.2,0.8-0.3,1.6-0.4,2.5
		C367.8,515.6,367.4,515.4,367.1,515.3z M372,502.8c0.8,0.2,1.6,0.4,2.4,0.7c-0.8,0.1-1.6,0.3-2.4,0.5
		C372,503.6,372,503.2,372,502.8z M374,490.2c0.5,0.4,1.1,0.8,1.7,1.2c-0.2,0.2-0.4,0.4-0.6,0.6c-0.3,0.3-0.9,0.9-0.8,1.4
		c0,0.3,0.3,0.6,0.4,0.8c0.1,0.1,0.2,0.3,0.3,0.4c-0.5,0.8-0.8,1.5-1.1,2.4c-0.1,0.5-0.3,1-0.3,1.5s0.4,0.9,0.9,1.1
		c1.1,0.4,2.3,0.6,3.6,0.6c-2.1,0.4-4,0.8-6,1.3C372.3,498.6,372.8,494.8,374,490.2z M372.2,507.7c0,0,0-0.3-0.1-0.8
		c1.4-0.1,2.7-0.3,4-0.4c-0.5,0.3-0.9,0.5-1.4,0.8c-0.4,0.2-0.9,0.4-1.3,0.7c-0.1-0.2-0.3-0.3-0.5-0.3
		C372.7,507.7,372.4,507.7,372.2,507.7C372.2,507.7,372.2,507.7,372.2,507.7z M369.7,516.4C369.7,516.4,369.6,516.4,369.7,516.4
		c-0.1-0.2-0.1-0.3-0.1-0.4c0.4-1.5,0.9-3,1.2-4.6c0.5-0.4,0.8-0.9,1.1-1.4c0.8-0.4,1.7-0.9,2.5-1.3c-0.7,1.2-1.5,2.3-1.9,3.6
		C371.6,513.8,370.7,515.1,369.7,516.4z M373.6,512.9c0.8-1.3,1.5-2.7,2-4.1c0.1-0.2,0.2-0.5,0.3-0.7c0-0.1,0-0.2,0-0.2
		c0.6-0.3,1.1-0.6,1.6-1c-0.1,0.9-0.3,1.7-0.4,2.5c-0.8,2.2-2,4.3-3.5,6.1C373.6,514.6,373.5,513.8,373.6,512.9z M373.6,505
		c-0.3,0-0.7,0-1,0c1.9-0.4,3.8-0.8,5.8-1c0.4,0,0.8,0,1.2,0c-0.5,0.4-0.9,0.8-1.4,1.1c-0.1,0-0.2,0-0.2,0
		C376.5,505,375,505,373.6,505z M378.3,509.8c0.4-1.3,0.8-2.5,0.9-3.9c0.5-0.4,1-0.8,1.4-1.2c0.2-0.2,0.4-0.3,0.5-0.5
		c-0.2,0.9-0.2,1.8-0.2,2.8c-0.2,0.9-0.4,1.7-0.8,2.6c-0.6,1.4-1.4,2.7-2,4C378,512.3,378.1,511.1,378.3,509.8z M378.2,502.7
		c-1.3-0.1-2.6-0.3-3.8-0.7c2.7-0.6,5.4-1,8.1-1.3c-0.5,0.7-1,1.2-1.4,1.7C380.1,502.5,379.1,502.6,378.2,502.7z M385.6,529.5
		c-3.2-3.6-7.9-8.3-13.2-11.6c0.1,0,0.2,0,0.3-0.1c1.5-1.4,2.8-3.1,3.8-4.9c0,1,0.1,2,0.2,3c0.1,0.6,0.9,0.7,1.1,0.2
		c0.8-2,2-3.8,2.9-5.8c0.2,1.3,0.6,2.5,1,3.8c0.2,0.5,0.9,0.5,1.1,0c1.2-2.8,1.7-5.8,1.5-8.9c0.2,0,0.4,0.1,0.5,0.2
		c0.1,0.2-0.1,0.5-0.1,0.6c-0.3,1.4,0.7,2.7,2.1,2.9c1.7,0.2,3-1,3.9-2.2c0.2,0.2,0.4,0.5,0.6,0.7c0.3,0.4,0.8,0.3,1-0.1
		c0.4-0.7,0.8-1.5,1.1-2.2c0.1,0.4,0.2,0.8,0.5,1.2c0.4,0.7,1,1.1,1.6,1.5c0.3,0.2,0.6,0.4,0.8,0.5
		C392.8,515,388.9,522.6,385.6,529.5z M403.1,495.8c-0.1-1-0.6-2-1.3-2.7c0.2-0.1,0.4-0.4,0.4-0.6c-0.4-1.8-2.1-3-3.9-3.2
		c-0.6-0.1-1.1,0-1.7,0.1c0.4-0.5,0.8-1,1.2-1.6c0.5-0.8,1-1.8,0.6-2.8c-0.3-0.6-0.8-1.1-1.4-1.4c0.1-0.1,0.1-0.3,0.2-0.4
		c0.2-0.4-0.1-0.8-0.5-0.8c-0.7-0.1-1.5-0.2-2.2-0.1c1.2-1.9,1.7-4.2,1.2-6.4c-0.1-0.3-0.1-0.7-0.3-1c-0.3-0.4-0.7-0.4-1.1-0.3
		c-0.7,0.1-1.4,0.3-2,0.6c-1.4,0.5-2.6,1.3-3.7,2.3c-1,0.9-2,2-1.9,3.4c-1-0.5-2-0.9-3.1-1.2c-0.6-0.2-1.3-0.4-1.9-0.4
		c-0.6,0-1.1,0.3-1.5,0.7c-0.8,1-0.7,2.4-0.7,3.7c0,0.3,0,0.6,0,1c-0.4-0.1-0.9-0.2-1.3-0.2c-0.9,0-1.7,0.1-2.5,0.2
		c1.6-4.5,3.8-9.5,7-15c1.2-0.6,2.3-1.3,3.4-2.1c-0.2,0.6-0.3,1.1-0.5,1.7c-0.2,0.5,0.4,1.1,0.9,0.7c1.2-0.9,2.4-1.8,3.5-2.7
		c0.1,0.2,0.4,0.3,0.7,0.2c1.5-0.4,3-1,4.4-1.6c-0.3,0.6-0.7,1.3-1.3,1.7c-0.4,0.3-0.2,1.2,0.4,1.1c2-0.4,4-1.2,5.8-2.2
		c-0.5,0.9-0.9,1.7-1.3,2.7c-0.2,0.5,0.4,1.1,0.9,0.7c1.7-1.3,3.7-2.2,5.5-3.5c-0.5,1.2-0.8,2.5-1,3.8c-0.1,0.5,0.5,0.9,0.9,0.6
		c2.4-1.8,4.4-4.2,5.8-6.8c0.2,0.3,0.4,0.5,0.4,0.6c0,0.2-0.3,0.4-0.4,0.5c-1,1-0.8,2.7,0.3,3.6c0.1,0.1,0.1,0.1,0.2,0.1
		c-0.4,1.2-0.8,2.4-1.1,3.6c-1.7,6.1-3.3,12.3-4.4,18.6C405.3,491.8,404.4,493.5,403.1,495.8z M474.5,516.6
		c-1.7,1.4-4.6,3.4-7.7,5.5c0,0,0,0,0-0.1c-0.3-0.6-0.6-1.2-0.9-1.8c-0.1-0.2-0.3-0.5-0.5-0.6c0.1-0.1,0.2-0.1,0.3-0.3
		c0.1,0,0.1-0.1,0.2-0.1c0.2-0.2,0.5-0.3,0.7-0.5c0.3-0.2,0.6-0.4,0.6-0.8c0-0.8-0.9-0.8-1.4-0.8s-1,0.2-1.5,0.5
		c-0.2,0.1-0.3,0.3-0.3,0.5c-0.4-0.2-0.9-0.5-1.5-0.4c-0.7,0-1.2,0.7-0.7,1.4c0.1,0.1,0.2,0.2,0.3,0.3c-0.2,0.1-0.4,0.2-0.5,0.3
		c-0.6,0.4-1.2,1.1-0.9,1.8c0.3,0.6,1.1,0.8,1.8,0.7c0.1,0,0.3-0.1,0.4-0.2v0.1c0,0.3,0.2,0.7,0.6,0.8c0.4,0.1,0.7-0.1,1-0.4
		c0.1-0.2,0.2-0.4,0.3-0.6c0.3,0.3,0.7,0.6,1.1,0.8c-1,0.6-1.9,1.3-2.9,1.9c0-0.2-0.1-0.4-0.2-0.6c-0.5-0.4-1.1-0.1-1.4,0.3
		c-0.4,0.4-0.5,1-0.8,1.5c-0.2,0.2-0.3,0.4-0.5,0.7c-0.5,0.3-0.9,0.6-1.3,0.8c-0.2-0.3-0.7-0.3-1,0c-0.3,0.4-0.8,0.4-1.2,0.4
		c-0.6,0.1-1.2,0.1-1.8,0.1c-0.7,0-2.5,0.3-2.6-0.8c-0.1-0.5,0.1-1.1,0.2-1.6c0.1-0.6,0.3-1.1,0.5-1.7c0.2-0.6,0.4-1.1,0.6-1.6
		c0.2-0.4,0.1-0.6-0.1-0.9c-0.1-0.2-0.2-0.4-0.4-0.6c0.5-0.7,1.7-0.8,2.5-0.7c1.2,0.2,2.3,0.7,3.4,0.9c0.1,0,0.1,0,0.2,0
		c0.3,0,0.5-0.2,0.5-0.4c0.1-0.2,0-0.3-0.1-0.5c-0.1-0.1-0.2-0.2-0.3-0.2c-1.3-0.8-2.6-1.7-3.9-2.6c0.2-0.2,0.2-0.5,0-0.7
		c-0.8-1-1.3-2.2-1.3-3.4c0.1,0,0.1,0.1,0.2,0.1c0.3,0.1,0.7-0.1,0.8-0.4c0.2-0.5,0.5-1.3,1-1.5c0.3-0.1,0.7,0,1,0.2
		c0.4,0.1,0.7,0.3,1.1,0.5c1.4,0.8,2.7,2,3.5,3.4c0.4,0.7,1.5,0.2,1.1-0.5c-0.8-1.4-1.7-2.8-1.8-4.5c-0.1-1.1,0.4-2.5,1.5-3.1
		c0.1,0.2,0.2,0.3,0.2,0.5c0.2,0.5,0.9,0.4,1.1-0.1c0.7-1.5,2.6-2.3,4.2-2c-0.2,0.5-0.3,1-0.5,1.5c-0.2,0.6,0.5,1,0.9,0.6
		c0.3-0.2,0.7,0,0.9,0.2c0.4,0.4,0.4,1,0.3,1.5c-0.1,1.2-0.5,2.5-1.2,3.5c-1.1,0.5-2,1.4-2.5,2.5c-0.1,0.3,0.1,0.7,0.4,0.8
		s0.6-0.1,0.8-0.4c0.3-0.8,0.9-1.3,1.7-1.7c0.2,0,0.4,0,0.5-0.2c0.7-0.3,1.5-0.4,2.3-0.4c1.8,0,3.4,0.7,5,1.4l-0.5,0.5
		C475.5,515.8,475,516.2,474.5,516.6z M451.7,521.1c-0.5,0-1-0.3-1.4-0.5c-0.7-0.5-1.2-1-1.8-1.7c-0.5-0.6-1-1.3-1.3-2
		c-0.2-0.4-0.3-0.7-0.5-1.1c-0.1-0.2-0.1-0.4-0.2-0.6c0-0.1-0.1-0.2-0.1-0.4c0.1,0,0.2,0,0.2-0.1c0.1,0,0.3-0.1,0.4-0.1
		c0.3-0.1,0.6-0.1,0.9-0.2c0.6-0.1,1.3,0,1.9,0.1c1.3,0.2,2.4,0.7,3.4,1.5c0.1,0.1,0.2,0.1,0.2,0.1c0,0.1,0.1,0.1,0.1,0.2
		c-0.5,0.1-0.7,0.7-0.2,1.1c0.6,0.3,1,0.6,1.4,0.9c-1.9-0.4-3.7-1.2-5.2-2.5c-0.2-0.2-0.6-0.3-0.8-0.1s-0.3,0.6-0.1,0.8
		c1.3,1.2,2.9,2,4.6,2.6c-0.4,0.1-0.7,0.3-1,0.6s-0.6,0.7-0.6,1.1C451.6,520.9,451.6,521,451.7,521.1z M477.7,507.5
		c0,0.8-0.2,1.5-0.6,2.1c-0.3,0.6-0.7,1.5-1.3,1.9c-0.6,0.4-1.3,0.5-1.9,1c0.2,0.2,0.1,0.2,0.1,0.3c-0.7-0.2-1.5-0.3-2.3-0.4
		c2.1-0.9,4-2.1,5.1-4.2c0.1-0.3-0.1-0.7-0.4-0.8c-0.3-0.1-0.6,0.1-0.8,0.4c-1,2.1-3.3,3.1-5.3,3.9c0.2-0.6,0.3-1.2,0.4-1.9
		c0.1,0,0.2-0.1,0.3-0.2c0.8-1.1,1.9-2,3.1-2.7c0.6-0.3,1.2-0.6,1.9-0.8c0.5-0.1,1.1-0.3,1.6-0.3c0,0,0,0,0,0.1c0,0.2,0,0.3,0,0.5
		C477.6,506.8,477.7,507.2,477.7,507.5z M486.1,505.6c0.3,0.6,0.6,1.1,0.8,1.7l0.3,0.8c0.1,0.3,0.1,0.4,0.2,0.6c0,0-4,1.4-9.7,5.5
		c-0.8-0.3-1.4-0.7-2.2-1c0.4-0.2,0.8-0.3,1.2-0.5c0.6-0.4,1-1.1,1.4-1.7c0.3-0.6,0.7-1.2,0.9-1.9c0.2-0.7,0.2-1.4,0.1-2.1
		c0-0.3-0.1-0.6,0-0.9c0-0.3,0.1-0.6,0-0.9c-0.3-0.7-1.2-0.5-1.8-0.4c-1.3,0.2-2.5,0.6-3.6,1.2c-1.1,0.6-2,1.4-2.8,2.3
		c-0.2-0.6-0.5-1.1-1-1.4c-0.3-0.2-0.6-0.2-0.8-0.3c0.1-0.4,0.2-0.7,0.3-1.1c0.1-0.3-0.1-0.6-0.4-0.8c-2-0.8-4.3-0.1-5.6,1.5
		c0,0,0,0,0-0.1c-0.1-0.2-0.4-0.4-0.6-0.3c-1.8,0.5-2.8,2.3-2.9,4.1c0,0.6,0.1,1.1,0.2,1.7c-0.5-0.4-1.1-0.8-1.7-1
		c-0.8-0.4-1.9-0.9-2.8-0.4c-0.6,0.3-1,0.9-1.3,1.5c-0.1-0.1-0.3-0.1-0.4-0.2c-0.4-0.2-0.7,0.2-0.8,0.5c-0.1,0.7-0.1,1.5,0.1,2.2
		c-1.9-1.1-4.3-1.4-6.4-0.8c-0.3,0.1-0.7,0.2-1,0.4c-0.4,0.3-0.3,0.7-0.2,1.1c0.2,0.7,0.4,1.4,0.7,2c0.6,1.3,1.5,2.5,2.5,3.5
		c1,0.9,2.2,1.8,3.5,1.6c-0.4,1-0.8,2.1-1,3.2c-0.1,0.6-0.3,1.3-0.2,1.9c0.1,0.6,0.4,1.1,0.8,1.4c1,0.8,2.5,0.5,3.7,0.4
		c0.2,0,0.4,0,0.6,0c-4.2,2.6-8.4,5-12.7,7.4c-3.2,1.8-6.5,3.6-9.8,5.3c-1.1-3.2-2.3-6.4-3.5-9.5c-0.3-0.7-0.6-1.4-0.9-2.2
		c0.5-0.1,0.9-0.3,1.4-0.6l0.3,0.4c0.2,0.3,0.7,0.2,0.9-0.1c0.4-0.6,0.8-1.2,1-1.9c1.1,1.9,3,3.3,5.2,3.9c0.3,0.1,0.7,0.2,1,0.1
		c0.5-0.1,0.7-0.4,0.8-0.9c0.2-0.7,0.3-1.4,0.4-2.1c0.1-1.4,0-2.9-0.4-4.3c-0.4-1.3-1-2.7-2.3-3.2c0.9-0.7,1.7-1.4,2.4-2.2
		c0.4-0.5,0.9-1,1.2-1.6c0.2-0.5,0.2-1.1,0-1.6c-0.3-0.6-1.6-1.1-2.7-1.6c-0.3-0.1-0.6-0.3-0.9-0.4c0.3-0.3,0.6-0.8,0.7-1
		c0.5-0.9,0.8-1.9,1-3c0.1-0.5,0.2-1,0.2-1.5c0.1-0.5,0.3-1.2-0.1-1.7c-0.3-0.4-1.1-0.5-1.6-0.6c-0.5-0.1-1.1,0-1.6,0.1
		c-1.2,0.2-2.2,0.8-3.1,1.5c-0.1-0.3-0.2-0.5-0.3-0.8c-0.2-0.4-0.4-1.2-0.9-1.3c-0.3-0.1-0.7,0-0.9,0c-0.2,0-0.3,0.1-0.5,0.1
		c-0.5-0.7-1-1.4-1.7-2c-0.4-0.3-0.8-0.7-1.2-0.9c-0.5-0.2-1,0-1.4,0.3c-0.9,0.8-1.6,1.8-2.1,2.9c0.6-2.1,1.1-4.2,1.6-6.4
		c0.1-0.5-0.6-0.9-1-0.5c-0.6,0.7-1.3,1.4-1.9,2.1c0.5-1.8,0.9-3.6,1.2-5.4c0.1-0.5-0.5-0.7-0.9-0.6c-0.2,0.1-0.3,0.1-0.4,0.3
		c0.3-1,0.7-2,1-3c0.3-1.2,0.6-2.4,0.6-3.6c0-0.6-0.7-0.9-1.1-0.4c-0.4,0.5-0.7,1.1-1,1.6c0.2-0.7,0.5-1.5,0.7-2.2
		c0.2-1,0.2-2-0.7-2.6c-0.3-0.2-0.8-0.1-0.9,0.3c-0.5,1.7-1,3.4-1.8,5.1c0.2-1.5,0.5-3,0.8-4.4c0.5-2.3,0.8-4.8-0.8-6.8
		c-0.4-0.5-1.1,0-1,0.5c0.2,1.7,0,3.5-0.5,5.1c-0.3-1.2-0.8-2.4-1.5-3.5c-0.1-0.1-0.2-0.2-0.3-0.3c0.5-2,1.1-4,1.7-6.1
		c0.4-1.1,0.7-2.3,1.1-3.4c0.1,0.2,0.1,0.3,0.2,0.5c0.3,0.6,0.6,1.3,1.1,1.8c0.5,0.6,1,1,1.6,1.3c0.3,0.1,0.5,0.3,0.8,0.5
		c0.2,0.2,0.4,0.4,0.7,0.5c0.7,0.1,1.1-0.7,1.4-1.2c0.6-1.1,1-2.4,1.1-3.7c0.1-1.2,0-2.5-0.2-3.6c0.6,0.2,1.2,0.2,1.7,0
		c0.3-0.1,0.5-0.3,0.7-0.5c0.2,0.3,0.5,0.6,0.7,0.9s0.6,0.3,0.8,0.1c1.8-1.2,2.5-3.5,2-5.5c0,0,0,0,0.1,0c0.2,0,0.6-0.1,0.6-0.3
		c0.6-1.8-0.3-3.6-1.7-4.7c-0.5-0.3-1-0.6-1.5-0.8c0.6-0.2,1.2-0.5,1.8-0.8c0.8-0.5,1.8-1,2-2.1c0.1-0.7-0.2-1.4-0.5-2
		c0.1-0.1,0.3-0.2,0.4-0.2c0.3-0.2,0.3-0.7,0-0.9c-0.5-0.5-1.2-0.9-1.8-1.2c1.3-0.6,2.3-1.5,3.2-2.6c2,0.4,4.1,0.8,6.1,1.1
		c1.7,0.4,3.4,0.8,5.1,1c0.4,1.4,0.8,2.9,1.3,4.3c-0.2,0.1-0.4,0.2-0.4,0.6c-0.1,1.6-0.1,3.1,0,4.7c-0.5-0.5-1-1.1-1.1-1.8
		c-0.1-0.5-1.1-0.6-1.1,0c-0.3,2.1-0.3,4.2,0,6.2c-0.6-0.8-1.3-1.5-2-2.2c-0.4-0.4-1.2,0-1,0.6c0.6,2.1,0.8,4.3,1.3,6.4
		c-1-0.9-2-1.6-3.1-2.3c-0.4-0.3-1,0.2-0.9,0.7c0.8,2.9,2.3,5.6,4.3,7.9c-0.2,0.1-0.4,0.2-0.5,0.1c-0.2-0.1-0.3-0.4-0.3-0.6
		c-0.6-1.3-2.2-1.7-3.4-1c-1.5,0.9-1.7,2.6-1.7,4.2c-0.3-0.1-0.6-0.1-0.9-0.2c-0.5-0.1-0.8,0.3-0.7,0.7c0.1,0.8,0.3,1.6,0.5,2.5
		c-0.4-0.2-0.7-0.5-1.1-0.7c-0.7-0.3-1.4-0.2-2.2-0.1c-0.7,0.1-1.4,0.1-2.1,0.4c-0.7,0.2-1.3,0.6-1.8,1.1c-0.2,0.2-0.5,0.4-0.7,0.5
		c-0.3,0.1-0.6,0.2-0.7,0.5c-0.4,0.6,0.3,1.3,0.7,1.7c0.9,1,1.9,1.7,3.1,2.3c1.1,0.5,2.3,0.9,3.5,1.1c-0.4,0.4-0.6,1-0.6,1.6
		c0,0.3,0.1,0.6,0.2,0.8c-0.4,0.1-0.7,0.2-1.1,0.3c-0.3,0.1-0.5,0.4-0.4,0.7c0.5,2.1,2.4,3.6,4.4,3.8c0,0,0,0,0,0.1
		c-0.1,0.2-0.1,0.6,0.1,0.7c1.4,1.2,3.5,1,5,0.1c0.5-0.3,0.9-0.7,1.3-1.1c0,0.7,0,1.3,0.1,2c0.1,0.9,0.3,2,1.2,2.6
		c0.5,0.2,1,0.3,1.6,0.2c0,0,0,0,0,0.1c0.1,0.4,0.6,0.5,0.9,0.4c0.7-0.3,1.2-0.8,1.7-1.3c0.2,2.2,1.3,4.3,3,5.7
		c0.3,0.2,0.5,0.5,0.8,0.6c0.5,0.1,0.8-0.1,1.1-0.4c0.5-0.5,0.9-1.1,1.3-1.7c0.7-1.2,1.3-2.6,1.5-4.1c0.2-1.3,0.3-2.8-0.6-3.8
		c1.1-0.2,2.1-0.5,3.2-0.9c0.6-0.2,1.2-0.5,1.7-0.9c0.4-0.4,0.7-0.9,0.7-1.5c0-1.3-1-2.3-1.7-3.3c-0.2-0.2-0.4-0.5-0.6-0.8
		c0.4-0.2,0.9-0.4,1.1-0.6c0.9-0.6,1.6-1.4,2.2-2.2c0.3-0.4,0.6-0.8,0.9-1.3s0.8-1,0.6-1.5c-0.1-0.5-0.7-0.9-1.1-1.2
		c-0.4-0.3-1-0.5-1.5-0.6c-1.1-0.3-2.3-0.2-3.5,0c0.1-0.3,0.1-0.6,0.1-0.8c0-0.4,0.1-1.2-0.2-1.6c-0.2-0.2-0.6-0.3-0.8-0.4
		c-0.2,0-0.3-0.1-0.5-0.1c-0.1-0.9-0.3-1.7-0.6-2.5c-0.2-0.5-0.4-1-0.7-1.4c-0.4-0.4-0.9-0.5-1.4-0.3c-1.1,0.3-2.2,1-3.2,1.7
		c1.5-1.6,2.9-3.3,4.2-5c0.3-0.4-0.2-1.1-0.7-0.9c-0.9,0.3-1.7,0.7-2.6,1.1c1.2-1.4,2.4-2.8,3.5-4.3c0.3-0.4-0.1-0.9-0.5-0.9
		c-0.2,0-0.3,0-0.5,0c0.7-0.8,1.5-1.5,2.2-2.3c0.8-0.9,1.6-1.9,2.1-3c0.2-0.5-0.3-1.1-0.8-0.8s-1.1,0.6-1.6,1
		c0.5-0.6,1.1-1.1,1.6-1.7c0.6-0.8,1-1.8,0.5-2.7c-0.2-0.3-0.7-0.4-0.9-0.1c-1.2,1.3-2.4,2.6-3.8,3.8c0.8-1.2,1.7-2.4,2.7-3.6
		c1.5-1.8,2.8-4,2.3-6.5c-0.1-0.6-1-0.5-1.1,0c-0.6,1.6-1.5,3.1-2.7,4.4c0.3-1.2,0.4-2.5,0.2-3.8c-0.1-1.1-0.4-2.1-0.8-3.1
		c-0.4-0.9-1-2.2-2.1-2.3c-0.3,0-0.6,0.3-0.6,0.6c0.1,1.6,0.3,3.2,0.5,4.8c-1.2-1.2-2.4-2.3-3.7-3.5c-0.4-0.3-1.1-0.1-1,0.4
		c0,0.3,0.1,0.7,0.1,1c-0.1-0.1-0.3-0.2-0.4-0.2c-0.9-0.5-1.9-0.8-2.8-1.2c-0.6-0.3-1.2-0.6-1.9-0.8c-3.6-1.4-7.4-2.7-11.3-3.5
		c0.8-1.9,1.7-3.7,2.5-5.6c0.5,1,1.1,1.8,1.8,2.6c0.3,0.4,0.7,0.7,1.1,1.1c0.4,0.4,0.8,0.9,1.4,0.9c0.5,0,1-0.6,1.4-0.9
		c0.4-0.4,0.7-0.8,0.9-1.3c0.5-1.1,0.6-2.2,0.6-3.4c0.3,0.1,0.5,0.2,0.8,0.3c0.4,0.1,1.2,0.3,1.6,0.1c0.2-0.2,0.4-0.5,0.5-0.8
		c0.1-0.2,0.1-0.3,0.2-0.5c0.9,0,1.8,0,2.6-0.2c0.5-0.1,1-0.2,1.5-0.4c0.5-0.3,0.6-0.8,0.6-1.3c-0.1-1.2-0.6-2.3-1.2-3.4
		c1.3,1.7,2.7,3.4,4.2,5c0.3,0.4,1.1,0,1-0.5c-0.2-0.9-0.4-1.8-0.6-2.7c1.2,1.4,2.4,2.8,3.6,4.2c0.3,0.4,0.9,0,1-0.4
		c0-0.2,0.1-0.3,0-0.5c0.6,0.9,1.2,1.7,1.9,2.6c0.7,1,1.6,1.9,2.5,2.6c0.5,0.3,1.2-0.1,0.9-0.7c-0.2-0.6-0.4-1.2-0.7-1.8
		c0.5,0.6,0.9,1.3,1.4,1.8c0.7,0.7,1.5,1.3,2.6,1c0.4-0.1,0.5-0.6,0.3-0.9c-1.1-1.4-2.2-2.9-3.1-4.4c1.1,1,2.1,2.1,3.1,3.3
		c1.6,1.8,3.4,3.5,6,3.4c0.6,0,0.7-0.9,0.2-1.1c-1.5-0.9-2.8-2-3.9-3.4c1.2,0.5,2.4,0.8,3.7,0.9c1.1,0.1,2.2,0,3.2-0.3
		c1-0.2,2.4-0.6,2.7-1.6c0.1-0.3-0.2-0.7-0.5-0.7c-1.6-0.2-3.2-0.3-4.8-0.4c1.4-1,2.7-2,4.1-3c0.4-0.3,0.3-1-0.2-1.1
		c-1.4-0.2-2.9-0.1-4.3,0.1c0.4-0.4,0.8-0.8,1.3-1.2c0.5-0.4,0.2-1.1-0.4-1.1c-1.5,0.1-2.9,0.3-4.4,0.5c0-0.2-0.2-0.5-0.5-0.5
		c-1.5-0.4-3.1-0.7-4.6-0.8c0.6-0.4,1.2-0.8,2-0.8c0.5,0,0.8-0.9,0.2-1.1c-2-0.7-4.1-1-6.1-1c0.9-0.5,1.7-1,2.5-1.6
		c0.5-0.4,0.2-1.1-0.4-1.1c-2.2,0.2-4.3,0-6.5,0.2c1-0.8,2-1.7,2.8-2.7c0.3-0.4,0-1-0.5-1c-3,0.3-5.9,1.3-8.5,2.9
		c-0.1-0.2-0.1-0.4-0.1-0.6c0.1-0.2,0.5-0.2,0.6-0.2c1.4-0.4,2.1-1.9,1.6-3.2c-0.1-0.3-0.3-0.6-0.5-0.9c1.3-1,2.7-2,4-2.9l3.7-2.8
		c0,0.1,0.1,0.1,0.1,0.2c0.1,0.3,0.3,0.5,0.5,0.7c-0.3,0.2-0.6,0.5-0.9,0.7s-0.3,0.6-0.1,0.8c1.2,1.8,3.5,2.5,5.5,1.9c0,0,0,0,0,0.1
		c0,0.2,0.1,0.6,0.4,0.6c1.8,0.6,3.6-0.3,4.7-1.8c0.3-0.5,0.6-1,0.8-1.5c0.2,0.6,0.5,1.2,0.8,1.8c0.5,0.8,1.1,1.8,2.1,1.9
		c0.7,0.1,1.4-0.2,1.9-0.5c0.1,0.1,0.2,0.3,0.2,0.4c0.2,0.3,0.7,0.3,0.9,0c0.5-0.5,0.9-1.2,1.1-1.8c1,2,2.8,3.6,4.9,4.3
		c0.3,0.1,0.7,0.3,1,0.2c0.5,0,0.7-0.4,0.8-0.8c0.2-0.7,0.4-1.4,0.5-2.1c0.2-1.4,0.2-2.9-0.1-4.3c-0.3-1.3-0.8-2.7-2-3.3
		c0.9-0.6,1.8-1.3,2.6-2c0.2-0.1,0.4-0.3,0.5-0.5c1.7-0.6,2.8-2.3,2.7-4.1v-0.1c-0.1-2.8-0.1-5.7-0.1-8.6c0-1.8,0-3.7,0.2-5.5
		c0,0.1,0.1,0.2,0.1,0.2c0.3,0.4,0.7,0.3,1.2,0.2c0.7-0.2,1.3-0.5,2-0.8c1.3-0.7,2.4-1.6,3.3-2.8c0.8-1,1.7-2.3,1.4-3.6
		c1,0.4,2.1,0.6,3.2,0.8c0.6,0.1,1.3,0.2,1.9,0.1c0.6-0.1,1-0.4,1.4-0.9c0.7-1.1,0.3-2.5,0.2-3.7c0-0.3-0.1-0.6-0.1-1
		c0.5,0.1,1,0.1,1.3,0c1.1-0.1,2-0.4,3-0.8c0.5-0.2,0.9-0.4,1.4-0.6s1.1-0.5,1.3-1c0.2-0.5-0.2-1.2-0.4-1.6
		c-0.2-0.5-0.6-0.9-0.9-1.3c-0.8-0.8-1.9-1.4-3-1.8c0.2-0.2,0.4-0.4,0.5-0.7c0.2-0.4,0.7-1,0.6-1.5c-0.1-0.2-0.2-0.5-0.4-0.7
		c2.6-0.5,5.2-0.8,7.9-1.1c4.6-0.5,9.1-0.7,13.7-0.5c-3.4,4.1-6.2,10.2-8.5,16.4c-0.1-0.5-0.1-0.9,0-1.4c0.1-0.5-0.7-1-1-0.5
		c-1.2,1.7-2.2,3.6-2.9,5.5c-0.2-1-0.5-1.9-0.8-2.9c-0.2-0.5-1-0.6-1.2,0c-0.4,2.1-1.3,4.1-1.8,6.3c-0.4-1.2-1-2.4-1.7-3.5
		c-0.3-0.4-1-0.3-1.1,0.2c-0.6,3-0.6,6,0.2,9c-0.2,0-0.5,0-0.5-0.1c-0.1-0.1,0-0.5,0-0.7c0.1-1.4-1.1-2.6-2.6-2.5
		c-1.7,0.1-2.7,1.5-3.4,2.9c-0.2-0.2-0.5-0.4-0.7-0.6c-0.4-0.3-0.8-0.1-1,0.3c-0.3,0.8-0.5,1.6-0.7,2.4c-0.2-0.4-0.4-0.8-0.7-1.1
		c-0.5-0.6-1.2-0.9-1.9-1.1c-0.6-0.3-1.3-0.5-2-0.6c-0.7-0.1-1.4-0.1-2.1,0.1c-0.3,0.1-0.6,0.1-0.9,0.1s-0.6-0.1-0.9,0.1
		c-0.6,0.4-0.3,1.3-0.2,1.8c0.3,1.2,0.9,2.4,1.6,3.5c0.7,1,1.6,1.9,2.6,2.6c-0.5,0.2-1,0.6-1.2,1.2c-0.1,0.3-0.2,0.6-0.2,0.9
		c-0.4-0.1-0.8-0.1-1.1-0.2c-0.3-0.1-0.6,0.1-0.7,0.5c-0.6,2.1,0.4,4.3,2.2,5.4c0,0,0,0-0.1,0c-0.2,0.1-0.4,0.4-0.3,0.7
		c0.7,1.7,2.6,2.5,4.4,2.4c0.6-0.1,1.1-0.2,1.7-0.4c-0.3,0.6-0.6,1.2-0.8,1.8c-0.1,0.2-0.2,0.5-0.2,0.7c-1.1,0-2.2-0.1-3.4,0
		c-1.7,0-3.2,1.2-3.6,2.9c-0.2-0.1-0.4-0.3-0.7-0.4c-0.3-0.1-0.5-0.2-0.8-0.4s-0.4-0.4-0.8-0.4c-0.7-0.1-1,0.8-1.3,1.3
		c-0.5,1.2-0.8,2.5-0.8,3.8c0,1.2,0.1,2.5,0.5,3.6c-0.6-0.1-1.2-0.1-1.7,0.2c-0.3,0.2-0.5,0.3-0.7,0.6c-0.3-0.3-0.5-0.6-0.8-0.9
		c-0.2-0.2-0.6-0.3-0.8-0.1c-1.7,1.3-2.2,3.7-1.6,5.6c0,0,0,0-0.1,0c-0.2,0-0.6,0.1-0.6,0.4c-0.5,1.8,0.5,3.6,2.1,4.6
		c0.5,0.3,1,0.5,1.6,0.7c-0.6,0.3-1.2,0.6-1.8,0.9c-0.8,0.5-1.7,1.2-1.8,2.2c-0.1,0.7,0.3,1.3,0.7,1.9c-0.1,0.1-0.2,0.2-0.4,0.3
		c-0.3,0.2-0.2,0.7,0,0.9c0.6,0.4,1.2,0.8,1.9,1c-1.9,1.1-3.4,3-3.9,5.1c-0.1,0.3-0.2,0.7-0.2,1c0.1,0.5,0.4,0.7,0.9,0.8
		c0.7,0.2,1.4,0.3,2.1,0.4c0.2,0,0.5,0,0.7,0c-0.5,1.7-1,3.3-1.5,4.8l-0.7,1.8c-0.5-0.5-1.1-1-1.9-1c-0.7,0-1.3,0.4-1.8,0.8
		c-0.1-0.1-0.2-0.2-0.3-0.3c-0.3-0.3-0.7-0.2-0.9,0.1c-0.4,0.6-0.7,1.3-0.8,2c-1.3-1.8-3.3-3.1-5.5-3.5c-0.3-0.1-0.7-0.1-1-0.1
		c-0.5,0.1-0.6,0.5-0.7,0.9c-0.1,0.7-0.2,1.4-0.2,2.1c0,1.4,0.2,2.9,0.8,4.3c0.5,1.2,1.2,2.6,2.5,3c-0.8,0.7-1.6,1.5-2.3,2.4
		c-0.4,0.5-0.8,1-1,1.6c-0.2,0.5-0.1,1.1,0.2,1.6c0.6,1.1,2,1.5,3.1,2c0.3,0.1,0.6,0.3,0.9,0.4c-0.1,0.1-0.1,0.1-0.1,0.2
		c-0.5,0-0.9,0-1.4,0.1c-1.4,0.2-2.9,0.5-4.3,1.5c1.2,1.2,2.3,2,3.4,2.8c0.3,0.2,0.6,0.4,0.9,0.5c0,0.2,0,0.3,0,0.5
		c0,0.5-0.2,1.2,0.3,1.6c0.4,0.4,1.1,0.4,1.6,0.5c0.5,0,1.1,0,1.6-0.2c0.1,0,0.3-0.1,0.4-0.1c0.5,0.3,1.1,0.7,1.6,1
		c0.8,0.5,1.5,0.9,2.3,1.4l0.3,0.4c0.2,0.3,0.4,0.6,0.5,0.9c0.3,0.6,0.4,1.1,0.5,1.6c0,0.4,0,0.8-0.1,1.2c-2.2-0.1-4.5-0.2-6.7-0.1
		c-1.6,0-3.2,0-4.9,0.2c-1.6,0.1-3.3,0.4-5,0.9c1.4,1.1,2.9,1.9,4.4,2.5c1.5,0.7,3,1.2,4.5,1.8c0.7,0.2,1.3,0.5,2,0.7
		c3.6,1.2,6.8,3.6,8.8,6.9c0.1,0.2,0.2,0.3,0.3,0.5C483.5,500.9,484.9,503.3,486.1,505.6z M448.2,447c0.3,0.3,0.6,0.6,0.8,0.8
		c-0.3-0.2-0.5-0.3-0.8-0.5C448.3,447.2,448.2,447.1,448.2,447z M450.9,449.8c1.1,1.5,1.2,3.4,1,5.3c-0.1-0.1-0.1-0.3-0.2-0.4
		c-0.3-0.9-0.7-1.8-1.3-2.6c-0.3-0.4-0.6-0.7-0.9-1c-0.2-0.4-0.4-0.8-0.5-1.3C449.6,449.9,450.3,449.9,450.9,449.8z M453,452.1
		c0-0.1,0-0.2-0.1-0.3c0.1-0.1,0.1-0.3,0.1-0.4c-0.4-2-0.6-4.1-0.8-6.1c0.2,0.3,0.4,0.7,0.5,1c0.3,0.8,0.5,1.7,0.6,2.6
		C453.4,450,453.3,451,453,452.1z M456,452c-0.5,0.7-1,1.4-1.5,2c-0.6,0.7-1.2,1.5-1.7,2.3c0.1-0.4,0.2-0.8,0.2-1.2
		c0.1,0,0.1-0.1,0.2-0.1C454.3,454.1,455.2,453.1,456,452z M454.3,458.5c-0.2,0.2-0.4,0.5-0.7,0.7c-1,1.1-2.1,2.2-3.1,3.3
		c0.3-0.6,0.5-1.2,0.7-1.8C452.4,460.1,453.4,459.3,454.3,458.5z M454.8,474.1c0.3,0.8,0.5,1.7,0.6,2.5c0,0.3,0.3,0.6,0.6,0.6
		c0.3,0,0.6,0.1,0.9,0.2c0.1,2.9-2,5.6-4.8,6.1c-0.3,0-0.4,0.3-0.4,0.6c0,0.6,0.5,1,1.1,1c0.5,0.1,1.1-0.1,1.6-0.2
		c0.9,0,1.7,0.1,2.5,0.3l-0.1,0.1c-0.4,0.4-0.1,1,0.4,1c0.4,0,0.8,0.4,1,0.7c0.4,0.5,0.7,1,1.1,1.4c0.4,0.6,1.6,1.9,0.8,2.6
		c-0.4,0.3-1,0.5-1.4,0.7c-0.5,0.2-1.1,0.4-1.6,0.6c-0.6,0.2-1.1,0.3-1.7,0.4c-0.4,0.1-0.6,0.2-0.7,0.6c-0.1,0.2-0.2,0.4-0.3,0.6
		c-0.9,0-1.6-0.9-1.9-1.7c-0.5-1.1-0.7-2.3-1.2-3.3c0-0.1-0.1-0.1-0.1-0.2c-0.2-0.2-0.4-0.3-0.7-0.2c-0.2,0-0.3,0.2-0.4,0.3
		c0,0.1-0.1,0.2,0,0.4c0.1,1.6,0.1,3.1,0.1,4.7c-0.3,0-0.5,0.1-0.6,0.4c-0.3,1.2-1.1,2.3-2.1,3c0-0.1,0-0.1,0-0.2
		c-0.1-0.3-0.4-0.5-0.7-0.4c-0.9,0.5-1.7,0.7-2.2,0.4c-0.3-0.2-0.4-0.6-0.4-1c-0.1-0.4-0.2-0.8-0.2-1.2c-0.1-1.6,0.1-3.3,0.8-4.8
		c0.3-0.7-0.7-1.3-1-0.6c-0.7,1.4-1.4,3-2.7,4c-0.9,0.7-2.3,1.1-3.4,0.5c0.1-0.2,0.2-0.3,0.3-0.5c0.3-0.5-0.2-1-0.7-0.9
		c-1.7,0.3-3.4-0.8-4-2.4c0.5-0.2,1-0.3,1.5-0.5c0.6-0.2,0.6-1,0-1.1c-0.3-0.1-0.4-0.6-0.3-0.9c0.1-0.5,0.6-0.9,1-1.1
		c1.1-0.6,2.3-1,3.6-1c1,0.6,2.2,0.9,3.5,0.6c0.3-0.1,0.5-0.4,0.4-0.7c-0.1-0.3-0.4-0.5-0.7-0.4c-0.8,0.1-1.6,0-2.4-0.4
		c-0.1-0.2-0.3-0.3-0.5-0.3c-0.7-0.4-1.2-1-1.6-1.6c-1-1.5-1.4-3.2-1.7-4.9c0.3,0.1,0.5,0.1,0.8,0.2c0.4,0.1,0.8-0.2,0.8-0.6
		c-0.1-1.3-0.2-3.1,1.1-3.9c0.4-0.3,1-0.3,1.4,0c0.4,0.3,0.5,0.9,0.8,1.3c0.5,0.5,1.1,0.4,1.7,0.2c0.1,0,0.3-0.1,0.4-0.1
		c0,0,0.1,0,0.2,0.1c0.2,0.1,0.4,0.3,0.5,0.5c0.6,0.7,0.9,1.7,1.2,2.6c0.4,1.2,0.9,2.3,1.9,3c0.4,0.3,1-0.2,0.9-0.7
		c-0.6-1.7-0.1-3.6,1.1-4.9v0.1c0,0.4,0.7,0.9,1,0.4c1-1.2,2.2-2.2,3.7-2.9c0.2-0.1,0.3-0.1,0.5-0.2c0.1,0,0.2-0.1,0.2-0.1
		s0,0,0,0.1C454.5,473.3,454.7,473.7,454.8,474.1z M458.6,485c-0.5-0.3-1.1-0.5-1.6-0.7c1-0.2,1.9-0.6,2.7-1.1
		c0.3-0.2,0.4-0.5,0.2-0.8s-0.5-0.4-0.8-0.2c-1.1,0.7-2.3,1.1-3.6,1.1c0.6-0.6,1.1-1.2,1.6-2c0.1-0.3,0.3-0.5,0.4-0.8c0,0,0,0,0.1,0
		c1.1-0.3,2.3-0.4,3.5-0.1c0.5,0.1,0.9,0.3,1.3,0.6c0.1,0.1,0.2,0.1,0.3,0.2c0.1,0,0.1,0.1,0.1,0.1c-0.1,0.2-0.2,0.3-0.3,0.5
		c-0.5,0.8-1.1,1.6-1.8,2.3c-0.3,0.4-0.7,0.7-1.1,1c-0.2,0.1-0.4,0.3-0.6,0.4c0,0-0.1,0-0.1,0.1C459,485.4,458.9,485.1,458.6,485z
		 M452.2,500.6c0.3,0.1,0.7-0.1,0.7-0.4c0.3-1.8,0-3.5-0.5-5.2c0.3,0.2,0.7,0.4,1.1,0.5c0.4,0.1,0.9,0.1,1.2-0.1
		c0.1-0.1,0.1-0.1,0.2-0.2c0.3,0.4,0.3,1,0.3,1.5c0.2,0.6,0,1.4-0.2,2.2s-0.5,1.5-0.9,2.3c-0.2,0.4-0.4,0.7-0.7,1
		c-0.1,0.2-0.2,0.3-0.4,0.5c-0.1,0.1-0.1,0.2-0.2,0.3c-0.1-0.1-0.2-0.1-0.2-0.1c-0.1-0.1-0.2-0.2-0.3-0.3c-0.2-0.2-0.5-0.4-0.7-0.7
		c-0.4-0.5-0.7-1-1-1.6c-0.5-1.1-0.8-2.4-0.7-3.7c0-0.1,0-0.2,0-0.3s0.1-0.1,0.1-0.2c0.4,0.3,1,0.2,1-0.4c0-0.5,0-1,0-1.5
		c0.7,1.8,1.1,3.8,0.8,5.7C451.8,500.2,451.9,500.5,452.2,500.6z M429.9,482.4c0.1,0.3,0.4,0.5,0.7,0.4c2.3-0.3,4.4,1,6.2,2.2
		c-0.6,0.2-1.2,0.4-1.8,0.7c-0.1-0.1-0.2-0.1-0.4-0.2c-1.3-0.1-2.7-0.5-3.9-1.1c-0.6-0.3-1.2-0.7-1.7-1.2c-0.4-0.3-0.8-0.7-1.2-1.1
		c0,0,0,0,0.1,0c0.2-0.1,0.3-0.2,0.4-0.3c0.3-0.2,0.6-0.5,0.9-0.7c0.6-0.5,1.3-0.6,2.1-0.7c0.7-0.1,1.6-0.3,2.3,0
		c0.7,0.2,1.2,0.8,1.9,1c0.1,0,0.1,0,0.2,0c0.3,0.7,0.6,1.4,1,2.1c-1.9-1.2-4-2.1-6.4-1.8C430,481.7,429.8,482.2,429.9,482.4z
		 M448.6,455.5c-0.6-1.6-1.2-3.3-1.7-4.9c0.5,0.4,1,0.8,1.6,1.2c0.4,0.8,0.8,1.5,1.3,2.3c0.3,0.4,0.5,0.7,0.8,1.1
		c0.2,0.6,0.2,1.1,0.3,1.7c0,0.3,0.2,0.5,0.4,0.6c-0.2,0.7-0.5,1.4-0.7,2C450.2,458.1,449.5,456.8,448.6,455.5z M449.7,461.2
		c-0.5,1.2-1,2.3-1.6,3.5c-0.1-1.3-0.1-2.7-0.6-4c0,0,0-0.1-0.1-0.1c-0.2-1.6-0.3-3.3-0.3-5c0.1,0.1,0.2,0.3,0.3,0.4
		c0.7,1.7,1.4,3.4,2.2,5C449.6,461.1,449.7,461.1,449.7,461.2z M447.1,465.4c0.1,0.3,0.1,0.5,0.2,0.8c0,0.1,0.1,0.1,0.1,0.2
		c-0.2,0.6-0.5,1.2-0.7,1.8c-0.3-0.8-0.7-1.6-1.1-2.3c-0.7-2.3-1-4.7-0.9-7c0.5,0.7,1.2,1.3,1.5,2
		C446.4,462.4,446.7,463.9,447.1,465.4z M446.3,469.9c-0.1,0.6-0.3,1.2-0.4,1.8c0,0.2-0.1,0.5-0.1,0.7c-0.5-0.8-1-1.6-1.6-2.4
		c-0.4-0.8-0.7-1.6-1-2.5c-0.4-1.4-0.6-2.9-0.9-4.4c0.9,1.1,1.6,2.1,2.3,3.2C445,467.6,445.6,468.8,446.3,469.9z M445.3,474.1
		c0.1,0.1,0.2,0.2,0.3,0.3c0,0.8,0,1.7,0,2.5c-0.2-0.5-0.4-1.1-0.7-1.5c0-0.2,0-0.4-0.2-0.5c-2.2-2.1-3.9-4.6-5-7.4
		c1.3,0.9,2.5,2.1,3.5,3.3C443.8,472,444.5,473,445.3,474.1z M446.9,475.9c0-0.7,0-1.4,0-2.2c0.7-0.7,1.4-1.4,2.1-2.1
		c1-0.7,2.2-1.2,3.4-1.8C450.7,471.9,448.8,474,446.9,475.9z M448.1,470.9c-0.3,0.2-0.6,0.5-1,0.8c0.1-0.6,0.2-1.2,0.4-1.8
		c0.1,0,0.1-0.1,0.2-0.1c1.1-0.9,2.3-1.8,3.4-2.6c0.3-0.2,0.5-0.4,0.8-0.6C450.7,468,449.4,469.5,448.1,470.9z M448.2,467.8
		c0.2-0.5,0.4-1,0.6-1.5c0.2-0.4,0.4-0.9,0.6-1.3c0.2,0.1,0.4,0,0.6-0.1c1.8-1.9,3.7-3.4,5.7-4.7c-0.2,0.2-0.3,0.4-0.5,0.6
		c-0.9,0.9-1.8,1.8-2.7,2.8C451.1,465,449.7,466.4,448.2,467.8z M447.8,449.8C447.8,449.8,447.7,449.8,447.8,449.8
		C447.7,449.7,447.8,449.7,447.8,449.8C447.8,449.8,447.8,449.8,447.8,449.8z M507.6,409c-0.2,0-0.3,0-0.5,0.1
		c-0.1,0.1-0.2,0.2-0.2,0.3c-0.6,1.2-1.2,2.4-1.8,3.6c-1.3-0.2-2.5-0.3-3.8-0.4c-0.8-0.1-1.5-0.1-2.3-0.2c0.1-0.3,0.2-0.7,0.4-0.9
		c0.6-1.5,1.7-2.9,3-3.9c0.6-0.5,0-1.5-0.6-1c-1.3,1-2.6,2-4.2,2.3c-1.1,0.2-2.6-0.1-3.3-1.1l0.5-0.3c0.5-0.3,0.3-0.9-0.2-1.1
		c-1.6-0.6-2.6-2.3-2.4-4c0.5,0.1,1,0.2,1.6,0.3c0.6,0.1,0.9-0.6,0.5-1c-0.2-0.3-0.1-0.7,0.1-0.9c0.3-0.4,0.9-0.5,1.4-0.5
		c1.2-0.1,2.5,0.2,3.6,0.8c0.6,1,1.6,1.8,2.8,2.2c0.3,0.1,0.6-0.2,0.7-0.5c0.1-0.3-0.1-0.6-0.5-0.7c-0.8-0.3-1.4-0.8-1.9-1.5
		c0-0.2-0.1-0.4-0.3-0.5c-0.4-0.7-0.6-1.5-0.7-2.2c-0.2-1.8,0.3-3.5,0.8-5.2c0.2,0.2,0.4,0.3,0.6,0.5c0.3,0.2,0.8,0.2,0.9-0.2
		c0.5-1.2,1.3-2.8,2.8-2.9c0.5,0,1,0.2,1.2,0.7s0,1.1,0.1,1.6c0.2,0.7,0.8,0.9,1.4,1c0.1,0,0.3,0,0.4,0.1c0,0,0.1,0.1,0.1,0.2
		c0.1,0.2,0.2,0.4,0.2,0.7c0.2,0.9,0,1.9-0.2,2.9c-0.2,1.2-0.3,2.4,0.3,3.6c0.2,0.5,1,0.3,1.1-0.2c0.3-1.7,1.6-3.2,3.2-3.8v0.1
		c-0.1,0.2,0,0.6,0.2,0.8c-0.5,2.7-0.9,5.2-1.1,7.6c-0.1,0-0.1,0-0.2-0.1c-0.3-0.1-0.5,0.1-0.7,0.3c-0.3,0.5,0,1.1,0.5,1.4
		c0.1,0.1,0.2,0.1,0.3,0.2c-0.1,2.6,0,5,0.3,7.1c-1.2-0.3-2.3-0.6-3.5-0.8c-0.2,0-0.4-0.1-0.6-0.1c0-0.1,0-0.1,0-0.2
		c0.1-1.2,0.5-2.3,0.5-3.5c0-0.1,0-0.1,0-0.2C508.1,409.2,507.8,409.1,507.6,409z M498,397.9c-1.2-2-2.5-3.8-4.8-4.6
		c-0.3-0.1-0.6,0.2-0.7,0.5c-0.1,0.3,0.2,0.6,0.5,0.7c2.2,0.8,3.4,2.9,4.5,4.8c-0.6-0.1-1.3-0.2-1.9-0.2c0-0.1-0.1-0.2-0.3-0.3
		c-1.2-0.7-2.2-1.7-3-2.8c-0.4-0.6-0.7-1.2-1-1.8c-0.2-0.5-0.4-1-0.5-1.6c0,0,0,0,0.1,0c0.2,0,0.3,0,0.5,0c0.4-0.1,0.7-0.2,1.1-0.2
		c0.7-0.1,1.5,0.1,2.2,0.3c0.7,0.2,1.6,0.5,2.1,1s0.7,1.3,1.2,1.8l0.1,0.1C497.9,396.3,497.9,397.1,498,397.9z M509.2,394
		c-1.1-2.8-1.4-5.9-1.1-8.9c0.7,1.4,1.2,3,1.6,4.6c0,1.3,0.1,2.6,0.3,3.9c0,0.2,0.1,0.3,0.2,0.4c-0.5,0.8-0.8,1.6-1.2,2.3
		c0.1-0.6,0.1-1.1,0.1-1.7C509.2,394.5,509.3,394.3,509.2,394z M512.8,390.5c-0.4,0.5-0.8,0.9-1.2,1.4c-0.1,0.2-0.3,0.4-0.4,0.6
		c0-1-0.1-1.9-0.3-2.8c0-0.9,0.1-1.8,0.3-2.6c0.3-1.5,0.8-2.9,1.3-4.3c0.3,1.2,0.5,2.5,0.5,3.8C512.8,387.8,512.7,389.1,512.8,390.5
		z M511.5,394.1c0.7-0.1,1.3-0.3,2-0.5c-0.1,0.5-0.3,1.1-0.4,1.6c-0.9,0.3-1.7,0.6-2.6,0.8C510.8,395.4,511.2,394.7,511.5,394.1z
		 M514.1,389.1c0.1-0.9,0.1-1.7,0.1-2.6c0.4-2.3,1.2-4.6,2.4-6.6c0.1,0.5,0.3,1.1,0.3,1.7c-0.3,0.7-0.5,1.5-0.7,2.2
		c-0.5,1.6-1,3.1-1.4,4.6C514.6,388.6,514.3,388.8,514.1,389.1z M513.1,392.7c0.3-0.3,0.6-0.6,0.8-1c-0.1,0.3-0.1,0.5-0.2,0.8
		C513.5,392.5,513.3,392.6,513.1,392.7z M473.4,459.7c0.2,0.4,0.5,0.9,0.7,1.3c-1.4-1.1-2.7-2.6-3.5-4.4c-0.1-0.3-0.4-0.5-0.7-0.4
		c-0.3,0.1-0.5,0.4-0.4,0.7c0.7,1.7,1.7,3.1,3,4.3c-0.4,0-0.8,0-1.2,0.1c-0.3,0.1-0.8,0.3-1,0.7c0,0.1,0,0.2,0,0.3
		c-0.5-0.2-0.8-0.7-1-1.1c-0.4-0.7-0.7-1.5-0.9-2.3c-0.2-0.8-0.3-1.6-0.3-2.4c0-0.4,0-0.8,0-1.2c0-0.2,0-0.4,0.1-0.6
		c0-0.1,0-0.2,0.1-0.4c0.1,0,0.2,0,0.2,0c0.1,0,0.3,0.1,0.4,0.1c0.3,0.1,0.6,0.2,0.9,0.3c0.6,0.2,1.2,0.5,1.7,0.9
		c1,0.7,1.9,1.7,2.4,2.8c0,0.1,0.1,0.2,0.2,0.2c0,0.1,0,0.1,0,0.2C473.6,458.7,473.2,459.2,473.4,459.7z M471.3,464
		c0.3-0.3,0.4-0.5,0.4-0.9c0-0.2,0-0.5,0-0.7c0.8-0.4,1.9,0,2.5,0.5c1,0.7,1.7,1.6,2.7,2.3c0.1,0,0.1,0.1,0.2,0.1
		c0.2,0.1,0.4,0,0.5-0.1c-0.2,1.5-0.4,2.9-0.6,4.4c-0.3,0.2-0.5,0.5-0.8,0.7c-0.7,0.5-1.5,0.8-2.4,1c0,0,0-0.1,0.1-0.1
		c0.2-0.5-0.4-0.9-0.9-0.7c-0.4,0.2-0.9,0-1.3-0.1c-0.6-0.2-1.1-0.5-1.7-0.7c-0.7-0.3-2.3-0.8-2-1.9c0.2-0.5,0.6-0.9,0.9-1.3
		c0.4-0.5,0.7-0.9,1.1-1.3C470.4,464.8,470.8,464.4,471.3,464z M475.6,459.6c-0.3-1.2-0.2-2.5,0.3-3.6l0.1,0.1
		c0.2,0.2,0.6,0.2,0.8,0c0.4-0.4,1-1,1.6-0.9c0.4,0,0.6,0.4,0.9,0.6c0.1,0.1,0.2,0.3,0.4,0.4c-0.1,0.4-0.3,0.7-0.4,1.1
		c-0.4,1.4-0.7,2.8-1,4.1c-0.2,1-0.4,2-0.5,3c0,0,0,0-0.1-0.1c-0.8-1.3-1.6-2.6-2.4-4C475.5,460.2,475.7,460,475.6,459.6z
		 M482.5,438.5c-0.3-0.4-0.9-1-0.8-1.6c0.1-0.4,0.4-0.6,0.7-0.8c0.3-0.2,0.6-0.5,1-0.7c0.8-0.5,1.7-0.8,2.6-1
		c-0.5,1.9-0.9,3.8-1.4,5.7c-0.8,0-1.7-0.2-2.4-0.7l0.2-0.1C482.7,439.1,482.7,438.7,482.5,438.5z M483.5,444.3
		c-0.3,0.1-0.6,0.3-1,0.4c-0.3,0.1-0.5,0.3-0.5,0.7c0,0.3,0.4,0.6,0.7,0.5c0.1,0,0.3-0.1,0.4-0.1c0,0.1-0.1,0.2-0.1,0.3
		c-0.1,0.4-0.2,0.8-0.3,1.2c-0.2,0-0.3,0-0.5,0c-0.4,0-0.8-0.1-1.2-0.2c-0.2,0-0.4-0.1-0.6-0.1c-0.1,0-0.2-0.1-0.4-0.1
		c0-0.1,0.1-0.2,0.1-0.2c0-0.1,0.1-0.3,0.1-0.4c0.1-0.3,0.2-0.6,0.3-0.9c0.3-0.6,0.6-1.1,1-1.6c0.7-0.9,1.6-1.5,2.6-2
		C483.9,442.6,483.7,443.5,483.5,444.3z M470.5,477.5c0-0.2,0-0.4,0-0.6c0.5,0.3,1,0.6,1.6,0.9c0.2,0.1,0.3,0.2,0.5,0.3
		c0,0,0,0-0.1,0c-0.5,0.1-0.9,0.2-1.4,0.1c-0.1,0-0.2,0-0.4-0.1c-0.1,0-0.1,0-0.2,0C470.5,477.9,470.5,477.7,470.5,477.5z
		 M486.9,430.9c-0.2,0.7-0.3,1.3-0.5,2c-1-0.1-2.1-0.2-3-0.7c-1-0.5-2-1.7-1.9-2.9c0.2,0,0.4,0,0.6,0.1c0.6,0.1,0.8-0.6,0.5-1
		c-0.9-1.4-0.7-3.4,0.5-4.6c0.4,0.4,0.7,0.8,1.1,1.2c0.4,0.4,1.1,0.1,1-0.5c0-0.4,0.3-0.6,0.6-0.7c0.5-0.1,1,0.2,1.4,0.4
		c0.4,0.3,0.7,0.6,1.1,0.9C487.8,427,487.4,429,486.9,430.9z M489.7,417.4c-0.2-0.3-0.6-0.3-0.8-0.1c-0.3,0.2-0.2,0.6-0.1,0.8
		c0.3,0.5,0.6,1.1,0.7,1.6c-0.3,1.3-0.6,2.7-1,4c-0.2-0.1-0.3-0.3-0.5-0.4c0-0.1,0-0.3,0-0.4c-0.5-1.3-0.8-2.7-0.7-4.1
		c0-0.7,0.1-1.4,0.3-2c0.1-0.5,0.3-1.1,0.5-1.5c0.1,0.1,0.3,0.2,0.4,0.3c0.3,0.2,0.7,0.3,1,0.5c0.2,0.1,0.5,0.3,0.7,0.5
		c-0.1,0.4-0.2,0.8-0.3,1.2C489.9,417.7,489.8,417.6,489.7,417.4z"/>
	<path d="M449.7,485.6c-0.1-0.1-0.2-0.2-0.3-0.2c0,0,0,0,0.1-0.1c0.3-0.2,0.4-0.6,0.3-0.9c-0.1-0.4-0.5-0.6-0.9-0.6
		c-0.2,0-0.4,0-0.7,0.1c0.1-0.5,0.1-1.1,0-1.6c-0.1-0.5-0.9-0.6-1.1-0.1c-0.3,0.6-0.7,1.2-0.9,1.8c-0.1,0.3-0.2,0.5-0.2,0.8
		c-0.1-0.1-0.2-0.1-0.4-0.1c-0.1,0-0.1-0.1-0.2-0.1c-0.3-0.1-0.5-0.2-0.8-0.3s-0.7-0.2-1-0.1c-0.6,0.4-0.2,1.1,0.1,1.5
		c0.3,0.4,0.8,0.7,1.2,1c0.2,0.1,0.4,0.1,0.6,0c0.1,0.5,0.1,1,0.4,1.5c0.6,0.3,1.5,0.4,1.7-0.4c0-0.1,0.1-0.3,0.1-0.4
		c0.2,0.1,0.4,0.2,0.5,0.3c0.6,0.3,1.6,0.4,2-0.3C450.5,486.8,450.3,486,449.7,485.6z"/>
	<path d="M508.5,405.9c-0.1-0.1-0.1-0.2-0.2-0.4h0.1c0.4,0,0.8-0.2,0.8-0.6c0.1-0.4-0.2-0.7-0.5-0.9c-0.2-0.1-0.4-0.2-0.6-0.3
		c0.3-0.4,0.6-0.9,0.8-1.4s-0.5-0.9-0.9-0.6c-0.6,0.4-1.1,0.7-1.7,1.1c-0.2,0.2-0.4,0.4-0.6,0.6c-0.1-0.1-0.2-0.2-0.3-0.3
		c-0.1-0.1-0.1-0.1-0.2-0.2c-0.2-0.2-0.4-0.4-0.6-0.6s-0.5-0.5-0.8-0.5c-0.7,0-0.7,0.9-0.6,1.4c0.1,0.5,0.3,1,0.6,1.4
		c0.1,0.2,0.3,0.3,0.5,0.3c-0.2,0.5-0.4,1-0.3,1.5c0.1,0.7,0.9,1.1,1.4,0.6c0.1-0.1,0.2-0.2,0.3-0.4c0.1,0.2,0.2,0.3,0.4,0.5
		c0.4,0.5,1.2,1.1,1.9,0.6C508.6,407.3,508.7,406.5,508.5,405.9z"/>
	<path d="M385.9,495.9c0.6-0.3,1.2-0.5,1.8-0.8c0.2-0.1,0.5-0.3,0.7-0.5c0,0.1,0.1,0.2,0.2,0.3c0,0.1,0.1,0.1,0.1,0.2
		c0.2,0.2,0.3,0.5,0.5,0.7c0.2,0.3,0.4,0.6,0.7,0.6c0.7,0.1,0.8-0.7,0.8-1.3c0-0.5-0.1-1-0.4-1.5c0-0.3-0.2-0.4-0.4-0.4
		c0.3-0.4,0.5-0.9,0.5-1.4c0-0.7-0.7-1.3-1.3-0.8c-0.1,0.1-0.2,0.2-0.3,0.3c-0.1-0.2-0.2-0.4-0.3-0.5c-0.3-0.6-1-1.3-1.7-1
		c-0.6,0.3-0.9,1.1-0.8,1.7c0,0.1,0.1,0.3,0.1,0.4H386c-0.3,0-0.7,0.2-0.8,0.5c-0.2,0.4,0,0.7,0.3,1c0.2,0.1,0.4,0.3,0.6,0.4
		c-0.4,0.3-0.8,0.8-1,1.3S385.4,496.1,385.9,495.9z"/>
</g>
</svg>
