<?xml version="1.0" encoding="utf-8"?>
<!-- Generator: Adobe Illustrator 24.0.1, SVG Export Plug-In . SVG Version: 6.00 Build 0)  -->
<svg version="1.1" id="Layer_1" xmlns="http://www.w3.org/2000/svg" xmlns:xlink="http://www.w3.org/1999/xlink" x="0px" y="0px"
	 viewBox="0 0 800 800" style="enable-background:new 0 0 800 800;" xml:space="preserve">
<style type="text/css">
	.st0{fill:#FFFFFF;}
</style>
<path id="white" class="st0" d="M440.6,360.1V371c0,0,18.5-3.5,29-7.8s13.7-11.2,13.7-11.2l1.3-7.3c0,0,26.2-4,35.8-2.5
	c9.6,1.5,18.3,7.9,18.3,7.9l1.3,4.4c0,0,10.1-2.3,28.3,8.9c18.2,11.1,23.6,25.7,23.6,25.7l-1.7,4.8c0,0-1.1-3.1-12.5-2.6
	s-17.3,6.9-17.3,6.9l-3.8,7.7l-6.5,6.3l-6.8-1.1l-7.8-4.4L519,428.2h-15.3l0.8,22.3l-4.5,12.4l0.8,19l-6.2,9.1l-9.9,12.3l-5.1-4.5
	l-26.7-11.2c0,0-52.5-9.7-77.4,0.9l-7.2,9.4c0,0-4.8-10.1-1.6-16.5c3.2-6.4,3.8-10.8,3.8-10.8s-22.8,6.2-37.4,2.9
	c-14.6-3.3-25.2-13.1-24.8-19.4c0.4-6.3,4.3-3.6,4.3-3.6l10.2-0.4c0,0,9-6.5,12.6-13c3.5-6.5,1.1-14.1,1.1-14.1s3.6-0.8,12.7-0.1
	c9.1,0.7,13.4,1.3,20-2.9c6.5-4.2,31.9-31.6,31.9-31.6l16.9-13.2l-8.2-8.9l9.7-7.1l9.7-2L440.6,360.1z"/>
<g id="black">
	<path d="M426.1,369.9c1.2,1.4,2.9,2.3,4.4,3.4c1.6,1,3.5,1.5,5.3,2.1c1.9,0.5,3.8,0.6,5.7,0.8c1.9-0.1,3.8-0.2,5.7-0.6
		c1.8-0.5,3.6-0.9,5.3-1.5c3.4-1.2,6.7-2.6,9.8-4.3c6.2-3.2,12-6.9,17.7-10.3l4.3-2.5c1.5-0.8,2.9-1.5,4.3-2.5
		c1.4-0.8,2.8-1.7,4.2-2.6c1.4-0.8,2.9-1.6,4.4-2.8c-1.8-0.3-3.6-0.3-5.4-0.1c-1.7,0.3-3.5,0.6-5.2,1c-1.7,0.5-3.3,1.2-4.9,1.9
		l-4.6,2.3c-6.1,3.2-11.8,6.8-17.7,9.7c-2.9,1.5-5.9,2.7-8.9,3.7c-1.5,0.5-3,0.7-4.5,1c-1.5,0.2-3,0.2-4.4,0.4
		c-1.4-0.2-2.9-0.1-4.3-0.3c-0.7-0.2-1.4-0.4-2.1-0.5s-1.5-0.2-2.2-0.5c-1.4-0.6-2.9-0.9-4.4-1.5s-3.2-1.1-5.2-1.3
		C423.9,366.8,424.9,368.5,426.1,369.9z"/>
	<path d="M538.1,411.8C538.1,411.9,538.1,411.8,538.1,411.8L538.1,411.8z"/>
	<path d="M559.3,405c-1.7,0.7-3.2,1.3-4.6,1.8c-1.5,0.5-2.8,0.8-4.1,1c-1.3,0.1-2.5,0.1-3.6-0.1c-0.6-0.1-1.1-0.2-1.6-0.4
		c-0.1,0-0.2-0.1-0.4-0.1c0,0,0-0.1-0.1-0.1c-0.3-0.4-0.6-0.8-0.9-1.2c-0.6-0.7-1.3-1.3-1.9-1.8c-1.3-1-2.7-1.7-4-2.3
		c-2.7-1.2-5.4-1.8-8.1-2.2c-5.3-0.8-10.5-0.7-15.5-0.2c-5.5,0.6-11,2.7-15.3,6.1s-7.4,8.1-8.1,13.4c0,0.1,0,0.2,0.1,0.3
		c0.1,0.1,0.3,0.1,0.4,0c2.2-2,4.4-3.7,6.5-5.2c0.4,3.1,0.9,6.1,1.2,9.2c0.5,4.4,0.8,8.8,0.9,13.2c0.2,4.4,0,8.8-0.3,13.1
		c-0.2,2.2-0.5,4.3-0.9,6.4c-0.2,1-0.4,2.1-0.7,3c-0.2,0.9-0.7,2.1-0.9,2.5l-0.1,0.2c-0.3,0.6-0.4,1.3-0.3,2
		c0.4,2.3,0.7,4.6,0.8,6.9s0.2,4.5,0,6.8c-0.2,2.2-0.5,4.4-1.1,6.4c-0.1,0.3-0.3,0.6-0.4,1c-0.1-0.4-0.2-0.8-0.3-1.1
		c-1.4-4.5-3.5-8.6-6.1-12.2c-1.4-1.8-2.7-3.6-4.3-5.1c-0.8-0.8-1.6-1.6-2.4-2.3c-0.9-0.6-1.1-2-4-0.8c-1.5,2.9-0.2,3,0.2,4
		c0.6,0.9,1.1,1.7,1.6,2.6c1,1.8,2.1,3.5,3,5.3c1.9,3.5,3.6,7.1,4.8,10.8c0.6,1.8,1,3.7,1.1,5.4c0,0.4,0,0.9,0.1,1.3v1
		c-0.1,0.7-0.2,1.4-0.6,2.1c-0.8,2-2.4,4.1-4.2,6c-7.9-6.7-17-11.4-26.5-15.1c-2.4-1-4.8-1.8-7.2-2.5c-2.4-0.8-4.9-1.5-7.4-2.1
		c-5-1.1-10-2.2-15.2-2.8c-10.3-1.1-20.6-1.1-30.9,0.7c-5.1,0.8-10.2,2.2-15.1,4.1c-4.8,2.1-9.7,4.5-13.1,9.2
		c-0.1,0.2-0.1,0.3-0.2,0.5c-0.2-0.3-0.4-0.7-0.6-1.1c-0.5-1.1-0.7-2.4-0.7-3.7c0-2.7,1-5.6,2.3-8.6c2.7-5.9,6.4-11.2,11-16.1
		c4.7-5.1,9-10.6,13-16.3c2-2.9,3.9-5.9,5.5-9.2c1.6-3.2,3.1-6.7,3.7-10.9c0-0.1,0-0.3,0-0.4c0.1-2.1-1.6-3.9-3.8-4
		c-2.1-0.1-3.9,1.6-4,3.8v0.1c-0.1,5.5-3.3,11.7-6.7,17.2c-3.5,5.6-7.7,10.9-12,15.9c-0.9,1-1.8,2-2.7,3c-5,3.3-10.9,5.3-17,6.2
		c-7,1.1-14.5,0.8-21.5-0.5s-13.7-4.1-18.9-8.2c-2.6-2.1-4.5-4.5-5.4-7.3c-0.2-0.5-0.3-0.9-0.4-1.4c2.7,1,5.7,1.3,8.6,0.8
		c2.2-0.1,4.1-1,6.1-1.7c1.9-1,3.7-2.1,5.4-3.5c0.8-0.7,1.5-1.5,2.2-2.3s1.4-1.5,2-2.4c1.1-1.8,2.1-3.5,2.7-5.4
		c1.3-3.8,1.8-7.8,0.6-11.9l-0.2-0.8c2.1,0,4.1,0.2,6.3,0.8c4,1,8.7,1.9,13.3,2c1.5,0,2.8,0.1,4.4,0c0.3,0.2,0.7,0.3,1.1,0.5
		c1.8,0.7,3.4,1.6,5,2.5c1.6,1,3.2,2,4.5,3.4c1.4,1.3,2.6,2.8,4.4,4.2h0.1c0.1,0,0.2-0.1,0.2-0.2c0-2.3-0.9-4.4-2.3-6.1
		c-1.3-1.8-2.9-3.4-4.7-4.7c-0.1-0.1-0.3-0.1-0.4-0.2c1.6-0.1,3.2,0,4.8,0.5c1.5,0.5,3.1,1.2,4.5,2.3c0.7,0.5,1.3,1.2,2.2,1.7
		c0.7,0.6,1.5,1.2,2.5,1.8h0.1c0.1,0,0.2-0.1,0.1-0.2c-0.1-1.1-0.5-2.1-0.9-3.1c-0.5-0.9-1.1-1.8-1.9-2.6c-1.4-1.6-3.3-3-5.4-3.8
		c-0.7-0.3-1.4-0.4-2-0.5c3.4-2.3,6.4-4.9,9.2-7.5c2.4-2.4,4.7-4.8,6.9-7.2c2.9,1.7,6.4,2.7,10.1,2.7c0.9,0,1.8-0.1,2.7-0.2
		c9.1-1.2,21.9-13.2,26.4-18.1c1.9-2,2.6-4.8,1.8-7.5c-0.2-0.5-0.4-1-0.7-1.5c0.8,0,1.6,0,2.4-0.1c-2.3-4.2-5.9-5.8-9.1-8.2
		c-3.2-2.3-6.5-4.4-9.4-6.7c-0.5-0.4-1-0.8-1.5-1.3c0.5-0.4,1.1-0.9,1.7-1.3c2.8-2,6.3-3.9,9.6-5.6l0.1-0.1c1.7-0.9,2.5-3,1.7-4.9
		c-0.8-2-3.1-2.9-5-2.1c-3.9,1.6-7.5,3.5-11.1,6.2c-0.9,0.7-1.8,1.4-2.7,2.4c-0.5,0.5-0.9,1-1.4,1.7c-0.4,0.7-1,1.6-1.2,3.1
		c-0.1,0.8,0,1.6,0.3,2.5c0.3,0.8,0.6,1.1,0.9,1.6c0.5,0.7,1,1.2,1.5,1.6c0.9,0.8,1.8,1.5,2.7,2.1c0.8,0.5,1.5,0.9,2.3,1.4
		c-2.9,1.7-5.1,3.8-7.5,5.8c-3.3,3-6.5,5.9-9.5,9.1c-0.1,0.1-0.3,0.3-0.4,0.4c-1-0.7-2.1-1.2-3.4-1.4c-2.8-0.4-5.6,0.6-7.3,2.8
		c-1.7,2.1-2,4.8-1.1,7.3c0.3,0.9,0.8,1.7,1.3,2.5c-2.3,2.3-4.5,4.6-6.9,6.8c-3,2.8-6.2,5.5-9.4,7.5c-1.6,1-3.2,1.8-4.7,2.2
		c-1.1,0.3-3.6,0.4-5.5,0.4c-4.1,0.1-8-0.3-12.5-0.6c-2.3-0.1-4.8,0-7.2,0.7c-2.4,0.7-4.6,1.9-6.4,3.3c-0.4,0.3-0.6,0.8-0.5,1.4
		c0.2,0.7,0.9,1.2,1.6,1c0.6-0.1,1.1-0.2,1.6-0.3c-0.4,2.9-1.3,6.1-2.7,8.8c-1.5,2.9-3.5,5.6-6,7.8c-2.5,2.1-5.4,3.8-8.6,4.7
		c-1.6,0.5-3.2,0.7-4.8,0.8c-0.7,0-1.4,0-2.1,0c0-0.1,0-0.1,0-0.2c0-0.5,0.4-1.4,0.3-1.3c0.8-1.2,0.9-2.7,0.2-3.9
		c-0.6,0.4-1.2,0.7-1.8,1c-2,0.9-4.1,1.4-6.2,1.8c-0.1,0.3-0.1,0.5-0.2,0.8c-0.3,1.2-0.4,2.5-0.4,3.7c0,2.4,0.5,4.7,1.1,6.9
		c1.4,4.6,4.6,8.3,7.9,11c6.7,5.6,14.8,8.2,22.8,9.6c8.1,1.3,16.1,1,24.1-0.6c2.8-0.7,5.7-1.6,8.4-2.7c-0.8,1.4-1.6,2.8-2.3,4.2
		c-1.6,3.2-3.2,6.8-3.4,10.9c-0.1,2,0,4.2,0.6,6.3c0.3,1.1,0.8,2.1,1.3,3.1c0.6,1.1,1.1,1.8,2.3,3c1.7,1.3,4.1,1.1,5.4-0.6
		s1.1-4.1-0.6-5.4c0,0-0.2-0.2-0.4-0.4c0.3,0.1,0.7,0.1,1-0.1c3.3-3,8.2-4.7,12.8-6c4.7-1.3,9.6-1.9,14.5-2.4
		c9.8-0.8,19.7-0.5,29.4,0.6c9.8,1.2,19.4,3.4,28.8,6.2c7.9,2.4,15.7,5.3,23.2,8.7c-0.1,0.2-0.2,0.4-0.2,0.6
		c-0.1,0.4-0.2,0.8-0.2,1.2c0,0.7,0.4,1.1,0.6,1.6l1.6,3.1l0.1,0.1c0.8,1.3,2.4,1.7,3.7,0.9l0.3-0.2c2.2-1.3,3.9-2.6,5.7-4.3
		c1.7-1.7,3.4-3.6,4.5-6c0.5-1,0.9-2.2,1.2-3.4c1.1,0,2.2-0.5,2.9-1.4c1.4-1.7,1.8-2.8,2.4-4.2c0.5-1.3,0.9-2.7,1.3-4
		c0.6-2.7,0.9-5.3,0.9-7.9c0.1-2.6-0.1-5.2-0.4-7.7c-0.3-2.2-0.7-4.3-1.1-6.4c0.5-1,0.7-1.8,1-2.7c0.4-1.2,0.7-2.4,1-3.5
		c0.5-2.3,0.9-4.7,1.2-7c0.5-4.7,0.8-9.3,0.8-13.9c0-1.5-0.1-3-0.1-4.5c1.6,0.2,3.6,0.4,5.7,0.4c2.8,0,5.8-0.3,8.6-1.2
		c6.7-2.2,12.3-13.6,15.1-20.5c0.2,0.1,0.5,0.3,0.7,0.4c0.3,0.2,0.6,0.4,0.8,0.6c0.1,0.1,0.2,0.2,0.3,0.2c0-0.1,0-0.2-0.1-0.3
		l1.7,2.2c2.5,1.3,4.3,1.6,6.5,1.7c2.1,0,4.2-0.5,6.1-1.4c1.8-0.9,3.3-2.2,4.5-3.6s2.1-3.1,2.6-4.8c0.3-0.3,0.3-0.4,0.3-0.4
		C559.6,405,559.4,405,559.3,405z M409.8,386.5c2.5-2.8,5.2-5.8,7.9-7.5c1.2,0.5,2.3,1.2,3.4,1.7c-0.9,0.4-1.6,1-2.3,1.7l-0.4,0.4
		c-3.1,3.3-12.6,11.9-16.2,12.9C404.8,392.7,407.2,389.5,409.8,386.5z M519,423.5c-4.1,1.3-9.4,0.8-12.3,0.3c0-0.5-0.1-1-0.1-1.5
		c-0.3-4.2-0.8-8.4-1.3-12.6c3.1-1.3,6.4-1.9,9.7-2c4.7-0.1,9.3-0.1,13.7,0.5c0.1,0,0.2,0,0.3,0C525.8,415.6,521.6,422.7,519,423.5z
		"/>
	<path d="M594.2,388.8c-0.4-1.2-0.6-2.3-1.6-3.7c-3.8-7.8-9.2-15.1-16.2-20.7s-15.5-9.4-24.2-11.3c-3.9-0.9-7.9-1.4-11.9-1.6
		c-0.3-1.2-0.8-2.2-1.3-3.2s-1.1-1.9-1.7-2.8c-0.6-0.9-1.2-1.7-2-2.6c-0.2-0.2-0.5-0.4-0.9-0.6l-0.2-0.1c-7.8-2.9-15.9-4.7-24.1-5.2
		c-4.1-0.3-8.2-0.3-12.3-0.1c-4.1,0.3-8.1,0.7-12.4,1.8c-1.8,0.4-3,2.3-2.6,4.2c0.4,1.9,2.3,3.1,4.2,2.6h0.2c3.4-0.8,7.3-1.2,11-1.4
		c3.8-0.2,7.6-0.1,11.3,0.2c7.5,0.6,14.8,2.4,21.8,5.1c0.3,0.2,0.7,0.5,1,0.7c0.5,0.4,1,0.8,1.5,1.2c-2.6,0-5.3,0.2-7.9,0.4
		c-8.5,1-16.8,2.8-24.9,6c-4.7,0-8.9,1.3-12.8,2.9c-4.2,1.7-8,3.9-11.7,6.3s-7.1,5-10.5,7.7l-0.1,0.1c-1.1,0.3-2.2,0.6-3.3,0.9
		c-4.1,1.2-6.4,5.3-5.3,9.5c1.2,4.2,5.3,6.5,9.4,5.3l0.4-0.1c2.9-0.8,5.6-1.6,8-1.3c1.3,0.1,2.2,0.7,2.4,0.9c0.1,0.2,0.1,0.5,0,0.8
		c-0.3,0.9-1,1.7-1.8,2.1c-1.9,0.9-3.3,2.5-3.9,4.5c-0.7,2.1-0.4,4.4,0.7,6.3c1.4,2.4,4,3.8,6.6,3.8c1.2,0,2.3-0.3,3.4-0.8
		c6.7-3.1,11.1-10.6,10.4-17.8c-0.7-8-7.3-14.1-16.2-15.1c1-0.6,1.9-1.2,2.9-1.8c3.5-2.1,7.2-4,10.9-5.3c3.7-1.4,7.6-2.2,11-2
		c0.4,0,0.8,0,1.1-0.1l0.3-0.1c7.5-2.4,15.7-4.2,23.7-4.9c8.1-0.8,16.2-0.5,23.9,1.2c3.9,0.8,7.7,2,11.2,3.7c3.6,1.6,7,3.5,10.1,5.9
		c6.4,4.6,11.5,10.8,15.9,17.7l0.4,0.6c0,0,0.1,0.1,0.1,0c0.1,0,0.6,0.9,0.8,1.5c0.2,0.7,0.3,1.6,0.3,2.5v0.1
		c-2.4-2.4-5.4-4.1-8.6-4.9c-3.7-1.1-7.8-1-11.6-0.1c-3.9,0.9-7.5,3-10.3,5.7s-5,6.1-5.4,10.5l-0.1,0.8c-0.1,0.5,0.2,1,0.6,1.3
		c0.6,0.4,1.5,0.2,1.9-0.4c1.6-2.5,4-4.8,6.6-6.4c2.6-1.7,5.5-3.1,8.6-4c3.1-0.7,6.3-1.1,9.5-0.8c1.6,0,3.2,0.4,4.7,0.6
		c1.4,0.3,2.7,0.8,4.1,1.2c0.1,0.8,0.3,1.7,0.8,2.9c1.6-0.5,2.5-1.5,3.1-2.5c0.6-1.1,0.8-2.3,0.9-3.6
		C594.4,391.6,594.4,390.2,594.2,388.8z"/>
</g>
<g id="white">
	<path class="st0" d="M390.6,378.2c-0.6-2.1-2.5-3.6-4.7-3.6c-0.5,0-0.9,0.1-1.3,0.2c-1.3,0.4-2.4,1.2-3,2.3
		c-0.7,1.1-0.8,2.4-0.5,3.7l4.3,15.9c0.6,2.1,2.5,3.6,4.7,3.6c0.4,0,0.8-0.1,1.4-0.2c2.6-0.7,4.1-3.4,3.4-6L390.6,378.2z"/>
	<path class="st0" d="M481.5,398c-0.9-1.4-2.5-2.2-4.1-2.2c-1,0-1.9,0.3-2.7,0.8l-13.7,9c-1.8,1.2-2.6,3.5-1.9,5.6
		c0.1,0.4,0.3,0.8,0.5,1.1c0.9,1.4,2.5,2.2,4.1,2.2c1,0,1.9-0.3,2.7-0.7l13.7-9c1.1-0.7,1.8-1.8,2.1-3.1
		C482.5,400.4,482.2,399.1,481.5,398z"/>
</g>
<g id="black">
	<path d="M392.4,377.8c-0.8-3-3.5-5-6.6-5c-0.6,0-1.2,0.1-1.8,0.2c-1.8,0.5-3.2,1.6-4.1,3.2c-0.9,1.6-1.1,3.4-0.7,5.2l4.3,15.9
		c0.8,3,3.5,5,6.6,5c0.6,0,1.2-0.1,1.8-0.2c1.7-0.5,3.2-1.6,4.1-3.2c0.9-1.6,1.1-3.4,0.7-5.2L392.4,377.8z M390.8,398.3
		c-0.3,0.1-0.5,0.1-0.8,0.1c-1.3,0-2.5-0.9-2.8-2.2l-4.3-15.9c-0.4-1.6,0.5-3.2,2.1-3.6c0.3,0,0.6-0.1,0.8-0.1
		c1.3,0,2.5,0.9,2.8,2.2l4.3,15.9C393.3,396.3,392.4,397.9,390.8,398.3z"/>
	<path d="M483.2,396.9c-1.3-2-3.4-3.1-5.7-3.1c-1.3,0-2.6,0.4-3.7,1.1l-13.7,9c-2.6,1.7-3.7,4.9-2.7,7.8c0.2,0.6,0.4,1.1,0.8,1.6
		c1.3,1.9,3.4,3.1,5.7,3.1c1.3,0,2.6-0.4,3.7-1.1l13.7-9c1.5-1,2.6-2.5,2.9-4.3C484.6,400.2,484.2,398.4,483.2,396.9z M479.2,403
		l-13.7,9c-0.5,0.3-1.1,0.5-1.6,0.5c-1,0-1.9-0.5-2.5-1.3c-0.1-0.2-0.3-0.5-0.3-0.7c-0.4-1.2,0-2.6,1.2-3.4l13.7-9
		c0.3-0.3,0.9-0.5,1.5-0.5c1,0,1.9,0.5,2.5,1.3C480.9,400.3,480.5,402.1,479.2,403z"/>
</g>
</svg>
