<?xml version="1.0" encoding="utf-8"?>
<!-- Generator: Adobe Illustrator 24.0.1, SVG Export Plug-In . SVG Version: 6.00 Build 0)  -->
<svg version="1.1" id="Layer_1" xmlns="http://www.w3.org/2000/svg" xmlns:xlink="http://www.w3.org/1999/xlink" x="0px" y="0px"
	 viewBox="0 0 800 800" style="enable-background:new 0 0 800 800;" xml:space="preserve">
<style type="text/css">
	.st0{fill:#FFFFFF;}
</style>
<polygon id="white" class="st0" points="438.8,363.4 438.8,372 476.6,362.7 486.7,358.8 497.8,340.5 529.2,332.8 561.4,346.9 
	563.9,368.2 551.5,364.7 540.1,359.2 540.1,387.7 533.5,400.1 521.7,401.6 521.7,406.9 505.8,441.8 494.4,444.7 490.4,465.3 
	479.2,470 474.8,484.2 480.7,487.3 486.7,512.8 481.4,519.9 465.1,521.1 442.9,523.2 443.3,515.2 433,512.8 424.6,523.2 
	403.9,516.5 396.1,519.9 392.9,511.7 386.5,514 386.5,523.2 364.5,519 362.6,511.5 369.5,484.9 374.5,481 380,462.4 380.4,458 
	387.3,444.3 384.2,440.9 390.2,422.2 367.4,423.9 360,416.2 360,390.1 372.4,375.3 409.6,360.4 425.7,374 426.7,367.2 "/>
<g id="black">
	<path d="M439.5,421.9c0.2,0,0.5,0,0.8-0.1c0.8-0.1,1.6-0.5,2.3-1c0.8-0.6,1.3-1.3,1.6-2.2c0.1-0.4,0.2-0.7,0.2-1
		c0-0.6-0.3-0.9-0.4-1c0-0.1-0.3-0.1-0.7-0.1c-0.4,0.1-0.8,0.3-1,0.8c-0.1,0.3-0.2,0.5-0.3,0.7c-0.2,0.3-0.4,0.6-0.7,0.8
		c-0.3,0.2-0.6,0.4-1,0.4c-0.7,0.1-0.9-0.1-1.1-0.3c-0.2-0.4-0.4-1-0.4-1.8c0-1.4,0.2-2.6,0.7-3.6c0.2-0.4,0.4-0.8,0.7-1.1
		s0.5-0.5,0.5-0.5s0.1,0.1,0.1,0.2c0.2,0.4,0.2,0.8,0.2,1.2c0,0.8-0.1,1.2-0.1,1.2c-0.1,0.1-0.1,0.1-0.2,0.2l-0.6,0.5l0.3,0.7
		c0.3,0.6,0.9,1,1.5,0.8c1.1-0.2,1.4-1.5,1.5-2c0.1-0.6,0.2-1.2,0.2-1.7c0-1-0.2-1.9-0.6-2.6c-0.6-1.1-1.6-1.5-2.8-1.3
		c-0.7,0.1-1.4,0.5-2.1,1.2c-0.8,0.8-1.4,1.9-1.8,3.2c-0.3,1.1-0.5,2.2-0.5,3.4c0,1.4,0.3,2.6,0.9,3.5
		C437.2,421.1,438.1,421.9,439.5,421.9z"/>
	<path d="M445.5,417.3c0,0.2,0,0.5,0,0.7c0.1,0.8,0.2,1.4,0.6,1.7c0.2,0.2,0.5,0.2,0.7,0.2c0.1,0,0.1,0,0.2,0c0.2,0,0.4-0.1,0.6-0.2
		c0.2,0,0.8-0.2,1-0.9l0.2-0.6l-0.4-0.3c0-0.1,0-0.2-0.1-0.4c0-0.2,0-0.4,0-0.7c0.6-0.2,1.2-0.4,1.8-0.6c0.3-0.1,0.6-0.2,0.9-0.3
		c0,0.1,0,0.3,0.1,0.5c0.1,0.6,0.1,1,0.1,1.1c0.3,1.1,1.1,1.3,1.7,1.2c0.3,0,0.7-0.2,1-0.7c0.2-0.3,0.3-0.6,0.3-0.9
		c0-0.2,0-0.4-0.2-0.8c0-0.1-0.1-0.2-0.1-0.3c-0.1-0.5-0.1-0.9-0.1-1.1l0.1-0.1l0.1-0.2c0.2-0.3,0.3-0.6,0.3-0.9c0-0.1,0-0.7-0.5-1
		c0.1-2.6,0.2-3.5,0.3-3.7l0.4-0.3v-0.5c0-0.4-0.2-0.8-0.5-1.2c-0.4-0.4-0.9-0.6-1.5-0.6c-1.2,0.2-1.5,1.6-1.6,3
		c-0.1,0.9-0.1,1.8-0.1,2.7v0.9c-0.1,0-0.2,0.1-0.3,0.1s-0.2,0.1-0.2,0.1c-0.2,0-0.7,0.2-2,0.6c0-1.5,0.2-2.7,0.4-3.5
		c0-0.1,0.1-0.2,0.1-0.4c0.2-0.4,0.2-0.6,0.2-0.8c0-0.5-0.3-1-0.7-1.2c-0.3-0.2-0.7-0.2-1.1-0.2c-0.6,0.1-1.1,0.5-1.3,1.1
		c-0.3,0.8-0.4,2-0.4,4c0,0.8,0,1.5,0,2c-0.1,0.1-0.3,0.3-0.4,0.5c-0.2,0.3-0.3,0.6-0.3,0.8C444.8,416.6,445.1,417,445.5,417.3z"/>
	<path d="M456,414c0,2.2,0.2,2.6,0.4,2.9c0.3,0.4,0.7,0.6,1.3,0.6c1.9-0.1,1.1-2.7,1.1-2.7c-0.1-0.4-0.1-0.6-0.1-0.7V414
		c0.1,0,0.5,0,1.9,0.8c1.1,0.6,1.4,0.9,1.5,1v0.2l0.2,0.2c0.2,0.2,0.6,0.4,1.2,0.3c0.4-0.1,0.8-0.3,1-0.7l0.1-0.3v-0.2
		c0-0.3-0.1-1.1-1-1.8c-0.4-0.3-0.9-0.6-1.6-1c0.4-0.4,0.8-0.7,1-1c0.7-0.8,1-1.8,1-2.9c0-1.4-0.7-2.5-2-3.1
		c-0.9-0.4-2.1-0.5-3.3-0.3c-0.1,0-0.1,0-0.2,0c-0.3-0.1-0.6-0.2-0.9-0.1c-0.2,0-0.3,0.1-0.5,0.2l-0.2,0.1l-0.1,0.2
		c0,0.1-0.1,0.1-0.1,0.2h-0.1c-0.6,0.2-0.9,0.7-0.9,1.4c0,0.4,0.1,0.7,0.4,0.9c0.1,0,0.1,0.1,0.2,0.1c-0.1,0.5-0.1,0.8-0.1,0.9
		c0,0.2-0.1,0.7-0.1,1.5c0,0.3,0,0.6-0.1,0.8c-0.5,0.3-1,0.7-1,1.4C455,413,455.1,413.8,456,414z M458.9,409.7c0-0.1,0-0.2,0.1-1.1
		c0-0.3,0.1-0.4,0.1-0.5c0.1,0,0.1,0,0.2,0c0.6-0.1,1.1-0.1,1.5,0.1c0.3,0.1,0.4,0.3,0.4,0.7c0,0.3-0.2,0.8-0.6,1.3
		c-0.4,0.5-0.8,0.8-1.4,1.1c-0.2,0.1-0.3,0.1-0.3,0.1s-0.1,0-0.2,0C458.7,410.6,458.8,410.1,458.9,409.7z"/>
	<path d="M466.3,406.8c0.2,0,0.4-0.1,0.6-0.2c0,0.3,0,0.7-0.1,1.1c-0.1,1-0.2,1.7-0.2,1.9c-0.1,0.6-0.1,1.5-0.1,2.6
		c0,1.1,0.1,1.5,0.1,1.7c0.2,1,0.9,1.5,1.8,1.5c0.1,0,0.2,0,0.4,0c0.6-0.1,1-0.6,1-1.2v-0.3l-0.2-0.3c0,0-0.2-0.4-0.2-2
		c0-1.7,0.1-3.3,0.3-4.8c0.1-0.5,0.1-0.9,0.2-1.1l0.5-0.1c0.5-0.1,0.7-0.1,0.8-0.1c0,0,1.8,0.3,1.8-1.3c-0.3-0.2-0.5-0.7-0.8-0.9
		c-0.5-0.4-1.2-0.5-2.4-0.3c-0.6,0.1-1.4,0.3-2.6,0.6c-2.1,0.6-2.6,0.9-2.8,1.4l-0.2,0.4l0.2,0.4
		C464.6,406.4,465.2,406.9,466.3,406.8z"/>
	<path d="M592.1,396.7l-0.5-1.1l-0.5-1.1c-0.4-0.7-0.7-1.4-1.1-2.1c-0.8-1.4-1.6-2.8-2.5-4c-0.9-1.3-1.9-2.6-2.8-3.8
		c-1-1.2-2-2.4-3.2-3.6c-2.2-2.3-4.6-4.4-7-6.3c-2.3-1.8-4.8-3.5-7.3-5l-2.1-23.2L530,329.9l-33.9,7.8l-11,18.6l-5.2,0.3H479
		l-0.7,0.4c-3.4,1.8-7.2,3.4-10.9,4.9c-3.7,1.5-7.5,2.9-11.3,4.1c-3.8,1.3-7.7,2.2-11.6,3.2c-3.9,1-7.8,2-11.9,3.2
		c4.1,1.4,8.4,1.8,12.7,1.5c2.1-0.1,4.2-0.4,6.3-0.8c2.1-0.4,4.2-0.8,6.2-1.4c4.1-1.1,8.1-2.4,12-4c2-0.8,3.9-1.6,5.8-2.6
		c1.7-0.8,3.4-1.6,5.1-2.6l1.9-0.1l-0.2,5.2c-3,1.7-6,3.5-8.9,5.4c-4.8,3.1-9.2,6.3-14,8.1c-5.1,2-10.3,3.7-15.6,4.9
		c-2.6,0.5-5.2,0.9-7.8,1c-1.3,0-2.5,0-3.6-0.2c-0.3,0-0.6-0.1-0.8-0.2c-0.3-0.1-0.5-0.1-0.7-0.2h-0.1l-2.4-17.1
		c0.2-0.1,0.4-0.2,0.6-0.3c0.3-0.1,0.6-0.2,0.9-0.3c1.2-0.4,2.6-0.8,4-1.1c0.7-0.2,1.4-0.3,2.1-0.4c0.7-0.1,1.4-0.3,2.1-0.4
		c1.4-0.2,2.9-0.4,4.3-0.6l-0.7-6c-1.5,0.2-3,0.4-4.6,0.6c-0.8,0.1-1.5,0.2-2.3,0.4c-0.8,0.1-1.5,0.3-2.3,0.4
		c-1.5,0.3-3.1,0.7-4.7,1.2c-0.4,0.1-0.8,0.3-1.2,0.5s-0.8,0.4-1.3,0.6c-0.2,0.1-0.4,0.2-0.7,0.4c-0.2,0.1-0.5,0.3-0.7,0.5
		s-0.5,0.4-0.8,0.7c-0.2,0.2-0.3,0.3-0.5,0.6c-0.1,0.1-0.2,0.3-0.3,0.5c-0.1,0.1-0.1,0.3-0.2,0.4l-0.1,0.2c0,0.1-0.1,0.2-0.1,0.4
		l-12.6-10.9L370.1,374l-12.2,15.1L357,418l8.3,8.3c-3.3,1.9-6.8,3.4-10.4,4.4c-1,0.2-1.9,0.4-2.9,0.6c-1,0.1-1.9,0.3-2.9,0.4
		c-1,0-2,0.2-2.9,0.1c-0.5,0-1,0-1.4-0.1l-1.4-0.1c-1.8-0.3-3.4-0.7-4.7-1.4c-0.6-0.4-1.2-0.8-1.7-1.3c-0.2-0.2-0.5-0.5-0.6-0.7
		c-0.1-0.1-0.2-0.2-0.2-0.4c-0.1-0.1-0.2-0.3-0.1-0.1l-7.7,2c0.2,0.8,0.3,1,0.5,1.5c0.2,0.4,0.4,0.8,0.6,1.1c0.4,0.7,0.9,1.4,1.4,2
		c1,1.3,2.2,2.2,3.5,3.1c0.5,0.3,1,0.6,1.5,0.9c1,5.1-0.6,11.3-3.9,15.2c-1.5,1.7-3.8,3.6-7.2,4c-2.4-1-4.7-2.2-7-3.5
		c-1.5-0.9-2.9-1.9-4.3-3c-0.7-0.5-1.3-1.1-2-1.7c-0.3-0.3-0.6-0.6-0.9-0.9s-0.6-0.6-0.7-0.8l-6,5.3c0.5,0.5,0.8,0.8,1.3,1.2
		c0.4,0.4,0.8,0.7,1.2,1.1c0.8,0.7,1.6,1.3,2.4,1.9c1.7,1.2,3.4,2.3,5.1,3.3c3.5,2,7.3,3.6,11.1,4.9c1.9,0.6,3.9,1.1,5.9,1.6l3,0.5
		c1,0.2,2,0.2,3,0.4c2,0.3,4,0.2,6,0.3c1,0.1,2-0.1,3-0.1c1-0.1,2-0.1,3-0.2c8-0.8,15.8-3.1,23-6.6c1-0.5,1.9-1,2.9-1.5l2.7,2.4
		l-5.7,19l-1-0.4l-5.4,5.3l-5.3,27.6l3.1,8.3l12.1,3l1.9-1.7l8.5,3.8l4.7-3.8l-2-6.7l1.9-0.8l2.5,8.6l13.2-5.4l20,8.1l8.6-11.9
		l5.9,2.6l-3.8,5.6l7.2,3.3l16.7-3.8l3.7,1.9l19.4-2.5l6.7-8.2l-7.3-28.6l-5-2.7l3.7-10.3l11.8-4.8l4.1-21.2l11.1-2.6l16.5-37.9
		l0.2-2.1l10.4-2l2.7-5.6c0.6,0.1,1.1,0.3,1.7,0.5c0.6,0.2,1.1,0.4,1.7,0.6c0.6,0.2,1.1,0.5,1.7,0.7c2.2,1,4.2,2.3,5.9,3.9
		c0.9,0.7,1.6,1.6,2.4,2.5c0.7,0.9,1.4,1.8,1.9,2.9c1.2,2,2,4.3,2.6,6.6l7.8-1.7l-0.6-2.3c-0.2-0.8-0.4-1.5-0.7-2.3
		c-0.3-0.7-0.5-1.4-0.8-2.1c1.6-7.2,7.5-11.4,12.8-12.5c2.4-0.5,4.7-0.3,6.6,0.4c2.7,4.3,4.6,9.2,5.7,14.1l7.8-1.9
		C594.4,402.6,593.4,399.6,592.1,396.7z M351.8,452.9c-0.1,1.5-0.8,5.7-4,7.8c-5.7,0.5-11.5,0.2-17.1-1.2c1.5-0.9,2.8-2,4-3.4
		c0.3-0.3,0.5-0.7,0.8-1c1.9,0.5,3.7,1,5.6,1.4c2.5,0.5,5,0.9,7.6,1.2c1.2-1.9,1.6-4.2,1.6-5c0-0.3,0-0.7,0.1-1.1
		c-2.8,0.1-5.7,0-8.6-0.2c-1.3-0.1-2.7-0.2-4-0.3c1.6-3.5,2.3-7.5,2-11.3c0.7,0.2,1.5,0.3,2.2,0.5l2,0.2c0.7,0.1,1.3,0,2,0.1
		c0.5,0,0.9,0,1.3,0C350.6,443.2,352.2,448.4,351.8,452.9z M559.3,350.5l1.4,15.7c-0.8-0.4-1.6-0.8-2.4-1.1
		c-0.2-0.1-0.3-0.1-0.5-0.2l-1.4-15.8L559.3,350.5z M481.6,394.4l-0.1,1.8l3.5,2.3l-5,1.5l-1.7,0.5l-0.4,1.7l-4.4,17.4
		c-0.9,3.6-3.7,6.5-7.4,7.4c0,0-28.3,7.8-34.7,10.2c17.5,0.3,43.6-6.3,43.6-6.3c1.1-0.1,2-0.9,2.3-2v-0.2l5.9-23.3l5.7-1.7l9.8,7.8
		l-18,33.6l-14.3,6.6l-36.1-11.3l-3.3-4.6l3.9-14.2l4.2-15.5L481.6,394.4z M390.9,428.9L390.9,428.9l7.3-23.7l1.6,1.3l-1.4,21.2
		l-0.1,2.1l1.5,0.6L414,436l-6.5-6.2c-2-2-3.1-4.7-2.9-7.5l1.2-17l0.1-1.6l-1.2-1l-4.6-3.7l3.7-3l25.3,9.3l-4.1,15.1l-3.9,14.3
		l-7.9,7.4l-15.2,6.3l-8.2-6.5c0.3-0.5,0.6-0.9,0.8-1.4c0.5-0.8,0.8-1.8,1.1-2.7s0.4-1.9,0.5-2.9C392.3,433,391.9,430.9,390.9,428.9
		z M425.1,388l0.1,0.9l0.2,1.1l0.7,0.7l0.2,0.2c0.1,0.1,0.1,0.1,0.2,0.1l0.2,0.2c0.2,0.1,0.3,0.2,0.4,0.3c0.2,0.1,0.5,0.3,0.7,0.4
		l0.7,0.3l0.6,0.2c0.4,0.2,0.9,0.3,1.3,0.4c0.4,0.1,0.8,0.2,1.2,0.2c1.6,0.3,3.2,0.3,4.7,0.3c3.1-0.1,6-0.6,8.9-1.1
		c5.7-1.3,11.2-3.1,16.5-5.2c0.8-0.3,1.6-0.6,2.3-1c-0.8,1.3-1.7,3.1-2.2,4.5c3.4-1.2,7.5-4.6,7.5-4.6s-1.9,3-2.7,6.2l-33.8,8.5
		l-8.6-3.2c-2.9-1.1-3.7-4.8-1.5-7L425.1,388z M363.1,415.6l0.8-24.3l10-12.4l34.9-15.1l0.5,0.4l-7,3.5l-0.3,1.4l-2.7,13.8
		c-2.3,0.2-4.5,0.5-6.8,0.9l-4.4,0.7l-4.4,0.8c-2.9,0.6-5.9,1.1-8.8,1.9c-2.9,0.8-5.8,1.8-8.6,3.2c3.1,0.7,6.1,0.8,9.1,0.9
		c3,0,6-0.3,9-0.4l4.5-0.4l4.5-0.5c3-0.4,5.9-0.8,8.9-1.3l2.2-0.4l0.4-2l2.9-14.6l6.6-3.3l9.4,8.1l0.6,4.1L423,382l-7.5-5.8
		l-3.6,1.7l-2.3,13.7l-6.5-2.4l-8,6.4l-7.6,24.4l-18.7,1.3L363.1,415.6z M385.2,426.2l-2.7,8.7c-2-2.3-4.5-4-7.2-5.1
		c0.4-0.3,0.8-0.6,1.2-0.9c0.9-0.8,1.8-1.5,2.7-2.3L385.2,426.2z M354,459.7c0.2-0.5,0.4-1,0.7-1.6c1.9,0,3.8,0,5.7-0.1
		C358.3,458.7,356.2,459.3,354,459.7z M366.2,455.8c-1.2,0.5-2.3,1-3.5,1.5c0.9-0.8,1.7-1.7,2.4-2.5c1.6-1.9,2.1-3.8,2-5.6
		c-1.8,0.6-3.7,1.1-5.6,1.5c-1.8,0.3-3.6,0.6-5.5,0.8c0-3.9-1.2-8.1-3.5-11.2c0.3-0.2,0.7-0.3,1.1-0.3c1.2-0.3,2.5-0.5,3.7-0.8
		c1.1-0.3,2.1-0.6,3.2-1c3.1,1.3,6,4.3,7.4,7.9C368.7,448.3,369.5,452.4,366.2,455.8z M372.1,447c-0.2-0.8-0.4-1.5-0.7-2.3
		c-1.3-3.5-3.7-6.5-6.5-8.5c2.1-1,3.9-2,5.7-3.1c0.1-0.1,0.3-0.2,0.4-0.3c2.9,0.3,6.2,2.1,8.4,4.7c0.5,0.5,1,1.2,1.5,2.1l-2.2,2.6
		c-0.3,0.3-0.7,0.7-1,1C376,444.7,374.2,445.9,372.1,447z M375.9,516.1l-2.4,2.2l-5.9-1.4l-1.4-3.8l4.6-24.1l1.3-1.3l1.2,0.5
		l9.4,31.1L375.9,516.1z M388.3,453c-1.4,0.7-1.7,2.5-0.8,3.6l-4.7,2l-0.3-0.3l6.5-9.5l3,2.4L388.3,453z M403.3,513.4l-7.6,2.8
		l-3.5-22.3c-0.6-1.9,0-4,1.3-5.5l8.6-9.1l-7.5-8.4c-1-1.1-0.8-2.7,0.3-3.6l5.6-4.3l-5.5-6.6l3.7-1.8l17.7-7.3l1.3,2.2l-1.6,7.2
		l-11.4,5.3l10.4-0.6l-3.5,15.6l-6.4,2.6l5.6,1.3L403.3,513.4z M434.2,484.1l5.3,8.1c1.3,2,1.2,4.5-0.2,6.4l-15.4,21.1l-14.5-5.9
		l7.2-31.9l8,0.6l-7-4.8l3.6-16l14,2.7l-12.9-7.4l1.6-6.9l5.3-3.8l34.1,10.7l0.9,3l-20.5,5.5l8.3,7c1.4,1.2,1.1,3.4-0.6,4.2
		L434.2,484.1z M483.9,512.6l-3.2,4l-15.2,1.9l-4-2l-15.1,3.5l21.4-31.4l6.3-1.2l4,2.2L483.9,512.6z M504.5,438.6l-12,2.9l-4.2,21.8
		l-8.5,3.5l-9.4-6.6l-1-3.3l16.6-7.7l4.7-10.3c3.5,0.3,5-3.9,6.4-7.1l6.1-14.5c0.8,1.5,2.2,3.6,3.9,4.7l-0.8-6.3c0,0,2.3,4,5.7,5.8
		L504.5,438.6z M536,358.2l0.8,28l-5,10.3l-30.2,5.8l-13.9-11.1l0.9-28.2c4.7-0.1,13.4-0.7,15.9-0.8c3.1-0.2,6.1-0.4,9.2-0.7
		c3.1-0.3,6.1-0.7,9.2-1.3c3-0.6,6.1-1.3,9.1-2.5c-3.1-0.9-6.2-1.4-9.3-1.7c-3.1-0.3-6.2-0.4-9.2-0.4c-3.1,0-6.1,0-9.2,0.1
		c-2,0.1-7.8,0.5-12.5,0.9l7.3-12.3c2,0.9,4,1.8,6,2.6c2.5,1,5,2,7.5,2.9c2.5,0.9,5.1,1.8,7.7,2.5c2.6,0.7,5.2,1.4,8,1.8
		c-2.2-1.7-4.6-3.1-6.9-4.4c-2.4-1.3-4.8-2.5-7.2-3.6c-2.4-1.1-4.9-2.2-7.4-3.3c-0.8-0.3-1.5-0.6-2.3-0.9l24.7-5.7l26.6,12.6
		L536,358.2z M543.5,376.5l-1-0.3l-0.3-8.5c0.3,0.1,0.6,0.1,0.9,0.2c1.4,0.3,2.7,0.7,4.1,1.1c0.5,0.2,1.1,0.3,1.6,0.5
		c-0.5,0.4-1.1,0.9-1.6,1.4C545.8,372.5,544.5,374.4,543.5,376.5z M546.8,387c0.4,0.2,0.7,0.3,1.1,0.5c1.4,0.6,2.7,1.2,4,1.9
		c0,0,0.3,0.2,0.7,0.4c-0.2,1.1-0.4,2.3-0.5,3.5c-1.5-1.1-3.2-2-4.8-2.7c-0.4-0.2-0.8-0.3-1.2-0.5c-1.8-4.7-0.1-12.1,4.1-16.3
		c1-1,2.2-1.9,3.7-2.4c0.5,0.2,0.9,0.4,1.4,0.6c3.2,1.4,6.3,3,9.2,4.8c-1.1,0.4-2.2,0.9-3.3,1.5c-2,1.2-3.7,2.9-5.2,4.8
		c-1.4-1-2.9-1.9-4.4-2.7c-1-0.5-2-1.1-3-1.6h-0.1C547.3,381.4,546.6,384.4,546.8,387z M574.3,389.1c-2.6,0.5-5.3,1.7-7.7,3.4
		c-1.9-2.2-4-4.3-6.2-6.2c-1.4,1.8-2.3,4-2.7,6.3c1.7,1.1,3.4,2.2,5,3.5c-1.2,1.4-2.2,3-3,4.7c-0.4-0.5-0.8-1.1-1.2-1.6
		c-0.8-0.9-1.6-1.9-2.5-2.8c-0.5-5.8,2.4-11.8,7.3-14.8c1.3-0.8,3.5-1.8,6-1.6c0.2,0.1,0.3,0.2,0.5,0.4c2.2,1.7,4.3,3.6,6.2,5.6
		c0.8,0.9,1.6,1.8,2.4,2.7C577.1,388.7,575.8,388.8,574.3,389.1z"/>
	<path d="M567,399.6c2,1.8,3.9,3.6,5.7,5.7l0.9-0.4c-0.8-2.8-2.1-5.4-3.7-7.9C568.8,397.7,567.8,398.6,567,399.6z"/>
	<path d="M330.6,452.6c0.5-0.6,1-1.3,1.4-2.1c-0.1,0-0.1,0-0.2,0c-1.7-0.2-3.3-0.5-5-0.8s-3.3-0.7-4.9-1.2l-0.4,0.9
		c2.7,1.6,5.5,2.8,8.4,3.9C330.1,453.1,330.3,452.8,330.6,452.6z"/>
</g>
</svg>
