<?xml version="1.0" encoding="utf-8"?>
<!-- Generator: Adobe Illustrator 24.0.1, SVG Export Plug-In . SVG Version: 6.00 Build 0)  -->
<svg version="1.1" id="Layer_1" xmlns="http://www.w3.org/2000/svg" xmlns:xlink="http://www.w3.org/1999/xlink" x="0px" y="0px"
	 viewBox="0 0 800 800" style="enable-background:new 0 0 800 800;" xml:space="preserve">
<style type="text/css">
	.st0{fill:#FFFFFF;}
</style>
<path id="white" class="st0" d="M371.9,498.9c0,0-3.3,5.9,23.2,12s84.5,7,84.8-2.5c0.3-9.5-5.3-22.6-5.3-22.6L483,454
	c0,0,17.3-9.2,22.6-46.6c0,0,10.3,5.9,27.3-11.7c0,0,25.1,9.5,26.8,15.9s1.1,24.8,3.1,25.9s31,1.4,32.6-14.5
	c1.7-15.9-5.6-42.4-13.7-50.8c-8.1-8.4-34.9-7.3-34.9-7.3s-5.9-8.4-14-8.9c-8.1-0.6-21.8,2.8-21.8,2.8s-8.6-3.9-18.7-2
	S465,377.4,465,377.4l-6.4,9.5c0,0-23.3,9.5-22.9,5.5s2.3-9.4,2.3-9.4l0.8-8.6c0,0-16.5-1.7-25.9,2.5c-9.5,4.2-22.3,11.4-20.6,25.7
	c0,0-15.9,9.8-22.9,18.7c-7,8.9-4.7,12.3-4.7,12.3s-20.9-0.6-28.5-0.6s-37.4-3.4-34,11s24.8,21.7,33.5,22.8
	c8.6,1.1,24.8-3.6,24.8-3.6l21.2-2.2l-1.7,13.7C380,474.6,372.2,490.8,371.9,498.9z"/>
<g id="black">
	<path d="M435.9,402.5c-1.7,1-3.5,2.2-5,3.5c-0.8,0.7-1.5,1.4-2.3,2.1c-0.4,0.4-0.8,0.7-1.1,1.1l-1,1.2c-0.7,0.8-1.3,1.6-2,2.4
		c-0.6,0.9-1.1,1.7-1.7,2.6c-0.3,0.4-0.6,0.9-0.8,1.3l-0.7,1.4c-0.5,0.9-0.9,1.9-1.3,2.9c-1.6,3.9-2.5,8.1-2.7,12.3
		c-0.1,4.2,0.3,8.4,2.2,12.4c0.2,0.5,0.7,0.8,1.2,0.9c0.9,0.1,1.6-0.5,1.7-1.4v-0.3c0-0.4,0-0.9,0.1-1.4c0-0.5,0-0.9,0.1-1.4
		c0.1-0.9,0.2-1.9,0.3-2.8c0.2-1.8,0.5-3.7,0.8-5.5c0.7-3.6,1.5-7.1,2.8-10.5c0.3-0.9,0.7-1.7,1-2.6l0.5-1.3l0.6-1.3
		c0.4-0.8,0.8-1.7,1.1-2.5c0.4-0.8,0.9-1.6,1.3-2.5l0.6-1.3l0.7-1.2c0.5-0.8,0.9-1.7,1.4-2.5c0.9-1.7,2.1-3.3,3-5.1v-0.1
		c0.1-0.2,0.1-0.3,0-0.5C436.5,402.5,436.2,402.4,435.9,402.5z"/>
	<path d="M441.5,375.5c0.3-1.6-0.7-3.2-2.3-3.5c-2.8-0.6-5.6-0.9-8.4-1c-2.8,0-5.6,0.2-8.4,0.5c-5.6,0.9-11,2.5-16,5
		s-9.8,5.6-13.9,10c-1,1.1-2,2.3-2.8,3.7c-0.8,1.4-1.6,2.9-2,4.8c-0.1,0.5-0.2,0.9-0.2,1.4s0,1,0,1.6c0.1,0.5,0.1,1.1,0.2,1.6
		c0.1,0.5,0.3,1.1,0.5,1.6c0.1,0.3,0.2,0.5,0.4,0.7c-0.6,0.2-1.2,0.3-1.8,0.5c-0.9,0.4-1.8,0.7-2.8,1.1c-0.9,0.4-1.8,0.8-2.7,1.3
		c-3.6,1.8-6.8,4.3-9.8,7.2c-2.8,3-5.2,6.4-6.7,10.2c-0.7,1.9-1.2,3.8-1.5,5.8c-1.1-0.5-2.2-0.8-3.3-1c-3.2-0.6-6.2-0.4-9,0.2
		c-0.7,0.1-1.4,0.3-2.1,0.5l-1.7,0.4c-1.1,0.3-2.2,0.5-3.4,0.7c-2.2,0.4-4.5,0.7-6.7,0.7c-1.1,0.1-2.2,0-3.3-0.1
		c-0.5,0-1.1-0.1-1.6-0.2c-0.3,0-0.5-0.1-0.7-0.1l-0.3-0.1h-0.1H331c-1.5-0.7-3.3-0.1-4,1.4s-0.1,3.3,1.4,4l0.7,0.3l0.5,0.3
		c0.4,0.2,0.7,0.3,1,0.4c0.7,0.3,1.4,0.5,2.1,0.7c1.4,0.4,2.8,0.6,4.2,0.7c2.8,0.3,5.5,0.2,8.2-0.1c0.7-0.1,1.3-0.2,2-0.3
		c0.7-0.1,1.3-0.2,2-0.4l1.9-0.4c0.5-0.1,1.1-0.2,1.6-0.3c2.1-0.4,4.1-0.5,5.9-0.1c1.7,0.3,3,1.1,3.9,2.2c0.9,1.1,1.5,2.8,1.6,4.6
		c0.2,1.9,0,3.9-0.4,5.9c-0.4,2.1-1.2,4.1-2.1,6.3v0.1c-0.3,0.6-0.2,1.3,0.2,1.9c0.6,0.9,1.9,1.2,2.8,0.6c2.4-1.6,4.3-3.9,5.6-6.5
		c1.3-2.6,2.1-5.6,2.1-8.7c0-3.1-1-6.5-3.2-9.3c-0.3-0.4-0.7-0.8-1-1.2c0.2-0.5,0.5-1,0.7-1.4c0.9-1.5,1.7-2.9,2.6-4.3
		c1.8-2.7,3.9-5.2,6.2-7.3c1.3-1,2.4-2.1,3.9-2.9c0.7-0.4,1.3-1,2-1.3c0.6-0.4,1.3-0.7,1.9-1.1c-0.9,1.7-1.8,3.4-2.6,5.2
		c-1.3,3-2.5,6.1-3.4,9.3c-0.1,0.4-0.2,0.9-0.3,1.3c-0.1,0.5-0.2,0.9-0.3,1.4s-0.1,0.9-0.1,1.4s-0.1,0.9,0,1.4c0,1.9,0.4,3.8,1,5.5
		c0.8,2.5,2.1,4.8,3.6,6.8c-0.1,0.3-0.2,0.5-0.4,0.8c-0.3,0.6-0.5,1.2-0.8,1.8c-0.5,1.2-0.9,2.4-1.4,3.6c-0.5,1.4-0.9,2.8-1.3,4.2
		c-0.8,0.9-1.7,1.6-2.7,2.3c-1.3,0.8-2.9,1.4-4.6,1.8c-1.7,0.4-3.5,0.6-5.3,0.6c-0.9,0-1.8,0-2.7-0.1c-0.5,0-0.9-0.1-1.4-0.1
		c-0.4,0-0.9-0.1-1.2-0.2c-0.8-0.1-1.6-0.1-2.4,0.3c-4.3,2.1-8.9,3.4-13.6,3.6c-4.7,0.3-9.4-0.5-13.9-2.1c-4.5-1.6-8.8-4-12.8-7
		c-2-1.5-3.9-3.1-5.7-4.7c-0.9-0.8-1.8-1.7-2.6-2.6c-0.4-0.4-0.8-0.9-1.2-1.4c-0.4-0.4-0.8-0.9-1.1-1.3v-0.1c-1.4-1.8-4-2-5.7-0.6
		c-1.8,1.4-2,4-0.6,5.7c0.5,0.7,1,1.2,1.4,1.7c0.5,0.5,0.9,1,1.4,1.5c1,1,2,2,3,2.9c2,1.9,4.2,3.7,6.4,5.3c4.5,3.3,9.5,6.1,14.9,8
		c5.4,1.9,11.2,2.9,17,2.5c5.4-0.3,10.7-1.8,15.5-4c0.2,0,0.3,0,0.5,0.1c0.6,0.1,1.1,0.1,1.7,0.1c1.1,0.1,2.3,0.1,3.4,0.1
		c2.3-0.1,4.6-0.3,6.9-0.9c1.1-0.3,2.3-0.6,3.4-1.1c0,0.1,0,0.2,0,0.2c-0.3,2.2-0.3,4.5-0.2,6.8c-0.5,0.8-1,1.5-1.4,2.3
		c-0.6,1-1.1,2.1-1.7,3.1c-1,2.1-1.9,4.3-2.7,6.5c-0.8,2.2-1.4,4.5-1.9,6.7c-0.5,2.3-0.9,4.6-1.2,6.9c0,0.1,0,0.2,0,0.3
		c-0.1,2.2,1.6,4.1,3.8,4.2c2.2,0.1,4.1-1.6,4.2-3.8v-0.1c0.1-2,0.2-4.1,0.5-6.1s0.7-4.1,1.2-6.1s1.2-4,1.9-5.9
		c0.4-1,0.8-1.9,1.2-2.8c0.2-0.5,0.4-0.9,0.7-1.4c0.2-0.4,0.5-0.9,0.7-1.2c0.3-0.5,0.5-1.1,0.5-1.7c0.1-2.3,0.2-4.5,0.7-6.7
		c0.4-2.2,0.9-4.5,1.6-6.6c0.7-2.2,1.5-4.3,2.4-6.4c0.5-1,0.9-2.1,1.5-3.1c0-0.1,0.1-0.2,0.1-0.2c0.7,0.4,1.4,0.8,2.2,1.1
		c0.8,0.3,1.6,0.5,2.6,0.5c0.1,0,0.2,0,0.3-0.1c0.4-0.2,0.5-0.6,0.3-1c-1.5-3.1-3.6-5-5-7.5c-1.5-2.4-2.6-4.8-3.1-7.2
		c-0.2-1.2-0.3-2.4-0.2-3.6s0.2-2.4,0.5-3.7c0.6-2.8,1.5-5.6,2.6-8.3c2.2-5.4,5.1-10.6,8.7-15.2c1.8-2.3,3.7-4.5,5.9-6.5
		c1.1-1,2.2-1.9,3.3-2.9s2.1-2.2,3-3.8v-0.1c0-0.2-0.1-0.3-0.3-0.4c-1.8-0.2-3.5,0.2-5,0.8s-2.9,1.6-4.2,2.5
		c-1.6,1.1-3.1,2.3-4.5,3.6c-0.4-0.3-0.6-0.5-0.7-0.8c0-0.1-0.1-0.1-0.1-0.3c0-0.1,0-0.2-0.1-0.3c0-0.1,0-0.3,0-0.4
		c0-0.1,0.1-0.3,0.1-0.5c0.1-0.7,0.4-1.6,1-2.5c0.5-0.9,1.2-1.8,1.9-2.7c3-3.5,7-6.5,11.4-8.7c4.3-2.3,9.1-3.9,13.9-4.9
		c2.4-0.4,4.9-0.7,7.3-0.7c2.5,0,4.9,0.2,7.3,0.6h0.1C439.7,378.1,441.2,377.1,441.5,375.5z"/>
	<path d="M451.8,462.5c-0.6-0.2-1.2,0-1.4,0.6c-0.5,1.3-1.1,2.6-1.8,3.9c-0.7,1.3-1.4,2.5-2.1,3.7s-1.5,2.3-2.4,3.4
		c-0.8,1.1-1.7,2-2.6,3L441,478c-0.3,0.6-0.4,1.2-0.2,1.9l5.8,20.6c0.2,0.6,0.7,1,1.3,0.9c0.7,0,1.2-0.6,1.2-1.4l-1.2-20.1
		c0.5-1,0.9-1.9,1.3-2.9c0.6-1.5,1.1-2.9,1.5-4.4c0.4-1.5,0.8-2.9,1.1-4.4c0.3-1.5,0.5-2.9,0.7-4.5
		C452.5,463.2,452.2,462.7,451.8,462.5z"/>
	<path d="M396.1,465.8c-0.4-2.5-0.7-5.1-0.9-7.6c0-0.5-0.4-0.9-1-1c-0.6-0.1-1.2,0.3-1.4,0.9c-0.5,2.6-0.8,5.2-1.2,7.8
		c-0.3,2.3-0.5,4.7-0.7,7.1c-0.4,1.7-0.8,3.4-1.2,5.1c-0.4,1.9-0.8,3.8-1.1,5.7c-0.6,3.8-1.2,7.7-1.2,11.6c0,0.3,0.2,0.6,0.6,0.7
		c0.4,0.1,0.8-0.1,0.9-0.5c0.9-3.7,2.2-7.2,3.6-10.7c0.7-1.7,1.5-3.5,2.3-5.2s1.6-3.4,2.4-5v-0.1c0.2-0.4,0.3-0.9,0.2-1.3
		C396.9,470.8,396.4,468.3,396.1,465.8z"/>
	<path d="M432.2,476.7c-1.7-0.2-3.2-0.2-4.8-0.4c-1.6-0.1-3.1-0.3-4.6-0.5s-3-0.4-4.6-0.6l-2.4-0.4c-0.1-1.5-0.1-2.9,0-4.4
		c0.1-1.8,0.3-3.7,0.6-5.5c0.3-1.9,0.6-3.7,1.1-5.6c0.2-0.9,0.5-1.8,0.6-2.8c0.2-1,0.2-1.9,0.1-3v-0.1c0-0.2-0.1-0.4-0.3-0.6
		c-0.4-0.5-1.2-0.6-1.7-0.2c-1.8,1.5-2.4,3.4-3.2,5.3c-0.7,1.9-1.3,3.9-1.8,5.9c-0.8,3.4-1.3,7-1,10.7c-0.1,0-0.3,0-0.4,0
		c-1.1,0.1-2.1,0.1-3.2,0c-1.1,0-2.1-0.1-3.2-0.2l-3.2-0.3h-0.1c-0.2,0-0.3,0-0.4,0.2c-0.2,0.2-0.1,0.5,0.1,0.7
		c1.9,1.6,4.2,2.1,6.5,2.6c1.1,0.2,2.3,0.3,3.4,0.4c-0.2,0.7-0.3,1.3-0.5,2c-0.3,1.6-0.6,3.1-0.8,4.7c-0.5,3.2-0.7,6.4-0.4,9.7
		c0,0.3,0.2,0.5,0.5,0.6c0.4,0.1,0.8,0,0.9-0.4c1.1-3,2.1-5.9,3.1-8.8l2.5-6.9c0.8,0.2,1.6,0.4,2.4,0.6c1.7,0.3,3.4,0.4,5,0.4
		c1.7,0,3.4-0.2,5-0.5c1.6-0.3,3.3-0.8,4.8-1.5c0.2-0.1,0.3-0.2,0.3-0.4C432.7,476.9,432.5,476.7,432.2,476.7z"/>
	<path d="M463.7,440.7c4.2-1.2,7-4.1,6.3-6.5c-0.7-2.3-4.6-3.2-8.8-2s-7,4.1-6.3,6.5C455.5,441.1,459.5,442,463.7,440.7z"/>
	<path d="M396.3,433.4c-2.5-2.2-5.5-2.8-6.7-1.4c-1.2,1.4-0.3,4.3,2.2,6.5s5.5,2.8,6.7,1.4C399.7,438.5,398.8,435.6,396.3,433.4z"/>
	<path d="M597.7,412.3c-0.1-2-0.2-4-0.4-6c-0.4-4-1.1-8-2-12s-2.2-7.9-3.8-11.7c-0.8-1.9-1.8-3.8-2.7-5.6c-0.5-0.9-1.1-1.8-1.7-2.7
		c-0.3-0.5-0.5-0.9-0.9-1.4l-1-1.3c-2.7-3.5-6.3-6.6-10.3-8.6c-4-2.1-8.4-3.3-12.8-3.6c-4-0.3-8,0-11.9,0.8
		c-1.6-1.5-3.4-2.8-5.3-3.9c-2.9-1.7-6.1-2.8-9.3-3.4c-6.5-1.2-13-0.4-19,1.6c-1,0.4-2,0.8-3,1.2c-2.1-1.3-4.5-2.3-6.9-2.8
		c-3.2-0.7-6.4-0.8-9.4-0.5c-6.1,0.7-11.7,3-16.7,5.9c-2.5,1.5-4.8,3.2-7.1,5c-2.2,1.8-4.3,3.8-6.1,6c-1.9,2.2-3.5,4.6-4.7,7.2
		c-1.3,2.6-2.2,5.4-2.4,8.3c0,0.4,0.2,0.9,0.6,1.1c0.6,0.3,1.3,0.1,1.6-0.5c2.6-4.5,6-8.2,9.7-11.6c3.7-3.4,7.8-6.4,12.3-8.6
		c2.2-1.2,4.5-2.1,6.8-2.9s4.6-1.3,6.9-1.6c2.1-0.2,4.2-0.2,6.1,0.1c-6.3,4.7-11.3,10.9-14.5,18c-0.5,1.2,0,2.6,1.1,3.2
		c1.2,0.6,2.7,0.1,3.3-1.1c4.9-9.8,13.9-17.4,24.2-20.5c5.1-1.5,10.5-1.9,15.4-0.7c3.3,0.8,6.4,2.3,9,4.4c-2.3,2-4.6,4.7-5.1,8.1
		c-0.3,1.9,9.7-3.1,13.1-3.8c3.4-0.8,6.9-1.1,10.4-0.8c6.9,0.6,13.2,3.5,17.5,8.8l0.8,1c0.3,0.3,0.5,0.7,0.8,1.1
		c0.5,0.7,1,1.5,1.5,2.2c0.9,1.6,1.8,3.1,2.6,4.8c0.9,1.6,1.5,3.4,2.2,5.1c0.6,1.8,1.3,3.5,1.8,5.3c1.1,3.6,2,7.3,2.7,11
		s1.3,7.6,1.6,11.3v0.1c0.1,1.1,1,2,2.2,2.1c1.3,0.1,2.4-0.9,2.4-2.2C597.8,416.3,597.8,414.4,597.7,412.3z"/>
	<path d="M427.9,392.1c1,0.7,2,1.5,2.8,2.2c0.4,0.4,0.8,0.7,1.4,1c0.6,0.3,1.1,0.5,2.2,0.7h0.2c0.6,0.1,1.2-0.2,1.4-0.8
		c0.3-1,0.3-2-0.1-2.8c-0.3-0.9-0.9-1.5-1.5-2.1c-1.3-1.1-2.7-1.9-4.2-2.5c-1.5-0.6-3-1-4.5-1.2s-3-0.2-4.6,0.1
		c-0.2,0-0.3,0.1-0.4,0.3c-0.1,0.3,0,0.6,0.3,0.8C423.4,389.3,425.8,390.6,427.9,392.1z"/>
	<path d="M442,395.7c1.1-0.2,1.8-0.3,2.6-0.5c0.8-0.2,1.5-0.5,2.2-0.8c1.5-0.7,3.3-1.2,5-1.8c3.5-1.1,7.2-1.9,11-3.2
		c0.2-0.1,0.3-0.2,0.4-0.4c0.1-0.3-0.1-0.6-0.4-0.7c-2-0.5-4-0.7-6-0.8c-2-0.1-4,0-6,0.3s-4,0.7-6.1,1.5c-1,0.4-2,1-2.9,1.9
		c-0.8,0.9-1.6,2.1-1.4,3.6v0.1c0.2,0.6,0.8,1,1.3,0.9L442,395.7z"/>
	<path d="M561.7,407.9c-0.6-0.7-1.3-1.4-2.1-2c-0.7-0.5-1.4-1-2.1-1.4c-2.7-1.6-5.2-2.8-7.6-4c-2.4-1.2-4.7-2.4-6.8-3.7
		c-1-0.7-2-1.4-2.9-2.1s-1.6-1.5-2.3-2.3c-1.3-1.6-2-3.4-2.2-5.5c0,0-0.1-6.7-0.8-9.7c-0.2-0.7-0.9-1.1-1.6-0.7
		c-2.5,1.4-4,5.7-4.7,8.4c-0.4,1.6-0.6,3.3-0.3,4.9c0.1,0.9,0.4,1.8,0.7,2.7c0.1,0.3,0.2,0.7,0.4,1c-1.2,3.8-3.2,6.4-6.4,8.1
		c-4.4,2.4-21.6,3.1-31.8,0.4c-0.1-0.2-0.3-0.5-0.4-0.7c0.4-0.2,0.8-0.4,1.2-0.6l1.8-0.9c0.6-0.3,1.2-0.6,1.9-0.8
		c1.2-0.6,2.5-1.1,3.8-1.6c0.7-0.2,1.3-0.5,2-1c0.6-0.4,1.3-0.9,1.9-1.7c-1.6-1.1-3.2-1.3-4.7-1.1c-1.5,0.1-3,0.4-4.5,0.7
		c-0.8,0.2-1.5,0.4-2.2,0.7l-1.1,0.4l-1.1,0.5c-0.7,0.3-1.4,0.7-2.1,1.2c-0.4,0.2-0.7,0.5-1,0.7c-0.1,0.1-0.2,0.2-0.3,0.3
		c-0.9,0.1-1.8,0.6-2.2,1.6c-0.4,0.8-0.5,1.7-0.1,2.7c0,0,0,0,0,0.1l0.1,0.2c2.1,4.9,3.5,10,3.8,15.1c0.1,2.6-0.1,5.1-0.6,7.6
		c-0.2,0.6-0.3,1.3-0.5,1.9l-0.6,1.8l-0.7,1.8c-0.2,0.6-0.6,1.2-0.8,1.8c-1.2,2.3-2.7,4.5-4.4,6.5c-1.7,2-3.7,3.9-5.9,5.6
		c-2.1,1.7-4.4,3.3-6.8,4.6c-1.2,0.7-2.4,1.3-3.7,1.9c-0.6,0.3-1.3,0.5-1.9,0.7c-0.6,0.2-1.3,0.4-1.9,0.3h-0.1
		c-0.1,0-0.3,0.1-0.3,0.2c-0.1,0.2,0,0.3,0.1,0.4c0.8,0.4,1.6,0.3,2.3,0.4c0.8,0,1.5-0.1,2.2-0.2c1.5-0.2,2.9-0.6,4.3-1.1
		c2.8-0.9,5.5-2.2,8.1-3.7c2.6-1.5,5-3.4,7.2-5.5c2.2-2.1,4.2-4.5,5.9-7.1c1.9-2.9,3.3-6.2,4.1-9.6c1.8-0.2,4.1-0.7,6.7-2.1
		c-0.7,2-1.5,4.3-2.7,6.9c-4.6,10.8-15.6,17.6-19.2,18.8c-0.6,0.2-0.9,0.5-0.9,0.9c-1.4,16.2-6.7,35.3-6.7,35.5
		c-0.2,0.8-0.2,1.7,0.1,2.6c3.4,8.4,5.8,21.6,5.8,21.7c0.4,1.9,2,3.3,3.9,3.3c0.2,0,0.5,0,0.7-0.1c2.2-0.4,3.6-2.5,3.2-4.7
		c-0.1-0.5-2.4-12.9-5.8-22c1.1-4,4.2-16.4,5.9-29.1c0.1-0.8,0.6-1.8,0.7-2.1c0,0,22.5-13.3,26.3-40.6c0.2-1.7,1.6-3,3.4-3.2
		c4.4-0.3,7.8-1.1,11.5-3.1c3.4-1.8,6-4.4,7.9-7.7c1.2,1.1,2.4,2,3.7,2.8c2.6,1.7,5.2,3,7.7,4.2s5.1,2.3,7.1,3.5
		c0.5,0.3,1,0.6,1.4,0.9c0.3,0.2,0.7,0.5,1,0.8c0.6,0.6,1.1,1.4,1.5,2.3c1.7,3.7,1.8,9.3,1.6,14.4v0.2c-0.1,0.9,0.5,1.8,1.5,2.1
		s2.1-0.3,2.6-1.3c0.6-1.4,1.1-2.7,1.4-4.1c0.4-1.4,0.7-2.9,0.8-4.4c0.5-3.2,0.4-6.5-0.7-9.8C563.8,411,562.9,409.4,561.7,407.9z"/>
</g>
</svg>
