<?xml version="1.0" encoding="utf-8"?>
<!-- Generator: Adobe Illustrator 24.0.1, SVG Export Plug-In . SVG Version: 6.00 Build 0)  -->
<svg version="1.1" id="Layer_1" xmlns="http://www.w3.org/2000/svg" xmlns:xlink="http://www.w3.org/1999/xlink" x="0px" y="0px"
	 viewBox="0 0 800 800" style="enable-background:new 0 0 800 800;" xml:space="preserve">
<style type="text/css">
	.st0{fill:#FFFFFF;}
</style>
<g id="black">
	<path d="M394.7,488c-0.1-0.1-0.2-0.3-0.3-0.4c0.8-4.2,21.8-35.1,26.9-49.2c5.2-14.4,3.6-35.2,5.9-44.8c2.4-9.6,14-13.6,14-13.6
		l2.2-22.2c-13.9,3-21.1,10.4-24.1,14.2c-1.1,1.5-2.8,2.4-4.7,2.5c-11.2,0.8-23.9,7.7-26.4,9.3c-0.8,0.5-1.2,1.4-1.1,2.3
		c0.5,5.5-1.3,14.2-2.1,17.6c-0.2,0.8-0.7,1.6-1.4,2.1c-2.3,1.5-2.6,3.4-2.6,4.4c0,0.7-0.2,1.3-0.6,1.8c-3,3.5-4.6,5.7-7.6,7.9
		c-0.6,0.5-1.5,0.7-2.3,0.5c-2.7-0.7-3.9,0.9-4.4,2.3c-0.4,1.1-1.4,1.8-2.6,1.9c-6.4,0.7-20.6,0.3-25.3-0.3
		c-4.9-0.6-8.4,5.5-8.9,6.5c0,0-0.1,0.1-0.1,0.1c0,0,0,0,0,0c0,0.1,0,0.1,0,0.1l0.4,0c0.9,0.2,3.3,0.7,3.6,1
		c0.4,0.4,0.3,0.9,0.3,0.9c0.2,0.7,0.3,1.5,0.4,2.3c0.2,2,0.2,4.2,0.1,6.4c-0.3,4.4-0.9,8.8-1.9,13.1c-0.6,2.5-1.2,4.9-2,7.3
		l-17.3-4c-0.8,1.4-1.2,2.6-1.6,3.8c-0.4,1.2-0.8,2.4-1.1,3.5c-0.6,2.3-1.1,4.7-1.6,7c-0.8,4.7-1.5,9.4-1.5,14.4
		c0,1.3,0.1,2.5,0.3,3.9c0.1,0.7,0.2,1.4,0.4,2.2c0.2,0.8,0.5,1.6,1.1,2.6c0.3,0.5,0.7,1,1.3,1.5s1.4,0.9,2.2,1.1
		c1.2,0.8,2.6,1.4,4,2c-0.2,0.3-0.3,0.7-0.4,1c-0.3,1.9-2.4,13.1-2.2,14.1c0.3,1,0.6,2.4,2.3,2.3c1.7-0.1,11-1.1,10.9-2.3
		c-0.1-1.2,1-2.4-1.1-7.4c-0.8-1.9-1.7-4.2-2.7-6.2c12.4,1.4,27.7-3.4,33.7-9.8c0.4-0.4,1.2-0.1,1.1,0.5c-0.9,7.1,5.8,7.4,5.8,7.4
		l1.8-4.6c0,0,6.6-2,12.4,2.2c-1.7,1.3-2.4,2.7-2.1,4.4c0,0.1,0,0.3,0.1,0.5c1.4,7.9,4.3,11.9,8.9,11.9c0.1,0,0.2,0,0.4,0
		c4.3-0.2,19.1-6.4,19.5-11c0.3-2.6-4.1-11.8-6.6-14C396.7,487.8,395.4,487.8,394.7,488z M384.9,507.8c-0.3,0-1.8-0.2-2.9-6.2
		c0.2-0.1,0.5-0.3,0.8-0.4c0.5,0.1,1,0.1,1.5-0.2l11.1-5.3c0.1-0.1,0.2-0.1,0.3-0.2c1,2.1,2.2,4.7,2.7,6.2
		C395.9,503.6,388.2,507.6,384.9,507.8z"/>
	<path d="M602.5,394.7c-3.8-6.3-27.2-50.5-84.9-37.4c-1.1,0.3-2.3-0.3-2.8-1.3c-1.2-2.4-3.7-6.3-6-6.1c-3.3,0.3-20.8,7.1-28.2,6.2
		c0,0-0.7,7.5-6.7,13s-13.9,13.1-25,37.9c-7.8,17.5-12.4,29.1-14.5,34.5c-0.9,2.2-1.3,4.5-1.3,6.9c-0.1,8-0.5,27.5-1.6,31.5
		c-0.4,1.6-1.1,3-1.6,4.1c-1.9,0.8-4.1,1.8-6.5,3.3c-2.5,1.5-4.3,3.9-5.2,6.7c-0.7,2.2-1.7,5-2.8,7.1c-0.3,0.6-0.6,1.1-0.9,1.6
		c-1.1,1.8,0.6,4,2.7,3.4c2.4-0.7,5-1.6,7.2-2.7c5.7-2.9,4.2-7,17.3-8.6c5.3-0.6,10.2-1.2,14.2-1.8c8.6,1.6,17.2,3.5,21.1,5.1l1.1,7
		c0,0,18.8-2.4,23.2-4.9c3.9-2.2,8.2-29.7,2.7-36.6c-0.8-0.9-1.2-2.1-1.2-3.3c0-10.1,0.4-23.2,1.4-29.6c1.1-6.9,2.8-14.3,2.8-14.3
		s10-8.1,22.2-2.3c12.2,5.8,11.2,8.5,11.2,8.5s0.7,4.9,10.7,0.2l8.4-13.6l-1.5-6.7c0,0,14.5-9.8,30.8-1l10.6,6.9
		C599.1,408.2,606.3,401.1,602.5,394.7z"/>
</g>
<g id="white">
	<path class="st0" d="M340.1,430.5c-0.1-0.2-0.4-0.3-0.6-0.2c-0.2,0.1-0.4,0.3-0.3,0.6v0.1c1,2.9,1.4,6,1.6,9.1
		c0.1,1.5,0.1,3.1,0.1,4.6c-0.1,1.5-0.2,3.1-0.3,4.6c-0.2,1.6-0.4,3.1-0.7,4.6c-0.2,1.5-0.6,3-0.9,4.5c-0.8,3-1.7,6-2.7,8.9
		c-2.2,5.8-4.6,11.5-8.2,16.3c-1.7,2.4-3.8,4.5-6.3,6.1c-1.2,0.8-2.6,1.4-4,1.8c-1.4,0.4-3,0.6-4.4,0.5c-0.3-0.1-0.5,0.1-0.5,0.4
		c-0.1,0.2,0,0.5,0.3,0.6c3.3,1.3,6.9,0.8,10.1-0.6s5.9-3.7,8.2-6.2c4.5-5.1,7.3-11.2,9.4-17.4c1-3.1,1.9-6.3,2.5-9.5
		c0.3-1.6,0.5-3.3,0.7-4.9c0.2-1.6,0.3-3.3,0.3-4.9c0.1-3.3-0.2-6.6-0.9-9.8S341.9,433.4,340.1,430.5z"/>
	<path class="st0" d="M427.9,384.6c0.3,0,0.5-0.1,0.7-0.2c0.1-0.3,0-0.6-0.2-0.7c-0.8-0.5-1.6-0.7-2.5-0.8c-0.9-0.1-1.8,0-2.6,0.2
		c-1.6,0.3-3.2,1-4.6,1.8c-1.5,0.8-2.9,1.7-4.2,2.6c-0.8-0.9-1.7-1.6-2.7-2.3c-0.6-0.4-1.3-0.8-2.1-1.2c0.2-0.2,0.4-0.5,0.7-0.7
		c0.7-0.7,1.4-1.5,2.2-2.2c0,0.1,0,0.2,0.1,0.2c0.6,1.1,2.6,1.3,4.6,0.3c2-1,3.1-2.7,2.6-3.8c-0.4-0.9-1.8-1.1-3.3-0.8
		c0.5-0.5,0.9-1,1.4-1.6c0.1-0.1,0.2-0.2,0.1-0.4c0-0.3-0.3-0.4-0.5-0.4c-1.4,0.2-2.6,0.6-3.8,1.2c-1.2,0.5-2.3,1.2-3.4,2
		c-1,0.8-2,1.7-2.9,2.7c-0.9,1-1.7,2.1-2.4,3.3l-0.1,0.2c-0.1,0.3-0.2,0.5-0.2,0.8c-0.1,1,0.6,1.9,1.6,2c0.3,0,0.7,0,1,0.1
		c0.4,0,0.7,0.1,1.1,0.2c0.8,0.2,1.5,0.4,2.2,0.6c0.7,0.3,1.5,0.5,2.2,0.8l0.1,0.1c-0.8,0.5-1.5,1.1-2.2,1.6c-2.6,1.8-5,3.7-7.5,5.6
		c-2.5,1.8-4.9,3.7-7.4,5.5c-0.8,0.5-1.2,1.5-0.9,2.5c0.1,0.5,0.3,0.9,0.4,1.3c-1.3,2.1-2.3,4.5-3.1,6.8c-1.1,3.1-2.1,6.3-2.9,9.5
		c-0.4,1.6-0.8,3.2-1.2,4.8c-0.6-0.6-1.2-1.2-1.9-1.7c-1.1-0.9-2.4-1.5-3.7-2s-2.7-0.8-4-0.9c-1.3-0.1-2.7-0.3-4,0.5
		c1.3,0.7,2.5,0.8,3.6,1.2c1.2,0.3,2.4,0.8,3.4,1.4c1,0.6,2,1.3,2.8,2.1c0.9,0.7,1.5,1.7,2.2,2.6l0.1,0.1c0.2,0.2,0.4,0.4,0.7,0.5
		c-0.5,2.3-1,4.7-1.5,7c-0.2-0.5-0.5-0.9-0.8-1.3l-0.9-1.4c-0.4-0.4-0.7-0.9-1.1-1.3c-0.7-0.9-1.5-1.7-2.3-2.5
		c-1.7-1.5-3.5-2.9-5.6-3.9c-1-0.5-2-1-3.2-1.2c-1.1-0.1-2.4-0.1-3.6,0.6c0.9,1.1,1.7,1.8,2.3,2.3c0.8,0.6,1.7,1,2.5,1.6
		c1.7,1.1,3.2,2.3,4.6,3.7c1.3,1.4,2.6,2.9,3.8,4.5c0.6,0.8,1.1,1.7,1.7,2.5c0.4,0.8,0.9,1.5,1.3,2.2c-0.2,0.9-0.4,1.8-0.6,2.6
		c-0.4,1.6-0.9,3-1.5,4.4c-0.6,1.4-1.3,2.9-2.1,4.3c-0.7,1.4-1.5,2.9-2.3,4.3c-3.1,5.7-6.3,11.2-9.4,17.1l-3.6-0.6
		c-0.4,0-0.8,0.2-1,0.6c-0.8,1.4-1.6,3-2.2,4.5c-0.6,1.6-1.4,3.1-1.5,4.9c1.4-1.1,2.2-2.6,3.1-4.1c0.8-1.3,1.6-2.6,2.3-3.9l3.1-0.5
		h0.2c0.1,0,0.2-0.1,0.2-0.2c4.3-5.1,8.1-10.5,11.7-16.1c1.8-2.8,3.4-5.7,4.9-8.8c0.8-1.6,1.3-3.4,1.7-5c0.4-1.6,0.8-3.3,1.1-4.9
		c1.3-6.5,2.2-13,3.5-19.4c0.6-3.2,1.3-6.4,2.1-9.5c0.6-2,1.2-4,1.9-5.9c0.1,0.2,0.2,0.4,0.4,0.6c0.6,1,1.2,1.9,1.8,2.7l3.7,4.9
		c2.5,3.2,4.7,6.5,6.5,9.9c1.7,3.5,3,7.2,3.2,11c0.2,3.8-0.8,7.7-2.6,11.3c-0.1,0.2-0.1,0.4,0.1,0.6c0.2,0.2,0.5,0.1,0.7-0.1
		c2.7-3.2,4.4-7.4,4.7-11.8s-0.8-8.8-2.5-12.7c-1.7-3.9-4.1-7.5-6.4-10.9c-1.2-1.7-2.4-3.4-3.6-5c-0.6-0.8-1.1-1.6-1.6-2.4
		c-0.1-0.2-0.3-0.4-0.4-0.6c2-1.5,4-3.1,5.9-4.7c2.4-2,4.8-4,7.1-6.1c2.3-2,4.6-4.1,7-5.9C422.5,385.6,425.1,383.9,427.9,384.6z"/>
	<path class="st0" d="M599.3,397.9c-2.5-2.6-5.4-4.4-8.6-5.9c-1.6-0.7-3.2-1.4-4.9-1.9c-1.7-0.5-3.4-0.9-5.1-1.2
		c-3.5-0.7-7-0.8-10.5-0.7c-3.5,0.2-6.9,0.7-10.4,1.5s-7,2.2-10,4.4s-5.6,5.2-7,8.6c-1.5,3.5-2,7.2-1.5,10.8
		c0.3,1.8,0.7,3.6,1.5,5.2c0.4,0.8,0.9,1.6,1.5,2.3c0.4,0.3,0.7,0.6,1.2,0.9c0.4,0.3,1,0.4,1.6,0.3c0.2,0,0.3-0.2,0.6-0.4
		c0-0.3-0.2-0.5-0.5-0.5h-0.1c-0.5,0-1-0.6-1.4-1.2c-0.4-0.6-0.7-1.4-0.9-2.1c-0.4-1.5-0.6-3.1-0.6-4.7c0-3.2,0.8-6.2,2.2-8.9
		c1.5-2.7,3.6-4.9,6.1-6.5c2.5-1.6,5.4-2.8,8.5-3.5s6.3-1.3,9.5-1.5c3.3-0.3,6.5-0.3,9.7,0c3.2,0.4,6.4,1,9.5,1.9
		c3.1,0.9,6.2,2.2,9,3.9c0.2,0.1,0.4,0.1,0.6-0.1S599.5,398.1,599.3,397.9z"/>
	<path class="st0" d="M522.2,397.6c-0.6-1.9-1-3.8-1.3-5.7c-0.3-1.9-0.5-3.8-0.5-5.7c-0.1-1.9,0.1-3.7,0.4-5.6
		c0.5-3.7,1.7-7.3,3.3-11.2c-3.3,2.6-5.6,6.4-6.7,10.5c-1.1,4.1-0.9,8.5-0.1,12.6c0.5,2,1.1,4.1,1.8,6c0.7,1.9,1.6,3.8,2.6,5.6
		c2,3.6,4.4,7,7.3,9.8c-2-3.5-3.7-7.1-4.9-10.7C523.3,401.3,522.7,399.5,522.2,397.6z"/>
	<path class="st0" d="M505.5,359.4c-1.3,0.3-2.6,0.8-3.8,1.4c-1.2,0.6-2.3,1.3-3.4,2.2c-0.5,0.4-1,0.9-1.5,1.3
		c-0.2,0.2-0.4,0.4-0.5,0.6c0,0,0,0-0.1-0.1c-1.7-1.7-3.6-3.1-5.5-4.5c-1.9-1.4-3.9-2.6-6.1-3.5c-0.1-0.1-0.4-0.1-0.4,0.2
		c-0.2,0.2-0.2,0.5,0,0.7c1.6,1.6,3.3,3.2,4.8,4.8c1.5,1.6,3,3.3,4.3,5s2.5,3.5,3.5,5.3c0.6,1.1,1,2.3,1.4,3.5
		c-1.4,0.4-2.8,0.8-4.1,1.2c-2.1,0.7-4.2,1.4-6.3,2.3c-2.1,0.9-4.1,1.9-6.1,2.9c-1.5,0.8-3,1.7-4.4,2.6c-1.7-1.1-3.3-2.3-4.9-3.4
		c-1.6-1.2-3.2-2.5-4.2-4.1c-0.1-0.2-0.3-0.3-0.6-0.7c-0.3,0.1-0.5,0.3-0.4,0.6c0.3,1.1,0.8,2.1,1.4,3c0.6,0.9,1.3,1.8,2,2.6
		c1.4,1.7,3,3.1,4.6,4.5c1.6,1.4,3.3,2.7,4.9,4c1.6,1.3,3.2,2.5,4.8,3.8c0.8,0.6,1.5,1.3,2.2,1.9c0.3,0.3,0.6,0.6,0.8,0.9
		c0.3,0.3,0.4,0.5,0.3,0.4c0,0,0,0.1,0,0.3c-0.1,0.2-0.2,0.5-0.4,0.8c-0.4,0.7-1,1.3-1.7,2c-2.7,2.7-6.2,5-9.5,7.4l-10.2,7.1
		c-3.4,2.4-6.8,4.8-10.1,7.4c-6.6,5.1-13,10.5-18.7,16.6c-0.1,0.2-0.2,0.5,0,0.7s0.5,0.3,0.7,0.1c6.4-5.1,13.1-9.9,20-14.5
		c6.8-4.6,13.8-8.9,20.8-13.5c1.8-1.2,3.5-2.3,5.2-3.6c1.8-1.2,3.5-2.5,5.1-4.1c0.8-0.7,1.7-1.6,2.4-2.7c0.4-0.6,0.7-1.2,1-2
		c0.2-0.8,0.3-1.8,0.1-2.8c-0.3-1.2-0.8-1.8-1.2-2.3c-0.4-0.5-0.9-0.9-1.3-1.3c-0.9-0.8-1.7-1.4-2.6-2.1c-3-2.1-5.9-3.9-8.8-5.8
		c1.2-0.4,2.5-0.7,3.7-1.1l6.3-1.7l6.3-1.7c2.1-0.6,4.2-1.1,6.3-1.6h0.1c1.2-0.3,2-1.5,1.8-2.7c-0.4-2.6-1.4-5.1-2.7-7.2
		c-0.5-0.8-1-1.5-1.6-2.2c0.6-0.8,1.2-1.5,1.9-2.2c0.8-0.8,1.6-1.6,2.5-2.3c0.9-0.8,1.9-1.4,2.9-2c0.5-0.3,1.1-0.6,1.6-0.8
		c0.6-0.2,1-0.6,1.6-1.3c-0.7-0.6-1.4-0.7-2.2-0.7C506.8,359.1,506.2,359.2,505.5,359.4z"/>
	<path class="st0" d="M470.1,474.3c-0.1-0.3-0.2-0.7-0.3-1c-0.1-0.1-0.2-0.4-0.3-0.6c-0.1-0.2-0.3-0.5-0.4-0.7
		c-0.3-0.4-0.7-0.8-1.1-1.1c-0.5-0.2-0.9-0.5-1.3-0.6c-0.8-0.3-1.6-0.4-2.3-0.4c-2.8-0.1-5,0.2-7.6,0.5c-0.2,0-0.3,0.1-0.5,0.2
		c-1.2,0.7-1.6,2.2-0.9,3.3l0.1,0.1c0.2,0.3,0.4,1,0.5,1.8c0,0.9,0.1,1.8,0,2.8c-0.1,0.9-0.2,2-0.3,3c-0.1,0.5-0.1,1-0.1,1.6
		c0,0.5,0.1,1.1,0.3,1.8c0.6-0.3,1.1-0.7,1.6-1c0.4-0.4,0.7-0.9,1-1.4c0.5-1,1-2,1.4-3.1c0.4-1.1,0.7-2.3,0.8-3.6
		c0-0.6,0-1.1-0.1-1.8c0.2-0.1,0.4-0.1,0.6-0.1c1-0.2,2-0.3,2.8-0.1c0.4,0.1,0.7,0.3,0.9,0.5c0.2,0,0.1,0.2,0.2,0.2v0.1
		c0,0.1,0,0.1,0,0.1c0.1,0,0.1,0,0.1,0.1c0.1,0.2,0.2,0.4,0.2,0.6c0.1,0.5,0.1,0.9,0.2,1.4c0.2,1.9,0.1,4,0,6l-0.1,1.5
		c0,0.5-0.1,1-0.1,1.5c0,1.1,0.1,2.1,0.3,3.6c1.5-0.3,2.5-1.3,3.2-2.4c0.3-0.5,0.6-1.1,0.8-1.7s0.4-1.2,0.5-1.8
		c0.7-2.4,0.6-4.9,0.3-7.4C470.4,475.6,470.3,474.9,470.1,474.3z"/>
	<path class="st0" d="M385.4,479.7c0.1-0.5-0.1-1.1-0.5-1.5c-1-0.9-1.8-1.5-2.8-2.2s-2.1-1.3-3.7-1.5c-0.8-0.1-1.7,0.1-2.5,0.5
		c-0.4,0.2-0.7,0.4-1,0.7c-0.2,0.2-0.4,0.4-0.6,0.6c-0.8,0.9-1.4,1.8-2,2.7c-0.6,0.9-1.1,1.8-1.6,2.8c-0.4,1-0.8,1.9-1.1,3
		c-0.3,1-0.6,2.1-0.6,3.2c0,1.1,0.2,2.4,1.1,3.4c0.9-1,1.5-1.8,2-2.6c0.2-0.4,0.4-0.9,0.6-1.3l0.6-1.3c0.9-1.7,1.7-3.5,2.6-5.1
		c0.5-0.8,1-1.6,1.5-2.3l0.4-0.5c0.1-0.1,0.2-0.2,0.2-0.3c0.1-0.1,0.2-0.3,0.4-0.3c0.4-0.1,1.2,0.3,1.8,0.8c0.3,0.3,0.6,0.6,0.9,1
		c0,0.1-0.1,0.3-0.1,0.4c-0.1,0.3-0.1,0.7-0.2,1c-0.1,0.3,0,0.8,0.3,1.5c0.8,0.2,1.2,0.2,1.5,0.3c0.3-0.1,0.7-0.3,1-0.5
		s0.6-0.4,0.9-0.7c0.1-0.1,0.3-0.3,0.4-0.5c0.1-0.2,0.3-0.4,0.4-0.8L385.4,479.7z M381.4,478.7L381.4,478.7
		C381.5,478.5,381.4,478.6,381.4,478.7z"/>
	<path class="st0" d="M408.8,399.4c-2.4,0-4.4,2-4.4,4.4s2,4.4,4.4,4.4s4.4-2,4.4-4.4S411.2,399.4,408.8,399.4z"/>
	<path class="st0" d="M478.2,403c2.4-1.2,3.6-3.8,2.6-5.8c-1-2-3.8-2.7-6.2-1.5c-2.4,1.2-3.6,3.8-2.6,5.8
		C473,403.5,475.8,404.2,478.2,403z"/>
	<path class="st0" d="M426.8,488.6c-1.1-0.2-2.3,0-3.4,0.5c-1.1,0.6-2,1.4-2.5,2.4c-0.6,1.2-0.6,2.4-0.1,3.4s1.5,1.7,2.7,1.9
		c0.2,0.1,0.5,0.1,0.8,0.1c0.9,0,1.8-0.2,2.6-0.6c1.1-0.6,2-1.4,2.5-2.4c0.6-1.2,0.6-2.4,0.1-3.4S428,488.8,426.8,488.6z
		 M426.7,492.5c-0.3,0.5-0.7,0.8-1.2,1.1s-1,0.4-1.5,0.3c-0.3,0-0.5-0.2-0.6-0.3c-0.1-0.1,0-0.3,0.1-0.6c0.3-0.5,0.7-0.8,1.2-1.1
		c0.4-0.2,0.8-0.3,1.2-0.3c0.1,0,0.2,0,0.3,0c0.3,0,0.5,0.2,0.6,0.3C426.9,492,426.8,492.2,426.7,492.5z"/>
	<path class="st0" d="M445.4,484.2c-1-0.5-2.2-0.7-3.4-0.6c-1.2,0.2-2.3,0.6-3.1,1.4c-0.9,0.8-1.3,2-1.2,3.1
		c0.1,1.2,0.8,2.2,1.9,2.8c0.8,0.5,1.7,0.7,2.7,0.7c0.2,0,0.5-0.1,0.7-0.1c1.2-0.2,2.3-0.6,3.1-1.4c0.9-0.8,1.3-2,1.2-3.1
		C447.2,485.8,446.5,484.8,445.4,484.2z M444,488c-0.3,0.3-0.8,0.5-1.4,0.6c-0.5,0-1.1-0.1-1.5-0.3c-0.2-0.2-0.4-0.3-0.4-0.5
		s0.1-0.4,0.3-0.6c0.3-0.3,0.8-0.5,1.4-0.6c0.2,0,0.3,0,0.4,0c0.4,0,0.8,0.1,1.1,0.3c0.2,0.2,0.4,0.3,0.4,0.5S444.2,487.8,444,488z"
		/>
	
		<ellipse transform="matrix(0.8963 -0.4435 0.4435 0.8963 -114.4666 255.1749)" class="st0" cx="488.3" cy="372.3" rx="4" ry="2.9"/>
	<path class="st0" d="M393.5,507.1l-2.8,0.9c-0.9,0.3-1.9,0.6-2.8,1c-0.5,0.2-0.9,0.5-1.4,0.7l-0.7,0.4c-0.2,0.1-0.4,0.3-0.6,0.8
		c0.4,0.4,0.7,0.4,0.9,0.4h0.8c0.5,0,1.1,0,1.6-0.1c1-0.2,2-0.6,3-1c1-0.4,1.9-0.9,2.8-1.5c0.5-0.3,0.9-0.7,1.3-1
		c0.4-0.3,0.7-0.8,0.9-1.4c-0.7,0-1.1,0.1-1.6,0.3S394,506.9,393.5,507.1z"/>
	<path class="st0" d="M326.4,505.2c-0.5-1.1-1.1-2.2-1.7-3.3c-0.3-0.6-0.6-1.1-1-1.6c-0.5-0.5-1-0.9-1.8-1.1c-0.2,0.8-0.1,1.4,0,2
		c0.2,0.6,0.4,1.1,0.6,1.7c0.4,1.2,0.8,2.3,1.1,3.4l1,3.4c0.4,1.1,0.6,2.1,1,3.1l0,1.2c-1.4,0.3-2.8,0.7-4.2,1l-2.6,0.6
		c-0.9,0.2-1.8,0.4-2.6,1.8c1,1.3,2,1.3,3,1.3c1,0,1.9-0.1,2.9-0.2c1-0.2,1.9-0.4,2.9-0.7c1-0.4,1.9-0.8,2.8-1.4
		c0.4-0.3,0.7-0.7,0.8-1.2l0.3-2.5c0-0.1,0-0.3,0-0.4v-0.2c-0.2-1.2-0.6-2.3-1-3.5C327.4,507.5,326.9,506.3,326.4,505.2z"/>
	<path class="st0" d="M317.7,513.8c0.8-0.7,0.8-1.4,0.9-2.2c0.1-0.3,0.1-0.7,0.1-1c0-0.2,0-0.3,0.1-0.4c0.1,0,0.1-0.1,0.2-0.1
		c0,0,0.1,0,0.3-0.1c0.3-0.1,0.7-0.2,1-0.3c0.7-0.3,1.4-0.4,1.9-1.4c-0.9-0.6-1.6-0.3-2.3-0.3c-0.4,0-0.7,0.1-1.1,0.2
		c-0.1,0-0.4,0.1-0.7,0.2c-0.3,0.1-0.5,0.3-0.7,0.5c-0.4,0.4-0.7,1-0.7,1.6c0,0.4,0,0.7,0.1,1.1
		C316.9,512.4,316.9,513.1,317.7,513.8z"/>
	<path class="st0" d="M471.5,442.1c0.1-0.1,0.2-0.3,0.3-0.4c0.1-0.2,0.2-0.3,0.3-0.5c0.1-0.1,0.1-0.2,0.2-0.3
		c0.1-0.2,0.2-0.5,0.3-0.8c0.1-0.6,0-1.1-0.2-1.6c-0.1-0.2-0.3-0.4-0.5-0.6c-0.1-0.1-0.2-0.2-0.3-0.2l-0.2-0.1h-0.1
		c-0.9-0.2-1.8-0.4-2.8-0.3c0.3,0.8,0.6,1.4,1,2c0,0.1-0.1,0.1-0.1,0.2c-0.1,0.2-0.2,0.4-0.3,0.5c-0.1,0.2-0.2,0.4-0.3,0.6
		c-0.2,0.4-0.4,0.9-0.4,1.4c0,1,0.5,1.9,1.3,2.3c0.8,0.4,1.6,0.7,2.4,0.9l1-1.6C472.6,443,472,442.5,471.5,442.1z"/>
	<path class="st0" d="M476.9,446.4c0.1-0.1,0.2-0.3,0.3-0.4c0.1-0.2,0.2-0.4,0.3-0.6c0-0.1,0.1-0.2,0.1-0.3c0.1-0.2,0.2-0.5,0.2-0.8
		c0.1-0.6-0.1-1.1-0.4-1.6c-0.1-0.2-0.3-0.4-0.5-0.6c-0.1-0.1-0.2-0.1-0.3-0.2l-0.2-0.1h-0.1c-0.9-0.2-1.8-0.3-2.8-0.1
		c0.3,0.8,0.7,1.4,1.1,1.9c0,0.1-0.1,0.1-0.1,0.2c-0.1,0.2-0.2,0.4-0.3,0.6s-0.2,0.4-0.2,0.6c-0.2,0.4-0.3,0.9-0.3,1.4
		c0.1,1,0.7,1.8,1.5,2.2c0.8,0.3,1.6,0.5,2.5,0.7l0.8-1.6C478.1,447.2,477.5,446.8,476.9,446.4z"/>
	<path class="st0" d="M482.9,449.5c0.1-0.2,0.2-0.4,0.2-0.6c0-0.1,0.1-0.2,0.1-0.3c0.1-0.2,0.1-0.5,0.1-0.8c0-0.6-0.2-1.1-0.6-1.5
		c-0.2-0.2-0.4-0.4-0.6-0.5c-0.1-0.1-0.2-0.1-0.4-0.2l-0.2-0.1h-0.1c-0.9-0.1-1.8,0-2.8,0.3c0.4,0.7,0.9,1.2,1.4,1.7
		c0,0.1-0.1,0.1-0.1,0.2c-0.1,0.2-0.1,0.4-0.2,0.6c-0.1,0.2-0.1,0.4-0.2,0.6c-0.1,0.4-0.2,1-0.1,1.4c0.2,0.9,0.9,1.7,1.8,2
		c0.9,0.2,1.7,0.3,2.6,0.4l0.6-1.7c-0.4-0.3-1.1-0.7-1.7-1C482.8,449.8,482.8,449.7,482.9,449.5z"/>
	<path class="st0" d="M489.1,452.6c0.1-0.2,0.1-0.4,0.2-0.6c0-0.1,0-0.2,0.1-0.3c0-0.2,0.1-0.5,0.1-0.8c-0.1-0.6-0.3-1.1-0.7-1.5
		c-0.2-0.2-0.4-0.3-0.7-0.4c-0.1-0.1-0.2-0.1-0.4-0.1h-0.2h-0.1c-0.9,0-1.8,0.1-2.8,0.6c0.5,0.7,1,1.2,1.5,1.6c0,0.1,0,0.1-0.1,0.2
		c-0.1,0.2-0.1,0.4-0.2,0.6c0,0.2-0.1,0.4-0.1,0.6c-0.1,0.4-0.1,1,0.1,1.4c0.3,0.9,1.1,1.6,2,1.8c0.9,0.1,1.7,0.2,2.6,0.1l0.4-1.8
		c-0.6-0.3-1.2-0.6-1.9-0.9C489,452.9,489,452.8,489.1,452.6z"/>
	<path class="st0" d="M495.6,455c0-0.2,0-0.4,0-0.6c0-0.1,0-0.2,0-0.3c0-0.2,0-0.5-0.1-0.8c-0.2-0.5-0.6-1-1-1.3
		c-0.2-0.1-0.5-0.2-0.7-0.3c-0.1,0-0.3,0-0.4,0h-0.2h-0.1c-0.9,0.2-1.7,0.6-2.6,1.2c0.6,0.5,1.2,0.9,1.9,1.2c0,0.1,0,0.1,0,0.2
		c0,0.2,0,0.4,0,0.6s0,0.4,0,0.6c0,0.4,0.1,1,0.4,1.4c0.5,0.8,1.4,1.3,2.4,1.3c0.9-0.1,1.7-0.2,2.6-0.5v-1.8
		c-0.9-0.1-1.7-0.3-2.3-0.4C495.5,455.3,495.5,455.2,495.6,455z"/>
	<path class="st0" d="M456.2,449.4c1,0,1.9-0.1,2.9-0.2c1-0.2,1.9-0.4,2.9-0.7c1-0.4,1.9-0.8,2.8-1.4c0.4-0.3,0.7-0.7,0.8-1.2
		l0.3-2.5c0-0.1,0-0.3,0-0.4v-0.2c-0.2-1-0.5-1.9-0.8-2.9c0.5,0.2,1.1,0.5,1.7,0.7l1-1.5c-0.4-0.7-0.9-1.2-1.4-1.7
		c0.1-0.1,0.2-0.3,0.3-0.4c0.1-0.2,0.3-0.3,0.4-0.5c0.1-0.1,0.1-0.2,0.2-0.3c0.1-0.2,0.3-0.5,0.3-0.7c0.1-0.6,0.1-1.1-0.2-1.6
		c-0.1-0.2-0.3-0.5-0.5-0.6c-0.1-0.1-0.2-0.2-0.3-0.2l-0.2-0.1h-0.1c-0.8-0.3-1.7-0.5-2.8-0.4c0.2,0.8,0.5,1.4,0.9,2
		c0,0.1-0.1,0.1-0.1,0.2c-0.1,0.2-0.2,0.3-0.4,0.5c-0.1,0.2-0.2,0.4-0.3,0.5c0,0.1,0,0.1-0.1,0.2c0,0,0,0,0-0.1
		c-0.5-1.1-1.1-2.2-1.7-3.3c-0.3-0.6-0.6-1.1-1-1.6c-0.5-0.5-1-0.9-1.8-1.1c-0.2,0.8-0.1,1.4,0,2c0.2,0.6,0.4,1.1,0.6,1.7
		c0.4,1.2,0.8,2.3,1.1,3.4l1,3.4c0.4,1.1,0.6,2.1,1,3.1l0,1.2c-1.4,0.3-2.8,0.7-4.2,1l-2.6,0.6c-0.9,0.2-1.8,0.4-2.6,1.8
		C454.2,449.5,455.2,449.4,456.2,449.4z"/>
	<path class="st0" d="M454.7,444.6c0.9-0.7,0.8-1.4,0.9-2.2c0.1-0.3,0.1-0.7,0.1-1c0-0.2,0-0.3,0.1-0.4c0.1,0,0.1-0.1,0.2-0.1
		c0,0,0.1,0,0.3-0.1c0.3-0.1,0.7-0.2,1-0.3c0.7-0.3,1.4-0.4,1.9-1.4c-0.9-0.6-1.6-0.3-2.3-0.3c-0.4,0-0.7,0.1-1.1,0.2
		c-0.1,0-0.4,0.1-0.7,0.2c-0.3,0.1-0.5,0.3-0.7,0.5c-0.4,0.4-0.7,1-0.7,1.6c0,0.4,0,0.7,0.1,1.1
		C453.9,443.2,453.9,443.9,454.7,444.6z"/>
</g>
</svg>
