<?xml version="1.0" encoding="utf-8"?>
<!-- Generator: Adobe Illustrator 24.0.1, SVG Export Plug-In . SVG Version: 6.00 Build 0)  -->
<svg version="1.1" id="Layer_1" xmlns="http://www.w3.org/2000/svg" xmlns:xlink="http://www.w3.org/1999/xlink" x="0px" y="0px"
	 viewBox="0 0 800 800" style="enable-background:new 0 0 800 800;" xml:space="preserve">
<style type="text/css">
	.st0{fill:#88FF73;}
	.st1{fill:#FFFFFF;}
</style>
<path id="BG" class="st0" d="M601.8,394.9c-5.1-27.6-84.9-69.8-134.1-65c-49.2,4.8-147.9,84.9-147.9,84.9l-24.5,25.8
	c0,0-17.8,16.8,4.6,35.5s70.7,6.1,81,5.7s41.5,4.1,41.5,4.1s36.9,7.8,44.6,8.9s16.3,6.9,16.3,6.9s-4.2-31.6,13.8-57.3
	c18-25.7,62.2-25.3,62.2-25.3s18.5-12.3,30.7-16.2c1.5,1.6,4.8,6.8,6.1,7.6C598.6,421.4,607.4,410.8,601.8,394.9z"/>
<path id="white" class="st1" d="M552.2,364.1c-6.3-7.9-13.2-1.4-13.2-1.4c-25.9-4.3-40.7,2.1-40.7,2.1s0,0-11.3,0.4
	c-5.7,0.2-8.3,2.8-9.4,5.3l0.1-27.6c-13-5-23.4-4.5-23.4-4.5l-3.2,38.4l-27.7,4.8c0,0-2.9-3.8-11.1-2.7s-5,13.6-5,13.6
	s-1.1,5.2-11.3,14.8c-10.2,9.6-23.2,19.5-23.2,19.5s-3.6-3-10.4-2.3s-6.3,10.4-6.3,10.4s-1.6,2.1-14.3,1.4
	c-12.7-0.7-24.8-17.1-24.8-17.1c-24.7,4.5-16.6,23-16.6,23s12.7,15.2,27.5,19.5s35.2-0.2,35.2-0.2s4.6,3.9,11.4,1.3
	c6.8-2.7,4.1-10.4,4.1-10.4l20.8-13.9l-1.1,2.1c-1,1.8-2,5.3-1.3,7c0.1,0.3,0.4,0.9,2.2,1.4c4.8,1.3,14.1-1,21.8-3.6l8.3,2.6
	l-2.5,23l-2.3,0.4l-2.1,14.6l27.9,3.8l5-37.9c0,0,0.6-1.1,1.8-2.9c6.9,0.9,13.7,1,18.4-1c1.7-0.7,10.2-4.7,7.5-11.5l-1.7-3.8l3.7-2
	c0,0,3.8-2.3,4.7-5.8c0.5-1.9,0-4-1.4-6.3l-2-3.3l2.9-2.5c1.4-1.2,5.1-5.3,5.3-9.2c0.1-1.7-0.5-3.2-1.9-4.7l-1.5-1.6
	c0.6-0.6,1.1-1.1,1.5-1.2c5.4-2.3,31.3-6.3,31.3-6.3c6.3,10.7,19.6,1.1,19.6,1.1c13.4,5.2,19.9,24.4,19.9,24.4
	c19.3,3.2,27.5-8.8,27.5-8.8C586.1,377.5,552.2,364.1,552.2,364.1z"/>
<path id="black" d="M591.4,395c-1-2.5-2.4-5-3.8-7.4c-1.5-2.4-3.1-4.6-4.9-6.8c-3.7-4.2-8-7.9-13-10.5c-2.5-1.3-5.1-2.4-7.7-3.3
	c-1.3-0.4-2.7-0.8-4.1-1.1c-0.6-0.1-1.1-0.2-1.7-0.3c-0.2-0.7-0.4-1.3-0.6-2c-0.6-1.5-1.4-3-2.6-4.4c-1.2-1.4-2.9-2.5-4.7-3.1
	c-0.5-0.1-0.9-0.2-1.4-0.3c-0.5-0.1-0.9-0.2-1.4-0.2s-0.9-0.1-1.4,0c-0.5,0-1,0.1-1.5,0.2c-1.7,0.3-3.4,1.1-4.8,2.2l0,0
	c-0.6-0.1-1-0.1-1.5-0.1s-0.9-0.1-1.4-0.1c-0.9,0-1.8-0.1-2.7-0.1c-1.8,0-3.5,0-5.3,0.1c-3.5,0.2-7,0.5-10.5,1
	c-3.4,0.5-6.9,1.1-10.3,2c-1.7,0.4-3.4,0.9-5,1.3c-1.3,0.4-2.7,0.8-4,1.2c-3.6-1.5-8.4-1.4-11.1-1s-9.7,2.4-9.6,3.3
	c0,1.3-0.6,6.9-0.6,8.2c0.2-0.1,7.2-4.4,11.1-5.2s5.8-0.7,8.3,0.3c1.1,0.5,2.3,1.2,3.3,2.1c1.7,1.4,3.3,3.3,4.4,5.5
	c-0.2-2.4-0.9-4.9-2.1-7.2c-0.1-0.2-0.2-0.4-0.4-0.7c0.7-0.2,1.4-0.3,2.1-0.5c1.6-0.3,3.2-0.7,4.9-1c3.2-0.6,6.5-1,9.8-1.3
	c3.3-0.3,6.5-0.4,9.8-0.4c1.6,0,3.2,0.1,4.9,0.2c0.4,0,0.8,0.1,1.3,0.1c-0.2,0.6-0.4,1.3-0.5,1.9c-0.1,0.4-0.2,0.9-0.2,1.3
	c-1,0.3-1.9,0.7-2.9,1.2c-1.9,1-3.7,2.3-5.3,3.9c-1.5,1.6-2.7,3.6-3.5,5.6c-0.7,1.8-1,3.6-1.1,5.5c-1.4-0.1-2.8,0-4.1,0
	c-2.9,0.2-5.6,0.7-8.3,1.5c-2.7,0.7-5.2,1.7-7.8,2.6c-0.9,0.4-1.8,0.8-2.7,1.2c-0.1-2.2-0.6-4.6-2-6.9c-0.9-1.6-2.2-3-3.8-4.3
	c-6.2-5.5-13.3-6.7-13.3-6.7l0.5-7.1c0.3-2,0.6-4,0.9-6.2l0.1-0.5v-0.6v-0.2c0,0,0,0,0-0.1s0-0.2,0-0.3c0-0.2-0.1-0.5-0.1-0.7
	c-0.1-0.2-0.1-0.4-0.2-0.5c0-0.1-0.1-0.1-0.1-0.2h0.1c0.2-2.2,0.7-4.4,1.2-6.6c0.5-2.3,1.1-4.6,1.6-7.2l0.1-0.5l0.1-0.6V341
	c0,0,0,0,0-0.1s0-0.2,0-0.3c0-0.2,0-0.5-0.1-0.7c0-0.2-0.1-0.5-0.2-0.6c-0.1-0.3-0.3-0.5-0.4-0.7s-0.2-0.3-0.4-0.4
	c-0.3-0.3-0.5-0.4-0.6-0.5c-0.2-0.1-0.4-0.2-0.6-0.3c-0.4-0.2-0.7-0.3-1-0.4c-1.2-0.4-2.4-0.7-3.6-0.9c-2.4-0.5-4.8-0.7-7.3-0.8
	c-2.5-0.1-5.1-0.1-7.8,0.1c-1.4,0.1-2.7,0.2-4.3,0.5c-0.5,0.1-0.8,0.1-1.6,0.5c-0.2,0.1-0.5,0.2-0.7,0.4c-0.2,0.1-0.3,0.3-0.5,0.4
	c-0.4,0.3-0.5,0.6-0.8,0.9c-0.8,1.2-1,2.1-1.2,2.9c-0.4,1.7-0.5,3.1-0.5,4.6c-0.1,1.4-0.1,2.8-0.1,4.1c0,2.2,0,4.4-0.1,6.5
	c0,0,0,0-0.1,0.1c-0.3,0.3-0.5,0.6-0.7,0.9c-0.7,1.2-0.8,2.1-1,3c-0.2,1.7-0.3,3.2-0.2,4.6c0,1.4,0.1,2.8,0.2,4.1
	c0.1,1.7,0.3,3.3,0.3,5c-8.8,1.1-15.6,3.2-20.9,5.5c-0.6-1.1-1.4-2-2.3-2.8c-1.6-1.4-3.4-2.2-5.2-2.7c-1.8-0.5-3.7-0.7-5.5-0.5
	c-1.8,0.1-3.6,0.5-5.4,1.3c-1.7,0.8-3.3,1.8-4.7,3.4c-1.4,1.6-2.3,3.5-2.8,5.4s-0.5,3.8-0.3,5.5c0.1,0.9,0.2,1.7,0.4,2.5
	c0.1,0.3,0.2,0.7,0.3,1c-0.2,0.4-0.3,0.7-0.5,1.1c-0.4,0.9-0.8,1.7-1.3,2.6c-0.9,1.7-1.9,3.4-3.1,5c-1.1,1.6-2.3,3.2-3.6,4.7
	c-1.3,1.5-2.6,3-4,4.4c-2.8,2.8-5.9,5.3-9.2,7.6c-2.7,2-5.6,3.8-8.5,5.5c-2.3-1.7-5.4-2.8-9.1-2c-6.3,1.5-8.9,6.9-9.9,11
	c-0.1,0-0.1,0.1-0.2,0.1c-0.4,0.2-0.8,0.3-1.2,0.4c-0.8,0.3-1.6,0.5-2.5,0.7c-1.7,0.3-3.5,0.5-5.2,0.3c-3.5-0.2-6.9-1.2-10.1-2.9
	l-2.3-1.4c-0.4-0.2-0.7-0.5-1.1-0.8l-1.1-0.8c-1.5-1-2.7-2.5-3.9-3.7c-0.7-0.6-1.2-1.4-1.7-2.1l-1.6-2.2c-1-1.6-1.9-3.2-2.8-4.8
	l-7.9,5.1c1.4,1.6,2.8,3.2,4.1,4.8c1.5,1.5,3,3.1,4.5,4.5l2.5,2.1c0.8,0.7,1.7,1.3,2.6,1.9s1.7,1.3,2.7,1.8l2.9,1.6
	c3.9,1.9,8.2,3.2,12.6,3.6c0.5,0.1,1.1,0.1,1.6,0.2h1.7c1.1,0.1,2.2-0.1,3.3-0.1c0.8-0.1,1.6-0.2,2.4-0.3c0.9,6.4,5.3,9.2,5.3,9.2
	s-2.4-16,4.7-20.5c2.4-1.5,9-0.4,10.3,6.8c1,5.5-2.7,9.2-4.5,10.7c-0.4,0.4-0.4,1,0.1,1.4c2.6,1.7,8.8,6.4,4.5,11.3
	c-3.9,4.5-13.5-4.8-13.5-4.8s-0.1,1.9,0.1,3.4c-5,1.2-10.1,1.9-15.2,1.9c-5.6,0-11.2-0.7-16.5-2.4c-5.3-1.6-10.3-4.1-14.5-7.4
	c-2.1-1.6-4.1-3.5-5.7-5.4c-0.8-1-1.5-2-2-3c-0.6-1-1-2-1.1-2.9l-9.4,2.2c0.5,2.1,1.4,3.8,2.3,5.4s2,3,3.1,4.3
	c2.3,2.6,4.8,4.8,7.5,6.7c5.4,3.8,11.4,6.5,17.6,8.2s12.7,2.3,19,2c6.3-0.2,12.6-1.4,18.6-3.2l0,0c0.8,0.7,1.4,1,1.4,1
	c0.6,0.3,1.2,0.6,1.9,0.8c1.5,0.5,3.2,0.9,5,0.9s3.8-0.5,5.5-1.5c0.4-0.2,0.8-0.5,1.2-0.8c0.4-0.3,0.7-0.6,1-0.9s0.6-0.6,0.9-1
	s0.6-0.8,0.8-1.2c1-1.7,1.6-3.8,1.5-5.8c0-0.1,0-0.2,0-0.3c1-0.5,2-1,2.9-1.6c1.9-1.1,3.7-2.4,5.5-3.7c1-0.8,2-1.6,2.9-2.4
	c0,0.1,0.1,0.2,0.1,0.3c0.9,2.1,3,4.8,7.5,6c7.7,2,20-1.8,26.8-4.3c-0.1,0.1-0.2,0.1-0.3,0.2c-0.2,0.1-0.3,0.2-0.5,0.4
	c-0.3,0.3-0.5,0.5-0.7,0.8c-0.7,1.1-1,2-1.2,2.8c-0.4,1.6-0.6,3.1-0.7,4.5s-0.2,2.7-0.2,4.1c-0.1,2.4-0.2,4.7-0.4,7.1c0,0,0,0-0.1,0
	c-0.2,0.1-0.4,0.2-0.5,0.4c-0.4,0.3-0.6,0.5-0.8,0.8c-0.8,1-1.1,1.9-1.4,2.7c-0.5,1.6-0.8,3-1,4.4s-0.3,2.8-0.5,4.1
	c-0.1,0.6-0.1,1.2-0.2,1.7c-6-0.6-12-1.2-18-1.7c-2.2-0.2-4.5-0.4-6.7-0.5c-2.2-0.2-4.5-0.3-6.7-0.4c-0.9,0-1.7-0.1-2.6-0.1
	c-6.6-0.3-12.8,3.6-15.3,9.7l-0.9,2.2l6.1-2.9c1.9-0.9,4-1.5,6.1-1.7s4.3-0.3,6.5-0.3c4.4-0.1,8.7,0.1,13.1,0.3
	c5.9,0.3,11.7,0.9,17.6,1.6c0,0.1,0,0.2,0,0.3h2.2c2.2,0.3,4.3,0.5,6.5,0.8c4.4,0.6,8.7,1.2,13.1,1.9l6.5,1.1l6.5,1.2
	c8.7,1.6,21.2,4.8,29.7,7c-1.3-5.7-5.9-10.1-11.7-11.1c-5.6-1-11.2-1.9-16.8-2.8l-1.2-0.2c0.1-0.8,0.2-1.6,0.4-2.4
	c0.5-2.7,0.9-5.2,1.3-8.1l0.1-0.6v-0.7v-0.2c0,0,0,0,0-0.1s0-0.2,0-0.4c0-0.2-0.1-0.5-0.2-0.7s-0.2-0.5-0.3-0.6
	c0-0.1-0.1-0.2-0.2-0.2c0.4-2.3,0.9-4.7,1.5-7c0.7-2.6,1.4-5.2,2.1-8.2l0.1-0.6l0.1-0.7v-0.2c0,0,0,0,0-0.1s0-0.3,0-0.4
	c0-0.3,0-0.5-0.1-0.8s-0.1-0.5-0.2-0.7c0-0.1-0.1-0.1-0.1-0.2c0-0.2,0.1-0.4,0.2-0.5c1.8,0.2,3.5,0.2,5.1,0.2c4.9,0,9-0.7,12.3-2.1
	c5.7-2.4,9.5-5.8,11.3-10.3c1.2-3,1.2-5.7,0.9-7.8c2-1.7,4.6-4.5,5.6-8.5c0.6-2.2,0.8-5.4-0.7-9.3c2.2-2.5,5.1-6.8,5.4-11.8
	c0.1-2.1-0.2-4.1-1.1-6.1c0.8-0.5,1.5-1,2.3-1.5c1.1-0.6,2.1-1.1,3.2-1.7c2.2-1,4.4-1.9,6.7-2.5c2.3-0.6,4.6-1,6.8-1
	c1.1,0,2.2,0.1,3.3,0.2c0.5,0.1,1,0.2,1.5,0.3c0.2,0.1,0.5,0.1,0.7,0.2l0.3,0.1l0.1,0.1v-0.1c0.6,0.9,1.3,1.8,2.2,2.5
	c1,0.9,2.3,1.5,3.7,1.9c0.3,0.1,0.7,0.2,1,0.2s0.7,0.1,1,0.1c0.5,0,1,0,1.6,0c1,0,2.1-0.1,3.1-0.3c2.1-0.4,4.1-1.2,6-2.3
	c0.9-0.6,1.8-1.2,2.6-1.9c0.1-0.1,0.2-0.2,0.3-0.3c0.5,0.4,1,0.8,1.5,1.3c2.3,2.2,4.4,4.7,6.3,7.4c1.8,2.7,3.4,5.6,4.9,8.5
	c0.7,1.5,1.3,3,1.9,4.5c0.3,0.8,0.6,1.5,0.8,2.3c0.3,0.8,0.5,1.6,0.7,2.2l8-2.5c0,0-6.4-13.7-10.5-19.3c-3.4-4.7-9.8-10.3-9.8-10.3
	c1.6-3.6,1.7-6.1,1.7-6.1s-10.5,12.3-18.5,9.9c-2.7-0.8-6.2-6.5-1.6-12.3c4.6-5.8,12.3-3.4,12.3-3.4l-0.2-3.4c0-0.1,0-0.4,0-0.7
	v-0.8c0-0.5,0.1-1.1,0.2-1.6c0.2-1,0.4-2,0.7-2.9s0.8-1.5,1.2-2s0.8-0.6,1.4-0.8c0.1,0,0.3-0.1,0.4-0.1c0.2,0,0.4,0,0.5,0
	c0.2,0,0.4,0,0.5,0c0.2,0,0.3,0,0.5,0.1c0.6,0.2,1.1,0.5,1.6,1s1,1.2,1.4,2.1c0.2,0.4,0.4,0.9,0.5,1.4c0.1,0.2,0.1,0.5,0.2,0.7
	l0.1,0.6l0,0l0.7,2.8l0.6,4.8c0,0,1.7-1.1,3-2.9c0.6-0.9,1.7-1.3,2.8-1.1c3.1,0.6,9.4,2.9,18.2,11.2c10.1,9.6,12.6,28.3,12.6,28.3
	l8.2-1.5C595.1,405.3,593.6,400.1,591.4,395z M397.5,419.7c-4.7,6.8-3.9,13-3,16.2c-0.3,0.8-0.7,1.8-1,2.9c-0.7,0.7-1.4,1.3-2.2,1.9
	c-1.5,1.3-3,2.4-4.6,3.4s-3.3,2-4.9,2.8c-0.7,0.3-1.3,0.6-2,0.9c-0.3-0.5-0.7-1.1-1.1-1.6c-0.3-0.4-0.6-0.7-0.8-1
	c0,0,2.9-8-0.4-15.8c0-0.1-0.1-0.2-0.1-0.3c2.6-1.9,5.2-3.9,7.7-5.9c3.3-2.7,6.6-5.4,9.7-8.5c1.7-1.8,3.4-3.6,5-5.4
	C397.5,413,397.1,416.8,397.5,419.7z M456,343.3c0.1-0.4,0.2-0.8,0.3-1.1c0.1-0.2,0.1-0.4,0.2-0.5h0.1c1-0.1,2.2-0.2,3.4-0.2
	c2.4,0,4.8,0,7.1,0.1c2.3,0.1,4.5,0.2,6.6,0.4c1.1,0.1,2.1,0.3,3,0.5l0,0c0,0.2-0.1,0.4-0.1,0.6c-0.1,0.5-0.3,0.9-0.6,1.2
	c-0.3,0.3-0.5,0.5-0.8,0.8c-0.8,0.8-1.5,1.6-2.2,2.5c-1.4,1.7-2.7,3.4-3.9,5.4c-1.4-0.1-2.9-0.1-4.3-0.1c-1.2,0-2.4,0.1-3.7,0.2
	c-0.6-1.4-1.4-2.7-2.2-4c-0.5-0.8-1.1-1.6-1.7-2.3c-0.2-0.2-0.4-0.5-0.6-0.7C456.1,345.4,455.8,344.3,456,343.3z M475.1,350.8
	c-0.2,0.9-0.5,1.9-0.8,2.8c-0.7-0.1-1.4-0.2-2.1-0.3c-0.9-0.1-1.9-0.2-2.8-0.2C471.4,352.5,473.2,351.8,475.1,350.8
	C475,350.8,475.1,350.8,475.1,350.8z M456.2,352.6c0.8,0.3,1.5,0.6,2.3,0.9c-0.5,0.1-0.9,0.1-1.4,0.2c-0.4,0.1-0.7,0.1-1.1,0.2
	c-0.1-0.5-0.2-0.9-0.2-1.4C455.9,352.4,456,352.5,456.2,352.6z M453.7,362.2c0.1-0.4,0.1-0.8,0.2-1.1c0-0.2,0.1-0.4,0.2-0.6h0.1
	c1-0.2,2.2-0.3,3.4-0.4c2.4-0.2,4.7-0.3,7.1-0.4c2.3-0.1,4.5-0.1,6.6-0.1c1.1,0,2.1,0.1,3,0.3l0,0c0,0.2,0,0.4,0,0.6
	c0,0.5-0.2,0.9-0.5,1.3c-0.2,0.3-0.5,0.6-0.7,0.9c-0.7,0.9-1.4,1.7-2,2.6c-1.3,1.7-3.6,4.8-3.4,5.6s5.6-2.5,5.6-2.5s0.1,0,0.1-0.1
	c-0.1,0.8,0.3,3.1-0.3,4.3c-11.3,6.3-18.9,0.6-18.9,0.6c-0.2-0.6,0.1-1.4,0-2c0.1,0,0.3,0.1,0.4,0.1c0,0,5.1,1.4,5.3,0.8
	s-1.7-3-2.8-4.4c-0.6-0.8-1.2-1.5-1.8-2.2c-0.2-0.2-0.4-0.5-0.6-0.7C453.9,364.2,453.6,363.2,453.7,362.2z M453.3,379.6
	c8.1,4.2,19.5,0.6,19.5,0.6s1,3,0,4.7c-8.1,0.4-16.9,1.5-19.7,2.5C451.9,387.1,452.5,381.4,453.3,379.6z M409.8,384.9
	c0.2-0.8,0.5-1.4,1-1.9s1.2-1,2-1.4c1.6-0.7,3.7-0.9,5.4-0.4c0.9,0.2,1.6,0.6,2.1,1.1c0.2,0.2,0.3,0.3,0.5,0.5
	c-1.7,1-3.2,2.1-4.5,3.1c-2.4,1.8-4.3,3.5-5.8,5.2l-0.1-0.4c0-0.1-0.1-0.4-0.2-0.6s-0.1-0.5-0.2-0.8c-0.1-0.5-0.2-1-0.3-1.6
	C409.6,386.7,409.6,385.7,409.8,384.9z M403.2,404.9c0.6-0.8,1.3-1.7,1.9-2.6c0,0.4,0,0.8,0,1.1c-0.7,0.5-1.4,1.1-2,1.7
	C403.1,405,403.1,405,403.2,404.9z M449.2,477.9c-0.1,0.5-0.3,1-0.7,1.3c-0.3,0.3-0.6,0.5-0.9,0.8c-0.9,0.8-1.7,1.6-2.5,2.5
	c-1.1,1.1-2.1,2.3-3.1,3.6l-0.4-0.1c-3.8-0.5-7.7-1-11.5-1.5c-0.4-0.7-0.7-1.4-1.1-2.1c-0.5-0.9-1.1-1.8-1.6-2.6
	c-0.2-0.3-0.4-0.6-0.6-0.8c-0.6-0.8-0.8-1.9-0.5-2.9c0.1-0.4,0.2-0.7,0.4-1.1c0.1-0.2,0.2-0.4,0.3-0.5h0.1c1,0,2.3,0,3.6,0.1
	c2.5,0.2,5.1,0.5,7.6,0.8c2.6,0.3,5.1,0.6,7.6,1c1.3,0.2,2.5,0.5,3.5,0.8l0,0C449.2,477.4,449.2,477.7,449.2,477.9z M429.5,466.1
	c0.1,0.1,0.2,0.2,0.4,0.2c1.3,0.8,2.7,1.5,4.1,2.2c-1.1,0-2.2-0.1-3.3-0.1c-0.3,0-0.6,0-0.9,0C429.7,467.6,429.6,466.9,429.5,466.1z
	 M452.2,459.1c-0.1,0.5-0.4,1-0.8,1.3c-0.3,0.3-0.6,0.5-0.9,0.8c-0.9,0.8-1.8,1.6-2.6,2.5c-1.7,1.7-3.2,3.4-4.6,5.4
	c2.4-0.2,4.6-0.8,6.8-1.5h0.1c-0.3,1.1-0.6,2.1-1,3.1c-0.7-0.2-1.5-0.4-2.2-0.6c-2.7-0.6-5.4-1-8.1-1.3c-1.3-0.1-2.5-0.2-3.8-0.3
	c-0.6-1.9-1.4-3.6-2.3-5.3c-0.5-0.9-1-1.8-1.5-2.6c-0.2-0.3-0.4-0.6-0.5-0.8c-0.6-0.9-0.8-1.9-0.6-3c0.1-0.4,0.2-0.8,0.3-1.1
	c0.1-0.2,0.1-0.4,0.2-0.5h0.1c1,0,2.2,0,3.4,0.2c2.4,0.2,4.9,0.5,7.3,0.9c2.5,0.3,5,0.7,7.4,1.2c1.2,0.3,2.5,0.6,3.5,0.9l0,0
	C452.3,458.6,452.2,458.9,452.2,459.1z M489.9,404.4c-4.2,15.9-31.7,12.7-37.6,12.6s-8.6,1.9-8.6,1.9c26.1,11.3,33.5-0.2,33.5-0.2
	c2.6-0.3,4.8-0.9,6.5-1.5l0.6,0.9c1.3,2.1,1.7,4,1.2,5.7c-0.2,0.8-0.5,1.5-1,2.1c-8.8,8.8-28,5.5-33.1,5c-5.9-0.6-10.6,1.1-10.6,1.1
	c25.1,13.3,30.5,1.2,30.5,1.2c2.9,0,5.3-0.2,7.3-0.6l0.8,1.8c2.5,6.2-5.2,9.8-6.8,10.4c-10.3,4.3-32.2-2.1-39.8-5h-0.1
	c-1-0.4-2.1-0.3-3.1,0.1c-7,3-20.3,7.3-26.2,5.8c-1.6-0.4-1.9-1-2-1.3c-0.7-1.5,0.3-4.7,1.2-6.3l1-1.9v-0.1c1.4,0.8,3.4,1.1,6.1,0.7
	c0,0,0.7,1.4,2.3,2.4c-1.1,0.1-2.2,0.3-3.3,0.7c1.3,0.8,2.8,1.2,4.3,1.2s3-0.3,4.5-0.8c0.6-0.2,1.1-0.5,1.6-0.7
	c2.2-0.8,4.9-2.5,8-5.5c0.8-0.7,0.2-2.1-0.9-2c-1.5,0.1-3.5,0.3-5.1,0.8c-2.9,0.9-13.9,5.7-19.1-2.2c0.1-1.9,0.7-4.3,2.8-7
	c1.1,1.4,2.9,2.4,6,2c0,0,0.9,1.3,2.7,2.1l0,0c-1.7,0.2-3.3,0.5-5.2,0.9c0.8,0.5,1.7,0.7,2.6,0.9c0.9,0.2,1.8,0.2,2.7,0.1
	c1.8-0.1,3.5-0.4,5.3-1c1.7-0.6,3.4-1.4,4.8-2.6l0,0c1.8-1.1,3.7-2.7,5.9-4.9c1-1,0.3-2.6-1.1-2.7c-1.3,0-2.7,0.1-4.1,0.6
	c-2.7,1.1-14,7.5-18.6-0.2c-0.4-1.6-0.7-6.1,5.8-9.8l3.4-1.5c0.7,1.5,1.6,2.6,2.5,3.4c-0.6,0.1-1.2,0.1-1.8,0.2
	c-1.9,0.2-3.9,0.7-5.9,1.8c0.9,0.8,2,1.2,3,1.5s2.1,0.5,3.1,0.5c2.1,0,4.2-0.2,6.3-0.7c2.1-0.5,4.1-1.1,6-2.2c0.8-0.4,1.5-1,2.2-1.5
	c0.9-0.6,1.8-1.3,2.4-2c1.3-1.4,0.8-3.5-1-4.2c-4.4-1.7-12.1,1.8-18.5-0.7c-0.1-1.3,0.4-5.4,7.9-11.1c4.5-3.4,11.3-7.5,22.9-9.8
	c1-0.2,1.9,0.6,1.9,1.7l0,0c0,0.7-0.5,1.3-1.2,1.5c-6.6,1.4-11.4,3.5-14,4.8c-0.7,0.3-0.5,1.4,0.3,1.4c4.5,0.4,7.4,2.3,8.9,3.7
	c0.8,0.7,2,0.8,2.9,0.2c9.2-6.1,22.5-8.1,31-8.7c4.7-0.5,9.8-1.3,9.2-2.3c-0.8-0.1-1.7-0.1-2.7-0.2c0-1-0.1-2.9-0.5-4.6
	c5.2,2.9,8,7.2,8,7.2l0,0c2.1,3.4-0.2,7.7-0.2,7.7c-0.4,0.7-1,1.2-1.7,1.4c-15,5.2-34.1,1.5-40.3,8.2c4.4,4.1,28.7,8.2,37.8-4.9
	c0,0,1-0.2,2.3-0.5c0.9-0.3,1.9,0,2.5,0.7C489.5,401.5,490,402.9,489.9,404.4z"/>
</svg>
