<?xml version="1.0" encoding="utf-8"?>
<!-- Generator: Adobe Illustrator 24.0.1, SVG Export Plug-In . SVG Version: 6.00 Build 0)  -->
<svg version="1.1" id="Layer_1" xmlns="http://www.w3.org/2000/svg" xmlns:xlink="http://www.w3.org/1999/xlink" x="0px" y="0px"
	 viewBox="0 0 800 800" style="enable-background:new 0 0 800 800;" xml:space="preserve">
<path id="black" d="M508.5,360.7c0,0-0.3-0.8-7.3-0.3c-9.8,0.7-18.1,4.2-24.4,8.1c-27.3,16.5-36.7,6-37,5.7
	c-10.9-0.6-22.1,3.9-32.4,13.2c-4.7,4.2-8.1,8.4-10.2,11.1l0,0l-6,6.9c0,2.2,4.6,13.3,11.7,17.1c-1.7,5-3.3,10.8-4.3,17.8
	c-2.4,2.5-8,9.7-12.6,16.9c-3,4.6-3.9,10.3-2.4,15.6l0.5,1.7c0.3-0.2,28.8-14.8,89.2,9.6l0.2-0.2c3.3-4.8,5.5-10.3,6.5-16.1
	c0.3-1.5,0.6-3.3,1-5.2c0.4-1.9,1.5-4.9,2.7-8.7c4.4-13.6,11.6-35.9,11.8-54.5c0,0,11.8-2.8,16-5.6
	C515.1,379.7,509.2,362.7,508.5,360.7z M465.6,472.5L465.6,472.5l-2.8-4.7l4.3-7.3l4.3,7.3l-2.8,4.7
	C467.7,472.8,466.6,472.8,465.6,472.5z M427,462.8l-2.6-4.3l4.3-7.3l4.3,7.3l-2.8,4.8C429.2,463.1,428.1,462.9,427,462.8z
	 M415.5,461.7l-1.9-3.3l4.3-7.3l4.3,7.3L420,462C418.5,461.9,416.9,461.8,415.5,461.7z M404.5,461.8l-2-3.3l4.3-7.3l4.3,7.3
	l-1.9,3.2C407.7,461.6,406.1,461.7,404.5,461.8z M433.6,387.2c0.8,0.8,1.7,1.5,2.7,2.2l2.3,3.9l-4.3,7.3l-4.3-7.3L433.6,387.2z
	 M445.9,392.9c1,0.1,2.1,0.1,3.3,0l0.3,0.5l-4.3,7.3l-4.3-7.3l0.8-1.3C443,392.5,444.4,392.8,445.9,392.9z M467.5,386.8l3.9,6.6
	l-4.3,7.3l-4.3-7.3l3.5-5.9C466.7,387.2,467.1,387,467.5,386.8z M485.9,372.7c1.6-0.7,3.2-1.4,5-2l2.4,4.1l-4.3,7.3l-4.3-7.3
	L485.9,372.7z M487.8,384.1l-4.3,7.3l-4.3-7.3l4.3-7.3L487.8,384.1z M468.2,458.5l4.3-7.3l2.2,3.7c-0.7,2.2-1.3,4.1-1.7,5.6
	c-0.4,1.5-0.7,3.1-1,4.6L468.2,458.5z M411.2,402.7l-1.7,2.9c-1.4-2.4-2.6-4.6-3.1-5.8c0.6-0.7,1.2-1.3,1.8-2L411.2,402.7z
	 M474.6,406.5l-2.1,3.5l-4.3-7.3l4.3-7.3l3.6,6c-1.3,1.5-2.5,3.3-3.4,5.4C473.4,406.7,474,406.6,474.6,406.5z M471.4,412l-4.3,7.3
	l-4.3-7.3l4.3-7.3L471.4,412z M435.4,421.3l4.3-7.3l4.3,7.3l-4.3,7.3L435.4,421.3z M438.6,430.6l-4.3,7.3l-4.3-7.3l4.3-7.3
	L438.6,430.6z M445.2,423.2l4.3,7.3l-4.3,7.3l-4.3-7.3L445.2,423.2z M446.4,421.3l4.3-7.3l4.3,7.3l-4.3,7.3L446.4,421.3z
	 M450.7,432.5l4.3,7.3l-4.3,7.3l-4.3-7.3L450.7,432.5z M451.8,430.6l4.3-7.3l4.3,7.3l-4.3,7.3L451.8,430.6z M457.3,421.3l4.3-7.3
	l4.3,7.3l-4.3,7.3L457.3,421.3z M461.6,432.5l4.3,7.3l-4.3,7.3l-4.3-7.3L461.6,432.5z M462.8,430.6l4.3-7.3l4.3,7.3l-4.3,7.3
	L462.8,430.6z M461.6,410l-4.3-7.3l4.3-7.3l4.3,7.3L461.6,410z M460.5,412l-4.3,7.3l-4.3-7.3l4.3-7.3L460.5,412z M450.7,410
	l-4.3-7.3l4.3-7.3l4.3,7.3L450.7,410z M449.5,412l-4.3,7.3l-4.3-7.3l4.3-7.3L449.5,412z M439.7,410l-4.3-7.3l4.3-7.3l4.3,7.3
	L439.7,410z M438.6,412l-4.3,7.3L430,412l4.3-7.3L438.6,412z M433.1,421.3l-4.3,7.3l-4.3-7.3l4.3-7.3L433.1,421.3z M416.7,412
	l-4.3,7.3l-0.5-0.8c1.1-3.4,2.2-6.4,3.3-9L416.7,412z M411.1,421.1l0.1,0.2l-0.3,0.6C410.9,421.6,411,421.3,411.1,421.1z
	 M409.1,428.8l3.3-5.6l4.3,7.3l-4.3,7.3l-3.9-6.5C408.7,430.5,408.9,429.7,409.1,428.8z M413.5,421.3l4.3-7.3l4.3,7.3l-4.3,7.3
	L413.5,421.3z M423.3,423.2l4.3,7.3l-4.3,7.3l-4.3-7.3L423.3,423.2z M423.3,419.3L419,412l4.3-7.3l4.3,7.3L423.3,419.3z M417.8,410
	l-1.7-2.9c1-2.5,2.5-6.8,3-9.6l3.1,5.2L417.8,410z M415.5,399.4l2.4-4.1l0.6,1.1C417.4,397.3,416.4,398.3,415.5,399.4z M405.4,444.6
	c0.4-0.4,0.8-0.9,1.2-1.3c0.3-2.9,0.8-6,1.3-9l3.3,5.6l-4.3,7.3L405.4,444.6z M405.7,449.2l-4.3,7.3l-2.4-4.1c1.5-2,3.2-4.1,5-6.2
	L405.7,449.2z M412.4,441.8l4.3,7.3l-4.3,7.3l-4.3-7.3L412.4,441.8z M413.5,439.9l4.3-7.3l4.3,7.3l-4.3,7.3L413.5,439.9z
	 M423.3,441.8l4.3,7.3l-4.3,7.3l-4.3-7.3L423.3,441.8z M424.5,439.9l4.3-7.3l4.3,7.3l-4.3,7.3L424.5,439.9z M434.3,441.8l4.3,7.3
	l-4.3,7.3l-4.3-7.3L434.3,441.8z M435.4,439.9l4.3-7.3l4.3,7.3l-4.3,7.3L435.4,439.9z M445.2,441.8l4.3,7.3l-4.3,7.3l-4.3-7.3
	L445.2,441.8z M450.7,451.1l4.3,7.3l-4.3,7.3l-4.3-7.3L450.7,451.1z M451.8,449.2l4.3-7.3l4.3,7.3l-4.3,7.3L451.8,449.2z
	 M461.6,451.1l4.3,7.3l-4.3,7.3l-4.3-7.3L461.6,451.1z M462.8,449.2l4.3-7.3l4.3,7.3l-4.3,7.3L462.8,449.2z M468.2,439.9l4.3-7.3
	l4.3,7.3l-4.3,7.3L468.2,439.9z M472.6,428.6l-4.3-7.3l4.3-7.3l4.3,7.3L472.6,428.6z M473.7,412l3.5-6c0.5-0.1,1-0.2,1.4-0.3
	l3.7,6.3l-4.3,7.3L473.7,412z M480.7,405.2c0.4-0.1,0.7-0.2,1-0.3c1.7-0.5,3.3-1.3,4.4-1.8c0.5-0.2,1.1,0.1,1,0.7l-3.6,6.2
	L480.7,405.2z M482.3,393.4l-2.8,4.7c-0.4,0.3-0.8,0.7-1.2,1c-0.3,0.3-0.6,0.5-0.8,0.8l-3.8-6.5l4.3-7.3L482.3,393.4z M472.6,391.4
	l-3.3-5.7c2.1-1.3,4.1-2.7,6.1-4.3l1.6,2.6L472.6,391.4z M461.6,391.4l-0.8-1.4c0.7-0.3,1.5-0.6,2.2-0.9L461.6,391.4z M458.9,390.7
	l1.6,2.7l-4.3,7.3l-4.3-7.3l0.6-1C454.4,392,456.6,391.4,458.9,390.7z M439.7,391.4L439.7,391.4
	C439.7,391.3,439.7,391.3,439.7,391.4L439.7,391.4z M433.1,402.7l-4.3,7.3l-4.3-7.3l4.3-7.3L433.1,402.7z M423.3,400.7l-4.3-7.3
	l4.3-7.3l4.3,7.3L423.3,400.7z M417.8,391.4l-0.9-1.5c1-0.7,2-1.4,3.1-2.1L417.8,391.4z M416.7,393.4l-4.3,7.3l-2.7-4.5
	c1.7-1.7,3.5-3.4,5.6-5.1L416.7,393.4z M394.3,463l-1.3-2.2c1.2-1.7,2.8-4.1,4.7-6.6l2.6,4.4l-2.3,4
	C396.6,462.6,395.4,462.8,394.3,463z M401.4,460.4l0.9,1.5c-0.6,0.1-1.3,0.1-1.9,0.2L401.4,460.4z M412.4,460.4l0.7,1.2
	c-0.5,0-1,0-1.4,0L412.4,460.4z M423.3,460.4l1.2,2.1c-0.8-0.1-1.5-0.2-2.3-0.2L423.3,460.4z M434.3,460.4l2.3,4
	c-1.4-0.3-2.8-0.5-4.2-0.8L434.3,460.4z M435.4,458.5l4.3-7.3l4.3,7.3l-3.9,6.7c-0.3-0.1-0.6-0.1-0.9-0.2L435.4,458.5z M445.2,460.4
	l4.1,6.9c-2.4-0.7-4.8-1.3-7.1-1.8L445.2,460.4z M451.8,467.8l4.3-7.3l4.3,7.3l-1.5,2.5c-2.4-0.8-4.7-1.5-6.9-2.1L451.8,467.8z
	 M461.6,469.7l1,1.7c-0.6-0.2-1.1-0.4-1.7-0.6L461.6,469.7z M475.9,451.3c-0.1,0.3-0.2,0.7-0.3,1l-1.9-3.2l4.3-7.3l0.6,1
	C477.6,445.9,476.7,448.8,475.9,451.3z M479.2,439.9l0.6-1.1c-0.1,0.5-0.3,1-0.4,1.5L479.2,439.9z M482,431.1l-4,6.8l-4.3-7.3
	l4.3-7.3l4.2,7.1C482.1,430.6,482.1,430.9,482,431.1z M479.2,421.3l4.3-7.3l1.8,3.1c-0.7,3.6-1.5,7.1-2.4,10.6L479.2,421.3z
	 M484.7,412l2-3.4c-0.2,1.8-0.5,3.6-0.8,5.4L484.7,412z M485.8,393.8c-0.2,0.1-0.5,0.3-0.7,0.4l-0.5-0.9l4.3-7.3l2.8,4.7
	C489.7,391.7,487.8,392.7,485.8,393.8z M494,389.8c-0.1,0.1-0.3,0.1-0.4,0.2l-3.5-5.9l4.3-7.3l2.3,3.9c0.2,2,0.4,4.1,0.4,6.2
	l-1.4,2.3C495.2,389.4,494.6,389.6,494,389.8z M495.7,374.7c0,0.1,0.1,0.2,0.1,0.3L495.7,374.7L495.7,374.7z M495,371.9l-0.5,0.9
	l-1.6-2.8c0.5-0.1,1-0.3,1.5-0.4C494.5,370.3,494.8,371.1,495,371.9z M482,374.7c0.1-0.1,0.2-0.1,0.3-0.2l0.1,0.2l-4.3,7.3l-1.2-2
	C478.6,378.4,480.4,376.7,482,374.7z M432.1,385.7l-3.4,5.7L425,385c1.7-0.8,3.5-1.4,5.3-1.9C430.8,383.9,431.4,384.8,432.1,385.7z"
	/>
</svg>
