<?xml version="1.0" encoding="utf-8"?>
<!-- Generator: Adobe Illustrator 24.0.1, SVG Export Plug-In . SVG Version: 6.00 Build 0)  -->
<svg version="1.1" id="Layer_1" xmlns="http://www.w3.org/2000/svg" xmlns:xlink="http://www.w3.org/1999/xlink" x="0px" y="0px"
	 viewBox="0 0 800 800" style="enable-background:new 0 0 800 800;" xml:space="preserve">
<style type="text/css">
	.st0{fill:#FFFFFF;}
</style>
<path id="black" d="M544.7,355.7c-30-4.1-44.2,0.7-51.9,3.4c-1.2,0.4-2.5-0.6-2.2-1.9c0.4-2.5,1.5-6.5,4-11c1.7-3,3.2-5.2,4.3-6.6
	c1.5-2,1.9-4.7,1-7l-0.6-1.5c0,0-51.6,25.1-60.2,25.7c-8.5,0.7-8.5,0.7-8.5,0.7s0.8,5.6,1.3,9.8c0.3,2.2-1,4.3-3.1,5.1
	c-1.3,0.5-2.9,1.1-4.8,2c0.5-0.9,1-2.2,1.4-4.4c1-5.4,2.7-13.2-0.9-12.1c0,0-2.4-0.3-3.7,1.1c-1.3,1.4-9.2,9.6-9.6,10.5
	c-0.3,1-0.8,2.3,0.6,3.2c1,0.6,5.3,2.9,8.1,3.8c-7,3.9-16.2,10.4-25.7,21.4c-19.7,22.7-33.9,32.5-50.6,31.6c0,0-6.9-6.2-11.5-3
	c-4.6,3.2-33.9,21.4-33.9,21.4s-3.6,1.3,2.3,8.5c5.9,7.2,25.6,19.7,51.3,15.1c25.7-4.6,31.9-16.1,33.9-15.5c2,0.7-27,29.6-20.4,55.2
	c0,0,1.3,13.5,43.4,14.1c41.7,0.8,74.3-8.7,74.3-8.7s6.2-2,5.3-8.2c-0.7-4.6-4.5-16-6.5-21.5c-0.7-2.2-1-4.4-0.7-6.7
	c0.9-7.2,3.5-24.1,9.8-39.2c5.8-13.9,6.8-28.8,7-36.5c0.1-3.3,2.2-6.1,5.3-7.1c7.8-2.4,22.7-5.9,34.4-1.7
	c16.8,5.9,15.8,15.1,15.8,15.1s2.6,7.2,20.7,4.6c18.1-2.6,25.9-5.3,26.4-14.9C597.3,381.8,581.2,360.6,544.7,355.7z"/>
<g id="white">
	<path class="st0" d="M585.9,370.9c-11.8-11.5-28.4-17.2-49.2-16.8c-20.6-2.7-35,0.1-45.3,3.6c-0.9,0.2-1.9,0.3-3.1,0.5
		c-0.3,0-0.5,0.1-0.8,0.2c-0.1,0-0.2,0.1-0.2,0.1c0.1-3.3,3.7-13.1,8.5-22.8c0.6-1.2,0.1-2.7-1.1-3.4c-1.2-0.6-2.7-0.1-3.4,1.1
		c-7.1,14.1-10,23.3-8.6,27.5c-0.5,0.2-0.9,0.4-1.4,0.6c-0.7,0.2-1.4,0.3-2,0.4c-0.1,0-0.1,0-0.2,0c0.3-4.1,4.2-15.3,8.3-24.6
		c0.6-1.3,0-2.7-1.3-3.3c-1.3-0.6-2.7,0-3.3,1.3c-8.3,18.9-9.1,26.1-8.5,29c-1,0.3-1.8,0.6-2.6,0.7c-0.1,0-0.1,0-0.2,0
		c-1.2-2.3,2.1-13.4,7.1-24.1c0.6-1.3,0-2.7-1.2-3.3c-1.3-0.6-2.7,0-3.3,1.2c-3.3,7-10.5,23.9-6.5,29.3c0.6,0.8,2.1,2.2,4.8,1.9
		c2.7-0.4,5.7-1.7,9.5-3.4c10.3-4.5,25.7-11.4,54.2-7.7c37.2,4.8,45.6,42.2,45.6,48.8c0,1.4,1.1,2.5,2.5,2.5s2.5-1.1,2.5-2.5
		c0-4.9-3.4-22.6-16-36.5c3.4,2.8,6.5,5.9,9.2,9.6c8.1,10.9,9.7,21.8,9.7,24.1c0,1.4,1.1,2.5,2.5,2.5s2.5-1.1,2.5-2.5
		c0-3.3-2-15.2-10.7-27.1c-2.2-3-5.1-6.2-8.7-9.3c2.5,1.7,4.9,3.6,7.1,5.7c11.7,11.5,14.1,25.5,14.1,28.6c0,1.4,1.1,2.5,2.5,2.5
		s2.5-1.1,2.5-2.5C601.5,398.7,598.6,383.4,585.9,370.9z"/>
	<path class="st0" d="M432,358.9c0.4,0.7,1.1,1.1,1.8,1.1c0.3,0,0.6-0.1,0.9-0.2c1-0.5,1.4-1.7,0.9-2.7c-0.7-1.5-1.3-2.4-1.3-2.4
		c-0.6-0.9-1.9-1.2-2.8-0.6c-0.9,0.6-1.2,1.9-0.6,2.8C430.9,356.9,431.4,357.6,432,358.9z"/>
	<path class="st0" d="M416.5,454.3c-1-0.4-2.1,0-2.6,1l-2,4.4c-0.5,1,0,2.1,1,2.6c0.2,0.1,0.5,0.2,0.8,0.2c0.7,0,1.4-0.4,1.8-1.2
		l2-4.4C417.9,455.9,417.5,454.8,416.5,454.3z"/>
	<path class="st0" d="M408.6,472.1c-1-0.4-2.2,0.1-2.6,1.1c-0.7,1.6-1.3,3.1-1.8,4.6c-0.4,1.1,0.2,2.2,1.2,2.6
		c0.2,0.1,0.5,0.1,0.7,0.1c0.8,0,1.5-0.5,1.8-1.3c0.6-1.4,1.2-2.9,1.8-4.5C410.1,473.7,409.6,472.5,408.6,472.1z"/>
	<path class="st0" d="M412.4,463.2c-1-0.5-2.2,0-2.6,1c-0.7,1.5-1.4,3-2,4.5c-0.4,1,0.1,2.2,1.1,2.6c0.3,0.1,0.5,0.2,0.8,0.2
		c0.8,0,1.5-0.5,1.8-1.3c0.6-1.4,1.2-2.9,1.9-4.4C413.9,464.8,413.4,463.6,412.4,463.2z"/>
	<path class="st0" d="M405.1,481.1c-1-0.3-2.2,0.3-2.5,1.3c-0.6,1.7-1.1,3.3-1.5,4.8c-0.3,1.1,0.3,2.2,1.4,2.5
		c0.1,0.1,0.3,0.1,0.5,0.1c0.9,0,1.7-0.6,2-1.6c0.4-1.5,0.9-3,1.4-4.6C406.7,482.6,406.1,481.4,405.1,481.1z"/>
	<path class="st0" d="M434.2,363.3c0.7,1.6,1.2,3,1.6,4.3c0.2,0.8,1,1.4,1.9,1.4c0.2,0,0.4-0.1,0.6,0c1-0.3,1.6-1.4,1.3-2.5
		c-0.4-1.4-1-3-1.8-4.8c-0.4-1-1.6-1.4-2.6-1C434.2,361.1,433.8,362.3,434.2,363.3z"/>
	<path class="st0" d="M399.6,509c0.1,0,0.1,0,0.2,0c1.1,0,1.9-0.8,1.9-1.8c0.1-1.5,0.3-3.1,0.5-4.8c0.2-1.1-0.6-2.1-1.7-2.2
		c-1.1-0.2-2.1,0.6-2.2,1.7c-0.2,1.8-0.4,3.4-0.5,4.9C397.7,507.9,398.5,508.9,399.6,509z"/>
	<path class="st0" d="M399.2,518.7c1.1,0,2-0.8,2-2c0-1.4,0.1-3,0.2-4.8c0-1.1-0.8-2-1.9-2.1c-1.1,0-2,0.8-2.1,1.9
		c-0.1,1.8-0.2,3.5-0.2,5C397.2,517.8,398.1,518.7,399.2,518.7z"/>
	<path class="st0" d="M402.3,490.6c-1.1-0.3-2.2,0.4-2.4,1.5c-0.3,1.4-0.6,2.8-0.8,4.2L399,497c-0.2,1.1,0.6,2.2,1.7,2.3
		c0.1,0,0.2,0,0.3,0c1,0,1.8-0.7,2-1.6l0.1-0.7c0.2-1.3,0.4-2.6,0.7-4C404.1,491.9,403.4,490.8,402.3,490.6z"/>
	<path class="st0" d="M424.3,436.3c-1-0.4-2.2,0.1-2.6,1.1c-0.6,1.5-1.3,3-1.9,4.5c-0.4,1,0.1,2.2,1.1,2.6c0.3,0.1,0.5,0.2,0.8,0.2
		c0.7,0,1.5-0.4,1.8-1.3c0.7-1.5,1.3-3,1.9-4.5C425.8,437.9,425.3,436.7,424.3,436.3z"/>
	<path class="st0" d="M438.9,369.8c-1.1-0.3-2.2,0.4-2.4,1.5c-0.1,0.5-0.4,2.1-1,4.8c-0.2,1.1,0.5,2.2,1.6,2.4c0.1,0,0.3,0,0.4,0
		c0.9,0,1.7-0.6,1.9-1.6c0.5-2.7,0.9-4.2,1-4.7C440.7,371.1,440,370,438.9,369.8z"/>
	<path class="st0" d="M420.5,445.5c-1-0.5-2.2,0-2.6,1c-0.7,1.4-1.3,2.9-2,4.4c-0.5,1,0,2.1,1,2.6c0.2,0.1,0.5,0.2,0.8,0.2
		c0.8,0,1.5-0.5,1.8-1.1c0.7-1.5,1.3-3,2-4.5C422,447.1,421.5,445.9,420.5,445.5z"/>
	<path class="st0" d="M435.1,389c-1.1-0.2-2.1,0.5-2.3,1.6c-0.2,1.5-0.5,3.1-0.8,4.8c-0.2,1.1,0.5,2.1,1.6,2.3c0.1,0,0.2,0,0.3,0
		c1,0,1.8-0.7,2-1.6c0.3-1.7,0.5-3.3,0.8-4.8C436.9,390.2,436.2,389.2,435.1,389z"/>
	<path class="st0" d="M436.8,379.4c-1-0.2-2.1,0.5-2.3,1.6c-0.3,1.4-0.6,3-0.9,4.8c-0.2,1.1,0.5,2.1,1.6,2.3c0.2,0,0.3,0,0.4,0
		c1,0,1.8-0.7,1.9-1.6c0.3-1.8,0.6-3.4,0.9-4.8C438.6,380.7,437.9,379.6,436.8,379.4z"/>
	<path class="st0" d="M433.4,398.6c-1.1-0.2-2.1,0.5-2.3,1.6c-0.3,1.5-0.5,3.1-0.8,4.8c-0.1,1.1,0.6,2.1,1.7,2.3c0.1,0,0.2,0,0.3,0
		c1,0,1.9-0.7,1.9-1.6c0.3-1.7,0.5-3.3,0.8-4.8C435.2,399.8,434.5,398.8,433.4,398.6z"/>
	<path class="st0" d="M427.5,427.3c-1-0.4-2.1,0.2-2.5,1.2c-0.5,1.4-1,2.9-1.6,4.5c-0.4,1.1,0.2,2.2,1.2,2.6
		c0.2,0.1,0.5,0.1,0.7,0.1c0.8,0,1.6-0.5,1.7-1.2c0.6-1.7,1.2-3.2,1.7-4.7C429.1,428.8,428.5,427.7,427.5,427.3z"/>
	<path class="st0" d="M431.9,408.3c-1.1-0.1-2.1,0.6-2.3,1.7l-0.4,2.4c-0.1,0.8-0.3,1.5-0.4,2.3c-0.2,1.1,0.5,2.1,1.6,2.3
		c0.2,0,0.3,0,0.4,0c0.9,0,1.8-0.7,2-1.6c0.1-0.8,0.3-1.6,0.4-2.4l0.4-2.4C433.7,409.5,433,408.5,431.9,408.3z"/>
	<path class="st0" d="M430.3,417.7c-1-0.2-2.1,0.4-2.4,1.5c-0.4,1.5-0.8,3-1.3,4.6c-0.4,1.1,0.2,2.2,1.3,2.5
		c0.2,0.1,0.4,0.1,0.6,0.1c0.8,0,1.6-0.5,2-1.5c0.5-1.6,0.9-3.3,1.3-4.8C432,419,431.4,418,430.3,417.7z"/>
	<path class="st0" d="M401.6,521.3c-0.2-1.1-1.2-1.9-2.3-1.7c-1.1,0.2-1.9,1.2-1.7,2.3c0.3,2,0.9,3.2,1.8,3.7c0.3,0.2,0.7,0.3,1,0.3
		c0.7,0,1.3-0.3,1.7-1c0.5-0.8,0.4-1.8-0.2-2.4C401.8,522.4,401.7,522,401.6,521.3z"/>
	<path class="st0" d="M413.6,375.5c0.8,0.6,1.6,1,2.5,1.4c0.9,0.4,1.8,0.7,2.8,1c1.1,0.2,2,0.4,3.1,0.4c0.5,0,1-0.2,1.3-0.6l1.6-1.9
		c0.1-0.1,0.2-0.2,0.2-0.3l0.1-0.2c0.5-1.1,0.8-2.2,1.1-3.5c0.3-1.1,0.5-2.4,0.7-3.6s0.3-2.4,0.4-3.7c0.2-0.6,0.3-1.1,0.2-1.8
		c-0.1-0.7-0.3-1.3-0.9-1.9c-0.6,0.6-0.9,1.1-1.1,1.7c-0.2,0.6-0.3,1.1-0.4,1.7c-0.3,1.2-0.6,2.4-1,3.4l-1,3.4
		c-0.3,1.1-0.6,2.1-0.9,3.1l-0.7,1c-1.3-0.5-2.7-1-4.1-1.5l-2.5-0.9c-0.9-0.3-1.7-0.7-3.2,0.1C411.9,374.4,412.7,375,413.6,375.5z"
		/>
	<path class="st0" d="M417.2,369.3c0.2-0.2,0.4-0.6,0.6-0.8c0.1-0.2,0.2-0.3,0.3-0.3c0.1,0,0.1-0.1,0.2,0c0,0,0.1,0.1,0.3,0.1
		c0.3,0.1,0.7,0.2,1,0.3c0.8,0.2,1.4,0.5,2.4-0.1c-0.5-1-1.2-1.1-1.8-1.5c-0.3-0.2-0.6-0.3-1-0.4c-0.1,0-0.4-0.1-0.7-0.2
		c-0.3-0.1-0.6-0.1-0.9,0c-0.6,0.1-1.2,0.4-1.5,0.9c-0.2,0.4-0.4,0.6-0.5,1c-0.4,0.7-0.8,1.3-0.5,2.3
		C416.2,370.5,416.6,369.9,417.2,369.3z"/>
	<path class="st0" d="M462,406.5c-0.1,0.1-0.2,0.2-0.3,0.3c0-0.1,0.1-0.3,0.1-0.4c0.7-3.1-0.3-5.8-2.1-6.8c-2.2,0.5-4.4,2.7-5.2,5.7
		c0,0.1-0.1,0.3-0.1,0.4c0-0.1-0.1-0.2-0.1-0.3c-1.1-2.2-3.1-3.4-5-3.2c-1.4,1.4-1.8,3.9-0.9,6.2c1,2.4,3.2,3.9,5.2,3.6
		c0.4-0.5,0.7-1,1-1.7c0.4,1,1,1.8,1.8,2.3c1-0.2,1.9-0.8,2.8-1.5c-0.1,0.7-0.1,1.3,0.1,1.9c1.9,1,4.8,0.4,7.1-1.6
		c2.2-2,3.1-4.6,2.4-6.5C466.9,404.1,464.2,404.7,462,406.5z"/>
</g>
</svg>
