<?xml version="1.0" encoding="utf-8"?>
<!-- Generator: Adobe Illustrator 24.0.1, SVG Export Plug-In . SVG Version: 6.00 Build 0)  -->
<svg version="1.1" id="Layer_1" xmlns="http://www.w3.org/2000/svg" xmlns:xlink="http://www.w3.org/1999/xlink" x="0px" y="0px"
	 viewBox="0 0 800 800" style="enable-background:new 0 0 800 800;" xml:space="preserve">
<style type="text/css">
	.st0{fill:#FFFFFF;}
</style>
<path id="white" class="st0" d="M370.7,415.7c0,0,22.8-11.6,30.5-17.5s17.2-19.4,17.2-19.4l19.9-4.6c0,0-5.9,26-1.7,39.3
	c0,0,9.4-10.4,14.3-19.8c4.8-9.4,5.2-14.9,5.2-14.9s14.5-16.2,28.1-15.5c13.7,0.7,18.9-3.7,31.9-4.3c12.9-0.5,16.5,1.1,16.5,1.1
	s-14,12.5-14.3,27.6s-2.5,31.7-2.5,31.7s-18.5-5.8-20.5-2.1c-2,3.7-13.7,42.7-13.7,42.7l0.9,30.6c0,0,11.3,12.4,7.2,18.7
	c-4.1,6.4-13.5,11-13.5,11s-39.6,24.3-43,23c-3.3-1.2-24.3-47.6-24.3-47.6l-23.3,37.6L363.1,517c0,0,5.2-10.3,6.2-14.9
	s11.7-41.2,14.7-43.6c2.9-2.4-2.9-10.6-2.9-10.6s-9.5-11.4-10.5-20.1S370.7,415.7,370.7,415.7z"/>
<path id="black" d="M537.4,363.6c0.2,0,0.3,0,0.5,0.1c0.4,0.1,0.5,0.5,0.6,0.6c0.9,2,3.2,3,5.3,2.1c2-0.9,3-3.2,2.1-5.3
	c-1.2-2.7-3.5-4.6-6.3-5.3c0,0,0,0-0.1,0c-0.2,0-0.3-0.1-0.5-0.1s-0.4-0.1-0.6-0.1c-4.2-0.7-8.5-1.2-12.8-1.3
	c-4.6-0.2-9.3,0-13.9,0.4s-9.2,1.2-13.7,2.2c-2.3,0.5-4.5,1.1-6.7,1.7c-1.1,0.3-2.2,0.7-3.3,1c-0.5,0.2-1,0.3-1.4,0.5l-2-1.1
	l-0.1-0.1c-1-0.5-2.1-0.7-3.2-0.3c-1.3,0.5-2.6,0.9-4,1.4c-1.3,0.5-2.6,1-3.9,1.6c-2.6,1.1-5.1,2.4-7.5,3.8s-4.8,3-7,4.7
	c-1.1,0.9-2.2,1.8-3.3,2.7c-0.5,0.5-1.1,1-1.6,1.5c-0.3,0.3-0.5,0.5-0.8,0.8s-0.5,0.5-0.9,0.9c-0.6,0.7-1,1.6-1,2.6v0.1
	c0,0.7,0,1.7-0.1,2.5c-0.1,0.9-0.1,1.8-0.2,2.6c-0.2,1.7-0.5,3.4-0.9,5.1c-0.4,1.6-1,3.1-1.7,4.4c-0.9,1.5-1.9,3.2-2.9,4.8
	c-2.3,3.6-4.6,7.3-6.9,10.9l-0.2-1.3c-0.2-1.8-0.4-3.7-0.5-5.5s-0.2-3.7-0.2-5.5v-2.8l0.1-2.7c0-0.9,0.1-1.8,0.2-2.7
	c0.1-0.9,0.2-1.8,0.3-2.7c0.2-1.8,0.6-3.5,1.1-5.2c0.3-0.8,0.5-1.6,0.8-2.4c1.6-0.5,2.7-2,2.7-3.8c0-2.2-1.8-4-4.1-3.9
	c-2.1,0-3.9,0.2-5.8,0.4c-1.9,0.2-3.8,0.5-5.7,0.8c-3.8,0.7-7.6,1.8-11.3,3.5l0,0l-0.3,0.1c-0.4,0.2-0.8,0.5-1.1,0.9l-11.1,15.1
	c-0.8,0.8-1.7,1.5-2.6,2.2c-3.3,2.8-6.8,5.5-10.4,7.9c-3.6,2.5-7.3,4.7-11.1,6.7c-3.8,2-7.8,3.8-11.8,5.3l0,0
	c-1.2,0.4-2,1.5-2.1,2.9l0,0c0,1.2,0,2.1,0,3.1s0.1,2,0.2,3c0.2,2,0.5,3.9,0.9,5.8c0.8,3.8,2,7.6,3.6,11.3c1.6,3.6,3.7,7.1,6.2,10.3
	c1.7,2.1,3.5,4,5.5,5.8c-17.7,24.5-18.6,43.9-18.2,50.7c-4.6,3.9-6,10.3-6.2,11.1c-0.2,1.2,0.1,2.3,0.8,3.3c0.7,0.9,1.8,1.5,3,1.5
	c6.8,0.2,16.9,10.6,21.7,17.1c0.8,1,2,1.6,3.2,1.6c0.1,0,0.3,0,0.4,0c1.4-0.2,2.6-1.1,3.2-2.4c5.1-11.7,13.9-27.9,19-37.1
	c2.8,6.5,5.6,12.9,8.3,19.4c1.9,4.5,3.7,9,5.4,13.5c1.7,4.5,3.4,9.1,4.8,13.5v0.1c0.1,0.2,0.2,0.4,0.3,0.6c1,2,3.4,2.7,5.4,1.8
	c4.9-2.5,9.6-5,14.3-7.6c4.7-2.6,9.4-5.3,13.9-8.2c4.6-2.8,9.1-5.8,13.6-8.9c2.4-1.7,4.8-3.5,7.2-5.5l0,0l0.9,4.7
	c0.7-0.6,5.9-5.3,6.5-5.9c0.6-0.6,1.1-1.1,1.6-1.7c1.1-1.2,2.1-2.5,3-4.2c0.2-0.4,0.4-0.9,0.6-1.4c0.2-0.5,0.4-1.1,0.5-1.6
	c0.1-0.3,0.1-0.6,0.1-1c0-0.3,0.1-0.7,0-1c0-0.4-0.1-0.7-0.1-1.1c0-0.2-0.1-0.4-0.1-0.5l-0.1-0.4c-0.6-2-1.2-3.2-1.9-4.6
	c-1.4-2.7-2.9-5.1-4.4-7.6c-1-1.7-2.1-3.3-3.2-5c0.2-0.4,0.4-0.9,0.6-1.4c0.5-1.5,0.7-3.1,0.5-4.7s-0.6-3-1.3-4.3
	c-0.3-0.7-0.7-1.2-1-1.8c0-0.1-0.1-0.1-0.1-0.2c0.4-4.6,1-9.3,1.9-13.7c0.3-1.2,0.5-2.4,0.9-3.6c0.2-0.6,0.3-1.1,0.5-1.7l0.6-1.7
	c1.1-2.8,1.8-5.3,2.5-7.9c1.4-5.2,2.7-10.3,4-15.4c1-4.1,2-8.2,2.9-12.3c1,0,2,0.1,3.1,0.2c2.1,0.2,4.1,0.5,6.1,0.8
	c2,0.4,4,0.9,5.9,1.5c1.9,0.6,3.7,1.3,5.4,2.2c0.1,0,0.2,0.1,0.2,0.1l0,0l0,0c0.1,0,0.2,0.1,0.3,0.1l0,0c0.2,0.1,0.4,0.1,0.6,0.2
	l0,0l0,0c0.6,0.1,0.7,0.1,1.1,0.1c0.3,0,0.6,0,0.8,0c0.6,0,1.1-0.1,1.6-0.1c1-0.2,2-0.4,3-0.8c0.5-0.1,0.9-0.3,1.4-0.6
	c0.4-0.2,0.9-0.4,1.3-0.7l1.2-0.8c0.4-0.3,0.8-0.5,1.2-0.8c1.5-1.2,2.8-2.5,4-3.9c0.5-0.7,1.1-1.4,1.6-2.2l1.3-2.3
	c0.5-0.7,0.8-1.5,1.2-2.3c0.3-0.8,0.7-1.6,1.1-2.3l0.9-2.4c0.3-0.8,0.6-1.6,0.8-2.4c0.4-1.6,0.9-3.2,1.2-4.8l0.9-4.8
	c0.4-2.2-1-4.3-3.2-4.7c-1.6-0.3-11.9-2-17.5-2c0.2-0.5,0.3-1,0.5-1.5C530.8,364.3,537.1,363.7,537.4,363.6z M459.5,380.4
	c0.1-0.1,0.1-0.1,0.2-0.2c0.4-0.4,0.9-0.8,1.3-1.2c0.9-0.8,1.8-1.6,2.8-2.3c2-1.5,4-2.8,6.2-4.1c2.2-1.2,4.4-2.3,6.7-3.3
	c1.1-0.5,2.3-0.9,3.5-1.4c0.2-0.1,0.4-0.2,0.6-0.2c-0.5,1.6-0.9,3.3-1.2,4.9c-0.6,3.1-1,6.2-1.2,9.3c-0.2,3.1-0.4,6.1-0.4,9.2
	c0,0.3,0,0.6,0,0.9c-1.5-1-3-2-4.5-3c-3.8-2.4-7.9-4.6-11.7-7.1l-0.2-0.1c-0.6-0.4-1.3-0.5-2.1-0.4
	C459.5,381,459.5,380.7,459.5,380.4z M452.3,402.4c1-1.7,2-3.3,3.1-5c1.2-2.1,1.9-4.2,2.5-6.2c0.3-1.1,0.6-2.2,0.8-3.4
	c0.1,0.3,0.3,0.6,0.4,0.9c0.5,1.1,1.1,2.2,1.5,3.3c0.5,1.2,0.8,2.5,1.1,3.7c-0.5,0.4-1.1,0.8-1.6,1.2l-3.8,2.7L452.3,402.4
	L452.3,402.4z M410.1,392.8c1.5-1.5,2.9-2.9,4.3-4.6c0,0,0-0.1,0.1-0.1l5.5-5.9c2.7-1.2,5.7-2,8.8-2.6c1.5-0.3,3.1-0.5,4.7-0.7
	c-0.6,1.9-1.2,3.9-1.5,5.8c-0.4,2.3-0.8,4.6-1,6.9c-0.9-1.5-2.9-2.3-4.6-1.7l-20.2,7L410.1,392.8z M430.8,402.6
	c0.1,2,0.2,3.9,0.4,5.9c0,0.3,0.1,0.7,0.1,1l-7.5-6.7l6.8-6.6l0,0l0.2-0.2c0,0.2,0,0.4,0,0.6C430.7,398.7,430.8,400.6,430.8,402.6z
	 M405.8,491c-2,3.6-12.8,22.8-20.2,38.5c-4.3-4.8-11.2-11.6-18.5-14.2c0.7-1.4,1.7-2.7,3-3.4c1.6-0.8,2.4-2.5,2.1-4.2
	c0-0.2-3.3-21.1,18.2-49.5c0.3-0.2,0.5-0.5,0.8-0.8c0.2-0.2,0.3-0.5,0.4-0.7c3.2-4.2,7-8.5,11.4-12.9c0.7-0.7,1.1-1.5,1.1-2.5
	c0-0.2,1.9-20.6,11.2-29.6c1.6-1.5,1.6-4.1,0.1-5.7s-4.1-1.6-5.7-0.1c-9.9,9.6-12.8,27.9-13.5,33.2c-3.4,3.5-6.5,6.9-9.2,10.3
	c-1.6-1.3-3.1-2.8-4.4-4.4c-2.2-2.6-4.1-5.4-5.6-8.5s-2.7-6.3-3.5-9.7c-0.4-1.7-0.7-3.4-1-5.1c-0.1-0.9-0.2-1.7-0.3-2.6
	c0-0.2,0-0.3,0-0.5c3.5-1.5,7-3.1,10.3-4.9c4-2.2,7.9-4.7,11.6-7.3c1.2-0.8,2.3-1.7,3.4-2.5c0.5,0.3,1,0.4,1.6,0.3h0.1l20.4-4.5
	l-1.1,1.8l-0.3,0.6c-0.5,0.8-0.3,1.9,0.5,2.6l0,0l13,15.5c-2.6,5.1-5,10.2-7.4,15.4c-0.5,1.2-1.1,2.4-1.6,3.6
	c-1.1-0.1-2.3-0.2-3.5-0.2c-1.9,0.1-3.9,0.4-5.8,1s-3.8,1.4-5.4,2.8c4,0.9,7.4,1.6,10.9,2.1c0.4,0.1,0.8,0.1,1.2,0.1
	c-1.2,2.9-2.4,5.8-3.5,8.7c-2.3,6.2-4.5,12.4-6.4,18.7C408.5,478.5,406.9,484.7,405.8,491z M516.2,383.8
	c-4.1,12.9-5.6,23.2-4.5,30.5c-1.2-0.3-2.3-0.6-3.5-0.8c-2.3-0.4-4.6-0.7-6.9-0.9c-1.2-0.1-2.3-0.2-3.5-0.2s-2.3-0.1-3.6,0
	c-1.8,0-3.3,1.3-3.7,3.1v0.1c-1.2,5.1-2.4,10.2-3.6,15.3c-1.2,5.1-2.5,10.2-3.9,15.2c-0.7,2.5-1.4,5-2.2,7.1l-0.8,2
	c-0.2,0.7-0.5,1.4-0.7,2.1c-0.4,1.4-0.7,2.8-1,4.1c-0.7,3.6-1.2,7.2-1.6,10.8c-0.9-0.2-1.8-0.4-2.7-0.5c-1.4-0.2-2.8-0.3-4.3-0.1
	c-1.4,0.2-2.9,0.5-4.3,1.5c1.2,1.2,2.3,2,3.4,2.8c1.1,0.7,2.2,1.3,3.3,1.9c1.1,0.6,2.1,1.2,3.1,1.9c0.8,0.5,1.5,0.9,2.3,1.4l0.3,0.4
	c0.2,0.3,0.4,0.6,0.5,0.9c0.3,0.6,0.4,1.1,0.5,1.6c0,0.4,0,0.8-0.1,1.2c-2.2-0.1-4.5-0.2-6.7-0.1c-1.6,0-3.2,0-4.9,0.2
	c-1.6,0.1-3.3,0.4-5,0.9c1.4,1.1,2.9,1.9,4.4,2.5c1.5,0.7,3,1.2,4.5,1.8c0.7,0.2,1.3,0.5,2,0.7c3.6,1.2,6.8,3.6,8.8,6.9
	c0.1,0.2,0.2,0.3,0.3,0.5c1.4,2.3,2.8,4.7,4,7c0.3,0.6,0.6,1.1,0.8,1.7l0.3,0.8c0.1,0.3,0.1,0.4,0.2,0.6c0,0-5.6,1.9-12.9,7.9
	c-3.6,2.9-12.8,8.9-17.3,11.7s-9,5.4-13.7,8c-3.2,1.8-6.5,3.6-9.8,5.3c-1.1-3.2-2.3-6.4-3.5-9.5c-1.8-4.6-3.6-9.2-5.5-13.7
	c-3.6-8.7-7.3-17.3-11-25.9c1.1-5.8,2.5-11.6,4.2-17.4c1.9-6.1,3.9-12.2,6.2-18.1c1.4-3.6,2.9-7.2,4.4-10.8c0.4,0.1,0.7,0.1,1.1,0.2
	c3.6,0.5,7.1,1.3,10.7,1.9c1.8,0.4,3.6,0.8,5.4,1.1c1.8,0.4,3.7,0.6,5.7,0.4c-1.4-1.4-3-2.5-4.7-3.4c-0.9-0.5-1.9-0.8-2.8-1.2
	c-0.6-0.3-1.2-0.6-1.9-0.8c-3.6-1.4-7.4-2.7-11.3-3.5l0,0c2.7-6.1,5.6-12.3,8.7-18.2c2.3-1.6,4.6-3.2,6.9-4.8c2.5-1.8,5-3.7,7.5-5.5
	l7.4-5.6l3.7-2.8c1.2-1,2.5-1.9,3.6-2.9l0.6-0.5c1.1-1,1.4-2.7,0.7-4c3.3,2.6,6.8,5,10.1,7.5c1,0.7,2.3,1,3.6,0.6
	c1.8-0.5,3-2.3,2.9-4.2v-0.1c-0.1-2.8-0.1-5.7-0.1-8.6s0.1-5.8,0.4-8.6c0.2-2.8,0.6-5.7,1-8.4c0.3-2.1,0.8-4.1,1.4-6l0,0
	c1.5-0.5,2.9-1,4.4-1.4c2-0.6,4.1-1.1,6.2-1.6c4.2-1,8.4-1.6,12.7-2.1c4.6-0.5,9.1-0.7,13.7-0.5l0,0
	C521.9,368.2,518.6,376.4,516.2,383.8z"/>
</svg>
