<?xml version="1.0" encoding="utf-8"?>
<!-- Generator: Adobe Illustrator 24.0.1, SVG Export Plug-In . SVG Version: 6.00 Build 0)  -->
<svg version="1.1" id="Layer_1" xmlns="http://www.w3.org/2000/svg" xmlns:xlink="http://www.w3.org/1999/xlink" x="0px" y="0px"
	 viewBox="0 0 800 800" style="enable-background:new 0 0 800 800;" xml:space="preserve">
<style type="text/css">
	.st0{fill:#FFFFFF;}
</style>
<g>
	<path class="st0" d="M370.4,494.5c0,0,15.4-9.5,45.9-6.1s63.4,19.9,63.4,19.9l4-4c0,0-5.3-18-4.8-26.2s5.3-19.3,5.3-19.3
		s-14.6,21.7-18.6,4.2s-2.1-44.5,1.3-55.7c3.4-11.1,24.9-43.2,24.9-43.2s-13.5-0.3-19.9,9.5s-18.6,31.8-18.6,31.8
		s-15.6,20.7-23.3,4.5c-7.7-16.2,3.4-35.8,3.4-35.8l-13,6.9c0,0-12.5,57.8-16.7,66s-13.5,8.5-13.5,8.5l-8,8.2c0,0-2.4,10.1-4.8,14.3
		S370.2,483.9,370.4,494.5z"/>
	<path d="M493.6,358.5c-3.5-3.5-9.6,0.9-15.6,6.5c-8.5,3.2-12,11.4-12.7,13.3c-7.9,14.4-21.9,34.6-28.6,35c-0.4,0-0.9,0.1-1.7-1
		c-7.7-10.7-0.2-29.2,1.4-32.9l4.4-3.7c1-0.8,1.4-2.1,1.2-3.4c-0.3-1.2-1.2-2.3-2.4-2.6c-9.4-3-20.5,6.7-21.8,7.8
		c-0.6,0.5-1,1.3-1.1,2.1C405.4,452,394.5,452,394,452c-3.6-0.3-6.9,1.7-8.6,4.9l-0.7,1.4c-2.9,0.4-4.4,1.8-5.2,3.1
		c-1.3,2.1-1.1,4.6-0.5,6.3c-1.2,1.5-3,4.1-5.6,8.4l-1.2,2c-1,1.6-1.7,2.8-2,3.2c0,0,0,0-0.1,0c-0.4,0.3-1.1,0.7-2.3,1.6
		c-5.2,4.2-2.1,13.7-1.5,15.6c0.4,1,1.2,1.8,2.2,2.1c1,0.3,2.2,0.2,3.1-0.5c34.2-23.6,105.9,11.5,106.6,11.9c0.5,0.2,1,0.4,1.6,0.4
		c0.9,0,1.9-0.4,2.6-1.1l4.9-5.3c1.1-1.2,1.2-2.9,0.4-4.2c0,0-2.2-3.6-3.8-10.9c-1.2-5.7-1.6-11.2-1.7-13.5c1.6-2,4.6-6.5,7.9-14.8
		c4.5-11.6,2.8-31.1,2.7-31.9c-0.2-1.9-3-9.9-4.9-9.7c-1.9,0.2-2.2,8.4-2.1,10.3c0.9,11.8-9,32.9-14.4,33.5c-1,0.1-4.3-2.6-6.2-16.3
		c-6-42.6,30.4-80.7,30.8-81.1c0.9-0.9,4.8-4.7,6.5-5.8C498.1,358,496.4,358.3,493.6,358.5z M458.4,449.4
		c0.8,5.8,3.3,23.4,13.9,22.3c3.2-0.3,6.2-2.6,8.9-6c-1,2.1-2,3.8-2.7,5c-0.4,0.5-0.8,0.9-1.2,1.4c-1.7,1.9-3.6,3.7-5.6,5.4
		c-2,1.7-4.2,3-6.6,4.2s-4.9,2-7.6,2.6c1.4,0.1,2.8,0.3,4.2,0.1c1.4,0,2.8-0.4,4.2-0.7c2.7-0.8,5.3-1.9,7.8-3.4
		c0.6-0.4,1.2-0.7,1.8-1.1c0.2,3,0.6,7.9,1.7,13.1c1.1,5,2.4,8.5,3.4,10.7l-1.5,1.6c-5.7-2.7-21.2-9.5-39.7-14.3
		c-13.5-3.6-25.7-5.3-36.4-5.3c-12.1,0-22.4,2.3-30.8,6.8c-0.2-1.7-0.1-3.1,0.3-3.4c0.8-0.6,1.2-0.9,1.5-1c1.6-1,1.9-1.4,4.4-5.6
		l1.2-2c3.9-6.4,5.6-8.3,6-8.7c0.3-0.2,0.5-0.4,0.7-0.6c0.2,0.1,0.4,0.2,0.6,0.4c0.8,0.4,1.8,0.8,2.8,0.8c-0.5-0.9-0.9-1.7-1.3-2.4
		c-0.4-0.7-0.8-1.5-1.2-2.3c-0.3-0.6-0.6-1.2-0.8-1.8c0.2,0,0.5,0,0.8,0c1.4,0.1,2.7-0.7,3.3-1.9l1.6-3.2c0.3-0.7,1.1-1.1,1.8-1.1
		c8,0.6,12.9-10.5,14.6-14.2c5.6-12.5,10.7-33.6,15.3-62.8c1.4-1.1,3.6-2.7,6-3.9c-2.7,6.5-9.3,25.6-0.1,38.4
		c2.5,3.5,5.6,4.1,7.8,3.9c13-0.8,31-32.5,34.5-38.9c0.1-0.2,0.2-0.4,0.3-0.6c0-0.1,2.5-7.2,9.1-9.4c0.5-0.2,0.9-0.4,1.3-0.8
		c1.9-1.8,4.1-3.5,5.8-4.8C478.8,376.6,452.9,410.6,458.4,449.4z"/>
</g>
</svg>
