<?xml version="1.0" encoding="utf-8"?>
<!-- Generator: Adobe Illustrator 24.0.1, SVG Export Plug-In . SVG Version: 6.00 Build 0)  -->
<svg version="1.1" id="Layer_1" xmlns="http://www.w3.org/2000/svg" xmlns:xlink="http://www.w3.org/1999/xlink" x="0px" y="0px"
	 viewBox="0 0 800 800" style="enable-background:new 0 0 800 800;" xml:space="preserve">
<style type="text/css">
	.st0{fill:#FFFFFF;}
</style>
<path id="white" class="st0" d="M360.1,465.5c0,0-6.6,2.4-13.8,2.7c0,0,0.6,20.1,4.2,25.2S361,494,361,494l0.6,10.8l-6.3,10.8
	l-15.6,8.4l5.7,6l48.5,35l41,1.8l49.7-13.2c0,0,6-39.2,5.1-48.8c-0.9-9.6-0.3-13.8-0.3-13.8l5.7-66.5l33.8,9.6c0,0,4.2,0.9,7.2-5.4
	s8.1-33.8,8.1-33.8s-3.9-2.7-13.2-2.4c0,0,5.1-24.3,11.1-33.8c0,0-14.1,0.9-24.6,3.9s-3.3,2.7-12,3s-18.3,2.4-18.3,2.4l-5.1,1.2
	c0,0-8.4,7.8-10.8,12s-11.7,17.4-24.3,18c-12.6,0.6-18.6-16.2-18.6-16.2l1.5-8.4c0,0-19.2,2.7-22.8,7.5s-19.8,28.4-31.7,34.4
	c-12,6-26.7,10.2-26.7,10.2l-3.6,2.4c0,0,6.9,5.7,8.7,15C355.9,453.2,360.1,465.5,360.1,465.5z"/>
<g id="black">
	<path d="M549.2,355.9l-4.8-1.5c-3.3-1-6.8-1.4-10.2-1.3s-6.7,0.7-9.9,1.6s-6.3,2.1-9.1,3.7c-0.5,0.3-1,0.6-1.5,0.9
		c-0.2-0.1-0.5-0.2-0.7-0.2c-1.3-0.3-2.5-0.6-3.8-0.7c-2.6-0.3-5.2-0.2-7.7,0.2c-2.5,0.4-5,1-7.5,1.8c-1.2,0.4-2.4,0.8-3.6,1.3
		c-0.6,0.2-1.2,0.5-1.8,0.8c-0.2,0.1-0.3,0.1-0.5,0.2l-5.7-1l-1-0.2h-0.1c-0.6-0.1-1.2,0.4-1.3,1l0,0c-3.7,6.4-7.8,12.6-12.3,18.3
		c-2.3,2.8-4.7,5.6-7.2,8c-1.3,1.2-2.6,2.3-4,3.3s-2.8,1.9-4.2,2.6c-1.4,0.7-2.9,1.2-4.3,1.5c-0.7,0.1-1.4,0.2-2.1,0.2
		s-1.4,0-2.2-0.1c-1.5-0.2-2.9-0.6-4.1-1.2s-2.1-1.4-2.8-2.4c-1.5-2-2.3-5-2.6-8.4c-0.1-1-0.2-2.1-0.2-3.2c-0.1-3.3,2.4-6,5.7-6.2
		c0.9-0.3-0.1-1.9-0.9-2.6c-2.5-2.1-5.4-1.8-6.8-1.8c-1,0-2,0.1-3.1,0.1c-0.5,0-1,0.1-1.5,0.1l-1.5,0.3c-1,0.2-2,0.4-3,0.6
		c-1,0.3-2,0.6-3,0.9s-1.9,0.8-2.9,1.2c-0.9,0.4-1.9,0.8-2.8,1.4c-0.9,0.5-1.8,1-2.7,1.5l-2.5,1.7c-3.3,2.4-6.3,5.2-8.9,8.2
		s-4.9,6.1-7.2,9.2c-2.3,3-4.6,6-7.2,8.5c-2.8,2.5-5.6,5.1-8.5,7.4s-6,4.5-9.1,6.5c-1.6,1-3.2,2-4.8,2.8c-0.8,0.5-1.6,0.9-2.5,1.3
		c-0.4,0.2-0.8,0.4-1.2,0.6c-1.4-0.1-2.9-0.1-4.3-0.1c-0.9,0-1.7,0.1-2.6,0.1c-0.9,0.1-1.4,0-3.2,0.3c-1.4,0.3-2.7,1-3.7,1.8
		s-1.7,1.7-2.3,2.5c-0.6,0.9-1.1,1.8-1.5,2.7c-0.4,0.9-0.7,1.8-1,2.9s0.2,2.4,1.4,3c1.2,0.6,2.7,0.1,3.5-1l0.1-0.2
		c0.1,0.1,0.2,0.3,0.3,0.4c0.7,0.6,1.6,0.6,2.3,0.1l0,0c0.2,0.4,0.4,0.8,0.6,1.3c0.2,0.4,0.4,0.9,0.6,1.4l0.3,0.7
		c0.1,0.3,0.1,0.4,0.2,0.6c0.3,0.8,0.5,1.8,0.7,2.8c0.4,2,0.8,4.1,1.1,6.2c0.3,2.1,0.7,4.2,1,6.4c1.2,8.5,2.1,17.2,2.4,25.6
		c0,2.1,0,4.2-0.1,6.2c-0.1,1.7-0.3,3.4-0.7,4.8c-0.1-0.1-0.1-0.2-0.2-0.3c-0.4-0.7-0.8-1.4-1.2-2.3c-0.8-1.7-1.5-3.6-2.2-5.6
		s-1.3-4-1.9-6c-1.2-4.1-2.2-8.4-3.2-12.6v-0.1c-0.2-0.9-1.1-1.6-2.1-1.5s-1.7,1-1.7,2c-0.2,4.5,0,8.9,0.5,13.4
		c0.3,2.3,0.6,4.5,1.1,6.8s1.1,4.6,2.1,6.9c0.5,1.2,1.2,2.3,1.9,3.5c0.8,1.2,1.9,2.4,3.5,3.5l0.6,0.4c0.2,0.1,0.5,0.2,0.8,0.3
		c0.3,0.1,0.5,0.2,0.8,0.3c0.3,0.1,0.6,0.1,0.8,0.2c0.3,0,0.6,0.1,0.9,0.1c0.4,0,0.8,0,1.2-0.1c0.8-0.1,1.6-0.4,2.3-0.8
		c0.2-0.1,0.4-0.3,0.6-0.4c-0.2,0.4-0.3,0.8-0.5,1.1c-0.8,2.1-1.7,4.3-2.5,6.4l-1.6,4.1c-0.2,0-0.4,0-0.6,0.1
		c-1.1,0.2-2.1,0.4-3.2,0.6c-2.1,0.5-4.2,1.2-6.3,2.2c-2.1,1-4.1,2.3-5.8,4.2c-0.9,0.9-1.6,2-2.3,3.2c-0.6,1.2-1.1,2.4-1.4,3.7
		c0,0-0.9,7.3,4.4,10.5c6.5,4,14.3,4.1,14.3,4.1c5.5,3.6,10.8,7.3,16.1,11.2c5.2,3.9,10.4,8,15.3,12.2c0.6,0.5,1.4,1.1,2.1,1.7
		c0.8,0.6,1.6,1.1,2.4,1.6c1.6,1,3.3,1.8,5.1,2.5c3.5,1.4,7,2.2,10.5,2.7c7,1,14,0.8,20.8,0.1s13.5-1.9,20-3.4
		c6.6-1.5,13.1-3.3,19.5-5.3s12.7-4.2,19-6.7c1.1-0.5,2-1.4,2.3-2.6l0,0c1.3-5.1,2.5-10.1,3.5-15.2c1-5.1,1.9-10.2,2.6-15.4
		c0.3-2.6,0.6-5.3,0.7-7.9c0.1-2.7,0.2-5.3,0.1-8s-0.3-5.3-0.6-8c-0.2-1.3-0.3-2.7-0.5-4c-0.2-1.1-0.4-2.2-0.6-3.4
		c0.3-5.1,0.7-10.3,1.2-15.4c0.5-5.3,1-10.6,1.7-15.9c1.2-10.1,2.7-20.2,4.7-30.1c4.7,1.2,9.3,2.7,13.9,4.4c2.6,1,5.3,1.9,8,2.9
		c1.4,0.5,2.8,0.9,4.4,1.3c0.4,0.1,0.8,0.2,1.2,0.3c0.4,0.1,0.8,0.2,1.4,0.2l0.7,0.1c0.2,0,0.6,0,0.9,0h0.5c0.1,0,0.1,0,0.2,0h0.3
		c0.4-0.1,0.9-0.2,1.3-0.3c0.4-0.1,0.7-0.3,1-0.5c0.7-0.2,1.2-0.5,1.6-0.8c0.6-0.4,1-0.8,1.4-1.2c1.4-1.5,2.1-2.8,2.9-4.2
		c1.4-2.7,2.4-5.3,3.3-7.9c1.8-5.3,3.1-10.6,4.1-16c0.5-2.7,0.9-5.4,1.2-8.2c0.3-2.8,0.4-5.5,0.3-8.4c-0.1-1.7-1.8-3.1-3.7-2.4
		c-1.1,0.4-1.8,1.4-1.8,2.5v0.1c-0.1,4.9-1.1,10.1-2.3,15.1c-1.2,5.1-2.7,10.1-4.5,14.9c-0.9,2.4-1.9,4.7-3.1,6.8l-0.1,0.1
		c-0.2-1-0.3-2-0.4-3.1c-0.2-2.5-0.3-5.1-0.4-7.7c-0.3-10.4,0.3-20.9,2.3-30.9c1-5,2.3-10,4.2-14.6c0.9-2.3,2-4.5,3.2-6.5
		c0.6-1,1.3-1.9,1.9-2.6c0.3-0.4,0.7-0.7,0.9-0.9c0.3-0.2,0.5-0.4,0.5-0.4l0,0c0.5,0.8,1.3,1.4,2.2,1.7c2.3,0.7,4.7-0.7,5.2-3.1
		C552.6,358.6,551.2,356.5,549.2,355.9z M530.4,369.5c-2.2,5.3-3.6,10.7-4.7,16.1c-1.1,5.4-1.7,10.9-2,16.4s-0.3,11-0.1,16.4
		c0.1,2.7,0.3,5.4,0.6,8.3c0.1,0.9,0.3,1.8,0.4,2.7c-0.1,0-0.2-0.1-0.3-0.1c-2.6-1-5.2-2.1-7.9-3.1c-5.4-2.1-12.9-4.4-19.6-4.8
		c-22.3-1.4-33,6.3-33,6.3c0.1,1.2,1.1,2.1,2.3,2h0.1c2.9-0.2,5.4-0.7,8-1c2.5-0.4,5.1-0.8,7.7-0.8c2.4-0.1,4.9,0.1,7.3,0.4
		c-0.4,0.4-0.9,0.7-1.3,1.1c-1.6,1.5-3,3.3-4.3,5c-1.3,1.8-2.4,3.6-3.5,5.4c-1.1,1.9-2,3.7-2.9,5.7c-0.2,0.4-0.1,0.9,0.3,1.2
		c0.4,0.3,1.1,0.3,1.4-0.1l0,0c2.6-3.2,5.3-6.4,8-9.4c1.1-1.2,2.3-2.3,3.4-3.4c-1.6,8.5-2.8,17-3.8,25.6c-0.6,5.4-1.2,10.8-1.7,16.2
		c-0.5,5.4-0.9,10.8-1.2,16.2c0,0.4,0,0.7,0.1,1.1v0.1l0,0c0.2,1,0.5,2.3,0.7,3.4c0.2,1.2,0.4,2.4,0.5,3.6c0.3,2.4,0.4,4.9,0.5,7.3
		s0,4.9-0.1,7.3c-0.1,2.5-0.4,4.8-0.7,7.3c-0.6,5-1.5,9.9-2.5,14.9c-0.9,4.3-1.8,8.6-2.9,12.7c-5.4,2.1-11,4-16.5,5.8
		c-6.2,1.9-12.5,3.7-18.8,5.1c-6.3,1.4-12.7,2.6-19.1,3.2c-6.4,0.6-12.8,0.8-18.8,0c-3-0.4-6-1.1-8.7-2.2c-1.4-0.5-2.6-1.2-3.8-1.9
		c-0.6-0.4-1.2-0.8-1.7-1.2s-1-0.8-1.7-1.4c-5.1-4.4-10.4-8.6-15.7-12.6c-5.4-4-10.9-7.8-16.5-11.5c-2.8-1.8-5.6-3.6-8.5-5.4
		c-1.3-0.8-2.5-1.5-3.8-2.3c-0.9-0.5-1-1.8-0.2-2.4c2.2-1.6,6.8-4.2,15-4.4c1.4-1.4,4-10.5,5.8-14.7c1.8-4.1,3.6-8.2,5.5-12.3
		c3.8-8.1,7.9-16.1,12.3-23.9c2.2-3.9,4.5-7.9,6.7-12.2c0.3-0.5,0.5-1.1,0.8-1.6s0.5-1.1,0.8-1.7c0.5-1.2,0.9-2.4,1.2-3.6
		c0.7-2.4,1.2-4.7,1.7-7c0.9-4.6,1.5-9.2,1.6-13.9l0.1-3.5l-0.1-3.5c0-1.2-0.2-2.3-0.5-3.5s-0.8-2.4-1.6-3.5c-1,1.1-1.6,2.2-2.1,3.3
		c-0.5,1.1-0.9,2.2-1.1,3.3l-1.4,6.6c-0.9,4.4-1.6,8.8-2.6,13.1c-0.5,2.1-1,4.2-1.6,6.2c-0.3,1-0.7,2-1,2.8
		c-0.2,0.4-0.4,0.9-0.6,1.4s-0.4,0.9-0.7,1.4c-2,3.8-4.4,7.7-6.7,11.6c-4.6,7.9-8.9,16.2-12.7,24.5c-0.3,0.7-0.6,1.4-1,2.1
		c0.1-0.8,0.2-1.6,0.3-2.5c0.2-2.4,0.3-4.7,0.3-6.9c0-9.1-0.9-18-2.6-26.9c-0.8-4.4-1.8-8.8-3.5-13.2c-0.4-1.1-0.9-2.2-1.5-3.4
		c-0.1-0.3-0.3-0.6-0.5-0.9l-0.5-0.7c-0.3-0.5-0.7-1-1-1.5s-0.8-1-1.2-1.5c-0.2-0.3-0.5-0.5-0.8-0.8c-0.2-0.2-0.6-0.5-0.9-0.7
		c0.4,0,1,0.1,1.4,0.1c0.8,0.1,1.6,0.1,2.5,0.2c1.6,0.1,3.3,0.1,4.9,0l0,0l0.8-0.1c0.4,0,0.8-0.2,1.1-0.4c1-0.6,1.7-1.2,2.6-1.8
		c0.8-0.6,1.6-1.2,2.4-1.7c1.6-1.2,3.1-2.4,4.7-3.6c3.1-2.4,6.1-4.9,9-7.4c2.9-2.6,5.8-5.1,8.6-7.8c2.9-2.8,5.5-5.7,8.2-8.4
		c5.4-5.5,10.7-10.6,16.2-15c2.8-2.2,5.8-4,8.9-5.7c0.8-0.4,1.6-0.7,2.4-1.1s1.6-0.6,2.5-1l1.2-0.5h0.2c-0.2,0.6-0.4,1.2-0.6,1.8
		c-0.6,1.9-1,4-1.2,6.1s-0.1,4.3,0.4,6.5s1.4,4.5,2.9,6.5s3.5,3.7,5.7,4.8c2.2,1.1,4.5,1.6,6.7,1.9c1.1,0.1,2.3,0.2,3.5,0.1
		s2.3-0.2,3.4-0.5c2.2-0.5,4.3-1.4,6.2-2.4c3.8-2.1,6.9-4.8,9.6-7.7c2.7-2.9,5.1-6,7.3-9.3c2.2-3.2,4.1-6.6,5.8-10
		c1.4-2.8,2.7-5.5,3.8-8.4l4.8,4.3l0,0l0.8,0.3c1,0.4,2.3,0.2,3.2-0.6c0.3-0.3,0.8-0.6,1.2-0.9c0.4-0.3,0.9-0.6,1.4-0.9
		c0.9-0.6,1.9-1.2,2.9-1.7c1.9-1.1,4-2,6.1-2.6c2.1-0.7,4.2-1.2,6.4-1.3c0,0,0,0,0.1,0c-0.6,0.5-1.2,1.1-1.7,1.7
		c-0.5,0.5-0.7,1.3-0.4,2.1c0.4,1,1.5,1.5,2.5,1.2l0,0c2.8-0.8,5.7-1.7,8.5-2.5s5.5-1.6,8.3-2.1c2.7-0.5,5.4-0.9,8-1
		C532.7,364.4,531.5,366.9,530.4,369.5z"/>
	<path d="M443.9,537.9l-5.2-0.1c-1.7-0.1-3.5-0.1-5.2-0.3l-5.2-0.5l-1.3-0.1l-1.3-0.2l-2.5-0.4c-0.8-0.1-1.7-0.3-2.5-0.4l-1.3-0.2
		l-1.3-0.3l-5-1c-6.6-1.6-13-3.7-19.3-6.2c-0.8-0.3-1.6-0.6-2.4-0.9c-0.8-0.3-1.5-0.7-2.3-1s-1.6-0.7-2.3-1l-2.3-1.2
		c-3-1.7-5.9-3.3-9.7-4.5c1.1,3.9,3.8,6.7,6.6,9l2.2,1.7c0.7,0.6,1.5,1.1,2.3,1.6s1.5,1.1,2.3,1.5c0.8,0.5,1.6,0.9,2.4,1.4
		c6.5,3.6,13.7,5.8,20.9,7.2l5.5,0.8l1.4,0.2l1.4,0.1c0.9,0.1,1.8,0.1,2.7,0.1l2.7,0.1c0.5,0,0.9,0,1.4,0l1.4-0.1l5.5-0.3
		c7.2-0.8,14.5-1.2,21.2-4.5C450.9,537.7,447.4,537.8,443.9,537.9z"/>
</g>
</svg>
