<?xml version="1.0" encoding="utf-8"?>
<!-- Generator: Adobe Illustrator 26.0.1, SVG Export Plug-In . SVG Version: 6.00 Build 0)  -->
<svg version="1.1" id="Layer_2" xmlns="http://www.w3.org/2000/svg" xmlns:xlink="http://www.w3.org/1999/xlink" x="0px" y="0px"
	 viewBox="0 0 1000 1000" style="enable-background:new 0 0 1000 1000;" xml:space="preserve">
<style type="text/css">
	.st0{fill:#FF5DFF;}
</style>
<g id="skin">
	
		<ellipse transform="matrix(0.3823 -0.924 0.924 0.3823 -198.16 845.3745)" 
cx="533.2" cy="570.9" rx="18.6" ry="11.9"/>
	
		<ellipse transform="matrix(0.924 -0.3823 0.3823 0.924 -182.8312 221.7434)" 
cx="466.6" cy="570.9" rx="11.9" ry="18.6"/>
</g>
<g id="blacks">
	<g>
		<g>
			<g>
				<g>
					<path d="M537.5,573.9c1.3-4.7,1.8-8.5-0.6-9.3c-2.5-0.8-7,1.8-8.3,6.5s1,9.8,3.5,10.5C534.5,582.5,536.1,578.7,537.5,573.9z"/>
				</g>
				<g>
					<path d="M527.9,556.8c3.7-3.1,9.2-5.4,13.9-3.3c6.1,3.4,6.3,11.8,4,17.5c-0.2,0.5-1,0.3-1-0.2c-0.5-4.7-0.7-10.9-4.8-13.7
						c-3.7-1.5-7.7-0.1-11.6,0.6C527.9,557.8,527.5,557.1,527.9,556.8L527.9,556.8z"/>
				</g>
			</g>
			<g>
				<g>
					<path d="M462.5,573.9c-1.3-4.7-1.8-8.5,0.6-9.3c2.5-0.8,7,1.8,8.3,6.5s-1,9.8-3.5,10.5C465.5,582.5,463.9,578.7,462.5,573.9z"
						/>
				</g>
				<g>
					<path d="M471.6,557.7c-3.9-0.6-8-2.1-11.6-0.6c-4.1,2.8-4.3,8.9-4.8,13.7c0,0.5-0.8,0.7-1,0.2c-3.6-8.1-0.2-20.8,10.8-17.9
						c2.7,0.7,5.1,2,7.1,3.7C472.5,557.1,472.1,557.8,471.6,557.7L471.6,557.7z"/>
				</g>
			</g>
		</g>
	</g>
</g>
</svg>
