<?xml version="1.0" encoding="utf-8"?>
<!-- Generator: Adobe Illustrator 26.0.1, SVG Export Plug-In . SVG Version: 6.00 Build 0)  -->
<svg version="1.1" id="Layer_2" xmlns="http://www.w3.org/2000/svg" xmlns:xlink="http://www.w3.org/1999/xlink" x="0px" y="0px"
	 viewBox="0 0 1000 1000" style="enable-background:new 0 0 1000 1000;" xml:space="preserve">

<path id="skin-L" d="M524,572.4c0.3-2.9,0.4-5.8,0.4-8.8c0-26.8-10.9-48.5-24.4-48.5c-13.5,0-24.4,21.7-24.4,48.5
	c0,3,0.1,6,0.4,8.8H524z"/>
<g id="nose">
	<path d="M528.2,570.4c-1.2-2.9-12.9-2.7-26,0.6c-0.8,0.2-1.5,0.4-2.3,0.6c-0.7-0.2-1.5-0.4-2.3-0.6
		c-13.1-3.2-24.7-3.5-26-0.6c-1.2,2.9,5.8,14,18.9,17.2c3.1,0.8,6.3,1,9.3,0.9c3,0.1,6.2-0.1,9.3-0.9
		C522.4,584.4,529.5,573.3,528.2,570.4z"/>
</g>
<path id="nose-L"d="M522.9,571.6c0.2,1.2-5.6,4.6-13.2,5.6c-7.6,1-14-0.8-14.2-1.9c-0.2-1.2,6.1-1.3,13.6-2.3
	C516.7,572,522.8,570.5,522.9,571.6z"/>
</svg>
