<?xml version="1.0" encoding="utf-8"?>
<!-- Generator: Adobe Illustrator 19.2.0, SVG Export Plug-In . SVG Version: 6.00 Build 0)  -->
<svg version="1.0" id="Layer_2" xmlns="http://www.w3.org/2000/svg" xmlns:xlink="http://www.w3.org/1999/xlink" x="0px" y="0px"
	 viewBox="0 0 1000 1000" enable-background="new 0 0 1000 1000" xml:space="preserve">
<g id="skin-D">
	<path id="skin-D" fill="#00FF7F" d="M544.31,580.32c0-16.2-19.84-35.19-44.31-35.19c-24.47,0-44.31,18.99-44.31,35.19
		s19.84,26.51,44.31,26.51C524.47,606.83,544.31,596.53,544.31,580.32z"/>
</g>
<g id="skin2">
	<path id="skin-L" fill="#00FF7F" d="M542.36,565.98c0,23.85-19.34,34.28-43.19,34.28s-43.19-10.42-43.19-34.28
		c0-23.85,19.34-43.19,43.19-43.19C523.02,522.79,542.36,542.13,542.36,565.98z"/>
</g>
<g id="blacks">
	<path fill="#00FF7F" d="M485.11,574.48c-0.29-0.21-0.57-0.42-0.86-0.64c-0.09-0.34-0.19-0.69-0.29-1.05
		c-1.87-6.36-5.35-12.04-7.78-12.07c-2.69-0.02-9.27,7.42-5.85,15.66c0.75,1.79,1.93,3.3,3.27,4.51c1.14,1.25,2.51,2.31,4.13,3.02
		c5.81,2.58,12.26-0.22,13.11-1.62C491.65,580.95,489.41,577.73,485.11,574.48z"/>
	<path fill="#00FF7F" d="M522.17,560.73c-2.43,0.03-5.91,5.71-7.78,12.07c-0.1,0.36-0.2,0.71-0.29,1.05
		c-0.29,0.21-0.58,0.42-0.86,0.64c-4.3,3.25-6.54,6.47-5.73,7.82c0.85,1.4,7.3,4.2,13.11,1.62c1.63-0.71,3-1.77,4.13-3.02
		c1.34-1.21,2.52-2.71,3.27-4.51C531.44,568.15,524.87,560.71,522.17,560.73z"/>
</g>
</svg>
