<?xml version="1.0" encoding="utf-8"?>
<!-- Generator: Adobe Illustrator 26.0.1, SVG Export Plug-In . SVG Version: 6.00 Build 0)  -->
<svg version="1.1" id="Layer_2" xmlns="http://www.w3.org/2000/svg" xmlns:xlink="http://www.w3.org/1999/xlink" x="0px" y="0px"
	 viewBox="0 0 1000 1000" style="enable-background:new 0 0 1000 1000;" xml:space="preserve">
<style type="text/css">
	.st0{fill:#FFD15F;}
	.st1{fill:#FFA900;}
	.st2{fill:#FFFCBB;}
	.st3{fill:#FF3B3B;}
	.st4{fill:#28003B;}
</style>
<path id="skin-L" 
d="M534,549.7c0,11.7-15.2,21.1-34,21.1c-18.8,0-34-9.4-34-21.1s15.2-29,34-29
	C518.8,520.7,534,538,534,549.7z"/>
<g id="skin-D">
	<path 
d="M471.9,549.8c-0.1-6.9-3.3-8.7-6.6-5.8c-10.9,6.2-15.2,24.1-16.4,30.2c-1.4,7.4,15.3,9.1,19.3,8
		C473.2,580.7,472,558.8,471.9,549.8z"/>
	<path 
d="M528.1,549.8c0.1-6.9,3.3-8.7,6.6-5.8c10.9,6.2,15.2,24.1,16.4,30.2c1.4,7.4-15.3,9.1-19.3,8
		C526.8,580.7,528,558.8,528.1,549.8z"/>
</g>
<path id="skin2" 
d="M515.2,571.1c-0.7,0.7-1.9-0.4-2.9-0.6c-3.3-1-7.6-1.4-12.3-1.4c-4.7-0.1-9,0.4-12.3,1.4
	c-1,0.2-2.2,1.3-2.9,0.6c-20.1-20-40-2.1-40,13c0.1,15.1,20.4,40.3,54.7,29.2c0.2-0.1,0.3-0.1,0.5-0.1c0.2,0,0.3,0.1,0.5,0.1
	c34.3,11,54.7-14.2,54.7-29.2C555.3,569,535.3,551.1,515.2,571.1z"/>
<path id="nose" 
d="M469.8,564c0,11,13.5,24,30.2,24c16.7,0,30.2-12.9,30.2-24c0-11-13.5,5.1-30.2,5.1
	C483.3,569.1,469.8,553,469.8,564z"/>
<g id="blacks">
	<path 
d="M527,555.4c-1.8,0-4.1,3.1-6,7.2c5.6-2.7,9.1-4.2,9.1,1.4c0,4.2-2,8.8-5.4,12.7c0,0,0,0-0.1,0
		c-5.8-2.6-12.3,0.2-13.1,1.6c-0.7,1.1,0.7,3.4,3.5,6c2.6-1.3,4.9-3,7-4.8c1.1-0.1,2.2-0.4,3.4-0.9c1.6-0.7,3-1.8,4.1-3
		c1.3-1.2,2.5-2.7,3.3-4.5C536.3,562.8,529.7,555.4,527,555.4z"/>
	<path 
d="M475.2,576.6c2.5,2.9,5.7,5.5,9.5,7.5c2.7-2.5,3.9-4.7,3.3-5.8C487.1,576.9,480.9,574.2,475.2,576.6z"/>
	<path 
d="M500,582.6c-1.6,0-3,2-3.9,5.1c1.3,0.2,2.6,0.2,3.9,0.2s2.6-0.1,3.9-0.2C503,584.6,501.6,582.6,500,582.6z"/>
	<path 
d="M469.8,564c0-5.6,3.5-4.2,9.1-1.4c-1.9-4.1-4.2-7.1-6-7.2c-2.7,0-9.3,7.4-5.8,15.7c0.8,1.8,1.9,3.3,3.3,4.5
		c1.1,1.3,2.5,2.3,4.1,3c1.1,0.5,2.3,0.8,3.4,0.9C472.9,575,469.8,569.3,469.8,564z"/>
</g>
</svg>
