<?xml version="1.0" encoding="utf-8"?>
<!-- Generator: Adobe Illustrator 26.0.1, SVG Export Plug-In . SVG Version: 6.00 Build 0)  -->
<svg version="1.1" id="Layer_2" xmlns="http://www.w3.org/2000/svg" xmlns:xlink="http://www.w3.org/1999/xlink" x="0px" y="0px"
	 viewBox="0 0 1000 1000" style="enable-background:new 0 0 1000 1000;" xml:space="preserve">
<style type="text/css">
	.st0{fill:#D2E1F7;}
	.st1{fill:#28003B;}
</style>
<g id="XMLID_618_">
	<path id="skin-L"
d="M451.1,574.4c0,23.8,22,51.7,49.2,51.7c27.2,0,49.2-27.9,49.2-51.7c0-23.8-22-14.2-49.2-14.2
		C473.1,560.1,451.1,550.5,451.1,574.4z"/>
	<g id="blacks">
		<path
d="M460.7,582.3c3.2,3.3,7.6,4.2,9.8,2c2.2-2.1,1.3-6.5-1.9-9.8c-3.2-3.3-7.6-4.2-9.8-2
			C456.7,574.6,457.5,579,460.7,582.3z"/>
		<path
d="M539.9,582.3c-3.2,3.3-7.6,4.2-9.8,2c-2.2-2.1-1.3-6.5,1.9-9.8c3.2-3.3,7.6-4.2,9.8-2
			C543.9,574.6,543.1,579,539.9,582.3z"/>
	</g>
</g>
</svg>
