<?xml version="1.0" encoding="utf-8"?>
<!-- Generator: Adobe Illustrator 26.0.1, SVG Export Plug-In . SVG Version: 6.00 Build 0)  -->
<svg version="1.1" id="Layer_2" xmlns="http://www.w3.org/2000/svg" xmlns:xlink="http://www.w3.org/1999/xlink" x="0px" y="0px"
	 viewBox="0 0 1000 1000" style="enable-background:new 0 0 1000 1000;" xml:space="preserve">
<style type="text/css">
	.st0{fill:#FFECE9;}
	.st1{fill:#F1B3BC;}
	.st2{fill:#B23967;}
	.st3{fill:#210935;}
	.st4{fill:#FFFFFF;}
</style>
<path id="skin2" 
d="M524.2,578.7c-10.7-1.7-20.5,4.3-24.2,12.4c-3.7-8.2-13.5-14.1-24.2-12.4c-9,1.4-13.5,9-13.5,15.8
	c0,5.4,2.7,11.5,7.2,15.5c6.6,6,18.7,9,26.5,0.9c1.8-1.9,3.1-3.8,4-5.7c0.9,2,2.2,3.9,4,5.7c7.7,8.1,19.9,5.1,26.5-0.9
	c4.5-4.1,7.2-10.2,7.2-15.5C537.7,587.8,533.2,580.1,524.2,578.7z"/>
<path id="skin-L" 
d="M527,570.8c0,13.3-12.1,14.7-27,14.7c-14.9,0-27-1.3-27-14.7c0-13.3,12.1-24.1,27-24.1
	C514.9,546.7,527,557.5,527,570.8z"/>
<path id="nose" 
d="M526.2,574.9c0,0-6.1-11.4-26.2-11.4c-20.1,0-26.2,11.4-26.2,11.4c-1.5,3.5,6.2,11.8,17,15.3
	c0.6,0.2,1.4,0.4,2.3,0.5c1.2,5.7,3.8,9.8,6.9,9.8c3.1,0,5.7-4,6.9-9.8c0.9-0.1,1.8-0.3,2.3-0.5C520,586.7,527.7,578.4,526.2,574.9z
	"/>
<g id="blacks">
	<path 
d="M511,583.4c-1.9,2-2.6,4.5-1.5,5.6c1.1,1.1,3.5,0.3,5.5-1.7c1.9-2,2.6-4.5,1.5-5.6
		C515.3,580.6,512.9,581.4,511,583.4z"/>
	<path 
d="M489,583.4c1.9,2,2.6,4.5,1.5,5.6c-1.1,1.1-3.5,0.3-5.5-1.7c-1.9-2-2.6-4.5-1.5-5.6
		C484.7,580.6,487.1,581.4,489,583.4z"/>
</g>
<path id="whites" 
d="M511.6,569.7c-0.1,0.7-1.6,1.1-3.5,0.9c-1.8-0.2-3.3-0.9-3.2-1.6c0.1-0.7,1.6-1.1,3.5-0.9
	C510.3,568.3,511.7,569,511.6,569.7z"/>
</svg>
