<?xml version="1.0" encoding="utf-8"?>
<!-- Generator: Adobe Illustrator 26.0.1, SVG Export Plug-In . SVG Version: 6.00 Build 0)  -->
<svg version="1.1" id="Layer_2" xmlns="http://www.w3.org/2000/svg" xmlns:xlink="http://www.w3.org/1999/xlink" x="0px" y="0px"
	 viewBox="0 0 1000 1000" style="enable-background:new 0 0 1000 1000;" xml:space="preserve">
<style type="text/css">
	.st0{fill:#FF8599;}
	.st1{fill:#931D7D;}
	.st2{fill:#68062C;}
</style>
<path id="skin-L" d="M529.1,564.1c0,22.8-13,25.1-29.1,25.1c-16.1,0-29.1-2.3-29.1-25.1c0-22.8,13-41.3,29.1-41.3
	C516.1,522.8,529.1,541.3,529.1,564.1z"/>
<path id="nose" d="M529.1,564.1c0-0.2,0-0.5,0-0.7c-6.2-4.9-18.1-1.4-29.1,7.9c-11-9.3-22.9-12.8-29.1-7.9
	c0,0.2,0,0.5,0,0.7c0,22.8,13,25.1,29.1,25.1S529.1,586.9,529.1,564.1z"/>
<g id="blacks">
	<path 
d="M487,578.6c-3.8-2.2-7.8-2.4-9-0.3c-1.2,2,0.9,5.5,4.7,7.7c3.8,2.2,7.8,2.4,9,0.3
		C492.9,584.3,490.8,580.9,487,578.6z"/>
	<path 
d="M522,578.3c-1.2-2-5.2-1.9-9,0.3s-5.9,5.7-4.7,7.7c1.2,2,5.2,1.9,9-0.3C521.1,583.8,523.2,580.3,522,578.3z"/>
</g>
</svg>
