<?xml version="1.0" encoding="utf-8"?>
<!-- Generator: Adobe Illustrator 26.0.1, SVG Export Plug-In . SVG Version: 6.00 Build 0)  -->
<svg version="1.1" id="Layer_2" xmlns="http://www.w3.org/2000/svg" xmlns:xlink="http://www.w3.org/1999/xlink" x="0px" y="0px"
	 viewBox="0 0 1000 1000" style="enable-background:new 0 0 1000 1000;" xml:space="preserve">
<style type="text/css">
	.st0{fill:#B1F25C;}
	.st1{fill:#201A33;}
</style>
<path id="skin-L"
d="M470.9,547.9c0-22.8,13-25.1,29.1-25.1c16.1,0,29.1,2.3,29.1,25.1s-13,41.3-29.1,41.3
	C483.9,589.1,470.9,570.7,470.9,547.9z"/>
<g id="blacks">
	<path 
d="M487,578.6c-3.8-2.2-7.8-2.4-9-0.3c-1.2,2,0.9,5.5,4.7,7.7c3.8,2.2,7.8,2.4,9,0.3
		C492.9,584.3,490.8,580.9,487,578.6z"/>
	
		<ellipse transform="matrix(0.8614 -0.508 0.508 0.8614 -224.3914 342.4015)" cx="515.2" cy="582.3" rx="7.9" ry="4.3"/>
</g>
</svg>
