<?xml version="1.0" encoding="utf-8"?>
<!-- Generator: Adobe Illustrator 26.0.1, SVG Export Plug-In . SVG Version: 6.00 Build 0)  -->
<svg version="1.1" id="Layer_2" xmlns="http://www.w3.org/2000/svg" xmlns:xlink="http://www.w3.org/1999/xlink" x="0px" y="0px"
	 viewBox="0 0 1000 1000" style="enable-background:new 0 0 1000 1000;" xml:space="preserve">
<style type="text/css">
	.st0{fill:#FFFFFF;}
	.st1{fill:#3E3C47;}
	.st2{fill:#201A33;}
	.st3{fill:#949494;}
</style>
<path id="skin-L" 
d="M529.1,573.1c0,12.6-13,4-29.1,4s-29.1,8.7-29.1-4s13-22.9,29.1-22.9
	C516.1,550.2,529.1,560.4,529.1,573.1z"/>
<path id="nose" 
d="M500,570.5c-16.1,0-29.1-3.7-29.1,5.3s27.3,16.2,29.1,16.2s29.1-7.3,29.1-16.2S516.1,570.5,500,570.5
	z"/>
<g id="blacks">
	
		<ellipse transform="matrix(0.8614 -0.508 0.508 0.8614 -224.4197 342.4113)" class="st2" cx="515.2" cy="582.4" rx="7.9" ry="4.3"/>
	<path 
d="M487,578.7c3.8,2.2,5.9,5.7,4.7,7.7c-1.2,2-5.2,1.9-9-0.3c-3.8-2.2-5.9-5.7-4.7-7.7
		C479.2,576.3,483.2,576.5,487,578.7z"/>
</g>
<path id="nose-L" 
d="M515.4,571.7c0,0.5-1.6,1.5-3.8,1.6c-2.3,0.2-4.3-0.5-4.4-1c0-0.5,2-0.8,4.2-0.9
	C513.7,571.2,515.3,571.2,515.4,571.7z"/>
</svg>
