<?xml version="1.0" encoding="utf-8"?>
<!-- Generator: Adobe Illustrator 26.0.1, SVG Export Plug-In . SVG Version: 6.00 Build 0)  -->
<svg version="1.1" id="Layer_2" xmlns="http://www.w3.org/2000/svg" xmlns:xlink="http://www.w3.org/1999/xlink" x="0px" y="0px"
	 viewBox="0 0 1000 1000" style="enable-background:new 0 0 1000 1000;" xml:space="preserve">
<style type="text/css">
	.st0{fill:#A6CCDC;}
	.st1{fill:#9B0000;}
	.st2{fill:#FFFFFF;}
</style>
<path id="skin2-D" 
d="M534.4,574.9c0-15.8-11-29.8-28-38.6c-3.7-1.9-9-1.9-12.7,0c-17,8.8-28,22.8-28,38.6
	c0,16.2,19,22.8,34.4,22.8C515.4,597.8,534.4,591.1,534.4,574.9z"/>
<path id="nose" 
d="M529.9,575.8c0,4.8-13.4,18.8-29.9,18.8c-16.5,0-29.9-14-29.9-18.8c0-4.8,13.4-8.7,29.9-8.7
	C516.5,567,529.9,570.9,529.9,575.8z"/>
<path id="whites" 
d="M521,575.1c0,1.7-3.8,3.1-8.4,3.1s-8.4-1.4-8.4-3.1c0-1.7,3.8-3.1,8.4-3.1S521,573.4,521,575.1z"/>
</svg>
