<?xml version="1.0" encoding="utf-8"?>
<!-- Generator: Adobe Illustrator 26.0.1, SVG Export Plug-In . SVG Version: 6.00 Build 0)  -->
<svg version="1.1" id="Layer_2" xmlns="http://www.w3.org/2000/svg" xmlns:xlink="http://www.w3.org/1999/xlink" x="0px" y="0px"
	 viewBox="0 0 1000 1000" style="enable-background:new 0 0 1000 1000;" xml:space="preserve">
<style type="text/css">
	.st0{fill:#C288D1;}
	.st1{fill:#33192E;}
</style>
<path id="skin-D"
d="M517.1,560.2c-2.5,0.1-5,0.8-7.5,2.2c0.3-3.9,0.2-7.5-0.1-10.3c-2.5,1.6-4.6,3.9-6,7.1
	c-0.7-4.3-1.9-8.2-3.5-11.5c-1.6,3.3-2.8,7.2-3.5,11.5c-1.4-3.2-3.5-5.5-6-7.1c-0.3,2.8-0.3,6.4-0.1,10.3c-2.5-1.5-5-2.1-7.5-2.2
	c2.3,4.1,6.2,5.8,0,14.7c0,0,5.3,4.4,17.1,4.4s17.1-4.4,17.1-4.4C510.9,566,514.8,564.3,517.1,560.2z"/>
<g id="blacks">
	<g>
		<path   d="M500,572.9c-7.2-0.6-15.9,0.4-16.4,4.8c-0.3,2.7,11.4,9.1,16.4,9.1s16.7-6.4,16.4-9.1
			C515.9,573.3,507.2,572.3,500,572.9z"/>
		<ellipse   cx="550.2" cy="581.5" rx="24.9" ry="1.6"/>
		<path   d="M546.7,576.5c7-1.1,13.4-2.6,19.1-4.5c-6-0.1-12.6,0.3-19.6,1.3c-7,1.1-13.4,2.6-19.1,4.5
			C533.1,577.9,539.8,577.5,546.7,576.5z"/>
		<path   d="M522.5,585.5c5.7,1.9,12.2,3.4,19.1,4.4c7,1,13.6,1.4,19.6,1.2c-5.7-1.9-12.2-3.4-19.1-4.4
			C535.2,585.7,528.5,585.3,522.5,585.5z"/>
		<ellipse   cx="449.8" cy="581.5" rx="24.9" ry="1.6"/>
		<path   d="M472.8,577.8c-5.7-1.9-12.1-3.5-19.1-4.5c-7-1.1-13.6-1.5-19.6-1.3c5.7,1.9,12.1,3.5,19.1,4.5
			C460.2,577.5,466.9,577.9,472.8,577.8z"/>
		<path   d="M457.9,586.7c-7,1-13.4,2.5-19.1,4.4c6,0.2,12.6-0.2,19.6-1.2c7-1,13.4-2.5,19.1-4.4
			C471.5,585.3,464.8,585.7,457.9,586.7z"/>
	</g>
</g>
</svg>
