<?xml version="1.0" encoding="utf-8"?>
<!-- Generator: Adobe Illustrator 26.0.1, SVG Export Plug-In . SVG Version: 6.00 Build 0)  -->
<svg version="1.1" id="Layer_2" xmlns="http://www.w3.org/2000/svg" xmlns:xlink="http://www.w3.org/1999/xlink" x="0px" y="0px"
	 viewBox="0 0 1000 1000" style="enable-background:new 0 0 1000 1000;" xml:space="preserve">
<style type="text/css">
	.st0{fill:#FFCFB3;}
	.st1{fill:#7A0672;}
	.st2{fill:#4F0900;}
</style>
<g>
	<path id="skin-L" d="M500,501.6c-13.4,0-24.2,32-24.2,71.5h48.5C524.2,533.6,513.4,501.6,500,501.6z"/>
	<path id="nose" d="M500,556.2c-12.6-1.4-27.6,0.9-28.5,11.6c-0.5,6.5,19.9,21.9,28.5,21.9s29.1-15.5,28.5-21.9
		C527.6,557.1,512.6,554.8,500,556.2z"/>
	<g id="blacks">
		<path 
d="M524.4,575.1c-0.6-7-3.7-7.8-7.4-5.5c-4.1,2.5-7.4,8.3-7.5,16.9C514.8,583.6,520.7,579.2,524.4,575.1z"/>
		<path 
d="M490.5,586.5c-0.2-8.6-3.5-14.4-7.5-16.9c-3.7-2.3-6.8-1.5-7.4,5.5C479.3,579.2,485.2,583.6,490.5,586.5z"/>
	</g>
</g>
</svg>
