<?xml version="1.0" encoding="utf-8"?>
<!-- Generator: Adobe Illustrator 19.2.0, SVG Export Plug-In . SVG Version: 6.00 Build 0)  -->
<svg version="1.0" id="bear" xmlns="http://www.w3.org/2000/svg" xmlns:xlink="http://www.w3.org/1999/xlink" x="0px" y="0px"
	 viewBox="0 0 1000 1000" enable-background="new 0 0 1000 1000" xml:space="preserve">
<symbol  id="бровь_2">
</symbol>
<symbol  id="бровь_3">
	
		<use xlink:href="#бровь_2"  width="-32766" height="-32766" id="XMLID_240_" x="16383" y="16383" transform="matrix(-1 0 0 1 -25 1.818989e-12)" overflow="visible"/>
</symbol>
<symbol  id="зрачок_2" viewBox="-47.18 -31.73 61.51 61.51">
	<g>
		<g>
			<g>
				<circle fill="#D87100" cx="-16.43" cy="-0.98" r="30.75"/>
				<circle fill="#F9E955" cx="-16.43" cy="-0.98" r="25.16"/>
				<g>
					
						<ellipse transform="matrix(0.7071 -0.7071 0.7071 0.7071 -12.9861 0.9728)" fill="#FFFFFF" cx="-5.32" cy="16.16" rx="11.56" ry="6.24"/>
				</g>
				<ellipse fill="#FFF18F" cx="-16.43" cy="-1.94" rx="30.72" ry="12.97"/>
				<ellipse fill="#3F0404" cx="-16.43" cy="-0.98" rx="6.61" ry="29.33"/>
			</g>
		</g>
	</g>
</symbol>
<g>
	<path id="skin-L" fill="#FFA476" d="M523.79,544.29h3.66c0-12.7-12.29-22.99-27.45-22.99s-27.45,10.29-27.45,22.99h3.66
		c-20.14,18.6-34.16,54.99-34.16,64.59c0,13.06,25.94,33.7,57.95,33.7s57.95-20.64,57.95-33.7
		C557.95,599.27,543.93,562.89,523.79,544.29z"/>
	<path id="nose" fill="#33192E" d="M530.31,548.65c-0.94-11.36-16.95-13.84-30.31-12.33c-13.36-1.51-29.37,0.98-30.31,12.33
		c-0.53,6.45,18.65,21.39,28.57,23.11c0.12,7.35,0.85,13.02,1.73,13.02s1.62-5.67,1.73-13.02
		C511.66,570.04,530.84,555.11,530.31,548.65z"/>
	<g id="blacks">
		<g>
			<g>
				<g>
					<g>
						<path fill="#113D44" d="M525.96,556.47c-0.66-7.48-3.94-8.28-7.89-5.84c-4.33,2.67-7.84,8.83-8.01,17.92
							C515.77,565.49,521.94,560.81,525.96,556.47z"/>
					</g>
				</g>
			</g>
		</g>
		<g>
			<g>
				<g>
					<g>
						<path fill="#113D44" d="M489.94,568.55c-0.16-9.09-3.68-15.25-8.01-17.92c-3.95-2.44-7.23-1.65-7.89,5.84
							C478.06,560.81,484.23,565.49,489.94,568.55z"/>
					</g>
				</g>
			</g>
		</g>
	</g>
</g>
</svg>
