<?xml version="1.0" encoding="utf-8"?>
<!-- Generator: Adobe Illustrator 26.0.1, SVG Export Plug-In . SVG Version: 6.00 Build 0)  -->
<svg version="1.1" id="Layer_2" xmlns="http://www.w3.org/2000/svg" xmlns:xlink="http://www.w3.org/1999/xlink" x="0px" y="0px"
	 viewBox="0 0 1000 1000" style="enable-background:new 0 0 1000 1000;" xml:space="preserve">
<style type="text/css">
	.st0{fill:#7E6190;}
	.st1{fill:#594856;}
	.st2{fill:#3A2B38;}
	.st3{fill:#2B1051;}
</style>
<path id="skin-L" d="M500.1,488.3c-10.2,0-27.3,52.3-27.3,84.3h54.5C527.4,540.6,510.3,488.3,500.1,488.3z"/>
<path id="nose-L" d="M500,550.3c-21.7,0-29.4,8-30.3,19.3c-0.6,6.9,21.1,15.4,30.3,15.4s30.9-8.5,30.3-15.4
	C529.4,558.3,521.7,550.3,500,550.3z"/>
<path id="nose" d="M500,585c7,0,21-4.9,27.3-10.2c-2.7-8.4-10.5-13.9-27.3-13.9c-16.8,0-24.6,5.5-27.3,13.9
	C479,580.1,493,585,500,585z"/>
<g id="blacks">
	<path 
d="M504.9,581.2c1.2,1.9,7.7-1,11-3.6c3.3-2.6,4.9-6.2,3.7-8.1c-1.2-1.9-4.9-1.3-8.2,1.4
		C508.2,573.4,503.7,579.3,504.9,581.2z"/>
	<path 
d="M495.1,581.2c-1.2,1.9-7.7-1-11-3.6c-3.3-2.6-4.9-6.2-3.7-8.1c1.2-1.9,4.9-1.3,8.2,1.4
		C491.8,573.4,496.3,579.3,495.1,581.2z"/>
</g>
</svg>
