<?xml version="1.0" encoding="utf-8"?>
<!-- Generator: Adobe Illustrator 26.0.1, SVG Export Plug-In . SVG Version: 6.00 Build 0)  -->
<svg version="1.1" id="Layer_2" xmlns="http://www.w3.org/2000/svg" xmlns:xlink="http://www.w3.org/1999/xlink" x="0px" y="0px"
	 viewBox="0 0 1000 1000" style="enable-background:new 0 0 1000 1000;" xml:space="preserve">
<g id="skin-L">
	<g>
		<ellipse transform="matrix(0.9556 -0.2947 0.2947 0.9556 -151.7352 166.7793)" cx="477.5" cy="586.8" rx="4.9" ry="6.5"/>
	</g>
	<g>
		<ellipse transform="matrix(0.2947 -0.9556 0.9556 0.2947 -192.1363 913.3652)" cx="522.7" cy="586.8" rx="6.5" ry="4.9"/>
	</g>
	<path id="skin-L_00000071531643789355484000000001906324067100853174_" d="M485.1,563.3c5.7,0,10,0.9,13.3,2.5c1,0.5,2.3,0.5,3.4,0
		c3.3-1.6,7.6-2.5,13.3-2.5c3.4,0,6.3,0.3,8.8,0.9c3.2,0.8,5.7-2.4,3.5-4.5c-4.6-4.5-13.1-7.2-27.3-7.2s-22.7,2.7-27.3,7.2
		c-2.2,2.1,0.4,5.3,3.5,4.5C478.8,563.6,481.7,563.3,485.1,563.3z"/>
</g>
<g id="blacks">
	<path d="M479.2,590.6c-2.3,1.2-8.7-3.9-10.3-8.4c-1.6-4.5,1-10.5,3.3-11.6c2.3-1.2,8.3,1.1,9.8,5.6
		C483.6,580.7,481.5,589.4,479.2,590.6z"/>
	<path d="M521,590.6c2.3,1.2,8.7-3.9,10.3-8.4s-1-10.5-3.3-11.6s-8.3,1.1-9.8,5.6C516.6,580.7,518.7,589.4,521,590.6z"/>
</g>
</svg>
