<?xml version="1.0" encoding="utf-8"?>
<!-- Generator: Adobe Illustrator 26.0.1, SVG Export Plug-In . SVG Version: 6.00 Build 0)  -->
<svg version="1.1" id="Layer_2" xmlns="http://www.w3.org/2000/svg" xmlns:xlink="http://www.w3.org/1999/xlink" x="0px" y="0px"
	 viewBox="0 0 1000 1000" style="enable-background:new 0 0 1000 1000;" xml:space="preserve">
<style type="text/css">
	.st0{fill:#473945;}
	.st1{fill:#2A144C;}
</style>
<path id="nose" 
d="M506,553.9c-2.1,0.5-4.1,1.4-6,2.4c-1.9-1-3.9-1.8-6-2.4c-10.1-2.6-18.3,1.8-18.3,9.8
	c0,8.1,8.2,16.8,18.3,19.4c2.1,0.5,4.1,0.8,6,0.8c1.9,0,3.9-0.2,6-0.8c10.1-2.6,18.3-11.3,18.3-19.4
	C524.3,555.7,516.1,551.3,506,553.9z"/>
<g id="blacks">
	
		<ellipse transform="matrix(0.6406 -0.7679 0.7679 0.6406 -254.2159 601.0903)"  cx="515" cy="572.1" rx="8.3" ry="5.6"/>
	
		<ellipse transform="matrix(0.7679 -0.6406 0.6406 0.7679 -253.8815 443.603)"  cx="485.2" cy="572.1" rx="5.6" ry="8.3"/>
</g>
</svg>
