<svg version="1.1" id="Layer_1" xmlns="http://www.w3.org/2000/svg" xmlns:xlink="http://www.w3.org/1999/xlink" x="0px" y="0px"
	 viewBox="0 0 1000 1000" style="enable-background:new 0 0 1000 1000;" xml:space="preserve">
<path id="skin-L" d="M526.9,580c0,0-0.7-22.5-23-28c-2.5-0.6-5.3-0.6-7.8,0c-22.3,5.5-23,28-23,28c0,5.1,7.1,14.3,22,16.4
	c0.9,0.3,2,0.5,3.2,0.5c0.6,0,1.1,0,1.7,0c0.5,0,1.1,0,1.7,0c1.2,0,2.3-0.2,3.2-0.5C519.8,594.3,526.9,585.1,526.9,580L526.9,580z"
	/>
<g id="blacks">
	<path d="M541.1,577.8h-16.4c-1.1,0-2,0.9-2,2s0.9,2,2,2h16.4c1.1,0,2-0.9,2-2S542.2,577.8,541.1,577.8z"/>
	<path d="M524.7,576.8c0.1,0,0.2,0,0.4,0l12.3-2.6c1.1-0.3,1.8-1.3,1.6-2.4c-0.3-1.1-1.3-1.8-2.4-1.6l-12.3,2.6
		c-1.1,0.3-1.8,1.3-1.6,2.4C522.9,576.2,523.8,576.8,524.7,576.8z"/>
	<path d="M537.4,585.3l-12.3-2.6c-1.1-0.2-2.2,0.5-2.4,1.6s0.5,2.2,1.6,2.4l12.3,2.6c0.1,0,0.3,0,0.4,0c0.9,0,1.8-0.7,2-1.6
		C539.2,586.6,538.5,585.5,537.4,585.3z"/>
	<path d="M477.3,579.8c0-1.1-0.9-2-2-2h-16.4c-1.1,0-2,0.9-2,2s0.9,2,2,2h16.4C476.4,581.8,477.3,580.9,477.3,579.8z"/>
	<path d="M475.7,572.8l-12.3-2.6c-1.1-0.2-2.1,0.5-2.4,1.6c-0.2,1.1,0.5,2.1,1.6,2.4l12.3,2.6c0.2,0,0.3,0,0.4,0
		c0.9,0,1.8-0.6,2-1.6C477.5,574.1,476.8,573.1,475.7,572.8z"/>
	<path d="M474.9,582.7l-12.3,2.6c-1.1,0.2-1.8,1.3-1.6,2.4c0.2,0.9,1.1,1.6,2,1.6c0.1,0,0.3,0,0.4,0l12.3-2.6
		c1.1-0.2,1.8-1.3,1.6-2.4C477.1,583.2,476,582.5,474.9,582.7z"/>
</g>
<path id="nose" d="M514.7,577.3c0-3.1-4.7-6.8-13.9-7.1c-0.2,0-0.4,0-0.7,0H500h-0.1c-0.2,0-0.5,0-0.7,0c-9.2,0.2-13.9,4-13.9,7.1
	c0,2.8,3.9,7.8,12,8.9c0.5,0.2,1.1,0.2,1.8,0.2c0.3,0,0.6,0,0.9,0s0.6,0,0.9,0c0.7,0,1.3-0.1,1.8-0.2
	C510.8,585.1,514.7,580.1,514.7,577.3z"/>
<ellipse id="whites" cx="505.2" cy="574.3" rx="3" ry="1.4"/>
</svg>