<?xml version="1.0" encoding="utf-8"?>
<!-- Generator: Adobe Illustrator 26.0.1, SVG Export Plug-In . SVG Version: 6.00 Build 0)  -->
<svg version="1.1" id="pups" xmlns="http://www.w3.org/2000/svg" xmlns:xlink="http://www.w3.org/1999/xlink" x="0px" y="0px"
	 viewBox="0 0 1000 1000" style="enable-background:new 0 0 1000 1000;" xml:space="preserve">
<g id="filler-eyes-r">
<g id="pupil-D">
	<circle cx="578.8" cy="529.1" r="29.3"/>
	
		<ellipse transform="matrix(0.6215 -0.7834 0.7834 0.6215 -254.995 530.3134)" cx="421.4" cy="529.1" rx="29.3" ry="29.3"/>
</g>
<g id="pupil-L">
	<ellipse cx="578.7" cy="544.7" rx="19.1" ry="13.4"/>
	<ellipse cx="421.3" cy="544.7" rx="19.1" ry="13.4"/>
</g>
<g id="blacks">
	<circle cx="578.7" cy="529.1" r="9.1"/>
	
		<ellipse transform="matrix(0.3827 -0.9239 0.9239 0.3827 -228.7492 715.8524)" cx="421.3" cy="529.1" rx="9.1" ry="9.1"/>
</g>
<g id="whites">
	<path d="M428.1,512.7c-4.1,4.1-5.6,9.2-3.4,11.4s7.3,0.7,11.4-3.4c4-4.1,5.6-9.2,3.4-11.4S432.2,508.6,428.1,512.7z"/>
	<path d="M596.9,509.3c-2.2-2.2-7.3-0.7-11.4,3.4c-4.1,4.1-5.6,9.2-3.4,11.4c2.2,2.2,7.3,0.7,11.4-3.4
		C597.5,516.6,599.1,511.5,596.9,509.3z"/>
</g>
<g id="pupil">
	<path d="M578.7,530.8c-2.8,0-5,1.4-5.2,3.1c1.2,1.4,3.1,2.4,5.2,2.4c2.1,0,4-0.9,5.2-2.4
		C583.7,532.1,581.4,530.8,578.7,530.8z"/>
	<path d="M421.3,530.8c-2.8,0-5,1.4-5.2,3.1c1.2,1.4,3.1,2.4,5.2,2.4c2.1,0,4-0.9,5.2-2.4
		C426.3,532.1,424,530.8,421.3,530.8z"/>
</g>
    </g>
</svg>
