<?xml version="1.0" encoding="utf-8"?>
<!-- Generator: Adobe Illustrator 26.0.1, SVG Export Plug-In . SVG Version: 6.00 Build 0)  -->
<svg version="1.1" id="pups" xmlns="http://www.w3.org/2000/svg" xmlns:xlink="http://www.w3.org/1999/xlink" x="0px" y="0px"
	 viewBox="0 0 1000 1000" style="enable-background:new 0 0 1000 1000;" xml:space="preserve">
<g id="filler-eyes-r">
<g id="pupil-D">
	<circle cx="578.7" cy="528.9" r="30.7"/>
	<circle cx="421.3" cy="528.9" r="30.7"/>
</g>
<g id="pupil-L">
	<ellipse cx="578.7" cy="545.5" rx="21.3" ry="13.3"/>
	<ellipse cx="421.3" cy="545.5" rx="21.3" ry="13.3"/>
</g>
<g id="blacks">
	<path d="M608.8,528.9c0-0.8-4.8-1.4-12.2-1.8c7.2-1.9,11.7-3.6,11.6-4.3c-0.2-0.7-4.8-0.4-11.8,0.6
		c6.4-3.2,10.3-5.6,10-6.3s-4.5,0.4-10.9,2.7c5.4-4.1,8.6-7,8.2-7.6c-0.4-0.6-4.6,1.4-10.7,5c4.7-5.3,7.5-9,7-9.5s-4.4,2.4-9.9,7.3
		c3.7-6.4,5.8-10.8,5.1-11.2c-0.6-0.4-3.7,3.1-7.9,8.8c2.3-6.8,3.4-11.2,2.7-11.5s-2.9,3.5-5.8,9.6c0.9-6.7,1.1-11,0.4-11.2
		c-0.7-0.1-2.3,4.2-4.1,11.1c-0.4-7.1-1.1-11.7-1.8-11.7c-0.8,0-1.4,4.8-1.8,12.2c-1.9-7.2-3.6-11.7-4.3-11.6
		c-0.7,0.2-0.4,4.8,0.6,11.8c-3.2-6.4-5.6-10.3-6.3-10s0.4,4.5,2.7,10.8c-4.1-5.4-7-8.6-7.6-8.2c-0.6,0.4,1.4,4.6,5,10.7
		c-5.3-4.7-9-7.5-9.5-7s2.4,4.4,7.3,9.9c-6.4-3.7-10.8-5.8-11.2-5.1c-0.4,0.6,3.1,3.7,8.8,7.9c-6.8-2.3-11.2-3.4-11.5-2.7
		s3.5,2.9,9.6,5.8c-6.7-0.9-11-1.1-11.2-0.4c-0.1,0.7,4.2,2.3,11.1,4.1c-7.1,0.4-11.7,1.1-11.7,1.8c0,0.8,4.8,1.4,12.2,1.8
		c-7.2,1.9-11.7,3.6-11.6,4.3c0.2,0.7,4.8,0.4,11.8-0.6c-6.4,3.2-10.3,5.6-10,6.3s4.5-0.4,10.8-2.7c-5.4,4.1-8.6,7-8.2,7.6
		c0.4,0.6,4.6-1.4,10.7-5c-4.7,5.3-7.5,9-7,9.5s4.4-2.4,9.9-7.3c-3.7,6.4-5.8,10.8-5.1,11.2c0.6,0.4,3.7-3.1,7.9-8.8
		c-2.3,6.8-3.4,11.2-2.7,11.5s2.9-3.5,5.8-9.6c-0.9,6.7-1.1,11-0.4,11.2c0.7,0.1,2.3-4.2,4.1-11.1c0.4,7.1,1.1,11.7,1.8,11.7
		c0.8,0,1.4-4.8,1.8-12.2c1.9,7.2,3.6,11.7,4.3,11.6c0.7-0.2,0.4-4.8-0.6-11.8c3.2,6.4,5.6,10.3,6.3,10s-0.4-4.5-2.7-10.9
		c4.1,5.4,7,8.6,7.6,8.2c0.6-0.4-1.4-4.6-5-10.7c5.3,4.7,9,7.5,9.5,7s-2.4-4.4-7.3-9.9c6.4,3.7,10.8,5.8,11.2,5.1
		c0.4-0.6-3.1-3.7-8.8-7.9c6.8,2.3,11.2,3.4,11.5,2.7s-3.5-2.9-9.6-5.8c6.7,0.9,11,1.1,11.2,0.4c0.1-0.7-4.2-2.3-11.1-4.1
		C604.2,530.3,608.8,529.6,608.8,528.9z"/>
	<path d="M439.2,527.1c7.2-1.9,11.7-3.6,11.6-4.3c-0.2-0.7-4.8-0.4-11.8,0.6c6.4-3.2,10.3-5.6,10-6.3s-4.5,0.4-10.9,2.7
		c5.4-4.1,8.6-7,8.2-7.6c-0.4-0.6-4.6,1.4-10.7,5c4.7-5.3,7.5-9,7-9.5s-4.4,2.4-9.9,7.3c3.7-6.4,5.8-10.8,5.1-11.2
		c-0.6-0.4-3.7,3.1-7.9,8.8c2.3-6.8,3.4-11.2,2.7-11.5s-2.9,3.5-5.8,9.6c0.9-6.7,1.1-11,0.4-11.2c-0.7-0.1-2.3,4.2-4.1,11.1
		c-0.4-7.1-1.1-11.7-1.8-11.7c-0.8,0-1.4,4.8-1.8,12.2c-1.9-7.2-3.6-11.7-4.3-11.6c-0.7,0.2-0.4,4.8,0.6,11.8
		c-3.2-6.4-5.6-10.3-6.3-10c-0.7,0.3,0.4,4.5,2.7,10.8c-4.1-5.4-7-8.6-7.6-8.2c-0.6,0.4,1.4,4.6,5,10.7c-5.3-4.7-9-7.5-9.5-7
		s2.4,4.4,7.3,9.9c-6.4-3.7-10.8-5.8-11.2-5.1c-0.4,0.6,3.1,3.7,8.8,7.9c-6.8-2.3-11.2-3.4-11.5-2.7s3.5,2.9,9.6,5.8
		c-6.7-0.9-11-1.1-11.2-0.4c-0.1,0.7,4.2,2.3,11.1,4.1c-7.1,0.4-11.7,1.1-11.7,1.8c0,0.8,4.8,1.4,12.2,1.8
		c-7.2,1.9-11.7,3.6-11.6,4.3c0.2,0.7,4.8,0.4,11.8-0.6c-6.4,3.2-10.3,5.6-10,6.3s4.5-0.4,10.8-2.7c-5.4,4.1-8.6,7-8.2,7.6
		c0.4,0.6,4.6-1.4,10.7-5c-4.7,5.3-7.5,9-7,9.5s4.4-2.4,9.9-7.3c-3.7,6.4-5.8,10.8-5.1,11.2c0.6,0.4,3.7-3.1,7.9-8.8
		c-2.3,6.8-3.4,11.2-2.7,11.5c0.7,0.3,2.9-3.5,5.8-9.6c-0.9,6.7-1.1,11-0.4,11.2c0.7,0.1,2.3-4.2,4.1-11.1
		c0.4,7.1,1.1,11.7,1.8,11.7c0.8,0,1.4-4.8,1.8-12.2c1.9,7.2,3.6,11.7,4.3,11.6c0.7-0.2,0.4-4.8-0.6-11.8c3.2,6.4,5.6,10.3,6.3,10
		s-0.4-4.5-2.7-10.9c4.1,5.4,7,8.6,7.6,8.2c0.6-0.4-1.4-4.6-5-10.7c5.3,4.7,9,7.5,9.5,7s-2.4-4.4-7.3-9.9c6.4,3.7,10.8,5.8,11.2,5.1
		c0.4-0.6-3.1-3.7-8.8-7.9c6.8,2.3,11.2,3.4,11.5,2.7s-3.5-2.9-9.6-5.8c6.7,0.9,11,1.1,11.2,0.4c0.1-0.7-4.2-2.3-11.1-4.1
		c7.2-0.3,11.8-1,11.8-1.7C451.4,528.1,446.6,527.5,439.2,527.1z"/>
</g>
<g id="pupil-L">
	<circle cx="578.7" cy="528.9" r="18.2"/>
	<circle cx="421.3" cy="528.9" r="18.2"/>
</g>
<g id="blacks">
	<circle cx="578.7" cy="528.9" r="15.4"/>
	
		<ellipse transform="matrix(0.3827 -0.9239 0.9239 0.3827 -228.5644 715.7294)" cx="421.3" cy="528.9" rx="15.4" ry="15.4"/>
</g>
<g id="whites">
	<path d="M597.7,510.4c-1.7-1.7-5.7-0.5-8.9,2.6c-3.2,3.2-4.4,7.1-2.6,8.9c1.7,1.7,5.7,0.5,8.9-2.6
		C598.2,516,599.4,512.1,597.7,510.4z"/>
	<path d="M431.4,513c-3.2,3.2-4.4,7.1-2.6,8.9c1.7,1.7,5.7,0.5,8.9-2.6c3.1-3.3,4.3-7.2,2.6-8.9
		C438.6,508.7,434.6,509.9,431.4,513z"/>
</g>
    </g>
</svg>
