<?xml version="1.0" encoding="utf-8"?>
<!-- Generator: Adobe Illustrator 26.0.1, SVG Export Plug-In . SVG Version: 6.00 Build 0)  -->
<svg version="1.1" id="pups" xmlns="http://www.w3.org/2000/svg" xmlns:xlink="http://www.w3.org/1999/xlink" x="0px" y="0px"
	 viewBox="0 0 1000 1000" style="enable-background:new 0 0 1000 1000;" xml:space="preserve">
<g id="filler-eyes-r">
<g>
    <g id="pupil">
	<circle cx="421.4" cy="528.9" r="36.7"/>
	<circle cx="578.7" cy="528.9" r="36.7"/>
        </g>
</g>
<g id="pupil-L">
	<path d="M431.9,538.7c-2.6,2.8-6.4,4.6-10.5,4.6c-4.2,0-8-1.8-10.6-4.7c-7.2,2.4-12.1,7.2-12.1,12.7
		c0,7.9,10.1,14.3,22.6,14.3s22.6-6.4,22.6-14.3C443.9,545.8,439.1,541.1,431.9,538.7z"/>
	<path d="M589.2,538.7c-2.6,2.8-6.4,4.6-10.5,4.6c-4.2,0-8-1.8-10.6-4.7c-7.2,2.4-12.1,7.2-12.1,12.7
		c0,7.9,10.1,14.3,22.6,14.3s22.6-6.4,22.6-14.3C601.2,545.8,596.4,541.1,589.2,538.7z"/>
</g>
<g id="pupil-D">
	<path d="M384.6,528.4c-0.3,7.2,3.8,13.2,9,13.2c3.2,0,13.7-8.4,15.6-8.4V525c-2.5,0-12.5-8.6-15.9-8.5
		C388.7,516.7,384.9,521.9,384.6,528.4z"/>
	<path d="M541.9,528.4c-0.3,7.2,3.8,13.2,9,13.2c3.2,0,13.7-8.4,15.6-8.4V525c-2.5,0-12.5-8.6-15.9-8.5
		C546,516.7,542.2,521.9,541.9,528.4z"/>
	<path d="M449.1,516.5c-3.2,0-13.7,8.4-15.6,8.4v8.2c2.5,0.1,12.5,8.7,15.9,8.5c4.6-0.2,8.4-5.4,8.7-11.9
		C458.4,522.5,454.3,516.5,449.1,516.5z"/>
	<path d="M606.4,516.5c-3.2,0-13.7,8.4-15.6,8.4v8.2c2.5,0.1,12.5,8.7,15.9,8.5c4.6-0.2,8.4-5.4,8.7-11.9
		C615.7,522.5,611.6,516.5,606.4,516.5z"/>
	
		<ellipse transform="matrix(0.3827 -0.9239 0.9239 0.3827 -228.5643 715.7295)" cx="421.3" cy="528.9" rx="8.4" ry="8.4"/>
	<circle cx="578.6" cy="528.9" r="8.4"/>
</g>
<g id="whites">
	<path d="M432.6,509.5c-4.4,4.4-6.1,10-3.7,12.4c2.4,2.4,7.9,0.7,12.4-3.7c4.4-4.5,6.1-10,3.7-12.4
		C442.6,503.4,437.1,505.1,432.6,509.5z"/>
	<path d="M602.3,505.8c-2.4-2.4-7.9-0.7-12.4,3.7c-4.4,4.4-6.1,10-3.7,12.4c2.4,2.4,7.9,0.7,12.4-3.7
		C603,513.7,604.7,508.2,602.3,505.8z"/>
</g>
    </g>
</svg>
