<?xml version="1.0" encoding="utf-8"?>
<!-- Generator: Adobe Illustrator 26.0.1, SVG Export Plug-In . SVG Version: 6.00 Build 0)  -->
<svg version="1.1" id="pups" xmlns="http://www.w3.org/2000/svg" xmlns:xlink="http://www.w3.org/1999/xlink" x="0px" y="0px"
	 viewBox="0 0 1000 1000" style="enable-background:new 0 0 1000 1000;" xml:space="preserve">
<g id="filler-eyes-r">
	<g id="blacks">
		<ellipse cx="578.7" cy="528.9" rx="42.9" ry="42.9"/>
		<ellipse transform="matrix(0.7071 -0.7071 0.7071 0.7071 -250.5943 452.8105)" cx="421.3" cy="528.9" rx="42.9" ry="42.9"/>
	</g>
	<g id="pupil-L">
		<circle cx="421.3" cy="528.9" r="36.7"/>
		<circle cx="578.7" cy="528.9" r="36.7"/>
	</g>
	<g id="pupil">
		<ellipse cx="421.3" cy="551.3" rx="22.6" ry="14.3"/>
		<ellipse cx="578.7" cy="551.3" rx="22.6" ry="14.3"/>
		<path d="M388.1,513.2c0,11.6,14.9,21,33.2,21c18.3,0,33.2-9.4,33.2-21c-5.9-12.4-18.5-21-33.2-21S394,500.8,388.1,513.2z"/>
		<path d="M545.5,513.2c0,11.6,14.9,21,33.2,21s33.2-9.4,33.2-21c-5.9-12.4-18.5-21-33.2-21S551.4,500.8,545.5,513.2z"/>
	</g>
	<g id="whites">
		<circle cx="421.3" cy="528.9" r="29.2"/>
		<circle cx="578.7" cy="528.9" r="29.2"/>
	</g>
	<g id="blacks">
		<circle cx="421.3" cy="528.9" r="21.7"/>
		<circle cx="578.7" cy="528.9" r="21.7"/>
	</g>
	<g id="whites">
		<path d="M432.3,502.8c-6.2,6.2-8.5,14-5.2,17.3c3.4,3.4,11.1,1,17.3-5.2c6.3-6.2,8.6-14,5.2-17.3
			C446.2,494.2,438.5,496.6,432.3,502.8z"/>
		<path d="M607,497.6c-3.4-3.4-11.1-1-17.3,5.2s-8.5,14-5.2,17.3c3.4,3.4,11.1,1,17.3-5.2C608.1,508.7,610.4,500.9,607,497.6z"/>
	</g>
</g>
</svg>
