<?xml version="1.0" encoding="utf-8"?>
<!-- Generator: Adobe Illustrator 26.0.1, SVG Export Plug-In . SVG Version: 6.00 Build 0)  -->
<svg version="1.1" id="pups" xmlns="http://www.w3.org/2000/svg" xmlns:xlink="http://www.w3.org/1999/xlink" x="0px" y="0px"
	 viewBox="0 0 1000 1000" style="enable-background:new 0 0 1000 1000;" xml:space="preserve">
<g id="filler-eyes-r">
<g id="pupil-D">
	<circle cx="578.7" cy="528.9" r="38.8"/>
	<circle cx="421.3" cy="528.9" r="38.8"/>
</g>
<g id="pupil">
	<circle cx="578.7" cy="528.9" r="33.2"/>
	<circle cx="421.3" cy="528.9" r="33.2"/>
</g>
<g id="pupil-L">
	<path d="M578.7,522.8c-12.1,0-23.5,1.7-33.2,4.8c0,0.4,0,0.9,0,1.3c0,18.3,14.9,33.2,33.2,33.2s33.2-14.9,33.2-33.2
		c0-0.4,0-0.9,0-1.3C602.2,524.6,590.9,522.8,578.7,522.8z"/>
	<path d="M388.1,527.6c0,0.4,0,0.9,0,1.3c0,18.3,14.9,33.2,33.2,33.2c18.3,0,33.2-14.9,33.2-33.2c0-0.4,0-0.9,0-1.3
		c-9.7-3-21-4.8-33.2-4.8C409.2,522.8,397.8,524.5,388.1,527.6z"/>
</g>
<g id="blacks">
	<circle cx="578.7" cy="528.9" r="24.7"/>
	<circle cx="421.3" cy="528.9" r="24.7"/>
</g>
<g id="whites">
	
		<ellipse transform="matrix(0.7071 -0.7071 0.7071 0.7071 -187.0823 569.7434)" cx="594.2" cy="510.7" rx="14.4" ry="7.8"/>
	
		<ellipse transform="matrix(0.7071 -0.7071 0.7071 0.7071 -233.1837 458.4448)" cx="436.8" cy="510.7" rx="14.4" ry="7.8"/>
</g>
    </g>
</svg>
