<?xml version="1.0" encoding="utf-8"?>
<!-- Generator: Adobe Illustrator 26.0.1, SVG Export Plug-In . SVG Version: 6.00 Build 0)  -->
<svg version="1.1" id="pups" xmlns="http://www.w3.org/2000/svg" xmlns:xlink="http://www.w3.org/1999/xlink" x="0px" y="0px"
	 viewBox="0 0 1000 1000" style="enable-background:new 0 0 1000 1000;" xml:space="preserve">
<g id="filler-eyes-r">
<g id="pupil-D">
	<circle cx="421.3" cy="528.9" r="26.7"/>
	<circle cx="578.6" cy="528.9" r="26.7"/>
</g>
<g id="pupil">
	<path d="M394.7,527.9c0,0.3,0,0.7,0,1c0,14.7,11.9,26.7,26.7,26.7c14.7,0,26.7-11.9,26.7-26.7c0-0.4,0-0.7,0-1
		c-7.8-2.4-16.9-3.9-26.7-3.9C411.6,524,402.5,525.4,394.7,527.9z"/>
	<path d="M578.7,524c-9.8,0-18.9,1.4-26.7,3.9c0,0.3,0,0.7,0,1c0,14.7,11.9,26.7,26.7,26.7c14.7,0,26.7-11.9,26.7-26.7
		c0-0.4,0-0.7,0-1C597.6,525.5,588.5,524,578.7,524z"/>
</g>
<g id="pupil-L">
	<path d="M421.3,535.2c-7.7,0-14,9.1-14,13s6.3,7,14,7c7.8,0,14-3.1,14-7C435.3,544.3,429,535.2,421.3,535.2z"/>
	<path d="M578.6,535.2c-7.7,0-14,9.1-14,13s6.3,7,14,7c7.8,0,14-3.1,14-7C592.6,544.3,586.3,535.2,578.6,535.2z"/>
</g>
<g id="pupil">
	<circle cx="421.4" cy="528.9" r="14"/>
	<circle cx="578.7" cy="528.9" r="14"/>
</g>
<g id="blacks">
	<circle cx="421.3" cy="528.9" r="10.7"/>
	<circle cx="578.6" cy="528.9" r="10.7"/>
</g>
<g id="whites">
	
		<ellipse transform="matrix(0.7071 -0.7071 0.7071 0.7071 -240.6305 456.7631)" cx="431.1" cy="518.8" rx="12.7" ry="6.9"/>
	<path d="M597.3,509.9c-2.7-2.7-8.9-0.8-13.8,4.1c-5,5-6.8,11.1-4.1,13.8s8.9,0.8,13.8-4.1
		C598.1,518.8,600,512.6,597.3,509.9z"/>
</g>
    </g>
</svg>
