<?xml version="1.0" encoding="utf-8"?>
<!-- Generator: Adobe Illustrator 26.0.1, SVG Export Plug-In . SVG Version: 6.00 Build 0)  -->
<svg version="1.1" id="pups" xmlns="http://www.w3.org/2000/svg" xmlns:xlink="http://www.w3.org/1999/xlink" x="0px" y="0px"
	 viewBox="0 0 1000 1000" style="enable-background:new 0 0 1000 1000;" xml:space="preserve">
<g id="filler-eyes-r">
<g id="pupil-D">
	
		<ellipse transform="matrix(0.8238 -0.5669 0.5669 0.8238 -225.5917 332.0243)" cx="421.3" cy="528.9" rx="35.6" ry="35.6"/>
	
		<ellipse transform="matrix(0.7071 -0.7071 0.7071 0.7071 -204.5208 564.0432)" cx="578.6" cy="528.9" rx="35.6" ry="35.6"/>
</g>
<g id="pupil">
	<path d="M385.8,527.5c0,0.5,0,0.9,0,1.4c0,19.6,15.9,35.6,35.6,35.6c19.6,0,35.6-15.9,35.6-35.6c0-0.5,0-0.9,0-1.4
		c-10.4-3.3-22.5-5.1-35.5-5.1C408.3,522.4,396.2,524.2,385.8,527.5z"/>
	<path d="M578.8,522.4c-13.2,0-25.3,1.8-35.7,5.1c0,0.5,0,0.9,0,1.4c0,19.6,15.9,35.6,35.6,35.6
		c19.6,0,35.6-15.9,35.6-35.6c0-0.5,0-0.9,0-1.4C603.9,524.2,591.8,522.4,578.8,522.4z"/>
</g>
<g id="pupil-L">
	<path d="M421.4,537.4c-10.3,0-18.6,12.2-18.6,17.3s8.3,9.3,18.6,9.3c10.2,0,18.6-4.2,18.6-9.3S431.7,537.4,421.4,537.4
		z"/>
	<path d="M578.7,537.4c-10.3,0-18.7,12.1-18.7,17.3c0,5.1,8.3,9.3,18.6,9.3s18.7-4.2,18.7-9.3S589,537.4,578.7,537.4z"
		/>
</g>
<g id="blacks">
	
		<ellipse transform="matrix(0.8237 -0.567 0.567 0.8237 -225.6248 332.1332)" cx="421.3" cy="528.9" rx="23.6" ry="23.6"/>
	
		<ellipse transform="matrix(0.7071 -0.7071 0.7071 0.7071 -204.5208 564.0432)" cx="578.6" cy="528.9" rx="23.6" ry="23.6"/>
</g>
<g id="pupil-L">
	
		<ellipse transform="matrix(0.7071 -0.7071 0.7071 0.7071 -250.5636 452.886)" cx="421.4" cy="528.9" rx="18.4" ry="18.4"/>
	
		<ellipse transform="matrix(0.7952 -0.6064 0.6064 0.7952 -202.1799 459.2181)" cx="578.7" cy="528.9" rx="18.4" ry="18.4"/>
</g>
<g id="blacks">
	<circle cx="421.4" cy="528.9" r="14"/>
	<circle cx="578.7" cy="528.9" r="14"/>
</g>
<g id="whites">
	
		<ellipse transform="matrix(0.7071 -0.7071 0.7071 0.7071 -237.36 458.0623)"cx="434.3" cy="515.6" rx="16.9" ry="9.1"/>
	
		<ellipse transform="matrix(0.7071 -0.7071 0.7071 0.7071 -191.2879 569.29)"cx="591.5" cy="515.6" rx="16.9" ry="9.1"/>
</g>
    </g>
</svg>
