<svg version="1.1" id="Layer_1" xmlns="http://www.w3.org/2000/svg" xmlns:xlink="http://www.w3.org/1999/xlink" x="0px" y="0px"
	 viewBox="0 0 1000 1000" style="enable-background:new 0 0 1000 1000;" xml:space="preserve">
<g id="filler-eyes-r">
<g id="pupil">
<ellipse id="pupil" transform="matrix(0.1602 -0.9871 0.9871 0.1602 -36.1269 1016.1379)" cx="579.1" cy="529.3" rx="38.8" ry="38.8"/>
</g>
<g id="pupil-L">
	<path d="M579.1,512.2c-8.3,0-14.9,7.7-14.9,17.1h29.9C594.1,519.8,587.4,512.2,579.1,512.2z"/>
	<path d="M594.7,541c0,0-6.3,6.9-15.3,6.9c-9.1,0-15.3-6.9-15.3-6.9c-3.5-3.1-9,0.4-7.6,4.9c2.4,7.9,8.2,14.2,15.9,17.2
		c0,0,3.6,1.5,7.1,1.5s7.1-1.5,7.1-1.5c7.6-3,13.5-9.3,15.9-17.2C603.7,541.4,598.3,537.9,594.7,541z"/>
</g>
<g id="pupil-D">
    <circle id="pupil-D" cx="579.1" cy="529.3" r="14.9"/>
    </g>
<g id="whites">
<path id="whites" d="M604.4,504.9c-3.8-3.8-10.4-3.4-17.4,3.6c-7,6.9-9.7,15.6-5.9,19.4c3.8,3.8,12.5,1.3,19.5-5.6
	C607.6,515.3,608.2,508.7,604.4,504.9z"/>
    </g>
</g>
</svg>