<?xml version="1.0" encoding="utf-8"?>
<!-- Generator: Adobe Illustrator 26.0.1, SVG Export Plug-In . SVG Version: 6.00 Build 0)  -->
<svg version="1.1" id="panda" xmlns="http://www.w3.org/2000/svg" xmlns:xlink="http://www.w3.org/1999/xlink" x="0px" y="0px"
	 viewBox="0 0 1000 1000" enable-background="new 0 0 1000 1000" xml:space="preserve">
<path id="skin2-D" fill="#FFFFBB" d="M574,661.2c0,0-0.5-0.5-1.3-1.4c-0.8-0.8-1.7-1.8-2.8-2.8c-1.7-1.6-3.5-3-4.1-3.4
	c0-0.1,0-0.2-0.1-0.4c0.2-0.2,0.5-0.7,0.9-1.2c0.6-0.8,1.3-2,2.1-3.3c0.7-1.2,1.4-2.5,1.9-3.5c0.5-1,0.8-1.7,0.8-1.7v0l0,0
	c0,0-0.6-0.4-1.6-0.9c-0.5-0.3-1-0.6-1.6-0.9c-0.6-0.3-1.3-0.6-1.9-0.9c-0.6-0.3-1.3-0.6-1.9-0.9c-0.6-0.2-1.2-0.5-1.7-0.7
	c-0.6-0.2-1.1-0.4-1.4-0.5c-0.1-0.1-0.1-0.2-0.1-0.3c0.1-0.3,0.3-0.8,0.5-1.4c0.3-1,0.7-2.3,1.1-3.7c0.3-1.4,0.6-2.8,0.8-3.9
	c0.2-1.1,0.3-1.8,0.3-1.8l0,0h0v0l0,0c0,0-0.7-0.2-1.8-0.5c-1.1-0.3-2.5-0.5-3.9-0.8c-1.4-0.3-2.8-0.4-3.8-0.5
	c-0.6-0.1-1.2-0.1-1.4-0.1c-0.1-0.1-0.2-0.2-0.2-0.3c0-0.3,0-0.8,0.1-1.4c0.1-1,0.1-2.4,0.1-3.8c0-1.4-0.1-2.9-0.2-3.9
	c-0.1-1.1-0.2-1.8-0.2-1.8l0,0h0v0l0,0c0,0-0.2,0-0.5,0c-0.3,0-0.8,0-1.3,0c-1.1,0-2.5,0.1-3.9,0.2c-1.4,0.1-2.8,0.3-3.8,0.4
	c-0.5,0.1-0.9,0.1-1.2,0.2c-0.1,0-0.1,0-0.2,0c-0.1-0.1-0.2-0.1-0.3-0.2c-0.1-0.3-0.1-0.8-0.3-1.4c-0.2-1-0.5-2.4-0.8-3.7
	c-0.2-0.7-0.4-1.4-0.5-2c-0.2-0.6-0.4-1.2-0.5-1.7c-0.3-1-0.6-1.7-0.6-1.7v0h0v0l0,0c0,0-0.2,0-0.5,0.1c-0.3,0.1-0.7,0.2-1.3,0.3
	c-1,0.3-2.4,0.7-3.8,1.1c-1.4,0.5-2.7,0.9-3.6,1.3c-0.5,0.2-0.9,0.3-1.2,0.5c-0.1,0-0.1,0.1-0.2,0.1c-0.1,0-0.2-0.1-0.3-0.1
	c-0.1-0.3-0.3-0.7-0.6-1.3c-0.2-0.5-0.5-1-0.7-1.6c-0.3-0.6-0.6-1.2-0.9-1.8c-0.6-1.3-1.3-2.5-1.9-3.4c-0.6-0.9-0.9-1.5-0.9-1.5v0
	l0,0c0,0-0.7,0.3-1.6,0.8c-1,0.5-2.2,1.2-3.4,1.9c-1.2,0.7-2.4,1.5-3.3,2c-0.5,0.4-1,0.6-1.2,0.8c-0.1,0-0.2,0-0.4-0.1
	c-0.2-0.2-0.5-0.6-0.8-1.2c-0.6-0.8-1.4-2-2.3-3c-0.9-1.1-1.8-2.2-2.5-3c-0.7-0.8-1.2-1.3-1.2-1.3v0l0,0v0c0,0-0.6,0.5-1.4,1.1
	c-0.8,0.7-1.9,1.6-2.9,2.6c-1,0.9-2,1.9-2.8,2.7c-0.5,0.5-0.8,0.8-1,1.1c-0.1,0-0.2,0-0.4,0c-0.2-0.2-0.6-0.6-1.1-1
	c-0.8-0.7-1.8-1.6-2.9-2.5c-1.1-0.9-2.2-1.7-3.1-2.4c-0.9-0.6-1.5-1.1-1.5-1.1v0l0,0v0c0,0-0.5,0.6-1.1,1.4c-0.7,0.9-1.5,2-2.4,3.1
	c-0.8,1.2-1.6,2.3-2.2,3.2c-0.4,0.6-0.6,1-0.8,1.2c-0.1,0-0.2,0.1-0.3,0.1c-0.2-0.1-0.7-0.4-1.2-0.7c-0.9-0.5-2.1-1.2-3.4-1.8
	c-1.3-0.6-2.6-1.3-3.5-1.7c-1-0.4-1.7-0.7-1.7-0.7l0,0v0c0,0-0.3,0.6-0.8,1.6c-0.5,1-1.1,2.3-1.7,3.5c-0.6,1.3-1.1,2.6-1.4,3.6
	c-0.2,0.6-0.4,1.1-0.5,1.4c-0.1,0.1-0.2,0.1-0.3,0.2c-0.3-0.1-0.8-0.3-1.4-0.5c-1-0.3-2.3-0.7-3.7-1.1c-2.7-0.7-5.6-1.2-5.6-1.2h0
	l0,0c0,0-0.2,0.7-0.5,1.7c-0.3,1.1-0.6,2.5-0.8,3.8c-0.3,1.4-0.5,2.8-0.6,3.8c-0.1,0.6-0.1,1.2-0.2,1.4c-0.1,0.1-0.2,0.2-0.3,0.2
	c-0.3,0-0.8-0.1-1.4-0.1c-0.5,0-1.1-0.1-1.8-0.1c-0.7,0-1.3,0-2.1-0.1c-1.4,0-2.9,0-3.9,0.1c-1.1,0.1-1.8,0.1-1.8,0.1l0,0v0h0l0,0
	c0,0,0,0.2,0,0.5c0,0.3,0,0.8,0,1.3c0,1.1,0,2.5,0.1,3.9c0.1,1.4,0.2,2.8,0.3,3.8c0.1,0.7,0.2,1.2,0.2,1.5c-0.1,0.1-0.1,0.2-0.2,0.3
	c-0.3,0-0.8,0.1-1.4,0.2c-1,0.2-2.4,0.5-3.8,0.8c-1.4,0.3-2.7,0.8-3.8,1.1c-1,0.3-1.7,0.6-1.7,0.6l0,0l0,0c0,0,0.2,0.7,0.4,1.8
	c0.3,1.1,0.6,2.4,1.1,3.8c0.5,1.4,0.9,2.6,1.4,3.6c0.3,0.6,0.5,1.1,0.6,1.3c0,0.1-0.1,0.2-0.1,0.3c-0.3,0.1-0.7,0.3-1.3,0.6
	c-0.9,0.5-2.2,1.1-3.4,1.8c-1.2,0.7-2.4,1.5-3.3,2.1c-0.5,0.3-0.8,0.6-1.1,0.8c-0.3,0.2-0.4,0.3-0.4,0.3l0,0v0v0h0
	c0,0,0.4,0.6,0.9,1.6c0.5,0.9,1.3,2.2,2.2,3.3c0.8,1.2,1.7,2.3,2.3,3.1c0.4,0.5,0.8,0.9,0.9,1.1c0,0.1,0,0.2,0,0.4
	c0,0-0.1,0.1-0.2,0.1c-0.2,0.2-0.5,0.5-0.9,0.8c-0.7,0.7-1.8,1.7-2.7,2.7c-0.9,1-1.9,2.1-2.6,3c-0.7,0.8-1.1,1.4-1.1,1.4h0l0,0l0,0
	h0c0,0,2.1,2,4.3,3.8c0.5,0.4,1.1,0.9,1.6,1.3c0.5,0.4,1,0.7,1.4,1.1c0.5,0.4,0.9,0.7,1.2,0.8c0,0.1,0,0.3,0.1,0.4
	c-0.2,0.2-0.5,0.7-0.8,1.2c-0.6,0.9-1.3,2-2.1,3.2c-0.8,1.2-1.4,2.4-1.9,3.3c-0.5,0.9-0.9,1.6-0.9,1.6h0v0h0c0,0,0.6,0.4,1.5,0.9
	c0.9,0.5,2.1,1.2,3.4,1.9c2,1.1,4,2.1,4.7,2.4c0,0.1,0.1,0.2,0.1,0.3c-0.1,0.3-0.3,0.7-0.6,1.3c-0.4,0.9-1,2.2-1.6,3.5
	c-1.1,2.5-2.1,5.2-2.1,5.2v0v0l0,0c0,0,0.6,0.3,1.6,0.7c1,0.4,2.3,0.9,3.6,1.4c2.1,0.8,4.2,1.5,5,1.8c0.1,0.1,0.1,0.2,0.2,0.3
	c-0.1,0.3-0.3,0.8-0.5,1.4c-0.3,1-0.7,2.3-1.1,3.6c-0.4,1.3-0.7,2.7-1,3.7c-0.3,1-0.4,1.7-0.4,1.7v0l0,0c0,0,0.7,0.2,1.7,0.5
	c1,0.3,2.4,0.6,3.7,1c1.3,0.3,2.7,0.6,3.7,0.9c0.6,0.1,1.1,0.2,1.4,0.3c0.1,0.1,0.1,0.2,0.2,0.3c-0.1,0.3-0.2,0.8-0.3,1.4
	c-0.2,1-0.4,2.4-0.6,3.8c-0.2,1.4-0.4,2.8-0.5,3.8c-0.1,1.1-0.2,1.8-0.2,1.8l0,0h0v0l0,0c0,0,0.7,0.1,1.7,0.3
	c1.1,0.1,2.5,0.3,3.9,0.5c0.7,0.1,1.4,0.1,2,0.2c0.7,0,1.3,0.1,1.8,0.1c0.6,0,1.1,0.1,1.4,0.1c0.1,0.1,0.2,0.2,0.3,0.3
	c0,0.3,0,0.8-0.1,1.4c0,1,0,2.4,0,3.8c0,0.7,0,1.4,0.1,2.1c0,0.7,0.1,1.3,0.1,1.8c0.1,1.1,0.1,1.8,0.1,1.8v0c0,0,0.7,0,1.8,0
	c1.1,0,2.5-0.1,3.9-0.2c1.4-0.1,2.8-0.3,3.8-0.4c0.6-0.1,1.1-0.2,1.4-0.2c0.1,0.1,0.2,0.1,0.3,0.2c0,0.3,0.1,0.8,0.2,1.4
	c0.2,1,0.5,2.4,0.8,3.8c0.3,1.4,0.8,2.7,1.1,3.8c0.4,1,0.6,1.7,0.6,1.7v0h0v0l0,0c0,0,0.2,0,0.5-0.1c0.3-0.1,0.8-0.2,1.3-0.3
	c1.1-0.3,2.5-0.7,3.8-1.1c1.4-0.5,2.7-1,3.6-1.4c0.5-0.2,0.9-0.4,1.1-0.5c0.1,0,0.1-0.1,0.2-0.1c0.1,0,0.2,0.1,0.3,0.1
	c0.1,0.3,0.4,0.7,0.7,1.3c0.5,0.9,1.2,2.2,2,3.4c0.8,1.2,1.7,2.4,2.4,3.3c0.7,0.8,1.2,1.4,1.2,1.4v0l0,0c0,0,0.7-0.4,1.6-1
	c0.9-0.6,2.1-1.5,3.2-2.4c0.6-0.5,1.1-0.9,1.6-1.4c0.5-0.4,0.9-0.9,1.3-1.3c0.4-0.5,0.8-0.8,1-1c0.1,0,0.3,0,0.4,0
	c0.2,0.2,0.6,0.5,1.1,1c0.8,0.6,1.9,1.5,3.1,2.3c1.2,0.9,2.5,1.5,3.5,2c1,0.5,1.7,0.9,1.7,0.9v0l0,0v0c0,0,0.1-0.2,0.3-0.4
	c0.2-0.3,0.4-0.7,0.7-1.2c0.6-1,1.3-2.2,2-3.4c0.6-1.3,1.2-2.6,1.6-3.5c0.3-0.6,0.4-1.1,0.5-1.3c0.1-0.1,0.2-0.1,0.3-0.2
	c0.3,0.1,0.8,0.3,1.4,0.5c1,0.3,2.4,0.8,3.7,1.1c1.4,0.3,2.8,0.6,3.9,0.9c1.1,0.2,1.8,0.3,1.8,0.3v0c0,0,0.2-0.7,0.5-1.8
	c0.1-0.5,0.3-1.1,0.4-1.8c0.1-0.7,0.3-1.4,0.4-2.1c0.2-1.4,0.5-2.7,0.6-3.8c0.1-0.6,0.1-1.1,0.1-1.4c0.1-0.1,0.2-0.2,0.3-0.3
	c0.3,0,0.8,0.1,1.4,0.1c1.1,0.1,2.4,0.1,3.8,0.2c2.8,0.1,5.7-0.1,5.7-0.1l0,0c0,0,0.1-2.9,0-5.7c-0.1-2.3-0.3-4.5-0.3-5.3
	c0.1-0.1,0.2-0.2,0.3-0.3c0.3,0,0.8-0.1,1.4-0.1c1-0.1,2.4-0.3,3.8-0.5c2.8-0.4,5.6-1,5.6-1l0,0v0l0,0l0,0c0,0-0.1-0.7-0.2-1.8
	c-0.1-1-0.4-2.4-0.7-3.8c-0.3-1.4-0.5-2.7-0.8-3.7c-0.1-0.6-0.3-1.1-0.3-1.4c0.1-0.1,0.1-0.2,0.2-0.3c0.3-0.1,0.8-0.2,1.4-0.3
	c1-0.2,2.4-0.6,3.7-1c1.3-0.4,2.7-0.8,3.7-1.1c1-0.3,1.7-0.6,1.7-0.6l0,0v0l0,0l0,0c0,0-0.2-0.7-0.5-1.7c-0.3-1-0.7-2.3-1.1-3.7
	c-0.4-1.3-0.9-2.6-1.2-3.6c-0.2-0.6-0.4-1.1-0.5-1.4c0.1-0.1,0.1-0.2,0.2-0.3c0.3-0.1,0.7-0.3,1.3-0.5c1-0.4,2.3-0.9,3.5-1.4
	c1.3-0.6,2.6-1.1,3.5-1.6c1-0.4,1.6-0.8,1.6-0.8l0,0c0,0-0.3-0.7-0.7-1.6c-0.4-1-1-2.2-1.6-3.5c-0.6-1.3-1.2-2.5-1.7-3.4
	c-0.3-0.6-0.5-1-0.7-1.3c0-0.1,0.1-0.2,0.1-0.4c0.3-0.1,0.7-0.4,1.3-0.7c0.9-0.5,2.1-1.2,3.3-1.9c1.2-0.7,2.4-1.5,3.3-2.1
	c0.9-0.6,1.5-1,1.5-1l0,0l0,0c0,0-0.4-0.6-0.9-1.5c-0.5-0.9-1.3-2.1-2.1-3.3c-1.2-1.9-2.6-3.7-3.1-4.3c0-0.1,0-0.3,0-0.4
	c0.2-0.2,0.6-0.5,1.1-0.9c0.8-0.7,1.8-1.6,2.9-2.5c1.1-0.9,2-2,2.8-2.8C573.5,661.8,574,661.2,574,661.2L574,661.2L574,661.2
	L574,661.2z M503.2,732.6c-0.8-0.4-1.6-0.9-2.3-1.4c0,0.1,0,0.2-0.1,0.3c-0.6,2.8-2,5.1-4,6.9c-2.9-2.9-4.4-7.2-3.5-11.6
	c-0.3,0-0.6,0.1-0.9,0.1c-2.8,0.2-5.5-0.5-7.7-1.9c2-3.7,5.8-6.4,10.2-6.7c0,0,0,0,0.1,0c0.3-2.2,1.1-4.2,2.4-5.9
	c2.7,1.7,4.7,4.5,5.5,7.6c0.1,0,0.2,0.1,0.3,0.1c0.4-0.7,0.9-1.3,1.4-2c1.9-2.1,4.3-3.4,6.9-4c1.1,4,0.2,8.5-2.7,11.8
	c0.3,0.1,0.6,0.2,0.9,0.4c2.6,1.2,4.5,3.2,5.8,5.5C511.9,734.1,507.3,734.5,503.2,732.6z"/>
</svg>
