<?xml version="1.0" encoding="utf-8"?>
<!-- Generator: Adobe Illustrator 26.0.1, SVG Export Plug-In . SVG Version: 6.00 Build 0)  -->
<svg version="1.1" id="monkey" xmlns="http://www.w3.org/2000/svg" xmlns:xlink="http://www.w3.org/1999/xlink" x="0px" y="0px"
	 viewBox="0 0 1000 1000" enable-background="new 0 0 1000 1000" xml:space="preserve">
<path id="skin2-D" fill="#EBEDA6" d="M548,605.5h-98c-16.4,7.7-20.8,33-9.7,56.5c11,23.5,33.3,36.2,49.7,28.5c3.6-1.7,6.6-4.3,9-7.4
	c2.4,3.2,5.4,5.7,9,7.4c16.4,7.7,38.7-5.1,49.7-28.5C568.8,638.5,564.4,613.2,548,605.5z M463.4,678c-0.9,1.3-3.7,0.8-6.1-1
	c-2.4-1.8-3.7-4.3-2.7-5.6s3.7-0.8,6.1,1C463.1,674.2,464.3,676.7,463.4,678z M540.7,677c-2.4,1.8-5.2,2.2-6.1,1
	c-0.9-1.3,0.3-3.8,2.7-5.6c2.4-1.8,5.2-2.2,6.1-1S543.1,675.2,540.7,677z"/>
</svg>
