<?xml version="1.0" encoding="utf-8"?>
<!-- Generator: Adobe Illustrator 24.0.1, SVG Export Plug-In . SVG Version: 6.00 Build 0)  -->
<svg version="1.1" id="Layer_1" xmlns="http://www.w3.org/2000/svg" xmlns:xlink="http://www.w3.org/1999/xlink" x="0px" y="0px"
	 viewBox="0 0 800 800" style="enable-background:new 0 0 800 800;" xml:space="preserve">
<style type="text/css">
	.st0{fill:#FFFFFF;}
</style>
<g>
	<path class="st0" d="M142.2,543.6l16.4-3.8c0,0,10.7-14.6,36-11s38.6,39.4,38.6,39.4l3.3,34.5c0,0,17.1-8.2,30.9,4.6
		c13.8,12.8,13.3,39.1,8.4,46.5s-16.1,8.9-16.1,8.9l-11.2,19.4l-7.2,8.4l-18.1,7.2c0,0-18.4-2-35-11.5s-16.9-28.9-16.9-28.9l2.8-4.6
		c0,0-34.8-45-39.6-61.9C129.7,574,131.2,549.5,142.2,543.6z"/>
	<path d="M277.6,615.7c-3.8-6.6-14.2-22-29.9-22c-0.2,0-0.3,0-0.5,0c-3.1,0.1-6,0.8-8.5,2c0.1-0.8,0.1-1.7,0.1-2.5
		c0.2-6.2-0.1-12.4-1.2-18.6c-0.5-3.1-1.3-6.1-2.2-9.1s-2-5.9-3.3-8.8c-2.7-5.7-6.1-11.1-10.4-15.8c-2.2-2.3-4.5-4.5-7.1-6.5
		c-2.6-1.9-5.3-3.7-8.2-5.1c-2.9-1.4-5.8-2.6-9-3.5s-6.4-1.3-9.6-1.5c-6.4-0.3-12.9,0.5-19,2.4c-3.1,1-6.1,2.2-8.9,3.9
		c-2.7,1.6-5.4,3.5-7.7,6.2c-11.1,1.4-18.9,9.3-21.5,21.9c-4.2,20.3,2.7,44.4,19.7,69.7c7.4,11,15.1,19.9,20.4,25.5l-3.5,1.6
		c-1,0.5-1.5,1.6-1.1,2.7l0.9,2.6c0.5,1.4,1,2.6,1.5,3.8s1.1,2.4,1.7,3.6c1.2,2.4,2.5,4.7,4,6.9c2.9,4.5,6.3,8.7,10.2,12.5
		c2,1.9,4.1,3.6,6.3,5.2c2.2,1.6,4.6,3,7.1,4.2c4.9,2.5,10.3,4,15.8,4.7c1.4,0.2,2.7,0.2,4.1,0.3h2.1c0.7,0,1.4,0,2.1,0
		c1.9-0.1,3.9-0.4,5.8-1.1l0.1,0.2l19.4-10l0.5-0.5c1.2-1.4,1.9-3.1,2.4-5.1c2-1.5,3.8-3.1,5.4-5c1.7-2,3.2-4.2,4.4-6.5
		c1.3-2.5,2.2-5.1,2.9-7.7c0.5,0.1,1,0.1,1.5,0.1c3.6,0,7.3-1.7,10.5-5.1C283.6,652,287.1,632.4,277.6,615.7z M146.9,545.9
		c-0.1,0.1-0.2,0.2-0.3,0.3l-3.1,4.7c-1.1,0.5-2.1,1.1-3.2,2.1C142,549.8,144.2,547.4,146.9,545.9z M242.6,685.3l-6.9,3.6
		c0-0.4-0.1-0.8-0.1-1.1l4.8-3.7c0.9-0.7,1-1.9,0.4-2.8c-0.7-0.9-1.9-1-2.8-0.4l-3.1,2.4c-0.1-0.6-0.3-1.1-0.4-1.7
		c-0.4-1.2-0.8-2.3-1.2-3.5l4.2-3.2c0.9-0.7,1.1-1.9,0.4-2.8c-0.7-0.9-1.9-1.1-2.8-0.4l-3.3,2.5c-0.6-1.3-1.1-2.5-1.7-3.7l3.8-3.4
		c0.6-0.6,0.7-1.5,0.1-2.1c-0.6-0.6-1.5-0.7-2.1-0.1l-3.2,2.9c-0.1-0.3-0.3-0.5-0.4-0.8c-0.5-1-1.1-2-1.6-3l3-3.3
		c0.6-0.6,0.5-1.6-0.1-2.1s-1.6-0.5-2.1,0.1l-2.4,2.6c-0.2-0.3-0.4-0.7-0.6-1l-1.9-3.3c0.5-0.3,1.1-0.8,1.5-1.3
		c1.1-1.3,1.6-2.9,1.6-4.5c0-0.8-0.2-1.6-0.5-2.4c-0.2-0.4-0.3-0.7-0.6-1.1c-0.1-0.2-0.2-0.3-0.3-0.5l-0.2-0.3
		c-1.6-2-3.1-4.4-4.4-6.9c-2.6-5-4.8-10.3-6.6-15.8l-0.2-0.6l1.6-4.6c0.2-0.5-0.1-1.1-0.6-1.3s-1.1,0.1-1.3,0.6l-0.8,2.2l-0.9-2.6
		l2-5.5c0.2-0.5-0.1-1.1-0.6-1.3s-1.1,0.1-1.3,0.6l-1.1,3.1c-0.5-1.3-0.9-2.6-1.4-3.9l1.9-5.5c0.2-0.5-0.1-1.1-0.6-1.3
		s-1.1,0.1-1.3,0.6l-1.1,3.2c-0.1-0.2-0.1-0.4-0.2-0.6c-0.4-1-0.8-2.1-1.2-3.1l1.8-5.2c0.2-0.5-0.1-1.1-0.6-1.3s-1.1,0.1-1.3,0.6
		l-1.1,3.1c-0.4-0.9-0.7-1.8-1.1-2.6l2-5.7c0.2-0.5-0.1-1.1-0.6-1.3s-1.1,0.1-1.3,0.6l-1.3,3.7c-0.5-1.1-1-2.3-1.6-3.4l2.4-5.4
		c0.3-0.8,0-1.6-0.8-2c-0.8-0.3-1.6,0-2,0.8l-1.4,3.2c-0.5-1-1-1.9-1.5-2.9l2.6-4.5c0.4-0.7,0.2-1.6-0.5-2s-1.6-0.2-2,0.5l-1.7,3
		c-0.6-1-1.1-2-1.7-2.9l2.9-4.4c0.5-0.7,0.3-1.6-0.4-2.1s-1.6-0.3-2.1,0.4l-2.1,3.2c-0.6-0.9-1.1-1.7-1.7-2.6
		c-0.1-0.1-0.1-0.2-0.2-0.3l2.9-4.4c0.5-0.7,0.3-1.6-0.4-2.1s-1.6-0.3-2.1,0.4l-2.3,3.4c-0.7-1-1.5-1.9-2.3-2.9l2.8-4.2
		c0.6-0.9,0.4-2.2-0.6-2.8c-0.9-0.6-2.2-0.3-2.8,0.6l-2.1,3.2c-0.7-0.8-1.4-1.5-2.1-2.2l2.4-3.7c0.6-0.9,0.4-2.2-0.6-2.8
		c-0.9-0.6-2.2-0.4-2.8,0.6l-2,3.1c-1.2-1.1-2.5-2.1-3.8-3l2.3-3.6c0.6-0.9,0.4-2.2-0.6-2.8c-0.9-0.6-2.2-0.3-2.8,0.6l-2.3,3.5
		c-1.7-1.1-3.4-2-5.2-2.8l1.9-2.8c0.6-0.9,0.4-2.2-0.6-2.8c-0.9-0.6-2.2-0.3-2.8,0.6l-2.3,3.5c-2-0.7-4.2-1.2-6.3-1.5l1.7-2.6
		c0.6-0.9,0.4-2.2-0.6-2.8c-0.9-0.6-2.2-0.3-2.8,0.6l-2.9,4.4c-1.3,0-2.6,0.2-3.9,0.5l1.4-2.1c0.5-0.7,0.3-1.6-0.4-2.1
		c-0.4-0.3-0.9-0.3-1.3-0.2c2.2-1.1,4.6-1.8,7.4-1.9c19-0.9,47.2,21.1,57.3,54.1c1.7,5.4,2.7,10.5,3.8,15.3c2.5,11.8,5,23,14.9,36.7
		C240.2,663,245.2,680.5,242.6,685.3z M269.5,656.3c-1.3,1.4-3.2,2.9-5.3,2.8c0.2-2.5,0.3-4.9,0.2-7.3c-0.1-2.5-0.4-4.9-0.8-7.4
		c-0.5-2.4-1.2-4.8-2-7.1s-1.9-4.5-4.1-6.3c-0.6,2.7-0.6,5-0.5,7.3s0.2,4.6,0.2,6.8c0.1,4.5,0.1,8.9-0.5,13.2
		c-0.3,2.1-0.8,4.2-1.4,6.3c-0.6,2-1.4,4-2.3,5.8c-0.9,1.7-1.9,3.3-3.1,4.8c-1.9-9.9-7.5-21.7-13.2-29.5
		c-9-12.4-11.2-22.4-13.6-33.9c-1.1-5-2.2-10.2-3.9-15.9c-9.7-31.7-34.3-53.7-55.1-58.4c2.3-1.3,4.7-2.3,7.3-3.1
		c5.2-1.6,10.7-2.3,16.1-2.1c2.7,0.2,5.4,0.6,7.9,1.3s5.1,1.7,7.5,2.9s4.7,2.7,6.9,4.3c2.2,1.7,4.2,3.5,6,5.5
		c7.4,8.1,12.1,18.7,14,29.8c1,5.5,1.3,11.2,1.1,16.9s-1,11.4-2.1,16.9c-0.4,1.9,0.6,3.9,2.5,4.6c0.9,0.4,2.1,0.8,3.2,1.1
		c1.1,0.3,2.3,0.5,3.4,0.8c1.2,0.3,2.3,0.5,3.5,0.8s2.4,0.7,3.7,1.1c-0.3-1.3-1-2.6-1.8-3.7c-0.8-1.1-1.7-2.2-2.6-3.1
		c-0.9-1-2-1.8-3.1-2.6c-0.1-0.1-0.3-0.2-0.4-0.3l1-2.7c1.4-2.8,5-4.6,9.1-4.7c4-0.1,14.3,1.6,23.8,18.3
		C279.7,634.3,275.2,650.2,269.5,656.3z"/>
	<g>
		<path class="st0" d="M156.6,583.2c0.4,1.2,1.4,1.9,2.2,1.6l2-0.7l1.1,3c0.4,1.2,1.4,1.9,2.2,1.6s1-1.5,0.6-2.6l-1.1-3l2-0.7
			c0.8-0.3,1-1.5,0.6-2.6c-0.4-1.2-1.4-1.9-2.2-1.6l-2,0.7l-1.1-3c-0.4-1.2-1.4-1.9-2.2-1.6l0,0c-0.8,0.3-1,1.5-0.6,2.6l1.1,3
			l-2,0.7C156.4,580.9,156.1,582,156.6,583.2z"/>
		<path class="st0" d="M166.5,595.8c-0.4-1.2-1.4-1.9-2.2-1.6l-2,0.7l-1.1-3c-0.4-1.2-1.4-1.9-2.2-1.6s-1,1.5-0.6,2.6l1.1,3l-2,0.7
			c-0.8,0.3-1,1.5-0.6,2.6c0.4,1.2,1.4,1.9,2.2,1.6l2-0.7l1.1,3c0.4,1.2,1.4,1.9,2.2,1.6c0.8-0.3,1-1.5,0.6-2.6l-1.1-3l2-0.7
			C166.6,598.1,166.9,597,166.5,595.8z"/>
		<path class="st0" d="M177.3,610.3c0.8-0.3,1-1.5,0.6-2.6l-1.1-3l2-0.7c0.8-0.3,1-1.5,0.6-2.6c-0.4-1.2-1.4-1.9-2.2-1.6l-2,0.7
			l-1.1-3c-0.4-1.2-1.4-1.9-2.2-1.6c-0.8,0.3-1,1.5-0.6,2.6l1.1,3l-2,0.7c-0.8,0.3-1,1.5-0.6,2.6c0.4,1.2,1.4,1.9,2.2,1.6l2-0.7
			l1.1,3C175.5,609.9,176.5,610.6,177.3,610.3z"/>
		<path class="st0" d="M174.9,614.7c-0.5-1.1-1.6-1.8-2.3-1.4l-1.9,0.9l-1.4-2.9c-0.5-1.1-1.6-1.8-2.3-1.4c-0.7,0.3-0.9,1.5-0.4,2.7
			l1.4,2.9l-1.9,0.9c-0.7,0.3-0.9,1.5-0.4,2.7s1.6,1.8,2.3,1.4l1.9-0.9l1.4,2.9c0.5,1.1,1.6,1.8,2.3,1.4l0,0
			c0.7-0.3,0.9-1.5,0.4-2.7l-1.4-2.9l1.9-0.9C175.3,617,175.4,615.8,174.9,614.7z"/>
		<path class="st0" d="M187.4,624.7c-0.4-1.2-1.4-1.9-2.1-1.6l-2,0.7l-1.1-3c-0.4-1.2-1.4-1.9-2.1-1.6s-1,1.4-0.6,2.6l1.1,3l-2,0.7
			c-0.8,0.3-1,1.4-0.6,2.6c0.4,1.2,1.4,1.9,2.1,1.6l2-0.7l1.1,3c0.4,1.2,1.4,1.9,2.1,1.6s1-1.4,0.6-2.6l-1.1-3l2-0.7
			C187.6,627,187.8,625.9,187.4,624.7z"/>
		<path class="st0" d="M202.9,664.9c-0.7-1.1-1.8-1.7-2.6-1.4l-2,0.7l-1.7-2.8c-0.7-1.1-1.8-1.7-2.6-1.4l0,0
			c-0.8,0.3-0.9,1.4-0.2,2.5l1.7,2.8l-2,0.7c-0.8,0.3-0.9,1.4-0.2,2.5s1.8,1.7,2.6,1.4l2-0.7l1.7,2.8c0.7,1.1,1.8,1.7,2.6,1.4l0,0
			c0.8-0.3,0.9-1.4,0.2-2.5l-1.7-2.8l2-0.7C203.4,667,203.5,665.9,202.9,664.9z"/>
		<path class="st0" d="M209.9,682.8l-1.3-2l1.6-0.7c0.6-0.3,0.7-1.1,0.2-1.9c-0.5-0.8-1.4-1.2-2-1l-1.6,0.7l-1.3-2
			c-0.5-0.8-1.4-1.2-2-1s-0.7,1.1-0.2,1.9l1.3,2l-1.6,0.7c-0.6,0.3-0.7,1.1-0.2,1.9c0.5,0.8,1.4,1.2,2,1l1.6-0.7l1.3,2
			c0.5,0.8,1.4,1.2,2,1S210.4,683.6,209.9,682.8z"/>
		<g>
			<path class="st0" d="M186.4,587.7L186,588c-0.1,0.1-0.2,0.2-0.3,0.4c-0.1,0.4-0.1,1.2-0.2,1.7c-0.1,0.5-0.3,0.7-0.8,0.6
				c-0.4-0.1-1-0.5-1.3-0.4s-0.6,0.2-0.9,0.4c-0.6,0.3-1.1,0.7-1.4,1.4l1.5,2.6c0.8,0,1.4-0.2,1.9-0.5c0.3-0.2,0.5-0.3,0.8-0.6
				c0.2-0.2,0.2-0.9,0.3-1.4c0.1-0.4,0.4-0.6,0.9-0.4c0.5,0.2,1.1,0.7,1.5,0.8c0.2,0.1,0.4,0,0.5,0l0.5-0.1c0.3-0.1,0.6-0.2,0.9-0.3
				c1.2-0.4,2.3-0.9,3.5-1.4c-1-2-2-4-3.1-6c0,0-0.1,0-0.1,0.1c-1.1,0.7-2.1,1.4-3.1,2.3C186.9,587.2,186.6,587.4,186.4,587.7z"/>
			<path class="st0" d="M169.9,640.3c0.1-0.1,0.1-0.2,0.1-0.3c0-0.2-0.1-0.5-0.2-0.7l-0.2-0.8c-0.1-0.4,0-0.6,0.4-0.4
				c0.3,0.2,0.8,0.5,1,0.5s0.4-0.1,0.5-0.2c0.3-0.2,0.5-0.5,0.6-1.1l-1.8-2.4c-0.5-0.1-0.9,0-1.2,0.3c-0.1,0.1-0.3,0.3-0.4,0.4
				c-0.1,0.2,0.1,0.8,0.2,1.2c0.1,0.4-0.1,0.5-0.5,0.3l-0.7-0.4c-0.2-0.1-0.5-0.3-0.6-0.4c-0.2-0.1-0.3,0-0.4,0l-0.3,0.1
				c-0.2,0.1-0.4,0.1-0.6,0.2c-0.1,0-0.2,0.1-0.2,0.1c1.3,1.6,2.5,3.1,3.7,4.5c0.1-0.1,0.2-0.3,0.3-0.4L169.9,640.3z"/>
			<path class="st0" d="M189.7,593.6c-0.3,0.2-0.5,0.4-0.7,0.6l-0.4,0.3c-0.1,0.1-0.3,0.2-0.3,0.4c-0.1,0.2-0.1,0.5-0.1,0.8
				l-0.1,0.9c-0.1,0.5-0.4,0.7-0.8,0.5c-0.4-0.2-0.9-0.5-1.3-0.5c-0.3,0.1-0.6,0.2-0.9,0.3c-0.6,0.3-1.1,0.6-1.4,1.2l1.3,2.7
				c0.7,0.1,1.3-0.1,1.9-0.4c0.3-0.1,0.5-0.3,0.8-0.5c0.2-0.2,0.3-0.9,0.4-1.3c0.1-0.4,0.4-0.5,0.9-0.3l0.7,0.5
				c0.2,0.1,0.5,0.4,0.7,0.4c0.2,0.1,0.4,0,0.5,0l0.5-0.1c0.3-0.1,0.6-0.1,0.9-0.2c1.2-0.3,2.4-0.7,3.5-1.2c0.2-0.1,0.4-0.2,0.6-0.3
				c-0.6-1.4-1.2-2.8-1.8-4.1c-0.3-0.7-0.7-1.4-1-2c-0.3,0.1-0.5,0.3-0.8,0.4C191.8,592.2,190.7,592.9,189.7,593.6z"/>
			<path class="st0" d="M191.8,613.6c0.3-0.1,0.5-0.2,0.8-0.4c0.2-0.2,0.3-0.8,0.4-1.3c0.1-0.4,0.4-0.5,0.8-0.2l0.7,0.5
				c0.2,0.2,0.5,0.4,0.6,0.5c0.2,0.1,0.3,0.1,0.5,0.1l0.4-0.1c0.3,0,0.6-0.1,0.9-0.1c1.2-0.2,2.3-0.5,3.4-0.8
				c0.4-0.1,0.9-0.3,1.3-0.5c-0.2-0.6-0.4-1.2-0.6-1.8c-0.5-1.5-1.1-3-1.6-4.5c-0.5,0.2-1,0.4-1.4,0.6c-1,0.5-2.1,1-3.1,1.7
				c-0.2,0.2-0.5,0.3-0.7,0.5l-0.4,0.3c-0.1,0.1-0.2,0.2-0.3,0.4s-0.1,0.5-0.2,0.8l-0.1,0.8c-0.1,0.5-0.4,0.6-0.8,0.4
				c-0.4-0.2-0.9-0.6-1.2-0.6s-0.6,0.1-0.8,0.2c-0.5,0.2-1,0.5-1.4,1.1l1.1,2.8C190.7,613.9,191.3,613.8,191.8,613.6z"/>
			<path class="st0" d="M189.6,607c0.3-0.1,0.5-0.3,0.8-0.5c0.2-0.2,0.3-0.9,0.4-1.3c0.1-0.4,0.4-0.5,0.8-0.3l0.7,0.5
				c0.2,0.2,0.5,0.4,0.7,0.4c0.2,0.1,0.3,0.1,0.5,0l0.4-0.1c0.3-0.1,0.6-0.1,0.9-0.2c1.2-0.3,2.3-0.6,3.4-1c0.3-0.1,0.7-0.3,1-0.4
				c-0.8-2.1-1.6-4.2-2.5-6.3c-0.4,0.2-0.8,0.4-1.2,0.6c-1,0.5-2,1.2-3,1.9c-0.2,0.2-0.5,0.3-0.7,0.5l-0.4,0.3
				c-0.1,0.1-0.2,0.2-0.3,0.4s-0.1,0.5-0.1,0.8l-0.1,0.9c-0.1,0.5-0.4,0.6-0.8,0.4c-0.4-0.2-0.9-0.6-1.2-0.6s-0.6,0.1-0.9,0.2
				c-0.5,0.2-1,0.6-1.4,1.2l1.2,2.8C188.5,607.4,189.1,607.2,189.6,607z"/>
			<path class="st0" d="M157.7,617.1c-0.1,0.1-0.3,0.2-0.4,0.4c-0.1,0.2,0,0.8,0.1,1.1c0,0.4-0.1,0.4-0.5,0.2l-0.6-0.5
				c-0.2-0.2-0.4-0.4-0.5-0.5c-0.2-0.1-0.2-0.1-0.3-0.1h-0.3c-0.2,0-0.4,0-0.5,0.1c-0.6,0.1-1.2,0.3-1.7,0.5
				c1.2,1.9,2.3,3.7,3.5,5.5c0.3-0.3,0.7-0.6,1-1c0.1-0.1,0.2-0.3,0.3-0.4l0.2-0.2c0.1-0.1,0.1-0.1,0.1-0.3s-0.1-0.5-0.1-0.7
				l-0.1-0.8c0-0.4,0.1-0.5,0.4-0.3c0.3,0.2,0.7,0.6,0.9,0.6s0.3-0.1,0.5-0.1c0.3-0.2,0.5-0.4,0.6-0.9l-1.5-2.6
				C158.3,616.9,158,616.9,157.7,617.1z"/>
			<path class="st0" d="M150,598.5c0.4,0.2,0.8,0.6,1.1,0.6c0.2,0,0.5-0.1,0.7-0.2c0.4-0.2,0.8-0.5,1-1.1l-1.4-2.7
				c-0.6-0.1-1.1,0-1.5,0.2c-0.2,0.1-0.4,0.3-0.6,0.4c-0.2,0.2-0.1,0.8-0.2,1.2c-0.1,0.4-0.3,0.5-0.7,0.2l-0.6-0.5
				c-0.2-0.2-0.5-0.4-0.6-0.4c-0.2-0.1-0.3-0.1-0.4,0l-0.4,0.1c-0.2,0-0.5,0.1-0.7,0.2c-0.9,0.2-1.9,0.5-2.7,0.9
				c-0.2,0.1-0.3,0.2-0.5,0.2c0.8,2.1,1.7,4.2,2.6,6.2c0.3-0.2,0.6-0.3,0.9-0.5c0.8-0.5,1.6-1.1,2.3-1.7c0.2-0.2,0.4-0.3,0.5-0.5
				l0.3-0.3c0.1-0.1,0.2-0.2,0.2-0.4s0-0.5,0-0.8v-0.8C149.4,598.5,149.6,598.3,150,598.5z"/>
			<path class="st0" d="M193.5,620.2c0.3-0.1,0.6-0.2,0.9-0.4c0.3-0.2,0.4-0.8,0.6-1.3c0.2-0.4,0.5-0.5,0.9-0.2s0.9,0.9,1.3,1.1
				c0.2,0.1,0.4,0.1,0.5,0.1h0.5c0.3,0,0.7,0,1-0.1c1.3-0.1,2.6-0.3,3.8-0.6c0.3-0.1,0.6-0.2,1-0.2c-0.1-0.3-0.2-0.6-0.3-1
				c-0.6-1.8-1.1-3.7-1.7-5.5c-0.2,0.1-0.5,0.1-0.7,0.2c-1.2,0.4-2.4,0.9-3.6,1.5c-0.3,0.1-0.6,0.3-0.9,0.4l-0.4,0.2
				c-0.1,0.1-0.3,0.1-0.4,0.3c-0.2,0.4-0.3,1.2-0.5,1.6c-0.2,0.5-0.5,0.6-0.9,0.4c-0.4-0.2-0.9-0.7-1.2-0.7s-0.6,0.1-1,0.1
				c-0.6,0.2-1.2,0.4-1.7,1l0.8,2.9C192.2,620.5,192.9,620.4,193.5,620.2z"/>
			<path class="st0" d="M164.6,630.6l-0.6-0.5c-0.2-0.2-0.4-0.4-0.6-0.4c-0.2-0.1-0.2-0.1-0.3-0.1l-0.3,0.1c-0.2,0-0.4,0.1-0.5,0.1
				c-0.4,0.1-0.9,0.2-1.3,0.4c1.3,1.8,2.6,3.4,3.8,5c0.2-0.2,0.4-0.4,0.5-0.6c0.1-0.1,0.2-0.3,0.3-0.4l0.2-0.2
				c0.1-0.1,0.1-0.1,0.1-0.3s-0.1-0.5-0.1-0.7l-0.2-0.8c-0.1-0.4,0.1-0.6,0.4-0.4c0.3,0.2,0.8,0.6,1,0.6s0.4-0.1,0.5-0.2
				c0.3-0.2,0.5-0.4,0.6-1l-1.6-2.5c-0.5-0.2-0.8-0.1-1.1,0.1c-0.1,0.1-0.3,0.2-0.4,0.4c-0.1,0.2,0.1,0.8,0.1,1.1
				C165.1,630.8,165,630.9,164.6,630.6z"/>
			<path class="st0" d="M149.4,611c0.7-0.5,1.3-1.1,1.9-1.7c0.2-0.2,0.3-0.3,0.4-0.5l0.2-0.3c0.1-0.1,0.2-0.2,0.2-0.4s0-0.5-0.1-0.7
				l-0.1-0.8c0-0.4,0.1-0.6,0.5-0.4c0.4,0.2,0.8,0.5,1.1,0.5c0.2,0,0.4-0.1,0.6-0.2c0.4-0.2,0.7-0.5,0.8-1.1l-1.6-2.6
				c-0.6-0.1-1,0-1.3,0.3c-0.2,0.1-0.3,0.3-0.5,0.4c-0.1,0.2,0,0.8,0,1.2s-0.2,0.5-0.6,0.3l-0.7-0.5c-0.2-0.1-0.5-0.3-0.6-0.4
				c-0.2-0.1-0.3-0.1-0.4,0l-0.3,0.1c-0.2,0.1-0.4,0.1-0.6,0.2c-0.9,0.2-1.7,0.6-2.4,0.9l0,0c1,2,2,4,3.1,6
				C149.1,611.2,149.2,611.1,149.4,611z"/>
			<path class="st0" d="M154.4,616.2c0.1-0.1,0.3-0.3,0.4-0.4l0.2-0.2c0.1-0.1,0.1-0.1,0.2-0.3c0-0.2,0-0.5-0.1-0.7l-0.1-0.8
				c0-0.4,0.1-0.6,0.5-0.3c0.3,0.2,0.8,0.6,1,0.6s0.4-0.1,0.6-0.2c0.3-0.2,0.6-0.4,0.8-1l-1.4-2.7c-0.5-0.2-0.9-0.1-1.3,0.1
				c-0.2,0.1-0.3,0.2-0.5,0.4c-0.1,0.2,0,0.8,0,1.2s-0.2,0.4-0.6,0.2l-0.6-0.5c-0.2-0.2-0.4-0.4-0.6-0.5c-0.2-0.1-0.3-0.1-0.4-0.1
				h-0.3c-0.2,0-0.4,0.1-0.6,0.1c-0.8,0.1-1.6,0.4-2.3,0.6c-0.1,0-0.2,0.1-0.2,0.1c1.1,2,2.2,3.9,3.4,5.8
				C153.2,617.3,153.8,616.8,154.4,616.2z"/>
			<path class="st0" d="M160.2,624.7l-0.7-0.4c-0.2-0.1-0.5-0.3-0.6-0.4c-0.2-0.1-0.3,0-0.4,0l-0.3,0.1c-0.2,0.1-0.4,0.1-0.6,0.2
				c-0.2,0.1-0.4,0.2-0.6,0.3c1.2,1.7,2.3,3.4,3.5,5c0.2-0.2,0.4-0.4,0.5-0.6c0.1-0.2,0.3-0.3,0.4-0.5l0.2-0.3
				c0.1-0.1,0.1-0.2,0.1-0.4s-0.1-0.5-0.2-0.7l-0.2-0.8c-0.1-0.4,0.1-0.6,0.4-0.4c0.4,0.2,0.9,0.5,1.1,0.5c0.2-0.1,0.4-0.1,0.6-0.3
				c0.3-0.2,0.6-0.5,0.7-1.1l-1.8-2.4c-0.6-0.1-0.9,0.1-1.3,0.3c-0.2,0.1-0.3,0.3-0.4,0.5c-0.1,0.2,0.1,0.8,0.1,1.2
				C160.8,624.9,160.6,624.9,160.2,624.7z"/>
			<path class="st0" d="M183.1,662.1c-2.4,0.2-4.7,0.4-7.1,0.6c0.3,0.7,0.6,1.3,1,2c0.2,0.5,0.5,0.9,0.7,1.4
				c0.8-0.1,1.7-0.2,2.5-0.4c0.3-0.1,0.6-0.1,0.9-0.2l0.4-0.1c0.1,0,0.3-0.1,0.4-0.2c0.1-0.1,0.3-0.4,0.4-0.7l0.4-0.7
				c0.3-0.4,0.6-0.4,0.9-0.1c0.3,0.3,0.6,0.9,0.9,1c0.3,0.1,0.6,0.1,0.9,0.1c0.6,0,1.2-0.1,1.8-0.5v-2.6c-1.2,0.1-2.4,0.2-3.6,0.3
				C183.5,662.2,183.3,662.2,183.1,662.1z"/>
			<path class="st0" d="M206.8,663.7c0.3-0.2,0.5-0.4,0.7-0.7s0.1-0.9,0.2-1.4c0.1-0.5,0.4-0.6,0.8-0.5c0.5,0.1,1.2,0.5,1.6,0.5
				c0.2,0,0.4,0,0.5-0.1l0.5-0.2c0.3-0.1,0.6-0.3,0.9-0.4c1.1-0.6,2.2-1.2,3.3-1.9l0,0c-2.7,0.3-5.3,0.6-8,0.8
				c-0.1,0.3-0.3,0.5-0.7,0.5c-0.4-0.1-0.8-0.2-1.1-0.3c-0.1,0-0.2,0-0.3,0c-0.3,0.1-0.6,0.3-0.9,0.5c-0.5,0.4-1,0.9-1.3,1.6
				l1.8,2.4C205.7,664.4,206.3,664,206.8,663.7z"/>
			<path class="st0" d="M200.8,689.9c0.1-0.7,0.2-1.4,0.2-2.1c0-0.2,0-0.4,0-0.6v-0.3c0-0.1,0-0.2-0.1-0.3s-0.4-0.3-0.6-0.5
				l-0.6-0.5c-0.3-0.3-0.3-0.5,0.1-0.6c0.4-0.1,1-0.1,1.1-0.3s0.2-0.3,0.3-0.5c0.1-0.4,0.1-0.8-0.2-1.3l-2.9-0.8
				c-0.5,0.3-0.7,0.6-0.8,1c0,0.2-0.1,0.4,0,0.6c0.1,0.2,0.6,0.6,0.8,0.8c0.3,0.3,0.2,0.5-0.2,0.5l-0.8,0.1c-0.3,0-0.6,0-0.7,0.1
				c-0.2,0-0.2,0.1-0.3,0.2l-0.2,0.2c-0.1,0.2-0.2,0.3-0.3,0.5c-0.1,0.1-0.1,0.2-0.2,0.3c0,0,0,0,0.1,0.1
				C197,687.8,198.9,689,200.8,689.9z"/>
			<path class="st0" d="M207.9,691.4c0-0.2-0.1-0.4-0.2-0.5l-0.1-0.3c0-0.1,0-0.2-0.2-0.3c-0.1-0.1-0.4-0.2-0.7-0.3l-0.7-0.3
				c-0.4-0.2-0.4-0.4-0.1-0.6c0.3-0.2,0.9-0.4,1-0.6c0.1-0.2,0.1-0.4,0.1-0.6c0-0.4-0.1-0.8-0.5-1.2l-3-0.1
				c-0.4,0.4-0.5,0.8-0.5,1.1c0,0.2,0,0.4,0.1,0.6c0.1,0.2,0.7,0.4,1,0.6c0.3,0.2,0.3,0.4-0.1,0.6l-0.7,0.3
				c-0.2,0.1-0.5,0.2-0.7,0.3s-0.2,0.2-0.2,0.3l-0.1,0.2c1.9,0.9,3.9,1.7,5.8,2.3L207.9,691.4z"/>
			<path class="st0" d="M219.1,693.1c-0.5-0.5-1.1-1.1-1.7-1.5l-1.1-0.8c-0.1-0.1-0.2-0.1-0.2-0.2l-0.3-0.2
				c-0.1-0.1-0.2-0.2-0.4-0.2s-0.5,0.1-0.8,0.1l-0.8,0.2c-0.5,0-0.7-0.1-0.6-0.5c0.1-0.4,0.4-1,0.3-1.3c-0.1-0.2-0.2-0.5-0.4-0.7
				c-0.3-0.4-0.7-0.7-1.4-0.9l-2.3,1.9c0,0.7,0.3,1.1,0.6,1.5c0.2,0.2,0.4,0.4,0.6,0.5c0.3,0.1,0.9,0,1.3-0.1c0.2,0,0.4,0.1,0.4,0.2
				l-0.2,1l-0.1,0.2c-0.1,0.3-0.2,0.5-0.3,0.7c0,0.2,0,0.3,0.1,0.4l0.1,0.3c0.9,0.2,1.8,0.4,2.7,0.5c1.2,0.1,2.3,0.2,3.5,0.3h2.3
				C220,694.1,219.6,693.6,219.1,693.1z"/>
			<g>
				<path class="st0" d="M223,669.7c-1.3-2.1-2.6-4.2-4.1-6.2c-0.8-1-1.5-2-2.3-3l-0.4-0.5c-0.2,0.1-0.4,0.2-0.5,0.3
					c-0.9,0.5-1.7,1.1-2.5,1.8c-0.2,0.2-0.4,0.3-0.6,0.5l-0.3,0.3c-0.1,0.1-0.2,0.2-0.2,0.4c-0.1,0.2,0,0.5,0,0.8v0.8
					c-0.1,0.5-0.3,0.6-0.6,0.4c-0.4-0.2-0.8-0.6-1.1-0.6s-0.5,0.1-0.7,0.2c-0.4,0.2-0.9,0.5-1.1,1.1l1.3,2.7c0.6,0.1,1.1,0,1.6-0.2
					c0.2-0.1,0.4-0.3,0.6-0.4c0.2-0.2,0.1-0.8,0.2-1.2c0.1-0.4,0.3-0.5,0.7-0.3l0.7,0.5c0.2,0.2,0.5,0.4,0.6,0.4
					c0.2,0.1,0.3,0.1,0.4,0l0.4-0.1c0.3,0,0.5-0.1,0.8-0.2c1-0.2,2-0.5,2.9-0.9c0.3-0.1,0.7-0.3,1-0.5c0.2,0.4,0.5,0.8,0.7,1.1
					c-0.6,0.2-1.2,0.5-1.8,0.7c-0.3,0.1-0.5,0.2-0.8,0.4l-0.4,0.2c-0.1,0.1-0.3,0.1-0.4,0.3c-0.1,0.2-0.2,0.5-0.3,0.7l-0.3,0.8
					c-0.2,0.4-0.5,0.5-0.8,0.3c-0.3-0.3-0.7-0.8-1-0.8s-0.6,0-0.8,0.1c-0.5,0.1-1.1,0.3-1.5,0.8l0.6,3c0.6,0.3,1.2,0.3,1.7,0.1
					c0.3-0.1,0.5-0.2,0.8-0.3c0.2-0.2,0.4-0.8,0.6-1.2c0.2-0.4,0.5-0.4,0.8-0.1l0.6,0.6c0.2,0.2,0.4,0.5,0.5,0.6
					c0.2,0.1,0.3,0.1,0.5,0.1h0.4c0.3,0,0.6,0,0.9,0c1.1,0,2.3-0.1,3.4-0.2c0,0,0.9-0.2,1.4-0.3c0.1,0,0.2,0,0.3-0.1
					C224.1,671.7,223.6,670.7,223,669.7z"/>
				<g>
					<path class="st0" d="M224.9,673.1c-0.1,0-0.2,0-0.3,0c-0.7,0.1-2.2,0.3-2.6,0.4c-0.3,0.1-0.6,0.1-0.9,0.2l-0.5,0.1
						c-0.2,0-0.3,0.1-0.5,0.2c-0.2,0.1-0.3,0.4-0.5,0.7l-0.5,0.7c-0.3,0.4-0.6,0.4-0.9,0.1c-0.3-0.3-0.6-0.9-0.9-1
						c-0.3-0.1-0.6-0.1-0.9-0.1c-0.6,0-1.2,0.1-1.8,0.5v3c0.6,0.4,1.2,0.5,1.8,0.5c0.3,0,0.6,0,0.9-0.1c0.3-0.1,0.6-0.7,0.9-1
						c0.3-0.3,0.6-0.3,0.9,0.1l0.4,0.7c0.1,0.2,0.3,0.5,0.4,0.7c0.1,0.2,0.3,0.2,0.5,0.2l0.5,0.1c0.3,0.1,0.6,0.1,0.9,0.2
						c0.9,0.2,3.4,0.4,5.4,0.5c0.1,0,0.3,0,0.4,0C227,677.5,226,675.3,224.9,673.1z"/>
					<path class="st0" d="M228.8,683c-0.2-0.6-0.3-1.3-0.5-1.9l-4.3-0.7c-0.3,0-0.7-0.1-1-0.1h-0.5c-0.2,0-0.3,0-0.6,0.1
						c-0.4,0.2-0.9,0.8-1.3,1.1c-0.4,0.3-0.8,0.2-1-0.2s-0.4-1.1-0.7-1.3s-0.6-0.3-1-0.4c-0.7-0.2-1.3-0.3-2.1,0l-0.8,2.9
						c0.6,0.6,1.2,0.8,1.9,1c0.3,0.1,0.7,0.1,1,0.1c0.4,0,0.8-0.5,1.3-0.7c0.4-0.2,0.7-0.1,1,0.4c0.2,0.5,0.4,1.3,0.6,1.6
						c0.1,0.2,0.3,0.3,0.4,0.3l0.5,0.2c0.3,0.2,0.6,0.3,0.9,0.4c1.2,0.5,2.3,1,3.5,1.4l1,0.3c0.8,0.2,1.7,0.4,2.6,0.6
						C229.6,686.6,229.3,684.9,228.8,683z"/>
				</g>
			</g>
			<path class="st0" d="M226.3,689.5c0,0-0.1,0-0.1-0.1l-1-0.5c-0.8-0.4-1.6-0.8-2.4-1.1c-0.3-0.1-0.6-0.3-0.9-0.4l-0.5-0.2
				c-0.2-0.1-0.3-0.1-0.5-0.1c-0.4,0.1-1.1,0.5-1.6,0.7c-0.5,0.1-0.8,0-0.9-0.4c-0.1-0.5,0-1.1-0.3-1.4c-0.2-0.2-0.5-0.5-0.8-0.6
				c-0.6-0.4-1.2-0.6-1.9-0.6l-1.6,2.5c0.3,0.7,0.8,1.1,1.4,1.5c0.3,0.2,0.6,0.3,0.9,0.4c0.3,0.1,0.9-0.2,1.4-0.3s0.7,0.1,0.8,0.6
				c0,0.3,0,0.7,0,1v0.6l0.2,0.4c0.1,0.1,0.1,0.1,0.2,0.2l0.4,0.4c0.2,0.2,0.5,0.5,0.7,0.7c0.8,0.7,1.6,1.4,2.5,2.1
				c1,0,1.9-0.2,2.7-0.4l3.1-1.6c0.2-0.2,0.4-0.4,0.6-0.7c0.1-0.2,0.3-0.5,0.4-0.7C228.2,690.6,227.3,690,226.3,689.5z"/>
			<path class="st0" d="M196.6,632.4c0.4-0.1,0.7-0.7,1.1-1c0.4-0.3,0.7-0.3,1.1,0.1c0.4,0.4,0.7,1.1,1.1,1.4
				c0.2,0.2,0.4,0.2,0.6,0.2l0.6,0.1c0.4,0.1,0.7,0.1,1.1,0.2c1.5,0.2,3,0.4,4.4,0.5c0.8,0,1.5,0,2.3,0c-0.8-2.2-1.6-4.5-2.3-6.7
				c-1.5,0.1-2.9,0.2-4.4,0.5c-0.4,0.1-0.7,0.1-1.1,0.2l-0.6,0.1c-0.2,0-0.4,0.1-0.6,0.2c-0.4,0.3-0.7,1-1.1,1.4
				c-0.4,0.4-0.7,0.4-1.1,0.1c-0.4-0.3-0.7-0.9-1.1-1c-0.4-0.1-0.7-0.1-1.1-0.1c-0.7,0-1.5,0.1-2.2,0.5v3c0.7,0.4,1.5,0.5,2.2,0.5
				C195.8,632.6,196.2,632.5,196.6,632.4z"/>
			<path class="st0" d="M194.8,626.9c0.3-0.1,0.6-0.1,1-0.3c0.3-0.1,0.6-0.8,0.8-1.2c0.3-0.4,0.6-0.4,1-0.1c0.4,0.3,0.8,1,1.2,1.2
				c0.2,0.1,0.4,0.1,0.5,0.1h0.5c0.3,0,0.7,0,1,0c1.3,0,2.7,0,4-0.1c0.5-0.1,1-0.1,1.5-0.2c0-0.1-0.1-0.2-0.1-0.3
				c-0.7-2.1-1.2-4.2-1.8-6.2c-0.2,0-0.4,0.1-0.6,0.1c-1.3,0.3-2.6,0.6-3.9,1.1c-0.3,0.1-0.6,0.2-1,0.3l-0.5,0.2
				c-0.2,0.1-0.3,0.1-0.5,0.3c-0.3,0.3-0.5,1.1-0.8,1.5s-0.6,0.5-1,0.2s-0.8-0.8-1.1-0.9c-0.3,0-0.7,0-1,0c-0.7,0.1-1.3,0.3-1.9,0.8
				l0.5,3C193.5,627,194.1,627,194.8,626.9z"/>
			<path class="st0" d="M183.5,581.3l-0.4,0.4c-0.1,0.1-0.3,0.2-0.3,0.5c-0.1,0.4,0,1.2-0.1,1.7s-0.4,0.7-0.8,0.6
				c-0.5-0.1-1.1-0.4-1.4-0.3c-0.3,0.1-0.6,0.3-0.9,0.4c-0.6,0.4-1.1,0.8-1.5,1.5l1.6,2.6c0.8,0,1.4-0.3,2-0.7
				c0.3-0.2,0.6-0.4,0.8-0.7s0.2-0.9,0.3-1.4s0.4-0.6,0.9-0.5c0.5,0.2,1.2,0.6,1.6,0.6c0.2,0,0.4,0,0.6-0.1l0.5-0.2
				c0.3-0.1,0.7-0.3,1-0.4c0.9-0.4,1.8-0.8,2.7-1.3c-1-1.9-2.1-3.8-3.3-5.6c-0.8,0.6-1.7,1.3-2.5,2
				C184,580.8,183.8,581.1,183.5,581.3z"/>
			<path class="st0" d="M187.3,679.3c0.2-0.2,0.5-0.4,0.7-0.6c0.2-0.1,0.3-0.3,0.4-0.5l0.2-0.2c0.1-0.1,0.2-0.1,0.2-0.3
				s0-0.5-0.1-0.7l-0.1-0.8c0-0.4,0.1-0.6,0.5-0.4c0.3,0.2,0.8,0.6,1,0.6s0.4-0.1,0.6-0.2c0.4-0.2,0.7-0.5,0.8-1l-1.5-2.6
				c-0.6-0.2-1,0-1.3,0.2c-0.2,0.1-0.3,0.2-0.5,0.4c-0.1,0.2,0,0.8,0,1.2s-0.2,0.5-0.6,0.2l-0.6-0.5c-0.2-0.2-0.4-0.4-0.6-0.4
				c-0.2-0.1-0.3-0.1-0.4,0l-0.3,0.1c-0.2,0-0.4,0.1-0.6,0.1c-0.7,0.2-1.4,0.4-2,0.6c0.6,0.8,1.2,1.6,1.8,2.4
				C185.8,677.6,186.5,678.5,187.3,679.3z"/>
			<path class="st0" d="M194.4,683.7c0.1-0.1,0.2-0.3,0.3-0.4l0.1-0.2c0-0.1,0.1-0.1,0.1-0.3c0-0.1-0.1-0.4-0.2-0.7l-0.2-0.7
				c-0.1-0.4,0-0.5,0.3-0.3s0.8,0.6,1,0.6s0.3-0.1,0.5-0.2c0.3-0.2,0.5-0.4,0.5-0.9l-1.6-2.5c-0.5-0.2-0.8-0.1-1.1,0.1
				c-0.1,0.1-0.2,0.2-0.3,0.4s0.1,0.7,0.2,1.1c0.1,0.4-0.1,0.4-0.4,0.2l-0.6-0.5c-0.2-0.2-0.4-0.4-0.6-0.4c-0.2-0.1-0.2-0.1-0.3-0.1
				h-0.3c-0.2,0-0.3,0.1-0.5,0.1c-0.7,0.1-1.3,0.3-1.8,0.6c-0.4,0.2-0.8,0.5-1.2,0.8c0.5,0.6,1.1,1.1,1.6,1.7c1.1,1,2.2,2,3.4,2.9
				C193.7,684.6,194.1,684.2,194.4,683.7z"/>
			<path class="st0" d="M184.5,671.9l0.3-0.2c0.1-0.1,0.2-0.1,0.3-0.3c0.1-0.1,0.1-0.5,0.2-0.7l0.2-0.8c0.1-0.4,0.3-0.5,0.7-0.2
				c0.3,0.3,0.7,0.8,0.9,0.8s0.5,0,0.7,0c0.5-0.1,0.9-0.3,1.2-0.8l-0.7-2.9c-0.5-0.3-1-0.3-1.5-0.2c-0.2,0.1-0.4,0.2-0.6,0.3
				c-0.2,0.2-0.3,0.8-0.4,1.2c-0.1,0.4-0.4,0.4-0.7,0.1l-0.5-0.6c-0.2-0.2-0.4-0.5-0.5-0.6c-0.2-0.1-0.3-0.1-0.4-0.1h-0.4
				c-0.2,0-0.5,0-0.7,0c-1,0-1.9,0-2.8,0.2c-0.5,0.1-1,0.2-1.4,0.3c0.8,1.3,1.6,2.6,2.4,3.8c0.5,0.7,1,1.4,1.5,2.1
				c0.6-0.2,1.1-0.5,1.7-0.8C184.1,672.1,184.3,672,184.5,671.9z"/>
			<g>
				<path class="st0" d="M150.5,569.1c-0.3-0.2-1-0.1-1.5-0.1s-0.7-0.3-0.7-0.9c0-0.6,0.3-1.3,0.2-1.8c0-0.2-0.1-0.4-0.2-0.6
					l-0.3-0.5c-0.2-0.3-0.4-0.6-0.7-1c-0.9-1.3-1.9-2.5-2.9-3.6s-2.1-2.2-3.4-3.2l-1.4,1.4c-1.4,1.9-2,4.4-2,4.4
					c0.6,0.7,1.3,1.4,2,2c1.1,1,2.3,2,3.6,2.9c0.3,0.2,0.6,0.5,0.9,0.7l0.5,0.3c0.2,0.1,0.3,0.2,0.6,0.3c0.5,0.1,1.3-0.2,1.8-0.2
					s0.8,0.2,0.9,0.8c0,0.5-0.1,1.2,0.1,1.5c0.2,0.3,0.5,0.6,0.7,0.9c0.5,0.5,1.1,1,2,1.3l2.2-2.1c-0.2-0.8-0.7-1.4-1.3-2
					C151.1,569.6,150.8,569.4,150.5,569.1z"/>
				<path class="st0" d="M142.3,577.5h0.5c0.2,0,0.3,0,0.5-0.1c0.4-0.2,0.9-0.8,1.3-1.1c0.4-0.3,0.8-0.2,1,0.2s0.4,1.1,0.7,1.3
					s0.6,0.3,0.9,0.4c0.6,0.2,1.3,0.3,2.1,0l0.8-2.9c-0.5-0.6-1.2-0.8-1.8-1c-0.3-0.1-0.7-0.1-1-0.1s-0.8,0.5-1.2,0.7
					s-0.7,0.1-0.9-0.3c-0.2-0.5-0.4-1.3-0.6-1.6c-0.1-0.2-0.3-0.3-0.4-0.3l-0.5-0.2c-0.3-0.2-0.6-0.3-0.9-0.4
					c-1.2-0.6-2.5-1.1-3.8-1.5c-0.4-0.1-0.9-0.3-1.4-0.4c-0.2,0-0.4,0-0.6-0.1c-0.1,8.8,1.8,17.7,5,26.2c0.1,0,0.2-0.1,0.3-0.1
					c0.9-0.4,1.8-0.8,2.6-1.3c0.2-0.1,0.4-0.3,0.6-0.4l0.3-0.2c0.1-0.1,0.2-0.1,0.3-0.3s0.1-0.5,0.1-0.7l0.1-0.8
					c0.1-0.4,0.3-0.6,0.7-0.3c0.3,0.2,0.7,0.7,1,0.8c0.3,0,0.5,0,0.7-0.1c0.5-0.1,0.9-0.4,1.2-0.9l-0.9-2.9c-0.6-0.2-1.1-0.2-1.5,0
					c-0.2,0.1-0.4,0.2-0.6,0.3c-0.2,0.2-0.2,0.8-0.4,1.2c-0.1,0.4-0.4,0.4-0.7,0.1l-0.6-0.6c-0.2-0.2-0.4-0.4-0.5-0.5
					c-0.2-0.1-0.3-0.1-0.4-0.1h-0.4c-0.3,0-0.5,0-0.7,0c-1,0.1-2,0.2-2.9,0.4c-0.1,0-0.2,0.1-0.3,0.1c-0.2-0.8-0.3-1.6-0.5-2.4
					c0.1,0,0.2,0,0.2,0c1-0.1,2.1-0.4,3.1-0.7c0.3-0.1,0.5-0.2,0.8-0.2l0.4-0.1c0.1,0,0.3-0.1,0.4-0.3c0.1-0.1,0.2-0.4,0.3-0.7
					l0.3-0.8c0.2-0.4,0.5-0.5,0.8-0.1c0.3,0.3,0.6,0.9,0.8,1c0.3,0.1,0.5,0.1,0.8,0.1c0.5,0,1-0.2,1.5-0.6l-0.2-3
					c-0.5-0.4-1.1-0.4-1.6-0.4c-0.3,0-0.5,0.1-0.8,0.2c-0.3,0.1-0.5,0.7-0.7,1.1c-0.2,0.4-0.5,0.3-0.8,0l-0.4-0.7
					c-0.1-0.2-0.3-0.5-0.4-0.6c-0.1-0.2-0.3-0.2-0.4-0.2l-0.4-0.1c-0.3-0.1-0.5-0.1-0.8-0.1c-1.1-0.2-2.1-0.3-3.1-0.3
					c-0.2,0-0.5,0-0.7,0c-0.1-1.1-0.2-2.2-0.3-3.3c0-0.1,0-0.2,0-0.2c1,0.2,2.1,0.3,3.2,0.4C141.6,577.4,141.9,577.4,142.3,577.5z"
					/>
				<path class="st0" d="M155.1,566.4c-0.2-0.4-0.9-0.6-1.4-0.9c-0.5-0.3-0.6-0.7-0.3-1.3c0.2-0.5,0.8-1.2,0.9-1.7
					c0.1-0.3,0-0.5,0-0.7l-0.1-0.6c-0.1-0.4-0.2-0.9-0.2-1.3c-0.3-1.7-0.7-3.4-1.2-5.1c-2.7-0.2-5,0.1-6.9,0.6
					c0.2,0.5,0.4,1.1,0.6,1.6c0.6,1.6,1.4,3.2,2.1,4.8c0.2,0.4,0.4,0.8,0.6,1.2l0.3,0.6c0.1,0.2,0.2,0.4,0.4,0.5
					c0.4,0.3,1.2,0.5,1.8,0.8c0.5,0.3,0.7,0.7,0.5,1.2s-0.6,1.1-0.6,1.6c0.1,0.4,0.2,0.9,0.3,1.3c0.3,0.8,0.6,1.6,1.3,2.3l2.9-1
					c0.1-1-0.1-1.8-0.4-2.6C155.5,567.2,155.3,566.8,155.1,566.4z"/>
				<path class="st0" d="M176.8,566c0.3,0.3,0.5,0.6,0.8,0.9c-0.1,0.1-0.2,0.2-0.4,0.4c-0.7,0.8-1.4,1.7-2,2.6
					c-0.2,0.2-0.3,0.5-0.5,0.7l-0.2,0.4c-0.1,0.1-0.2,0.2-0.1,0.4c0,0.2,0.1,0.5,0.2,0.8l0.2,0.8c0.1,0.5-0.1,0.7-0.5,0.6
					c-0.4-0.1-1-0.3-1.3-0.2c-0.2,0.1-0.5,0.3-0.7,0.5c-0.4,0.4-0.7,0.8-0.8,1.5l2.1,2.2c0.7-0.1,1.1-0.4,1.5-0.8
					c0.2-0.2,0.4-0.4,0.5-0.7s-0.1-0.9-0.1-1.3c0-0.4,0.2-0.6,0.7-0.5l0.8,0.2c0.3,0.1,0.6,0.2,0.8,0.2s0.3,0,0.5-0.1l0.4-0.2
					c0.2-0.1,0.5-0.3,0.7-0.4c0.9-0.6,1.8-1.2,2.7-1.9c0.1,0.1,0.1,0.2,0.2,0.3c0,0,0,0-0.1,0.1c-0.9,0.8-1.8,1.7-2.6,2.6
					c-0.2,0.2-0.4,0.5-0.6,0.7l-0.3,0.4c-0.1,0.1-0.2,0.2-0.2,0.5c0,0.2,0,0.5,0.1,0.8l0.1,0.9c0,0.5-0.2,0.7-0.7,0.6
					c-0.4-0.1-1-0.3-1.3-0.2s-0.5,0.3-0.8,0.5c-0.5,0.4-0.9,0.8-1.1,1.5l1.9,2.4c0.7-0.1,1.3-0.4,1.7-0.7c0.2-0.2,0.4-0.4,0.6-0.7
					c0.2-0.3,0.1-0.9,0.1-1.4s0.3-0.6,0.8-0.5l0.8,0.3c0.3,0.1,0.6,0.2,0.8,0.2s0.4,0,0.5-0.1l0.4-0.2c0.3-0.1,0.6-0.3,0.8-0.4
					c1.1-0.6,2.2-1.2,3.2-1.9c0,0,0,0,0.1,0c-1.6-2.4-3.2-4.8-5-7C179.9,569.3,178.5,567.8,176.8,566z"/>
				<path class="st0" d="M171.6,561.8c-0.6,1-1.1,2.1-1.5,3.2c-0.1,0.3-0.2,0.6-0.3,0.9l-0.1,0.4c-0.1,0.1-0.1,0.3,0,0.5
					c0,0.2,0.2,0.5,0.3,0.7l0.4,0.8c0.2,0.5,0.1,0.7-0.4,0.8c-0.4,0.1-1.1,0-1.3,0.2s-0.4,0.4-0.6,0.7c-0.3,0.5-0.6,1-0.5,1.8
					l2.6,1.6c0.7-0.3,1.1-0.7,1.4-1.2c0.2-0.3,0.3-0.5,0.4-0.8c0.1-0.3-0.3-0.9-0.4-1.3c-0.1-0.4,0.1-0.7,0.5-0.7h0.9
					c0.3,0,0.6,0,0.8,0s0.3-0.1,0.4-0.3l0.3-0.3c0.2-0.2,0.4-0.4,0.6-0.6c0.7-0.7,1.2-1.4,1.8-2.1c-1.7-1.7-3.4-3.2-5.1-4.4
					C171.7,561.7,171.6,561.8,171.6,561.8z"/>
				<path class="st0" d="M165.8,566.5c0.5-0.2,1.3-0.3,1.6-0.5c0.2-0.1,0.3-0.2,0.4-0.4l0.2-0.4c0.2-0.3,0.3-0.6,0.5-0.8
					c0.6-1.1,1.2-2.3,1.6-3.5c0-0.1,0.1-0.2,0.1-0.3c-2.1-1.4-4.1-2.5-6-3.2c-0.2,0.5-0.3,1-0.5,1.5c-0.3,1.2-0.6,2.5-0.7,3.8
					c0,0.3-0.1,0.6-0.1,1v0.5c0,0.2,0,0.3,0.1,0.5c0.2,0.4,0.8,0.9,1,1.3c0.3,0.4,0.2,0.7-0.2,0.9s-1.1,0.3-1.3,0.6
					s-0.3,0.6-0.4,0.9c-0.2,0.6-0.3,1.2-0.1,2l2.9,0.9c0.6-0.5,0.9-1.1,1.1-1.7c0.1-0.3,0.2-0.6,0.2-0.9c0-0.3-0.5-0.8-0.7-1.2
					C165.2,567,165.3,566.7,165.8,566.5z"/>
				<path class="st0" d="M154.4,555c0,0.6,0.1,1.2,0.1,1.8c0.2,1.5,0.4,2.9,0.8,4.4c0.1,0.4,0.2,0.7,0.3,1.1l0.1,0.5
					c0,0.2,0.1,0.4,0.3,0.5c0.3,0.3,1.1,0.7,1.5,1s0.5,0.7,0.2,1.1c-0.3,0.4-0.9,0.8-0.9,1.2s-0.1,0.7,0,1.1
					c0.1,0.7,0.2,1.5,0.7,2.2l3-0.2c0.4-0.8,0.4-1.5,0.3-2.2c0-0.4-0.1-0.7-0.2-1.1c-0.1-0.4-0.7-0.7-1.1-1c-0.4-0.3-0.3-0.7,0-1.1
					c0.4-0.4,1.1-0.8,1.3-1.2c0.1-0.2,0.2-0.4,0.2-0.6l0.1-0.6c0-0.4,0.1-0.7,0.1-1.1c0.1-1.5,0.2-3,0.2-4.4l0,0
					C158.7,555.5,156.4,555.2,154.4,555z"/>
			</g>
		</g>
		<path class="st0" d="M178.1,656.9l35.6-3c0.9-0.1,1.1-1.3,0.2-1.6c-6.9-2.4-23.1-6.5-36.4,3.1C176.8,655.9,177.2,657,178.1,656.9z
			"/>
	</g>
</g>
</svg>
