<?xml version="1.0" encoding="utf-8"?>
<!-- Generator: Adobe Illustrator 24.0.1, SVG Export Plug-In . SVG Version: 6.00 Build 0)  -->
<svg version="1.1" id="Layer_1" xmlns="http://www.w3.org/2000/svg" xmlns:xlink="http://www.w3.org/1999/xlink" x="0px" y="0px"
	 viewBox="0 0 800 800" style="enable-background:new 0 0 800 800;" xml:space="preserve">
<style type="text/css">
	.st0{fill:#FFFFFF;}
</style>
<g>
	<path class="st0" d="M613.8,468.3c-6.4-9.3-14.7,2-13-2.2c8.9-22.6,3.2-39.5,3.2-39.5c0.7-9.3-3.1-15-8.9-18.1
		c-0.3-0.3-0.6-0.5-1-0.7c0,0-6-3.2-15.7-2.5c-15.5,1.1-21.3,8.2-21.5,8.6c-7.9,10.3-6,15.5-6,15.5S533.7,444,528,463.7
		c-7,24.3,15.3,34.6,15.3,34.6s6.7-0.8,9.5,1.6c15.3,12.9,20.9,3.2,26.6,2c9.2,2.2,26.1,2.2,26.1,2.2s6.7-7.7,8.3-16.6
		C615,480.9,618.5,475.1,613.8,468.3z"/>
	<g>
		<path d="M569.1,434.8c-0.1-0.1-0.2-0.1-0.3,0c-3.4,4.1-6.1,8.7-8.7,13.3c-1.3,2.3-2.7,4.6-4,6.9c-0.6,1.2-1.2,2.3-1.7,3.6
			c-0.5,1.2-1.2,2.3-0.3,4.2c0.4,0.8,1.3,1.2,2.2,1l0,0c1.9-0.6,2.2-1.9,2.8-3.1c0.5-1.2,1-2.4,1.4-3.7l2.6-7.4
			c0.9-2.5,1.9-4.9,2.9-7.3s2-4.9,3.2-7.2C569.2,435,569.2,434.9,569.1,434.8z"/>
	</g>
	<g>
		<path d="M559.6,436.4c-0.1-0.1-0.2-0.1-0.3,0c-1.9,1.6-3.8,3.4-5.5,5.3c-1.6,1.9-3.2,3.9-4.7,6s-3,4.1-4.3,6.3
			c-0.7,1.1-1.3,2.2-1.8,3.3c-0.5,1.2-1.3,2.2-0.4,4c0.4,0.8,1.3,1.2,2.1,1h0.1c1.9-0.5,2.2-1.7,2.7-2.8c0.5-1.1,1-2.2,1.5-3.3
			c0.9-2.3,1.8-4.6,2.9-6.8c2.2-4.4,4.6-8.7,7.6-12.7C559.7,436.6,559.7,436.5,559.6,436.4z"/>
	</g>
	<g>
		<path d="M575,438.9c-2.2,4-3.9,8.2-5.4,12.5c-0.8,2.1-1.6,4.3-2.3,6.4c-0.4,1.1-0.7,2.2-0.9,3.3c-0.2,1.1-0.7,2.2,0.7,3.6
			c0.6,0.6,1.5,0.8,2.3,0.5h0.1c1.7-0.8,1.7-1.9,1.9-3s0.4-2.2,0.5-3.3c0.3-2.2,0.5-4.4,0.8-6.6c0.8-4.4,1.5-8.8,2.6-13.2
			c0-0.1,0-0.2-0.1-0.2C575.2,438.7,575,438.8,575,438.9z"/>
	</g>
	<path d="M574.1,400.4c-18.8,2.9-23.9,12.7-25.3,16c-0.9,1.9-1.3,4-1.4,6c-0.1,2.1,0,4,0.8,6.3c0.1,0.2,0.2,0.4,0.3,0.6
		c-3.1,2.2-5.9,4.8-8.5,7.6c-2.9,3.2-5.7,6.6-8.1,10.3c-2.5,4.2-3.9,8.1-5.2,12.4c-1.2,4.2-2,8.6-2.3,13.1s-0.1,9.2,1.7,14
		c0.9,2.4,2.2,4.7,4,6.6c0.9,1,2,1.9,3.1,2.6c1,0.7,2,1.3,3.1,1.8c3.2,1.5,6.5,2.7,10.2,2.9c0.9,1.3,2,2.5,3.2,3.5
		c4.5,4,10.3,6,16.1,6.1c4.3,0.2,9.1-1.3,12-4.6c4.3,1.4,8.5,2.2,12.9,2.5c4.7,0.2,9.3,0.3,14.6-1.4c1.3-0.4,2.8-1.1,4.1-2.1
		s2.3-2.1,3.1-3.1c1.6-2.2,2.8-4.4,3.7-6.6c1.8-4.5,3-9,3.5-13.7c0.3-2.4,0.3-4.8,0.1-7.3c-0.3-2.5-0.6-5.1-2.5-8
		c-1.6-2.2-3.7-4.2-6.5-5.3c-0.5-0.2-0.9-0.3-1.4-0.4c1.4-3.3,2.4-6.9,2.8-10.6c0.1-1.7,0.3-3.4,0.2-5.1v-2.6l-0.3-2.5
		c-0.4-3.3-1.5-7.4-3.9-10.4c-0.6-0.7-1.2-1.4-1.8-2c0.4-0.3,0.7-0.7,0.9-1.3c1.6-4.1,1-8.5-0.5-12.2c-1.6-3.5-4.1-6.4-7.1-8.6
		C599.7,404.9,590.7,397.9,574.1,400.4z M611.7,480.3c-0.6,3.9-1.7,7.8-3.3,11.3c-0.8,1.7-1.7,3.4-2.8,4.6c-0.5,0.6-1,1.1-1.5,1.4
		c-0.4,0.3-0.9,0.5-1.7,0.7c-3.1,0.8-7.3,0.9-11.2,0.6c-4-0.3-8-0.9-11.6-2c-1.8-0.5-3.6-1.2-5-2c-0.7-0.4-1.3-0.8-1.6-1.2
		c-0.2-0.2-0.3-0.3-0.4-0.4c-0.1-0.2-0.4-0.6-0.6-1c-1.6-3.2-2.9-7.4-5-11.6c0-0.1-0.1-0.1-0.2-0.2c-0.2-0.1-0.4,0-0.5,0.2
		c-1.9,4.4-2.6,9-1.6,14c0.1,0.7,0.3,1.2,0.6,2c0.4,0.9,0.9,1.6,1.4,2.3c1,1.2,2,2.1,3.1,2.8c-1.2,0-2.4-0.1-3.6-0.2
		c-4-0.5-7.9-2-11-4.2c-3.2-2.2-5.1-5.4-6-9.8c-0.9-4.3-1.1-9-1.3-14.1c0-0.1-0.1-0.2-0.1-0.3c-0.1-0.1-0.4-0.1-0.5,0.1
		c-3.2,4.2-4.6,9.5-4.5,15c0.1,1.3,0.2,2.6,0.4,3.9c-1.1-0.5-2.1-1-3.1-1.6c-0.8-0.4-1.6-0.9-2.3-1.4c-0.6-0.4-1.2-0.9-1.7-1.5
		c-1-1.1-1.8-2.5-2.4-4c-2.4-6.4-1.4-14.7,0.6-22.3c1-3.7,2.2-7.8,4-10.8c1.9-3.4,4.1-6.8,6.6-10c5.1-6.3,10.4-12.2,17.4-16.8
		c0.1-0.1,0.2-0.2,0.2-0.3c0-0.2-0.2-0.3-0.4-0.3c-2.7,0.3-5.3,1.2-7.8,2.4c-0.2-2,0.2-4.5,1.3-6.3c1.2-2.2,3.1-4.1,5.5-5.5
		c4.8-2.9,11.1-4.7,17.1-5.4c5.8-0.6,11.8,0,16.5,2.8c4.6,2.6,7.7,8.1,6.7,12.8v0.1c-0.8-0.4-1.7-0.7-2.6-0.9
		c-3.4-0.9-6.8-0.8-10,0.2c-0.1,0-0.2,0.1-0.2,0.2c-0.1,0.2,0,0.4,0.2,0.4c5.8,2.5,10.6,5.6,12.7,9.6c1.1,2,1.5,4,1.5,6.8
		c0.1,2.7,0,5.4-0.4,8.1c-0.8,5.3-2.6,10.5-5,15.8c-1.2,2.6-2.7,5.3-3.7,8.3c-0.9,3-2,6.5-1,10c0,0.1,0.1,0.1,0.1,0.2
		c0.2,0.1,0.4,0.1,0.5,0c1.7-2,3.3-3.6,4.9-5.3c0.6,1.3,0.9,2.8,1.2,4.2c0.8,3.4,1,6.9,1.2,10.4c0,0.1,0,0.1,0.1,0.1
		c0.1,0.1,0.2,0.1,0.3,0l0.1-0.1c1.6-1.8,2.5-3.6,2.9-5.5c0.5-1.9,0.4-3.9,0.1-5.9c-0.5-1.9-1.2-4-2.9-5.7c-0.1-0.1-0.3-0.2-0.4-0.4
		c1.6-1.9,2.9-4,4.3-6.2c0.4-0.6,0.8-1.3,1.1-1.9c0.6,0.1,1.1,0.3,1.6,0.6c1.2,0.7,2.3,1.7,3.1,3.1c0.5,0.8,0.9,2.6,0.9,4.4
		C612.1,476.4,611.9,478.4,611.7,480.3z"/>
</g>
</svg>
