<?xml version="1.0" encoding="utf-8"?>
<!-- Generator: Adobe Illustrator 24.0.1, SVG Export Plug-In . SVG Version: 6.00 Build 0)  -->
<svg version="1.1" id="Layer_1" xmlns="http://www.w3.org/2000/svg" xmlns:xlink="http://www.w3.org/1999/xlink" x="0px" y="0px"
	 viewBox="0 0 1000 1000" style="enable-background:new 0 0 1000 1000;" xml:space="preserve">
<g id="blacks">
	<path d="M774.2,272.3c-0.1-1.1-0.6-2.3-1.5-3.1c-1.8-1.6-4.7-1.5-6.3,0.4l-0.4,0.5c0,0-0.2,0.2-0.6,0.7c-0.4,0.4-1,1.1-1.8,1.8
		c-0.8,0.8-1.8,1.6-2.9,2.5c-0.6,0.5-1.2,0.9-1.9,1.4s-1.4,1-2.2,1.4c-1.5,1-3.2,1.9-5.1,2.8c-1.8,0.9-3.8,1.7-5.7,2.3
		c-1.9,0.6-3.9,1-5.5,1.1s-2.9-0.1-3.2-0.3c-0.2-0.1-0.2-0.1-0.2-0.2c0,0-0.1,0-0.2-0.2c0,0-0.1-0.1-0.1-0.2s-0.1-0.2-0.1-0.2l0,0
		c0,0,0,0.1-0.1-0.2l-0.2-0.5l-0.1-0.2c0.1,0.1,0.1,0.2,0.1,0.3l0,0l0,0l0,0l0,0l0,0v-0.1c-0.3-0.9-0.6-1.7-0.9-2.6
		c-0.5-1.7-0.9-3.6-1.2-5.4s-0.5-3.7-0.6-5.5s-0.1-3.5-0.2-5.1c0-1.6,0-3,0.1-4.2c0-1.2,0-2.2,0.1-2.8c0-0.3,0-0.6,0-0.7
		c0-0.1,0-0.1,0-0.1v-0.1c0.2-0.9,0.1-1.9-0.3-2.9c-1.1-2.5-3.9-3.6-6.4-2.6l-1.3,0.6c0,0,0,0-0.1,0s-0.1,0.1-0.2,0.2
		c-0.2,0.1-0.5,0.4-0.8,0.6c-0.7,0.6-1.5,1.4-2.6,2.5c-1,1.1-2.2,2.6-3.3,4.4c-1.2,1.8-2.3,4-3.3,6.5s-1.8,5.4-2.3,8.6
		c-0.4,3.2-0.5,6.8,0,10.4c0.3,1.8,0.7,3.7,1.2,5.5l0.1,0.2v0.1l0,0c0.1,0.1-0.1-0.3,0.1,0.3l0.1,0.3l0.2,0.5c0,0.1,0.2,0.5,0.3,0.8
		l0.4,1c0.3,0.6,0.5,1.1,0.8,1.7s0.6,1.1,1,1.7c0,0,0.6,5.8-7.5,9.9s-16.2,2.1-17.1,2c0.2-3,0.3-6,0.2-8.9c-0.1-1.9-0.2-3.7-0.4-5.6
		L692,292l-0.1-0.8c0-0.2-0.1-0.4-0.1-0.6l-0.2-1.1v-0.1v-0.1l0,0l0,0V289l-0.1-0.3l-0.1-0.6c-0.3-1.7-0.6-3.4-1-5
		c-0.4-1.7-0.8-3.3-1.2-4.9s-0.9-3.2-1.4-4.8c-0.5-1.6-1-3.2-1.6-4.7c-0.5-1.6-1.2-3.1-1.8-4.6s-1.3-3-1.9-4.5
		c-0.2-0.5-0.5-1-0.7-1.5c0.4-0.5,0.8-1.1,1.1-1.6c0.4-0.7,0.8-1.4,1.1-2c0.4-0.7,0.6-1.3,0.8-2c0.3-0.7,0.5-1.3,0.7-1.9
		c1.5-5,1.8-9.3,1.8-13.2c0-1-0.1-1.9-0.1-2.8c-0.1-0.9-0.2-1.8-0.3-2.7s-0.2-1.7-0.3-2.6c-0.1-0.8-0.3-1.6-0.4-2.4
		c-0.6-3.1-1.3-5.9-2.1-8.3c-0.8-2.4-1.6-4.5-2.3-6.2s-1.3-3-1.8-3.9s-0.7-1.4-0.7-1.4c-0.6-1.1-1.7-2-3.1-2.2
		c-2.4-0.5-4.7,1.1-5.2,3.5l-0.1,0.5c0,0,0,0.1-0.1,0.3c0,0.2-0.1,0.6-0.2,1c-0.1,0.9-0.3,2.2-0.5,3.9c-0.2,1.6-0.5,3.6-0.8,5.9
		c-0.3,2.3-0.6,4.8-1,7.4c-0.2,1.3-0.4,2.7-0.6,4.1c-0.1,0.7-0.3,1.4-0.4,2.1c-0.1,0.7-1.4,11.2-5.6,11.3
		c-5.8,0.2-16.2-9.9-16.2-9.9c-2.3-1.9-4.5-4.1-6.5-6.2c-2-2.1-3.9-4.3-5.6-6.4c-1.7-2.1-3.2-4.1-4.6-5.8c-1.3-1.8-2.5-3.4-3.5-4.7
		s-1.7-2.4-2.2-3.1c-0.5-0.7-0.8-1-0.8-1c-0.8-2.5-3.5-3.8-5.9-3c-2.5,0.8-3.8,3.5-3,6c0,0,0.1,0.6,0.2,1.6c0.1,1,0.3,2.4,0.7,4.2
		c0.3,1.8,0.8,4,1.6,6.4c0.7,2.4,1.6,5.2,2.9,8.1c1.2,2.9,2.7,6.1,4.6,9.3c1.9,3.2,4.2,6.5,6.9,9.7c2.8,3.2,6,6.4,9.9,9.1
		c3.8,2.8,8.3,5.1,13.1,6.7l1.8,0.5l0.9,0.3l0.5,0.1h0.1h0.1l0.8,0.2h0.2l0.4,0.1c0,0.2,0.1,0.4,0.1,0.7c0.2,1.3,0.5,2.6,0.7,3.9
		s0.4,2.6,0.5,3.9c0.2,1.3,0.3,2.6,0.4,3.9c0.1,1.3,0.2,2.6,0.2,3.9s0.1,2.6,0,3.8c0,1.3-0.1,2.5-0.1,3.8v0.5v0.2c0,0.1,0-0.4,0-0.2
		l0,0l0,0v0.1v0.1l-0.1,1.1c0,0.2,0,0.4,0,0.5l-0.1,0.3l-0.1,0.7c-0.2,1.1-0.3,2.2-0.6,3.2c-0.4,2.1-1.1,4.2-1.8,6.2
		c-0.6,1.7-1.3,3.3-2.1,4.8l-2.7,1.6c-2.3,1.4-4.6,2.8-6.8,4.2c-4.5,2.9-8.8,5.8-13.1,8.9c-8.6,6.2-16.9,13-24.7,20.6
		c-6.7,6.5-13.1,13.6-18.9,21.7c-0.5-0.9-1.1-1.8-1.5-2.8c-0.4-1.1-0.9-2.2-1.2-3.3c-0.2-0.6-0.4-1.1-0.5-1.7s-0.2-1.2-0.3-1.8
		c-0.1-0.3-0.1-0.6-0.2-0.9l-0.1-0.9c-0.1-0.6-0.1-1.2-0.2-1.8c-0.1-1.2,0-2.4-0.1-3.6c0.1-1.2,0.2-2.4,0.3-3.6s0.4-2.3,0.5-3.4
		s0.5-2.1,0.7-3.1c0.3-1,0.4-2,0.7-2.9c0.6-1.8,1-3.4,1.5-4.6c1-2.6,1.6-4,1.6-4l0.1-0.4c1-2.5-0.2-5.3-2.7-6.3
		c-2-0.8-4.3-0.1-5.6,1.4c0,0-1.1,1.4-3.1,3.8c-1,1.2-2,2.8-3.3,4.6c-0.7,0.9-1.2,1.9-1.9,3c-0.6,1.1-1.4,2.2-2,3.5s-1.3,2.5-2,3.9
		c-0.6,1.4-1.2,2.9-1.8,4.5c-0.5,1.6-1.1,3.2-1.5,5c-0.2,0.9-0.4,1.8-0.6,2.7c-0.1,0.5-0.2,0.9-0.3,1.4s-0.1,0.9-0.2,1.4
		c-0.1,1-0.2,1.9-0.4,2.9c-0.1,1-0.1,2-0.2,3c-0.1,2,0,4.1,0.1,6.2c0.4,4.2,1.3,8.6,2.9,12.8c1.6,4.2,3.7,8.2,6.2,11.9
		c0.1,0.2,0.3,0.4,0.4,0.5c-1.2,3.2-2.2,6.6-3,10.1v0.1c-2.5,10.8,4.2,21.5,15,24s21.5-4.2,24-15l0,0c1.5-6.6,4.7-13.5,9.1-20.1
		c4.4-6.6,10-13.1,16.2-19.1c4.4-4.3,9.2-8.4,14.2-12.3c0.3,0.4,0.6,0.9,0.9,1.3c0.6,0.8,1.2,1.5,1.8,2.3c2.5,3,5.4,6,8.8,8.5
		c3.3,2.5,7,4.8,11,6.5c4,1.8,8.2,3.1,12.6,4c4.4,0.8,9,1,13.4,0.8c4.5-0.3,8.8-1.3,12.8-2.6c2-0.8,3.9-1.5,5.7-2.4
		c0.9-0.5,1.8-0.9,2.7-1.4c0.8-0.5,1.7-1,2.5-1.5c0.4-0.3,0.8-0.5,1.2-0.8s0.8-0.6,1.1-0.8c0.7-0.6,1.5-1.1,2.2-1.7
		c1.4-1.1,2.7-2.3,3.9-3.4c1.2-1.2,2.3-2.4,3.3-3.5c1-1.2,1.9-2.3,2.8-3.4c0.9-1.1,1.6-2.2,2.3-3.2s1.4-2,1.9-3
		c1.1-1.9,2.1-3.5,2.8-4.9c1.4-2.8,2.2-4.4,2.2-4.4c0.9-1.8,0.6-4.2-1-5.7c-1.9-1.9-5-1.8-6.9,0.1l-0.3,0.3c0,0-1.1,1.1-3,3.1
		c-0.9,1-2.2,2-3.6,3.3c-0.7,0.7-1.5,1.2-2.3,1.9c-0.8,0.6-1.6,1.3-2.6,1.9c-0.9,0.6-1.9,1.3-2.9,1.9c-1,0.5-2.1,1.1-3.1,1.7
		c-1.1,0.5-2.2,1-3.4,1.4c-0.6,0.2-1.2,0.4-1.7,0.6l-0.9,0.3c-0.3,0.1-0.6,0.1-0.9,0.2c-0.6,0.1-1.2,0.3-1.8,0.4s-1.2,0.2-1.8,0.3
		c-1.2,0.2-2.4,0.2-3.6,0.3c-2.4-0.1-4.6-0.3-6.8-0.9s-4.2-1.5-6-2.6s-3.4-2.4-4.8-3.8c-1.4-1.3-2.5-2.8-3.3-4.2
		c-0.9-1.4-1.3-2.7-1.6-3.7c0-0.3-0.1-0.5-0.1-0.8c-0.1-0.2,0-0.4,0-0.6c-0.1-0.4,0.1-0.7,0.1-1l0,0c0.2,0,0.5-0.1,0.8-0.1
		c0.1,0.3,0.1,0.6,0.2,0.9v0.1c0,0,0,0.1,0,0s0.1-0.3,0.1-0.4c0.1-0.2,0.1-0.4,0.1-0.6v-0.1c1.2-0.2,2.6-0.5,4-0.8
		c3.7-0.8,7.9-2.1,12.3-3.7c2.2-0.9,4.5-1.8,6.7-2.9s4.5-2.4,6.6-3.7c2.2-1.4,4.3-2.9,6.2-4.6c0.5-0.4,1-0.8,1.4-1.2
		c0.5-0.4,0.9-0.9,1.4-1.3c0.9-0.8,1.7-1.8,2.6-2.7c1.6-1.8,3-3.7,4.2-5.6s2.2-3.7,2.9-5.4c0.2-0.4,0.4-0.8,0.6-1.2
		c0.1-0.1,0.1-0.3,0.2-0.4c4.1,0.6,7.8,0.2,11-0.5c4.1-1,7.5-2.5,10.6-4.3c3-1.8,5.6-3.9,7.9-6c2.2-2.2,4.1-4.4,5.6-6.6
		s2.7-4.4,3.5-6.5c0.9-2,1.4-3.9,1.7-5.5s0.4-2.9,0.4-3.7C774.2,272.8,774.2,272.3,774.2,272.3z"/>
	<path d="M435.5,358.1c-0.1-1-0.3-1.9-0.4-2.9c-0.1-0.5-0.1-1-0.2-1.4c-0.1-0.5-0.2-0.9-0.3-1.4c-0.2-0.9-0.4-1.8-0.6-2.7
		c-0.5-1.7-1-3.4-1.5-5c-0.6-1.6-1.2-3-1.8-4.5c-0.6-1.4-1.3-2.7-2-3.9c-0.6-1.3-1.4-2.4-2-3.5c-0.7-1.1-1.2-2.1-1.9-3
		c-1.3-1.8-2.3-3.4-3.3-4.6c-2-2.4-3.1-3.8-3.1-3.8c-1.3-1.6-3.5-2.2-5.6-1.4c-2.5,1-3.7,3.8-2.7,6.3l0.1,0.4c0,0,0.6,1.5,1.6,4
		c0.5,1.3,0.9,2.9,1.5,4.6c0.3,0.9,0.5,1.9,0.7,2.9s0.5,2,0.7,3.1s0.4,2.2,0.5,3.4c0.1,1.1,0.2,2.3,0.3,3.6c0,1.2,0,2.4-0.1,3.6
		c-0.1,0.6-0.1,1.2-0.2,1.8l-0.1,0.9c0,0.3-0.1,0.6-0.2,0.9c-0.1,0.6-0.2,1.2-0.3,1.8c-0.1,0.6-0.3,1.2-0.5,1.7
		c-0.3,1.2-0.8,2.3-1.2,3.3c-0.5,1-1,1.9-1.5,2.8c-5.8-8-12.2-15.1-18.9-21.7c-7.8-7.6-16.1-14.4-24.7-20.6
		c-4.3-3.1-8.7-6.1-13.1-8.9c-2.2-1.4-4.5-2.8-6.8-4.2l-2.7-1.6c-0.8-1.5-1.5-3.2-2.1-4.8c-0.7-2-1.3-4.1-1.8-6.2
		c-0.2-1.1-0.4-2.1-0.6-3.2l-0.1-0.7l-0.1-0.3c0-0.1,0-0.4,0-0.5l-0.1-1.1v-0.1v-0.1l0,0l0,0c0-0.2,0,0.3,0,0.2v-0.2v-0.5
		c0-1.3-0.1-2.5-0.1-3.8s0-2.5,0-3.8s0.1-2.6,0.2-3.9s0.2-2.6,0.4-3.9c0.1-1.3,0.3-2.6,0.5-3.9s0.4-2.6,0.7-3.9
		c0-0.2,0.1-0.4,0.1-0.7l0.4-0.1h0.2l0.8-0.2h0.1h0.1l0.5-0.1l0.9-0.3l1.8-0.5c4.8-1.6,9.3-4,13.1-6.7c3.8-2.8,7.1-5.9,9.9-9.1
		c2.8-3.2,5-6.5,6.9-9.7s3.4-6.3,4.6-9.3c1.2-2.9,2.2-5.7,2.9-8.1c0.7-2.4,1.2-4.6,1.6-6.4c0.3-1.8,0.5-3.2,0.7-4.2
		c0.1-1,0.2-1.6,0.2-1.6c0.8-2.5-0.5-5.1-3-6c-2.5-0.8-5.1,0.5-5.9,3c0,0-0.2,0.3-0.8,1c-0.5,0.7-1.3,1.8-2.2,3.1
		c-1,1.3-2.1,2.9-3.5,4.7s-2.9,3.8-4.6,5.8c-1.7,2.1-3.6,4.2-5.6,6.4c-2,2.1-4.2,4.3-6.5,6.2c0,0-10.3,10.1-16.2,9.9
		c-4.3-0.1-5.5-10.6-5.6-11.3s-0.3-1.4-0.4-2.1c-0.2-1.4-0.4-2.8-0.6-4.1c-0.4-2.7-0.7-5.2-1-7.4c-0.3-2.3-0.5-4.3-0.8-5.9
		c-0.2-1.7-0.4-3-0.5-3.9c-0.1-0.4-0.1-0.8-0.2-1c0-0.2-0.1-0.3-0.1-0.3l-0.1-0.5c-0.5-2.4-2.8-4-5.2-3.5c-1.3,0.3-2.4,1.1-3.1,2.2
		c0,0-0.3,0.5-0.7,1.4c-0.5,0.9-1.1,2.2-1.8,3.9c-0.7,1.7-1.5,3.7-2.3,6.2c-0.8,2.4-1.5,5.2-2.1,8.3c-0.1,0.8-0.3,1.6-0.4,2.4
		c-0.1,0.8-0.2,1.7-0.3,2.6c-0.1,0.9-0.2,1.8-0.3,2.7c0,0.9-0.1,1.9-0.1,2.8c0,3.9,0.2,8.2,1.8,13.2c0.2,0.6,0.4,1.3,0.7,1.9
		c0.3,0.7,0.5,1.3,0.8,2s0.7,1.4,1.1,2c0.3,0.5,0.7,1.1,1.1,1.6c-0.2,0.5-0.5,1-0.7,1.5c-0.7,1.5-1.3,3-1.9,4.5s-1.2,3.1-1.8,4.6
		c-0.6,1.6-1.1,3.1-1.6,4.7s-1,3.2-1.4,4.8c-0.4,1.6-0.9,3.2-1.2,4.9c-0.4,1.6-0.7,3.3-1,5l-0.1,0.6l-0.1,0.3v0.3l0,0l0,0v0.1v0.1
		l-0.2,1.1c0,0.2-0.1,0.3-0.1,0.6L308,292l-0.2,1.5c-0.2,1.9-0.3,3.7-0.4,5.6c-0.1,3-0.1,5.9,0.2,8.9c-0.8,0.1-9,2.1-17.1-2
		s-7.5-9.9-7.5-9.9c0.4-0.6,0.7-1.1,1-1.7s0.6-1.1,0.8-1.7l0.4-1c0.1-0.3,0.3-0.7,0.3-0.8l0.2-0.5l0.1-0.3c0.2-0.6,0.1-0.2,0.1-0.3
		l0,0v-0.1l0.1-0.2c0.5-1.8,1-3.7,1.2-5.5c0.5-3.7,0.5-7.2,0-10.4c-0.5-3.2-1.3-6.1-2.3-8.6s-2.1-4.7-3.3-6.5
		c-1.2-1.8-2.3-3.3-3.3-4.4c-1-1.1-1.9-2-2.6-2.5c-0.3-0.3-0.6-0.5-0.8-0.6c-0.1-0.1-0.2-0.2-0.2-0.2h-0.1l-1.3-0.6
		c-2.5-1.1-5.4,0.1-6.4,2.6c-0.4,0.9-0.5,1.9-0.3,2.9c0,0,0,0,0,0.1v0.1c0,0.2,0,0.4,0,0.7c0,0.7,0,1.6,0.1,2.8c0,1.2,0,2.7,0.1,4.2
		c0,1.6,0,3.3-0.2,5.1c-0.1,1.8-0.3,3.7-0.6,5.5c-0.3,1.8-0.7,3.7-1.2,5.4c-0.3,0.9-0.6,1.7-0.9,2.6v0.1l0,0l0,0l0,0l0,0l0,0
		c0,0,0-0.1,0.1-0.3l-0.1,0.2l-0.2,0.5c-0.1,0.2-0.1,0.2-0.1,0.2l0,0l-0.1,0.2c-0.1,0.1-0.1,0.1-0.1,0.2c-0.1,0.2-0.2,0.2-0.2,0.2
		s0,0-0.2,0.2c-0.4,0.2-1.6,0.5-3.2,0.3c-1.6-0.1-3.6-0.5-5.5-1.1s-3.9-1.4-5.7-2.3s-3.5-1.8-5.1-2.8c-0.8-0.5-1.5-1-2.2-1.4
		c-0.7-0.5-1.3-1-1.9-1.4c-1.2-0.9-2.1-1.8-2.9-2.5c-0.8-0.8-1.4-1.4-1.8-1.8c-0.4-0.5-0.6-0.7-0.6-0.7l-0.4-0.5
		c-1.6-1.8-4.5-2-6.3-0.4c-0.9,0.8-1.4,2-1.5,3.1c0,0,0,0.5,0,1.3c0,0.9,0.1,2.1,0.4,3.7c0.3,1.6,0.8,3.5,1.7,5.5
		c0.8,2,2,4.3,3.5,6.5s3.4,4.5,5.6,6.6c2.2,2.2,4.8,4.2,7.9,6c3,1.8,6.5,3.4,10.6,4.3c3.2,0.7,6.9,1.1,11,0.5
		c0.1,0.1,0.1,0.3,0.2,0.4c0.2,0.4,0.4,0.8,0.6,1.2c0.8,1.7,1.8,3.5,2.9,5.4c1.2,1.8,2.6,3.7,4.2,5.6c0.8,0.9,1.6,1.8,2.6,2.7
		c0.5,0.4,0.9,0.9,1.4,1.3s1,0.8,1.4,1.2c1.9,1.7,4,3.2,6.2,4.6s4.4,2.6,6.6,3.7s4.5,2.1,6.7,2.9c4.4,1.7,8.6,2.9,12.3,3.7
		c1.4,0.3,2.7,0.6,4,0.8v0.1c0,0.2,0.1,0.4,0.1,0.6c0,0.1,0.1,0.2,0.1,0.4c0,0.1,0,0,0,0v-0.1c0-0.3,0.1-0.6,0.2-0.9
		c0.3,0,0.5,0.1,0.8,0.1l0,0c0,0.3,0.2,0.6,0.1,1c0,0.2,0,0.4,0,0.6c-0.1,0.2-0.1,0.5-0.1,0.8c-0.3,1-0.7,2.4-1.6,3.7
		c-0.8,1.4-1.9,2.9-3.3,4.2c-1.4,1.3-3,2.6-4.8,3.8c-1.8,1.1-3.9,1.9-6,2.6c-2.2,0.6-4.4,0.9-6.8,0.9c-1.2-0.1-2.4,0-3.6-0.3
		c-0.6-0.1-1.2-0.1-1.8-0.3c-0.6-0.1-1.2-0.3-1.8-0.4c-0.3-0.1-0.6-0.1-0.9-0.2l-0.9-0.3c-0.6-0.2-1.2-0.4-1.7-0.6
		c-1.1-0.4-2.2-1-3.4-1.4c-1.1-0.6-2.1-1.1-3.1-1.7s-1.9-1.3-2.9-1.9s-1.8-1.3-2.6-1.9c-0.8-0.6-1.6-1.2-2.3-1.9
		c-1.4-1.3-2.7-2.3-3.6-3.3c-1.9-2-3-3.1-3-3.1l-0.3-0.3c-1.9-1.9-5-2-6.9-0.1c-1.6,1.5-1.9,3.8-1,5.7c0,0,0.8,1.6,2.2,4.4
		c0.7,1.4,1.7,3,2.8,4.9c0.5,1,1.3,1.9,1.9,3c0.7,1,1.4,2.2,2.3,3.2c0.9,1.1,1.8,2.3,2.8,3.4c1.1,1.1,2.1,2.3,3.3,3.5
		c1.3,1.1,2.5,2.3,3.9,3.4c0.7,0.5,1.5,1.1,2.2,1.7c0.4,0.3,0.8,0.6,1.1,0.8c0.4,0.3,0.8,0.5,1.2,0.8c0.8,0.5,1.7,1,2.5,1.5
		s1.8,0.9,2.7,1.4c1.8,1,3.8,1.7,5.7,2.4c4,1.3,8.4,2.3,12.8,2.6c4.5,0.3,9,0,13.4-0.8s8.6-2.2,12.6-4s7.6-4,11-6.5
		c3.3-2.5,6.2-5.4,8.8-8.5c0.6-0.8,1.2-1.6,1.8-2.3c0.3-0.4,0.6-0.8,0.9-1.3c5,3.9,9.8,8,14.2,12.3c6.2,6,11.8,12.4,16.2,19.1
		c4.4,6.6,7.6,13.5,9.1,20.1l0,0c2.5,10.8,13.2,17.5,24,15s17.5-13.2,15-24v-0.1c-0.8-3.4-1.8-6.8-3-10.1c0.1-0.2,0.3-0.4,0.4-0.5
		c2.5-3.7,4.6-7.7,6.2-11.9c1.6-4.2,2.4-8.6,2.9-12.8c0.1-2.1,0.3-4.2,0.1-6.2C435.6,360.1,435.6,359.1,435.5,358.1z"/>
</g>
</svg>
