<?xml version="1.0" encoding="utf-8"?>
<!-- Generator: Adobe Illustrator 24.0.1, SVG Export Plug-In . SVG Version: 6.00 Build 0)  -->
<svg version="1.1" id="Layer_1" xmlns="http://www.w3.org/2000/svg" xmlns:xlink="http://www.w3.org/1999/xlink" x="0px" y="0px"
	 viewBox="0 0 1000 1000" style="enable-background:new 0 0 1000 1000;" xml:space="preserve">
<g id="blacks">
	<path d="M764.6,241.1c3.6,7.1,6.7,46-36.5,52.8c2.9-4.6,5.3-10.6,6.9-18.2c2.5-11.8-4.7-23.7-16.5-26.4
		c-11.9-2.7-23.7,4.9-26.2,16.9c-4.9,23.3-22.8,19.8-35.1,13.7c-40.2-23.4-56.7-66.2-57.1-67.1l0,0c-1,0-53,0.5-59.7,61.9
		c-2.5,22.5,31.9,41.1,34.8,36.3c8-13.2,24-9.4,30.9,5c15.6,32.2-50.7,54.1-42.4,67.8c8.3,13.6,93.9,75.7,156.4,41.3
		c-22.5-16.5-15.8-33.1-15.8-33.1c38.3-1.8,101-18.8,115.2-108.1C829.3,223.4,755.7,223.6,764.6,241.1z"/>
	<path d="M399.8,212.8C399.8,212.9,399.8,212.8,399.8,212.8c-0.4,0.9-16.9,43.6-57.1,67.1c-12.3,6.1-30.3,9.7-35.1-13.7
		c-2.5-11.9-14.2-19.5-26.2-16.9c-11.7,2.6-19,14.6-16.5,26.4c1.6,7.6,4,13.6,6.9,18.2c-43.1-6.9-40.1-45.7-36.5-52.8
		c8.9-17.5-64.7-17.8-55.1,42.7c14.2,89.3,76.8,106.3,115.2,108.1c0,0,6.7,16.6-15.8,33.1c62.5,34.4,148.1-27.7,156.4-41.3
		c8.3-13.6-58-35.5-42.4-67.8c6.9-14.3,23-18.2,30.9-5c2.9,4.9,37.3-13.7,34.8-36.3C452.8,213.3,400.7,212.8,399.8,212.8z"/>
</g>
<g id="texture">
	<path d="M592.3,219.8c0,0-0.8,0.1-2.2,0.4c-0.7,0.1-1.5,0.3-2.5,0.5c-1,0.3-2,0.6-3.2,1c-0.6,0.2-1.2,0.4-1.8,0.7s-1.2,0.6-1.8,0.9
		c-1.3,0.6-2.6,1.2-3.8,2.1c-1.3,0.8-2.6,1.6-3.8,2.6c-0.6,0.5-1.2,1-1.9,1.5c-0.6,0.5-1.2,1.1-1.8,1.6c-1.2,1-2.2,2.2-3.3,3.4
		c-1,1.1-1.9,2.4-2.8,3.5c-0.8,1.2-1.6,2.4-2.2,3.5c-0.3,0.6-0.6,1.1-0.9,1.7c-0.3,0.5-0.5,1.1-0.8,1.6c-0.5,1-0.9,2-1.2,2.9
		s-0.6,1.7-0.7,2.3c-0.4,1.3-0.4,2.1-0.4,2.1s0.6-0.5,1.6-1.3c0.5-0.4,1.1-0.9,1.9-1.4c0.7-0.5,1.5-1.1,2.4-1.7
		c0.9-0.6,1.8-1.3,2.8-2s2.1-1.4,3.1-2.1c0.5-0.3,1.1-0.7,1.7-1c0.5-0.4,1.1-0.7,1.7-1c1.1-0.7,2.3-1.3,3.5-1.9l1.7-0.9
		c0.6-0.3,1.2-0.5,1.7-0.8c1.1-0.6,2.3-1,3.4-1.5c1.1-0.5,2.2-0.8,3.2-1.2c0.5-0.2,1-0.4,1.5-0.6c0.5-0.1,1-0.3,1.4-0.4
		c0.9-0.3,1.7-0.6,2.4-0.8s1.4-0.4,1.9-0.5c1-0.3,1.6-0.5,1.6-0.5l0.7-0.3c2.7-1,4.5-3.8,4.1-6.8C599,221.8,595.8,219.3,592.3,219.8
		z"/>
	<path d="M813,263.5c-0.5-1.9-1.2-3.8-2-5.7c-0.9-1.9-1.9-3.8-3.2-5.6l-0.9-1.3l-1-1.3c-0.7-0.9-1.4-1.6-2.2-2.4
		c-0.7-0.8-1.6-1.5-2.3-2.2c-0.8-0.7-1.6-1.3-2.4-1.9c-1.7-1.2-3.3-2.2-5-3.1c-0.8-0.5-1.6-0.8-2.4-1.2c-0.8-0.4-1.5-0.7-2.3-1
		c-1.5-0.6-2.9-1.1-4.1-1.4c-1.2-0.4-2.3-0.6-3.2-0.8c-1.8-0.4-2.8-0.5-2.8-0.5c-3-0.5-6.1,1.3-7,4.3c-1.1,3.4,0.7,7,4.1,8l0.4,0.1
		c0,0,0.8,0.3,2.2,0.6c0.7,0.2,1.5,0.5,2.5,0.7s2,0.7,3.2,1c0.6,0.2,1.2,0.4,1.8,0.7s1.2,0.5,1.9,0.8c0.6,0.3,1.3,0.6,1.9,0.9
		c0.6,0.3,1.3,0.7,1.9,1c0.6,0.4,1.3,0.8,1.9,1.2c0.6,0.4,1.3,0.8,1.9,1.3c0.6,0.5,1.3,0.9,1.9,1.4l0.9,0.8l0.9,0.8
		c1.2,1.1,2.2,2.3,3.3,3.6c0.5,0.6,1,1.3,1.4,2c0.5,0.7,0.9,1.3,1.3,2c1.7,2.7,3,5.6,4,8.1c0.5,1.3,0.9,2.5,1.2,3.6s0.6,2,0.8,2.9
		c0.4,1.6,0.6,2.6,0.6,2.6s0.4-0.9,0.8-2.6c0.4-1.7,0.9-4.1,1-7.1C814.3,270.9,814,267.3,813,263.5z"/>
	<path d="M728.6,265.2c-0.1-0.5-0.3-0.9-0.4-1.4c-0.1-0.5-0.4-0.9-0.6-1.4c-0.2-0.4-0.5-0.9-0.8-1.3c-0.6-0.8-1.2-1.7-1.9-2.3
		c-0.7-0.6-1.4-1.3-2.1-1.8c-0.7-0.5-1.5-1-2.1-1.3c-0.7-0.3-1.3-0.6-2-0.8c-0.6-0.3-1.2-0.4-1.7-0.5s-0.9-0.2-1.3-0.2
		c-0.7-0.1-1.1-0.1-1.1-0.1c-2.4-0.1-4.7,1.1-5.9,3.3c-1.7,3.1-0.6,7,2.5,8.7l1.1,0.6c0,0,0.2,0.1,0.7,0.3c0.2,0.1,0.5,0.2,0.8,0.2
		c0.3,0.1,0.7,0.1,1,0.3c0.3,0.1,0.7,0.2,1.1,0.3c0.4,0.1,0.7,0.2,1.1,0.3c0.4,0.1,0.7,0.2,1.2,0.3c0.5,0.1,0.7,0.2,1.2,0.3
		c0.2,0,0.3,0.1,0.6,0.2c0.2,0.1,0.4,0.1,0.6,0.2c0.4,0.2,0.8,0.4,1.1,0.6c0.4,0.2,0.7,0.6,1.1,0.9c0.3,0.4,0.7,0.7,1,1.1
		s0.6,0.8,0.8,1.2c0.2,0.4,0.4,0.7,0.6,1c0.2,0.3,0.3,0.6,0.4,0.7c0.1,0.2,0.1,0.3,0.1,0.3s0.1-0.1,0.2-0.2c0.2-0.1,0.4-0.3,0.7-0.6
		c0.3-0.3,0.6-0.6,0.8-1.1c0.3-0.4,0.6-1,0.8-1.6c0.3-0.6,0.4-1.3,0.6-2.1c0.1-0.8,0.2-1.7,0-2.6
		C728.7,266.2,728.7,265.7,728.6,265.2z"/>
	<path d="M441.7,247.7c-0.3-0.9-0.7-1.9-1.2-2.9c-0.2-0.5-0.5-1.1-0.8-1.6s-0.6-1.1-0.9-1.7c-0.6-1.2-1.4-2.3-2.2-3.5
		c-0.9-1.1-1.8-2.4-2.8-3.5s-2.1-2.3-3.3-3.4c-0.6-0.5-1.1-1.1-1.8-1.6c-0.6-0.5-1.2-1-1.9-1.5c-1.2-1-2.5-1.8-3.8-2.6
		s-2.6-1.5-3.8-2.1c-0.6-0.3-1.2-0.6-1.8-0.9c-0.6-0.2-1.2-0.4-1.8-0.7c-1.1-0.4-2.2-0.8-3.2-1s-1.8-0.4-2.5-0.5
		c-1.4-0.3-2.2-0.4-2.2-0.4c-3.5-0.5-6.7,2-7.2,5.4c-0.4,3,1.4,5.8,4.1,6.8l0.7,0.3c0,0,0.6,0.2,1.6,0.5c0.5,0.1,1.2,0.3,1.9,0.5
		c0.7,0.2,1.5,0.5,2.4,0.8c0.4,0.1,0.9,0.3,1.4,0.4c0.5,0.2,1,0.4,1.5,0.6c1,0.4,2.1,0.7,3.2,1.2s2.3,0.9,3.4,1.5
		c0.6,0.3,1.2,0.5,1.7,0.8l1.7,0.9c1.2,0.6,2.3,1.3,3.5,1.9c0.6,0.3,1.1,0.7,1.7,1s1.1,0.7,1.7,1c1.1,0.7,2.1,1.4,3.1,2.1
		c1,0.7,1.9,1.3,2.8,2c0.9,0.6,1.7,1.2,2.4,1.7c0.7,0.5,1.3,1,1.9,1.4c1,0.8,1.6,1.3,1.6,1.3s-0.1-0.8-0.4-2.1
		C442.2,249.3,442,248.5,441.7,247.7z"/>
	<path d="M220.8,235.2c0,0-1,0.2-2.8,0.5c-0.9,0.2-2,0.4-3.2,0.8c-1.2,0.3-2.6,0.8-4.1,1.4c-0.7,0.3-1.5,0.6-2.3,1s-1.6,0.7-2.4,1.2
		c-1.6,0.9-3.3,1.9-5,3.1c-0.8,0.6-1.6,1.2-2.4,1.9c-0.8,0.7-1.6,1.4-2.3,2.2s-1.5,1.5-2.2,2.4l-1,1.3l-0.9,1.3
		c-1.3,1.8-2.3,3.7-3.2,5.6c-0.9,1.9-1.5,3.8-2,5.7c-1,3.8-1.3,7.4-1.2,10.4s0.5,5.5,1,7.1c0.4,1.7,0.8,2.6,0.8,2.6s0.2-1,0.6-2.6
		c0.2-0.8,0.5-1.8,0.8-2.9c0.4-1.1,0.8-2.3,1.2-3.6c1-2.5,2.3-5.4,4-8.1c0.4-0.7,0.8-1.4,1.3-2c0.4-0.7,1-1.3,1.4-2
		c1-1.3,2.1-2.5,3.3-3.6l0.9-0.8l0.9-0.8c0.6-0.5,1.2-1,1.9-1.4c0.6-0.5,1.3-0.9,1.9-1.3c0.6-0.4,1.3-0.8,1.9-1.2
		c0.7-0.3,1.3-0.7,1.9-1c0.6-0.3,1.3-0.6,1.9-0.9c0.6-0.3,1.3-0.5,1.9-0.8c0.6-0.2,1.2-0.5,1.8-0.7c1.2-0.4,2.2-0.8,3.2-1
		c1-0.3,1.8-0.6,2.5-0.7c1.4-0.4,2.2-0.6,2.2-0.6l0.4-0.1c3.4-1.1,5.2-4.7,4.1-8C226.8,236.5,223.8,234.7,220.8,235.2z"/>
	<path d="M285.5,254.1c0,0-0.4,0-1.1,0.1c-0.4,0.1-0.8,0.1-1.3,0.2c-0.5,0.1-1,0.2-1.7,0.5c-0.6,0.2-1.3,0.5-2,0.8
		c-0.7,0.3-1.4,0.8-2.1,1.3c-0.7,0.4-1.4,1.1-2.1,1.8c-0.7,0.6-1.3,1.5-1.9,2.3c-0.3,0.4-0.5,0.9-0.8,1.3c-0.2,0.5-0.5,0.9-0.6,1.4
		c-0.2,0.5-0.3,1-0.4,1.4c-0.1,0.5-0.2,1-0.2,1.4c-0.1,0.9,0,1.8,0,2.6c0.2,0.8,0.3,1.5,0.6,2.1c0.2,0.6,0.5,1.2,0.8,1.6
		s0.6,0.8,0.8,1.1c0.2,0.3,0.5,0.5,0.7,0.6s0.2,0.2,0.2,0.2s0-0.1,0.1-0.3c0.1-0.2,0.2-0.4,0.4-0.7c0.2-0.3,0.4-0.7,0.6-1
		c0.3-0.4,0.5-0.8,0.8-1.2c0.3-0.4,0.7-0.8,1-1.1c0.4-0.3,0.7-0.7,1.1-0.9c0.4-0.3,0.8-0.5,1.1-0.6c0.2-0.1,0.4-0.2,0.6-0.2
		c0.2-0.1,0.3-0.2,0.6-0.2c0.4-0.1,0.7-0.2,1.2-0.3c0.4-0.1,0.7-0.2,1.2-0.3c0.4-0.1,0.7-0.2,1.1-0.3c0.4-0.1,0.8-0.2,1.1-0.3
		c0.3-0.1,0.7-0.2,1-0.3c0.3-0.1,0.6-0.2,0.8-0.2c0.4-0.2,0.7-0.3,0.7-0.3l1.1-0.6c3.1-1.7,4.2-5.6,2.5-8.7
		C290.2,255.2,287.9,254,285.5,254.1z"/>
</g>
</svg>
