<?xml version="1.0" encoding="utf-8"?>
<!-- Generator: Adobe Illustrator 19.2.0, SVG Export Plug-In . SVG Version: 6.00 Build 0)  -->
<svg version="1.0" id="Layer_2" xmlns="http://www.w3.org/2000/svg" xmlns:xlink="http://www.w3.org/1999/xlink" x="0px" y="0px"
	 viewBox="0 0 1000 1000" enable-background="new 0 0 1000 1000" xml:space="preserve">
<g id="blacks">
	<path id="path" fill="#00FF55" d="M464.7,626.69c0,0,1.41-0.51,3.88-1.3s6.02-1.87,10.32-3.02c2.15-0.58,4.48-1.18,6.96-1.77
		c2.48-0.59,5.1-1.2,7.83-1.75c2.73-0.55,5.54-1.15,8.43-1.62c2.88-0.5,5.82-0.96,8.78-1.38c2.95-0.39,5.92-0.72,8.85-1
		c2.93-0.29,5.84-0.43,8.65-0.55c2.82-0.1,5.56-0.09,8.17,0.02c2.61,0.1,5.08,0.31,7.37,0.64c1.15,0.17,2.24,0.3,3.29,0.56
		c1.04,0.23,2.03,0.42,2.96,0.72c1.85,0.49,3.45,1.16,4.74,1.76c0.64,0.34,1.21,0.64,1.7,0.92c0.48,0.29,0.87,0.62,1.2,0.85
		c0.63,0.48,0.97,0.73,0.97,0.73c0.87,0.66,1.05,1.9,0.39,2.78c-0.59,0.78-1.64,1-2.48,0.57l-0.34-0.17c0,0-0.28-0.14-0.81-0.41
		c-0.27-0.13-0.56-0.32-0.97-0.48c-0.42-0.14-0.9-0.32-1.43-0.52c-0.51-0.22-1.19-0.32-1.86-0.51c-0.66-0.2-1.45-0.31-2.27-0.45
		c-0.81-0.17-1.71-0.25-2.66-0.35c-0.93-0.12-1.95-0.17-3-0.23c-2.1-0.12-4.41-0.11-6.86-0.07c-2.45,0.05-5.05,0.23-7.74,0.4
		c-1.35,0.12-2.72,0.23-4.1,0.35c-1.39,0.15-2.79,0.29-4.21,0.44c-2.84,0.31-5.72,0.67-8.59,1.08c-2.88,0.38-5.77,0.79-8.6,1.25
		c-2.84,0.45-5.63,0.9-8.33,1.33c-2.7,0.46-5.31,0.9-7.79,1.32c-2.48,0.43-4.82,0.84-6.98,1.22c-8.66,1.52-14.43,2.53-14.43,2.53
		c-1.09,0.19-2.13-0.54-2.32-1.63c-0.17-0.97,0.39-1.91,1.29-2.23L464.7,626.69z"/>
</g>
</svg>
