<?xml version="1.0" encoding="utf-8"?>
<!-- Generator: Adobe Illustrator 26.0.1, SVG Export Plug-In . SVG Version: 6.00 Build 0)  -->
<svg version="1.1" id="mouth" xmlns="http://www.w3.org/2000/svg" xmlns:xlink="http://www.w3.org/1999/xlink" x="0px" y="0px"
	 viewBox="0 0 1000 1000" style="enable-background:new 0 0 1000 1000;" xml:space="preserve">
<path id="blacks" d="M534.5,623.1c-8.6-9.8-21.2-15.5-34.5-15.5s-25.9,5.6-34.5,15.5c-0.6,0.7-0.9,2.1-0.7,3.4
	c0.2,1.3,0.7,2.3,1.4,2.4c11,0.8,22.4,1.2,33.8,1.2s22.8-0.4,33.8-1.2c0.7,0,1.2-1,1.4-2.4S535.1,623.7,534.5,623.1z"/>
<g id="whites">
	<path d="M498.8,627.8c0,3.2-4.5,5.7-10.1,5.7s-10.1-2.6-10.1-5.7c0-3.2,4.5-15.4,10.1-15.4C494.3,612.4,498.8,624.6,498.8,627.8z"
		/>
	<path d="M521.4,627.8c0,3.2-4.5,5.7-10.1,5.7s-10.1-2.6-10.1-5.7c0-3.2,4.5-15.4,10.1-15.4C516.9,612.4,521.4,624.6,521.4,627.8z"
		/>
</g>
<path id="skin-D" d="M519.9,645.7c0-0.8-8.9-3.3-19.9-3.3s-19.9,2.4-19.9,3.3c0,0.8,8.9,0.4,19.9,0.4S519.9,646.5,519.9,645.7z"/>
</svg>
