<?xml version="1.0" encoding="utf-8"?>
<!-- Generator: Adobe Illustrator 19.2.0, SVG Export Plug-In . SVG Version: 6.00 Build 0)  -->
<svg version="1.0" id="Layer_2" xmlns="http://www.w3.org/2000/svg" xmlns:xlink="http://www.w3.org/1999/xlink" x="0px" y="0px"
	 viewBox="0 0 1000 1000" enable-background="new 0 0 1000 1000" xml:space="preserve">
<path id="blacks" fill="#6C1E4D" d="M584.37,596.11c-0.53-3.1-1.99-6.06-4.38-8.45s-5.36-3.85-8.45-4.38l-5.06,14.96
	c-0.47,0.44-0.96,0.89-1.51,1.33c-1.08,0.89-2.25,1.84-3.5,2.87c-1.26,1-2.54,2.15-4,3.21s-3,2.17-4.6,3.33
	c-0.81,0.57-1.6,1.2-2.46,1.75c-0.87,0.54-1.76,1.09-2.66,1.65c-0.9,0.56-1.81,1.14-2.74,1.72c-0.46,0.29-0.93,0.59-1.4,0.88
	c-0.49,0.26-0.98,0.52-1.48,0.78c-2,1.03-4,2.18-6.12,3.18c-2.16,0.91-4.33,1.93-6.59,2.85c-1.15,0.4-2.3,0.8-3.47,1.2
	c-0.58,0.2-1.17,0.4-1.75,0.61c-0.58,0.21-1.17,0.41-1.78,0.55c-1.21,0.31-2.42,0.62-3.64,0.93l-1.83,0.48
	c-0.61,0.15-1.24,0.23-1.87,0.35c-1.25,0.22-2.5,0.44-3.76,0.66l-0.94,0.16l-0.95,0.09l-1.91,0.17c-1.28,0.09-2.55,0.28-3.83,0.3
	l-3.85,0.04c-0.64-0.01-1.29,0.05-1.93,0l-1.92-0.12c-1.28-0.09-2.57-0.13-3.84-0.26c-2.54-0.39-5.09-0.59-7.56-1.2
	c-4.99-0.94-9.79-2.47-14.36-4.15c-1.13-0.46-2.25-0.91-3.36-1.36c-1.12-0.43-2.17-0.99-3.25-1.46c-2.16-0.93-4.18-2.06-6.18-3.08
	c-3.92-2.2-7.59-4.38-10.82-6.65c-3.26-2.23-6.15-4.41-8.66-6.43c-1.76-1.4-3.3-2.73-4.66-3.95l-5.21-15.39
	c-3.1,0.53-6.06,1.99-8.45,4.38s-3.85,5.36-4.38,8.45l13.3,4.51c1.64,1.7,3.62,3.72,6.03,5.91c1.22,1.15,2.58,2.3,4,3.54
	c1.46,1.18,2.97,2.46,4.64,3.68c3.27,2.54,7.01,5.01,11.09,7.46c4.12,2.39,8.59,4.71,13.44,6.67c4.86,1.89,9.99,3.71,15.42,4.74
	c2.68,0.67,5.47,0.93,8.23,1.36c1.39,0.15,2.79,0.21,4.19,0.31l2.1,0.14c0.7,0.05,1.41,0.01,2.11,0.01l4.22-0.07
	c1.4-0.04,2.8-0.24,4.19-0.36l2.09-0.21l1.04-0.1l1.03-0.18c1.37-0.25,2.74-0.5,4.1-0.75c0.68-0.13,1.36-0.23,2.03-0.39l1.99-0.54
	c1.32-0.37,2.63-0.73,3.93-1.09c0.66-0.16,1.29-0.39,1.92-0.63c0.63-0.23,1.26-0.46,1.88-0.69c1.25-0.46,2.49-0.92,3.72-1.37
	c2.4-1.03,4.71-2.16,6.99-3.22c2.23-1.14,4.32-2.44,6.4-3.6c0.52-0.3,1.03-0.59,1.54-0.88c0.49-0.33,0.97-0.65,1.44-0.98
	c0.95-0.65,1.89-1.29,2.81-1.92s1.82-1.26,2.71-1.87c0.88-0.62,1.67-1.32,2.49-1.95c1.61-1.29,3.15-2.53,4.61-3.71
	c1.44-1.2,2.69-2.47,3.93-3.59c1.22-1.14,2.36-2.2,3.41-3.19c0.86-0.79,1.58-1.6,2.27-2.34L584.37,596.11z"/>
</svg>
