<?xml version="1.0" encoding="utf-8"?>
<!-- Generator: Adobe Illustrator 26.0.1, SVG Export Plug-In . SVG Version: 6.00 Build 0)  -->
<svg version="1.1" id="mouth" xmlns="http://www.w3.org/2000/svg" xmlns:xlink="http://www.w3.org/1999/xlink" x="0px" y="0px"
	 viewBox="0 0 1000 1000" style="enable-background:new 0 0 1000 1000;" xml:space="preserve">
<style type="text/css">
	.st0{fill:#B20000;}
</style>
<path id="blacks" d="M558.8,598c-0.7-0.8-2-0.9-2.8-0.2l-0.2,0.1c0,0-0.4,0.3-1,0.9c-0.3,0.3-0.7,0.7-1.2,1
	c-0.5,0.4-1.1,0.8-1.7,1.3c-1.3,0.9-3,2-5,3.1c-1,0.6-2.1,1-3.3,1.6c-1.2,0.5-2.4,1-3.7,1.6c-1.3,0.5-2.7,1-4.2,1.4
	c-0.7,0.2-1.5,0.5-2.2,0.7c-0.8,0.2-1.5,0.4-2.3,0.6c-3.1,0.9-6.5,1.5-10,2.2c-1.3,0.2-2.7,0.4-4,0.6c-11.7-1.8-18.3-11-18.3-11
	s-6.5,9.1-18.1,11c-1.4-0.2-2.8-0.4-4.2-0.6c-3.5-0.7-6.9-1.3-10-2.2c-0.8-0.2-1.6-0.4-2.3-0.7c-0.8-0.2-1.5-0.5-2.2-0.7
	c-1.5-0.4-2.8-1-4.2-1.5c-1.3-0.5-2.5-1.1-3.7-1.6c-1.1-0.6-2.3-1.1-3.2-1.6c-2-1.1-3.7-2.2-5-3.1c-0.6-0.5-1.2-0.9-1.7-1.2
	c-0.5-0.4-0.9-0.8-1.3-1.1c-0.7-0.6-1.1-1-1.1-1l0,0c-0.7-0.6-1.8-0.7-2.5-0.1c-0.9,0.7-1.1,1.9-0.4,2.8c0,0,0.3,0.4,0.8,1.2
	c0.3,0.4,0.6,0.8,1.1,1.4c0.5,0.6,1.1,1.2,1.7,1.9c1.3,1.3,3,2.8,5.1,4.3c1,0.8,2.2,1.5,3.4,2.3c1.2,0.7,2.5,1.5,3.9,2.2
	c2.8,1.4,5.9,2.8,9.2,4c3.3,1.2,6.9,2.2,10.7,3.1c3.8,0.8,7.7,1.5,11.7,1.9c4,0.5,8.1,0.6,12.2,0.7l3.1-0.1c1,0,1.9,0,3-0.1
	c2.1-0.1,4.2-0.2,6.1-0.5c1-0.1,2-0.2,3-0.3c1-0.2,2-0.3,3-0.5c2-0.3,3.9-0.7,5.8-1.1c3.8-0.9,7.4-1.9,10.7-3.1
	c3.4-1.1,6.4-2.5,9.2-3.9c1.4-0.7,2.7-1.4,3.9-2.2s2.4-1.5,3.4-2.3c2.1-1.5,3.8-3,5.1-4.3c0.6-0.7,1.2-1.3,1.7-1.8s0.8-1.1,1.2-1.4
	c0.6-0.8,0.9-1.2,0.9-1.2C559.4,599.8,559.4,598.7,558.8,598z"/>
<path  id="pupil"
d="M505.3,622.1c0.1-1,0.2-7.2,0.2-8.2h-13c0,1,0.1,7.3,0.2,8.2c-2.9,7.2-7.8,12.7-13.2,15.6
	c2,0.7,4.1,1.1,6.4,1.1c5,0,9.6-1.9,13.1-5c3.5,3.1,8.1,5,13.1,5c2.2,0,4.4-0.4,6.4-1.1C513.1,634.9,508.2,629.3,505.3,622.1z"/>
</svg>
