<?xml version="1.0" encoding="utf-8"?>
<!-- Generator: Adobe Illustrator 26.0.1, SVG Export Plug-In . SVG Version: 6.00 Build 0)  -->
<svg version="1.1" id="mouth" xmlns="http://www.w3.org/2000/svg" xmlns:xlink="http://www.w3.org/1999/xlink" x="0px" y="0px"
	 viewBox="0 0 1000 1000" style="enable-background:new 0 0 1000 1000;" xml:space="preserve">
<style type="text/css">
	.st0{fill:#6A025C;}
</style>
<path id="blacks" d="M544.9,605.8c0-0.5-0.1-0.9-0.2-1.3c-0.1-0.4-0.3-0.9-0.4-1.3c-0.3-0.6-0.3-0.6-0.6-1.1
	c-0.3-0.4-0.6-0.8-0.9-1.1c-0.3-0.3-0.6-0.6-1-0.9c-0.3-0.2-0.7-0.5-1-0.6c-0.7-0.3-1.4-0.5-1.9-0.5c-0.5,0-0.8,0.1-0.8,0.1l0,0
	c-0.7,0.2-1.2,0.9-1,1.7l0.3,1c0,0,0.1,0.2,0.1,0.4c0,0.1,0.1,0.3,0.1,0.4c0,0.2,0.1,0.4,0.1,0.5c0,0.2,0.1,0.4,0.2,0.6
	c0.1,0.2,0.1,0.4,0.2,0.7c0.1,0.2,0.1,0.4,0.2,0.5c-0.1,0.1-0.2,0.2-0.3,0.3c-0.4,0.3-0.8,0.6-1.2,0.9c-0.9,0.7-2.1,1.4-3.5,2.1
	c-0.7,0.4-1.5,0.7-2.3,1.1c-0.8,0.4-1.7,0.7-2.6,1.1c-1.9,0.7-3.9,1.4-6.1,2c-2.2,0.6-4.6,1.1-7,1.5c-0.9,0.2-1.9,0.3-2.8,0.4
	c-8.3-1.3-12.8-7.8-12.8-7.8s-4.5,6.4-12.7,7.7c-1-0.1-2-0.3-2.9-0.4c-2.5-0.5-4.8-0.9-7-1.6c-2.2-0.6-4.2-1.3-6.1-2
	c-0.9-0.4-1.8-0.8-2.6-1.1c-0.8-0.4-1.6-0.7-2.3-1.1c-1.4-0.8-2.6-1.5-3.5-2.2c-0.4-0.3-0.8-0.6-1.2-0.9c-0.3-0.2-0.5-0.5-0.8-0.7
	c0,0,0,0,0,0c0.1-0.2,0.2-0.5,0.2-0.7c0.1-0.2,0.1-0.4,0.2-0.6c0-0.2,0.1-0.4,0.1-0.5c0-0.1,0.1-0.3,0.1-0.4c0-0.2,0.1-0.4,0.1-0.4
	l0.3-1l0,0c0.2-0.7-0.3-1.5-1-1.7c0,0-0.3-0.1-0.8-0.1c-0.5,0-1.2,0.2-1.9,0.5c-0.3,0.2-0.7,0.4-1,0.6c-0.3,0.2-0.7,0.5-1,0.9
	c-0.3,0.3-0.6,0.7-0.9,1.1c-0.3,0.5-0.3,0.5-0.6,1.1c-0.2,0.4-0.3,0.8-0.4,1.3c-0.1,0.4-0.2,0.9-0.2,1.3c0,0.4,0,0.9,0,1.3
	c0,0.4,0.1,0.8,0.2,1.2c0.1,0.4,0.3,0.7,0.4,1c0.2,0.4,0.4,0.7,0.5,0.9c0.3,0.2,0.5,0.3,0.5,0.3c0.1,0,0.2,0.1,0.3,0.1
	c1,0.3,2-0.2,2.4-1.1l0,0c0,0,0.1-0.2,0.2-0.6c0.1-0.1,0.2-0.2,0.3-0.2c0.1-0.1,0.2-0.3,0.3-0.4c0.1-0.2,0.2-0.3,0.3-0.5
	c0.1-0.1,0.1-0.2,0.2-0.3c0.3,0.3,0.6,0.7,1,1.1c0.9,0.9,2.1,2,3.6,3c0.7,0.6,1.5,1,2.4,1.6c0.9,0.5,1.8,1,2.7,1.5
	c2,1,4.1,2,6.5,2.8c2.3,0.9,4.9,1.6,7.5,2.2c2.7,0.5,5.4,1.1,8.2,1.3c2.8,0.3,5.7,0.4,8.6,0.5c1.5,0,2.8,0,4.3-0.1
	c1.5-0.1,2.9-0.2,4.3-0.3c0.7-0.1,1.4-0.1,2.1-0.2c0.7-0.1,1.4-0.2,2.1-0.3c1.4-0.2,2.7-0.5,4-0.8c2.6-0.6,5.2-1.3,7.5-2.1
	c2.4-0.8,4.5-1.8,6.5-2.8c1-0.5,1.9-1,2.8-1.5c0.8-0.6,1.7-1,2.4-1.6c1.5-1,2.6-2.1,3.6-3c0.3-0.3,0.6-0.6,0.8-0.8
	c0.1,0.1,0.1,0.2,0.2,0.4c0.1,0.1,0.2,0.3,0.3,0.4c0.1,0.1,0.2,0.1,0.3,0.2c0.1,0.4,0.2,0.6,0.2,0.6l0,0c0,0.1,0.1,0.2,0.1,0.3
	c0.5,0.9,1.6,1.2,2.5,0.7c0,0,0.2-0.1,0.5-0.3c0.2-0.2,0.4-0.5,0.5-0.9c0.2-0.3,0.3-0.6,0.4-1c0.1-0.4,0.2-0.8,0.2-1.2
	C544.9,606.6,544.9,606.2,544.9,605.8z"/>
</svg>
