<?xml version="1.0" encoding="utf-8"?>
<!-- Generator: Adobe Illustrator 19.2.0, SVG Export Plug-In . SVG Version: 6.00 Build 0)  -->
<svg version="1.0" id="Layer_2" xmlns="http://www.w3.org/2000/svg" xmlns:xlink="http://www.w3.org/1999/xlink" x="0px" y="0px"
	 viewBox="0 0 1000 1000" enable-background="new 0 0 1000 1000" xml:space="preserve">
<g id="blacks">
	<path id="path" fill="#00FF36" d="M503.1,616.22c0,1.97-4.12,2.57-10.8,2.57s-13.4-0.6-13.4-2.57c0-1.97,4.73-4.78,11.42-4.78
		C497,611.45,503.1,614.25,503.1,616.22z"/>
</g>
<g id="skin-D">
	<path id="path_1_" fill="#00FF36" d="M494.14,629.27c0,0,0.39-0.07,1.08-0.2c0.34-0.06,0.75-0.12,1.22-0.23
		c0.47-0.09,0.99-0.19,1.56-0.33c0.57-0.12,1.17-0.29,1.8-0.44c0.62-0.22,1.29-0.36,1.93-0.63c0.67-0.22,1.3-0.55,1.95-0.84
		c0.33-0.15,0.62-0.36,0.93-0.52l0.47-0.26l0.43-0.31c0.28-0.22,0.58-0.4,0.84-0.62c0.25-0.24,0.5-0.48,0.75-0.71
		c0.27-0.21,0.44-0.5,0.66-0.75c0.19-0.27,0.45-0.49,0.6-0.77c0.3-0.57,0.74-1.04,0.96-1.61c0.25-0.55,0.6-1.04,0.76-1.57
		c0.2-0.51,0.42-0.99,0.61-1.42c0.15-0.44,0.28-0.84,0.41-1.16c0.25-0.66,0.45-1.05,0.45-1.05s0.14,0.39,0.29,1.1
		c0.08,0.36,0.15,0.79,0.23,1.31c0.02,0.51-0.01,1.09-0.05,1.72c0,0.65-0.24,1.31-0.44,2.03c-0.17,0.73-0.62,1.41-1,2.13
		c-0.19,0.37-0.5,0.67-0.75,1c-0.28,0.32-0.52,0.68-0.87,0.95c-0.32,0.28-0.65,0.57-0.98,0.85c-0.34,0.27-0.72,0.48-1.08,0.72
		l-0.55,0.34l-0.58,0.27c-0.39,0.17-0.76,0.37-1.16,0.5c-0.78,0.28-1.56,0.51-2.33,0.65c-0.76,0.19-1.5,0.24-2.2,0.32
		c-0.7,0.02-1.36,0.08-1.97,0.04c-0.61-0.02-1.16-0.05-1.64-0.11c-0.49-0.05-0.91-0.12-1.26-0.17
		C494.53,629.37,494.14,629.27,494.14,629.27z"/>
</g>
</svg>
