<?xml version="1.0" encoding="utf-8"?>
<!-- Generator: Adobe Illustrator 26.0.1, SVG Export Plug-In . SVG Version: 6.00 Build 0)  -->
<svg version="1.1" id="mouth" xmlns="http://www.w3.org/2000/svg" xmlns:xlink="http://www.w3.org/1999/xlink" x="0px" y="0px"
	 viewBox="0 0 1000 1000" style="enable-background:new 0 0 1000 1000;" xml:space="preserve">
<style type="text/css">
	.st0{fill:#422E4C;}
	.st1{fill:#FFFFFF;}
</style>
<path id="blacks"
d="M542.5,600.7c-2.4-3.8-8.1-4.3-12.1-4.6c-2.7-0.2-3.3,0.2-2.2,2.4c1.1,2.1,3.4,3.7,5.8,4.8
	c-3.8,2.4-9.1,3.8-13.3,4.7c-6-0.4-12.6-1.8-21.3-1.8c-8.3,0-14.6,1.2-20.4,1.7c-4.2-0.8-9.3-2.3-13-4.6c2.3-1.1,4.7-2.7,5.8-4.8
	c1.1-2.2,0.5-2.7-2.2-2.4c-4.1,0.4-9.7,0.8-12.1,4.6c-2.1,3.3-1.6,8.4-0.6,12c1.4,5.4,2.9,0,4.2-5.6c1.6,1.6,4.7,4,10.6,6.8
	c10.6,5.1,25.1,4.1,28.3,3.9c3.2,0.3,17.7,1.2,28.3-3.9c5.9-2.8,9-5.2,10.6-6.8c1.3,5.5,2.8,10.9,4.2,5.6
	C544.1,609.1,544.6,604,542.5,600.7z"/>
<g id="whites">
	<path 
d="M516.7,610.1c0,0.2,0,0.5,0,0.7c0,13.1-2.6,17.9-12,17.6c-5.7-0.2-4.3-4.2-4.3-17
		C505.8,610.6,511.3,610.1,516.7,610.1z"/>
	<path 
d="M483.3,610.1c0,0.2,0,0.5,0,0.7c0,13.1,2.6,17.9,12,17.6c5.7-0.2,4.3-4.2,4.3-17
		C494.2,610.6,488.7,610.1,483.3,610.1z"/>
</g>
</svg>
