<?xml version="1.0" encoding="utf-8"?>
<!-- Generator: Adobe Illustrator 26.0.1, SVG Export Plug-In . SVG Version: 6.00 Build 0)  -->
<svg version="1.1" id="mouth" xmlns="http://www.w3.org/2000/svg" xmlns:xlink="http://www.w3.org/1999/xlink" x="0px" y="0px"
	 viewBox="0 0 1000 1000" style="enable-background:new 0 0 1000 1000;" xml:space="preserve">
<style type="text/css">
	.st0{fill:#422E4C;}
</style>
<path id="blacks" d="M532.4,605c-0.9-1.6-2.9-2.3-4.6-1.4c-1.1,0.6-1.7,1.7-1.8,2.8c-0.7,0.2-1.5,0.5-2.4,0.8
	c-1.1,0.3-2.3,0.7-3.7,1c-1.3,0.4-2.8,0.7-4.4,1.1c-0.8,0.2-1.6,0.4-2.4,0.5c-0.8,0.1-1.7,0.3-2.5,0.4c-1.7,0.4-3.5,0.4-5.3,0.6
	c-0.9,0.1-1.8,0.1-2.7,0.2c-0.9,0-1.8,0.1-2.7,0.1c-1.8,0-3.7,0-5.5-0.2c-1.8-0.1-3.6-0.4-5.3-0.6c-1.7-0.3-3.4-0.5-4.9-0.9
	c-1.6-0.3-3-0.7-4.4-1.1c-1.3-0.4-2.6-0.7-3.7-1.1c-0.5-0.2-1.1-0.3-1.5-0.5c-0.3-0.1-0.5-0.2-0.8-0.3c0-1.1-0.6-2.3-1.6-2.9
	c-1.6-1-3.7-0.5-4.6,1.1c-1,1.6-0.5,3.7,1.1,4.6c1.1,0.7,2.5,0.6,3.6-0.1c0.3,0.2,0.5,0.3,0.9,0.5c0.5,0.3,0.9,0.5,1.5,0.9
	c1.1,0.6,2.3,1.2,3.7,1.8c1.4,0.6,2.9,1.2,4.5,1.8c1.6,0.6,3.4,1,5.2,1.5c1.9,0.3,3.8,0.8,5.8,0.9c2,0.3,4,0.3,6,0.4
	c1,0,2-0.1,3-0.1c1-0.1,2-0.1,3-0.2c2-0.3,3.9-0.5,5.8-1c0.9-0.2,1.8-0.5,2.7-0.7c0.9-0.2,1.7-0.6,2.5-0.8c1.6-0.6,3.2-1.1,4.5-1.8
	c1.3-0.6,2.6-1.2,3.7-1.8c0.9-0.5,1.6-1,2.3-1.4c1,0.7,2.4,0.9,3.6,0.3C532.7,608.7,533.3,606.7,532.4,605z"/>
</svg>
