<?xml version="1.0" encoding="utf-8"?>
<!-- Generator: Adobe Illustrator 26.0.1, SVG Export Plug-In . SVG Version: 6.00 Build 0)  -->
<svg version="1.1" id="mouth" xmlns="http://www.w3.org/2000/svg" xmlns:xlink="http://www.w3.org/1999/xlink" x="0px" y="0px"
	 viewBox="0 0 1000 1000" style="enable-background:new 0 0 1000 1000;" xml:space="preserve">
<g id="XMLID_634_">
	<path id="whites" d="M513.6,613.7c0,0,9.5-28.1,12.6-16.6c3,11.5,0.9,23,0.9,23L513.6,613.7z"/>
	<g id="blacks">
		<path d="M531.6,620.2L531.6,620.2c-0.1-0.1-0.3-0.2-0.6-0.5c-0.4-0.3-1-0.7-1.7-1.2s-1.7-1.1-2.7-1.8c-1.1-0.7-2.3-1.4-3.6-2.1
			c-0.7-0.4-1.4-0.8-2.1-1.2c-0.7-0.4-1.5-0.8-2.3-1.2c-1.6-0.8-3.3-1.6-5-2.4c-1.8-0.7-3.7-1.5-5.6-2.1c-2-0.6-4-1.3-6-1.7
			l-1.5-0.4l-1.6-0.3c-1.1-0.2-2.1-0.4-3.2-0.5c-0.6-0.1-1.1-0.1-1.7-0.2c-0.3,0-0.6-0.1-0.8-0.1h-0.7c-0.5,0-1,0-1.4,0h-0.7h-0.2
			H490l0,0l0,0h-0.1h-0.4c-1.1,0.1-2.1,0.1-3.1,0.3s-2,0.4-3,0.7s-1.9,0.6-2.8,1.1c-0.5,0.2-0.9,0.4-1.3,0.7s-0.8,0.6-1.2,0.9
			c-1.5,1.2-2.8,2.7-3.4,4.3c-0.7,1.5-0.9,2.9-0.8,4c0,1.1,0.2,1.9,0.4,2.5c0.1,0.3,0.2,0.5,0.2,0.7c0.1,0.2,0.1,0.2,0.1,0.2
			l0.3,0.3c0.2,0.3,0.6,0.4,1,0.5c0.7,0,1.3-0.5,1.4-1.3c0,0,0-0.1,0-0.2c0-0.1,0.1-0.2,0.1-0.4c0.1-0.4,0.3-0.9,0.6-1.6
			c0.3-0.6,0.8-1.3,1.4-1.8c0.6-0.6,1.4-1,2.4-1.5c0.2-0.1,0.5-0.2,0.8-0.3s0.6-0.1,0.9-0.2c0.6-0.2,1.3-0.3,1.9-0.4
			c0.3-0.1,0.7-0.1,1.1-0.1s0.7-0.1,1.1-0.1c0.8-0.1,1.6-0.1,2.4-0.1h0.3h0.1l0,0h0.1h0.7c0.5,0,1,0,1.4,0h0.7c0.2,0,0.4,0,0.6,0.1
			c0.4,0,0.8,0.1,1.2,0.1c0.8,0,1.7,0.2,2.6,0.3l1.4,0.2l1.4,0.3c0.9,0.2,1.8,0.3,2.8,0.6c0.9,0.2,1.8,0.4,2.8,0.7
			c0.9,0.2,1.8,0.5,2.7,0.7c0.9,0.3,1.8,0.5,2.6,0.8c1.7,0.5,3.4,1.1,5,1.6c1.6,0.5,3.1,1.1,4.5,1.6s2.7,1,3.8,1.4s2.1,0.8,3,1.1
			c0.8,0.3,1.5,0.5,1.9,0.7c0.5,0.2,0.7,0.2,0.7,0.2c0.7,0.2,1.5,0,2-0.6C532.5,621.8,532.3,620.7,531.6,620.2z"/>
		<path d="M507.8,624.7c0,0-0.1,0-0.2-0.1s-0.4-0.2-0.6-0.3c-0.5-0.2-1.3-0.5-2.3-0.8c-0.5-0.2-1-0.2-1.5-0.4
			c-0.5-0.1-1.1-0.2-1.7-0.3s-1.2-0.2-1.8-0.3c-0.6-0.1-1.3-0.1-1.9-0.2c-0.6-0.1-1.3-0.1-1.9-0.1s-1.3-0.1-1.9-0.1
			c-1.2,0-2.3,0.1-3.3,0.3s-1.8,0.4-2.3,0.6c-0.5,0.2-0.8,0.4-0.8,0.4c-0.1,0.1-0.2,0.2-0.2,0.3c-0.1,0.3,0.1,0.6,0.4,0.7
			c0,0,0.3,0.1,0.9,0.2c0.6,0.1,1.3,0.2,2.2,0.3c0.9,0.1,2,0.2,3.2,0.2s2.4,0.1,3.6,0.1c1.2,0.1,2.5,0.1,3.6,0.2
			c1.2,0.1,2.2,0.1,3.2,0.2c0.9,0.1,1.7,0.1,2.2,0.2c0.3,0,0.4,0.1,0.6,0.1c0.1,0,0.2,0,0.2,0h0.1c0.3,0,0.5-0.1,0.7-0.3
			C508.2,625.3,508.1,624.9,507.8,624.7z"/>
	</g>
</g>
</svg>
