<?xml version="1.0" encoding="utf-8"?>
<!-- Generator: Adobe Illustrator 26.0.1, SVG Export Plug-In . SVG Version: 6.00 Build 0)  -->
<svg version="1.1" id="mouth" xmlns="http://www.w3.org/2000/svg" xmlns:xlink="http://www.w3.org/1999/xlink" x="0px" y="0px"
	 viewBox="0 0 1000 1000" style="enable-background:new 0 0 1000 1000;" xml:space="preserve">
<style type="text/css">
	.st0{fill:#422F4C;}
	.st1{fill:#E254C0;}
</style>
<g id="XMLID_649_">
	<path id="blacks" 
d="M545.6,596.6c-4-1.3-7.8,1.2-8.4,2.9c-0.1,0.4-0.1,0.7,0.1,1c0,0,0,0,0,0
		c-0.3,0.3-0.7,0.7-1.1,1.1c-0.8,0.8-1.8,1.7-3,2.7c-1.2,0.9-2.5,1.7-4,2.3c-1.5,0.6-3,0.8-4.8,0.8c-1.8-0.1-3.8-0.6-6.2-1.3
		c-2.3-0.7-4.9-1.8-7.9-2.8c-1.5-0.5-3.1-1-4.9-1.4c-0.4-0.1-0.9-0.2-1.4-0.3c-0.5-0.1-0.9-0.1-1.5-0.2l-0.9-0.1l-0.4,0l-0.3,0
		l-1.1,0l-0.1,0l-0.1,0c-0.2,0,0.3,0,0.2,0l0,0l-0.4,0l-0.8,0c-0.5,0-1,0.1-1.5,0.1c-1,0.1-1.9,0.2-2.8,0.4
		c-1.8,0.4-3.4,0.9-4.9,1.4c-3,1-5.5,2.1-7.9,2.8c-2.3,0.7-4.4,1.2-6.2,1.3c-1.8,0.1-3.3-0.2-4.8-0.8c-1.4-0.6-2.8-1.4-4-2.3
		c-1.1-0.9-2.2-1.9-2.9-2.7c-0.4-0.4-0.7-0.8-1-1.1c0,0-0.1-0.1-0.1-0.1c0.2-0.3,0.3-0.6,0.1-1c-0.5-1.7-4.4-4.2-8.4-2.9
		c-4,1.3-6.6,5.8-6.1,7.5c0.5,1.5,3.2,0.3,6.5-0.8c0.1,0.1,0.2,0.4,0.4,0.8c0.2,0.3,0.4,0.7,0.6,1.1c0.3,0.5,0.7,1.1,1.1,1.7
		c0.8,1.3,1.9,2.7,3.3,4.3c1.5,1.5,3.4,3.2,5.9,4.6c1.2,0.7,2.5,1.2,3.9,1.6c3.7,7.6,15.7,13.2,29.9,13.2c14.2,0,26.2-5.6,29.9-13.2
		c1.4-0.5,2.7-1,3.9-1.6c2.5-1.4,4.4-3.1,5.9-4.6c1.4-1.6,2.5-3,3.3-4.2c0.4-0.6,0.7-1.1,1-1.6c0.3-0.5,0.5-0.9,0.7-1.2
		c0.2-0.4,0.3-0.6,0.4-0.8c3.3,1.2,6.1,2.3,6.5,0.8C552.2,602.4,549.6,597.9,545.6,596.6z"/>
	<path id="uncustom" class="st1" d="M519.4,616.2c-2.1-2.9-11.8-2.8-19.4-0.6c-7.6-2.2-17.2-2.2-19.4,0.6c-2.2,2.9,2.3,24,9.9,26.3
		c3.1,0.9,6.2,1.4,9,1.4c0.2,0,0.3,0,0.5,0c0.2,0,0.3,0,0.5,0c2.8,0,5.9-0.5,9-1.4C517.1,640.2,521.5,619.1,519.4,616.2z"/>
</g>
</svg>
