<?xml version="1.0" encoding="utf-8"?>
<!-- Generator: Adobe Illustrator 26.0.1, SVG Export Plug-In . SVG Version: 6.00 Build 0)  -->
<svg version="1.1" id="mouth" xmlns="http://www.w3.org/2000/svg" xmlns:xlink="http://www.w3.org/1999/xlink" x="0px" y="0px"
	 viewBox="0 0 1000 1000" style="enable-background:new 0 0 1000 1000;" xml:space="preserve">
<style type="text/css">
	.st0{fill:#33192E;}
	.st1{fill:#FFFFFF;}
</style>
<g id="blacks">
	<path d="M553.8,620l-0.5,0.5c0,0-0.1,0.1-0.1,0.1c-0.1,0.1-0.2,0.2-0.4,0.4c-0.4,0.3-1,0.7-1.9,1.1
		c-0.9,0.3-2.2,0.5-3.9,0.5c-1.7,0-3.9-0.4-6.3-1c-2.4-0.6-5.1-1.5-7.9-2.6c-2.8-1.1-5.8-2.4-8.9-3.7c-3.1-1.4-6.3-2.9-9.7-4.4
		c-1.7-0.7-3.4-1.5-5.2-2.2c-0.8-0.3-1.5-0.6-2.4-0.9c-0.6-11.1-3.3-19.6-6.5-19.6c-3.3,0-6,8.4-6.5,19.6c-0.8,0.3-1.6,0.6-2.4,0.9
		c-1.8,0.7-3.6,1.5-5.2,2.2c-3.4,1.5-6.6,3-9.7,4.4c-3.1,1.3-6.1,2.7-8.9,3.7c-2.8,1.1-5.5,2-7.9,2.6c-2.4,0.6-4.6,1-6.3,1
		c-1.7,0-3.1-0.2-3.9-0.5c-0.9-0.3-1.5-0.7-1.9-1.1c-0.2-0.2-0.3-0.3-0.4-0.4c-0.1-0.1-0.1-0.1-0.1-0.1l-0.5-0.5
		c-1.5-1.5-3.9-1.5-5.4,0c-1.3,1.3-1.5,3.2-0.6,4.7c0,0,0.1,0.1,0.2,0.4c0.2,0.3,0.4,0.7,0.8,1.2c0.7,1,2,2.4,4,3.5
		c2,1.2,4.6,1.9,7.3,2.2c2.8,0.3,5.7,0.1,8.7-0.4c3-0.5,6.2-1.2,9.4-2.2c3.2-1,6.5-2.1,9.8-3.4c3.3-1.3,6.7-2.7,10-4.1
		c1.7-0.7,3.3-1.4,4.9-2c0.8-0.3,1.6-0.6,2.3-0.8c0.7-0.2,1.7-0.4,2.2-0.5c0.5,0.1,1.4,0.3,2.2,0.5c0.7,0.2,1.5,0.5,2.3,0.8
		c1.6,0.6,3.3,1.3,4.9,2c3.3,1.4,6.7,2.8,10,4.1c3.3,1.3,6.6,2.4,9.8,3.4c3.2,1,6.3,1.7,9.4,2.2c3,0.5,6,0.6,8.7,0.4
		c2.8-0.2,5.3-1,7.3-2.2c2-1.1,3.3-2.5,4-3.5c0.4-0.5,0.6-0.9,0.8-1.2c0.2-0.3,0.2-0.4,0.2-0.4c0.9-1.5,0.7-3.4-0.6-4.7
		C557.7,618.5,555.3,618.5,553.8,620z M500.1,618.4L500.1,618.4L500.1,618.4L500.1,618.4z M500.1,618.4
		C500.1,618.4,500.1,618.4,500.1,618.4L500.1,618.4C500.1,618.4,500.1,618.4,500.1,618.4z"/>
	<path   d="M500,634.5c-11.7,0-21.2-5.7-21.2-2.5c0,3.2,9.5,14,21.2,14c11.7,0,21.2-10.9,21.2-14
		C521.3,628.8,511.8,634.5,500,634.5z"/>
	<path   d="M470.7,592.5c0.6-0.4,0.5-1.4-0.1-2.3c-0.6-0.8-1.6-1.1-2.2-0.7c-0.6,0.4-0.5,1.4,0.1,2.3
		C469.1,592.6,470.1,592.9,470.7,592.5z"/>
	<path   d="M465.6,595.8c0.6-0.5,0.6-1.6-0.1-2.5c-0.7-0.9-1.8-1.2-2.4-0.8c-0.6,0.5-0.6,1.6,0.1,2.5
		C463.9,595.9,465,596.3,465.6,595.8z"/>
	<path   d="M460.8,599.3c0.8-0.6,0.8-2.1-0.1-3.2c-0.9-1.2-2.3-1.6-3.1-1c-0.8,0.6-0.8,2.1,0.1,3.2
		C458.6,599.5,459.9,599.9,460.8,599.3z"/>
	<path   d="M453.7,602.6c0.7-0.5,0.7-1.7-0.1-2.7c-0.7-1-1.9-1.3-2.6-0.8c-0.7,0.5-0.7,1.7,0.1,2.7
		C451.9,602.8,453,603.1,453.7,602.6z"/>
	<path   d="M446.1,605.8c0.4-0.3,0.4-1,0-1.5s-1.1-0.7-1.4-0.4c-0.4,0.3-0.4,1,0,1.5S445.7,606.1,446.1,605.8z"/>
	<path   d="M464.6,585.2c0.6-0.2,0.8-1.2,0.4-2c-0.4-0.9-1.1-1.4-1.7-1.1c-0.6,0.2-0.8,1.2-0.4,2
		C463.3,584.9,464,585.4,464.6,585.2z"/>
	<path   d="M459.5,586.9c0.7-0.3,0.9-1.3,0.5-2.3c-0.4-1-1.3-1.5-2-1.3c-0.7,0.3-0.9,1.3-0.5,2.3
		C458,586.6,458.9,587.1,459.5,586.9z"/>
	<path   d="M454.6,588.8c0.9-0.4,1.1-1.7,0.6-2.9c-0.5-1.3-1.6-2-2.5-1.6c-0.9,0.4-1.1,1.7-0.6,2.9
		C452.6,588.4,453.7,589.2,454.6,588.8z"/>
	<path   d="M447.8,590.2c0.8-0.3,1-1.5,0.6-2.6c-0.5-1.1-1.5-1.8-2.3-1.5c-0.8,0.3-1,1.5-0.6,2.6
		C446,589.9,447,590.5,447.8,590.2z"/>
	<path   d="M440.5,591.4c0.5-0.2,0.7-1,0.4-1.8c-0.3-0.8-1-1.2-1.6-1c-0.5,0.2-0.7,1-0.4,1.8
		C439.3,591.2,440,591.6,440.5,591.4z"/>
	<path   d="M473.9,599c0.7,0.5,1.6,0.6,1.9,0.1c0.4-0.5,0.1-1.3-0.6-1.8c-0.7-0.5-1.6-0.6-1.9-0.1
		C472.9,597.7,473.2,598.5,473.9,599z"/>
	<path   d="M469.6,600.7c-0.4,0.5-0.1,1.5,0.7,2c0.8,0.6,1.8,0.6,2.2,0.1c0.4-0.5,0.1-1.5-0.7-2S470,600.2,469.6,600.7z"
		/>
	<path   d="M466.6,606.6c1,0.7,2.3,0.8,2.8,0.1c0.5-0.7,0.1-1.9-0.9-2.6c-1-0.7-2.3-0.8-2.8-0.1
		C465.2,604.7,465.6,605.9,466.6,606.6z"/>
	<path   d="M462.2,610.8c0.8,0.6,1.7,0.6,2.2,0.1c0.4-0.5,0.1-1.4-0.7-2c-0.8-0.6-1.7-0.6-2.2-0.1
		C461.2,609.3,461.5,610.2,462.2,610.8z"/>
	<path   d="M457.3,613.9c-0.3,0.3-0.1,0.9,0.4,1.3s1.1,0.4,1.3,0.1c0.3-0.3,0.1-0.9-0.4-1.3
		C458.2,613.6,457.6,613.6,457.3,613.9z"/>
	<path   d="M531.6,591.8c0.6-0.8,0.6-1.8,0.1-2.3c-0.6-0.4-1.5-0.1-2.2,0.7c-0.6,0.8-0.6,1.8-0.1,2.3
		C530,592.9,531,592.6,531.6,591.8z"/>
	<path   d="M536.9,595c0.7-0.9,0.7-2,0.1-2.5c-0.6-0.5-1.7-0.2-2.4,0.8c-0.7,0.9-0.7,2-0.1,2.5S536.2,595.9,536.9,595z"/>
	<path   d="M542.4,598.3c0.9-1.2,0.9-2.6,0.1-3.2c-0.8-0.6-2.2-0.2-3.1,1c-0.9,1.2-0.9,2.6-0.1,3.2
		C540.1,599.9,541.5,599.5,542.4,598.3z"/>
	<path   d="M546.4,599.9c-0.7,1-0.8,2.2-0.1,2.7c0.7,0.5,1.8,0.2,2.6-0.8c0.7-1,0.8-2.2,0.1-2.7
		C548.3,598.6,547.2,598.9,546.4,599.9z"/>
	<path   d="M554,605.8c0.4,0.3,1,0.1,1.4-0.4s0.4-1.2,0-1.5c-0.4-0.3-1-0.1-1.4,0.4S553.6,605.5,554,605.8z"/>
	<path   d="M535.4,585.2c0.6,0.2,1.4-0.3,1.7-1.1c0.4-0.9,0.2-1.8-0.4-2s-1.4,0.3-1.7,1.1
		C534.7,584,534.8,584.9,535.4,585.2z"/>
	<path   d="M540.5,586.9c0.7,0.3,1.5-0.3,2-1.3c0.4-1,0.2-2-0.5-2.3c-0.7-0.3-1.5,0.3-2,1.3
		C539.7,585.6,539.9,586.6,540.5,586.9z"/>
	<path   d="M545.5,588.8c0.9,0.4,2-0.4,2.5-1.6c0.5-1.3,0.2-2.6-0.6-2.9c-0.9-0.4-2,0.4-2.5,1.6
		C544.4,587.2,544.7,588.5,545.5,588.8z"/>
	<path   d="M552.3,590.2c0.8,0.3,1.8-0.3,2.3-1.5c0.5-1.1,0.2-2.3-0.6-2.6c-0.8-0.3-1.8,0.3-2.3,1.5
		C551.3,588.7,551.5,589.9,552.3,590.2z"/>
	<path   d="M560.7,588.6c-0.5-0.2-1.2,0.2-1.6,1c-0.3,0.8-0.2,1.6,0.4,1.8c0.5,0.2,1.2-0.2,1.6-1
		C561.5,589.6,561.3,588.8,560.7,588.6z"/>
	<path   d="M526.2,599c0.7-0.5,1-1.3,0.6-1.8c-0.4-0.5-1.2-0.4-1.9,0.1c-0.7,0.5-1,1.3-0.6,1.8
		C524.7,599.6,525.5,599.5,526.2,599z"/>
	<path   d="M529.8,602.7c0.8-0.6,1.1-1.5,0.7-2c-0.4-0.5-1.4-0.5-2.2,0.1c-0.8,0.6-1.1,1.5-0.7,2
		C528,603.4,529,603.3,529.8,602.7z"/>
	<path   d="M530.7,606.7c0.5,0.7,1.8,0.6,2.8-0.1c1-0.7,1.4-1.9,0.9-2.6c-0.5-0.7-1.8-0.6-2.8,0.1
		C530.5,604.9,530.1,606,530.7,606.7z"/>
	<path   d="M535.7,610.9c0.4,0.5,1.4,0.5,2.2-0.1s1.1-1.5,0.7-2c-0.4-0.5-1.4-0.5-2.2,0.1
		C535.6,609.4,535.3,610.3,535.7,610.9z"/>
	<path   d="M541.4,614c-0.5,0.4-0.7,0.9-0.4,1.3c0.3,0.3,0.9,0.3,1.3-0.1s0.7-0.9,0.4-1.3
		C542.5,613.6,541.9,613.6,541.4,614z"/>
</g>
<path id="whites"    d="M508.9,624.5c-0.1,0.8-1.8,1.1-3.6,0.8c-1.9-0.3-3.3-1.3-3.1-2c0.1-0.8,1.8-1.1,3.6-0.8
	C507.7,622.8,509.1,623.8,508.9,624.5z"/>
</svg>
