<?xml version="1.0" encoding="utf-8"?>
<!-- Generator: Adobe Illustrator 26.0.1, SVG Export Plug-In . SVG Version: 6.00 Build 0)  -->
<svg version="1.1" id="blacks" xmlns="http://www.w3.org/2000/svg" xmlns:xlink="http://www.w3.org/1999/xlink" x="0px" y="0px"
	 viewBox="0 0 1000 1000" style="enable-background:new 0 0 1000 1000;" xml:space="preserve">
<style type="text/css">
	.st0{fill:#490617;}
</style>
<path d="M537.4,607c-2.5-1.7-6.4-1.5-8,1.1c-0.9,1.5-0.7,3,0.1,4.3c-5.6,2.2-16-3-28-3c-12,0-22.4,5.2-28,3
	c0.8-1.3,1.1-2.8,0.1-4.3c-1.6-2.6-5.5-2.7-8-1.1c-2.5,1.7-2.8,4.5-1.2,7.1c1.5,2.3,3.5,2.4,5.7,1.2c3.6,5.4,16.3,13.1,31.3,13.1
	c15.1,0,27.7-7.7,31.3-13.1c2.3,1.3,4.2,1.1,5.7-1.2C540.3,611.5,540,608.7,537.4,607z"/>
<path 
d="M542.7,599c-1.5,0,3.2,5.4,3.2,11.3c0,5.9-4.7,10.1-3.2,10.1c1.5,0,8.7-4.2,8.7-10.1
	C551.3,604.4,544.2,599,542.7,599z"/>
<path 
d="M460.5,599c-1.5,0-8.7,5.4-8.7,11.3c0,5.9,7.2,10.1,8.7,10.1c1.5,0-3.2-4.2-3.2-10.1
	C457.2,604.4,462,599,460.5,599z"/>
</svg>
