<?xml version="1.0" encoding="utf-8"?>
<!-- Generator: Adobe Illustrator 26.0.1, SVG Export Plug-In . SVG Version: 6.00 Build 0)  -->
<svg version="1.1" id="blacks" xmlns="http://www.w3.org/2000/svg" xmlns:xlink="http://www.w3.org/1999/xlink" x="0px" y="0px"
	 viewBox="0 0 1000 1000" style="enable-background:new 0 0 1000 1000;" xml:space="preserve">
<style type="text/css">
	.st0{fill:#18162D;}
	.st1{fill:#DAE1EA;}
</style>
<g id="blacks_00000029727228226872060340000014750009064479238585_">
	<path   d="M540.8,603.4c-1-2.9-5.4-4.2-6.2-3.9c-0.7,0.3,2.5,2,3.5,4.9c1,2.9-0.6,5.7,0.2,5.4
		C539,609.6,541.8,606.3,540.8,603.4z"/>
	<path   d="M467.1,599.5c-0.7-0.3-5.1,1.1-6.2,3.9c-1,2.9,1.7,6.1,2.5,6.4c0.7,0.3-0.8-2.6,0.2-5.4
		C464.6,601.5,467.8,599.8,467.1,599.5z"/>
	<path   d="M529.9,604.8c-1.7-0.6-3.5,0.3-4.1,2c0,0-0.1,0.3-0.3,0.8c-0.1,0.2-0.2,0.5-0.3,0.9c-0.1,0.4-0.3,0.8-0.4,1.1
		c-0.2,0.4-0.4,0.8-0.6,1.3c-0.2,0.5-0.5,1-0.8,1.6c-0.6,1.1-1.3,2.3-2.3,3.5c-0.5,0.6-1,1.2-1.6,1.8c-0.6,0.6-1.2,1.2-1.9,1.7
		c-1.3,1.2-3,2.1-4.7,3c-1.8,0.8-3.7,1.4-5.8,1.9c-2,0.4-4.2,0.5-6.3,0.6c-2.2-0.1-4.3-0.2-6.3-0.6c-2-0.4-4-1-5.8-1.8
		c-1.8-0.9-3.4-1.8-4.7-3c-0.7-0.5-1.3-1.2-1.9-1.7c-0.5-0.6-1.1-1.2-1.6-1.8c-1-1.2-1.7-2.4-2.3-3.5c-0.3-0.6-0.6-1.1-0.8-1.6
		c-0.2-0.5-0.4-1-0.6-1.4c-0.4-0.8-0.5-1.5-0.7-2c-0.2-0.5-0.2-0.7-0.2-0.7l0-0.1c-0.1-0.3-0.3-0.6-0.5-0.9c-1-1.4-3-1.7-4.5-0.7
		c-1.4,1-1.7,3-0.7,4.5c0,0,0.2,0.2,0.5,0.7c0.3,0.4,0.8,1.1,1.4,1.9c0.6,0.8,1.4,1.8,2.3,2.9c0.4,0.6,1,1.1,1.5,1.7
		c0.5,0.6,1.2,1.2,1.8,1.8c0.6,0.6,1.4,1.2,2.1,1.8c0.8,0.5,1.5,1.2,2.4,1.7c1.7,1.1,3.6,2,5.6,2.8c2,0.8,4.2,1.3,6.3,1.6
		c0.5,0.1,1.1,0.1,1.7,0.2c0.6,0.1,1.1,0.1,1.7,0.1c1.2,0.1,2.2,0.1,3.3,0.1c2.2,0,4.5-0.1,6.7-0.5c2.2-0.4,4.3-0.9,6.3-1.6
		c2-0.8,3.9-1.7,5.6-2.8c0.9-0.5,1.6-1.1,2.4-1.7c0.7-0.6,1.5-1.1,2.1-1.8c0.6-0.6,1.3-1.2,1.8-1.8c0.5-0.6,1.1-1.1,1.5-1.7
		c0.9-1.1,1.7-2.1,2.3-2.9c1.2-1.6,1.8-2.5,1.8-2.5l0,0c0.2-0.3,0.3-0.6,0.5-0.9C532.5,607.2,531.5,605.4,529.9,604.8z"/>
</g>
<path id="skin2-L" d="M512.3,637.4c0,2.4-5.1,9.3-11.5,9.3c-6.3,0-11.5-6.9-11.5-9.3c0-2.4,5.1-4.3,11.5-4.3
	C507.2,633.1,512.3,635.1,512.3,637.4z"/>
</svg>
