<?xml version="1.0" encoding="utf-8"?>
<!-- Generator: Adobe Illustrator 26.0.1, SVG Export Plug-In . SVG Version: 6.00 Build 0)  -->
<svg version="1.1" id="blacks" xmlns="http://www.w3.org/2000/svg" xmlns:xlink="http://www.w3.org/1999/xlink" x="0px" y="0px"
	 viewBox="0 0 1000 1000" style="enable-background:new 0 0 1000 1000;" xml:space="preserve">
<style type="text/css">
	.st0{fill:#FFFFFF;}
	.st1{fill:#68062C;}
</style>
<g id="whites">
	<g id="XMLID_737_">
	</g>
	<path d="M508.1,618.2c-3.2,0.1-6-9.9-7.2-4.8c-1.3-5.1-4,4.9-7.2,4.8c-4.4-0.2-8-4.6-8,9.3c0,14,4.5,12.2,8.9,12.4
		c3,0.1,5.2-0.3,6.3-5.1c1.1,4.8,3.2,5.2,6.3,5.1c4.4-0.2,8.9,1.6,8.9-12.4C516.1,613.6,512.5,618,508.1,618.2z"/>
</g>
<g id="blacks_00000135665318545790503070000008148879096453750708_">
	<g>
		<g>
			<g>
				<g>
					<g>
						<g>
							<g>
								<path d="M536,612.7c-2.3-1.2-4.7,4.2-14.8,5.4c-10.1,1.2-20.4-9.4-20.4-9.4s-10.3,10.5-20.4,9.4
									c-10.1-1.2-12.4-6.6-14.8-5.4c-2.3,1.2,5.2,9.6,13.6,10.3c14.9,1.2,21.6-7,21.6-7s6.6,8.3,21.6,7
									C530.8,622.3,538.3,613.9,536,612.7z"/>
							</g>
						</g>
					</g>
				</g>
			</g>
		</g>
	</g>
</g>
</svg>
