<?xml version="1.0" encoding="utf-8"?>
<!-- Generator: Adobe Illustrator 26.0.1, SVG Export Plug-In . SVG Version: 6.00 Build 0)  -->
<svg version="1.1" id="blacks" xmlns="http://www.w3.org/2000/svg" xmlns:xlink="http://www.w3.org/1999/xlink" x="0px" y="0px"
	 viewBox="0 0 1000 1000" style="enable-background:new 0 0 1000 1000;" xml:space="preserve">
<style type="text/css">
	.st0{fill:#FFFFBB;}
	.st1{fill:#201A33;}
</style>
<g id="skin2-L">
	<path   d="M511.1,626.4c0-4.1-5.7-7.4-12.7-7.4s-12.7,3.3-12.7,7.4s5.7,10.8,12.7,10.8S511.1,630.5,511.1,626.4z"/>
	<path   d="M485,619.1c4.3,0.3,8-2,8.2-5.1s-3-8.5-7.4-8.7c-4.3-0.3-8.2,4.6-8.4,7.8S480.7,618.8,485,619.1z"/>
	<path   d="M457.1,615.4c3.8,1,7.4-0.4,8.1-3.1c0.7-2.8-1.3-8.2-5.1-9.2s-8,2.7-8.7,5.5S453.3,614.4,457.1,615.4z"/>
	<path   d="M432,607.3c3.5,1.4,7,0.5,8-2s-0.3-7.8-3.7-9.3c-3.5-1.4-7.8,1.6-8.8,4.2S428.6,605.9,432,607.3z"/>
	<path   d="M407.9,595.2c3,1.6,6.4,1.2,7.5-1s0.6-7.2-2.5-8.9s-7.4,0.7-8.5,2.9S404.8,593.5,407.9,595.2z"/>
	<path   d="M398.8,595.8c2-3.9,1.1-12.6-4-15.3c-5.1-2.8-12.6,1.4-14.6,5.2c-0.7,1.4-0.8,3-0.5,4.6
		c0.4,2.9,2.9,7.2,7.2,10.1c5.8,3.9,12.8,3.7,14.1,1.6c0.8-1.3-0.2-3.6-2.5-6C398.7,595.9,398.8,595.9,398.8,595.8z"/>
	<path   d="M481.7,625.7c0.5-3.7-4.8-7.4-11.7-8.3c-6.9-0.9-12.9,1.4-13.4,5.1s4.4,10.5,11.3,11.4
		C474.8,634.8,481.2,629.4,481.7,625.7z"/>
	<path   d="M453.2,622c0.9-3.3-3.9-7.5-10.6-9.3c-6.8-1.8-13-0.6-13.9,2.7c-0.9,3.3,3.1,10.3,9.9,12.1
		C445.3,629.3,452.3,625.3,453.2,622z"/>
	<path   d="M426.7,613.3c1.2-3.1-3.2-7.6-9.8-10.1c-6.5-2.5-12.8-2.1-13.9,1c-1.2,3.1,2.2,10.1,8.8,12.6
		C418.3,619.4,425.5,616.4,426.7,613.3z"/>
	<path   d="M511.9,619.1c4.3-0.3,7.7-3,7.5-6.1s-4-8-8.4-7.8c-4.3,0.3-7.5,5.6-7.4,8.7S507.5,619.4,511.9,619.1z"/>
	<path   d="M539.8,615.4c3.8-1,6.3-4.1,5.6-6.9s-4.9-6.5-8.7-5.5c-3.8,1-5.8,6.5-5.1,9.2S536,616.4,539.8,615.4z"/>
	<path   d="M564.9,607.3c3.5-1.4,5.5-4.6,4.5-7.1s-5.3-5.6-8.8-4.2c-3.5,1.4-4.7,6.7-3.7,9.3S561.4,608.7,564.9,607.3z"/>
	<path   d="M589.1,595.2c3-1.6,4.6-4.8,3.4-7c-1.1-2.2-5.5-4.6-8.5-2.9s-3.6,6.7-2.5,8.9
		C582.7,596.4,586,596.8,589.1,595.2z"/>
	<path   d="M616.6,585.7c-2-3.9-9.4-8-14.6-5.2c-5.1,2.8-6,11.5-4,15.3c0,0.1,0.1,0.2,0.1,0.2c-2.3,2.5-3.3,4.8-2.5,6
		c1.3,2,8.3,2.3,14.1-1.6c4.3-2.9,6.8-7.3,7.2-10.2C617.4,588.7,617.3,587.1,616.6,585.7z"/>
	<path   d="M540.4,622.5c-0.5-3.7-6.5-6-13.4-5.1c-6.9,0.9-12.2,4.6-11.7,8.3c0.5,3.7,6.9,9.1,13.8,8.3
		C536,633.1,540.9,626.2,540.4,622.5z"/>
	<path   d="M554.3,612.6c-6.8,1.8-11.5,6-10.6,9.3c0.9,3.3,7.9,7.4,14.6,5.5c6.8-1.8,10.7-8.8,9.9-12.1
		C567.3,612.1,561.1,610.8,554.3,612.6z"/>
	<path   d="M580,603.2c-6.5,2.5-10.9,7-9.8,10.1c1.2,3.1,8.4,6.1,14.9,3.6c6.5-2.5,9.9-9.6,8.8-12.6
		C592.8,601.2,586.5,600.7,580,603.2z"/>
	<path   d="M577.5,620.3c-2.4-0.3-5.8,1.5-7.8,4.1c-1.9,2.6-1.6,5,0.8,5.4s5.8-1.5,7.8-4.1
		C580.3,623,579.9,620.6,577.5,620.3z"/>
	<path   d="M547.4,629.4c-3.8-0.1-8.8,2.1-11.3,4.9c-2.5,2.8-1.5,5.2,2.3,5.2s8.8-2.1,11.3-4.9
		C552.2,631.8,551.2,629.5,547.4,629.4z"/>
	<path   d="M515.4,632.7c-3.8-0.1-7.8,2.4-9,5.5s0.9,5.7,4.6,5.8c3.8,0.1,7.8-2.4,9-5.5S519.2,632.8,515.4,632.7z"/>
	<path   d="M601.6,605.1c-2,0.2-4.6,2.3-5.7,4.7c-1.1,2.4-0.4,4.3,1.7,4.1c2-0.2,4.6-2.3,5.7-4.7
		C604.4,606.8,603.7,604.9,601.6,605.1z"/>
	<path   d="M419.4,620.3c-2.4,0.3-2.7,2.7-0.8,5.4c1.9,2.6,5.4,4.5,7.8,4.1s2.7-2.7,0.8-5.4
		C425.2,621.8,421.7,619.9,419.4,620.3z"/>
	<path   d="M449.5,629.4c-3.8,0.1-4.8,2.4-2.3,5.2c2.5,2.8,7.6,5,11.3,4.9s4.8-2.4,2.3-5.2
		C458.3,631.5,453.2,629.3,449.5,629.4z"/>
	
		<ellipse transform="matrix(0.4113 -0.9115 0.9115 0.4113 -297.0805 816.6191)"   cx="483.6" cy="638.3" rx="5.2" ry="7.5"/>
	<path   d="M395.3,605.1c-2-0.2-2.8,1.7-1.7,4.1c1.1,2.4,3.6,4.5,5.7,4.7c2,0.2,2.8-1.7,1.7-4.1
		C399.8,607.4,397.3,605.3,395.3,605.1z"/>
</g>
<path id="blacks"
d="M611.5,584.1c-1.7-2.5-5.1-3.1-7.5-1.4
	l-0.2,0.1c0,0-0.7,0.5-2.1,1.4c-1.4,0.9-3.3,2.3-5.9,4c-1.3,0.8-2.8,1.7-4.4,2.7c-1.6,1-3.3,2-5.2,3c-1.9,1-3.9,2.1-6,3.3
	c-2.1,1.1-4.5,2.1-6.8,3.3c-1.2,0.6-2.4,1.1-3.7,1.6c-1.3,0.5-2.6,1.1-3.9,1.6c-0.7,0.3-1.3,0.6-2,0.8c-0.7,0.2-1.4,0.5-2.1,0.8
	c-1.4,0.5-2.8,1-4.2,1.5c-1.4,0.5-2.9,1-4.4,1.5c-1.5,0.5-3,0.9-4.5,1.4c-1.5,0.5-3.1,0.9-4.7,1.3c-0.8,0.2-1.6,0.4-2.4,0.6
	l-1.2,0.3l-1.2,0.3c-3.2,0.7-6.5,1.5-9.9,2c-1.7,0.3-3.4,0.6-5.1,0.8c-1.7,0.2-3.4,0.4-5.2,0.6c-6.8,0.7-13.7,1.1-20.6,1
	c-6.9,0.1-13.8-0.4-20.6-1c-1.7-0.2-3.4-0.4-5.2-0.6c-1.7-0.2-3.4-0.6-5.1-0.8c-3.4-0.5-6.7-1.3-9.9-2l-1.2-0.3l-1.2-0.3
	c-0.8-0.2-1.6-0.4-2.4-0.6c-1.6-0.4-3.1-0.8-4.7-1.3c-1.5-0.5-3-1-4.5-1.4c-1.5-0.5-3-0.9-4.4-1.5c-1.4-0.5-2.8-1-4.2-1.5
	c-0.7-0.3-1.4-0.5-2.1-0.8c-0.7-0.3-1.3-0.6-2-0.8c-1.3-0.6-2.6-1.1-3.9-1.6c-1.3-0.5-2.5-1.1-3.7-1.6c-2.4-1.2-4.7-2.2-6.8-3.3
	c-2.1-1.2-4.1-2.2-6-3.3c-1.9-1-3.6-2.1-5.2-3c-1.6-1-3-1.9-4.4-2.7c-2.6-1.7-4.6-3.1-5.9-4c-1.4-0.9-2.1-1.4-2.1-1.4l-0.2-0.1
	c-2.5-1.7-5.8-1.1-7.5,1.4c-1.7,2.5-1.1,5.8,1.4,7.5c0.2,0.1,0.4,0.3,0.6,0.4c0,0,3.3,1.7,8.9,4.7c1.4,0.7,3,1.5,4.8,2.3
	c1.8,0.8,3.6,1.8,5.6,2.7c2,0.9,4.2,1.9,6.5,2.9c2.3,0.9,4.8,1.9,7.3,3c5.1,2,10.7,3.9,16.7,5.8c1.5,0.5,3,0.9,4.6,1.3
	c1.6,0.4,3.1,0.9,4.7,1.3c1.6,0.4,3.2,0.7,4.9,1.1c0.8,0.2,1.6,0.4,2.5,0.6l1.2,0.3l1.3,0.2c3.4,0.6,6.8,1.4,10.3,1.8
	c1.7,0.2,3.5,0.6,5.3,0.7c1.8,0.2,3.5,0.4,5.3,0.6c7,0.7,14.1,1.1,21.2,1c7.1,0.1,14.2-0.3,21.2-1c1.8-0.2,3.6-0.4,5.3-0.6
	c1.8-0.2,3.5-0.5,5.3-0.7c3.5-0.5,6.9-1.2,10.3-1.8l1.3-0.2l1.2-0.3c0.8-0.2,1.6-0.4,2.5-0.6c1.6-0.4,3.3-0.7,4.9-1.1
	c1.6-0.4,3.2-0.9,4.7-1.3c1.6-0.4,3.1-0.8,4.6-1.3c6-1.9,11.6-3.8,16.7-5.8c2.5-1,5-2,7.3-3c2.3-1,4.5-2,6.5-2.9
	c2.1-0.9,3.9-1.9,5.6-2.7c1.7-0.8,3.3-1.6,4.8-2.3c5.7-3,8.9-4.7,8.9-4.7c0.2-0.1,0.4-0.2,0.6-0.4
	C612.5,590,613.2,586.6,611.5,584.1z"/>
</svg>
