<?xml version="1.0" encoding="utf-8"?>
<!-- Generator: Adobe Illustrator 26.0.1, SVG Export Plug-In . SVG Version: 6.00 Build 0)  -->
<svg version="1.1" id="mouth" xmlns="http://www.w3.org/2000/svg" xmlns:xlink="http://www.w3.org/1999/xlink" x="0px" y="0px"
	 viewBox="0 0 1000 1000" style="enable-background:new 0 0 1000 1000;" xml:space="preserve">
<style type="text/css">
	.st0{fill:#CCCCCC;}
	.st1{fill:#201A33;}
	.st2{fill:#5E152B;}
	.st3{fill:#FFFFFF;}
</style>
<g id="skin">
	
		<ellipse transform="matrix(0.2581 -0.9661 0.9661 0.2581 -235.1804 888.6587)"  cx="461" cy="597.5" rx="9.8" ry="15.4"/>
	
		<ellipse transform="matrix(0.9661 -0.2581 0.2581 0.9661 -136.0517 158.3839)"  cx="535.3" cy="597.5" rx="15.4" ry="9.8"/>
</g>
<path id="blacks" d="M537.6,594.1c-0.3-0.8-0.8-1.2-1.4-1.3c-1.9-0.8-18.2,6.4-38.1,6.4c-19.8,0-36.2-7.1-38.1-6.4
	c-0.5,0.1-1,0.5-1.4,1.3c-0.6,1.4-0.4,3.3,0.5,4.3c0.1,0.1,0.1,0.1,0.2,0.2c0,0,1.1,1,3.1,2.7c0.5,0.4,1.1,0.8,1.7,1.3
	c0.6,0.5,1.2,1,2,1.5c0.7,0.5,1.5,1.1,2.3,1.6c0.8,0.5,1.7,1.1,2.5,1.7c1.8,1.1,3.7,2.2,5.8,3.3c0.5,0.3,1.1,0.5,1.6,0.8
	c0.5,0.2,1.1,0.5,1.6,0.7c0.6,0.2,1.1,0.4,1.7,0.6c0.3,0.1,0.6,0.2,0.9,0.3l0.4,0.2l0.4,0.1c1.2,0.4,2.4,0.8,3.6,1
	c0.6,0.1,1.2,0.3,1.8,0.4c0.6,0.1,1.2,0.2,1.9,0.3c2.4,0.4,4.9,0.6,7.4,0.6c2.5,0.1,5-0.2,7.4-0.6c0.6-0.1,1.2-0.2,1.9-0.3
	c0.6-0.1,1.2-0.3,1.8-0.4c1.2-0.3,2.4-0.7,3.6-1l0.4-0.1l0.4-0.2c0.3-0.1,0.6-0.2,0.9-0.3c0.6-0.2,1.1-0.4,1.7-0.6
	c0.6-0.2,1.1-0.5,1.6-0.7c0.5-0.2,1.1-0.5,1.6-0.8c2.1-1.1,4-2.2,5.8-3.3c0.9-0.6,1.7-1.1,2.5-1.7c0.8-0.6,1.6-1.1,2.3-1.6
	c0.7-0.5,1.4-1.1,2-1.5c0.6-0.5,1.2-0.9,1.7-1.3c2-1.7,3.1-2.7,3.1-2.7c0.1-0.1,0.1-0.1,0.2-0.2C538,597.4,538.2,595.5,537.6,594.1z
	"/>
<path id="mouth_00000026152486676757413530000011241247734323913626_" class="st2" d="M523.7,602.4c0,1.4-11.1,8.4-25.2,8.4
	c-14.1,0-25.9-6.9-25.9-8.4c0-1.4,11.8,3.2,25.9,3.2C512.6,605.6,523.7,601,523.7,602.4z"/>
<g id="whites">
	<path class="st3" d="M519.5,603.2c1.3-0.2,2.7-0.5,4-0.7c-0.6,3-2.2,5.6-4.2,6.4c-1.9-0.1-3.4-2.1-3.8-5
		C516.9,603.7,518.2,603.5,519.5,603.2z"/>
	<path class="st3" d="M476.8,603.2c-1.3-0.2-2.7-0.5-4-0.7c0.6,3,2.2,5.6,4.2,6.4c1.9-0.1,3.4-2.1,3.8-5
		C479.5,603.7,478.1,603.5,476.8,603.2z"/>
</g>
</svg>
