<?xml version="1.0" encoding="utf-8"?>
<!-- Generator: Adobe Illustrator 26.0.1, SVG Export Plug-In . SVG Version: 6.00 Build 0)  -->
<svg version="1.1" id="mouth" xmlns="http://www.w3.org/2000/svg" xmlns:xlink="http://www.w3.org/1999/xlink" x="0px" y="0px"
	 viewBox="0 0 1000 1000" style="enable-background:new 0 0 1000 1000;" xml:space="preserve">
<style type="text/css">
	.st0{fill:#FEEEFF;}
	.st1{fill:#FBCCFF;}
	.st2{fill:#520163;}
	.st3{fill:#FFFFFF;}
</style>
<path id="skin2-L" 
d="M533.2,559.1c-5.5-16.6-20.8-35.5-33.2-35.6c-12.4,0-27.7,19-33.2,35.6
	c-6.7,2.3-10.4,12.6-8.2,23.7c1.2,6.2,4,11.3,7.4,14.4c0.2,0.7,0.5,1.4,0.7,2.2c5.5,14.2,20.8,30.5,33.2,30.5
	c12.5,0,27.7-16.3,33.2-30.5c0.3-0.7,0.5-1.4,0.7-2.2c3.4-3.1,6.2-8.2,7.4-14.4C543.6,571.7,539.9,561.4,533.2,559.1z"/>
<path id="skin2" d="M514.1,566c0,2.3-6.3,6.4-14.1,6.4s-14.1-4.1-14.1-6.4s6.3-1.9,14.1-1.9S514.1,563.7,514.1,566z"/>
<g id="blacks">
	<path d="M534.9,571.4c-2.7-0.7-6.6,4.7-8.6,12.1c-2,7.4-1.5,13.9,1.2,14.6c2.7,0.7,6.6-4.7,8.6-12.1
		C538.1,578.6,537.6,572.1,534.9,571.4z"/>
	<path d="M465.1,571.4c-2.7,0.7-3.3,7.2-1.2,14.6c2,7.4,5.9,12.8,8.6,12.1c2.7-0.7,3.3-7.2,1.2-14.6
		C471.7,576.1,467.9,570.7,465.1,571.4z"/>
	<path d="M500,609.9c-11.7,0-21.2-5.5-21.2-1.5s9.5,15.8,21.2,15.8c11.7,0,21.2-11.9,21.2-15.8S511.7,609.9,500,609.9z"
		/>
</g>
<path id="whites" 
d="M500,612.5c-3.5,0-6.8-0.3-9.8-0.7c-0.1,0.6-0.2,1.2-0.2,1.8c0,4.6,2.8,7.4,6.2,7.4
	c2,0,3.1-1,3.7-2.7c0.6,1.7,1.7,2.7,3.7,2.7c3.4,0,6.2-2.8,6.2-7.4c0-0.6-0.1-1.2-0.2-1.8C506.8,612.3,503.5,612.5,500,612.5z"/>
</svg>
