<?xml version="1.0" encoding="utf-8"?>
<!-- Generator: Adobe Illustrator 26.0.1, SVG Export Plug-In . SVG Version: 6.00 Build 0)  -->
<svg version="1.1" id="mouth" xmlns="http://www.w3.org/2000/svg" xmlns:xlink="http://www.w3.org/1999/xlink" x="0px" y="0px"
	 viewBox="0 0 1000 1000" style="enable-background:new 0 0 1000 1000;" xml:space="preserve">
<style type="text/css">
	.st0{fill:#8A9CD1;}
	.st1{fill:#33192E;}
	.st2{fill:#FFFFFF;}
	.st3{fill:#7784BB;}
</style>
<g id="skin-L">
	<path d="M555.2,596.4c0-23.8-17.7-114.9-45-128.2c-5.9-2.9-14.5-2.9-20.4,0c-27.3,13.3-45,104.4-45,128.2
		c0,24.4,30.6,34.5,55.2,34.5S555.2,620.9,555.2,596.4z"/>
</g>
<g id="blacks">
	
		<ellipse transform="matrix(0.9999 -1.391343e-02 1.391343e-02 0.9999 -7.9024 7.5153)" cx="536.2" cy="571.7" rx="8.4" ry="17.2"/>
	<path 
d="M534.7,548.5c3.5,0.3,6.2,3.2,6.3,2.1c0.1-1-2.4-5.5-5.9-5.8c-3.5-0.3-6.8,3.7-6.9,4.7
		C528.1,550.5,531.2,548.2,534.7,548.5z"/>
	
		<ellipse transform="matrix(1.391662e-02 -0.9999 0.9999 1.391662e-02 -114.2657 1027.5319)" cx="463.8" cy="571.7" rx="17.2" ry="8.4"/>
	<path 
d="M465.3,548.5c3.5-0.3,6.6,2,6.6,1c-0.1-1-3.3-5-6.9-4.7c-3.5,0.3-6,4.8-5.9,5.8
		C459.1,551.7,461.7,548.8,465.3,548.5z"/>
	<path 
d="M500,605.8c-18.4,0-33.4-5.9-33.4-0.8s14.9,19.2,33.4,19.2c18.4,0,33.4-14.1,33.4-19.2
		C533.4,599.9,518.4,605.8,500,605.8z"/>
</g>
<path id="whites" 
d="M500,607.2c-8,0-14.4-0.9-14.4-0.1c0,0.7,5.6,10.3,12.9,10.9c0.4-3.3,1-5.3,1.5-5.3
	s1.1,1.9,1.5,5.3c7.2-0.6,12.9-10.2,12.9-10.9C514.4,606.3,508,607.2,500,607.2z"/>
<path id="skin" 
d="M486.4,597.7c0-0.8,6.1,0.1,13.6,0.1c7.5,0,13.6-1,13.6-0.1c0,0.8-6.1,3.2-13.6,3.2
	S486.4,598.5,486.4,597.7z"/>
</svg>
