<?xml version="1.0" encoding="utf-8"?>
<!-- Generator: Adobe Illustrator 26.0.1, SVG Export Plug-In . SVG Version: 6.00 Build 0)  -->
<svg version="1.1" id="mouth" xmlns="http://www.w3.org/2000/svg" xmlns:xlink="http://www.w3.org/1999/xlink" x="0px" y="0px"
	 viewBox="0 0 1000 1000" style="enable-background:new 0 0 1000 1000;" xml:space="preserve">
<style type="text/css">
	.st0{fill:#4F0900;}
</style>
<g id="blacks">
	<path 
d="M509.5,601.5c-3.4-0.1-6.2-2.8-6.5-6.1c-0.6-5.6-1.6-9.4-2.8-9.4c-1.2,0-2.2,3.8-2.8,9.4
		c-0.4,3.4-3.1,6-6.5,6.1c-27.3,0.9-23.4,15.9-16.1,15.9c8.7,0,17.1-10.6,25.4-10.6s16.7,10.6,25.4,10.6
		C532.9,617.4,536.8,602.4,509.5,601.5z"/>
	<path 
d="M538.7,603.4c0.5,7.3-2.7,13.2-6.8,16.7C531.9,620.1,544.4,616.8,538.7,603.4z"/>
	<path 
d="M461.6,603.4c-5.6,13.4,6.8,16.7,6.8,16.7C464.3,616.5,461.1,610.7,461.6,603.4z"/>
</g>
</svg>
