<?xml version="1.0" encoding="utf-8"?>
<!-- Generator: Adobe Illustrator 19.2.0, SVG Export Plug-In . SVG Version: 6.00 Build 0)  -->
<svg version="1.0" id="bear" xmlns="http://www.w3.org/2000/svg" xmlns:xlink="http://www.w3.org/1999/xlink" x="0px" y="0px"
	 viewBox="0 0 1000 1000" enable-background="new 0 0 1000 1000" xml:space="preserve">
<g id="blacks">
	<g>
		<g>
			<g>
				<g>
					<path fill="#113D44" d="M455.94,618.59c-0.46,7.31,2.7,13.17,6.83,16.7C462.78,635.29,450.31,632.01,455.94,618.59z"/>
				</g>
			</g>
		</g>
	</g>
	<g>
		<g>
			<g>
				<g>
					<path fill="#113D44" d="M545.06,618.59c0.46,7.31-2.7,13.17-6.83,16.7C538.23,635.29,550.7,632.01,545.06,618.59z"/>
				</g>
			</g>
		</g>
	</g>
	<g>
		<g>
			<path fill="#113D44" d="M506.21,624.98c-2.24,0.08-4.13-1.68-4.23-3.92c-0.27-6.12-0.83-13.38-1.48-13.38
				c-0.65,0-1.21,7.26-1.48,13.38c-0.1,2.24-1.98,4-4.23,3.92c-18.46-0.66-32.62-4.16-32.62-1.42c0,3.02,17.16,12.48,38.33,12.48
				s38.33-9.45,38.33-12.48C538.83,620.81,524.67,624.31,506.21,624.98z"/>
		</g>
	</g>
</g>
<g id="whites">
	<g>
		<g>
			<g>
				<g>
					<path fill="#FFFFFF" d="M476.61,609.6c-2.47-0.34-5.36,4.35-7.16,11.11c-0.71,2.68,0.87,5.33,3.35,5.68l2.23,0.31
						c2.48,0.34,4.82-1.76,4.97-4.52C480.39,615.22,479.08,609.95,476.61,609.6z"/>
				</g>
			</g>
		</g>
	</g>
	<g>
		<g>
			<g>
				<g>
					<path fill="#FFFFFF" d="M524.39,609.6c2.47-0.34,5.36,4.35,7.16,11.11c0.71,2.68-0.87,5.33-3.35,5.68l-2.23,0.31
						c-2.48,0.34-4.82-1.76-4.97-4.52C520.62,615.22,521.92,609.95,524.39,609.6z"/>
				</g>
			</g>
		</g>
	</g>
</g>
</svg>
