<?xml version="1.0" encoding="utf-8"?>
<!-- Generator: Adobe Illustrator 26.0.1, SVG Export Plug-In . SVG Version: 6.00 Build 0)  -->
<svg version="1.1" id="mouth" xmlns="http://www.w3.org/2000/svg" xmlns:xlink="http://www.w3.org/1999/xlink" x="0px" y="0px"
	 viewBox="0 0 1000 1000" style="enable-background:new 0 0 1000 1000;" xml:space="preserve">
<style type="text/css">
	.st0{fill:#472D44;}
	.st1{fill:#33152F;}
	.st2{fill:#5B455A;}
</style>
<path id="bone-D" d="M532.1,605.3c-8.4-2.2-11.1-3.5-32.1-3.5s-23.7,1.3-32.1,3.5c-8.4,2.2-25.7,3.5-21.9,5.5
	c11,6,31.2,21.7,54,21.7s43.1-15.7,54-21.7C557.7,608.8,540.4,607.5,532.1,605.3z"/>
<path id="blacks" d="M506,616c-1.2-0.3-2.4-1.8-3.3-1.8c-0.7-0.1-1.6,0-2.6,0.3c-0.3,0.1-0.6,0.2-0.9,0.4
	c-0.3-0.1-0.6-0.3-0.9-0.4c-0.9-0.3-1.8-0.4-2.6-0.3c-1,0-2.1,1.5-3.3,1.8c-1.1,0.2-3.3,0.2-5.7,0.2c-0.4,0-0.8,0.3-0.8,0.7
	c0,0,0,0,0,0c0.3,0.4,0.5,0.6,0.8,0.9c2.7,0.2,5.3,0.2,6.4-0.1c0.5-0.1,1.1-0.3,1.5-0.4c0.2-0.1,0.5,0,0.7,0.1
	c0.5,0.3,1.1,0.6,1.8,0.8c0.7,0.2,1.4,0.3,2,0.3c0.1,0,0.1,0,0.2,0c0.1,0,0.1,0,0.2,0c0.6,0,1.3-0.1,2-0.3c0.7-0.2,1.3-0.5,1.8-0.8
	c0.2-0.1,0.5-0.2,0.7-0.1c0.5,0.2,1,0.3,1.5,0.4c1.1,0.3,3.7,0.2,6.4,0.1c0.3-0.4,0.5-0.6,0.8-0.9c0,0,0,0,0,0
	c-0.1-0.4-0.4-0.7-0.8-0.7C509.3,616.2,507.1,616.2,506,616z"/>
<path id="bone" 
d="M524,607.6c-0.1,0.9-2.5,0.8-6.1,0.5c-3.5-0.3-6.8-0.7-6.8-1.6c0.1-0.9,3.5-1.8,7-1.5
	C521.7,605.4,524.1,606.8,524,607.6z"/>
</svg>
