<?xml version="1.0" encoding="utf-8"?>
<!-- Generator: Adobe Illustrator 26.0.1, SVG Export Plug-In . SVG Version: 6.00 Build 0)  -->
<svg version="1.1" id="mouth" xmlns="http://www.w3.org/2000/svg" xmlns:xlink="http://www.w3.org/1999/xlink" x="0px" y="0px"
	 viewBox="0 0 1000 1000" style="enable-background:new 0 0 1000 1000;" xml:space="preserve">
<style type="text/css">
	.st0{fill:#2A144C;}
	.st1{fill:#FFFFFF;}
</style>
<path id="blacks" 
d="M561.5,591.7c0,12.9-27.5,40.1-61.3,40.1s-61.3-27.2-61.3-40.1s27.5,1.8,61.3,1.8
	S561.5,578.8,561.5,591.7z"/>
<g id="whites">
	<path  d="M474.3,594.7c-1.6-0.4-3.3-0.8-5-1.1c-1.7-0.3-3.4-0.6-5.1-0.8c-1.4-0.2-2.6,1.1-2.6,2.7
		c0.3,10.2,2,22,5.2,22.6c3.2,0.6,7.1-10.3,9.4-20C476.7,596.7,475.8,595,474.3,594.7z"/>
	<path  d="M494.1,597.1c-3.1,0-5.6,4-5.6,8.9c0,4.9,2.5,6.1,5.6,6.1c3.1,0,5.6-1.1,5.6-6.1
		C499.7,601.1,497.2,597.1,494.1,597.1z"/>
	<path  d="M482.7,596.1c-2.9-0.3-5.6,3.3-5.9,8.1c-0.4,4.7,1.9,6,4.9,6.3s5.4-0.6,5.7-5.3
		C487.7,600.4,485.6,596.3,482.7,596.1z"/>
	<path  d="M460.4,599c0.3-3.8-0.9-7-2.7-7.1c-1.8-0.2-3.4,2.8-3.7,6.6c-0.3,3.8,1.1,4.8,2.8,5
		C458.6,603.6,460.1,602.8,460.4,599z"/>
	<path  d="M453.1,596.4c0.2-3.2-0.6-5.9-1.9-6s-2.5,2.4-2.7,5.6c-0.2,3.2,0.7,4,2,4.2
		C451.7,600.2,452.8,599.6,453.1,596.4z"/>
	<path  d="M536.1,592.8c-1.7,0.2-3.3,0.4-5.1,0.8c-1.7,0.3-3.4,0.7-5,1.1c-1.4,0.4-2.3,2-1.9,3.6
		c2.3,9.7,6.2,20.5,9.4,20c3.2-0.6,4.9-12.4,5.2-22.6C538.7,593.9,537.5,592.7,536.1,592.8z"/>
	<path  d="M506.2,597.1c-3.1,0-5.6,4-5.6,8.9c0,4.9,2.5,6.1,5.6,6.1c3.1,0,5.6-1.1,5.6-6.1
		C511.9,601.1,509.3,597.1,506.2,597.1z"/>
	<path  d="M523.6,604.1c-0.4-4.7-3-8.3-5.9-8.1c-2.9,0.3-5,4.3-4.7,9c0.4,4.7,2.8,5.6,5.7,5.3
		C521.6,610.2,523.9,608.8,523.6,604.1z"/>
	<path  d="M546.3,598.4c-0.3-3.8-1.9-6.7-3.7-6.6c-1.8,0.2-3,3.4-2.7,7.1s1.8,4.5,3.5,4.4
		C545.2,603.2,546.6,602.2,546.3,598.4z"/>
	<path  d="M551.9,596c-0.2-3.2-1.5-5.7-2.7-5.6s-2.1,2.8-1.9,6c0.2,3.2,1.3,3.9,2.6,3.7C551.1,600,552.1,599.2,551.9,596
		z"/>
	<path  d="M524.7,610.2c-1.4,0.5-1.7,6-1.5,10.6c0,0.7,0.6,1.2,1.2,1c0.7-0.2,1.4-0.4,2.1-0.7c0.7-0.3,1.4-0.6,2.1-0.9
		c0.6-0.3,0.9-1.1,0.7-1.7C528,614.3,526,609.7,524.7,610.2z"/>
	<path  d="M506.1,613.4c-3,0-5.5,1.1-5.5,5.6s2.5,8.3,5.5,8.3c3,0,5.5-3.7,5.5-8.3C511.6,614.4,509.2,613.4,506.1,613.4z
		"/>
	<path  d="M518.1,611.7c-2.4,0-4.5,1-5.1,5.2c-0.6,4.2,0.8,7.6,3.2,7.6c2.4,0,4.9-3.4,5.5-7.6
		C522.3,612.6,520.5,611.7,518.1,611.7z"/>
	<path  d="M542.2,604.5c-1.6,0-2.9,0.6-3.3,3.4s0.5,5,2.1,5s3.2-2.2,3.6-5C545,605.2,543.8,604.5,542.2,604.5z"/>
	<path  d="M547.8,601.9c-0.7-0.1-1.3,0.3-1.8,2.4c-0.5,2.1-0.3,3.9,0.4,4s1.6-1.5,2.1-3.6
		C548.9,602.6,548.4,602,547.8,601.9z"/>
	<path  d="M475.5,610.2c-1.4-0.5-3.3,4.1-4.6,8.3c-0.2,0.7,0.1,1.5,0.7,1.7c0.7,0.3,1.4,0.6,2.1,0.9
		c0.7,0.3,1.4,0.5,2.1,0.7c0.6,0.2,1.1-0.3,1.2-1C477.2,616.2,476.8,610.7,475.5,610.2z"/>
	<path  d="M494,613.4c-3,0-5.5,1.1-5.5,5.6s2.5,8.3,5.5,8.3c3,0,5.5-3.7,5.5-8.3S497.1,613.4,494,613.4z"/>
	<path  d="M482,611.7c-2.4,0-4.2,1-3.6,5.2c0.6,4.2,3.1,7.6,5.5,7.6c2.4,0,3.9-3.4,3.2-7.6
		C486.5,612.6,484.5,611.7,482,611.7z"/>
	<path  d="M457.9,604.5c-1.6,0-2.7,0.6-2.3,3.4s2,5,3.6,5c1.6,0,2.5-2.2,2.1-5S459.5,604.5,457.9,604.5z"/>
	<path  d="M452.4,601.9c-0.7,0.1-1.1,0.7-0.6,2.8c0.5,2.1,1.4,3.7,2.1,3.6s0.8-1.9,0.4-4
		C453.7,602.3,453.1,601.8,452.4,601.9z"/>
</g>
</svg>
