<?xml version="1.0" encoding="utf-8"?>
<!-- Generator: Adobe Illustrator 26.0.1, SVG Export Plug-In . SVG Version: 6.00 Build 0)  -->
<svg version="1.1" id="Layer_1" xmlns="http://www.w3.org/2000/svg" xmlns:xlink="http://www.w3.org/1999/xlink" x="0px" y="0px"
	 viewBox="0 0 1000 1000" style="enable-background:new 0 0 1000 1000;" xml:space="preserve">
<g id="filler-eyes-l">
<g id="blacks">
	<ellipse cx="578.6" cy="528.9" rx="38.6" ry="38.9"/>
	<ellipse cx="421.3" cy="528.9" rx="38.6" ry="38.9"/>
</g>
<g id="pupil">
	<ellipse cx="578.6" cy="528.9" rx="25.3" ry="25.5"/>
	<ellipse cx="421.3" cy="528.9" rx="25.3" ry="25.5"/>
</g>
<g id="pupil-L">
	<ellipse cx="578.7" cy="544.4" rx="15.5" ry="9.9"/>
	<ellipse cx="421.4" cy="544.4" rx="15.5" ry="9.9"/>
</g>
<g id="blacks">
	<ellipse cx="578.6" cy="528.9" rx="6.9" ry="21.7"/>
	<ellipse cx="421.3" cy="528.9" rx="6.9" ry="21.7"/>
</g>
<g id="whites">
	<path d="M601.8,506c-3-3-9.8-0.9-15.3,4.6c-5.5,5.5-7.5,12.4-4.6,15.4c3,3,9.8,0.9,15.3-4.6S604.7,509,601.8,506z"/>
	<path d="M429.2,510.6c-5.5,5.5-7.5,12.4-4.6,15.4c3,3,9.8,0.9,15.3-4.6s7.5-12.4,4.6-15.4
		C441.5,503,434.7,505.1,429.2,510.6z"/>
</g>
    </g>
</svg>
