<?xml version="1.0" encoding="utf-8"?>
<!-- Generator: Adobe Illustrator 26.0.1, SVG Export Plug-In . SVG Version: 6.00 Build 0)  -->
<svg version="1.1" id="pups" xmlns="http://www.w3.org/2000/svg" xmlns:xlink="http://www.w3.org/1999/xlink" x="0px" y="0px"
	 viewBox="0 0 1000 1000" style="enable-background:new 0 0 1000 1000;" xml:space="preserve">
<g id="filler-eyes-l">
<g id="pupil">
	<circle cx="578.7" cy="528.9" r="25.2"/>
	<circle cx="421.4" cy="528.9" r="25.2"/>
</g>
<g id="pupil-L">
	<path d="M578.7,534.5c-8.6,0-15.5,4.4-15.5,9.8c0,5.4,6.9,9.8,15.5,9.8s15.5-4.4,15.5-9.8
		C594.2,538.9,587.2,534.4,578.7,534.5z"/>
	<path d="M421.4,534.5c-8.6,0-15.5,4.4-15.5,9.8c0,5.4,6.9,9.8,15.5,9.8c8.6,0,15.5-4.4,15.5-9.8
		C436.9,538.9,429.9,534.4,421.4,534.5z"/>
</g>
<g id="blacks">
	<circle cx="578.7" cy="528.9" r="17"/>
	<circle cx="421.4" cy="528.9" r="17"/>
</g>
<g id="pupil-D">
	<path d="M421.3,521.5c-8.5,0-15.5,4.4-16.8,10.2c1.3,8.1,8.3,14.2,16.8,14.2c8.5,0,15.5-6.1,16.8-14.2
		C436.8,525.9,429.8,521.5,421.3,521.5z"/>
	<path d="M578.6,521.5c-8.5,0-15.5,4.4-16.8,10.2c1.3,8.1,8.3,14.2,16.8,14.2c8.5,0,15.5-6.1,16.8-14.2
		C594.1,525.9,587.1,521.5,578.6,521.5z"/>
</g>
<g id="whites">
	<path d="M591.2,507.1c-1.6,1-3.2,2.2-4.8,3.7c-5.5,5.5-7.5,12.3-4.6,15.3c3,3,9.8,0.9,15.3-4.6
		c1.6-1.5,2.8-3.1,3.7-4.6C598.6,512.8,595.3,509.4,591.2,507.1z"/>
	<path d="M433.9,507.1c-1.6,1-3.2,2.2-4.8,3.7c-5.5,5.5-7.5,12.3-4.6,15.3c3,3,9.8,0.9,15.3-4.6
		c1.6-1.5,2.8-3.1,3.7-4.6C441.3,512.8,438,509.4,433.9,507.1z"/>
</g>
    </g>
</svg>
