<?xml version="1.0" encoding="utf-8"?>
<!-- Generator: Adobe Illustrator 26.0.1, SVG Export Plug-In . SVG Version: 6.00 Build 0)  -->
<svg version="1.1" id="pups" xmlns="http://www.w3.org/2000/svg" xmlns:xlink="http://www.w3.org/1999/xlink" x="0px" y="0px"
	 viewBox="0 0 1000 1000" style="enable-background:new 0 0 1000 1000;" xml:space="preserve">
<g id="filler-eyes-l">
<g id="pupil-D">
	
		<ellipse transform="matrix(0.8237 -0.567 0.567 0.8237 -225.6197 332.1162)" cx="421.3" cy="528.9" rx="39.6" ry="39.6"/>
	
		<ellipse transform="matrix(0.7071 -0.7071 0.7071 0.7071 -204.4915 564.114)" cx="578.7" cy="528.9" rx="39.6" ry="39.6"/>
</g>
<g id="pupil-L">
	<path d="M381.7,527.3c0,0.5,0,1,0,1.6c0,21.9,17.7,39.6,39.6,39.6c21.9,0,39.6-17.7,39.6-39.6c0-0.5,0-1,0-1.6
		c-11.5-3.6-25.1-5.7-39.6-5.7C406.8,521.6,393.3,523.7,381.7,527.3z"/>
	<path d="M578.7,521.6c-14.5,0-28,2.1-39.6,5.7c0,0.5,0,1,0,1.6c0,21.9,17.7,39.6,39.6,39.6c21.9,0,39.6-17.7,39.6-39.6
		c0-0.5,0-1,0-1.6C606.8,523.7,593.2,521.6,578.7,521.6z"/>
</g>
<g id="blacks">
	<circle cx="421.3" cy="528.9" r="30.3"/>
	<circle cx="578.7" cy="528.9" r="30.3"/>
</g>
<g id="pupil">
	<circle cx="421.3" cy="528.9" r="27.7"/>
	<circle cx="578.7" cy="528.9" r="27.7"/>
</g>
<g id="blacks">
	
		<ellipse transform="matrix(0.8233 -0.5676 0.5676 0.8233 -225.7627 332.587)" cx="421.3" cy="528.9" rx="15.6" ry="15.6"/>
	
		<ellipse transform="matrix(0.7071 -0.7071 0.7071 0.7071 -204.4915 564.114)" cx="578.7" cy="528.9" rx="15.6" ry="15.6"/>
</g>
<g id="whites">
	<path d="M428.5,506.9c-7.4,7.4-10.1,16.5-6.1,20.5s13.1,1.2,20.5-6.1c7.3-7.4,10.1-16.6,6.1-20.5
		C445,496.8,435.9,499.6,428.5,506.9z"/>
	<path d="M606.4,500.8c-4-4-13.1-1.2-20.5,6.1c-7.4,7.4-10.1,16.5-6.1,20.5s13.1,1.2,20.5-6.1
		C607.6,513.9,610.4,504.7,606.4,500.8z"/>
</g>
    </g>
</svg>
