<?xml version="1.0" encoding="utf-8"?>
<!-- Generator: Adobe Illustrator 26.0.1, SVG Export Plug-In . SVG Version: 6.00 Build 0)  -->
<svg version="1.1" id="Layer_1" xmlns="http://www.w3.org/2000/svg" xmlns:xlink="http://www.w3.org/1999/xlink" x="0px" y="0px"
	 viewBox="0 0 1000 1000" style="enable-background:new 0 0 1000 1000;" xml:space="preserve">
<g id="filler-eyes-l">
<g id="pupil-D">
	<g>
		<path d="M445.9,528.8c0,13.5-11,24.5-24.5,24.5s-24.5-11-24.5-24.5s11-24.5,24.5-24.5S445.9,515.3,445.9,528.8z"/>
	</g>
	<g>
		<path d="M603.2,528.8c0,13.5-11,24.5-24.5,24.5s-24.5-11-24.5-24.5s11-24.5,24.5-24.5S603.2,515.3,603.2,528.8z"/>
	</g>
</g>
<g id="pupil">
	<g>
		<path d="M439.3,528.8c0,9.9-8,17.9-17.9,17.9s-17.9-8-17.9-17.9s8-17.9,17.9-17.9S439.3,518.9,439.3,528.8z"/>
	</g>
	<g>
		<path d="M596.6,528.8c0,9.9-8,17.9-17.9,17.9s-17.9-8-17.9-17.9s8-17.9,17.9-17.9S596.6,518.9,596.6,528.8z"/>
	</g>
</g>
<g id="pupil-L">
	<g>
		<path d="M434.1,537.5c0,5.1-5.7,9.2-12.7,9.2s-12.7-4.1-12.7-9.2c0-5.1,5.7-9.2,12.7-9.2
			C428.4,528.2,434.1,532.4,434.1,537.5z"/>
	</g>
	<g>
		<path d="M591.4,537.5c0,5.1-5.7,9.2-12.7,9.2s-12.7-4.1-12.7-9.2c0-5.1,5.7-9.2,12.7-9.2
			C585.7,528.2,591.4,532.4,591.4,537.5z"/>
	</g>
</g>
<g id="blacks">
	<g>
		<path d="M434,528.8c0,7-5.6,12.6-12.6,12.6s-12.6-5.6-12.6-12.6s5.6-12.6,12.6-12.6S434,521.8,434,528.8z"/>
	</g>
	<g>
		<path d="M591.3,528.8c0,7-5.6,12.6-12.6,12.6s-12.6-5.6-12.6-12.6s5.6-12.6,12.6-12.6S591.3,521.8,591.3,528.8z"/>
	</g>
</g>
<g id="whites">
	<g>
		<g>
			<path d="M440.7,503.5c-2.4-2.4-8.1-0.8-12.6,3.8c-4.5,4.5-6.2,10.2-3.8,12.6c2.4,2.4,8.1,0.8,12.6-3.8
				C441.4,511.6,443.1,505.9,440.7,503.5z"/>
		</g>
	</g>
	<g>
		<g>
			<path d="M598,503.5c-2.4-2.4-8.1-0.8-12.6,3.8c-4.5,4.5-6.2,10.2-3.8,12.6c2.4,2.4,8.1,0.8,12.6-3.8
				C598.7,511.6,600.4,505.9,598,503.5z"/>
		</g>
	</g>
</g>
    </g>
</svg>
