<?xml version="1.0" encoding="utf-8"?>
<!-- Generator: Adobe Illustrator 24.0.1, SVG Export Plug-In . SVG Version: 6.00 Build 0)  -->
<svg version="1.1" id="Layer_1" xmlns="http://www.w3.org/2000/svg" xmlns:xlink="http://www.w3.org/1999/xlink" x="0px" y="0px"
	 viewBox="0 0 800 800" style="enable-background:new 0 0 800 800;" xml:space="preserve">
<style type="text/css">
	.st0{fill-rule:evenodd;clip-rule:evenodd;fill:#FFFFFF;}
</style>
<g>
	<path class="st0" d="M289.3,431.1c0,0-7.8,12.1,7.3,15.2c15.1,3.1,27.7-5.9,32.1-15.2s-3-17.4-3-17.4s8.6-7.5,8.7-16
		s-8.8-19.1-8.8-19.1s31.7-5.4,32.5-16.4s-24.2-19.9-39.2-11.5s-11.5,18.7-11.5,18.7s-14.2-2-24.8,1.9c0,0-24.3-32.4-44.8-10.7
		c0,0-29.2-5.9-33.5,17.5c0,0-28.6,22.1,2.5,24.1s33.4,5.8,33.4,5.8s-0.7,15.6,19.8,20.2C280.5,432.9,289.3,431.1,289.3,431.1z"/>
	<path d="M360,354.9c-2.6-3.5-7.4-7-13.7-9.1c-8.9-2.9-20.7-3-32.7,3.8c-6.4,3.6-8.7,8.4-9.4,12.7c-0.2,1.3-0.3,2.8-0.2,4.2
		c-6.8-0.9-14-0.5-20.9,0.8c-8.5-12-18.2-16.6-26.6-17.4c-7.9-0.8-14.7,1.8-18.4,4.5c-1.3,0.9-2.2,1.8-2.9,2.7
		c-3.5-0.5-7.2-0.6-11,0.1c-4.9,0.9-8.9,2.2-11.9,3.8c-3,1.6-5.3,3.6-6.9,5.6c-1.5,1.8-2.5,3.5-3.1,5.2c-0.9,2.3-1.2,4.3-1.2,5.9
		c-0.6,0.3-1.2,0.7-1.7,1.1c-7.7,5.2-11.7,12.9-11.3,18.8c0.5,6.8,5.9,12.9,19.3,11c2.8-0.4,5.5-0.7,8-0.8c2.9-0.2,5.6-0.2,8-0.1
		c6.6,0.3,11.2,1.6,13.6,2.3c0.6,8.8,6.2,15.2,14.2,19.4c9.4,5,22.1,6.7,32.4,5.9c-0.4,2-0.7,5,0.8,8.1c1.8,3.7,5.3,6.2,10.5,7.6
		c1.6,0.4,3.3,0.6,5.1,0.6c14,0,32-12.8,35.7-24.2c1.7-5.2,1.5-9.4-0.6-12.7c-1.2-1.8-2.7-2.9-4.1-3.6c2.7-3,4.5-6.7,5.6-10.5
		c2-6.8,1.1-14.2-5.3-21c3.5-0.7,8-1.6,12.4-2.9c5.3-1.5,10.4-3.6,13.8-6.2c2.6-2,4.2-4.3,4.8-6.8C362.9,361.1,362.2,358,360,354.9z
		 M245.1,359.7c3.7-1.6,9.1-2.5,15.1-1c5.2,1.3,10.8,4.3,16.2,10.3c-3.1,0.9-6.1,2-9.1,3.2c-0.9,0.4-1.7,0.8-2.6,1.2
		c-3.3-3.5-9.1-8.4-16.3-11.9c-1.2-0.6-2.4-1.1-3.6-1.6C244.9,359.7,245,359.7,245.1,359.7z M210.8,371.6c1.3-1.2,3-2.4,5.2-3.5
		c2.5-1.3,5.6-2.5,9.6-3.3c3.7-0.8,7.3-0.8,10.8-0.2l0,0c0.3,0.1,0.6,0.1,0.9,0.1c3,0.6,5.8,1.5,8.4,2.6c5.8,2.5,10.7,6,13.8,8.8
		c-4.1,2.4-7.8,5.2-11,8.3c-3.1-3.6-6.6-6.3-10.3-8.3c-3.5-1.9-7.3-3-11.1-3.5c-6.3-0.9-12.7-0.2-18.5,1.7
		C209.1,373.3,209.8,372.5,210.8,371.6z M237.5,402.4c-0.1,0.6-0.2,1.1-0.3,1.7c-2.9-1.2-7.3-2.7-13.2-3.6c-2.7-0.4-5.7-0.6-8.9-0.6
		c-2.8,0-5.7,0.2-8.9,0.6c-3.1,0.4-5.5,0.3-7.3-0.3c-1.7-0.6-2.6-1.7-2.7-3.2c-0.2-3.7,2.8-8.2,7.6-11.4c6-4.1,14.1-6.1,22.1-5.1
		c3.7,0.5,7.4,1.7,10.9,3.6c2.5,1.4,4.9,3.1,7.1,5.3C240.8,393.4,238.6,397.8,237.5,402.4z M354.7,362.1c-0.5,2-2.7,3.3-5.3,4.6
		c-7.1,3.5-17.6,5.2-22.9,6.5c-3.5,0.9-5.6,2.5-6.8,3.7c-0.7,0.8-0.5,2,0.3,2.7c0.5,0.5,1.1,1,1.7,1.4c8.1,5.5,9.9,11.9,8.3,17.9
		c-0.8,3.2-2.7,6.1-4.6,8.9c-0.2,0.3-0.4,0.7-0.6,1c-1.1,1.8-2.3,3.4-3.6,4.9c-1.5,1.7-2.9,3.2-4.4,4.5c-0.4,0.2-0.5,0.7-0.3,1
		c0.2,0.4,0.7,0.5,1,0.3c0,0,7.5-4.2,10.9-0.3c0.8,1,0.6,3.2-0.3,5.8c-3.6,10.8-22.4,20.7-31.1,18.3c-1.9-0.5-4.4-1.5-5.3-3.3
		c-0.8-1.7-0.3-3.2-0.1-3.7c0.9-2.1,3-3.3,3-3.3c14.8-5.8,18.7-19.1,13-29.5c-2.3-4.2-6.1-8.1-11.7-10.4c-7.8-3.2-19-3.3-33,1.8
		c-0.4,0.1-0.6,0.5-0.5,0.9s0.5,0.6,0.9,0.5c12.5-2.4,21.8-0.8,28.6,2.3c2.1,1,4,2.1,5.6,3.4c4.3,3.7,6.1,8.7,4.9,13.4
		c-1.1,4.3-4.6,8.1-10.5,10.3c-9,3.4-25.8,2.6-36.9-3.4c-6.8-3.7-11.5-9.5-9.5-18.1c2.3-10.4,12.5-19.2,25.1-24.6
		c10.5-4.5,22.8-6.4,34.1-4.8c0.7,0.1,1.4-0.1,1.9-0.5c0.6-0.4,0.9-1,1-1.7c1-9,8-14.8,10-16c7.8-4.4,15.5-5.3,22-4.3
		c5.9,0.9,10.8,3.5,13.5,6.4C354.1,359.9,355,361,354.7,362.1z"/>
</g>
</svg>
