<?xml version="1.0" encoding="utf-8"?>
<!-- Generator: Adobe Illustrator 24.0.1, SVG Export Plug-In . SVG Version: 6.00 Build 0)  -->
<svg version="1.1" id="Layer_1" xmlns="http://www.w3.org/2000/svg" xmlns:xlink="http://www.w3.org/1999/xlink" x="0px" y="0px"
	 viewBox="0 0 800 800" style="enable-background:new 0 0 800 800;" xml:space="preserve">
<style type="text/css">
	.st0{fill:#FFFFFF;}
</style>
<g>
	<g>
		<g>
			<path class="st0" d="M236.1,296.5c0,0,2.9,27.6,10,42.9s31.4,23.1,31.4,23.1l7.5-1.4c0,0-4.3-26-11.8-46.2
				C265.6,294.7,236.1,296.5,236.1,296.5z"/>
			<path class="st0" d="M259.8,271.4c1.5,1.2,3.5,1.8,5.5,1.9c0.1,0,0.2,0,0.2,0c2.5,0,4.7-0.9,6.3-2.4c0.3,0,0.7,0.1,1,0.1
				c6.4,0.1,11.6-4.1,11.8-9.4c0.1-5.3-4.9-9.8-11.3-10c-3-0.1-5.8,0.8-8,2.4c-2.1,1.6-3.5,3.9-3.7,6.3c-2.6,1.1-4.3,3.3-4.4,5.9
				C257.2,268.1,258.1,270,259.8,271.4z"/>
			<path class="st0" d="M372.6,204.6c-0.4-10.9-10.1-19.6-21.9-19.6c-6,0-11.6,2.3-15.7,6.2c-0.6-0.4-1.2-0.7-1.8-1.1
				c-0.7-0.3-1.4-0.7-2.2-1c-2.9-1.2-6-1.8-9.1-1.8c-3.1-0.1-6.2,0.4-9.2,1.5c-1.5,0.5-2.9,1.3-4.3,2.1c-1.3,0.9-2.6,1.9-3.8,3.1
				c-1.8,2-3.3,4.5-3.8,7.4c-2.2,0.7-4.3,1.7-6.2,3c-2.5,1.8-4.7,4.2-6.2,6.9c-1.5,2.8-2.3,6-2.3,9.1c0,3.2,0.8,6.3,2.4,9.1
				c1.5,2.7,3.6,5.1,6.1,6.9c1.5,1.1,3.2,1.9,5,2.5c1.9,6.2,7.8,10.6,14.6,10.6c1,0,1.9-0.1,2.9-0.3c0.4,1.2,1.1,2.4,1.8,3.4
				c1.1,1.4,2.4,2.6,3.8,3.6c2.8,2,6.2,3.1,9.5,3.4c1.7,0.1,3.4,0.1,5.1-0.2s3.3-0.7,4.9-1.5c1.6-0.7,3-1.6,4.4-2.8
				c1.3-1.2,2.5-2.5,3.4-4.1c0.8-1.4,1.4-2.9,1.7-4.4v0.1c6,0.2,12.1-2.2,16.4-6.6c2.1-2.2,3.8-4.9,4.7-7.9c0.1-0.5,0.3-0.9,0.4-1.4
				c6.8-1.4,11.6-6.7,11.6-12.9C384.8,211.4,379.6,206,372.6,204.6z"/>
		</g>
		<g>
			<path d="M277.1,313.7c-3.8-6.1-9.2-11.3-15.5-14.8c-3.1-1.8-6.4-3.2-9.8-4.2c-3.4-1-6.8-1.7-10.3-2.1l-1.3-0.1
				c-0.2-0.1-0.6-0.1-0.9-0.1c-0.3,0-0.7,0.1-1,0.1c-1.3,0.2-2.6,0.8-3.6,1.6c-1,0.9-1.8,2-2.3,3.2c-0.2,0.6-0.4,1.2-0.4,1.9
				c0,0.3,0,0.7,0,1c0,0.2,0,0.3,0,0.4v0.3c0.2,3.4,0.5,6.8,0.8,10.2c0.7,6.8,2,13.7,4.8,20.1c2.7,6.4,6.6,12.6,11.9,17.5
				c2.6,2.5,5.7,4.5,8.9,6.1c1.7,0.8,3.4,1.4,5.1,1.9c0.8,0.3,1.7,0.5,2.6,0.6s1.7,0.2,2.8,0.2V354c-0.6-0.2-1.4-0.4-2.1-0.7
				c-0.1,0-0.1-0.1-0.2-0.1c0.1-0.8,0.3-1.5,0.4-2.3c0.3-1.4,0.5-2.7,0.8-4.1c0.5-2.7,1.1-5.4,1.9-8.1c0.7-2.7,1.6-5.3,2.8-7.8
				c0.6-1.2,1.2-2.4,2.1-3.4l0.1-0.1l0.3,0.9l0.7,2.2c0.2,0.8,0.4,1.5,0.6,2.3s0.5,1.5,0.6,2.3c1.4,6.2,2.1,12.6,2.8,19.1l4.3,0.1
				c1.1-6.7,1.2-13.7,0.2-20.6C283.2,326.8,280.9,319.9,277.1,313.7z M238.5,308c-0.2-0.9-0.4-1.8-0.5-2.8c-0.3-1.6-0.5-3.2-0.7-4.8
				v-0.3c0-0.1,0-0.2,0-0.2c0-0.1,0-0.2,0-0.3c0-0.2,0.1-0.3,0.1-0.5c0.1-0.3,0.3-0.6,0.6-0.8c0.3-0.2,0.6-0.4,0.9-0.4
				c0.1,0,0.2,0,0.3,0s0.2,0,0.4,0l1.2,0.1c1.9,0.3,3.7,0.7,5.5,1.2c-1.4,0.8-2.6,1.7-3.7,2.8C240.9,303.7,239.6,305.8,238.5,308z
				 M250.3,315c-0.8,1.1-1.3,2.3-1.9,3.4c-0.3,0.5-0.5,1.1-0.7,1.7l-0.6,1.7c-1,3.3-1.3,6.7-1.1,10c-0.5-1.2-1-2.4-1.5-3.6
				c-0.1-0.2-0.1-0.4-0.2-0.6l-0.1-0.9c0-0.9-0.1-1.7-0.1-2.5c-0.1-3.3,0-6.6,0.7-9.8c0.6-3.2,1.8-6.3,3.4-9.1
				c0.2-0.4,0.4-0.8,0.6-1.1l0.7-1c0.4-0.7,1-1.3,1.5-1.9c0.1-0.1,0.2-0.3,0.3-0.4c2.4,1,4.7,2.2,6.8,3.7c1.1,0.8,2.2,1.6,3.2,2.5
				c-1.9,0.4-3.7,1.2-5.3,2.2C253.6,310.8,251.7,312.8,250.3,315z M273,324.1c-0.5,0.1-1,0.3-1.5,0.5c-1.9,0.9-3.4,2.1-4.7,3.4
				c-2.5,2.7-3.9,5.6-4.8,8.6c-0.9,2.9-1,6-0.6,9.1c0.3,1.6,0.7,3.1,1.3,4.7c0.2,0.4,0.4,0.9,0.6,1.3c-0.9-0.5-1.7-1-2.6-1.6
				c-2.6-1.7-4.9-3.7-6.9-6c-0.2-0.2-0.4-0.5-0.6-0.7c0-0.5-0.1-1-0.1-1.5c-0.1-2-0.2-4-0.1-6c0.1-4,0.7-7.9,1.8-11.7
				c1.1-3.8,2.8-7.5,5.6-10.2c1.4-1.4,3-2.4,4.9-3.1c1.9,2.1,3.6,4.4,5,6.9c1.2,2,2.2,4.1,3.1,6.2L273,324.1z"/>
			<path d="M273.4,251.1c-3.1-0.1-6.1,0.8-8.4,2.6c-2.3,1.7-3.7,4.1-3.9,6.7c-2.7,1.2-4.5,3.5-4.6,6.2c0,2.1,0.9,4,2.7,5.4
				c1.6,1.2,3.6,1.9,5.8,2c0.1,0,0.2,0,0.3,0c2.6,0,5-0.9,6.6-2.5c0.3,0,0.7,0.1,1,0.1c6.7,0.2,12.3-4.3,12.4-9.9
				C285.5,255.9,280.1,251.2,273.4,251.1z M273.1,266c-0.6,0-1.1-0.1-1.7-0.2l-2-0.4l-1,1.8c-0.4,0.7-1.6,1.4-3.2,1.3
				c-1,0-1.9-0.3-2.6-0.8c-0.2-0.2-0.6-0.6-0.6-1c0-0.6,1-1.4,2.4-1.6l2.8-0.4l-0.5-2.8c-0.1-0.3-0.1-0.5-0.1-0.7
				c0-1.5,1.1-2.6,1.8-3.1c1.3-0.9,3-1.5,4.8-1.5c0.1,0,0.1,0,0.2,0c3.6,0.1,6.6,2.3,6.6,4.9C279.8,264,276.7,266.1,273.1,266z"/>
			<path d="M374,203.9c-0.4-11.3-10.4-20.3-22.6-20.3c-6.2,0-12.1,2.4-16.3,6.4c-0.6-0.4-1.2-0.7-1.8-1.1c-0.7-0.4-1.5-0.7-2.2-1
				c-3-1.2-6.3-1.8-9.5-1.9c-3.2-0.1-6.5,0.5-9.5,1.6c-1.5,0.5-3,1.3-4.4,2.2s-2.7,2-3.9,3.3c-1.9,2-3.4,4.7-3.9,7.6
				c-2.3,0.7-4.4,1.7-6.4,3.1c-2.6,1.9-4.9,4.3-6.4,7.2c-1.6,2.9-2.4,6.2-2.4,9.5s0.9,6.6,2.5,9.4c1.6,2.8,3.8,5.3,6.4,7.1
				c1.6,1.1,3.3,2,5.1,2.6c2,6.4,8.1,11,15.1,11c1,0,2-0.1,3-0.3c0.5,1.3,1.1,2.4,1.9,3.5c1.1,1.4,2.5,2.7,3.9,3.7
				c2.9,2,6.4,3.2,9.9,3.5c1.7,0.1,3.5,0.1,5.2-0.2s3.5-0.8,5.1-1.5c1.6-0.8,3.2-1.7,4.5-2.9c1.4-1.2,2.6-2.6,3.6-4.2
				c0.8-1.4,1.4-3,1.8-4.6v0.2c6.2,0.2,12.6-2.2,17-6.9c2.2-2.3,4-5.1,4.9-8.2c0.1-0.5,0.3-1,0.4-1.4c6.6-1.7,11.6-7.2,11.6-13.6
				C386.6,211,381.2,205.4,374,203.9z M368.1,230.8c-0.7,2.1-1.9,4-3.4,5.6c-3.1,3.2-7.6,5.1-12.2,5.3v0.1c0-0.1,0-0.2-0.1-0.4
				c-0.9-3.7-3.2-6.9-6.2-8.7c-1.5-0.9-3.1-1.6-4.8-1.9c-1.7-0.3-3.4-0.2-5,0.7c1.3,1.3,2.5,2.2,3.5,3c1.1,0.8,2.1,1.6,2.9,2.5
				c1.7,1.8,3,3.7,3.4,5.8c0.2,1.1,0.2,2.1,0,3.2c-0.2,1-0.6,2.1-1.2,3s-1.3,1.8-2.2,2.5c-0.9,0.7-1.9,1.3-3,1.8
				c-4.3,2-9.9,1.6-13.9-0.9c-1-0.7-1.9-1.4-2.6-2.3s-1.3-1.8-1.8-2.9c-0.3-0.5-0.5-1-0.7-1.6s-0.4-1.2-0.5-1.8
				c-0.3-1.3-0.5-2.6-0.8-4.4c-1.6,0.9-2.7,2.4-3.2,4.1c-0.1,0.2-0.1,0.4-0.2,0.6c-0.8,0.2-1.7,0.3-2.5,0.3c-3,0-5.8-1.4-7.6-3.6
				c0.2,0,0.3,0,0.5,0c1.5,0,3-0.3,4.4-0.7c2.9-0.7,5.6-2.1,7.4-4.6c-2.9,0.5-5.4,0.9-7.9,1c-1.3,0-2.5,0-3.7-0.3l-0.9-0.1
				c-0.3,0-0.6-0.2-0.9-0.2l-0.9-0.2c-0.3-0.1-0.6-0.2-0.9-0.3c-2.3-0.8-4.4-1.9-6.2-3.3s-3.3-3.2-4.3-5.2s-1.5-4.1-1.5-6.3
				c0.1-2.2,0.6-4.3,1.6-6.3c0.5-1,1.2-1.9,1.9-2.7c0.4-0.4,0.7-0.8,1.2-1.2c0.4-0.4,0.8-0.7,1.3-1.1c0.9-0.7,1.8-1.3,2.9-1.8
				c0.1,0.2,0.1,0.4,0.2,0.6c0.7,1.7,1.8,3.1,3,4.3c1.2,1.1,2.7,2,4.2,2.6s3.1,0.9,4.6,0.8c-1-1.2-2-2.3-2.8-3.4
				c-0.8-1.1-1.5-2.1-2.1-3.2c-0.6-1-1-2.1-1.2-3.1c-0.3-1-0.4-2-0.4-3c0.1-2,1.1-4,2.6-5.6c0.8-0.8,1.7-1.5,2.7-2.1
				s2.1-1.1,3.2-1.5c4.5-1.7,9.9-1.6,14.4,0.1c0.6,0.2,1.1,0.5,1.7,0.7c0.5,0.3,1.1,0.5,1.5,0.9c1,0.6,1.8,1.4,2.8,2.1
				c0.9,0.7,1.7,1.5,2.6,2.4s1.7,2,2.7,3.4c1-1.4,1.2-3.2,1-4.9c-0.2-1.4-0.7-2.8-1.5-4c3.1-2.9,7.3-4.6,11.8-4.6
				c8.7,0,15.8,6.1,16.4,13.9c-3.3,0.5-6.3,1.8-8.7,3.8c-0.7-0.1-1.4-0.2-2.1-0.3c-0.7,0-1.5,0-2.2-0.1c-2.9,0.1-5.8,0.9-8.2,2.5
				c2.8,0.1,5.4,0.3,7.9,0.9l1.8,0.5c0.6,0.2,1.2,0.4,1.7,0.6c0.5,0.3,1.1,0.5,1.6,0.8s1.1,0.6,1.5,0.9c2,1.3,3.7,2.9,5,4.7
				s2.2,3.9,2.6,6.1C368.9,226.5,368.7,228.7,368.1,230.8z M375.1,224.6c-0.1-0.5-0.1-1-0.2-1.5c-0.1-0.8-0.4-1.6-0.6-2.3
				c-0.2-0.8-0.6-1.5-0.9-2.2c-0.4-0.7-0.7-1.4-1.2-2.1c-0.5-0.6-0.9-1.3-1.4-1.9c-1.3-1.6-2.8-2.9-4.5-4c1.3-0.4,2.6-0.7,4-0.7
				c5.5,0,10,3.5,10,7.9C380.3,220.7,378.2,223.3,375.1,224.6z"/>
		</g>
	</g>
	<path class="st0" d="M265.5,430.2c5,9.4,22.4,6.9,22.4,6.9s0.6,6.8,1.9,9.1c1.2,2.1,5.5,2.1,14.1,1.1c0.6-2,2.4-0.3,3.8-1.8
		c1.9-2,6.5-3.1,8.7-4.7c2-1.3,4.6-4.6,6.7-5.7c3.3-1.8,3.4-4.7,7-5.4H330c-0.1-0.2-0.1-0.3-0.2-0.5c0.6-1.3,1-2.6,1.3-3.8
		c1.5-8.8-5.3-11.2-5.3-11.2s5.4-12.8,5.3-23.2c-0.1-10.4-14.7-20.6-14.7-20.6s0.7-4-0.3-9.7c-0.9-5.6-10-12.4-20.6-13.8
		s-16.2,8.1-16.2,8.1s-4.7-0.1-10.5,1s-9.8,15.6-9.8,15.6l-14.5,9.1c0,0-4.4,9.8,1.3,18.5S260.5,420.8,265.5,430.2z"/>
	<path d="M330.2,412.8c0.7-1,1.3-2,1.9-3.1c4-7.1,5.1-15.9,2.8-23.8c-1.1-4-3-7.8-5.9-11.1c-1.5-1.6-3.2-3.1-5.3-4.3
		c-1.2-0.6-2.4-1.1-3.5-1.4c0.6-1.4,1-2.9,1-4.5c0.2-3.3-1.1-6.3-2.7-8.7c-3.4-4.7-7.9-7.6-12.6-9.8c-4.8-2-9.8-3.6-15.7-2.7
		c-2.9,0.5-5.9,1.9-7.9,4.3c-1,1.2-1.8,2.4-2.4,3.8c-0.1,0.2-0.1,0.4-0.2,0.6c-1.8-0.4-3.6-0.7-5.5-0.8c-1.5-0.1-3.1-0.1-4.8,0.2
		c-1.8,0.3-3.6,1.1-4.9,2.2c-2.8,2.2-4.4,5-5.5,7.7c-0.6,1.4-1,2.8-1.3,4.1c-0.1,0.6-0.4,1.2-0.3,1.9c-6,1.5-11.3,5.4-14.9,10.2
		c-1.1,1.6-2.3,3.1-3,5.6c-0.5,1.9-0.8,3.9-0.8,6c0,4.2,1.7,8.3,3.8,11.4c4.2,6.2,8.8,10.6,12.3,15.7c1.7,2.5,3.3,5,4.6,7.7
		c1.1,2.3,2.5,6.5,5.3,9.6c2.7,3.2,6.5,5.5,10.5,6.4c3.8,0.9,7.5,0.7,10.9,0.1c0,0.7,0.1,1.4,0.2,2.1c0.3,2.1,1.4,4.2,2.9,5.6
		c0,0,8.3,9,27.4-0.4c13.4-6.6,18.6-20.2,18.6-20.2c1.2-3.4,1.4-7.4-0.8-10.9C333.4,414.7,331.9,413.5,330.2,412.8z M286.4,352.1
		c1.3-1,2.8-1.6,4.5-1.7c3.4-0.3,7.8,0.9,11.6,2.6c3.7,1.8,7.2,4.4,9.2,7.4c1,1.5,1.7,3,1.9,4.4c0.1,0.7,0.1,1.5,0,2.3
		c-0.1,0.4-0.1,0.8-0.3,1.2v0.1c-2.4,0.2-4.8,0.9-6.9,1.8c-2.2-4-5.3-7.3-8.8-9.9c-3.9-2.9-8.2-5.1-12.7-6.7
		C285.4,353.1,285.9,352.5,286.4,352.1z M264.2,363.9c1.1-2.1,2.4-3.9,3.9-4.8c2.3-1.8,7.8-0.9,12.4,0.5c4.7,1.4,9.2,3.7,13,6.5
		c3,2.1,5.4,4.7,7.2,7.6c-2.2,1.6-4.3,3.5-6.1,5.4c-1.3,1.3-2.7,3-3.7,4l-3.2,3.1c-0.1-0.4-0.1-0.8-0.2-1.2c-0.8-3.8-2.9-7.3-5.5-10
		c-2.7-2.8-5.8-4.7-9.2-6.2c-3-1.3-6.4-2.1-9.8-2.1C263.3,365.7,263.7,364.8,264.2,363.9z M327.9,425.3c-2.4,4.3-7.4,8.7-12.6,11.6
		c-2.5,1.6-5.2,2.9-7.7,4.2c-2.6,1.3-5.2,2.3-7.7,2.6c-2.6,0.3-5.3,0.1-6.6-0.6c-0.6,0.1-1.3-0.5-1.8-1.6c-0.4-0.7-0.6-1.7-0.7-2.7
		c1.8-0.6,3.6-1.3,5.3-2.1c3.1-1.4,6.3-2.9,8.2-6.3c-3.9-0.3-6.7,0.9-9.9,1.7c-3.1,0.8-6.2,1.2-9.2,1.3c-3,0.1-5.9-0.3-8.3-1.1
		c-2.4-0.9-4.3-2.3-5.8-4.3c-1.6-2-2.1-4.3-3.7-8c-1.5-3.3-3.4-6.5-5.6-9.3c-4.3-5.7-9.6-10.1-13-14.7c-1.6-2.3-2.6-4.6-2.7-7
		c0-1.2,0.1-2.5,0.4-3.8c0.1-0.7,0.8-2,1.6-3.1c3.3-4.5,8.4-7.9,13.8-8.3c2.7-0.3,5.5,0.2,8.2,1.2c2.7,1.1,5.4,2.5,7.4,4.4
		c2.1,1.9,3.7,4.2,4.4,6.8c0.4,1.3,0.4,2.7,0.7,4.1c0,0.2,0.1,0.4,0.2,0.6c-1.2,1.3-2.4,2.7-3.5,4.2c-1.2,1.7-2.3,3.5-3.1,5.8
		c-0.1,0.2-0.1,0.4-0.2,0.5c-1.6,0-3.2,0-4.7-0.5c-2-0.3-3.9-1.1-5.6-2.2c-1.8-1.1-3.4-2.6-4.8-4.3c-0.7-0.9-1.4-1.8-2-2.8
		s-1-2-3.2-2.7c-1.6,1.7-1.1,3.1-0.7,4.4c0.4,1.3,0.9,2.6,1.4,3.8c1.2,2.5,2.8,4.9,5,6.9s4.8,3.6,7.6,4.5c2.5,0.8,5,1.1,7.5,1.2
		c1.1,2.1,2.6,3.7,4.2,4.9c1.7,1.3,3.9,2.5,6,3.1c4.3,1.3,8.5,1,12.5,0.2c3.9-0.8,7.7-2.3,11.1-4.5c3.4-2.1,6.5-4.8,8.7-8.3
		c2.4-3.3,3.4-8.1,1-11.8c-2.4,3.5-3.8,5.9-5.6,8.6c-1.9,2.5-4.4,4.6-7.3,6.2c-5.6,3.1-12.8,4.3-18.2,2.6c-2.5-0.7-5.1-3-5.5-4.6
		c-0.5-1.4,0.4-3.9,2.3-6.4s4.3-4.9,6.9-7.4l4-3.8c1.5-1.6,2.5-2.8,3.7-4c4.7-4.8,10.3-8.6,15.5-8c2.8,0.3,4.8,1.2,6.8,3.4
		c2,2.1,3.5,4.9,4.4,7.8c1.9,5.9,1.3,12.6-1.6,18.3c-1.4,2.8-3.4,5.5-5.8,7.8c-2.7,1.9-5,4.2-6.3,9c4.9,1.1,8.6-1,11-4.1l2-2
		c1.6,0.5,2.6,1.5,2.8,2.7C329.6,421,329.2,423.2,327.9,425.3z"/>
</g>
</svg>
