<?xml version="1.0" encoding="utf-8"?>
<!-- Generator: Adobe Illustrator 24.0.1, SVG Export Plug-In . SVG Version: 6.00 Build 0)  -->
<svg version="1.1" id="Layer_1" xmlns="http://www.w3.org/2000/svg" xmlns:xlink="http://www.w3.org/1999/xlink" x="0px" y="0px"
	 viewBox="0 0 800 800" style="enable-background:new 0 0 800 800;" xml:space="preserve">
<style type="text/css">
	.st0{fill:#FFFFFF;}
</style>
<g>
	<path class="st0" d="M265.5,430.2c5,9.4,22.4,6.9,22.4,6.9s0.6,6.8,1.9,9.1c1.2,2.1,5.5,2.1,14.1,1.1c0.6-2,2.4-0.3,3.8-1.8
		c1.9-2,6.5-3.1,8.7-4.7c2-1.3,4.6-4.6,6.7-5.7c3.3-1.8,3.4-4.7,7-5.4H330c-0.1-0.2-0.1-0.3-0.2-0.5c0.6-1.3,1-2.6,1.3-3.8
		c1.5-8.8-5.3-11.2-5.3-11.2s5.4-12.8,5.3-23.2c-0.1-10.4-14.7-20.6-14.7-20.6s0.7-4-0.3-9.7c-0.9-5.6-10-12.4-20.6-13.8
		s-16.2,8.1-16.2,8.1s-4.7-0.1-10.5,1s-9.8,15.6-9.8,15.6l-14.5,9.1c0,0-4.4,9.8,1.3,18.5S260.5,420.8,265.5,430.2z"/>
	<path d="M330.2,412.8c0.7-1,1.3-2,1.9-3.1c4-7.1,5.1-15.9,2.8-23.8c-1.1-4-3-7.8-5.9-11.1c-1.5-1.6-3.2-3.1-5.3-4.3
		c-1.2-0.6-2.4-1.1-3.5-1.4c0.6-1.4,1-2.9,1-4.5c0.2-3.3-1.1-6.3-2.7-8.7c-3.4-4.7-7.9-7.6-12.6-9.8c-4.8-2-9.8-3.6-15.7-2.7
		c-2.9,0.5-5.9,1.9-7.9,4.3c-1,1.2-1.8,2.4-2.4,3.8c-0.1,0.2-0.1,0.4-0.2,0.6c-1.8-0.4-3.6-0.7-5.5-0.8c-1.5-0.1-3.1-0.1-4.8,0.2
		c-1.8,0.3-3.6,1.1-4.9,2.2c-2.8,2.2-4.4,5-5.5,7.7c-0.6,1.4-1,2.8-1.3,4.1c-0.1,0.6-0.4,1.2-0.3,1.9c-6,1.5-11.3,5.4-14.9,10.2
		c-1.1,1.6-2.3,3.1-3,5.6c-0.5,1.9-0.8,3.9-0.8,6c0,4.2,1.7,8.3,3.8,11.4c4.2,6.2,8.8,10.6,12.3,15.7c1.7,2.5,3.3,5,4.6,7.7
		c1.1,2.3,2.5,6.5,5.3,9.6c2.7,3.2,6.5,5.5,10.5,6.4c3.8,0.9,7.5,0.7,10.9,0.1c0,0.7,0.1,1.4,0.2,2.1c0.3,2.1,1.4,4.2,2.9,5.6
		c0,0,8.3,9,27.4-0.4c13.4-6.6,18.6-20.2,18.6-20.2c1.2-3.4,1.4-7.4-0.8-10.9C333.4,414.7,331.9,413.5,330.2,412.8z M286.4,352.1
		c1.3-1,2.8-1.6,4.5-1.7c3.4-0.3,7.8,0.9,11.6,2.6c3.7,1.8,7.2,4.4,9.2,7.4c1,1.5,1.7,3,1.9,4.4c0.1,0.7,0.1,1.5,0,2.3
		c-0.1,0.4-0.1,0.8-0.3,1.2v0.1c-2.4,0.2-4.8,0.9-6.9,1.8c-2.2-4-5.3-7.3-8.8-9.9c-3.9-2.9-8.2-5.1-12.7-6.7
		C285.4,353.1,285.9,352.5,286.4,352.1z M264.2,363.9c1.1-2.1,2.4-3.9,3.9-4.8c2.3-1.8,7.8-0.9,12.4,0.5c4.7,1.4,9.2,3.7,13,6.5
		c3,2.1,5.4,4.7,7.2,7.6c-2.2,1.6-4.3,3.5-6.1,5.4c-1.3,1.3-2.7,3-3.7,4l-3.2,3.1c-0.1-0.4-0.1-0.8-0.2-1.2c-0.8-3.8-2.9-7.3-5.5-10
		c-2.7-2.8-5.8-4.7-9.2-6.2c-3-1.3-6.4-2.1-9.8-2.1C263.3,365.7,263.7,364.8,264.2,363.9z M327.9,425.3c-2.4,4.3-7.4,8.7-12.6,11.6
		c-2.5,1.6-5.2,2.9-7.7,4.2c-2.6,1.3-5.2,2.3-7.7,2.6c-2.6,0.3-5.3,0.1-6.6-0.6c-0.6,0.1-1.3-0.5-1.8-1.6c-0.4-0.7-0.6-1.7-0.7-2.7
		c1.8-0.6,3.6-1.3,5.3-2.1c3.1-1.4,6.3-2.9,8.2-6.3c-3.9-0.3-6.7,0.9-9.9,1.7c-3.1,0.8-6.2,1.2-9.2,1.3c-3,0.1-5.9-0.3-8.3-1.1
		c-2.4-0.9-4.3-2.3-5.8-4.3c-1.6-2-2.1-4.3-3.7-8c-1.5-3.3-3.4-6.5-5.6-9.3c-4.3-5.7-9.6-10.1-13-14.7c-1.6-2.3-2.6-4.6-2.7-7
		c0-1.2,0.1-2.5,0.4-3.8c0.1-0.7,0.8-2,1.6-3.1c3.3-4.5,8.4-7.9,13.8-8.3c2.7-0.3,5.5,0.2,8.2,1.2c2.7,1.1,5.4,2.5,7.4,4.4
		c2.1,1.9,3.7,4.2,4.4,6.8c0.4,1.3,0.4,2.7,0.7,4.1c0,0.2,0.1,0.4,0.2,0.6c-1.2,1.3-2.4,2.7-3.5,4.2c-1.2,1.7-2.3,3.5-3.1,5.8
		c-0.1,0.2-0.1,0.4-0.2,0.5c-1.6,0-3.2,0-4.7-0.5c-2-0.3-3.9-1.1-5.6-2.2c-1.8-1.1-3.4-2.6-4.8-4.3c-0.7-0.9-1.4-1.8-2-2.8
		s-1-2-3.2-2.7c-1.6,1.7-1.1,3.1-0.7,4.4c0.4,1.3,0.9,2.6,1.4,3.8c1.2,2.5,2.8,4.9,5,6.9s4.8,3.6,7.6,4.5c2.5,0.8,5,1.1,7.5,1.2
		c1.1,2.1,2.6,3.7,4.2,4.9c1.7,1.3,3.9,2.5,6,3.1c4.3,1.3,8.5,1,12.5,0.2c3.9-0.8,7.7-2.3,11.1-4.5c3.4-2.1,6.5-4.8,8.7-8.3
		c2.4-3.3,3.4-8.1,1-11.8c-2.4,3.5-3.8,5.9-5.6,8.6c-1.9,2.5-4.4,4.6-7.3,6.2c-5.6,3.1-12.8,4.3-18.2,2.6c-2.5-0.7-5.1-3-5.5-4.6
		c-0.5-1.4,0.4-3.9,2.3-6.4s4.3-4.9,6.9-7.4l4-3.8c1.5-1.6,2.5-2.8,3.7-4c4.7-4.8,10.3-8.6,15.5-8c2.8,0.3,4.8,1.2,6.8,3.4
		c2,2.1,3.5,4.9,4.4,7.8c1.9,5.9,1.3,12.6-1.6,18.3c-1.4,2.8-3.4,5.5-5.8,7.8c-2.7,1.9-5,4.2-6.3,9c4.9,1.1,8.6-1,11-4.1l2-2
		c1.6,0.5,2.6,1.5,2.8,2.7C329.6,421,329.2,423.2,327.9,425.3z"/>
	<g>
		<g>
			<ellipse class="st0" cx="354.5" cy="327.9" rx="51.5" ry="50.1"/>
			<path class="st0" d="M230.8,441c-6.4,4.8,4.7,17.5,11.4,10.8c9.5-9.5,38-43.1,38-43.1l-7.6-3.2
				C272.6,405.5,243.4,431.5,230.8,441z"/>
		</g>
		<path d="M273,408c0.2,0,0.4,0,0.6-0.1s0.4-0.3,0.3-0.1l-0.4,0.4l-0.8,0.7l-1.5,1.4l-3.1,2.9l-6.3,5.7c-4.2,3.8-8.5,7.5-12.7,11.2
			c-4.3,3.7-8.6,7.3-13.1,10.9c-0.6,0.4-1.1,0.9-1.7,1.3l-0.9,0.7l-0.4,0.3c-0.1,0.1-0.3,0.3-0.3,0.3c-0.3,0.2-0.4,0.4-0.5,0.6
			s-0.2,0.4-0.2,0.7c0,0.6,0.2,1.5,0.8,2.4c0.5,0.8,1.2,1.6,2,2.2s1.7,1,2.4,1.2c0.4,0.1,0.7,0.1,1.1,0c0.3-0.1,0.6-0.2,1-0.4
			c0.2-0.1,0.3-0.2,0.5-0.3c0.2-0.2,0.3-0.2,0.6-0.5l1.4-1.5l2.9-3c3.8-4.1,7.6-8.3,11.4-12.4l22.7-25.1l0,0l0.7,3.1
			C277.1,409.7,275,408.9,273,408z M272.2,403.1c3,1.1,6,2.4,8.8,3.8l2.3,1.1l-1.6,2l0,0c-3.5,4.4-7.1,8.8-10.6,13.2
			c-3.6,4.3-7.2,8.7-10.9,13c-3.6,4.3-7.4,8.6-11.2,12.8c-1,1.1-1.9,2.1-2.9,3.2l-1.5,1.6c-0.2,0.2-0.6,0.6-1,0.9s-0.8,0.6-1.2,0.9
			c-0.9,0.5-1.9,0.9-3,1.1s-2.1,0.2-3.1,0c-2-0.3-3.7-1.2-5.2-2.3c-1.5-1.1-2.7-2.4-3.6-4c-0.9-1.6-1.7-3.4-1.7-5.6
			c0-1.1,0.2-2.3,0.8-3.4c0.5-1.1,1.3-2,2.2-2.7l3.4-2.6c4.4-3.4,8.7-7,13-10.6s8.6-7.2,12.9-10.9l6.5-5.4l3.2-2.7l1.6-1.4l0.8-0.7
			l0.4-0.3c0,0,0.4-0.3,0.7-0.5C271.5,403.3,271.8,403.2,272.2,403.1z"/>
		<path d="M404.1,307.6c-2.8-6.4-6.8-12.2-11.8-17s-10.9-8.7-17.4-11.3c-6.4-2.6-13.4-3.9-20.4-4c-7,0-13.9,1.2-20.4,3.8
			c-6.5,2.6-12.5,6.4-17.5,11.2c-5,4.8-9.1,10.7-11.7,17.2c-2.7,6.4-4,13.4-3.9,20.3s1.6,13.8,4.4,20.1l2.3,4.6
			c0.9,1.5,1.8,2.9,2.7,4.4c1,1.4,2.1,2.8,3.1,4.1c1.1,1.1,2.1,2.3,3.2,3.4l-0.5,6.6l4.3,3.2l3.7-3.5c3.1,2.2,6.4,4,9.9,5.5
			c6.4,2.7,13.3,4.2,20.3,4.4c7,0.1,14.1-1,20.7-3.5s12.7-6.3,17.9-11.2c5.2-4.9,9.2-10.9,11.7-17.5c2.6-6.6,3.7-13.6,3.6-20.6
			C408.3,320.9,406.8,314,404.1,307.6z M399.3,346.1c-2.7,5.6-6.5,10.7-11,15c-8.9,8.7-21.2,13.8-33.8,14.2
			c-6.3,0.1-12.7-0.9-18.7-3.1s-11.5-5.6-16.2-10s-8.5-9.7-11-15.6c-0.5-1.5-1.1-3-1.6-4.5c-0.4-1.6-0.8-3.1-1.2-4.7l-0.7-4.7
			l-0.2-4.8c0.1-6.4,1.5-12.7,4.2-18.5c2.6-5.8,6.4-11,11-15.4c9.1-8.8,21.7-13.7,34.4-13.8c6.4,0,12.7,1.1,18.6,3.5
			c5.9,2.3,11.4,5.8,16,10.1c4.6,4.4,8.4,9.7,10.9,15.5c2.6,5.8,3.8,12.2,3.7,18.5C403.6,334.3,402,340.5,399.3,346.1z"/>
		<g>
			<g>
				<path d="M402.4,312.8c-21.5,17.6-42.2,15.5-47.7,14.6c4.4-2.7,23.1-15.8,19.4-43.1c-15.3-10.4-36.7-4.7-36.7-4.7
					c19.5,21.8,17.4,42.8,16.7,46.9c-1.6-2.4-16.9-22.3-45.6-16c-9.1,16.1-1.7,37-1.7,37c20.6-21.7,43.1-20.7,46.4-20.4
					c-3,2.2-23,18.1-15.2,47.1c16.3,8.9,36.7-0.9,36.7-0.9c-21.1-19.4-21.1-40.8-20.9-45.4c2.6,4.3,16,24.2,44.3,21
					C409.4,334,402.4,312.8,402.4,312.8z"/>
			</g>
			<g>
				<path d="M326.6,327.8c-0.5-3.6,0-7.4,1.1-10.9c1.2-3.5,3.2-6.9,5.8-9.7c5.2-5.7,12.9-9,20.7-9c7.8,0,15.5,3.3,20.7,9
					c2.6,2.8,4.6,6.1,5.8,9.7c1.2,3.6,1.6,7.3,1.1,10.9h-1c-0.9-6.9-4.1-13.2-9-17.5s-11.2-6.8-17.6-6.7c-6.4,0-12.7,2.4-17.6,6.7
					c-4.9,4.3-8.1,10.6-9,17.5H326.6z"/>
			</g>
			<g>
				<path class="st0" d="M340.1,359.2c-4.7-1.1-9.2-3.4-13.1-6.6s-7.1-7.3-9.3-12c-2.2-4.6-3.5-9.8-3.7-15c0-1.3,0-2.6,0.1-3.9
					c0.2-1.3,0.3-2.6,0.5-3.9c0.3-1.3,0.6-2.6,0.9-3.8l1.3-3.7l1.7-3.6c0.6-1.1,1.3-2.3,2-3.4s1.6-2.1,2.4-3.2
					c0.8-1,1.8-1.9,2.7-2.9c3.7-3.7,8.2-6.5,13.1-8.3c4.8-1.8,10-2.6,15.1-2.2c5,0.4,9.9,1.9,14.1,4.4c0.4,0.2,0.5,0.7,0.3,1.1
					c-0.2,0.3-0.5,0.4-0.8,0.4c-9.1-2.1-18.3-1.1-25.9,2.8c-7.7,3.8-13.7,10.3-16.8,18.1c-3.2,7.8-3.5,16.6-0.7,24.8
					c2.8,8.2,8.6,15.4,16.7,20.3c0.2,0.1,0.2,0.3,0.1,0.5C340.4,359.1,340.2,359.2,340.1,359.2z"/>
			</g>
		</g>
	</g>
</g>
</svg>
