<?xml version="1.0" encoding="utf-8"?>
<!-- Generator: Adobe Illustrator 24.0.1, SVG Export Plug-In . SVG Version: 6.00 Build 0)  -->
<svg version="1.1" id="Layer_1" xmlns="http://www.w3.org/2000/svg" xmlns:xlink="http://www.w3.org/1999/xlink" x="0px" y="0px"
	 viewBox="0 0 800 800" style="enable-background:new 0 0 800 800;" xml:space="preserve">
<style type="text/css">
	.st0{fill:#FFFFFF;}
</style>
<g>
	<path class="st0" d="M265.5,430.2c5,9.4,22.4,6.9,22.4,6.9s0.6,6.8,1.9,9.1c1.2,2.1,5.5,2.1,14.1,1.1c0.6-2,2.4-0.3,3.8-1.8
		c1.9-2,6.5-3.1,8.7-4.7c2-1.3,4.6-4.6,6.7-5.7c3.3-1.8,3.4-4.7,7-5.4H330c-0.1-0.2-0.1-0.3-0.2-0.5c0.6-1.3,1-2.6,1.3-3.8
		c1.5-8.8-5.3-11.2-5.3-11.2s5.4-12.8,5.3-23.2c-0.1-10.4-14.7-20.6-14.7-20.6s0.7-4-0.3-9.7c-0.9-5.6-10-12.4-20.6-13.8
		s-16.2,8.1-16.2,8.1s-4.7-0.1-10.5,1s-9.8,15.6-9.8,15.6l-14.5,9.1c0,0-4.4,9.8,1.3,18.5S260.5,420.8,265.5,430.2z"/>
	<path d="M330.2,412.8c0.7-1,1.3-2,1.9-3.1c4-7.1,5.1-15.9,2.8-23.8c-1.1-4-3-7.8-5.9-11.1c-1.5-1.6-3.2-3.1-5.3-4.3
		c-1.2-0.6-2.4-1.1-3.5-1.4c0.6-1.4,1-2.9,1-4.5c0.2-3.3-1.1-6.3-2.7-8.7c-3.4-4.7-7.9-7.6-12.6-9.8c-4.8-2-9.8-3.6-15.7-2.7
		c-2.9,0.5-5.9,1.9-7.9,4.3c-1,1.2-1.8,2.4-2.4,3.8c-0.1,0.2-0.1,0.4-0.2,0.6c-1.8-0.4-3.6-0.7-5.5-0.8c-1.5-0.1-3.1-0.1-4.8,0.2
		c-1.8,0.3-3.6,1.1-4.9,2.2c-2.8,2.2-4.4,5-5.5,7.7c-0.6,1.4-1,2.8-1.3,4.1c-0.1,0.6-0.4,1.2-0.3,1.9c-6,1.5-11.3,5.4-14.9,10.2
		c-1.1,1.6-2.3,3.1-3,5.6c-0.5,1.9-0.8,3.9-0.8,6c0,4.2,1.7,8.3,3.8,11.4c4.2,6.2,8.8,10.6,12.3,15.7c1.7,2.5,3.3,5,4.6,7.7
		c1.1,2.3,2.5,6.5,5.3,9.6c2.7,3.2,6.5,5.5,10.5,6.4c3.8,0.9,7.5,0.7,10.9,0.1c0,0.7,0.1,1.4,0.2,2.1c0.3,2.1,1.4,4.2,2.9,5.6
		c0,0,8.3,9,27.4-0.4c13.4-6.6,18.6-20.2,18.6-20.2c1.2-3.4,1.4-7.4-0.8-10.9C333.4,414.7,331.9,413.5,330.2,412.8z M286.4,352.1
		c1.3-1,2.8-1.6,4.5-1.7c3.4-0.3,7.8,0.9,11.6,2.6c3.7,1.8,7.2,4.4,9.2,7.4c1,1.5,1.7,3,1.9,4.4c0.1,0.7,0.1,1.5,0,2.3
		c-0.1,0.4-0.1,0.8-0.3,1.2v0.1c-2.4,0.2-4.8,0.9-6.9,1.8c-2.2-4-5.3-7.3-8.8-9.9c-3.9-2.9-8.2-5.1-12.7-6.7
		C285.4,353.1,285.9,352.5,286.4,352.1z M264.2,363.9c1.1-2.1,2.4-3.9,3.9-4.8c2.3-1.8,7.8-0.9,12.4,0.5c4.7,1.4,9.2,3.7,13,6.5
		c3,2.1,5.4,4.7,7.2,7.6c-2.2,1.6-4.3,3.5-6.1,5.4c-1.3,1.3-2.7,3-3.7,4l-3.2,3.1c-0.1-0.4-0.1-0.8-0.2-1.2c-0.8-3.8-2.9-7.3-5.5-10
		c-2.7-2.8-5.8-4.7-9.2-6.2c-3-1.3-6.4-2.1-9.8-2.1C263.3,365.7,263.7,364.8,264.2,363.9z M327.9,425.3c-2.4,4.3-7.4,8.7-12.6,11.6
		c-2.5,1.6-5.2,2.9-7.7,4.2c-2.6,1.3-5.2,2.3-7.7,2.6c-2.6,0.3-5.3,0.1-6.6-0.6c-0.6,0.1-1.3-0.5-1.8-1.6c-0.4-0.7-0.6-1.7-0.7-2.7
		c1.8-0.6,3.6-1.3,5.3-2.1c3.1-1.4,6.3-2.9,8.2-6.3c-3.9-0.3-6.7,0.9-9.9,1.7c-3.1,0.8-6.2,1.2-9.2,1.3c-3,0.1-5.9-0.3-8.3-1.1
		c-2.4-0.9-4.3-2.3-5.8-4.3c-1.6-2-2.1-4.3-3.7-8c-1.5-3.3-3.4-6.5-5.6-9.3c-4.3-5.7-9.6-10.1-13-14.7c-1.6-2.3-2.6-4.6-2.7-7
		c0-1.2,0.1-2.5,0.4-3.8c0.1-0.7,0.8-2,1.6-3.1c3.3-4.5,8.4-7.9,13.8-8.3c2.7-0.3,5.5,0.2,8.2,1.2c2.7,1.1,5.4,2.5,7.4,4.4
		c2.1,1.9,3.7,4.2,4.4,6.8c0.4,1.3,0.4,2.7,0.7,4.1c0,0.2,0.1,0.4,0.2,0.6c-1.2,1.3-2.4,2.7-3.5,4.2c-1.2,1.7-2.3,3.5-3.1,5.8
		c-0.1,0.2-0.1,0.4-0.2,0.5c-1.6,0-3.2,0-4.7-0.5c-2-0.3-3.9-1.1-5.6-2.2c-1.8-1.1-3.4-2.6-4.8-4.3c-0.7-0.9-1.4-1.8-2-2.8
		s-1-2-3.2-2.7c-1.6,1.7-1.1,3.1-0.7,4.4c0.4,1.3,0.9,2.6,1.4,3.8c1.2,2.5,2.8,4.9,5,6.9s4.8,3.6,7.6,4.5c2.5,0.8,5,1.1,7.5,1.2
		c1.1,2.1,2.6,3.7,4.2,4.9c1.7,1.3,3.9,2.5,6,3.1c4.3,1.3,8.5,1,12.5,0.2c3.9-0.8,7.7-2.3,11.1-4.5c3.4-2.1,6.5-4.8,8.7-8.3
		c2.4-3.3,3.4-8.1,1-11.8c-2.4,3.5-3.8,5.9-5.6,8.6c-1.9,2.5-4.4,4.6-7.3,6.2c-5.6,3.1-12.8,4.3-18.2,2.6c-2.5-0.7-5.1-3-5.5-4.6
		c-0.5-1.4,0.4-3.9,2.3-6.4s4.3-4.9,6.9-7.4l4-3.8c1.5-1.6,2.5-2.8,3.7-4c4.7-4.8,10.3-8.6,15.5-8c2.8,0.3,4.8,1.2,6.8,3.4
		c2,2.1,3.5,4.9,4.4,7.8c1.9,5.9,1.3,12.6-1.6,18.3c-1.4,2.8-3.4,5.5-5.8,7.8c-2.7,1.9-5,4.2-6.3,9c4.9,1.1,8.6-1,11-4.1l2-2
		c1.6,0.5,2.6,1.5,2.8,2.7C329.6,421,329.2,423.2,327.9,425.3z"/>
	<g>
		<path class="st0" d="M357.4,357.3c-7.1-9.6-11.6-22.6-13.2-28c-0.2-0.8-0.4-1.7-0.7-2.5c-0.2-0.5-7.3-35,9.3-62.6
			c4.3-7.1,2-16.3-5.1-20.6s-16.3-2-20.6,5.1c-31.2,51.9-12.4,86.6-11.5,89.1c2.3,5.9,8,9.4,13.9,9.4c1.2,0,2.5-0.2,3.8-0.5
			c1,2.3,3.4,7.5,9.2,17.6C350.9,379.4,366.6,369.6,357.4,357.3z"/>
		<g>
			<path d="M354.3,359.5c-3.3-4.5-5.8-9.3-8-14.2c-2.2-4.9-4-9.9-5.5-15l-0.1-0.2V330c-0.1-0.6-0.2-1.1-0.4-1.7l-0.1-0.2V328
				l-0.1-0.3c-0.1-0.2-0.1-0.4-0.1-0.6v-0.2v-0.1l-0.2-1.2c-0.2-1.5-0.4-3-0.6-4.5c-0.1-1.5-0.3-3-0.4-4.5l-0.1-2.3l-0.1-2.3
				c-0.1-6,0.2-12.1,1.1-18.1c0.4-3,1.1-6,1.7-8.9l1.2-4.4c0.2-0.7,0.4-1.5,0.7-2.2l0.8-2.1l0.8-2.1l0.9-2.1l0.9-2.1
				c0.3-0.7,0.6-1.4,1-2.1l2.2-4l1-1.8c0.2-0.6,0.5-1.1,0.7-1.7c0.4-1.2,0.6-2.4,0.7-3.6c0.1-1.2,0-2.5-0.3-3.7
				c-0.6-2.4-1.8-4.6-3.7-6.2c-1.8-1.6-4.2-2.8-6.6-3.1c-0.6-0.1-1.2-0.1-1.9-0.2c-0.6,0-1.3,0-1.9,0.2c-1.2,0.2-2.5,0.5-3.6,1.1
				c-2.3,1-4.2,2.8-5.5,5l-4.2,7.6c-0.3,0.6-0.7,1.3-1,1.9l-0.9,2l-1.8,3.9c-1.3,2.6-2.2,5.3-3.3,8c-0.5,1.4-1.1,2.7-1.5,4.1
				l-1.2,4.1l-0.6,2.1l-0.3,1c-0.1,0.3-0.1,0.7-0.2,1.1l-0.9,4.2l-0.4,2.1c-0.1,0.7-0.2,1.4-0.3,2.1l-0.5,4.3
				c-0.2,1.4-0.2,2.9-0.2,4.3s-0.2,2.9,0,4.3l0.2,4.3c0.1,1.4,0.3,2.8,0.5,4.2c0.1,1.4,0.5,2.8,0.7,4.2l0.4,2.1l0.6,2l0.6,2l0.7,2
				c0.4,1.3,1,2.6,1.5,3.9s1.1,2.5,1.8,3.8l0.5,1.1l0.4,0.8l0.4,0.7l0.5,0.7c1.3,1.8,3.2,3.1,5.3,3.8c1,0.4,2.1,0.6,3.2,0.6
				c0.6,0,1,0,1.6,0c1.4-0.1,2.8,0.1,4.1,0.7c1.3,0.6,2.5,1.6,3.3,2.8c0.2,0.3,0.4,0.6,0.5,1l0.2,0.5l0.5,1c0.6,1.3,1.3,2.5,2,3.8
				c1.4,2.5,2.8,5.1,4.2,7.6l1.1,1.9c0.3,0.5,0.6,1,1,1.5c0.7,0.9,1.4,1.8,2.2,2.4c0.8,0.6,1.6,1.1,2.4,1.4c0.8,0.2,1.6,0.3,2.2,0.1
				c1.3-0.3,2.2-1.3,2.4-2.8C356.5,363.5,355.7,361.4,354.3,359.5z M360.4,355c1,1.4,2,3,2.7,4.8s1.1,3.8,0.9,6
				c-0.1,2.1-1,4.4-2.4,6.2c-1.4,1.8-3.5,3.1-5.7,3.7s-4.4,0.5-6.5-0.1c-2-0.6-3.8-1.6-5.3-2.7c-1.5-1.2-2.7-2.6-3.8-4
				c-0.5-0.7-1-1.4-1.4-2.2l-1.1-2c-1.5-2.6-2.9-5.2-4.2-7.8c-0.7-1.3-1.4-2.7-2-4l-0.5-1l-0.2-0.5l0,0l0,0c0,0-0.1-0.1-0.2-0.1
				c-0.4,0-0.9,0-1.4,0s-0.9,0-1.4-0.1c-1.8-0.2-3.6-0.6-5.3-1.3c-3.4-1.4-6.3-3.9-8.3-6.9l-0.7-1.2l-0.6-1.2
				c-0.2-0.4-0.3-0.8-0.5-1.2l-0.4-0.9c-0.6-1.4-1.1-2.9-1.6-4.4c-0.4-1.5-0.9-2.9-1.2-4.4l-0.5-2.2l-0.4-2.2l-0.4-2.2l-0.3-2.3
				c-0.2-1.5-0.4-3-0.4-4.5c-0.1-1.5-0.2-3-0.2-4.5v-4.5c-0.1-1.5,0.2-3,0.2-4.5l0.2-2.2c0-0.7,0.1-1.5,0.2-2.2l0.6-4.4
				c0.1-0.7,0.2-1.5,0.3-2.2l0.5-2.2l0.9-4.4c0.1-0.4,0.1-0.7,0.2-1.1l0.3-1.1l0.6-2.2l1.2-4.3c0.4-1.4,1-2.8,1.5-4.2l1.6-4.2l0.4-1
				l0.5-1l0.9-2l1.8-4.1l0.9-2c0.3-0.7,0.7-1.3,1.1-2l4.3-7.8c1.7-2.8,4.2-5.3,7.2-6.7c1.5-0.7,3.1-1.3,4.8-1.6
				c0.8-0.2,1.7-0.2,2.5-0.3c0.8,0,1.7,0,2.5,0.1c3.4,0.4,6.5,1.9,9.1,4.1c2.6,2.2,4.5,5.3,5.3,8.6c0.5,1.6,0.6,3.3,0.6,5
				s-0.3,3.4-0.8,5c-0.2,0.8-0.6,1.6-0.9,2.4l-1.1,2.1l-1.9,3.8c-0.3,0.6-0.6,1.3-0.9,1.9l-0.8,2l-0.8,2l-0.7,2l-0.7,2
				c-0.2,0.7-0.4,1.3-0.6,2l-1,4.1c-0.5,2.8-1.1,5.6-1.4,8.4c-0.7,5.6-0.8,11.4-0.6,17l0.1,2.1l0.2,2.1c0.1,1.4,0.3,2.8,0.4,4.2
				c0.2,1.4,0.4,2.8,0.6,4.2l0.2,1v0.1v0.1l0,0c0,0,0,0,0-0.1l0,0l0.1,0.2l0.1,0.3c0.3,0.9,0.6,1.7,0.7,2.6l-0.1-0.3
				c1.5,4.8,3.4,9.5,5.5,14C355,346.8,357.5,351.2,360.4,355z"/>
		</g>
		<g>
			<path d="M327.4,348.4c-0.6-0.7-0.9-1.4-1.3-2c-0.3-0.6-0.6-1.2-0.9-1.8c-0.5-1.2-1-2.4-1.4-3.6c-0.9-2.4-1.6-4.8-2.2-7.2
				c-0.6-2.4-1.2-4.8-1.6-7.3c-0.5-2.4-0.9-4.9-1.2-7.3c-0.6-4.9-0.9-9.8-0.9-14.8c0-4.9,0.4-9.9,1.1-14.8c1.4-9.8,4.4-19.4,9-28.2
				c1.1-2.2,2.4-4.4,3.7-6.5c0.6-1.1,1.3-2.1,2-3.1l1.1-1.5c0.4-0.6,0.8-1.1,1.4-1.7c0.3-0.3,0.6-0.6,0.9-0.8s0.6-0.4,0.9-0.6
				c0.6-0.4,1.2-0.7,1.9-1c1.3-0.6,2.7-1,4.2-1.2c2.9-0.4,5.9,0.1,8.6,1.1l0,0c1.6,0.6,2.3,2.3,1.8,3.9c-0.6,1.6-2.3,2.3-3.9,1.8
				c-0.1,0-0.2-0.1-0.3-0.1c-1.8-0.9-3.7-1.5-5.6-1.4c-1,0-1.9,0.2-2.8,0.5c-0.5,0.2-0.9,0.4-1.4,0.6c-0.2,0.1-0.5,0.3-0.6,0.4
				c-0.2,0.1-0.3,0.2-0.5,0.4c-0.3,0.3-0.7,0.6-1,1l-1.1,1.4c-0.7,0.9-1.4,1.9-2.1,2.9c-1.4,1.9-2.6,4-3.8,6
				c-4.7,8.3-7.8,17.5-9.2,26.9c-1.4,9.4-1.3,19.1,0.3,28.6c0.8,4.7,2,9.4,3.5,13.8c0.8,2.2,1.7,4.4,2.7,6.5c0.5,1,1,2.1,1.6,3
				c0.3,0.5,0.6,0.9,0.9,1.4c0.3,0.4,0.6,0.8,0.8,1c1.3,1.1,1.4,3,0.3,4.3s-3,1.4-4.3,0.3c-0.1-0.1-0.3-0.3-0.4-0.4L327.4,348.4z"/>
		</g>
		<g>
			<path d="M323.8,316.1c1.3-1.5,2.7-2.8,4.2-4s3-2.3,4.5-3.5c1.5-1.1,3-2.2,4.6-3.3c1.5-1.1,3.1-2.1,4.7-3.2c1-0.6,2.3-0.3,3,0.6
				c0.6,1,0.3,2.3-0.6,3l0,0c-1.6,1-3.2,2-4.9,2.9c-1.6,0.9-3.3,1.8-5,2.7c-1.7,0.9-3.3,1.8-5,2.6
				C327.5,314.9,325.7,315.6,323.8,316.1z"/>
		</g>
		<g>
			<path d="M334.5,324.6c-0.6,1.1-1.3,1.9-2.1,2.6c-0.8,0.7-1.6,1.4-2.4,2.1c-1.6,1.4-3.3,2.7-5,3.8c-1,0.6-2.3,0.4-3-0.6
				c-0.6-1-0.4-2.3,0.6-3l0,0c1.8-1.1,3.7-2.1,5.6-3c1-0.4,1.9-0.9,2.9-1.3C332.2,325,333.3,324.7,334.5,324.6z"/>
		</g>
		<g>
			<path d="M334.7,302.8c-0.9,1.3-1.9,2.3-3,3.2c-1.1,0.9-2.2,1.8-3.3,2.7c-1.1,0.9-2.2,1.8-3.4,2.6c-1.1,0.8-2.3,1.7-3.5,2.4
				c-1,0.6-2.3,0.4-3-0.6c-0.6-1-0.4-2.3,0.6-3l0,0c1.2-0.8,2.4-1.5,3.7-2.2c1.2-0.7,2.5-1.4,3.8-2s2.5-1.3,3.8-1.9
				C331.8,303.6,333.2,303.1,334.7,302.8z"/>
		</g>
		<g>
			<path d="M327.2,289.3c1.3-1.5,2.7-2.8,4.2-4s3-2.3,4.5-3.5c1.5-1.1,3-2.2,4.6-3.3c1.5-1.1,3.1-2.1,4.7-3.2c1-0.6,2.3-0.3,3,0.6
				c0.6,1,0.3,2.3-0.6,3l0,0c-1.6,1-3.2,2-4.9,2.9c-1.6,0.9-3.3,1.8-5,2.7c-1.7,0.9-3.3,1.8-5,2.6
				C330.9,288,329.1,288.8,327.2,289.3z"/>
		</g>
		<g>
			<path d="M325.3,281.8c1.9-2,4-3.8,6.1-5.5s4.3-3.4,6.4-5c2.2-1.7,4.3-3.3,6.5-4.9s4.4-3.2,6.6-4.7c1-0.7,2.3-0.4,3,0.5
				c0.7,1,0.4,2.3-0.5,3l0,0c-2.2,1.5-4.5,3-6.8,4.5s-4.6,2.9-6.9,4.3s-4.6,2.8-7,4.2C330.2,279.5,327.8,280.8,325.3,281.8z"/>
		</g>
		<g>
			<path d="M288.3,414.6c-1.6-1.2-2.9-2.7-4.2-4.2c-1.2-1.5-2.5-3-4-4.2s-3.4-2.1-5.3-2.7c-2-0.5-4-0.8-5.9-1.3s-3.7-1.3-5.3-2.5
				c-2.2-1.6-3.8-3.8-5.4-5.9c-2.9,0.6-5.8,1.1-8.8,1.4c-8.2,0.8-14.2,8.2-13.4,16.4c0.8,7.7,7.3,13.5,14.9,13.5c0.5,0,1,0,1.5-0.1
				c13.5-1.4,25.7-5.1,36.4-10.1C288.7,414.8,288.5,414.7,288.3,414.6z"/>
			<path d="M342.1,343.5c-7-4.3-16.3-2.2-20.6,4.9c-0.1,0.1-2.4,3.7-6.6,8.9c0.3,0.4,0.6,0.8,0.8,1.3c0.7,1.3,1.3,2.6,1.5,4.1
				s0.1,3.1,0.1,4.6c0.1,1.4,0.3,2.7,1.2,3.8c0.9,1,2.1,1.7,3.3,2.3c1.2,0.7,2.5,1.3,3.7,2c1.3,0.9,2.2,2.1,3.1,3.3
				c1.1,1.7,1.8,3.6,2.4,5.5c10.1-10.6,15.5-19.3,16.1-20.2C351.4,357,349.1,347.8,342.1,343.5z"/>
			
				<ellipse transform="matrix(0.4744 -0.8803 0.8803 0.4744 -136.2248 485.837)" class="st0" cx="338.7" cy="357" rx="5.2" ry="3.4"/>
		</g>
	</g>
</g>
</svg>
