<?xml version="1.0" encoding="utf-8"?>
<!-- Generator: Adobe Illustrator 24.0.1, SVG Export Plug-In . SVG Version: 6.00 Build 0)  -->
<svg version="1.1" id="Layer_1" xmlns="http://www.w3.org/2000/svg" xmlns:xlink="http://www.w3.org/1999/xlink" x="0px" y="0px"
	 viewBox="0 0 1000 1000" style="enable-background:new 0 0 1000 1000;" xml:space="preserve">
<g id="skin">
	<path d="M705.1,398.8c-30.3-2.4-73.7,22-73.4,33.9c0.4,11.9,44.4,34.4,74.6,36.7c30.3,2.4,73.7-12.9,73.5-25.1
		C779.7,432.1,735.4,401.2,705.1,398.8z"/>
	<path d="M294.9,398.8c-30.3,2.4-74.6,33.3-74.8,45.5c-0.2,12.3,43.3,27.5,73.5,25.1c30.3-2.4,74.3-24.8,74.6-36.7
		C368.6,420.8,325.2,396.5,294.9,398.8z"/>
</g>
<g id="earskin">
	<path d="M764.1,445.4c-1.8-6.5-33.5-27.8-56.2-29.1c-22.8-1.4-55.8,15-55.3,22.4s33.4,22.1,56.1,23.5
		C731.5,463.5,765.9,451.9,764.1,445.4z"/>
	<path d="M292.1,416.2c-22.8,1.4-54.4,22.6-56.2,29.1s32.6,18.1,55.4,16.7c22.8-1.4,55.6-16.1,56.1-23.5
		C348,431.2,314.9,414.8,292.1,416.2z"/>
</g>
</svg>
