<?xml version="1.0" encoding="utf-8"?>
<!-- Generator: Adobe Illustrator 26.0.1, SVG Export Plug-In . SVG Version: 6.00 Build 0)  -->
<svg version="1.1" id="Layer_1" xmlns="http://www.w3.org/2000/svg" xmlns:xlink="http://www.w3.org/1999/xlink" x="0px" y="0px"
	 viewBox="0 0 1000 1000" style="enable-background:new 0 0 1000 1000;" xml:space="preserve">
<style type="text/css">
	.st0{fill:#642339;}
	.st1{fill:#DCADB3;}
</style>
<g id="skin-D">
	<path d="M590.9,440.3c-8.6-11-33.9-58.8-34.9-96.8c-1.1-41.5,23.4-89.3,37.2-80.1c13,8.5,33.6,53.6,31.8,86.6
		C623.3,380.5,602.6,425.1,590.9,440.3z"/>
	<path d="M409.1,440.3c8.6-11,33.9-58.8,34.9-96.8c1.1-41.5-23.4-89.3-37.2-80.1c-13,8.5-33.6,53.6-31.8,86.6
		C376.7,380.5,397.4,425.1,409.1,440.3z"/>
</g>
<g id="earskin">
	<path d="M600.1,406.3c-4.1-6.8-16.4-36.4-17.1-59.8c-0.8-25.6,10.4-54.7,17-49.1c6.2,5.3,16.2,33.3,15.6,53.5
		C614.9,369.7,605.4,397,600.1,406.3z"/>
	<path d="M399.9,406.3c4.1-6.8,16.4-36.4,17.1-59.8c0.8-25.6-10.4-54.7-17-49.1c-6.2,5.3-16.2,33.3-15.6,53.5
		C385.1,369.7,394.6,397,399.9,406.3z"/>
</g>
</svg>
