<?xml version="1.0" encoding="utf-8"?>
<!-- Generator: Adobe Illustrator 19.2.0, SVG Export Plug-In . SVG Version: 6.00 Build 0)  -->
<svg version="1.0" id="Layer_2" xmlns="http://www.w3.org/2000/svg" xmlns:xlink="http://www.w3.org/1999/xlink" x="0px" y="0px"
	 viewBox="0 0 1000 1000" enable-background="new 0 0 1000 1000" xml:space="preserve">
<path id="blacks_2_" fill="#6C1E4D" d="M646.29,282.76c29.09,31.62,45.28,81.73,40.34,138.16c-4.94,56.42-29.92,106.54-64.54,138.16
	c-38.13-31.62-60.17-81.73-55.23-138.16C571.81,364.5,602.62,314.39,646.29,282.76z"/>
<path id="earskin_3_" fill="#EBB4D5" d="M649.09,299.29c21.35,26.8,33.35,69.27,29.94,117.08s-21.48,90.28-46.65,117.08
	c-27.95-26.8-44.22-69.26-40.81-117.08S617.31,326.08,649.09,299.29z"/>
<path id="blacks_1_" fill="#6C1E4D" d="M353.7,282.76c-29.09,31.62-45.28,81.73-40.34,138.16c4.94,56.42,29.92,106.54,64.54,138.16
	c38.13-31.62,60.17-81.73,55.23-138.16C428.19,364.5,397.38,314.39,353.7,282.76z"/>
<path id="earskin_2_" fill="#EBB4D5" d="M350.91,299.29c-21.35,26.8-33.35,69.27-29.94,117.08s21.48,90.28,46.65,117.08
	c27.95-26.8,44.22-69.26,40.81-117.08S382.69,326.08,350.91,299.29z"/>
</svg>
