<?xml version="1.0" encoding="utf-8"?>
<!-- Generator: Adobe Illustrator 19.2.0, SVG Export Plug-In . SVG Version: 6.00 Build 0)  -->
<svg version="1.0" id="Layer_2" xmlns="http://www.w3.org/2000/svg" xmlns:xlink="http://www.w3.org/1999/xlink" x="0px" y="0px"
	 viewBox="0 0 1000 1000" enable-background="new 0 0 1000 1000" xml:space="preserve">
<g id="skin-D">
	<path fill="#EF67B0" d="M549.04,392.13c7.82-8.38,27.25-26.98,32.39-46.98c0,0,6.59-8.21,13.16-9.55
		c32.75,14.81,85.07,25.09,85.07,25.09s5.04,4.67,7.24,11.45c4.18,12.88-7.28,41.7-21.83,62.49
		c-14.55,20.79-71.8,70.68-120.76,43.58C495.35,451.09,541.21,400.5,549.04,392.13z"/>
	<path fill="#EF67B0" d="M450.96,392.13c-7.82-8.38-27.25-26.98-32.39-46.98c0,0-6.59-8.21-13.16-9.55
		c-32.75,14.81-85.07,25.09-85.07,25.09s-5.04,4.67-7.24,11.45c-4.18,12.88,7.28,41.7,21.83,62.49
		c14.55,20.79,71.8,70.68,120.76,43.58C504.65,451.09,458.79,400.5,450.96,392.13z"/>
</g>
<g id="blacks">
	<g id="XMLID_141_">
		<path fill="#002D7B" d="M564.16,401.91c12.77-19.51,25.01-24.3,34.78-57.88c5.96-1.67,14.29-0.95,14.29-0.95
			s58.12,25.58,61.46,35.59c3.33,10-8.53,36.8-20.96,54.21C624.65,473.6,492.48,511.44,564.16,401.91z"/>
	</g>
	<g>
		<path fill="#002D7B" d="M435.84,401.91c-12.77-19.51-25.01-24.3-34.78-57.88c-5.96-1.67-14.29-0.95-14.29-0.95
			s-58.12,25.58-61.46,35.59c-3.33,10,8.53,36.8,20.96,54.21C375.35,473.6,507.52,511.44,435.84,401.91z"/>
	</g>
</g>
<g id="skin">
	<path fill="#EF85D8" d="M685.66,361.85c-35.73-17.74-91.08-26.25-91.08-26.25s-2.6,11.27,0,21.25
		c39.93,29.15,109.98,61.29,132.29,63.26c4.19-4.42,3.67-8.91,3.67-8.91S710.1,395.99,685.66,361.85z"/>
	<path fill="#EF85D8" d="M314.34,361.85c35.73-17.74,91.08-26.25,91.08-26.25s2.6,11.27,0,21.25
		c-39.93,29.15-109.98,61.29-132.29,63.26c-4.19-4.42-3.67-8.91-3.67-8.91S289.9,395.99,314.34,361.85z"/>
</g>
</svg>
