<?xml version="1.0" encoding="utf-8"?>
<!-- Generator: Adobe Illustrator 26.0.1, SVG Export Plug-In . SVG Version: 6.00 Build 0)  -->
<svg version="1.1" id="Layer_1" xmlns="http://www.w3.org/2000/svg" xmlns:xlink="http://www.w3.org/1999/xlink" x="0px" y="0px"
	 viewBox="0 0 1000 1000" style="enable-background:new 0 0 1000 1000;" xml:space="preserve">
<style type="text/css">
	.st0{fill:#ABBEDB;}
	.st1{fill:#E28DC6;}
	.st2{fill:#CC54AA;}
</style>
<g id="skin-D">
	<path d="M355.9,281.8c51.1,10.9,59.6,103.1,47,131.9s-125.7-12.2-119.8-73.4C287.5,294.6,324.6,275.2,355.9,281.8z"/>
	<path d="M644.1,281.8c-51.1,10.9-59.6,103.1-47,131.9s125.7-12.2,119.8-73.4C712.5,294.6,675.4,275.2,644.1,281.8z"/>
</g>
<g id="skin2-L">
	<path d="M354.7,282c31.5,8.3,42.9,113.7,29,141.6c-13.4,26.9-113.9-22.4-108.5-82.2C279.5,294.1,323.8,273.8,354.7,282
		z"/>
	<path d="M645.3,282c-31.5,8.3-42.9,113.7-29,141.6c13.4,26.9,113.9-22.4,108.5-82.2C720.5,294.1,676.2,273.8,645.3,282
		z"/>
</g>
<g id="skin2">
	<path d="M616.1,424.3c-17.9-29.3-2.9-109.5,15.9-131.9c22.4,41.1,4.9,91.9,4.9,91.9s33.6-24.6,57.6-69.6
		c-3.6,38.4-40.8,79.2-40.8,79.2s16.8-0.6,36-7.8C683.1,398,626.5,441.2,616.1,424.3z"/>
	<path d="M383.9,424.3c17.9-29.3,2.9-109.5-15.9-131.9c-22.4,41.1-4.9,91.9-4.9,91.9s-33.6-24.6-57.6-69.6
		c3.6,38.4,40.8,79.2,40.8,79.2s-16.8-0.6-36-7.8C316.9,398,373.5,441.2,383.9,424.3z"/>
</g>
</svg>
