<?xml version="1.0" encoding="utf-8"?>
<!-- Generator: Adobe Illustrator 24.0.1, SVG Export Plug-In . SVG Version: 6.00 Build 0)  -->
<svg version="1.1" id="Layer_1" xmlns="http://www.w3.org/2000/svg" xmlns:xlink="http://www.w3.org/1999/xlink" x="0px" y="0px"
	 viewBox="0 0 1000 1000" style="enable-background:new 0 0 1000 1000;" xml:space="preserve">
<g id="skin-D">
	<path d="M775.2,480.6c-2.4-29.6-127.3-67.9-151.8-66.3c-24.5,1.6,46.6,87.2,96.1,95.1C756.6,515.3,776.7,498.8,775.2,480.6z"/>
	<path d="M224.8,480.6c2.4-29.6,127.3-67.9,151.8-66.3c24.5,1.6-46.6,87.2-96.1,95.1C243.4,515.3,223.3,498.8,224.8,480.6z"/>
</g>
<g id="earskin">
	<path d="M775,481.2c-2.8-18.5-137.9-60.9-161.8-58.4c-23.1,2.4,56.2,82.6,104.6,90.6C756,519.7,777.7,499.5,775,481.2z"/>
	<path d="M225,481.2c2.8-18.5,137.9-60.9,161.8-58.4c23.1,2.4-56.2,82.6-104.6,90.6C244,519.7,222.3,499.5,225,481.2z"/>
</g>
</svg>
