<?xml version="1.0" encoding="utf-8"?>
<!-- Generator: Adobe Illustrator 26.0.1, SVG Export Plug-In . SVG Version: 6.00 Build 0)  -->
<svg version="1.1" id="Layer_1" xmlns="http://www.w3.org/2000/svg" xmlns:xlink="http://www.w3.org/1999/xlink" x="0px" y="0px"
	 viewBox="0 0 1000 1000" style="enable-background:new 0 0 1000 1000;" xml:space="preserve">
<style type="text/css">
	.st0{fill:#28003B;}
	.st1{fill:#ABBEDB;}
</style>
<g id="blacks">
	<path d="M538,410.2c19.6-44.9,61.1-83.5,82.1-90.2c21-6.7,43.9,34.8,62,45.3s33.9,11.5,33.9,11.5s2.9,12.9-20,19.1
		c-22.9,6.2-34.4-1-34.4-1s-19.6,39.1-59.7,64.4C561.9,484.6,518.5,455.1,538,410.2z"/>
	<path d="M462,410.2c-19.6-44.9-61.1-83.5-82.1-90.2c-21-6.7-43.9,34.8-62,45.3c-18.1,10.5-33.9,11.5-33.9,11.5
		s-2.9,12.9,20,19.1c22.9,6.2,34.4-1,34.4-1s19.6,39.1,59.7,64.4S481.5,455.1,462,410.2z"/>
</g>
<g id="earskin">
	<path 
d="M658.7,392.3c0,0-11.1-9-18.9-22s-7.8-41.3-16-43.5c-8.1-2.2-114.1,76.2-70.7,129.5
		C569.8,476.9,623.2,448,658.7,392.3z"/>
	<path d="M341.3,392.3c0,0,11.1-9,18.9-22c7.8-13,7.8-41.3,16-43.5c8.1-2.2,114.1,76.2,70.7,129.5
		C430.2,476.9,376.8,448,341.3,392.3z"/>
</g>
</svg>
