<?xml version="1.0" encoding="utf-8"?>
<!-- Generator: Adobe Illustrator 26.0.1, SVG Export Plug-In . SVG Version: 6.00 Build 0)  -->
<svg version="1.1" id="Layer_1" xmlns="http://www.w3.org/2000/svg" xmlns:xlink="http://www.w3.org/1999/xlink" x="0px" y="0px"
	 viewBox="0 0 1000 1000" style="enable-background:new 0 0 1000 1000;" xml:space="preserve">
<style type="text/css">
	.st0{fill:#681B15;}
	.st1{fill:#945984;}
	.st2{fill:#68355C;}
</style>
<g id="skin-D">
	<path d="M552.8,400.8c1.4-10.3,7.8-37,31.1-58.5c16.2-14.9,47.7-51.1,59.8-58.5c13-8,26.6-0.2,28.6,37.4
		c2.5,47.3-5.7,67.1-6.2,90.9c-0.6,25.3-29.9,56.3-76.2,39.7C552,438,551.5,411.1,552.8,400.8z"/>
	<path d="M447.2,400.8c-1.4-10.3-7.8-37-31.1-58.5c-16.2-14.9-47.7-51.1-59.8-58.5c-13-8-26.6-0.2-28.6,37.4
		c-2.5,47.3,5.7,67.1,6.2,90.9c0.6,25.3,29.9,56.3,76.2,39.7C448,438,448.5,411.1,447.2,400.8z"/>
</g>
<g id="skin2">
	<path d="M606.5,448.2c-18.8-5.1-22.2-22.2-17.1-47.7c5.1-25.6,27.3-57.1,38.4-74.2c11.1-17.1,17.9-39.2,28.1-33.3
		c10.2,6,5.1,69.1,0.9,87.8c-4.3,18.8-0.3,29.6-4.3,41.8C646.5,441,625.2,453.3,606.5,448.2z"/>
	<path d="M393.5,448.2c18.8-5.1,22.2-22.2,17.1-47.7c-5.1-25.6-27.3-57.1-38.4-74.2c-11.1-17.1-17.9-39.2-28.1-33.3
		c-10.2,6-5.1,69.1-0.9,87.8c4.3,18.8,0.3,29.6,4.3,41.8C353.5,441,374.8,453.3,393.5,448.2z"/>
</g>
<g id="skin2-D">
	<path 
d="M647,377.8c-1.4-0.4-3.4-0.7-6-0.3c1.5-6.8,1-15.3,3.3-20.6c-2.6,0.8-8.1,4.1-14.5,15.8
		c-0.8-4.3-1.4-8.4-0.6-11.7c-3.3,1.2-9.4,5.1-14.4,17.1c-1.1-3.3-1.9-6.4-1.7-9.2c-3.5,2.2-10.2,8.8-12.7,26.7
		c-0.8,5.6,2,10.9,6.4,12.6c-1.2,1.8-2.4,3.9-3.6,6.2c-2.8,5.6-1.3,12.7,3.4,15.8c4.7,3.2,10.8,1.2,13.7-4.4
		c0.3-0.6,0.5-1.2,0.8-1.9c2.2,0.5,4.6,0.2,6.7-1.1c7.1-4.4,10.6-20,16.9-24.7c-1.1-0.6-2.7-1.3-4.9-1.6
		C642.1,389.7,643.6,381.7,647,377.8z"/>
	<path 
d="M353,377.8c1.4-0.4,3.4-0.7,6-0.3c-1.5-6.8-1-15.3-3.3-20.6c2.6,0.8,8.1,4.1,14.5,15.8
		c0.8-4.3,1.4-8.4,0.6-11.7c3.3,1.2,9.4,5.1,14.4,17.1c1.1-3.3,1.9-6.4,1.7-9.2c3.5,2.2,10.2,8.8,12.7,26.7c0.8,5.6-2,10.9-6.4,12.6
		c1.2,1.8,2.4,3.9,3.6,6.2c2.8,5.6,1.3,12.7-3.4,15.8c-4.7,3.2-10.8,1.2-13.7-4.4c-0.3-0.6-0.5-1.2-0.8-1.9
		c-2.2,0.5-4.6,0.2-6.7-1.1c-7.1-4.4-10.6-20-16.9-24.7c1.1-0.6,2.7-1.3,4.9-1.6C357.9,389.7,356.4,381.7,353,377.8z"/>
</g>
</svg>
