<?xml version="1.0" encoding="utf-8"?>
<!-- Generator: Adobe Illustrator 26.0.1, SVG Export Plug-In . SVG Version: 6.00 Build 0)  -->
<svg version="1.1" id="Layer_1" xmlns="http://www.w3.org/2000/svg" xmlns:xlink="http://www.w3.org/1999/xlink" x="0px" y="0px"
	 viewBox="0 0 1000 1000" style="enable-background:new 0 0 1000 1000;" xml:space="preserve">
<style type="text/css">
	.st0{fill:#4D484B;}
	.st1{fill:#CC8596;}
</style>
<g id="texture">
	<path d="M697,336c0,0-25.3-15.3-68.7-30c-43.3-14.7-53.3-4.5-53.3-4.5c-10.2,7.1-7.1,13.4-10.6,21.3
		c-11.4,25.7-17.4,47.6-16.1,58c1.3,10.4,8.7,37.6,50.2,52.6c50.5,18.3,64.9-11.3,66-37.5c0.1-2.9,1.2-7,3-11.9
		c8.1,4.3,16.1,7.4,23.6,8.5c6.5,1-0.7-18,4.7-30.7C701,349.3,697,336,697,336z"/>
	<path 
d="M425,301.5c0,0-10-10.2-53.3,4.5S303,336,303,336s-4,13.3,1.3,26s-1.9,31.7,4.7,30.7
		c7.4-1.2,15.4-4.2,23.6-8.5c1.8,4.9,2.9,9,3,11.9c1.1,26.2,15.5,55.8,66,37.5c41.5-15.1,48.9-42.3,50.2-52.6
		c1.3-10.4-4.8-32.3-16.1-58C432.1,314.9,435.2,308.6,425,301.5z"/>
</g>
<g id="earskin">
	<path 
d="M595.1,324.1c-4.2,9.7-11.6,36.2-10.4,57.6c1.4,25.6,9.2,43,29.3,48.8s38.2-5.9,39.5-24.2
		c0.4-5.7,2.9-16,6.1-26.7C635.8,365,611.5,341.5,595.1,324.1z"/>
	<path 
d="M340.4,379.6c3.2,10.7,5.7,21,6.1,26.7c1.3,18.4,19.4,30,39.5,24.2c20.1-5.8,27.8-23.1,29.3-48.8
		c1.2-21.5-6.2-47.9-10.4-57.6C388.4,341.5,364.1,365,340.4,379.6z"/>
</g>
</svg>
