<?xml version="1.0" encoding="utf-8"?>
<!-- Generator: Adobe Illustrator 26.0.1, SVG Export Plug-In . SVG Version: 6.00 Build 0)  -->
<svg version="1.1" id="Layer_1" xmlns="http://www.w3.org/2000/svg" xmlns:xlink="http://www.w3.org/1999/xlink" x="0px" y="0px"
	 viewBox="0 0 1000 1000" style="enable-background:new 0 0 1000 1000;" xml:space="preserve">
<style type="text/css">
	.st0{fill:#7B5F74;}
	.st1{fill:#490617;}
	.st2{fill:#EF789A;}
	.st3{fill:#FFECE9;}
</style>
<g id="skin-D">
	<path 
d="M651.3,282.9c-163.9,62.8-112.1,220.8-76.8,232.3C662.7,497.4,699,369.8,651.3,282.9z"/>
	<path 
d="M348.7,282.9c-47.7,86.8-11.4,214.5,76.8,232.3C460.8,503.7,512.6,345.7,348.7,282.9z"/>
</g>
<g id="blacks">
	<path 
d="M668.3,329.1c-2.8-13.2-7.2-26.2-13.1-38.4l25.9-18.6c-11.8-1.9-19.1,1-23.7,5.2l8.3-22.7
		c-10.2,4.8-15.7,10.7-18.5,16.5l-1.2-17c-12.5,14.7-8.5,26-3.7,32.5c-14,6-26.4,12.6-37.1,19.9c11.1-2.2,19.3-2.2,19.3-2.2
		s-17.9,16.9-28.3,55.3s46.7-39.6,46.7-39.6s-2.3,81.4,11,59.9c13.3-21.5,8.7-57.6,8.7-57.6S664.8,324.1,668.3,329.1z"/>
	<path 
d="M375.4,304.2c0,0,8.2,0,19.3,2.2c-10.8-7.2-23.1-13.9-37.1-19.9c4.9-6.4,8.9-17.7-3.7-32.5l-1.2,17
		c-2.8-5.8-8.4-11.7-18.5-16.5l8.3,22.7c-4.6-4.2-11.9-7.1-23.7-5.2l25.9,18.6c-5.9,12.3-10.2,25.2-13.1,38.4c3.6-5,5.6-6.9,5.6-6.9
		s-4.6,36.1,8.7,57.6c13.3,21.5,11-59.9,11-59.9s57.1,78,46.7,39.6S375.4,304.2,375.4,304.2z"/>
</g>
<g id="earskin">
	<path 
d="M648.2,296.5c-104.8,76.4-66.4,205.1-66.4,205.1S694.9,444.1,648.2,296.5z"/>
	<path 
d="M351.8,296.5c-46.7,147.5,66.4,205.1,66.4,205.1S456.6,372.9,351.8,296.5z"/>
</g>
<g id="skin2">
	<path 
d="M618.7,374.5l22.4-25.4c-17.1,1.1-27.2,7.1-33.1,14.3l18.9-25.5c-39.7,6.2-29.6,40.1-29.6,40.1l9-12.1
		c-8.7,13.1-5.4,28.9-5.4,28.9l13.5-15.3c-6.4,9.4-5.5,20.6-5.5,20.6l37.2-33C632.8,366.3,624.2,369.7,618.7,374.5z"/>
	<path 
d="M373.1,337.9l18.9,25.5c-5.9-7.2-15.9-13.1-33.1-14.3l22.4,25.4c-5.5-4.8-14.1-8.2-27.4-7.5l37.2,33
		c0,0,0.9-11.2-5.5-20.6l13.5,15.3c0,0,3.3-15.9-5.4-28.9l9,12.1C402.7,378,412.8,344.1,373.1,337.9z"/>
</g>
</svg>
