<?xml version="1.0" encoding="utf-8"?>
<!-- Generator: Adobe Illustrator 26.0.1, SVG Export Plug-In . SVG Version: 6.00 Build 0)  -->
<svg version="1.1" id="Layer_1" xmlns="http://www.w3.org/2000/svg" xmlns:xlink="http://www.w3.org/1999/xlink" x="0px" y="0px"
	 viewBox="0 0 1000 1000" style="enable-background:new 0 0 1000 1000;" xml:space="preserve">
<style type="text/css">
	.st0{fill:#4A535E;}
	.st1{fill:#8DE5C4;}
</style>
<g id="skin-D">
	<path d="M574.4,417.9c1.6-25.8,57.8-93.3,86.9-91.4c62.3,4,108.8,68.1,108.9,101c0,41.6-47.6,93.6-69.8,95.5
		C669.9,525.6,571.8,459.8,574.4,417.9z"/>
	<path d="M425.6,417.9c-1.6-25.8-57.8-93.3-86.9-91.4c-62.3,4-108.8,68.1-108.9,101c0,41.6,47.6,93.6,69.8,95.5
		C330.1,525.6,428.2,459.8,425.6,417.9z"/>
</g>
<g id="skin2">
	<path d="M606.3,424.3c1.1-16.8,37.7-60.8,56.6-59.6c40.7,2.6,71,44.4,71,65.8c0,27.1-31,61-45.5,62.3
		C668.6,494.5,604.6,451.6,606.3,424.3z"/>
	<path d="M393.7,424.3c-1.1-16.8-37.7-60.8-56.6-59.6c-40.7,2.6-71,44.4-71,65.8c0,27.1,31,61,45.5,62.3
		C331.4,494.5,395.4,451.6,393.7,424.3z"/>
</g>
</svg>
