<?xml version="1.0" encoding="utf-8"?>
<!-- Generator: Adobe Illustrator 26.0.1, SVG Export Plug-In . SVG Version: 6.00 Build 0)  -->
<svg version="1.1" id="Layer_1" xmlns="http://www.w3.org/2000/svg" xmlns:xlink="http://www.w3.org/1999/xlink" x="0px" y="0px"
	 viewBox="0 0 1000 1000" style="enable-background:new 0 0 1000 1000;" xml:space="preserve">
<style type="text/css">
	.st0{fill:#68062C;}
	.st1{fill:#BB003A;}
	.st2{fill:#B8D8FF;}
</style>
<g id="texture">
	<g>
		<path 
d="M596.3,283c-6.8-1.7-16.4-7.8-25.5-16.9c-9-9-4.6-12.3-4.1-12.7c0.4-0.4,3.7-4.9,12.7,4.1
			C588.4,266.6,594.6,276.2,596.3,283z"/>
		<path 
d="M596.7,282.8c-3.6-6-6.1-17.2-6.1-29.9c0-12.8,5.5-11.9,6.1-11.9s6.1-0.9,6.1,11.9
			C602.8,265.7,600.3,276.8,596.7,282.8z"/>
		<path 
d="M597.1,283c1.7-6.8,7.8-16.4,16.9-25.5c9-9,12.3-4.6,12.7-4.1c0.4,0.4,4.9,3.7-4.1,12.7
			C613.5,275.2,603.9,281.3,597.1,283z"/>
		<path 
d="M596.1,283.4c-6-3.6-17.2-6.1-29.9-6.1c-12.8,0-11.9,5.5-11.9,6.1s-0.9,6.1,11.9,6.1
			C578.9,289.5,590.1,287,596.1,283.4z"/>
		<path 
d="M597.2,283.4c6-3.6,17.2-6.1,29.9-6.1c12.8,0,11.9,5.5,11.9,6.1s0.9,6.1-11.9,6.1
			C614.4,289.5,603.3,287,597.2,283.4z"/>
	</g>
	<g>
		<path 
d="M403.7,283c6.8-1.7,16.4-7.8,25.5-16.9c9-9,4.6-12.3,4.1-12.7c-0.4-0.4-3.7-4.9-12.7,4.1
			C411.6,266.6,405.4,276.2,403.7,283z"/>
		<path 
d="M403.3,282.8c3.6-6,6.1-17.2,6.1-29.9c0-12.8-5.5-11.9-6.1-11.9s-6.1-0.9-6.1,11.9
			C397.2,265.7,399.7,276.8,403.3,282.8z"/>
		<path 
d="M402.9,283c-1.7-6.8-7.8-16.4-16.9-25.5c-9-9-12.3-4.6-12.7-4.1c-0.4,0.4-4.9,3.7,4.1,12.7
			C386.5,275.2,396.1,281.3,402.9,283z"/>
		<path 
d="M403.9,283.4c6-3.6,17.2-6.1,29.9-6.1c12.8,0,11.9,5.5,11.9,6.1s0.9,6.1-11.9,6.1
			C421.1,289.5,409.9,287,403.9,283.4z"/>
		<path 
d="M402.8,283.4c-6-3.6-17.2-6.1-29.9-6.1c-12.8,0-11.9,5.5-11.9,6.1s-0.9,6.1,11.9,6.1
			C385.6,289.5,396.7,287,402.8,283.4z"/>
	</g>
</g>
<g id="skin-D">
	<path 
d="M653.6,389.7c0-42.6-38.2-62.2-52.8-102.3c-7.4-20.4-32,26.4-32,102.3c0,28.4,15.2,71.4,34,71.4
		C621.7,461.1,653.6,418.1,653.6,389.7z"/>
	<path 
d="M346.4,389.7c0-42.6,38.2-62.2,52.8-102.3c7.4-20.4,32,26.4,32,102.3c0,28.4-15.2,71.4-34,71.4
		S346.4,418.1,346.4,389.7z"/>
</g>
<g id="skin2">
	<path 
d="M604,312.4c-3.7-11.4-7.3-19-9.4-19c-4.7,0-9.7,40.1-7.3,74.3c0.3,3.8,0.7,7.5,1.3,11.1
		c3.4,30.8,15.2,74.9,27.5,74.9c13.1,0,27.1-51.9,19.3-80.9C627.7,343.7,604,312.4,604,312.4z"/>
	<path 
d="M396,312.4c3.7-11.4,7.3-19,9.4-19c4.7,0,9.7,40.1,7.3,74.3c-0.3,3.8-0.7,7.5-1.3,11.1
		c-3.4,30.8-15.2,74.9-27.5,74.9c-13.1,0-27.1-51.9-19.3-80.9C372.3,343.7,396,312.4,396,312.4z"/>
</g>
</svg>
