<?xml version="1.0" encoding="utf-8"?>
<!-- Generator: Adobe Illustrator 26.0.1, SVG Export Plug-In . SVG Version: 6.00 Build 0)  -->
<svg version="1.1" id="Layer_1" xmlns="http://www.w3.org/2000/svg" xmlns:xlink="http://www.w3.org/1999/xlink" x="0px" y="0px"
	 viewBox="0 0 1000 1000" style="enable-background:new 0 0 1000 1000;" xml:space="preserve">
<style type="text/css">
	.st0{fill:#004C80;}
	.st1{fill:#0081B2;}
</style>
<g id="texture">
	<path d="M585,243.2c-3.2,0.6-6.2,1.7-9.1,3.3c-1.5-5.1-4.3-9.7-8.1-13.3c-4.4,2.4-8.2,6-10.9,10.4
		c-2.7-4-6.2-7.2-10.4-9.5c-3.3,3.1-5.8,6.9-7.3,11.2c-3.6-3.2-8-5.5-12.6-6.6c-2.8,4.5-4.3,9.6-4.3,15c-3.1-0.8-6.4-1.1-9.6-0.8
		c-2.1,8.7-0.1,18.3,6.2,25.6c6.3,7.3,15.4,10.7,24.4,10l21.7-2.9c8.8-1.6,16.7-7.3,20.9-16.1C589.9,260.8,589.3,251.1,585,243.2z"
		/>
	<path d="M477.6,253.8c-0.1-5.3-1.6-10.5-4.3-15c-4.7,1.1-9,3.4-12.6,6.6c-1.5-4.3-4.1-8.1-7.3-11.2
		c-4.2,2.2-7.8,5.5-10.4,9.5c-2.7-4.4-6.4-8-10.9-10.4c-3.8,3.6-6.7,8.2-8.1,13.3c-2.8-1.6-5.9-2.7-9.1-3.3
		c-4.3,7.9-4.9,17.6-0.8,26.3c4.1,8.7,12.1,14.4,20.9,16.1l21.7,2.9c8.9,0.7,18.1-2.7,24.4-10c6.3-7.3,8.3-16.9,6.2-25.6
		C484,252.7,480.8,252.9,477.6,253.8z"/>
</g>
<g id="skin-D">
	<path d="M628.6,423.9c-2.4-12-26.6-97.3-43.1-123.5c0.4-12.1-0.1-22.6-1-27.3c-2.7-13.8-18.6-22.3-35.4-18.9
		c-16.8,3.3-28.3,17.2-25.5,31c0.9,4.6,4.5,14.6,9.5,25.6c-5.3,30.5,4.8,118.6,7.2,130.6c4,20,27,32.3,51.4,27.5
		C615.9,464.1,632.5,444,628.6,423.9z"/>
	<path d="M451,254.3c-16.8-3.3-32.7,5.1-35.4,18.9c-0.9,4.6-1.4,15.2-1,27.3c-16.5,26.2-40.8,111.5-43.1,123.5
		c-4,20,12.6,40.2,37,45c24.4,4.8,47.4-7.5,51.4-27.5c2.4-12,12.5-100.1,7.2-130.6c5-11,8.5-20.9,9.5-25.6
		C479.3,271.5,467.8,257.6,451,254.3z"/>
</g>
</svg>
