<?xml version="1.0" encoding="utf-8"?>
<!-- Generator: Adobe Illustrator 26.0.1, SVG Export Plug-In . SVG Version: 6.00 Build 0)  -->
<svg version="1.1" id="Layer_1" xmlns="http://www.w3.org/2000/svg" xmlns:xlink="http://www.w3.org/1999/xlink" x="0px" y="0px"
	 viewBox="0 0 1000 1000" style="enable-background:new 0 0 1000 1000;" xml:space="preserve">
<style type="text/css">
	.st0{fill:#378687;}
</style>
<path id="skin-D" d="M676.9,472c36.6,0,52.5-31.2,52.5-31.2s-9.5,1.2-24,2.1c34.8-19.9,36.1-44.2,36.1-44.2
	s-13.9,6.8-34,14.7c1.4-1.4,2.8-3,4.2-4.6c33.2-40.4,24.1-74.3,24.1-74.3s-14.9,17.9-36.5,38.6c-0.4,0.4-0.8,0.8-1.2,1.2
	c7.9-28.1-0.4-42.5-0.4-42.5s0,0,0,0c-8,15.5-21.7,27.3-38.2,32.8c-1.1,0.4-2.1,0.7-3.2,1.1c14.4-14,15.6-26.8,15.6-26.8
	s-18.5,8-43.8,16c-25.2,8-64.5,12.1-128,12.1s-102.8-4.1-128-12.1c-25.2-8-43.8-16-43.8-16s1.2,12.8,15.6,26.8
	c-1.1-0.4-2.2-0.7-3.2-1.1c-16.5-5.5-30.2-17.3-38.2-32.8l0,0c0,0-8.3,14.4-0.4,42.5c-0.4-0.4-0.8-0.8-1.2-1.2
	c-21.6-20.7-36.5-38.6-36.5-38.6s-9.1,33.9,24.1,74.3c1.4,1.7,2.8,3.2,4.2,4.6c-20.1-7.9-34-14.7-34-14.7s1.3,24.2,36.1,44.2
	c-14.5-0.9-24-2.1-24-2.1S286.4,472,323,472c0,0,58.4,23.8,177,23.8S676.9,472,676.9,472z"/>
</svg>
