<?xml version="1.0" encoding="utf-8"?>
<!-- Generator: Adobe Illustrator 26.0.1, SVG Export Plug-In . SVG Version: 6.00 Build 0)  -->
<svg version="1.1" id="Layer_1" xmlns="http://www.w3.org/2000/svg" xmlns:xlink="http://www.w3.org/1999/xlink" x="0px" y="0px"
	 viewBox="0 0 1000 1000" style="enable-background:new 0 0 1000 1000;" xml:space="preserve">
<style type="text/css">
	.st0{fill:#4B056C;}
	.st1{fill:#E9BBF2;}
</style>
<g id="blacks">
	<path 
d="M673.7,397.2c0-46.6-0.8-117.9-30.7-137.7C619.7,244,507.5,416.7,581.2,445
		C639.9,467.4,673.7,416.9,673.7,397.2z"/>
	<path 
d="M326.3,397.2c0-46.6,0.8-117.9,30.7-137.7C380.3,244,492.5,416.7,418.8,445
		C360.1,467.4,326.3,416.9,326.3,397.2z"/>
</g>
<g id="earskin">
	<path 
d="M662.8,382c0.3-34,0.7-85-13.8-108.9c-8.9-14.6-47.7,58.8-46.2,148.3C642.3,438.6,662.7,395.8,662.8,382z"/>
	<path 
d="M337.2,382c-0.3-34-0.7-85,13.8-108.9c8.9-14.6,47.7,58.8,46.2,148.3C357.7,438.6,337.3,395.8,337.2,382z"/>
</g>
</svg>
