<?xml version="1.0" encoding="utf-8"?>
<!-- Generator: Adobe Illustrator 26.0.1, SVG Export Plug-In . SVG Version: 6.00 Build 0)  -->
<svg version="1.1" id="Layer_1" xmlns="http://www.w3.org/2000/svg" xmlns:xlink="http://www.w3.org/1999/xlink" x="0px" y="0px"
	 viewBox="0 0 1000 1000" style="enable-background:new 0 0 1000 1000;" xml:space="preserve">
<g id="skin-D">
	<path d="M745.9,423.5c-28.3-4.9-105,19.5-114.8,54.7c-1.8,6.4-1.2,12.7,1.1,18.8c4.1,71.1,56,85.8,77.6,79.2
		c21.6-6.7,29.3-16.3,33.9-32.2c16.1-9.3,29.7-26.7,35.7-47.9C789.1,461,774.2,428.4,745.9,423.5z"/>
	<path d="M254.1,423.5c28.3-4.9,105,19.5,114.8,54.7c1.8,6.4,1.2,12.7-1.1,18.8c-4.1,71.1-56,85.8-77.6,79.2
		c-21.6-6.7-29.3-16.3-33.9-32.2c-16.1-9.3-29.7-26.7-35.7-47.9C210.9,461,225.8,428.4,254.1,423.5z"/>
</g>
<g id="skin2-L">
	<path d="M737.6,439c-24.1,0-56,31.8-57,50.9s12.5,13,13.2,31.3c0.7,18.3-14.2,37.9-3.5,43.2s27.1,0.7,36.6-10.2
		c5.5-6.3,7.4-13.4,6-19.2c16.1-8.5,30-25.5,35.2-45.1C775.4,461.8,761.8,439,737.6,439z"/>
	<path d="M262.4,439c24.1,0,56,31.8,57,50.9s-12.5,13-13.2,31.3c-0.7,18.3,14.2,37.9,3.5,43.2s-27.1,0.7-36.6-10.2
		c-5.5-6.3-7.4-13.4-6-19.2c-16.1-8.5-30-25.5-35.2-45.1C224.6,461.8,238.2,439,262.4,439z"/>
</g>
<g id="skin2">
	<g>
		<path d="M762.3,472c-0.5-1.4-1.3-2.8-2.2-4.2c-1.9-2.8-4.8-5.7-8.4-7.8c-3.6-2.2-8.1-3.7-12.8-4.4c-4.7-0.6-9.7-0.4-14.5,0.7
			c-0.6,0.1-1.2,0.3-1.8,0.4c-0.6,0.2-1.3,0.3-1.9,0.5l-1,0.3l-0.8,0.3l-1.6,0.5l-0.6,0.2l-0.4,0.2l-0.9,0.3
			c-0.6,0.2-1.2,0.4-1.7,0.7c-1.1,0.5-2.3,1-3.4,1.5c-4.5,2.1-8.9,4.8-13,7.9c-4,3.1-7.7,6.7-10.8,10.5c-2.1,2.6-3.9,5.2-5.6,7.9
			c-0.1,0.8-0.3,1.7-0.3,2.5c-0.4,8,1.7,11.6,4.4,14.4c1.3-2.1,2.7-4.2,4.2-6.2c2.4-3.1,5-6.2,7.9-9s6-5.3,9.4-7.5
			c3.3-2.2,6.9-4.1,10.5-5.6c0.9-0.4,1.8-0.7,2.7-1.1c0.5-0.2,0.9-0.3,1.4-0.5l0.7-0.2l0.3-0.1l0,0h0.2c0.4-0.1,0.8-0.2,1.2-0.3
			c0.1,0.1,0.1,0.2,0.2,0.3c0.4,0.7,0.9,1.5,1.4,2.3c0.3,0.4,0.5,0.9,0.8,1.4c0.1,0.2,0.3,0.5,0.4,0.7c0.1,0.3,0.3,0.5,0.4,0.8
			c0.3,0.5,0.6,1.1,0.9,1.6c0.3,0.5,0.6,1.2,0.9,1.8c0.6,1.2,1.1,2.5,1.6,3.9s0.9,2.9,1.2,4.4c0.7,3.1,1.1,6.3,1.3,9.5
			c0,1.6,0.1,3.1,0,4.6c0,1.5-0.1,2.9-0.2,4.2c-0.1,1.3-0.3,2.5-0.4,3.6c-0.2,1.1-0.4,2-0.6,2.7c-0.2,0.8-0.4,1.3-0.5,1.7
			c-0.2,0.4-0.3,0.6-0.3,0.6s0.2-0.1,0.6-0.3c0.4-0.3,0.9-0.7,1.5-1.3c1.2-1.2,2.7-3,4.2-5.4c0.8-1.2,1.5-2.6,2.3-4
			c0.8-1.5,1.5-3.1,2.1-4.8c0.6-1.7,1.2-3.5,1.7-5.4s0.9-3.9,1.1-5.9c0.3-2,0.4-4.1,0.4-6.1c0-2.1-0.1-4.1-0.4-6.1
			c-0.3-2-0.7-3.9-1.3-5.7c-0.1-0.3-0.2-0.7-0.3-1c1.3,0.1,2.5,0.3,3.7,0.6c1.3,0.3,2.5,0.6,3.7,1s2.2,0.9,3.3,1.4
			c2,1.1,3.7,2.3,4.9,3.5c1.3,1.2,2.1,2.4,2.7,3.3c0.3,0.5,0.5,0.8,0.6,1.1c0.1,0.3,0.2,0.4,0.2,0.4h1c0,0,0.1-0.1,0.2-0.4
			c0.1-0.3,0.3-0.7,0.5-1.3c0.3-1.2,0.6-3.1,0.2-5.5C763.2,474.7,762.8,473.4,762.3,472z"/>
	</g>
	<g>
		<path d="M695.9,552.4c2.3-1.1,4.6-2.5,6.9-4.1c2.3-1.7,4.5-3.7,6.4-6c0.5-0.6,0.9-1.2,1.4-1.8s0.9-1.2,1.3-1.8
			c0.4-0.6,0.8-1.3,1.2-1.9l1-2c0.4-0.6,0.6-1.3,0.9-2l0.8-2c0.4-1.4,0.8-2.7,1.1-4c0.2-1.3,0.6-2.6,0.6-3.9
			c0.1-1.3,0.3-2.5,0.2-3.7c0-2.4-0.2-4.7-0.5-6.8c-0.4-2.1-0.7-4-1.3-5.7c-0.2-0.9-0.5-1.7-0.7-2.4c-0.3-0.7-0.5-1.5-0.8-2.1
			c-0.2-0.7-0.5-1.3-0.7-1.8c-0.3-0.6-0.5-1.1-0.7-1.5c-0.9-1.8-1.4-2.8-1.4-2.8s-0.2,1.1-0.6,3.1c-0.1,0.5-0.2,1-0.3,1.6
			s-0.3,1.2-0.4,1.8c-0.2,0.6-0.3,1.3-0.5,2.1c-0.2,0.7-0.4,1.5-0.7,2.2c-0.4,1.5-1,3.1-1.7,4.8c-0.7,1.6-1.4,3.2-2.3,4.8
			c-0.9,1.5-1.9,3-3,4.2c-0.5,0.6-1.2,1.2-1.7,1.7l-0.9,0.7c-0.3,0.3-0.6,0.5-0.9,0.7c-1.2,0.9-2.6,1.5-3.8,2
			c-0.5,0.1-0.9,0.3-1.3,0.4c-1,11.1-6.4,22.1-7.1,29.8c0.9-0.2,1.9-0.5,2.9-0.8C691.4,554.3,693.6,553.5,695.9,552.4z"/>
	</g>
	<g>
		<path d="M237.7,472c0.5-1.4,1.3-2.8,2.2-4.2c1.9-2.8,4.8-5.7,8.4-7.8c3.6-2.2,8.1-3.7,12.8-4.4c4.7-0.6,9.7-0.4,14.5,0.7
			c0.6,0.1,1.2,0.3,1.8,0.4c0.6,0.2,1.3,0.3,1.9,0.5l1,0.3l0.8,0.3l1.6,0.5l0.6,0.2l0.4,0.2l0.9,0.3c0.6,0.2,1.2,0.4,1.7,0.7
			c1.1,0.5,2.3,1,3.4,1.5c4.5,2.1,8.9,4.8,13,7.9c4,3.1,7.7,6.7,10.8,10.5c2.1,2.6,3.9,5.2,5.6,7.9c0.1,0.8,0.3,1.7,0.3,2.5
			c0.4,8-1.7,11.6-4.4,14.4c-1.3-2.1-2.7-4.2-4.2-6.2c-2.4-3.1-5-6.2-7.9-9s-6-5.3-9.4-7.5c-3.3-2.2-6.9-4.1-10.5-5.6
			c-0.9-0.4-1.8-0.7-2.7-1.1c-0.5-0.2-0.9-0.3-1.4-0.5l-0.7-0.2l-0.3-0.1l0,0h-0.2c-0.4-0.1-0.8-0.2-1.2-0.3
			c-0.1,0.1-0.1,0.2-0.2,0.3c-0.4,0.7-0.9,1.5-1.4,2.3c-0.3,0.4-0.5,0.9-0.8,1.4c-0.1,0.2-0.3,0.5-0.4,0.7c-0.1,0.3-0.3,0.5-0.4,0.8
			c-0.3,0.5-0.6,1.1-0.9,1.6s-0.6,1.2-0.9,1.8c-0.6,1.2-1.1,2.5-1.6,3.9s-0.9,2.9-1.2,4.4c-0.7,3.1-1.1,6.3-1.3,9.5
			c0,1.6-0.1,3.1,0,4.6c0,1.5,0.1,2.9,0.2,4.2c0.1,1.3,0.3,2.5,0.4,3.6c0.2,1.1,0.4,2,0.6,2.7c0.2,0.8,0.4,1.3,0.5,1.7
			c0.2,0.4,0.3,0.6,0.3,0.6s-0.2-0.1-0.6-0.3c-0.4-0.3-0.9-0.7-1.5-1.3c-1.2-1.2-2.7-3-4.2-5.4c-0.8-1.2-1.5-2.6-2.3-4
			c-0.8-1.5-1.5-3.1-2.1-4.8c-0.6-1.7-1.2-3.5-1.7-5.4s-0.9-3.9-1.1-5.9c-0.3-2-0.4-4.1-0.4-6.1c0-2.1,0.1-4.1,0.4-6.1
			s0.7-3.9,1.3-5.7c0.1-0.3,0.2-0.7,0.3-1c-1.3,0.1-2.5,0.3-3.7,0.6c-1.3,0.3-2.5,0.6-3.7,1s-2.2,0.9-3.3,1.4
			c-2,1.1-3.7,2.3-4.9,3.5c-1.3,1.2-2.1,2.4-2.7,3.3c-0.3,0.5-0.5,0.8-0.6,1.1c-0.1,0.3-0.2,0.4-0.2,0.4h-1c0,0-0.1-0.1-0.2-0.4
			c-0.1-0.3-0.3-0.7-0.5-1.3c-0.3-1.2-0.6-3.1-0.2-5.5C236.8,474.7,237.2,473.4,237.7,472z"/>
	</g>
	<g>
		<path d="M304.1,552.4c-2.3-1.1-4.6-2.5-6.9-4.1c-2.3-1.7-4.5-3.7-6.4-6c-0.5-0.6-0.9-1.2-1.4-1.8s-0.9-1.2-1.3-1.8
			s-0.8-1.3-1.2-1.9l-1-2c-0.4-0.6-0.6-1.3-0.9-2l-0.8-2c-0.4-1.4-0.8-2.7-1.1-4c-0.2-1.3-0.6-2.6-0.6-3.9c-0.1-1.3-0.3-2.5-0.2-3.7
			c0-2.4,0.2-4.7,0.5-6.8c0.4-2.1,0.7-4,1.3-5.7c0.2-0.9,0.5-1.7,0.7-2.4c0.3-0.7,0.5-1.5,0.8-2.1c0.2-0.7,0.5-1.3,0.7-1.8
			c0.3-0.6,0.5-1.1,0.7-1.5c0.9-1.8,1.4-2.8,1.4-2.8s0.2,1.1,0.6,3.1c0.1,0.5,0.2,1,0.3,1.6c0.1,0.6,0.3,1.2,0.4,1.8
			c0.2,0.6,0.3,1.3,0.5,2.1c0.2,0.7,0.4,1.5,0.7,2.2c0.4,1.5,1,3.1,1.7,4.8c0.7,1.6,1.4,3.2,2.3,4.8c0.9,1.5,1.9,3,3,4.2
			c0.5,0.6,1.2,1.2,1.7,1.7l0.9,0.7c0.3,0.3,0.6,0.5,0.9,0.7c1.2,0.9,2.6,1.5,3.8,2c0.5,0.1,0.9,0.3,1.3,0.4
			c1,11.1,6.4,22.1,7.1,29.8c-0.9-0.2-1.9-0.5-2.9-0.8C308.6,554.3,306.4,553.5,304.1,552.4z"/>
	</g>
</g>
</svg>
