<?xml version="1.0" encoding="utf-8"?>
<!-- Generator: Adobe Illustrator 24.0.1, SVG Export Plug-In . SVG Version: 6.00 Build 0)  -->
<svg version="1.1" id="Layer_1" xmlns="http://www.w3.org/2000/svg" xmlns:xlink="http://www.w3.org/1999/xlink" x="0px" y="0px"
	 viewBox="0 0 1000 1000" style="enable-background:new 0 0 1000 1000;" xml:space="preserve">
<g id="skin-D">
	<path d="M783.1,485.2c-3-20.4-48.1-35.3-62.9-39.4c-14.8-4.1-63.4-18.2-70.2-0.9c-6.8,17.2,27.7,47,58.5,62.2
		C739.4,522.2,786.1,505.6,783.1,485.2z"/>
	<path d="M279.8,445.8c-14.8,4.1-59.9,18.9-62.9,39.4c-3,20.4,43.8,37,74.6,21.9c30.8-15.1,65.3-44.9,58.5-62.2
		C343.1,427.6,294.6,441.7,279.8,445.8z"/>
</g>
<g id="earskin">
	<path d="M770.2,484.7c-10.4-13.6-66.8-31.3-77.1-30c-10.4,1.2,3.7,3.7-5.7,5.6s-23.7-2.8-23.7,2.3c0,5.1,6.6,11.8,14.8,14.9
		c4.7,1.8,9,2,11.7,0.9c8.6,6.2,26.8,21.9,38.4,23.1C754.9,504.2,777.6,494.5,770.2,484.7z"/>
	<path d="M312.7,460.3c-9.5-1.9,4.6-4.4-5.7-5.6c-10.4-1.2-66.7,16.4-77.1,30c-7.5,9.7,15.3,19.5,41.6,16.8
		c11.6-1.2,29.8-16.8,38.4-23.1c2.7,1.1,6.9,0.9,11.7-0.9c8.2-3.1,14.8-9.8,14.8-14.9C336.3,457.5,322.1,462.2,312.7,460.3z"/>
</g>
</svg>
