<?xml version="1.0" encoding="utf-8"?>
<!-- Generator: Adobe Illustrator 26.0.1, SVG Export Plug-In . SVG Version: 6.00 Build 0)  -->
<svg version="1.1" id="Layer_1" xmlns="http://www.w3.org/2000/svg" xmlns:xlink="http://www.w3.org/1999/xlink" x="0px" y="0px"
	 viewBox="0 0 1000 1000" style="enable-background:new 0 0 1000 1000;" xml:space="preserve">
<style type="text/css">
	.st0{fill:#1D1A33;}
	.st1{fill:#E3FF6E;}
	.st2{fill:#FAFFCA;}
</style>
<g id="blacks">
	<path d="M802,282.5c-1.5-3.4-5.3-5.2-8.8-4.1c-55.6,17.4-98.8,73.6-114.7,87.1c6.6-13.2,13.3-25.2,20-35.6
		c-12.1,7.8-25.1,23.1-35.8,42.9c-21.4,7.2-59.8,17.5-79.7,33c-70.1,54.4-9.7,114.8,53.1,127c34.8,6.8,85.7-10.8,91.8-33.3
		c0.1-0.3,0.1-0.5,0.2-0.8C761.2,480.6,858.5,414.1,802,282.5z"/>
	<path d="M417.1,405.9c-19.9-15.4-58.3-25.7-79.7-33c-10.7-19.9-23.7-35.2-35.8-42.9c6.6,10.4,13.4,22.4,20,35.6
		c-15.9-13.5-59.1-69.8-114.7-87.1c-3.5-1.1-7.4,0.6-8.8,4.1c-56.6,131.6,40.7,198.1,74.1,216.3c0.1,0.3,0.1,0.5,0.2,0.8
		c6.1,22.5,57,40.1,91.8,33.3C426.8,520.7,487.2,460.3,417.1,405.9z"/>
</g>
<g id="skin2">
	<path d="M799.7,293.5c-1.3-3.1-4.9-4.7-8.1-3.7c-33.4,10.4-62.7,42-82.5,67.2c20.2-18.1,41.6-29.7,58.1-32.4
		c-17,11.6-36,27.1-55,45.4c-4.2,4.1-8.3,8.1-12.3,12.2c10.2-6,20-10,28.5-11.6c-10.9,7.7-22.6,17.1-34.5,27.8
		c0.8-0.6,1.7-1.1,2.5-1.7c25-16.5,50.7-25.3,68.7-25c-18.8,8.3-40.3,20.1-62.4,34.6c-10.9,7.2-21.1,14.5-30.5,21.7
		c2.9-1.4,5.9-2.8,9-4.1c27.6-11.6,54.4-15.7,72.1-12.1c-20,4.8-43.3,12.5-67.6,22.7c-5.1,2.2-10.2,4.4-15.1,6.6
		c16.6,2,30.7,6.3,40.4,12.1c-16.7-1.9-36.3-2.6-57.3-2.1c11.6,3.8,21.2,8.7,28.1,14.2c-12.9-3.1-27.6-5.8-43.4-7.9
		c0,0-43.8,21.8-54.1,14.5c-5.1,8.3-6.4,16.2-1.9,23.3c4.7,7.3,22.3,19.9,58.2,28.6c31.3,7.6,76.5-13.1,82.1-33.8
		c0.1-0.2,0.1-0.5,0.2-0.7C753.3,472.7,851.5,414,799.7,293.5z"/>
	<path d="M361.7,457.5c-15.9,2-30.6,4.7-43.4,7.9c6.9-5.5,16.6-10.4,28.1-14.2c-21-0.6-40.6,0.2-57.3,2.1
		c9.7-5.9,23.8-10.1,40.4-12.1c-4.9-2.3-9.9-4.5-15.1-6.6c-24.3-10.3-47.6-18-67.6-22.7c17.7-3.6,44.5,0.4,72.1,12.1
		c3.1,1.3,6.1,2.7,9,4.1c-9.4-7.2-19.6-14.5-30.5-21.7c-22.1-14.5-43.6-26.3-62.4-34.6c18-0.3,43.7,8.5,68.7,25
		c0.9,0.6,1.7,1.1,2.5,1.7c-12-10.7-23.7-20.1-34.5-27.8c8.5,1.6,18.3,5.6,28.5,11.6c-4-4-8-8.1-12.3-12.2
		c-19-18.3-38.1-33.8-55-45.4c16.4,2.8,37.8,14.3,58.1,32.4c-19.8-25.2-49.1-56.7-82.5-67.2c-3.2-1-6.8,0.6-8.1,3.7
		c-51.8,120.6,46.4,179.2,76.9,195.9c0.1,0.2,0.1,0.5,0.2,0.7c5.6,20.6,50.8,41.3,82.1,33.8c36-8.7,53.6-21.3,58.2-28.6
		c4.6-7.1,3.2-15-1.9-23.3C405.5,479.3,361.7,457.5,361.7,457.5z"/>
</g>
<g id="skin2-L">
	<path d="M802.1,299.3c-31.1,22.7-56.5,50.8-70.1,79c12.3-4.5,23.7-6.8,33-6.7c-11.9,5.3-24.9,12-38.5,19.8
		c-1.1,3.2-2.1,6.5-2.9,9.7c-0.9,3.7-1.5,7.4-1.9,10.9c12-1.9,22.9-2,31.5-0.2c-9.9,2.4-20.7,5.5-32,9.3
		c0.3,22.8,12.3,39.7,32.6,48.5C791.3,441.1,836.9,387.1,802.1,299.3z"/>
	<path d="M246.8,411.8c8.6-1.7,19.5-1.7,31.5,0.2c-0.4-3.5-1-7.1-1.9-10.9c-0.8-3.2-1.7-6.4-2.9-9.7
		c-13.6-7.9-26.6-14.6-38.5-19.8c9.3-0.2,20.7,2.2,33,6.7c-13.6-28.3-39-56.4-70.1-79c-34.8,87.8,10.8,141.9,48.2,170.2
		c20.4-8.8,32.4-25.6,32.6-48.5C267.5,417.2,256.7,414.1,246.8,411.8z"/>
</g>
</svg>
