<?xml version="1.0" encoding="utf-8"?>
<!-- Generator: Adobe Illustrator 19.2.0, SVG Export Plug-In . SVG Version: 6.00 Build 0)  -->
<svg version="1.0" id="bear" xmlns="http://www.w3.org/2000/svg" xmlns:xlink="http://www.w3.org/1999/xlink" x="0px" y="0px"
	 viewBox="0 0 1000 1000" enable-background="new 0 0 1000 1000" xml:space="preserve">
<g id="blacks">
	<path fill="#113D44" d="M620.96,336.91c-5.37-0.48-18.31,3.09-24.9,6.63c-7.73,4.15-10.1,4.95-17.44,16.18
		c-7.33,11.23-11.99,61.05-3.33,66.73c21.19,13.89,63.26-4.41,67.63-23.71C647.29,383.44,646.81,339.21,620.96,336.91z"/>
	<path fill="#113D44" d="M379.65,336.91c5.37-0.48,18.31,3.09,24.9,6.63c7.73,4.15,10.1,4.95,17.44,16.18
		c7.33,11.23,11.99,61.05,3.33,66.73c-21.19,13.89-63.26-4.41-67.63-23.71C353.32,383.44,353.79,339.21,379.65,336.91z"/>
</g>
<g id="earskin">
	<path fill="#B3FFF0" d="M598.29,418.44c5.5,18.5,20.22-10.21,25.61-30.11c5.39-19.89,4.46-41.55,0.15-41.15
		c-1.59,0.14-6.23,5.69-8.89,10.41C612.14,362.94,592.79,399.94,598.29,418.44z"/>
	<path fill="#B3FFF0" d="M402.32,418.44c-5.5,18.5-20.22-10.21-25.61-30.11c-5.39-19.89-4.46-41.55-0.15-41.15
		c1.59,0.14,6.23,5.69,8.89,10.41C388.46,362.94,407.82,399.94,402.32,418.44z"/>
</g>
</svg>
