<?xml version="1.0" encoding="utf-8"?>
<!-- Generator: Adobe Illustrator 24.0.1, SVG Export Plug-In . SVG Version: 6.00 Build 0)  -->
<svg version="1.1" id="Layer_1" xmlns="http://www.w3.org/2000/svg" xmlns:xlink="http://www.w3.org/1999/xlink" x="0px" y="0px"
	 viewBox="0 0 1000 1000" style="enable-background:new 0 0 1000 1000;" xml:space="preserve">
<g id="skin-D">
	<path d="M792.5,461.1c-26.7,14.7-132.3-38.8-159.8-36.6s59.3,75.6,98.5,80.2C770.5,509.3,798.5,488.5,792.5,461.1z"/>
	<path d="M367.3,424.5c-27.5-2.2-133.1,51.3-159.8,36.6c-6,27.3,22,48.2,61.3,43.6C308,500.2,394.7,426.7,367.3,424.5z"/>
</g>
<g id="earskin">
	<path d="M773.3,480c-1-1.8-21.1-5.2-27.5-6.4c-7.3-1.3-107.8-43.8-116.7-36.5c-8.8,7.4,72.1,51.4,99.6,59.3
		C756.3,504.3,775.9,484.7,773.3,480z"/>
	<path d="M254.2,473.6c-6.4,1.1-26.5,4.6-27.5,6.4c-2.6,4.8,17,24.4,44.5,16.5s108.5-51.9,99.6-59.3
		C362,429.8,261.5,472.3,254.2,473.6z"/>
</g>
</svg>
