<?xml version="1.0" encoding="utf-8"?>
<!-- Generator: Adobe Illustrator 26.0.1, SVG Export Plug-In . SVG Version: 6.00 Build 0)  -->
<svg version="1.1" id="Layer_1" xmlns="http://www.w3.org/2000/svg" xmlns:xlink="http://www.w3.org/1999/xlink" x="0px" y="0px"
	 viewBox="0 0 1000 1000" style="enable-background:new 0 0 1000 1000;" xml:space="preserve">
<style type="text/css">
	.st0{fill:#2B1051;}
	.st1{fill:#FF9671;}
</style>
<g id="blacks">
	<path 
d="M611.9,345.7c-12-21.3-44-132-46.4-102.8c-2.2,27.5-13.6,158.6-11.6,171.8
		C556.1,427.9,631.3,380.1,611.9,345.7z"/>
	<path 
d="M385.7,345.7c-19.4,34.5,55.9,82.2,57.9,69c2-13.2-9.4-144.4-11.6-171.8C429.7,213.7,397.7,324.3,385.7,345.7z
		"/>
</g>
<g id="earskin">
	<path 
d="M608.5,347.2c-13.7-27.6-35.8-108.2-38.9-101.4c-1.9,4.2,4.7,128.5,3.4,135.8c-1.2,6.4-4.9,26.5-3.6,28
		C573,413.8,621.1,372.9,608.5,347.2z"/>
	<path 
d="M428.1,245.9c-3.1-6.8-25.3,73.7-38.9,101.4c-12.7,25.7,35.5,66.5,39.1,62.5c1.3-1.5-2.4-21.6-3.6-28
		C423.3,374.4,430,250.1,428.1,245.9z"/>
</g>
</svg>
