<?xml version="1.0" encoding="utf-8"?>
<!-- Generator: Adobe Illustrator 24.0.1, SVG Export Plug-In . SVG Version: 6.00 Build 0)  -->
<svg version="1.1" id="Layer_1" xmlns="http://www.w3.org/2000/svg" xmlns:xlink="http://www.w3.org/1999/xlink" x="0px" y="0px"
	 viewBox="0 0 1000 1000" style="enable-background:new 0 0 1000 1000;" xml:space="preserve">
<g id="skin-D">
	<path d="M724.3,460.5c-32.3-10.4-79.2-24.9-79.4-13.9c-0.3,14.7,45.7,46.5,65.8,57.4c12,6.5,45.5,33.4,54.8,27.3
		C777.2,523.6,756.6,470.9,724.3,460.5z"/>
	<path d="M274.6,460.5c-32.3,10.4-52.9,63-41.2,70.7c9.3,6.1,42.8-20.8,54.8-27.3c20.1-10.9,66.1-42.7,65.8-57.4
		C353.8,435.6,306.9,450.2,274.6,460.5z"/>
</g>
<g id="earskin">
	<path d="M761.4,526.2c-4.3-13.2-17.9-26.8-29.5-34.4c-24.5-16.1-82.4-40.6-78.8-36c18.1,23.4,62.8,44.9,79.8,55.6
		c11.5,7.1,20.4,11.8,25.9,16.5C760,529,761.9,527.8,761.4,526.2z"/>
	<path d="M267,491.8c-11.6,7.6-25.1,21.2-29.5,34.4c-0.5,1.5,1.3,2.7,2.6,1.7c5.5-4.7,14.5-9.4,25.9-16.5
		c17.1-10.6,61.7-32.2,79.8-55.6C349.4,451.2,291.5,475.8,267,491.8z"/>
</g>
</svg>
