<?xml version="1.0" encoding="utf-8"?>
<!-- Generator: Adobe Illustrator 26.0.1, SVG Export Plug-In . SVG Version: 6.00 Build 0)  -->
<svg version="1.1" id="Layer_1" xmlns="http://www.w3.org/2000/svg" xmlns:xlink="http://www.w3.org/1999/xlink" x="0px" y="0px"
	 viewBox="0 0 1000 1000" style="enable-background:new 0 0 1000 1000;" xml:space="preserve">
<g id="blacks">
	<path d="M758.4,277.4c-1-14.7-57,30.4-75.6,43.7c-39.5,28.2-130.7,43.3-121.7,88.1c8.7,43,65,55.9,114.6,46.1
		c0.1-3.3,0.4-6.6,0.8-9.9c3.6-26.7,18.2-50.9,40-66.7c11.5-8.3,24.5-13.2,38.7-14c2.4-0.1,4.9-0.2,7.3-0.2
		C766.3,332.2,760,300.9,758.4,277.4z"/>
	<path d="M321.4,321.1c-18.6-13.3-74.5-58.4-75.6-43.7c-0.4,6.1-1.2,12.7-2,19.6c10.7,7.2,20.3,16,28.6,25.9
		c8.8,10.6,16.3,22.2,22.7,34.3c6.7,12.8,11.3,26.4,17.4,39.4c1.2,2.5,2.3,4.6,2,7.5c-0.2,1.6-1.1,2.9-0.7,4.5
		c0.2,1,1.1,2.1,1.6,2.9c3.2,5.1,4.2,9.3,3,15.3c-1.5,7.7-6.4,17.3-13.6,21.9c53.5,19.7,128,10.5,138.1-39.6
		C452.1,364.4,360.9,349.3,321.4,321.1z"/>
</g>
<g id="earskin">
	<path d="M758.4,277.4c-0.1-0.8-0.3-1.4-0.7-1.9c-2.1,1-4.6,3-7.4,6.9c-7.1,9.8-52.9,70.4-82.9,87.9
		c-29.9,17.4-94.1,26.7-104.1,46.2c17.2,48,98.6,53.2,151,28.7c-2.2-11.4,1.5-25.1,10.8-36.2c10.3-12.3,24.9-18.3,37.4-16.6
		C778.8,347.2,760.5,307.2,758.4,277.4z"/>
	<path d="M336.9,370.3c-30-17.5-75.9-78-82.9-87.9c-2.8-3.9-5.4-5.9-7.4-6.9c-0.4,0.5-0.6,1.1-0.7,1.9c-0.8,10.6-3.6,22.5-6.1,35.5
		c1.4,0,2.8,0.1,4.2,0.4c12.2,2.1,20.8,11.6,19.1,21.4c-1.7,9.7-12.9,15.9-25.1,13.8c-1-0.2-1.9-0.4-2.8-0.7
		c-0.6,16.2,1.5,33.4,9.4,51.5c11.4-4.4,23.5-3.4,32,3.7c10.4,8.8,12.6,24.3,6.8,38.9C335.2,470,423,466.6,441,416.5
		C430.9,397,366.8,387.7,336.9,370.3z"/>
</g>
</svg>
