<?xml version="1.0" encoding="utf-8"?>
<!-- Generator: Adobe Illustrator 24.0.1, SVG Export Plug-In . SVG Version: 6.00 Build 0)  -->
<svg version="1.1" id="ears" xmlns="http://www.w3.org/2000/svg" xmlns:xlink="http://www.w3.org/1999/xlink" x="0px" y="0px"
	 viewBox="0 0 1000 1000" style="enable-background:new 0 0 1000 1000;" xml:space="preserve">

<g id="skin-D">
	<path d="M409.4,432.7c0,0-34.9,7.6-81.3,58.2c-42.7,46.5-158.9,67.4-144.9,91.1c31.4,53.2,173.9,84.7,235.3-75.3
		C437.6,456.9,430,434.2,409.4,432.7z"/>
	<path d="M671.9,490.9c-46.4-50.6-81.3-58.2-81.3-58.2c-20.6,1.4-28.2,24.1-9,74.1c61.3,160,203.9,128.5,235.3,75.3
		C830.8,558.3,714.6,537.4,671.9,490.9z"/>
</g>
<g id="earskin">
	<path d="M382.7,459.8C367.9,480,279,566.1,228.2,589.8c-2.8,1.3-2.6,5.3,0.3,6.3c19.1,6.3,68.4,18.1,117.1-7.2
		c62-32.3,85.2-135.6,74.5-145.9C420.1,443,398.4,438.4,382.7,459.8z"/>
	<path d="M771.8,589.8C721,566.1,632.1,480,617.3,459.8c-15.7-21.4-37.4-16.8-37.4-16.8
		c-10.7,10.3,12.4,113.5,74.5,145.9c48.6,25.3,98,13.5,117.1,7.2C774.4,595.1,774.6,591.1,771.8,589.8z"/>
</g>
</svg>
