<?xml version="1.0" encoding="utf-8"?>
<!-- Generator: Adobe Illustrator 24.0.1, SVG Export Plug-In . SVG Version: 6.00 Build 0)  -->
<svg version="1.1" id="ears" xmlns="http://www.w3.org/2000/svg" xmlns:xlink="http://www.w3.org/1999/xlink" x="0px" y="0px"
	 viewBox="0 0 1000 1000" style="enable-background:new 0 0 1000 1000;" xml:space="preserve">
<g id="skin-D">
	<path d="M408.6,402.9c-1.1-1.9-2.9-3.1-4.9-3.4c-2.4-15.5-6.9-30.9-22.1-38.5c-8-4-16.8-6.2-25.3-8.9c-8.7-2.8-17.4-5.8-26-9.2
		c-17.1-6.6-33.7-14.9-48.5-25.8c-6.9-5.1-13.8-11.5-22.7-12.4c-7.5-0.8-14.2,3.3-17.4,10c-3.2,6.7-2.9,14.4-2.2,21.6
		c0.8,7.9,2.2,15.7,4.2,23.4c4.2,15.2,12.7,36.1,22.2,48.7c18.6,24.7,44.7,34.4,76.1,34.2c16.1-0.1,32.5-4.3,46.2-13
		c6.8-4.3,12.9-9.7,17.9-16C408.6,410.5,410.8,406.7,408.6,402.9z"/>
	<path d="M593.8,413.6c5,6.3,11.1,11.7,17.9,16c13.7,8.7,30.1,12.9,46.2,13c31.3,0.2,57.5-9.5,76.1-34.2c9.5-12.6,18-33.5,22.2-48.7
		c2.1-7.7,3.5-15.5,4.2-23.4c0.7-7.2,0.9-14.9-2.2-21.6c-3.2-6.7-9.9-10.8-17.4-10c-8.9,0.9-15.8,7.3-22.7,12.4
		c-14.8,11-31.4,19.2-48.5,25.8c-8.6,3.3-17.2,6.3-26,9.2c-8.4,2.7-17.3,4.9-25.3,8.9c-15.2,7.6-19.6,22.9-22.1,38.5
		c-2,0.3-3.8,1.5-4.9,3.4C589.2,406.7,591.4,410.5,593.8,413.6z"/>
</g>
<g id="earskin">
	<path d="M367.2,380.8c-17.7-8.2-86.9-34.7-115.3-61.5c-1.4-1.3-3.7-0.4-3.8,1.5c-1,16.3,4.9,74.5,37.7,98.4
		c43.5,31.6,90.7,4.4,105-5.4c2.6-1.8,3.4-5.3,1.8-8C388.6,399,380.1,386.8,367.2,380.8z"/>
	<path d="M752,320.8c-0.1-1.9-2.4-2.8-3.8-1.5c-28.4,26.8-97.6,53.3-115.3,61.5c-12.9,6-21.5,18.2-25.4,25c-1.6,2.7-0.8,6.3,1.8,8
		c14.4,9.8,61.6,37,105,5.4C747.1,395.2,753,337.1,752,320.8z"/>
</g>
</svg>
