<?xml version="1.0" encoding="utf-8"?>
<!-- Generator: Adobe Illustrator 19.2.0, SVG Export Plug-In . SVG Version: 6.00 Build 0)  -->
<svg version="1.0" id="Layer_2" xmlns="http://www.w3.org/2000/svg" xmlns:xlink="http://www.w3.org/1999/xlink" x="0px" y="0px"
	 viewBox="0 0 1000 1000" enable-background="new 0 0 1000 1000" xml:space="preserve">
<g id="nose_2_">
	<path id="skin2" fill="#BEC0C7" d="M542.73,581.53c-3.08-9.95-20.75-59.06-42.09-59.06s-39,49.11-42.08,59.06H542.73z"/>
	<path id="nose" fill="#BB5782" d="M458.29,580.82c0,7.13,18.96,27.9,42.35,27.9s42.35-20.77,42.35-27.9c0-7.14-18.96-3.6-42.35-3.6
		C477.26,577.22,458.29,573.69,458.29,580.82z"/>
	<path id="nose-L" fill="#E3D3DE" d="M530.49,580.64c0.06,1.21-10.4,4.95-21.15,5.52c-10.76,0.57-17.74-2.25-17.8-3.46
		s6.81-0.36,17.57-0.93C519.86,581.2,530.43,579.42,530.49,580.64z"/>
	<g id="nose-D">
		<path id="nose-D_2_" fill="#523259" d="M528.54,591.69c-0.88-1.51-5.14,0.44-9.94,3.11c-4.8,2.66-8.32,5.04-7.45,6.54
			c0.88,1.51,5.81,1.57,10.62-1.09C526.57,597.58,529.42,593.2,528.54,591.69z"/>
		<path id="nose-D_1_" fill="#523259" d="M482.69,594.8c-4.8-2.67-9.07-4.61-9.94-3.11c-0.88,1.5,1.97,5.89,6.77,8.56
			c4.8,2.66,9.74,2.6,10.62,1.09C491.01,599.84,487.49,597.46,482.69,594.8z"/>
	</g>
</g>
</svg>
