<?xml version="1.0" encoding="utf-8"?>
<!-- Generator: Adobe Illustrator 26.0.1, SVG Export Plug-In . SVG Version: 6.00 Build 0)  -->
<svg version="1.1" id="Layer_2" xmlns="http://www.w3.org/2000/svg" xmlns:xlink="http://www.w3.org/1999/xlink" x="0px" y="0px"
	 viewBox="0 0 1000 1000" style="enable-background:new 0 0 1000 1000;" xml:space="preserve">
<style type="text/css">
	.st0{fill:#6A025C;}
	.st1{fill:#0CBD7C;}
</style>
<g id="blacks">
	<path d="M486.3,583c-1.3,0.8-7.3-0.3-10.1-4.6c-2.9-4.3-1.5-10.3-0.2-11.1c1.3-0.8,4.6,2,7.5,6.3
		C486.3,577.9,487.6,582.1,486.3,583z"/>
	<path d="M513.7,583c1.3,0.8,7.3-0.3,10.1-4.6c2.9-4.3,1.5-10.3,0.2-11.1c-1.3-0.8-4.6,2-7.5,6.3
		C513.7,577.9,512.4,582.1,513.7,583z"/>
</g>
<path id="skin-L" d="M513.8,560c0,1.2-6.2,3.8-13.8,3.8c-7.6,0-13.8-2.6-13.8-3.8s6.2-0.5,13.8-0.5
	C507.6,559.6,513.8,558.9,513.8,560z"/>
</svg>
