<?xml version="1.0" encoding="utf-8"?>
<!-- Generator: Adobe Illustrator 26.0.1, SVG Export Plug-In . SVG Version: 6.00 Build 0)  -->
<svg version="1.1" id="Layer_2" xmlns="http://www.w3.org/2000/svg" xmlns:xlink="http://www.w3.org/1999/xlink" x="0px" y="0px"
	 viewBox="0 0 1000 1000" style="enable-background:new 0 0 1000 1000;" xml:space="preserve">
<style type="text/css">
	.st0{fill:#CC54AA;}
	.st1{fill:#28003B;}
	.st2{fill:#FFFFFF;}
</style>
<path id="nose" 
d="M482.2,572.4c0,7.2,8.1,15.6,18.1,15.6c10,0,18.1-8.4,18.1-15.6c0-7.2-8.1-0.8-18.1-0.8
	C490.3,571.6,482.2,565.2,482.2,572.4z"/>
<g id="blacks">
	<path 
d="M512.5,582.3c-1.7,1.7-3.9,2.2-5.1,1.1c-1.1-1.1-0.7-3.4,1-5.1c1.7-1.7,3.9-2.2,5.1-1.1
		C514.6,578.3,514.2,580.6,512.5,582.3z"/>
	<path 
d="M488.1,582.3c1.7,1.7,3.9,2.2,5.1,1.1c1.1-1.1,0.7-3.4-1-5.1c-1.7-1.7-3.9-2.2-5.1-1.1
		C486,578.3,486.4,580.6,488.1,582.3z"/>
</g>
<path id="whites" 
d="M509.6,572c0.1,0.5-1.2,1.3-2.9,1.8c-1.8,0.5-3.3,0.5-3.4,0c-0.1-0.5,1.2-1.3,2.9-1.8
	C507.9,571.5,509.5,571.5,509.6,572z"/>
</svg>
