<?xml version="1.0" encoding="utf-8"?>
<!-- Generator: Adobe Illustrator 26.0.1, SVG Export Plug-In . SVG Version: 6.00 Build 0)  -->
<svg version="1.1" id="Layer_2" xmlns="http://www.w3.org/2000/svg" xmlns:xlink="http://www.w3.org/1999/xlink" x="0px" y="0px"
	 viewBox="0 0 1000 1000" style="enable-background:new 0 0 1000 1000;" xml:space="preserve">
<style type="text/css">
	.st0{fill:#ABBEDB;}
	.st1{fill:#CC54AA;}
	.st2{fill:#FFFFFF;}
	.st3{fill:#28003B;}
</style>
<g id="XMLID_635_">
	<path id="skin-D" d="M541.1,611.5c0,20.1-18.4,14.7-41,14.7c-22.7,0-41,5.4-41-14.7c0-20.1,18.4-36.5,41-36.5
		C522.7,575,541.1,591.4,541.1,611.5z"/>
	<path id="nose" d="M523.3,581.1c0-8.6-10.4-18.7-23.3-18.7c-12.8,0-23.3,10.1-23.3,18.7c0,8.6,10.4,5.2,23.3,5.2
		C512.8,586.3,523.3,589.8,523.3,581.1z"/>
	<path id="whites" d="M504.4,565.7c0,0.9-2,1.5-4.4,1.5c-2.4,0-4.4-0.7-4.4-1.5c0-0.9,2-1.5,4.4-1.5
		C502.4,564.1,504.4,564.8,504.4,565.7z"/>
	<g id="blacks">
		<path d="M483.8,574.6c-2.9,3-3.7,7-1.7,9c2,2,6,1.1,8.9-1.9c2.9-3,3.7-7,1.7-9C490.7,570.8,486.7,571.6,483.8,574.6z"
			/>
		<path d="M507.3,572.7c-2,2-1.2,6,1.7,9c2.9,3,6.9,3.8,8.9,1.9c2-2,1.2-6-1.7-9C513.3,571.6,509.3,570.8,507.3,572.7z"
			/>
		<path 
d="M470.3,583.8L470.3,583.8c0,0-0.1,0.1-0.3,0.2c-0.2,0.1-0.4,0.3-0.8,0.5c-0.6,0.5-1.5,1.2-2.4,2.1
			c-0.5,0.5-0.9,1-1.4,1.6c-0.5,0.6-0.9,1.2-1.4,1.9c-0.5,0.7-0.9,1.4-1.4,2.1c-0.4,0.7-0.9,1.5-1.2,2.3c-0.4,0.8-0.8,1.6-1.1,2.3
			c-0.3,0.8-0.7,1.6-0.9,2.3c-0.3,0.8-0.5,1.5-0.7,2.2c-0.2,0.7-0.4,1.4-0.5,2c-0.3,1.3-0.5,2.3-0.6,3.1c-0.1,0.8-0.1,1.2-0.1,1.2
			c0,0.2,0.1,0.3,0.2,0.4c0.2,0.2,0.6,0.1,0.7-0.1l0,0c0,0,0.3-0.4,0.7-1c0.2-0.3,0.5-0.7,0.7-1.1c0.3-0.4,0.6-0.9,0.9-1.5
			c0.3-0.5,0.7-1.1,1-1.8c0.4-0.6,0.7-1.3,1.1-2c0.7-1.4,1.5-2.8,2.3-4.3c0.8-1.5,1.5-2.9,2.2-4.3c0.3-0.7,0.7-1.4,1-2
			c0.3-0.6,0.6-1.2,0.9-1.8c1.1-2.2,1.8-3.8,1.8-3.8c0.1-0.1,0.1-0.3,0-0.5C470.9,583.8,470.6,583.7,470.3,583.8z"/>
		<path 
d="M542.4,606.4c-0.1-0.8-0.2-1.8-0.6-3.1c-0.2-0.6-0.3-1.3-0.5-2c-0.2-0.7-0.5-1.5-0.7-2.2
			c-0.3-0.8-0.6-1.5-0.9-2.3c-0.3-0.8-0.7-1.6-1.1-2.3c-0.4-0.8-0.8-1.5-1.2-2.3c-0.4-0.7-0.9-1.4-1.4-2.1c-0.5-0.7-0.9-1.3-1.4-1.9
			c-0.5-0.6-1-1.1-1.4-1.6c-0.9-1-1.8-1.7-2.4-2.1c-0.3-0.2-0.6-0.4-0.8-0.5c-0.2-0.1-0.3-0.2-0.3-0.2l0,0c-0.1-0.1-0.3-0.1-0.5,0
			c-0.3,0.1-0.4,0.4-0.2,0.7c0,0,0.7,1.5,1.8,3.8c0.3,0.6,0.6,1.2,0.9,1.8c0.3,0.6,0.7,1.3,1,2c0.7,1.4,1.5,2.8,2.2,4.3
			c0.8,1.5,1.5,2.9,2.3,4.3c0.4,0.7,0.7,1.3,1.1,2c0.3,0.6,0.7,1.2,1,1.8c0.3,0.5,0.6,1,0.9,1.5c0.3,0.4,0.5,0.8,0.7,1.1
			c0.4,0.6,0.7,1,0.7,1l0,0c0.1,0.1,0.3,0.2,0.4,0.2c0.3,0,0.5-0.3,0.5-0.5C542.5,607.6,542.5,607.2,542.4,606.4z"/>
		<path 
d="M498.6,586.3c0.2,4.6,0.8,7.7,1.4,7.7c0.6,0,1.1-3.2,1.4-7.7c-0.5,0-0.9,0-1.4,0
			C499.5,586.3,499.1,586.3,498.6,586.3z"/>
		<path 
d="M484.9,567.5c4.1-3,9.3-5.1,15.1-5.1c5.8,0,11,2,15.1,5.1c13.1,4.7,22.2,13.4,22.2,12.1
			c0-1.8-16.7-21.4-37.3-21.4c-20.6,0-37.3,19.6-37.3,21.4C462.7,580.9,471.8,572.1,484.9,567.5z"/>
	</g>
</g>
</svg>
