<?xml version="1.0" encoding="utf-8"?>
<!-- Generator: Adobe Illustrator 26.0.1, SVG Export Plug-In . SVG Version: 6.00 Build 0)  -->
<svg version="1.1" id="Layer_2" xmlns="http://www.w3.org/2000/svg" xmlns:xlink="http://www.w3.org/1999/xlink" x="0px" y="0px"
	 viewBox="0 0 1000 1000" style="enable-background:new 0 0 1000 1000;" xml:space="preserve">
<style type="text/css">
	.st0{fill:#33192E;}
	.st1{fill:#724A62;}
	.st2{fill:#FFFFFF;}
</style>
<g id="XMLID_679_">
	<path id="blacks" 
d="M513,578.8c0,8.3-5.8,15-13,15c-7.2,0-13-6.7-13-15c0-8.3,5.8-0.5,13-0.5
		C507.2,578.4,513,570.6,513,578.8z"/>
	<path id="nose" 
d="M509.2,568.6c-1.9-0.6-6.8-1.4-8,1.5c-0.5,1.1-0.9,3.3-1.2,6c-0.3-2.6-0.7-4.8-1.2-6
		c-1.2-2.9-6.2-2.1-8-1.5c-10.8,3.5-18.5,11.7-17,15.1c1.5,3.5,12.4,5.3,15.3,3.3c2.9-2,0.8-7.4,1.2-9.2c0.5-1.8,2.6,1.5,3.8,4.5
		c1.2,3-1.2,3.8-2.9,6.8c-1.7,3,2.7,8.9,4.5,9.1c1.2,0.1,3.1-0.8,4.2-3.3c1.1,2.5,3,3.4,4.2,3.3c1.8-0.2,6.2-6.1,4.5-9.1
		c-1.7-3-4.1-3.8-2.9-6.8c1.2-3,3.3-6.4,3.8-4.5c0.5,1.8-1.7,7.3,1.2,9.2c2.9,2,13.8,0.2,15.3-3.3
		C527.7,580.2,520,572.1,509.2,568.6z"/>
	<path id="whites" 
d="M513.1,573.1c-0.2,0.8-2.2,1.1-4.6,0.7c-2.4-0.5-4.2-1.5-4-2.3c0.2-0.8,2.2-1.1,4.6-0.7
		C511.4,571.2,513.2,572.3,513.1,573.1z"/>
</g>
</svg>
