<?xml version="1.0" encoding="utf-8"?>
<!-- Generator: Adobe Illustrator 26.0.1, SVG Export Plug-In . SVG Version: 6.00 Build 0)  -->
<svg version="1.1" id="Layer_2" xmlns="http://www.w3.org/2000/svg" xmlns:xlink="http://www.w3.org/1999/xlink" x="0px" y="0px"
	 viewBox="0 0 1000 1000" style="enable-background:new 0 0 1000 1000;" xml:space="preserve">
<style type="text/css">
	.st0{fill:#363251;}
	.st1{fill:#8A919B;}
	.st2{fill:#18162D;}
</style>
<path id="nose-D" 
d="M529.1,560.5c0,27.2-13,30-29.1,30c-16.1,0-29.1-2.7-29.1-30s13-49.3,29.1-49.3
	C516.1,511.2,529.1,533.3,529.1,560.5z"/>
<g id="nose-L">
	<path 
d="M513,580c-3.8,2.2-5.9,5.7-4.7,7.7c1.2,2,5.2,1.9,9-0.3c3.8-2.2,5.9-5.7,4.7-7.7
		C520.8,577.6,516.8,577.7,513,580z"/>
	<path 
d="M487,580c3.8,2.2,5.9,5.7,4.7,7.7c-1.2,2-5.2,1.9-9-0.3c-3.8-2.2-5.9-5.7-4.7-7.7
		C479.2,577.6,483.2,577.7,487,580z"/>
</g>
<g id="blacks">
	<path 
d="M487,580c-2.5-1.5-5-2-6.9-1.7c-0.2,0.2-0.4,0.4-0.6,0.6c-1.1,1.9,0.8,5.1,4.3,7.1c3.3,2,6.9,2.2,8.1,0.5
		C492.1,584.5,490.1,581.8,487,580z"/>
	<path 
d="M520.4,578.9c-0.1-0.2-0.3-0.4-0.6-0.6c-1.8-0.3-4.4,0.2-6.9,1.7c-3.1,1.8-5.1,4.5-5,6.5
		c1.2,1.7,4.8,1.5,8.1-0.5C519.6,584,521.5,580.8,520.4,578.9z"/>
</g>
</svg>
