<?xml version="1.0" encoding="utf-8"?>
<!-- Generator: Adobe Illustrator 26.0.1, SVG Export Plug-In . SVG Version: 6.00 Build 0)  -->
<svg version="1.1" id="Layer_2" xmlns="http://www.w3.org/2000/svg" xmlns:xlink="http://www.w3.org/1999/xlink" x="0px" y="0px"
	 viewBox="0 0 1000 1000" style="enable-background:new 0 0 1000 1000;" xml:space="preserve">
<style type="text/css">
	.st0{fill:#FFB000;}
	.st1{fill:#05476C;}
</style>
<path id="nose" 
d="M472,556c0,14.1,9,26.6,22.8,34.4c3,1.7,7.4,1.7,10.4,0C519,582.6,528,570.1,528,556
	c0-14.5-9.4-14.7-23.9-20.4c-2.5-1-5.6-1-8.1,0C481.5,541.4,472,541.6,472,556z"/>
<g id="blacks">
	<path 
d="M516.8,571.2c-1,3.4-2.8,6-4,5.7c-1.3-0.3-1.5-3.4-0.6-6.8c1-3.4,2.8-6,4-5.7
		C517.5,564.7,517.8,567.8,516.8,571.2z"/>
	<path 
d="M483.2,571.2c1,3.4,2.8,6,4,5.7c1.3-0.3,1.5-3.4,0.6-6.8c-1-3.4-2.8-6-4-5.7
		C482.5,564.7,482.2,567.8,483.2,571.2z"/>
</g>
</svg>
