<?xml version="1.0" encoding="utf-8"?>
<!-- Generator: Adobe Illustrator 26.0.1, SVG Export Plug-In . SVG Version: 6.00 Build 0)  -->
<svg version="1.1" id="Layer_2" xmlns="http://www.w3.org/2000/svg" xmlns:xlink="http://www.w3.org/1999/xlink" x="0px" y="0px"
	 viewBox="0 0 1000 1000" style="enable-background:new 0 0 1000 1000;" xml:space="preserve">

<path id="skin2" 
d="M534.5,572.5c0-14.8-11-28-28-36.3c-3.7-1.8-9-1.8-12.7,0c-17,8.3-28,21.4-28,36.3
	c0,15.2,19,21.5,34.4,21.5C515.4,594,534.5,587.8,534.5,572.5z"/>
<g id="blacks">
	<ellipse transform="matrix(0.9087 -0.4175 0.4175 0.9087 -194.9347 255.583)" cx="486.7" cy="573.3" rx="4" ry="7.7"/>
	
		<ellipse transform="matrix(0.4175 -0.9087 0.9087 0.4175 -221.9003 800.5078)" cx="513.5" cy="573.3" rx="7.7" ry="4"/>
	<path 
d="M490.6,563.4c-0.1,1-2.7-1.9-6.2-2.3c-3.5-0.4-6.7,1.8-6.6,0.8c0.1-1,3.5-4.9,7-4.5
		C488.4,557.8,490.7,562.4,490.6,563.4z"/>
	<path d="M509.6,563.4c0.1,1,2.7-1.9,6.2-2.3c3.5-0.4,6.7,1.8,6.6,0.8c-0.1-1-3.5-4.9-7-4.5
		C511.8,557.8,509.5,562.4,509.6,563.4z"/>
</g>
</svg>
