<?xml version="1.0" encoding="utf-8"?>
<!-- Generator: Adobe Illustrator 26.0.1, SVG Export Plug-In . SVG Version: 6.00 Build 0)  -->
<svg version="1.1" id="Layer_2" xmlns="http://www.w3.org/2000/svg" xmlns:xlink="http://www.w3.org/1999/xlink" x="0px" y="0px"
	 viewBox="0 0 1000 1000" style="enable-background:new 0 0 1000 1000;" xml:space="preserve">
<style type="text/css">
	.st0{fill:#9AF7EB;}
	.st1{fill:#1E0B1B;}
</style>
<path id="skin-L" d="M500,564.4c-13.4-1.5-29.4-12-30.3-0.7c-0.6,6.9,21.1,23.3,30.3,23.3s30.9-16.4,30.3-23.3
	C529.4,552.4,513.4,562.9,500,564.4z"/>
<g id="blacks">
	<path d="M494,582.6c-1.5,2.3-9.3-1.2-13.3-4.3c-4-3.2-6-7.5-4.5-9.8c1.5-2.3,5.9-1.5,9.9,1.6
		C490.1,573.3,495.5,580.4,494,582.6z"/>
	<path d="M506,582.6c1.5,2.3,9.3-1.2,13.3-4.3c4-3.2,6-7.5,4.5-9.8c-1.5-2.3-5.9-1.5-9.9,1.6
		C509.9,573.3,504.5,580.4,506,582.6z"/>
</g>
</svg>
