<?xml version="1.0" encoding="utf-8"?>
<!-- Generator: Adobe Illustrator 26.0.1, SVG Export Plug-In . SVG Version: 6.00 Build 0)  -->
<svg version="1.1" id="Layer_1" xmlns="http://www.w3.org/2000/svg" xmlns:xlink="http://www.w3.org/1999/xlink" x="0px" y="0px"
	 viewBox="0 0 1000 1000" style="enable-background:new 0 0 1000 1000;" xml:space="preserve">
<style type="text/css">
	.st0{fill:#222231;}
	.st1{fill:#C7B7C3;}
</style>
<g id="blacks">
	<path d="M304,426.9c-0.7-7.4-0.7-14.8,0-22.1c4.6-48.6,41.1-102.6,61.3-117.3c12,14.2,27.3,38.7,38.4,63.8
		c2.6-5.2,4.5-9.1,4.5-9.1s2.2,11.9,3,25.9c7.8-8.1,15-16.8,15-16.8s-1.9,24.3-8.4,44.6c0.4,2.9,0.7,5.6,0.8,8.3
		c1.4,38.5-38.2,87.3-59.7,101.3c-16.4,10.7-38.6-15.2-49.2-50c-2.1-1.1-3.5-2.4-4-4c-2.7-9.7-17.4-30.9-17.4-30.9
		S295.1,423,304,426.9z"/>
	<path d="M696,426.9c0.7-7.4,0.7-14.8,0-22.1c-4.6-48.6-41.1-102.6-61.3-117.3c-12,14.2-27.3,38.7-38.4,63.8
		c-2.6-5.2-4.5-9.1-4.5-9.1s-2.2,11.9-3,25.9c-7.8-8.1-15-16.8-15-16.8s1.9,24.3,8.4,44.6c-0.4,2.9-0.7,5.6-0.8,8.3
		c-1.4,38.5,38.2,87.3,59.7,101.3c16.4,10.7,38.6-15.2,49.2-50c2.1-1.1,3.5-2.4,4-4c2.7-9.7,17.4-30.9,17.4-30.9
		S704.9,423,696,426.9z"/>
</g>
<g id="earskin">
	<path d="M644.2,306.3c9.3,9.7,37.7,52.6,41.2,88.2c3.8,38.8-17.5,85.1-31.9,77.6c-13.5-7.1-37.1-47.8-37.4-78.8
		C615.9,364.5,633.6,321.2,644.2,306.3z"/>
	<path d="M355.8,306.3c-9.3,9.7-37.7,52.6-41.2,88.2c-3.8,38.8,17.5,85.1,31.9,77.6c13.5-7.1,37.1-47.8,37.4-78.8
		C384.1,364.5,366.4,321.2,355.8,306.3z"/>
</g>
</svg>
