<?xml version="1.0" encoding="utf-8"?>
<!-- Generator: Adobe Illustrator 26.0.1, SVG Export Plug-In . SVG Version: 6.00 Build 0)  -->
<svg version="1.1" id="Layer_1" xmlns="http://www.w3.org/2000/svg" xmlns:xlink="http://www.w3.org/1999/xlink" x="0px" y="0px"
	 viewBox="0 0 1000 1000" style="enable-background:new 0 0 1000 1000;" xml:space="preserve">
<style type="text/css">
	.st0{fill:#6C1E4D;}
	.st1{fill:#DB7F99;}
</style>
<g id="blacks">
	<path d="M607.4,386.9c-2.9-35.9,5.2-75.1,17.6-80c12.4-4.9,23.2-6.4,35.9,6c32.1,31.3,26.4,137.3,12.5,148.9
		C659.4,473.4,610.3,422.8,607.4,386.9z"/>
	<path d="M392.6,390.5c2.9-35.9-5.2-75.1-17.6-80c-12.4-4.9-23.2-6.4-35.9,6c-32.1,31.3-26.4,137.3-12.5,148.9
		C340.6,477,389.7,426.4,392.6,390.5z"/>
</g>
<g id="earskin">
	<path d="M644.5,312.1c-9.5-4.3-12.7,21.8-7.1,58.4c5.6,36.5,17.9,69.6,27.4,73.9c9.5,4.3,17.6-25.9,12-62.4
		C671.3,345.4,654.1,316.4,644.5,312.1z"/>
	<path d="M355.5,315.7c9.5-4.3,12.7,21.8,7.1,58.4c-5.6,36.5-17.9,69.6-27.4,73.9c-9.5,4.3-17.6-25.9-12-62.4
		C328.7,349,345.9,320,355.5,315.7z"/>
</g>
</svg>
