<?xml version="1.0" encoding="utf-8"?>
<!-- Generator: Adobe Illustrator 26.0.1, SVG Export Plug-In . SVG Version: 6.00 Build 0)  -->
<svg version="1.1" id="Layer_1" xmlns="http://www.w3.org/2000/svg" xmlns:xlink="http://www.w3.org/1999/xlink" x="0px" y="0px"
	 viewBox="0 0 1000 1000" style="enable-background:new 0 0 1000 1000;" xml:space="preserve">
<style type="text/css">
	.st0{fill:#A7A9AC;}
	.st1{fill:#28003B;}
</style>
<g id="eye-D">
	<path 
d="M569.3,374.3c0,0,34.3-16.3,40.2-28.6c5.3-11,18.1-4.4,18.1-4.4s33.1,35.9,16.4,63.4
		c-22.3,36.9-98.1,19.6-93.2-1.8C555.2,383.9,569.3,374.3,569.3,374.3z"/>
	<path 
d="M430.7,374.3c0,0-34.3-16.3-40.2-28.6c-5.3-11-18.1-4.4-18.1-4.4s-33.1,35.9-16.4,63.4
		c22.3,36.9,98.1,19.6,93.2-1.8C444.8,383.9,430.7,374.3,430.7,374.3z"/>
</g>
<g id="blacks">
	<path 
d="M559.8,365.6c0,0,35.4-16.5,42.2-29c6.1-11.1,18.4-4.4,18.4-4.4s30.4,36.3,11.8,64.2
		c-25,37.4-99.5,19.9-93-1.8C545,375.3,559.8,365.6,559.8,365.6z"/>
	<path 
d="M440.2,365.6c0,0-35.4-16.5-42.2-29c-6.1-11.1-18.4-4.4-18.4-4.4s-30.4,36.3-11.8,64.2
		c25,37.4,99.5,19.9,93-1.8C455,375.3,440.2,365.6,440.2,365.6z"/>
</g>
</svg>
