<?xml version="1.0" encoding="utf-8"?>
<!-- Generator: Adobe Illustrator 24.0.1, SVG Export Plug-In . SVG Version: 6.00 Build 0)  -->
<svg version="1.1" id="Layer_1" xmlns="http://www.w3.org/2000/svg" xmlns:xlink="http://www.w3.org/1999/xlink" x="0px" y="0px"
	 viewBox="0 0 800 800" style="enable-background:new 0 0 800 800;" xml:space="preserve">
<path d="M489.1,301.2c-2.2-11-11.8-18.9-22.9-18.9c-1.6,0-3.1,0.2-4.7,0.5l-1.8,0.4l-1.5,0.7c-2.8,1.2-7.5,2.5-9.4,2.5
	c-0.4,0-0.7,0-1,0c-2.1-0.1-4.2-0.6-6-1.6c-3.3-1.8-7.1-2.7-10.9-2.7c-7.3,0-14.1,3.3-18.5,9.1c-7.6,9.9-6.1,24,3.2,32.1l0.4,0.3
	l0,0l0,0c0.4,0.4,0.7,0.7,1.1,1l0,0h0.1c0.6,0.5,1.3,1.1,2,1.6c0.8,0.6,1.5,1.1,2.5,1.7l0,0l0,0l0.2,0.1c0.4,0.3,1.1,0.7,1.9,1.2
	h0.1h0.1l0.3,0.2c0.9,0.5,2.2,1.2,3.8,1.9l1.3,0.5h0.1h0.1c0.9,0.4,1.7,0.6,2.2,0.8l0.2,0.1h0.1h0.1c5,1.7,10.4,2.5,15.9,2.5
	c0.5,0,0.9,0,1.4,0h0.3h0.3c1-0.1,2-0.1,3.2-0.3c1.9-0.1,3.5-0.5,4.6-0.7h0.2h0.1h0.1c0.2,0,0.3-0.1,0.5-0.1
	c0.9-0.2,2.2-0.4,3.7-0.9c1-0.3,2-0.6,2.9-0.9h0.1l0.2-0.1l0.2-0.1h0.1c0.5-0.2,1.3-0.4,2.3-0.9h0.1h0.1l1.2-0.5l0,0l0,0
	c1-0.5,2-0.9,3-1.4l0.4-0.2l0.4-0.2c2-1.1,4-2.4,6.1-3.8C487.1,319.7,490.9,310.3,489.1,301.2z M447.2,304.2c0.4,0,0.8,0,1.2,0
	c0.1,0,0.2,0,0.4,0c2.1,0,4.4-0.3,6.6-0.8l1,4.5c-3.6,1-7,1.5-10.1,1.6L447.2,304.2z M430.2,312c-0.1,0-0.1-0.1-0.2-0.1
	c-0.4-0.3-0.8-0.6-1.2-0.9c-0.2-0.2-0.4-0.3-0.6-0.5l-0.7-0.7c-1.8-1.4-2.4-3.8-1.8-5.9c1.2,1.5,3.1,3.5,5.9,5.2L430.2,312z
	 M427.5,301.2c1-0.8,2.2-1.2,3.4-1.2c1.2,0,2.3,0.4,3.3,1.2c0,0,0.2,0.3,0.9,0.7l-2.2,4.6C430,304.5,428.3,302.4,427.5,301.2z
	 M442,316.8c-1.5-0.3-2.9-0.6-4.3-1.1c-0.5-0.2-0.9-0.3-1.3-0.5l-1.3-0.6c-0.8-0.3-1.6-0.7-2.3-1.2l1.5-3.2c0.6,0.3,1.3,0.5,2,0.8
	c2,0.7,4.2,1.1,6.5,1.3L442,316.8z M443.3,309.5c-2.1-0.1-4.1-0.5-6-1.1c-0.6-0.2-1.2-0.4-1.8-0.7l2.3-4.8c1.5,0.4,3.6,0.9,6.3,1.1
	L443.3,309.5z M457.2,316.1c-0.9,0.3-1.8,0.4-2.7,0.6c-0.9,0.2-1.8,0.4-2.7,0.4c-0.9,0.1-1.9,0.2-2.8,0.2c-0.3,0-0.6,0-0.9,0
	c-1,0-2,0-3-0.1l0.8-4.6c3.5,0,7.3-0.6,11.3-1.7l1.1,4.9C457.8,315.9,457.5,316,457.2,316.1z M458.3,302.7c3.8-1.1,6.8-2.3,6.8-2.3
	c0.4-0.1,0.7-0.1,1.1-0.1c1.7,0,3.3,0.8,4.3,2.2c-3.9,1.9-7.6,3.5-11.1,4.6L458.3,302.7z M469.2,310.3c-1.4,1-2.9,2-4.5,2.8
	c-0.8,0.4-1.6,0.8-2.4,1.1l-1.2,0.5l0,0l-1.1-4.8c3.7-1.2,7.5-2.8,11.5-4.8C471.7,307.2,470.8,309.2,469.2,310.3z M476.4,291.6
	c-0.7,0.7-1.8,0.7-2.4,0c0,0-0.7-1-4.4-1.5c-2.3-0.3-5.4,0.6-5.4,0.6c-1,0.1-1.8-0.6-1.9-1.6c-0.1-0.7,0.3-1.4,0.9-1.7
	c0.5-0.3,1-0.5,1.5-0.7c0.3-0.1,0.5-0.2,0.8-0.3l0.4-0.1c0.1,0,0.3-0.1,0.4-0.1c0.3-0.1,0.6-0.1,0.9-0.2s0.6-0.1,0.9-0.1
	s0.6-0.1,0.9,0c0.3,0,0.6,0,0.9,0c1.2,0.1,2.4,0.4,3.5,0.9c0.1,0.1,0.3,0.1,0.4,0.2l0.4,0.2c0.3,0.1,0.5,0.3,0.8,0.5
	c0.1,0.1,0.2,0.2,0.4,0.3c0.1,0.1,0.2,0.2,0.4,0.3c0.1,0.1,0.2,0.2,0.3,0.3c0.1,0.1,0.1,0.1,0.2,0.2l0.2,0.2
	C477.1,289.8,477.1,290.9,476.4,291.6z"/>
</svg>
