<?xml version="1.0" encoding="utf-8"?>
<!-- Generator: Adobe Illustrator 26.0.1, SVG Export Plug-In . SVG Version: 6.00 Build 0)  -->
<svg version="1.1" id="Layer_1" xmlns="http://www.w3.org/2000/svg" xmlns:xlink="http://www.w3.org/1999/xlink" x="0px" y="0px"
	 viewBox="0 0 1000 1000" style="enable-background:new 0 0 1000 1000;" xml:space="preserve">
<g id="blacks">
	<g>
		<g>
			<path d="M503.8,370.5c7.5,1.4,13.5-1.3,17.7-4.5c6.1-4.7,7.5-13.5,2.7-19.5c-0.3-0.3-0.6-0.7-0.8-0.9c-7.2-6.9-13.9-4.3-13.9-4.3
				s4.9,0.3,6.5,5.4c1.4,4.3-2.9,7.1-2.7,6.9c0,0,0.7-7.5-7.4-12.2c-8.9-5.3-17.5-0.3-17.5-0.3s6.8,0.8,7.2,6.8
				c0.5,6-5.9,9.5-8.4,6.7c-3.4-3.9,0.7-7.7,0.7-7.7s-7.5,1-10.6,7.4c-0.1,0.1-0.1,0.2-0.2,0.4c-4.2,7.2,0.1,11.2,8.4,12
				C487.9,366.9,494.9,368.9,503.8,370.5z"/>
		</g>
	</g>
</g>
</svg>
