<?xml version="1.0" encoding="utf-8"?>
<!-- Generator: Adobe Illustrator 26.0.1, SVG Export Plug-In . SVG Version: 6.00 Build 0)  -->
<svg version="1.1" id="Layer_1" xmlns="http://www.w3.org/2000/svg" xmlns:xlink="http://www.w3.org/1999/xlink" x="0px" y="0px"
	 viewBox="0 0 1000 1000" style="enable-background:new 0 0 1000 1000;" xml:space="preserve">
<path id="blacks" d="M558.8,331.5c-2-4.5-5-7.9-8-10.5c-0.8-0.6-1.5-1.2-2.3-1.7c-0.7-0.5-1.5-1.1-2.3-1.4c-0.8-0.4-1.5-0.8-2.2-1.1
	c-0.4-0.2-0.7-0.3-1.1-0.5c-0.4-0.1-0.7-0.3-1.1-0.4c-1.4-0.5-2.7-0.9-3.9-1.2c-1.2-0.3-2.4-0.4-3.4-0.5c-1-0.2-1.9-0.1-2.7-0.1
	s-1.5,0-2,0.1c-0.5,0-1,0.1-1.2,0.1c-0.3,0-0.4,0-0.4,0s0.1,0.1,0.3,0.3c0.2,0.2,0.4,0.6,0.8,1c0.3,0.4,0.8,0.9,1.2,1.5
	c0.5,0.6,1,1.2,1.6,2c0.6,0.7,1.2,1.6,1.8,2.4c0.3,0.4,0.6,0.9,0.9,1.4c0.3,0.5,0.6,0.9,0.9,1.4c0.2,0.2,0.3,0.5,0.5,0.7
	c0.1,0.3,0.3,0.5,0.4,0.8c0.3,0.5,0.6,1.1,0.9,1.6c0.3,0.5,0.5,1.1,0.8,1.6c0.2,0.6,0.5,1.1,0.7,1.7c0.8,2.3,1.4,4.6,1.5,6.9
	s-0.1,4.5-0.7,6.8c-0.6,2.2-1.5,4.5-2.7,6.7s-3.1,4.3-5.1,6.2c-0.3,0.2-0.5,0.5-0.8,0.7l-0.9,0.7c-0.6,0.4-1.1,0.9-1.8,1.3
	c-0.6,0.4-1.2,0.8-1.9,1.2c-0.7,0.3-1.3,0.7-2,1.1l-0.5,0.3l-0.5,0.2l-1.1,0.5c-0.7,0.3-1.4,0.7-2.2,0.9c-0.7,0.3-1.5,0.5-2.2,0.8
	c-0.8,0.2-1.5,0.4-2.3,0.6c-3.1,0.9-6.3,1.3-9.4,1.7c-0.8,0.1-1.6,0.1-2.3,0.2c-0.3,0-0.7,0-1,0.1c1.3-0.3,2.6-0.7,3.9-1.2
	c0.7-0.3,1.5-0.5,2.2-0.8s1.5-0.7,2.2-1c0.8-0.3,1.5-0.8,2.2-1.2c0.7-0.4,1.5-0.8,2.2-1.3c2.9-1.8,5.5-4.2,7.7-6.9
	c2.2-2.7,3.9-5.7,4.9-8.9c0.9-3.2,1-6.4,0.2-9.3s-2.5-5.5-4.6-7.4s-4.7-3-7.1-3.7c-0.6-0.1-1.2-0.3-1.8-0.4s-1.2-0.2-1.7-0.2
	c-0.6,0-1.1-0.1-1.7-0.1c-0.3,0-0.5,0-0.8,0s-0.5,0-0.8,0c-1,0.1-1.9,0.1-2.8,0.3c-0.8,0.1-1.6,0.3-2.3,0.5
	c-0.7,0.1-1.3,0.4-1.8,0.5c-0.5,0.2-0.9,0.3-1.3,0.5c-0.3,0.1-0.6,0.3-0.8,0.3c-0.2,0.1-0.3,0.1-0.3,0.1s0.1,0,0.2,0.1
	c0.2,0.1,0.4,0.2,0.7,0.3c0.3,0.2,0.7,0.3,1.1,0.5c0.4,0.2,0.9,0.4,1.4,0.7c0.5,0.3,1,0.6,1.6,0.8c0.3,0.1,0.6,0.3,0.8,0.5
	c0.3,0.2,0.6,0.3,0.9,0.5c0.1,0.1,0.3,0.2,0.4,0.3c0.1,0.1,0.3,0.2,0.4,0.3c0.3,0.2,0.6,0.4,0.8,0.6c0.3,0.2,0.5,0.5,0.8,0.7
	s0.5,0.5,0.8,0.7c0.9,1.1,1.7,2.1,2.2,3.3c0.5,1.2,0.8,2.4,0.8,3.7c0,1.3-0.1,2.7-0.6,4.1c-0.4,1.5-1.2,3-2.2,4.4
	c-0.1,0.2-0.2,0.4-0.4,0.6l-0.4,0.5c-0.3,0.4-0.6,0.7-0.9,1.1c-0.3,0.3-0.7,0.7-1,1.1c-0.4,0.3-0.7,0.7-1.1,1l-0.3,0.3l-0.3,0.2
	l-0.6,0.5c-0.4,0.3-0.8,0.7-1.3,0.9c-0.4,0.3-0.9,0.6-1.3,0.9c-0.4,0.3-0.9,0.6-1.4,0.8c-1.8,1.1-3.8,2.1-5.8,3
	c-0.5,0.2-1,0.4-1.5,0.6s-1,0.4-1.5,0.6s-1,0.4-1.5,0.5c-0.5,0.2-1,0.3-1.4,0.5c-0.9,0.4-1.9,0.6-2.8,0.9c-0.9,0.2-1.8,0.6-2.6,0.8
	c-0.8,0.2-1.6,0.4-2.3,0.6c-0.7,0.2-1.4,0.4-2,0.5c-2.5,0.6-4,1.1-4,1.1s0.2,0.1,0.5,0.2c-0.6,0-0.9,0-0.9,0s1.5,1.6,4.3,4.1
	c0.7,0.6,1.5,1.3,2.5,2c0.9,0.7,2,1.4,3.1,2.2c0.6,0.4,1.2,0.8,1.8,1.1c0.6,0.4,1.3,0.7,1.9,1.1c1.3,0.7,2.7,1.6,4.3,2.2
	c1.6,0.7,3.2,1.4,4.9,2c1.8,0.5,3.6,1.2,5.5,1.6c3.9,0.9,8.2,1.5,12.8,1.5c1.1,0,2.3,0,3.5-0.1s2.4-0.3,3.5-0.4
	c1.2-0.1,2.4-0.4,3.6-0.7c1.2-0.3,2.4-0.5,3.6-0.9c4.8-1.4,9.6-3.9,13.9-7.1c4.3-3.2,8.1-7.4,10.9-12.2c2.8-4.8,4.4-10.3,4.7-15.7
	C561.9,341.2,560.9,335.9,558.8,331.5z"/>
</svg>
