<?xml version="1.0" encoding="utf-8"?>
<!-- Generator: Adobe Illustrator 26.0.1, SVG Export Plug-In . SVG Version: 6.00 Build 0)  -->
<svg version="1.1" id="Layer_1" xmlns="http://www.w3.org/2000/svg" xmlns:xlink="http://www.w3.org/1999/xlink" x="0px" y="0px"
	 viewBox="0 0 1000 1000" style="enable-background:new 0 0 1000 1000;" xml:space="preserve">
<g id="hair">
	<g>
		<g>
			<g>
				<g>
					<g>
						<g>
							<g>
								<g>
									<g>
										<g>
											<path d="M547.2,350.7c-2.7,2.4-5.1,6-7.2,10.4c-2.3-5.8-5.2-10.4-8.5-13.4c-2.7,2.4-5.1,6-7.2,10.4
												c-2.3-5.8-5.2-10.4-8.5-13.4c-2.7,2.4-5.1,6-7.2,10.4c-2.3-5.8-5.2-10.4-8.5-13.4c-3.3,3-6.1,7.6-8.5,13.4
												c-2.1-4.4-4.5-8-7.2-10.4c-3.3,3-6.2,7.6-8.5,13.4c-2.1-4.4-4.5-8-7.2-10.4c-3.3,3-6.2,7.6-8.5,13.4
												c-2.1-4.4-4.5-8-7.2-10.4c-8.5,7.7-19.7,16.6-14.5,24.6s20.5,16.4,61.7,16.4s56.5-8.4,61.7-16.4S555.7,358.4,547.2,350.7
												z"/>
										</g>
									</g>
								</g>
							</g>
						</g>
					</g>
				</g>
			</g>
		</g>
	</g>
</g>
</svg>
