<?xml version="1.0" encoding="utf-8"?>
<!-- Generator: Adobe Illustrator 19.2.0, SVG Export Plug-In . SVG Version: 6.00 Build 0)  -->
<svg version="1.0" id="bear" xmlns="http://www.w3.org/2000/svg" xmlns:xlink="http://www.w3.org/1999/xlink" x="0px" y="0px"
	 viewBox="0 0 1000 1000" enable-background="new 0 0 1000 1000" xml:space="preserve">

<path id="skin-D" fill="#EF533F" d="M552.4,344.16c-2.94,0-5.69,18.89-8.05,19.84c-3.64-2.8-9.01-22.91-15.03-22.91
	c-4.41,0-8.5,19.29-11.84,20.9c-4.09-2.74-10.17-22.76-16.45-22.76s-12.36,20.02-16.45,22.76c-3.33-1.62-7.43-20.9-11.84-20.9
	c-6.02,0-11.39,20.1-15.03,22.91c-2.36-0.95-5.11-19.84-8.05-19.84c-8.55,0-15.43,22.97-15.35,28.69
	c0.08,5.72,7.07,10.36,15.63,10.36c2.94,0,5.68-0.56,8.01-1.51c3.72,2.8,9.13,4.58,15.15,4.58c4.41,0,8.48-0.96,11.77-2.57
	c4.17,2.74,9.88,4.43,16.16,4.43s11.99-1.69,16.16-4.43c3.29,1.62,7.36,2.57,11.77,2.57c6.02,0,11.43-1.77,15.15-4.58
	c2.33,0.95,5.07,1.51,8.01,1.51c8.55,0,15.55-4.64,15.63-10.36S560.95,344.16,552.4,344.16z"/>
</svg>
