<?xml version="1.0" encoding="utf-8"?>
<!-- Generator: Adobe Illustrator 26.0.1, SVG Export Plug-In . SVG Version: 6.00 Build 0)  -->
<svg version="1.1" id="hair_00000019646598929401526340000002432673091567333030_"
	 xmlns="http://www.w3.org/2000/svg" xmlns:xlink="http://www.w3.org/1999/xlink" x="0px" y="0px" viewBox="0 0 1000 1000"
	 style="enable-background:new 0 0 1000 1000;" xml:space="preserve">
<g id="hair">
	<path d="M522.9,333.8c15.1-13.9,28.5-14.9,28.5-14.9s-22.5-13.7-42.9,4.8c-18,16.3-6.2,49.8-6.2,49.8S508.1,347.5,522.9,333.8z"/>
	<path d="M486.5,310.1c0,0-15,18.2-9.1,38.3c5,17,24.9,25.1,24.9,25.1C484.1,334.8,486.5,310.1,486.5,310.1z"/>
	<path d="M517,365.7c-6.8-0.5-14.6,7.7-14.6,7.7c17.3-2.1,24.7,3.3,24.7,3.3S525,366.3,517,365.7z"/>
</g>
</svg>
