<?xml version="1.0" encoding="utf-8"?>
<!-- Generator: Adobe Illustrator 24.0.1, SVG Export Plug-In . SVG Version: 6.00 Build 0)  -->
<svg version="1.1" id="hair" xmlns="http://www.w3.org/2000/svg" xmlns:xlink="http://www.w3.org/1999/xlink" x="0px" y="0px"
	 viewBox="0 0 1000 1000" style="enable-background:new 0 0 1000 1000;" xml:space="preserve">

<path id="hair" d="M522,419.5c-1.5-5-3.3-9.5-4.8-13.8l-0.5-1.7l-0.4-1.6c-0.3-1.1-0.6-2.2-0.9-3.2
	c-0.5-2.2-1-4.3-1.3-6.3c-0.7-4.1-0.7-8.2-0.9-12.3s-0.1-14.1-4-17.6c-3.9-3.5-7.2-3.2-8.9-2.7c-1.6,0.4-3.1,1.2-4.6,2
	c-2.9,1.7-5.5,3.8-7.5,6.4s-3.8,5.5-5,8.5c-1.2,3.1-2,6.3-2.5,9.5c-1,6.5-0.5,13,1.1,19s4.1,11.7,8.1,16.5c0.1,0.1,0.2,0.2,0.4,0.2
	c0.3,0,0.6-0.2,0.6-0.5c0.7-6.1,0.8-11.8,1.4-17.1c0-0.1,0-0.3,0-0.5c0.9,3.1,2.1,5.9,3.4,8.6c2.8,5.5,6.6,10.5,11.4,14.3
	c0.1,0.1,0.3,0.1,0.4,0.1c0.3,0,0.6-0.3,0.5-0.6c-0.7-6.1-1.7-11.7-2.3-17c-0.3-2.3-0.5-4.4-0.6-6.5c1.3,2.3,2.7,4.6,4.2,6.6
	c3.3,4.2,7.2,7.7,11.9,10.1c0.1,0.1,0.2,0.1,0.4,0.1C522,420,522.1,419.7,522,419.5z"/>
</svg>
