<?xml version="1.0" encoding="utf-8"?>
<!-- Generator: Adobe Illustrator 24.0.1, SVG Export Plug-In . SVG Version: 6.00 Build 0)  -->
<svg version="1.1" id="Layer_1" xmlns="http://www.w3.org/2000/svg" xmlns:xlink="http://www.w3.org/1999/xlink" x="0px" y="0px"
	 viewBox="0 0 1000 1000" style="enable-background:new 0 0 1000 1000;" xml:space="preserve">
<path id="hair" d="M538.6,410.5c-1.3-1-3.3-2.3-5.8-3.6c-10.5-5.7-20.1-12.7-28.7-21c-1.5-1.4-3.1-2.3-4.7-2.3s-3.2,0.8-4.7,2.3
	c-8.6,8.3-18.2,15.3-28.7,21c-2.5,1.3-4.5,2.6-5.8,3.6c-6.3,5-7.4,14.2-2.3,20.6s14.2,7.4,20.6,2.3c0.7-0.6,1.6-1.4,2.5-2.3
	c1.6,8.7,9.2,15.4,18.4,15.4c9.2,0,16.8-6.6,18.4-15.4c0.9,1,1.8,1.8,2.5,2.3c6.3,5,15.5,4,20.6-2.3
	C546,424.8,544.9,415.6,538.6,410.5z"/>
</svg>
