<?xml version="1.0" encoding="utf-8"?>
<!-- Generator: Adobe Illustrator 19.2.0, SVG Export Plug-In . SVG Version: 6.00 Build 0)  -->
<svg version="1.0" id="Layer_2" xmlns="http://www.w3.org/2000/svg" xmlns:xlink="http://www.w3.org/1999/xlink" x="0px" y="0px"
	 viewBox="0 0 1000 1000" enable-background="new 0 0 1000 1000" xml:space="preserve">
<g id="skin-L">
	<path id="R" fill="#5C6481" d="M650.31,699.82l-15.73,10.3c0,0,15.73-18.6,11.74-43.52l-13.68,11.49
		c-0.01-0.06-0.02-0.12-0.03-0.19c1.24-2.42,7.69-16.02,4.08-29.57l-8.87,10.06c-7.96-24.57-22.36-45.1-38.22-43.57
		c-28.23,2.72-18.98,45.39-30.51,79.33c-7.01,20.64-29.11,44.92-40.43,65.27c-8.47,11.87-12.4,23.33-8.81,26.56
		c0.85,0.76,2.04,1,3.5,0.79c-0.59,3.07-0.29,5.4,1.04,6.6c1.26,1.13,3.29,1.12,5.8,0.15c-0.22,0.97-0.19,1.85,0.14,2.59
		c2.14,4.84,15.73,2.51,30.36-5.21c1.53-0.8,3-1.64,4.42-2.49c16.76-7.89,35.45-21.25,50.34-35.57c4.36-0.87,29.75-6.51,36.22-20.47
		l-16.95,1.43C624.72,733.81,650.31,720.96,650.31,699.82z"/>
	<path id="L" fill="#5C6481" d="M440.91,694.15c-11.53-33.94-2.28-76.6-30.51-79.33c-15.86-1.53-30.26,19-38.22,43.57l-8.87-10.06
		c-3.61,13.55,2.84,27.15,4.08,29.57c-0.01,0.06-0.02,0.12-0.03,0.19l-13.68-11.49c-3.99,24.91,11.74,43.52,11.74,43.52l-15.73-10.3
		c0,21.14,25.59,33.99,25.59,33.99l-16.95-1.43c6.47,13.96,31.86,19.6,36.22,20.47c14.89,14.32,33.59,27.68,50.34,35.57
		c1.42,0.85,2.89,1.68,4.42,2.49c14.63,7.72,28.22,10.05,30.36,5.21c0.33-0.75,0.37-1.62,0.14-2.59c2.51,0.97,4.54,0.99,5.8-0.15
		c1.33-1.2,1.62-3.54,1.04-6.6c1.46,0.22,2.65-0.02,3.5-0.79c3.59-3.24-0.34-14.7-8.81-26.56
		C470.02,739.07,447.93,714.79,440.91,694.15z"/>
</g>
<g id="nails">
	<path id="_x36_" fill="#13FF00" d="M517.47,788.35c-1.11-0.36-3.22,0.97-3.95,3.22c-0.73,2.25,0.2,4.57,1.31,4.93
		s1.97-1.38,2.7-3.63C518.25,790.62,518.58,788.71,517.47,788.35z"/>
	<path id="_x35_" fill="#13FF00" d="M524.83,792.97c-0.8-0.68-3.02-0.31-4.41,1.31c-1.39,1.62-1.42,3.88-0.62,4.56
		s2.12-0.46,3.51-2.08C524.69,795.14,525.62,793.65,524.83,792.97z"/>
	<path id="_x34_" fill="#13FF00" d="M512.38,781.49c-1.04-0.17-2.75,1.3-3.1,3.41s0.79,4.05,1.83,4.22s1.57-1.49,1.92-3.6
		C513.38,783.41,513.41,781.66,512.38,781.49z"/>
	<path id="_x33_" fill="#13FF00" d="M482.53,788.35c-1.11,0.36-0.79,2.27-0.06,4.52s1.59,3.99,2.7,3.63
		c1.11-0.36,2.04-2.68,1.31-4.93C485.76,789.32,483.64,787.99,482.53,788.35z"/>
	<path id="_x32_" fill="#13FF00" d="M475.17,792.97c-0.8,0.68,0.13,2.17,1.52,3.79c1.39,1.62,2.71,2.77,3.51,2.08
		c0.8-0.68,0.77-2.94-0.62-4.56C478.2,792.66,475.97,792.29,475.17,792.97z"/>
	<path id="_x31_" fill="#13FF00" d="M487.62,781.49c-1.04,0.17-1.01,1.92-0.66,4.03c0.35,2.11,0.89,3.77,1.92,3.6
		c1.04-0.17,2.18-2.12,1.83-4.22C490.37,782.79,488.66,781.32,487.62,781.49z"/>
</g>
<g id="_x3C_Clip_Group_x3E__1_">
	<g>
		<defs>
			<path id="SVGID_1_" d="M650.31,699.82l-15.73,10.3c0,0,15.73-18.6,11.74-43.52l-13.68,11.49c-0.01-0.06-0.02-0.12-0.03-0.19
				c1.24-2.42,7.69-16.02,4.08-29.57l-8.87,10.06c-7.96-24.57-22.36-45.1-38.22-43.57c-28.23,2.72-18.98,45.39-30.51,79.33
				c-7.01,20.64-29.11,44.92-40.43,65.27c-8.47,11.87-12.4,23.33-8.81,26.56c0.85,0.76,2.04,1,3.5,0.79
				c-0.59,3.07-0.29,5.4,1.04,6.6c1.26,1.13,3.29,1.12,5.8,0.15c-0.22,0.97-0.19,1.85,0.14,2.59c2.14,4.84,15.73,2.51,30.36-5.21
				c1.53-0.8,3-1.64,4.42-2.49c16.76-7.89,35.45-21.25,50.34-35.57c4.36-0.87,29.75-6.51,36.22-20.47l-16.95,1.43
				C624.72,733.81,650.31,720.96,650.31,699.82z"/>
		</defs>
		<clipPath id="SVGID_2_">
			<use xlink:href="#SVGID_1_"  overflow="visible"/>
		</clipPath>
		
			<circle id="frontpaws-mask-r" clip-path="url(#SVGID_2_)" fill="#FFFFFF" stroke="#000000" stroke-miterlimit="10" cx="995" cy="5" r="5"/>
	</g>
</g>
<g id="_x3C_Clip_Group_x3E_">
	<g>
		<defs>
			<path id="SVGID_3_" d="M440.91,694.15c-11.53-33.94-2.28-76.6-30.51-79.33c-15.86-1.53-30.26,19-38.22,43.57l-8.87-10.06
				c-3.61,13.55,2.84,27.15,4.08,29.57c-0.01,0.06-0.02,0.12-0.03,0.19l-13.68-11.49c-3.99,24.91,11.74,43.52,11.74,43.52
				l-15.73-10.3c0,21.14,25.59,33.99,25.59,33.99l-16.95-1.43c6.47,13.96,31.86,19.6,36.22,20.47
				c14.89,14.32,33.59,27.68,50.34,35.57c1.42,0.85,2.89,1.68,4.42,2.49c14.63,7.72,28.22,10.05,30.36,5.21
				c0.33-0.75,0.37-1.62,0.14-2.59c2.51,0.97,4.54,0.99,5.8-0.15c1.33-1.2,1.62-3.54,1.04-6.6c1.46,0.22,2.65-0.02,3.5-0.79
				c3.59-3.24-0.34-14.7-8.81-26.56C470.02,739.07,447.93,714.79,440.91,694.15z"/>
		</defs>
		<clipPath id="SVGID_4_">
			<use xlink:href="#SVGID_3_"  overflow="visible"/>
		</clipPath>
		
			<circle id="frontpaws-mask-l" clip-path="url(#SVGID_4_)" fill="#FFFFFF" stroke="#000000" stroke-miterlimit="10" cx="4.88" cy="5" r="5"/>
	</g>
</g>
</svg>
