<?xml version="1.0" encoding="utf-8"?>
<!-- Generator: Adobe Illustrator 26.0.1, SVG Export Plug-In . SVG Version: 6.00 Build 0)  -->
<svg version="1.1" id="donkey" xmlns="http://www.w3.org/2000/svg" xmlns:xlink="http://www.w3.org/1999/xlink" x="0px" y="0px"
	 viewBox="0 0 1000 1000" style="enable-background:new 0 0 1000 1000;" xml:space="preserve">
<g id="skin">
	<path d="M589.6,615.7c-28.2,2.7-19,45.4-30.5,79.3c-9.6,28.3-47.7,63.6-47.2,86c0.4,0.7,0.9,1.4,1.4,2.1c2.5-1.5,9.1-5.1,15.7-7.4
		c-3.7,7.8-6.3,14.6-7.5,17.6c0.8,0.9,1.6,1.8,2.5,2.7c28.8,6.5,100.1-48.1,108.4-80.5C641.4,680.2,617.8,613,589.6,615.7z"/>
	<path d="M410.4,615.7c-28.2-2.7-51.8,64.5-42.8,99.9c8.3,32.4,79.7,87,108.4,80.5c0.8-0.9,1.7-1.8,2.5-2.7c-1.1-3-3.8-9.8-7.5-17.6
		c6.6,2.2,13.2,5.9,15.7,7.4c0.5-0.7,0.9-1.4,1.4-2.1c0.5-22.5-37.6-57.7-47.2-86C429.4,661.1,438.6,618.4,410.4,615.7z"/>
</g>
<g id="bone">
	<path d="M448.1,750.2c-9.9,7.1-13,21-9.5,35.9c15.6,9.5,33.9,13,43,9c0,0-0.9-7.3-5.4-14.9c8.1,9.6,11.5,9,11.5,9
		c1.8-9.9-0.1-25.1-14.4-41.9C464,744.6,455,745.3,448.1,750.2z"/>
	<path d="M551.9,750.2c-6.9-4.9-15.9-5.6-25.1-2.9c-14.3,16.8-16.2,32-14.4,41.9c0,0,3.3,0.6,11.5-9c-4.5,7.6-5.4,14.9-5.4,14.9
		c9.1,4,27.4,0.5,43-9C564.9,771.2,561.8,757.3,551.9,750.2z"/>
</g>
</svg>
