<?xml version="1.0" encoding="utf-8"?>
<!-- Generator: Adobe Illustrator 19.2.0, SVG Export Plug-In . SVG Version: 6.00 Build 0)  -->
<svg version="1.0" id="Layer_2" xmlns="http://www.w3.org/2000/svg" xmlns:xlink="http://www.w3.org/1999/xlink" x="0px" y="0px"
	 viewBox="0 0 1000 1000" enable-background="new 0 0 1000 1000" xml:space="preserve">
<g id="skin-L">
	<path fill="#FFB339" d="M589.6,616.4c-28.23,2.72-18.98,45.39-30.51,79.33c-6.5,19.13-25.97,41.39-37.79,60.76
		c-0.72,0.57-1.42,1.15-2.1,1.76c-13.51,12.09-14.89,28.26-3.08,36.11s32.34,4.4,45.85-7.69c0.12-0.11,0.24-0.22,0.36-0.33
		c30.45-16.56,64.44-48.3,70.02-70.07C641.43,680.85,617.82,613.68,589.6,616.4z"/>
	<path fill="#FFB339" d="M410.4,616.4c28.23,2.72,18.98,45.39,30.51,79.33c6.5,19.13,25.97,41.39,37.79,60.76
		c0.72,0.57,1.42,1.15,2.1,1.76c13.51,12.09,14.89,28.26,3.08,36.11c-11.81,7.85-32.34,4.4-45.85-7.69
		c-0.12-0.11-0.24-0.22-0.36-0.33c-30.45-16.56-64.44-48.3-70.02-70.07C358.57,680.85,382.17,613.68,410.4,616.4z"/>
</g>
<g id="r_x3C_Clip_Group_x3E_">
	<defs>
		<path id="r_x3C_Clipping_Path_x3E_" d="M589.6,616.4c-28.23,2.72-18.98,45.39-30.51,79.33c-6.5,19.13-25.97,41.39-37.79,60.76
			c-0.72,0.57-1.42,1.15-2.1,1.76c-13.51,12.09-14.89,28.26-3.08,36.11s32.34,4.4,45.85-7.69c0.12-0.11,0.24-0.22,0.36-0.33
			c30.45-16.56,64.44-48.3,70.02-70.07C641.43,680.85,617.82,613.68,589.6,616.4z"/>
	</defs>
	<clipPath id="r_x3C_Clipping_Path_x3E__1_">
		<use xlink:href="#r_x3C_Clipping_Path_x3E_"  overflow="visible"/>
	</clipPath>
	<circle id="frontpaws-mask-r" clip-path="url(#r_x3C_Clipping_Path_x3E__1_)" fill="#5D5D5D" cx="995" cy="5" r="5"/>
</g>
<g id="l_x3C_Clip_Group_x3E_">
	<defs>
		<path id="l_x3C_Clipping_Path_x3E_" d="M410.4,616.4c28.23,2.72,18.98,45.39,30.51,79.33c6.5,19.13,25.97,41.39,37.79,60.76
			c0.72,0.57,1.42,1.15,2.1,1.76c13.51,12.09,14.89,28.26,3.08,36.11c-11.81,7.85-32.34,4.4-45.85-7.69
			c-0.12-0.11-0.24-0.22-0.36-0.33c-30.45-16.56-64.44-48.3-70.02-70.07C358.57,680.85,382.17,613.68,410.4,616.4z"/>
	</defs>
	<clipPath id="l_x3C_Clipping_Path_x3E__1_">
		<use xlink:href="#l_x3C_Clipping_Path_x3E_"  overflow="visible"/>
	</clipPath>
	<circle id="frontpaws-mask-l" clip-path="url(#l_x3C_Clipping_Path_x3E__1_)" fill="#5D5D5D" cx="5" cy="5" r="5"/>
</g>
</svg>
