<?xml version="1.0" encoding="utf-8"?>
<!-- Generator: Adobe Illustrator 26.0.1, SVG Export Plug-In . SVG Version: 6.00 Build 0)  -->
<svg version="1.1" id="lizard" xmlns="http://www.w3.org/2000/svg" xmlns:xlink="http://www.w3.org/1999/xlink" x="0px" y="0px"
	 viewBox="0 0 1000 1000" style="enable-background:new 0 0 1000 1000;" xml:space="preserve">
<g id="skin">
	<path d="M470.9,745.6c-0.7-0.6-1.4-1.2-2.1-1.8C457,724.4,444.5,713.2,438,694c-11.5-33.9,0.6-77-27.6-79.8
		c-28.2-2.7-51.8,64.5-42.8,99.9c5.6,21.8,34,47.4,51.3,54.2s26.6,5.5,40,17.6c0,0,2.7-7.5-0.7-15.9c7.6,3.3,14.4,11.7,14.4,11.7
		s2.7-10.4-3.2-19c5.5,2.2,12.3,7,12.3,7C482.9,762.1,479.2,753.1,470.9,745.6z"/>
	<path d="M589.6,614.3c-28.2,2.7-16,45.8-27.6,79.8c-6.5,19.1-19,30.4-30.8,49.8c-0.7,0.6-1.4,1.1-2.1,1.8
		c-8.4,7.5-12.1,16.5-10.9,24.2c0,0,6.8-4.8,12.3-7c-5.8,8.6-3.2,19-3.2,19s6.8-8.4,14.4-11.7c-3.4,8.5-0.7,15.9-0.7,15.9
		c13.4-12,22.7-10.8,40-17.6s45.7-32.4,51.3-54.2C641.4,678.8,617.8,611.6,589.6,614.3z"/>
</g>
<g id="skin-L">
	<path d="M593.5,704c-3.2-1.9-8.1,0.6-11,5.5s-2.6,10.4,0.6,12.2c3.2,1.9,8.1-0.6,11-5.5C597,711.4,596.7,705.9,593.5,704z"/>
	<path d="M603.5,694.1c-2.7,0.1-4.9,3.5-4.8,7.7c0.1,4.2,2.4,7.5,5.2,7.5c2.7-0.1,4.9-3.5,4.8-7.7
		C608.5,697.4,606.2,694,603.5,694.1z"/>
	<path d="M592.1,682.5c-2.7,0.1-4.9,3.5-4.8,7.7c0.1,4.2,2.4,7.5,5.2,7.5c2.7-0.1,4.9-3.5,4.8-7.7
		C597.2,685.8,594.8,682.5,592.1,682.5z"/>
	<path d="M580.1,705.2c1.8,0.7,4.1-1,5.2-3.7c1.1-2.8,0.5-5.6-1.3-6.3s-4.1,1-5.2,3.7C577.8,701.7,578.3,704.5,580.1,705.2z"/>
	<path d="M578.8,722.5c-1.8-0.7-4.1,1-5.2,3.7c-1.1,2.8-0.5,5.6,1.3,6.3s4.1-1,5.2-3.7C581.2,726,580.6,723.2,578.8,722.5z"/>
	<path d="M604.9,690.1c1.9-0.4,2.9-3.1,2.2-6s-2.7-4.9-4.6-4.4c-1.9,0.4-2.9,3.1-2.2,6C600.9,688.6,603,690.5,604.9,690.1z"/>
	<path d="M599.5,673.5c-0.7-2.9-2.7-4.9-4.6-4.4c-1.9,0.4-2.9,3.1-2.2,6s2.7,4.9,4.6,4.4C599.2,679.1,600.2,676.4,599.5,673.5z"/>
	<path d="M417.4,709.5c-2.9-4.9-7.8-7.3-11-5.5c-3.2,1.9-3.5,7.4-0.6,12.2c2.9,4.9,7.8,7.3,11,5.5
		C420,719.8,420.3,714.3,417.4,709.5z"/>
	<path d="M396.5,694.1c-2.7-0.1-5.1,3.3-5.2,7.5s2,7.7,4.8,7.7c2.7,0.1,5.1-3.3,5.2-7.5C401.4,697.7,399.3,694.2,396.5,694.1z"/>
	<path d="M407.5,697.8c2.7,0.1,5.1-3.3,5.2-7.5s-2-7.7-4.8-7.7c-2.7-0.1-5.1,3.3-5.2,7.5C402.6,694.2,404.8,697.7,407.5,697.8z"/>
	<path d="M419.9,705.2c1.8-0.7,2.4-3.5,1.3-6.3s-3.4-4.4-5.2-3.7c-1.8,0.7-2.4,3.5-1.3,6.3C415.7,704.3,418.1,705.9,419.9,705.2z"/>
	<path d="M421.2,722.5c-1.8,0.7-2.4,3.5-1.3,6.3s3.4,4.4,5.2,3.7c1.8-0.7,2.4-3.5,1.3-6.3C425.3,723.5,423,721.8,421.2,722.5z"/>
	<path d="M395.1,690.1c1.9,0.4,4-1.5,4.6-4.4c0.7-2.9-0.3-5.6-2.2-6c-1.9-0.4-4,1.5-4.6,4.4C392.2,686.9,393.2,689.6,395.1,690.1z"
		/>
	<path d="M407.3,675.1c0.7-2.9-0.3-5.6-2.2-6c-1.9-0.4-4,1.5-4.6,4.4c-0.7,2.9,0.3,5.6,2.2,6C404.5,680,406.6,678,407.3,675.1z"/>
</g>
</svg>
