<?xml version="1.0" encoding="utf-8"?>
<!-- Generator: Adobe Illustrator 19.2.0, SVG Export Plug-In . SVG Version: 6.00 Build 0)  -->
<svg version="1.0" id="Layer_2" xmlns="http://www.w3.org/2000/svg" xmlns:xlink="http://www.w3.org/1999/xlink" x="0px" y="0px"
	 viewBox="0 0 1000 1000" enable-background="new 0 0 1000 1000" xml:space="preserve">
<g id="skin-L">
	<path fill="#EF85D8" d="M589.6,616.3c-28.23,2.72-12.55,47.46-24.08,81.4c-5.78,17.02-23.36,35.53-26.86,39.6l-6.69,33.68
		l41.11-5.45c17.31-6.77,49.24-30.78,54.82-52.56C636.97,677.57,617.83,613.58,589.6,616.3z"/>
	<path fill="#EF85D8" d="M434.49,697.7c-11.53-33.94,4.15-78.67-24.08-81.4c-28.23-2.72-47.38,61.26-38.3,96.66
		c5.58,21.78,37.51,45.79,54.82,52.56l41.11,5.45l-6.69-33.68C457.85,733.23,440.27,714.72,434.49,697.7z"/>
</g>
<g id="bone">
	<path fill="#002D7B" d="M547.25,751.25c-3.81-4.16-6.66-8.89-8.6-13.95c0,0-19.85,17.54-15.61,29.34c1.7-1.25,3.44-1.68,4.12-0.93
		c0.76,0.84-0.08,2.82-1.85,4.51c0.24,0.25,0.48,0.51,0.76,0.75c12.89,11.19,47.73-5.75,47.73-5.75
		C563.71,763.65,554.36,759.01,547.25,751.25z"/>
	<path fill="#002D7B" d="M452.75,751.25c3.81-4.16,6.66-8.89,8.6-13.95c0,0,19.85,17.54,15.61,29.34c-1.7-1.25-3.44-1.68-4.12-0.93
		c-0.76,0.84,0.08,2.82,1.85,4.51c-0.24,0.25-0.48,0.51-0.76,0.75c-12.89,11.19-47.73-5.75-47.73-5.75
		C436.3,763.65,445.65,759.01,452.75,751.25z"/>
</g>
<g id="bone-D">
	<path fill="#000660" d="M532.46,759.48c-2.27-1.01-8.14,1.71-9.42,7.17c0.5-0.34,3.44-1.68,4.12-0.93c0.76,0.84,0.3,3.34-1.85,4.51
		C526.98,769.33,531.35,763.62,532.46,759.48z"/>
	<path fill="#000660" d="M467.54,759.48c2.27-1.01,8.14,1.71,9.42,7.17c-0.5-0.34-3.44-1.68-4.12-0.93
		c-0.76,0.84-0.3,3.34,1.85,4.51C473.03,769.33,468.65,763.62,467.54,759.48z"/>
</g>
<g>
	<g>
		<g>
			<defs>
				<path id="SVGID_1_" d="M589.6,616.3c-28.23,2.72-12.55,47.46-24.08,81.4c-5.78,17.02-23.36,35.53-26.86,39.6v0.02
					c1.94,5.05,4.79,9.78,8.59,13.93c7.11,7.76,16.46,12.4,26.55,13.97c0,0-0.09,0.04-0.21,0.1c17.42-7.03,48.78-30.78,54.31-52.35
					C636.97,677.57,617.83,613.58,589.6,616.3z"/>
			</defs>
			<clipPath id="SVGID_2_">
				<use xlink:href="#SVGID_1_"  overflow="visible"/>
			</clipPath>
			<circle id="frontpaws-mask-r" clip-path="url(#SVGID_2_)" fill="#EF85D8" cx="1000" cy="5" r="5"/>
		</g>
	</g>
</g>
<g>
	<g>
		<g>
			<defs>
				<path id="SVGID_3_" d="M452.75,751.25c3.81-4.16,6.66-8.89,8.6-13.95l0,0v-0.01c-3.5-4.06-21.08-22.57-26.86-39.59
					c-11.53-33.94,4.15-78.67-24.08-81.4c-28.23-2.72-47.38,61.26-38.3,96.66c5.5,21.48,36.63,45.12,54.09,52.26
					C436.3,763.65,445.65,759.01,452.75,751.25z"/>
			</defs>
			<clipPath id="SVGID_4_">
				<use xlink:href="#SVGID_3_"  overflow="visible"/>
			</clipPath>
			<circle id="frontpaws-mask-l" clip-path="url(#SVGID_4_)" fill="#EF85D8" cx="10" cy="5" r="5"/>
		</g>
	</g>
</g>
</svg>
