<?xml version="1.0" encoding="utf-8"?>
<!-- Generator: Adobe Illustrator 26.0.1, SVG Export Plug-In . SVG Version: 6.00 Build 0)  -->
<svg version="1.1" id="tiger" xmlns="http://www.w3.org/2000/svg" xmlns:xlink="http://www.w3.org/1999/xlink" x="0px" y="0px"
	 viewBox="0 0 1000 1000" style="enable-background:new 0 0 1000 1000;" xml:space="preserve">
<g id="skin2">
	<path d="M590.4,742.8c-1.1-9.4-20.3-5.8-27.2-3.5c-1.1,0.4-2.2,1-3.1,1.7c-0.8-0.5-1.8-0.8-2.8-1c0.8-0.6,1.6-1.2,2.3-1.9
		c6.9-6.5,7.6-15.2,1.6-19.3c-6-4.2-16.4-2.3-23.3,4.3c-4.9,4.6-6.7,10.4-5.1,14.8c-2.2,3.1-3.7,7-3.9,11.2
		c-0.4,7.4,3.1,12.9,8.3,13.7c0.6,5.3,3.8,9.3,8.8,9.8c3.3,0.3,6.9-0.9,10-3.2c2.8,3.8,7,5.6,11.4,4.1
		C574.2,771.1,591.5,752.2,590.4,742.8z"/>
	<path d="M467.3,737.8c1.6-4.4-0.2-10.1-5.1-14.8c-6.9-6.5-17.3-8.4-23.3-4.3c-6,4.2-5.3,12.8,1.6,19.3c0.7,0.7,1.5,1.3,2.3,1.9
		c-1,0.2-1.9,0.5-2.8,1c-1-0.7-2-1.3-3.1-1.7c-6.9-2.3-26-5.9-27.2,3.5c-1.1,9.4,16.1,28.2,23,30.6c4.4,1.5,8.6-0.3,11.4-4.1
		c3.1,2.3,6.7,3.6,10,3.2c5-0.5,8.2-4.4,8.8-9.8c5.2-0.8,8.7-6.3,8.3-13.7C470.9,744.9,469.5,740.9,467.3,737.8z"/>
</g>
<g id="skin">
	<path d="M589.6,612.2c-28.2,2.7-12.5,47.5-24.1,81.4c-2.7,7.9-7.9,16.1-13.1,23c-11.3,5.8-14.8,13.6-13.8,16.6c0,0,3.2,5.6,1,20.2
		c3.3-0.1,9.2-2.2,18,9c7.7-5.9,15.4-0.9,15.4-0.9c7.8-9.7,13.3-6.9,13.3-6.9c16.9-10.5,37.1-28.7,41.5-45.6
		C637,673.4,617.8,609.4,589.6,612.2z"/>
	<path d="M447.5,716.6c-5.2-6.9-10.4-15.1-13.1-23c-11.5-33.9,4.1-78.7-24.1-81.4s-47.4,61.3-38.3,96.7
		c4.3,16.9,24.6,35.2,41.5,45.6c0,0,5.5-2.8,13.3,6.9c0,0,7.6-4.9,15.4,0.9c8.8-11.2,14.7-9.1,18-9c-2.1-14.6,1-20.2,1-20.2
		C462.3,730.1,458.8,722.4,447.5,716.6z"/>
</g>
<g id="nails">
	<path d="M470.4,735.2c0.3-0.8-1.3-2.6-3-3.2c-1.7-0.6-2.9,0.2-3.2,1c-0.3,0.8,0.4,1.3,2.1,2C468.1,735.6,470.1,736,470.4,735.2z"/>
	<path d="M532.6,732c-1.7,0.6-3.3,2.4-3,3.2s2.4,0.4,4.1-0.2c1.7-0.6,2.4-1.1,2.1-2C535.5,732.2,534.3,731.4,532.6,732z"/>
	<path d="M532,754c-0.8-0.2-2.1,0.3-2.6,2s0,4.1,0.9,4.3c0.8,0.2,1.7-1.7,2.1-3.5C532.9,755.1,532.8,754.3,532,754z"/>
	<path d="M541.4,767.3c-0.9,0-2,0.9-1.9,2.7c0,1.8,1.2,3.9,2.1,3.9c0.9,0,1.1-2.1,1-3.9C542.6,768.1,542.3,767.3,541.4,767.3z"/>
	<path d="M563.7,771.5c0-1.8-0.3-2.6-1.2-2.6s-2,0.9-1.9,2.7c0,1.8,1.2,3.9,2.1,3.9S563.7,773.3,563.7,771.5z"/>
	<path d="M468,754c-0.8,0.2-0.9,1.1-0.4,2.8s1.3,3.7,2.1,3.5c0.8-0.2,1.4-2.6,0.9-4.3S468.8,753.8,468,754z"/>
	<path d="M458.6,767.3c-0.9,0-1.2,0.8-1.2,2.6s0.2,3.9,1,3.9c0.9,0,2-2.1,2.1-3.9C460.5,768.2,459.4,767.4,458.6,767.3z"/>
	<path d="M437.5,768.8c-0.9,0-1.2,0.8-1.2,2.6s0.2,3.9,1,3.9s2-2.1,2.1-3.9C439.5,769.7,438.4,768.9,437.5,768.8z"/>
</g>
</svg>
