<?xml version="1.0" encoding="utf-8"?>
<!-- Generator: Adobe Illustrator 26.0.1, SVG Export Plug-In . SVG Version: 6.00 Build 0)  -->
<svg version="1.1" id="cow" xmlns="http://www.w3.org/2000/svg" xmlns:xlink="http://www.w3.org/1999/xlink" x="0px" y="0px"
	 viewBox="0 0 1000 1000" style="enable-background:new 0 0 1000 1000;" xml:space="preserve">
<g id="skin">
	<path d="M589.6,613.5c-28.2,2.7-5,50.4-16.5,84.4c-2.1,6.1-5.6,13-13.4,19.4c-7.9,6.4-31.9,17.6-24.8,30.8
		c6.8,12.8,26,9.3,44.1,1.3s37.7-24.7,41.1-40.4C627.6,673.3,617.8,610.7,589.6,613.5z"/>
	<path d="M440.4,717.3c-7.9-6.4-11.4-13.3-13.4-19.4c-11.5-33.9,11.7-81.6-16.5-84.4c-28.2-2.7-38,59.8-30.3,95.6
		c3.4,15.8,23,32.5,41.1,40.4c18.1,8,37.3,11.4,44.1-1.3C472.2,734.9,448.2,723.7,440.4,717.3z"/>
</g>
<g id="bone">
	<path d="M442.2,718.7c-9.3,6.8-15.1,16.2-15.1,26.5c0,2.4,0.3,4.7,0.9,7c15.7,6.8,32.1,7.4,38.1-3.7
		C472.6,736.2,453.1,725.3,442.2,718.7z"/>
	<path d="M557.8,718.7c-10.9,6.6-30.4,17.5-23.9,29.8c5.9,11.1,22.3,10.5,38.1,3.7c0.6-2.3,0.9-4.6,0.9-7
		C572.9,734.9,567.1,725.5,557.8,718.7z"/>
</g>
<g id="bone-D">
	<path d="M533.4,747.4c0.2,0.4,0.3,0.7,0.5,1.1c0.2,0.3,0.3,0.6,0.5,0.9c1.5-1.4,3.1-2.6,4.9-3.6
		C537.3,746.1,535.3,746.6,533.4,747.4z"/>
	<path d="M465.6,749.4c0.2-0.3,0.3-0.6,0.5-0.9c0.2-0.4,0.4-0.7,0.5-1.1c-1.9-0.8-3.9-1.3-5.9-1.7
		C462.5,746.7,464.1,748,465.6,749.4z"/>
</g>
</svg>
