<?xml version="1.0" encoding="utf-8"?>
<!-- Generator: Adobe Illustrator 26.0.1, SVG Export Plug-In . SVG Version: 6.00 Build 0)  -->
<svg version="1.1" id="bulldog" xmlns="http://www.w3.org/2000/svg" xmlns:xlink="http://www.w3.org/1999/xlink" x="0px" y="0px"
	 viewBox="0 0 1000 1000" style="enable-background:new 0 0 1000 1000;" xml:space="preserve">
<g id="skin">
	<path d="M589.6,613.6c-28.3,2.1-5,50.4-16.5,84.4c-2.1,6.1-5.6,13-13.4,19.4c-1.8,1.5-4.5,3.2-7.5,5.2c-3.9-1.5-8.7-1.3-12.4,0.9
		c-3.5,2.1-5.1,5.4-4.6,8.6c-3.5,2.1-6.2,5.9-6.8,10.1c-0.7,4.9,1.7,8.8,5.7,9.8c0.6,4.5,4.1,7.5,8.9,7.1c0.4,0,0.8-0.1,1.3-0.2
		c0.9,1.2,2.2,2.2,3.8,2.8c5.4,2.1,12.5-0.3,16-5.4c0.4-0.6,0.7-1.2,1-1.8c4.5-1.3,9.2-3,13.8-5c18.1-8,51.1-17.9,59-46.6
		C646.1,672.7,644.8,609.6,589.6,613.6z"/>
	<path d="M464.9,732.1c0.5-3.2-1.1-6.5-4.6-8.6c-3.7-2.2-8.5-2.4-12.4-0.9c-3-2-5.7-3.7-7.5-5.2C432.5,711,429,704.1,427,698
		c-11.5-33.9,11.8-82.3-16.5-84.4c-55.2-4-56.5,59.1-48.2,89.4c7.9,28.7,40.9,38.7,59,46.6c4.6,2,9.3,3.8,13.8,5
		c0.3,0.6,0.6,1.2,1,1.8c3.4,5.1,10.6,7.5,16,5.4c1.6-0.6,2.9-1.6,3.8-2.8c0.4,0.1,0.8,0.2,1.3,0.2c4.8,0.4,8.3-2.6,8.9-7.1
		c4-1.1,6.4-4.9,5.7-9.8C471,738,468.4,734.2,464.9,732.1z"/>
</g>
</svg>
