<?xml version="1.0" encoding="utf-8"?>
<!-- Generator: Adobe Illustrator 26.0.1, SVG Export Plug-In . SVG Version: 6.00 Build 0)  -->
<svg version="1.1" id="siba" xmlns="http://www.w3.org/2000/svg" xmlns:xlink="http://www.w3.org/1999/xlink" x="0px" y="0px"
	 viewBox="0 0 1000 1000" style="enable-background:new 0 0 1000 1000;" xml:space="preserve">
<g id="nails">
	<path d="M535.1,748.3c-0.8-0.9-4.5-1-7.1,1.3s-3.2,6-2.4,6.9s2.7-1.3,5.3-3.6C533.5,750.6,535.9,749.2,535.1,748.3z"/>
	<path d="M534.9,758.4c-2.1,2.8-1.8,6.6-0.8,7.3s2.3-1.9,4.4-4.7c2.1-2.8,4.1-4.7,3.1-5.4C540.5,754.9,536.9,755.6,534.9,758.4z"/>
	<path d="M551.4,758.9c-1.1-0.5-4.4,1.1-5.8,4.3c-1.3,3.2-0.2,6.8,1,7.3c1.1,0.5,1.8-2.4,3.1-5.6C551,761.7,552.5,759.4,551.4,758.9
		z"/>
	<path d="M535.6,732.9c-3.5,0-6.4,2.5-6.4,3.7s2.9,0.7,6.4,0.7s6.2,0.5,6.3-0.8C541.8,735.4,539.1,732.9,535.6,732.9z"/>
	<path d="M472,749.6c-2.6-2.3-6.3-2.2-7.1-1.3c-0.8,0.9,1.6,2.3,4.2,4.6s4.5,4.5,5.3,3.6C475.3,755.6,474.7,751.8,472,749.6z"/>
	<path d="M458.5,755.6c-1,0.7,1,2.6,3.1,5.4c2.1,2.8,3.4,5.4,4.4,4.7s1.2-4.5-0.8-7.3C463.1,755.6,459.5,754.9,458.5,755.6z"/>
	<path d="M448.6,758.9c-1.1,0.5,0.4,2.8,1.7,6c1.3,3.2,2,6.1,3.1,5.6s2.3-4.1,1-7.3C453,760,449.7,758.4,448.6,758.9z"/>
	<path d="M464.4,737.3c3.5,0,6.4,0.5,6.4-0.7s-3-3.7-6.4-3.7c-3.5,0-6.2,2.5-6.2,3.7C458.2,737.8,460.9,737.3,464.4,737.3z"/>
</g>
<g id="skin">
	<path d="M464.9,736.1c0.5-3.2-1.1-6.5-4.6-8.6c-3.7-2.2-8.5-2.4-12.4-0.9c-3-2-5.7-3.7-7.5-5.2C432.5,715,429,708.1,427,702
		c-11.5-33.9,7-100.3-16.5-84.4c-0.6,0.4-1.1,0.8-1.7,1.2c-1-3.5-4.3-5.4-4.3-5.4s-1.7,3-1.9,7.5c-2.9-2-9.5-5.1-9.5-5.1
		s-0.3,3.8,1.5,8.3c0.6,1.4,1.5,2.7,2.5,3.9c-3.6,0-7.8,0.3-7.8,0.3s0,0.1,0.1,0.3c-0.3,1.1-1,4.6-0.4,9c-3.9-1.7-12.6-3.7-12.6-3.7
		s0.5,4.6,3.8,9.5c1,1.5,2.5,2.9,4,4c-3.1,0.6-6.5,1.5-8.2,2c-0.8-0.1-1.3-0.1-1.3-0.1s0,4.5,2.5,9.8c-4.6-0.5-14.3,0.2-14.3,0.2
		s2,4.6,7,8.6c1.5,1.2,3.5,2.2,5.4,2.9c-2.5,1.4-5.3,3.1-7.1,4.2c-1.9,0.1-3.3,0.5-3.3,0.5s1.6,5.3,6.5,10.6
		c-5.6,1.1-16.7,5.4-16.7,5.4s4,4.6,11.3,7.5c0.2,0.1,0.4,0.1,0.5,0.2l-0.8,0.7c-3,4.4-6.1,10-6.1,10s2,0.6,4.5,0.6
		c1.6,0.9,3.8,1.9,6.6,2.5c-3.2,3.3-8.6,11.1-8.6,11.1s4.8,1.2,10.9-0.1c1.9-0.4,3.8-1.3,5.6-2.4c-0.8,4.6-1.4,10.1-1.4,10.1
		s0.9-0.1,2-0.5c1.1,0.5,4.3,1.9,8.6,2.3c-2.4,3.5-6.3,11.5-6.3,11.5s4.6,0.4,10-1.8c1.7-0.7,3.3-1.8,4.8-3
		c-0.1,4.3,0.2,9.5,0.2,9.5s1.3-0.3,2.7-1.2c1.2,0,3.8,0,6.8-1c-0.7,3.4-1.1,10.7-1.1,10.7s3.6-1.1,7-4.5c0.9-0.9,1.7-2,2.3-3.2
		c0.2,0.1,0.5,0.2,0.7,0.4c1.3,3,2.8,6.1,2.8,6.1s1.8-1.4,2.7-3.5c0.2,0.1,0.3,0.2,0.5,0.2c4.6,2,9.3,3.8,13.8,5
		c0.3,0.6,0.6,1.2,1,1.8c3.4,5.1,10.6,7.5,16,5.4c1.6-0.6,2.9-1.6,3.8-2.8c0.4,0.1,0.8,0.2,1.3,0.2c4.8,0.4,8.3-2.6,8.9-7.1
		c4-1.1,6.4-4.9,5.7-9.8C471,742,468.3,738.3,464.9,736.1z"/>
	<path d="M645.3,691.4c0,0-11.1-4.3-16.7-5.4c4.9-5.3,6.5-10.6,6.5-10.6s-1.3-0.4-3.3-0.5c-1.8-1.1-4.5-2.8-7.1-4.2
		c1.9-0.7,3.9-1.7,5.4-2.9c5-4,7-8.6,7-8.6s-9.7-0.7-14.3-0.2c2.5-5.3,2.5-9.8,2.5-9.8s-0.5,0-1.3,0.1c-1.7-0.5-5.1-1.4-8.2-2
		c1.5-1.2,2.9-2.5,4-4c3.3-4.9,3.8-9.5,3.8-9.5s-8.7,2-12.6,3.7c0.6-4.5-0.1-7.9-0.4-9c0.1-0.2,0.1-0.3,0.1-0.3s-4.2-0.3-7.8-0.3
		c1-1.2,1.9-2.5,2.5-3.9c1.8-4.5,1.5-8.3,1.5-8.3s-6.6,3.1-9.5,5.1c-0.3-4.5-1.9-7.5-1.9-7.5s-3.4,2-4.3,5.4
		c-0.6-0.4-1.1-0.8-1.7-1.2c-23.5-15.9-5,50.4-16.5,84.4c-2.1,6.1-5.6,13-13.4,19.4c-1.8,1.5-4.5,3.2-7.5,5.2
		c-3.9-1.5-8.7-1.3-12.4,0.9c-3.5,2.1-5.1,5.4-4.6,8.6c-3.5,2.1-6.2,5.9-6.8,10.1c-0.7,4.9,1.7,8.8,5.7,9.8c0.6,4.5,4.1,7.5,8.9,7.1
		c0.4,0,0.8-0.1,1.3-0.2c0.9,1.2,2.2,2.2,3.8,2.8c5.4,2.1,12.5-0.3,16-5.4c0.4-0.6,0.7-1.2,1-1.8c4.5-1.3,9.2-3,13.8-5
		c0.2-0.1,0.3-0.2,0.5-0.2c0.9,2.1,2.7,3.5,2.7,3.5s1.5-3.1,2.8-6.1c0.2-0.1,0.5-0.2,0.7-0.4c0.6,1.2,1.4,2.3,2.3,3.2
		c3.4,3.4,7,4.5,7,4.5s-0.4-7.3-1.1-10.7c3,1,5.6,1.1,6.8,1c1.4,0.9,2.7,1.2,2.7,1.2s0.3-5.2,0.2-9.5c1.4,1.2,3.1,2.4,4.8,3
		c5.5,2.2,10,1.8,10,1.8s-3.9-8.1-6.3-11.5c4.4-0.3,7.6-1.7,8.6-2.3c1.2,0.4,2,0.5,2,0.5s-0.6-5.5-1.4-10.1c1.7,1,3.7,2,5.6,2.4
		c6.1,1.4,10.9,0.1,10.9,0.1s-5.4-7.9-8.6-11.1c2.8-0.7,5-1.7,6.6-2.5c2.5,0.1,4.5-0.6,4.5-0.6s-3.1-5.6-6.1-10l-0.8-0.7
		c0.2-0.1,0.4-0.1,0.5-0.2C641.2,696,645.3,691.4,645.3,691.4z"/>
</g>
</svg>
