<?xml version="1.0" encoding="utf-8"?>
<!-- Generator: Adobe Illustrator 26.0.1, SVG Export Plug-In . SVG Version: 6.00 Build 0)  -->
<svg version="1.1" id="pug" xmlns="http://www.w3.org/2000/svg" xmlns:xlink="http://www.w3.org/1999/xlink" x="0px" y="0px"
	 viewBox="0 0 1000 1000" style="enable-background:new 0 0 1000 1000;" xml:space="preserve">
<g id="nails">
	<path d="M482,743.9c-2.6-2.3-6.3-2.2-7.1-1.3c-0.8,0.9,1.6,2.3,4.2,4.6s4.5,4.5,5.3,3.6C485.3,749.9,484.7,746.1,482,743.9z"/>
	<path d="M468.5,749.9c-1,0.7,1,2.6,3.1,5.4c2.1,2.8,3.4,5.4,4.4,4.7s1.2-4.5-0.8-7.3C473.1,749.9,469.5,749.2,468.5,749.9z"/>
	<path d="M458.6,753.2c-1.1,0.5,0.4,2.8,1.7,6c1.3,3.2,2,6.1,3.1,5.6s2.3-4.1,1-7.3C463,754.3,459.7,752.7,458.6,753.2z"/>
	<path d="M474.4,731.6c3.5,0,6.4,0.5,6.4-0.7s-3-3.7-6.4-3.7c-3.5,0-6.2,2.5-6.2,3.7C468.2,732.1,470.9,731.6,474.4,731.6z"/>
	<path d="M525.1,742.6c-0.8-0.9-4.5-1-7.1,1.3s-3.2,6-2.4,6.9s2.7-1.3,5.3-3.6C523.5,744.9,525.9,743.5,525.1,742.6z"/>
	<path d="M524.9,752.7c-2.1,2.8-1.8,6.6-0.8,7.3s2.3-1.9,4.4-4.7c2.1-2.8,4.1-4.7,3.1-5.4C530.5,749.2,526.9,749.9,524.9,752.7z"/>
	<path d="M541.4,753.2c-1.1-0.5-4.4,1.1-5.8,4.3c-1.3,3.2-0.2,6.8,1,7.3c1.1,0.5,1.8-2.4,3.1-5.6C541,756,542.5,753.6,541.4,753.2z"
		/>
	<path d="M525.6,727.2c-3.5,0-6.4,2.5-6.4,3.7s2.9,0.7,6.4,0.7s6.2,0.5,6.3-0.8C531.8,729.6,529.1,727.2,525.6,727.2z"/>
</g>
<g id="skin">
	<path d="M574.1,615c-13,1.5,9.1,59.5,1.1,72.4c-4.4,7.1-21.5,20.3-34.6,33c-3.6-0.9-7.6-0.5-10.8,1.4c-3.5,2.1-5.1,5.4-4.6,8.6
		c-3.5,2.1-6.2,5.9-6.8,10.1c-0.7,4.9,1.7,8.8,5.7,9.8c0.6,4.5,4.1,7.5,8.9,7.1c0.4,0,0.8-0.1,1.3-0.2c0.9,1.2,2.2,2.2,3.8,2.8
		c5.4,2.1,12.5-0.3,16-5.4c0.4-0.6,0.7-1.2,1-1.8c4.5-1.3,9.2-3,13.8-5c18.1-8,58.9-35.6,58.9-65.3C627.7,672,587.1,613.5,574.1,615
		z"/>
	<path d="M474.9,730.4c0.5-3.2-1.1-6.5-4.6-8.6c-3.2-1.9-7.2-2.3-10.8-1.4c-13.2-12.7-30.2-25.9-34.6-33c-8-12.9,14.1-70.8,1.1-72.4
		c-13-1.5-53.6,57-53.6,67.6c0,29.7,40.8,57.3,58.9,65.3c4.6,2,9.3,3.8,13.8,5c0.3,0.6,0.6,1.2,1,1.8c3.4,5.1,10.6,7.5,16,5.4
		c1.6-0.6,2.9-1.6,3.8-2.8c0.4,0.1,0.8,0.2,1.3,0.2c4.8,0.4,8.3-2.6,8.9-7.1c4-1.1,6.4-4.9,5.7-9.8
		C481,736.3,478.4,732.6,474.9,730.4z"/>
</g>
</svg>
