<?xml version="1.0" encoding="utf-8"?>
<!-- Generator: Adobe Illustrator 26.0.1, SVG Export Plug-In . SVG Version: 6.00 Build 0)  -->
<svg version="1.1" id="coala" xmlns="http://www.w3.org/2000/svg" xmlns:xlink="http://www.w3.org/1999/xlink" x="0px" y="0px"
	 viewBox="0 0 1000 1000" style="enable-background:new 0 0 1000 1000;" xml:space="preserve">
<g id="skin">
	<path d="M574.1,614.1c-12.5-3.7,4.8,52.8-4.7,68.5c-6.8,11.2-26.5,30.3-37.1,40.3c-0.7-0.3-1.3-0.5-2-0.7c-6.5-1.6-10.8,3-11.6,6.2
		c-0.5,2,0.6,3,3.3,3.8c-1.8,2-3.1,4.6-3.5,7.3c-0.7,4.9,1.7,8.8,5.7,9.8c0.6,4.5,4.1,7.5,8.9,7.1c0.4,0,0.8-0.1,1.3-0.2
		c0.9,1.2,2.2,2.2,3.8,2.8c5.4,2.1,12.5-0.3,16-5.4c0.4-0.6,0.7-1.2,1-1.8c0,0,81-13.3,86.2-38.6
		C646.4,688.1,633.3,631.7,574.1,614.1z"/>
	<path d="M478.1,732.2c2.6-0.8,3.8-1.8,3.3-3.8c-0.8-3.1-5.1-7.7-11.6-6.2c-0.7,0.2-1.4,0.4-2,0.7c-10.7-10-30.3-29.1-37.1-40.3
		c-9.6-15.7,7.8-72.2-4.7-68.5c-59.2,17.7-72.3,74.1-67.1,99.3s86.2,38.6,86.2,38.6c0.3,0.6,0.6,1.2,1,1.8c3.4,5.1,10.6,7.5,16,5.4
		c1.6-0.6,2.9-1.6,3.8-2.8c0.4,0.1,0.8,0.2,1.3,0.2c4.8,0.4,8.3-2.6,8.9-7.1c4-1.1,6.4-4.9,5.7-9.8
		C481.2,736.8,479.9,734.2,478.1,732.2z"/>
</g>
<g id="nails">
	<path d="M523.9,743.8c-1.5-1.7-4-2.9-5.6-1.6c-1.6,1.4,0.2,4.9,1.7,6.6c1.5,1.7,2.1,1,3.7-0.4C525.4,747.1,525.4,745.5,523.9,743.8
		z"/>
	<path d="M530.6,751.3c-2-1-4.8-1.3-5.7,0.6c-1,1.9,2,4.5,4.1,5.5c2,1,2.3,0.1,3.3-1.8C533.2,753.8,532.7,752.3,530.6,751.3z"/>
	<path d="M540.8,755.4c-2.2-0.7-4.9-0.5-5.6,1.5c-0.7,2,2.7,4.1,4.9,4.8s2.3-0.3,3-2.3C543.7,757.4,543,756.1,540.8,755.4z"/>
	<path d="M476.1,743.8c-1.5,1.7-1.5,3.2,0.1,4.6c1.6,1.4,2.2,2.1,3.7,0.4c1.5-1.7,3.3-5.2,1.7-6.6
		C480.1,740.9,477.6,742.1,476.1,743.8z"/>
	<path d="M469.4,751.3c-2,1-2.6,2.5-1.6,4.3c1,1.9,1.3,2.8,3.3,1.8s5-3.6,4.1-5.5C474.1,750.1,471.4,750.3,469.4,751.3z"/>
	<path d="M459.2,755.4c-2.2,0.7-2.9,2-2.3,4c0.7,2,0.8,3,3,2.3s5.5-2.8,4.9-4.8C464.1,754.9,461.4,754.7,459.2,755.4z"/>
</g>
</svg>
