<?xml version="1.0" encoding="utf-8"?>
<!-- Generator: Adobe Illustrator 26.0.1, SVG Export Plug-In . SVG Version: 6.00 Build 0)  -->
<svg version="1.1" id="squirrel" xmlns="http://www.w3.org/2000/svg" xmlns:xlink="http://www.w3.org/1999/xlink" x="0px" y="0px"
	 viewBox="0 0 1000 1000" style="enable-background:new 0 0 1000 1000;" xml:space="preserve">
<g id="skin">
	<g>
		<path d="M572.1,614.1c-12.5-3.7,21.8,64.4,12.2,80.1c-6.8,11.2-43.4,18.7-54.1,28.7c-0.7-0.3-1.3-0.5-2-0.7
			c-6.5-1.6-10.8,3-11.6,6.2c-0.5,2,0.6,3,3.3,3.8c-1.8,2-3.1,4.6-3.5,7.3c-0.7,4.9,1.7,8.8,5.7,9.8c0.6,4.5,4.1,7.5,8.9,7.1
			c0.4,0,0.8-0.1,1.3-0.2c0.9,1.2,2.2,2.2,3.8,2.8c5.4,2.1,12.5-0.3,16-5.4c0.4-0.6,0.7-1.2,1-1.8c0,0,47.8,10.3,68.9-4.5
			C655.2,724.2,631.3,631.7,572.1,614.1z"/>
	</g>
	<g>
		<path d="M427.9,614.1c12.5-3.7-21.8,64.4-12.2,80.1c6.8,11.2,43.4,18.7,54.1,28.7c0.7-0.3,1.3-0.5,2-0.7c6.5-1.6,10.8,3,11.6,6.2
			c0.5,2-0.6,3-3.3,3.8c1.8,2,3.1,4.6,3.5,7.3c0.7,4.9-1.7,8.8-5.7,9.8c-0.6,4.5-4.1,7.5-8.9,7.1c-0.4,0-0.8-0.1-1.3-0.2
			c-0.9,1.2-2.2,2.2-3.8,2.8c-5.4,2.1-12.5-0.3-16-5.4c-0.4-0.6-0.7-1.2-1-1.8c0,0-47.8,10.3-68.9-4.5
			C344.8,724.2,368.7,631.7,427.9,614.1z"/>
	</g>
</g>
</svg>
