<?xml version="1.0" encoding="utf-8"?>
<!-- Generator: Adobe Illustrator 26.0.1, SVG Export Plug-In . SVG Version: 6.00 Build 0)  -->
<svg version="1.1" id="duck" xmlns="http://www.w3.org/2000/svg" xmlns:xlink="http://www.w3.org/1999/xlink" x="0px" y="0px"
	 viewBox="0 0 1000 1000" style="enable-background:new 0 0 1000 1000;" xml:space="preserve">
<g id="skin">
	<path d="M631.9,690.1c-1.9-4.1-4.5-7.6-7.2-10.5c3.3,2.9,9.4,8.6,9.4,8.6c0.5-23.8-45.7-70.4-60-70.1c-9.4,0.2,21.8,64.4,12.2,80.1
		c-2.7,4.4-10,8.2-18.5,11.9c-7.1,1.8-14.7,3.3-22.7,4.4c-10.5,1.4-20.6,2-29.7,2c1.8,5.5,14.3,12.6,28.8,11.7
		c-5.8,2.2-11.5,4-16.9,5.5c3.3,4.9,18,8.5,32,3c-4.9,3.3-9.8,6.2-14.5,8.8c4.5,4.1,20.5,4,33.1-5.4c0.8-0.6,1.6-1.3,2.4-1.9
		c-3.4,5.5-6.9,10.6-10.3,15.3c5.8,1.9,20.4-4.8,27.9-18.6c0.1-0.1,0.1-0.2,0.2-0.3c-1.7,6.3-3.6,12.2-5.6,17.7
		c5.8,0.2,17-9.3,21-23.4c0.2,4.8,0.3,9.5,0.2,13.9c5.9-1.9,13.9-15.8,11.9-31.3c-0.1-0.9-0.2-1.7-0.4-2.5c2,5.1,3.7,10.1,5.2,14.9
		C635.3,720,638.6,704.3,631.9,690.1z"/>
	<path d="M432.2,710c-8.5-3.6-15.8-7.5-18.5-11.9c-9.6-15.7,21.6-79.8,12.2-80.1c-14.3-0.3-60.5,46.3-60,70.1c0,0.1,6.1-5.7,9.4-8.6
		c-2.8,2.9-5.3,6.4-7.2,10.5c-6.6,14.2-3.3,29.9,1.7,33.5c1.4-4.8,3.2-9.8,5.2-14.9c-0.2,0.8-0.3,1.7-0.4,2.5
		c-1.9,15.6,6,29.5,11.9,31.3c-0.1-4.4,0-9.1,0.2-13.9c4,14.1,15.1,23.5,21,23.4c-2-5.5-3.9-11.4-5.6-17.7c0.1,0.1,0.1,0.2,0.2,0.3
		c7.5,13.8,22,20.5,27.9,18.6c-3.4-4.6-6.9-9.8-10.3-15.3c0.8,0.7,1.5,1.3,2.4,1.9c12.5,9.4,28.5,9.6,33.1,5.4
		c-4.7-2.6-9.6-5.5-14.5-8.8c14,5.5,28.7,1.9,32-3c-5.4-1.5-11-3.3-16.9-5.5c14.4,0.9,26.9-6.2,28.8-11.7c-9.1,0-19.2-0.5-29.7-2
		C446.9,713.3,439.2,711.8,432.2,710z"/>
</g>
</svg>
