<?xml version="1.0" encoding="utf-8"?>
<!-- Generator: Adobe Illustrator 26.0.1, SVG Export Plug-In . SVG Version: 6.00 Build 0)  -->
<svg version="1.1" id="turtle" xmlns="http://www.w3.org/2000/svg" xmlns:xlink="http://www.w3.org/1999/xlink" x="0px" y="0px"
	 viewBox="0 0 1000 1000" style="enable-background:new 0 0 1000 1000;" xml:space="preserve">
<g id="skin">
	<path d="M574.1,618.1c-9.4,0.2,23.1,58.4,14.2,74.3c-8.9,15.9-34.2,20.6-34.2,20.6c-2.6-2.1-6.8-4-11.6-4c-7.9,0-14.5,4.9-14.5,7.9
		c0,2.4,4.1,2.9,9.8,3c-5.4,2.3-9,6.6-8.6,9c0.5,2.9,6.7,1.9,14.3,0.6c-3,4.3-3.8,9.1-2.4,10.8c1.5,2,5.4-0.5,10.2-4.2
		c2.5,2.2,7,4.2,12.1,4.1c5.3-0.1,10-2.4,12.4-4.8c22.8,1.9,49.8-4.1,55.3-40.6C635.3,666.2,588.4,617.7,574.1,618.1z"/>
	<g>
		<path d="M425.9,618.1c9.4,0.2-23.1,58.4-14.2,74.3s34.2,20.6,34.2,20.6c2.6-2.1,6.8-4,11.6-4c7.9,0,14.5,4.9,14.5,7.9
			c0,2.4-4.1,2.9-9.8,3c5.4,2.3,9,6.6,8.6,9c-0.5,2.9-6.7,1.9-14.3,0.6c3,4.3,3.8,9.1,2.4,10.8c-1.5,2-5.4-0.5-10.2-4.2
			c-2.5,2.2-7,4.2-12.1,4.1c-5.3-0.1-10-2.4-12.4-4.8c-22.8,1.9-49.8-4.1-55.3-40.6C364.7,666.2,411.6,617.7,425.9,618.1z"/>
	</g>
</g>
</svg>
