<?xml version="1.0" encoding="utf-8"?>
<!-- Generator: Adobe Illustrator 26.0.1, SVG Export Plug-In . SVG Version: 6.00 Build 0)  -->
<svg version="1.1" id="panda" xmlns="http://www.w3.org/2000/svg" xmlns:xlink="http://www.w3.org/1999/xlink" x="0px" y="0px"
	 viewBox="0 0 1000 1000" style="enable-background:new 0 0 1000 1000;" xml:space="preserve">
<g id="texture">
	<path d="M667.4,705.7c0,0-0.1-0.2-0.4-0.5c-0.3-0.3-0.6-0.8-1.1-1.3c-0.9-1.1-2-2.4-3.2-3.7c-1.3-1.3-2.5-2.4-3.5-3.2
		c-0.6-0.5-1.1-0.9-1.4-1.1c0-0.2,0-0.3,0-0.5c0.2-0.3,0.6-0.8,1.1-1.4c0.8-1,1.9-2.4,2.8-3.8c0.9-1.4,1.9-3,2.5-4.2s1-2,1-2l0,0
		l0,0l0,0l0,0c0,0-0.8-0.5-1.9-1.2c-0.6-0.4-1.2-0.8-1.9-1.2s-1.5-0.8-2.3-1.2c-2.5-1.3-5-2.4-5.9-2.7c-0.1-0.2-0.1-0.3-0.2-0.5
		c0.1-0.3,0.4-0.9,0.7-1.6c0.5-1.2,1.1-2.8,1.6-4.4c0.6-1.6,1.1-3.3,1.4-4.6c0.3-1.3,0.6-2.1,0.6-2.1l0,0l0,0c0,0-0.8-0.3-2.1-0.7
		c-1.2-0.4-3-0.8-4.6-1.3c-0.8-0.2-1.7-0.4-2.4-0.6c-0.8-0.2-1.5-0.3-2.1-0.4c-0.8-0.1-1.4-0.2-1.7-0.3c-0.1-0.1-0.2-0.3-0.3-0.4
		c0.1-0.4,0.2-1,0.3-1.7c0.2-1.3,0.5-2.9,0.7-4.6c0.1-0.9,0.2-1.7,0.3-2.5s0.1-1.6,0.2-2.2c0.1-1.3,0.1-2.2,0.1-2.2l0,0l0,0l0,0l0,0
		c0,0-0.9-0.1-2.2-0.3c-1.3-0.1-3.1-0.2-4.8-0.3s-3.4-0.1-4.7-0.1c-0.8,0-1.4,0-1.8,0c-0.1-0.1-0.2-0.2-0.3-0.3c0-0.4,0-1,0-1.8
		c0-1.3-0.1-2.9-0.2-4.7c-0.1-1.7-0.2-3.5-0.4-4.8s-0.3-2.2-0.3-2.2l0,0c0,0-0.9,0.1-2.2,0.1c-1.3,0.1-3.1,0.3-4.7,0.5
		c-1.7,0.2-3.4,0.5-4.6,0.7c-0.8,0.1-1.4,0.3-1.7,0.3c-0.1-0.1-0.3-0.2-0.4-0.3c-0.1-0.4-0.2-1-0.3-1.7c-0.2-1.3-0.6-2.9-1-4.6
		c-0.4-1.7-0.9-3.4-1.3-4.6c-0.4-1.3-0.7-2.1-0.7-2.1l0,0l0,0l0,0c0,0-0.8,0.2-2.1,0.6c-1.3,0.3-3,0.9-4.6,1.4
		c-0.8,0.3-1.6,0.6-2.4,0.8c-0.8,0.3-1.5,0.6-2,0.8c-0.7,0.3-1.3,0.5-1.6,0.7c-0.1-0.1-0.3-0.1-0.4-0.2c-0.1-0.3-0.4-0.9-0.7-1.6
		c-0.5-1.2-1.2-2.7-2-4.2c-0.4-0.8-0.8-1.6-1.2-2.3s-0.8-1.4-1.1-1.9c-0.7-1.1-1.2-1.9-1.2-1.9l0,0l0,0c0,0-0.8,0.4-2,1
		c-1.2,0.7-2.7,1.6-4.2,2.5s-2.9,2-3.9,2.7c-0.6,0.5-1.1,0.8-1.4,1.1c-0.2,0-0.3,0-0.5-0.1c0-0.1-0.1-0.1-0.1-0.2
		c-0.2-0.3-0.5-0.7-1-1.2c-0.8-1-1.9-2.3-3.1-3.6c-1.2-1.3-2.5-2.4-3.5-3.3c-1-0.9-1.7-1.5-1.7-1.5l0.4,9.4
		c-9.4,0.4,23.1,58.4,14.2,74.3c-3.2,5.6-8.3,9.8-13.8,13c-2.1-2.3-5.4-4.1-9.2-4.9c-7.6-1.6-14.6,1.3-15.7,6.5
		c-0.5,2.6,0.5,5.3,2.7,7.5c-4.4,2.9-6.8,7.2-5.6,11c1,3.3,4.5,5.4,8.8,5.8c-2.5,3.1-3.4,6.7-2,9.6c2.3,4.8,9.8,6,16.8,2.7
		c0.4-0.2,0.8-0.4,1.2-0.6c1.7,0.4,3.5,0.8,5.3,1.1c0.2,0.3,0.6,0.8,1,1.5c0.7,1,1.7,2.4,2.8,3.8c2.1,2.7,4.5,5.3,4.5,5.3l0,0l0,0
		l0,0c0,0,0.7-0.6,1.7-1.4c1-0.9,2.3-2,3.6-3.1c1.3-1.2,2.5-2.4,3.4-3.3c0.6-0.6,1-1,1.3-1.3c0.1,0,0.3,0,0.4,0
		c0.6,0.6,2.6,2.6,4.7,4.4c1.3,1.2,2.6,2.2,3.6,3.1c1,0.8,1.7,1.4,1.7,1.4l0,0l0,0l0,0c0,0,0.6-0.7,1.4-1.7c0.8-1,1.9-2.4,3-3.7
		c1-1.4,2-2.8,2.7-3.8c0.4-0.7,0.8-1.2,1-1.5c0.1,0,0.3-0.1,0.4-0.1c0.3,0.2,0.8,0.6,1.5,1c1.1,0.7,2.5,1.6,4,2.5s3,1.7,4.2,2.3
		s2,1,2,1l0,0l0,0c0,0,0.5-0.8,1.1-1.9c0.6-1.2,1.4-2.7,2.2-4.3c1.2-2.6,2.2-5.1,2.5-6c0.1-0.1,0.3-0.1,0.4-0.2
		c0.1,0,0.2,0.1,0.2,0.1c0.3,0.1,0.8,0.3,1.4,0.5c1.2,0.4,2.8,1,4.5,1.4s3.4,0.9,4.8,1.1c1.3,0.2,2.2,0.4,2.2,0.4l0,0
		c0,0,0.1-0.2,0.2-0.6c0.1-0.4,0.2-0.9,0.4-1.6c0.3-1.3,0.7-3.1,0.9-4.8c0.1-0.9,0.2-1.7,0.3-2.5s0.1-1.6,0.1-2.2c0-0.6,0-1.2,0-1.5
		c0-0.1,0-0.2,0-0.3c0.1-0.1,0.2-0.2,0.3-0.3c0.4,0,1,0,1.8,0c1.3,0,3-0.2,4.8-0.5s3.5-0.8,4.9-1.1c1.3-0.4,2.2-0.8,2.2-0.8l0,0l0,0
		c0,0,0-0.2-0.1-0.6c-0.1-0.4-0.1-1-0.3-1.7s-0.3-1.5-0.6-2.3c-0.2-0.8-0.5-1.7-0.8-2.6c-0.3-0.9-0.6-1.7-1-2.4
		c-0.3-0.7-0.7-1.4-1-2c-0.4-0.7-0.7-1.2-0.8-1.5c0-0.2,0.1-0.3,0.1-0.5c0.3-0.2,0.9-0.5,1.6-0.9c1.1-0.7,2.5-1.6,3.9-2.7
		c0.4-0.3,0.7-0.5,1.1-0.8c0.3-0.3,0.7-0.6,1-0.8c0.6-0.5,1.2-1.1,1.7-1.5C666.7,706.4,667.4,705.7,667.4,705.7L667.4,705.7
		L667.4,705.7L667.4,705.7L667.4,705.7z"/>
	<path d="M447.8,717c2.1-2.2,3.2-4.9,2.7-7.5c-1.1-5.2-8.1-8.1-15.7-6.5c-3.9,0.8-7.1,2.6-9.2,4.9c-5.4-3.1-10.6-7.3-13.8-13
		c-8.9-15.9,23.5-73.9,14.2-74.3l0.4-9.4c0,0-0.7,0.6-1.7,1.5s-2.3,2.1-3.5,3.3c-1.2,1.3-2.3,2.6-3.1,3.6c-0.4,0.5-0.7,0.9-1,1.2
		c-0.1,0.1-0.1,0.1-0.1,0.2c-0.2,0-0.3,0-0.5,0.1c-0.3-0.2-0.8-0.6-1.4-1.1c-1-0.7-2.4-1.8-3.9-2.7s-3-1.8-4.2-2.5c-1.2-0.6-2-1-2-1
		l0,0l0,0c0,0-0.5,0.8-1.2,1.9c-0.3,0.6-0.7,1.2-1.1,1.9s-0.8,1.5-1.2,2.3c-0.8,1.6-1.5,3.1-2,4.2c-0.3,0.7-0.5,1.3-0.7,1.6
		c-0.1,0.1-0.3,0.1-0.4,0.2c-0.3-0.1-0.9-0.4-1.6-0.7c-0.6-0.2-1.3-0.5-2-0.8c-0.8-0.3-1.6-0.5-2.4-0.8c-1.6-0.5-3.3-1.1-4.6-1.4
		c-1.3-0.3-2.1-0.6-2.1-0.6l0,0l0,0l0,0c0,0-0.3,0.8-0.7,2.1c-0.4,1.2-0.9,2.9-1.3,4.6c-0.4,1.7-0.8,3.3-1,4.6
		c-0.1,0.8-0.2,1.4-0.3,1.7c-0.1,0.1-0.3,0.2-0.4,0.3c-0.4-0.1-1-0.2-1.7-0.3c-1.3-0.3-2.9-0.5-4.6-0.7s-3.5-0.4-4.7-0.5
		c-1.3-0.1-2.2-0.1-2.2-0.1l0,0c0,0-0.1,0.9-0.3,2.2c-0.2,1.3-0.3,3-0.4,4.8c-0.1,1.7-0.2,3.4-0.2,4.7c0,0.8,0,1.4,0,1.8
		c-0.1,0.1-0.2,0.2-0.3,0.3c-0.4,0-1,0-1.8,0c-1.3,0-3,0-4.7,0.1s-3.5,0.2-4.8,0.3c-1.3,0.2-2.2,0.3-2.2,0.3l0,0l0,0l0,0l0,0
		c0,0,0.1,0.9,0.1,2.2c0.1,0.6,0.1,1.4,0.2,2.2s0.2,1.7,0.3,2.5c0.2,1.7,0.5,3.4,0.7,4.6c0.2,0.8,0.3,1.4,0.3,1.7
		c-0.1,0.1-0.2,0.3-0.3,0.4c-0.4,0.1-1,0.2-1.7,0.3c-0.6,0.1-1.4,0.3-2.1,0.4c-0.8,0.2-1.6,0.4-2.4,0.6c-1.7,0.4-3.4,0.9-4.6,1.3
		c-1.2,0.4-2.1,0.7-2.1,0.7l0,0l0,0c0,0,0.2,0.9,0.6,2.1c0.3,1.3,0.9,2.9,1.4,4.6c0.6,1.6,1.1,3.2,1.6,4.4c0.3,0.7,0.5,1.3,0.7,1.6
		c-0.1,0.2-0.1,0.3-0.2,0.5c-0.9,0.4-3.4,1.4-5.9,2.7c-0.8,0.4-1.6,0.8-2.3,1.2c-0.7,0.4-1.4,0.8-1.9,1.2c-1.1,0.7-1.9,1.2-1.9,1.2
		l0,0l0,0l0,0l0,0c0,0,0.4,0.8,1,2c0.7,1.2,1.6,2.7,2.5,4.2c0.9,1.4,2,2.8,2.8,3.8c0.5,0.6,0.9,1.1,1.1,1.4c0,0.2,0,0.3,0,0.5
		c-0.3,0.2-0.8,0.6-1.4,1.1c-0.9,0.8-2.2,2-3.5,3.2c-1.2,1.3-2.4,2.6-3.2,3.7c-0.4,0.5-0.8,1-1.1,1.3c-0.2,0.3-0.4,0.5-0.4,0.5l0,0
		l0,0l0,0l0,0c0,0,0.7,0.7,1.7,1.6c0.5,0.5,1.1,1,1.7,1.5c0.3,0.3,0.6,0.5,1,0.8s0.7,0.5,1.1,0.8c1.4,1.1,2.9,2,3.9,2.7
		c0.7,0.4,1.2,0.7,1.6,0.9c0,0.2,0.1,0.3,0.1,0.5c-0.2,0.3-0.5,0.8-0.8,1.5c-0.3,0.6-0.7,1.2-1,2c-0.3,0.7-0.6,1.6-1,2.4
		c-0.3,0.9-0.6,1.7-0.8,2.6c-0.2,0.8-0.4,1.6-0.6,2.3s-0.2,1.3-0.3,1.7c-0.1,0.4-0.1,0.6-0.1,0.6l0,0l0,0c0,0,0.9,0.3,2.2,0.8
		c1.4,0.4,3.1,0.9,4.9,1.1c1.8,0.3,3.5,0.5,4.8,0.5c0.8,0,1.4,0,1.8,0c0.1,0.1,0.2,0.2,0.3,0.3c0,0.1,0,0.2,0,0.3c0,0.4,0,0.9,0,1.5
		s0.1,1.4,0.1,2.2c0.1,0.8,0.2,1.7,0.3,2.5c0.2,1.8,0.6,3.5,0.9,4.8c0.2,0.7,0.3,1.2,0.4,1.6c0.1,0.4,0.2,0.6,0.2,0.6l0,0
		c0,0,0.9-0.1,2.2-0.4c1.3-0.2,3.1-0.6,4.8-1.1c1.7-0.4,3.3-1,4.5-1.4c0.6-0.2,1.1-0.4,1.4-0.5c0.1,0,0.2-0.1,0.2-0.1
		c0.1,0.1,0.3,0.1,0.4,0.2c0.3,0.9,1.3,3.4,2.5,6c0.7,1.6,1.5,3.1,2.2,4.3c0.6,1.2,1.1,1.9,1.1,1.9l0,0l0,0c0,0,0.8-0.4,2-1
		s2.7-1.4,4.2-2.3c1.5-0.8,2.9-1.8,4-2.5c0.7-0.4,1.2-0.8,1.5-1c0.1,0,0.3,0.1,0.4,0.1c0.2,0.3,0.5,0.8,1,1.5
		c0.7,1.1,1.7,2.5,2.7,3.8c1,1.4,2.1,2.7,3,3.7c0.8,1,1.4,1.7,1.4,1.7l0,0l0,0l0,0c0,0,0.7-0.5,1.7-1.4c1-0.8,2.4-1.9,3.6-3.1
		c2.1-1.9,4.1-3.8,4.7-4.4c0.1,0,0.3,0,0.4,0c0.2,0.3,0.7,0.7,1.3,1.3c0.9,0.9,2.1,2.1,3.4,3.3c1.3,1.1,2.6,2.3,3.6,3.1
		s1.7,1.4,1.7,1.4l0,0l0,0l0,0c0,0,2.4-2.6,4.5-5.3c1.1-1.3,2.1-2.7,2.8-3.8c0.5-0.7,0.8-1.2,1-1.5c1.8-0.3,3.5-0.7,5.3-1.1
		c0.4,0.2,0.8,0.4,1.2,0.6c7,3.3,14.6,2.1,16.8-2.7c1.4-2.9,0.5-6.5-2-9.6c4.4-0.4,7.8-2.5,8.8-5.8
		C454.6,724.2,452.2,719.9,447.8,717z"/>
</g>
</svg>
