<?xml version="1.0" encoding="utf-8"?>
<!-- Generator: Adobe Illustrator 26.0.1, SVG Export Plug-In . SVG Version: 6.00 Build 0)  -->
<svg version="1.1" id="giraffe" xmlns="http://www.w3.org/2000/svg" xmlns:xlink="http://www.w3.org/1999/xlink" x="0px" y="0px"
	 viewBox="0 0 1000 1000" style="enable-background:new 0 0 1000 1000;" xml:space="preserve">
<g id="skin">
	<path d="M589.4,625.9c-21.4-11.8-46.1-10.6-46.1-10.6c-9.3,0.4,51.8,63.3,48.9,85.8s-54.9,20.3-47.3,41.4
		c7.6,21.2,98.2,7.8,97.4-32.7C641.9,685.5,610.8,637.7,589.4,625.9z"/>
	<path d="M456.7,615.3c0,0-24.7-1.2-46.1,10.6s-52.4,59.7-52.9,84c-0.7,40.4,89.8,53.8,97.4,32.7c7.6-21.2-44.4-19-47.3-41.4
		S466,615.7,456.7,615.3z"/>
</g>
<g id="bone">
	<path d="M459.2,725.2c-12.1-2.7-22.4,3.4-23.5,11.1c-1.1,7.7,6.2,15.8,19.5,16.7c2.8,0.2,5.9-5.5,7.1-13.2
		C463.4,732.2,462,725.8,459.2,725.2z"/>
	<path d="M564.3,736.4c-1.1-7.7-11.4-13.8-23.5-11.1c-2.8,0.6-4.2,7-3,14.7c1.1,7.7,4.2,13.4,7.1,13.2
		C558.1,752.2,565.4,744.1,564.3,736.4z"/>
</g>
<g id="bone-D">
	<path d="M459.2,725.2c-2.8-0.4-5.9,5.5-7.1,13.2c-1.1,7.7,0.3,14.3,3,14.7c2.8,0.4,5.9-5.5,7.1-13.2
		C463.4,732.2,462,725.6,459.2,725.2z"/>
	<path d="M547.8,738.4c-1.1-7.7-4.3-13.6-7.1-13.2c-2.8,0.4-4.2,7-3,14.7c1.1,7.7,4.3,13.6,7.1,13.2
		C547.6,752.7,549,746.1,547.8,738.4z"/>
</g>
</svg>
