<?xml version="1.0" encoding="utf-8"?>
<!-- Generator: Adobe Illustrator 26.0.1, SVG Export Plug-In . SVG Version: 6.00 Build 0)  -->
<svg version="1.1" id="owl" xmlns="http://www.w3.org/2000/svg" xmlns:xlink="http://www.w3.org/1999/xlink" x="0px" y="0px"
	 viewBox="0 0 1000 1000" style="enable-background:new 0 0 1000 1000;" xml:space="preserve">
<g id="skin-L">
	<path d="M638.9,659.6c-5.5-4-10.6-6.9-15.2-9.1c16.7,4.5,31.9,9.7,31.9,9.7s-21.1-43-101.9-44.6c-6.2-0.5-10.2-0.3-10.2-0.3
		c-9.3,0.4,51.8,63.3,48.9,85.8c-0.9,7.4-7.2,12.1-14.9,15.9c-2.7,0.8-5.6,1.7-8.6,2.5c-21.4,6-61.2,9-61.2,9s14.5,14.8,36.4,16.6
		c-17.3,4.9-33.9,8.4-33.9,8.4s29.2,22.9,62.2,4.7c2.1-1.2,4.1-2.4,6-3.6c-12.2,11.2-23.8,20.7-23.8,20.7s33.6,6.4,54.9-20.7
		c-5.4,12.9-10.3,23.3-10.3,23.3s25.8-6.8,37-31.5c2,10.2,3.3,17.6,3.3,17.6s24.2-28.2,7.5-62c-1.1-2.3-2.3-4.5-3.5-6.5
		c10,11.7,18,22.3,18,22.3S669.5,681.6,638.9,659.6z"/>
	<path d="M422.7,716.9c-7.7-3.8-14-8.5-14.9-15.9c-2.9-22.5,58.2-85.4,48.9-85.8c0,0-4-0.2-10.2,0.3
		c-80.8,1.5-101.9,44.6-101.9,44.6s15.2-5.2,31.9-9.7c-4.7,2.2-9.7,5.1-15.2,9.1c-30.6,22-22.4,58.2-22.4,58.2s8-10.5,18-22.3
		c-1.2,2-2.3,4.2-3.5,6.5c-16.7,33.8,7.5,62,7.5,62s1.2-7.5,3.3-17.6c11.2,24.8,37,31.5,37,31.5s-4.9-10.4-10.3-23.3
		c21.3,27.1,54.9,20.7,54.9,20.7s-11.6-9.4-23.8-20.7c1.9,1.2,3.9,2.4,6,3.6c33,18.2,62.2-4.7,62.2-4.7s-16.7-3.5-33.9-8.4
		c22-1.8,36.4-16.6,36.4-16.6s-39.8-3.1-61.2-9C428.4,718.6,425.5,717.8,422.7,716.9z"/>
</g>
</svg>
