<?xml version="1.0" encoding="utf-8"?>
<!-- Generator: Adobe Illustrator 26.0.1, SVG Export Plug-In . SVG Version: 6.00 Build 0)  -->
<svg version="1.1" id="racoon" xmlns="http://www.w3.org/2000/svg" xmlns:xlink="http://www.w3.org/1999/xlink" x="0px" y="0px"
	 viewBox="0 0 1000 1000" style="enable-background:new 0 0 1000 1000;" xml:space="preserve">
<g id="nails">
	<path d="M536.8,765.6c-8-6.4-9.3-13.8-9.3-13.8c-0.2,0.1-0.3,0.2-0.5,0.4c-11.6,9.4-15.5,23.5-13.6,25.8c1.4,1.7,5.6-3.7,12.4-10.5
		c-6.2,10.2-6.9,21.2-5,22.9s5.9-7,13.3-16.7c-2.8,8.9-2.2,16.8-0.5,18c1.9,1.4,4.7-6.4,10.2-15.9c-0.2,8.6,1.9,15.3,3.7,16.1
		c2.2,1,3.1-7.5,6.2-18.4C553.7,773.3,544.8,772,536.8,765.6z"/>
	<path d="M473,752.1c-0.2-0.1-0.3-0.2-0.5-0.4c0,0-1.3,7.4-9.3,13.8c-8,6.4-16.9,7.8-16.9,7.8c3.1,10.8,4,19.3,6.2,18.4
		c1.8-0.8,3.9-7.5,3.7-16.1c5.5,9.6,8.2,17.3,10.2,15.9c1.7-1.2,2.3-9.1-0.5-18c7.4,9.7,11.3,18.4,13.3,16.7
		c1.9-1.6,1.2-12.6-5-22.9c6.8,6.7,11,12.1,12.4,10.5C488.5,775.6,484.6,761.5,473,752.1z"/>
</g>
<g id="skin">
	<path d="M572.4,609.8c-25.5,2.9-10.2,41.4-15.3,72.2c-3.7,22.3-26.1,49.5-29.6,69.7c0,0-2.5,11.7,5.2,17.5s21,4.1,21,4.1
		c29.3-7.4,71.7-48.3,73.8-73.7C630.2,667.4,597.9,606.9,572.4,609.8z"/>
	<path d="M442.9,682.1c-5.2-30.9,10.2-69.4-15.3-72.2c-25.5-2.9-57.9,57.6-55.2,89.7c2.1,25.4,44.6,66.4,73.8,73.7
		c0,0,13.2,1.7,21-4.1s5.2-17.5,5.2-17.5C469.1,731.6,446.7,704.4,442.9,682.1z"/>
</g>
</svg>
