<?xml version="1.0" encoding="utf-8"?>
<!-- Generator: Adobe Illustrator 26.0.1, SVG Export Plug-In . SVG Version: 6.00 Build 0)  -->
<svg version="1.1" id="racoon" xmlns="http://www.w3.org/2000/svg" xmlns:xlink="http://www.w3.org/1999/xlink" x="0px" y="0px"
	 viewBox="0 0 1000 1000" style="enable-background:new 0 0 1000 1000;" xml:space="preserve">
<g id="skin">
	<path d="M561.4,611.1c-25.5,2.9,11.5,38.4,6.4,69.3c-3.7,22.3-36.8,45.3-40.2,65.4c0,0-2.5,11.7,5.2,17.5s13.8,4.7,13.8,4.7
		c29.3-7.4,71.7-48.3,73.8-73.7C623,662,586.8,608.2,561.4,611.1z"/>
	<path d="M432.3,680.3c-5.2-30.9,31.9-66.4,6.4-69.3c-25.5-2.9-61.7,51-59,83.1c2.1,25.4,44.6,66.4,73.8,73.7c0,0,6,1.1,13.8-4.7
		s5.2-17.5,5.2-17.5C469.1,725.7,436,702.6,432.3,680.3z"/>
</g>
<g id="earskin">
	<path d="M553.4,737c-4.6-3.2-10.2-3.2-15.1-2.1c-3.4-2.1-8.1-3.7-13.3-3.7c-10.5,0-19,6.7-19,10c0,3,6.9,2.2,16,2
		c-12.6,12-16.8,28-14.5,30.7c1.8,2.2,7.3-4.8,16.2-13.6c-8.1,13.3-8.9,27.6-6.5,29.7c2.5,2.2,7.7-9.1,17.2-21.7
		c-3.6,11.5-2.9,21.8-0.7,23.3c2.5,1.8,6.1-8.3,13.2-20.7c-0.3,11.1,2.5,19.9,4.8,20.9c2.8,1.2,4-9.8,8-23.8
		C559.8,767.8,566.5,746.1,553.4,737z"/>
	<path d="M475.1,731.2c-5.2,0-9.9,1.6-13.3,3.7c-5-1.1-10.6-1-15.1,2.1c-13.1,9.1-6.4,30.8-6.4,30.8c4,14.1,5.2,25.1,8,23.8
		c2.3-1,5.1-9.8,4.8-20.9c7.1,12.4,10.7,22.5,13.2,20.7c2.2-1.6,3-11.8-0.7-23.3c9.6,12.6,14.7,23.9,17.2,21.7
		c2.5-2.1,1.6-16.4-6.5-29.7c8.9,8.7,14.3,15.7,16.2,13.6c2.3-2.7-1.8-18.6-14.5-30.7c9.1,0.2,16,1,16-2
		C494.1,737.8,485.6,731.2,475.1,731.2z"/>
</g>
</svg>
