<?xml version="1.0" encoding="utf-8"?>
<!-- Generator: Adobe Illustrator 26.0.1, SVG Export Plug-In . SVG Version: 6.00 Build 0)  -->
<svg version="1.1" id="lion" xmlns="http://www.w3.org/2000/svg" xmlns:xlink="http://www.w3.org/1999/xlink" x="0px" y="0px"
	 viewBox="0 0 1000 1000" style="enable-background:new 0 0 1000 1000;" xml:space="preserve">
<g id="skin">
	<path d="M627.9,692.7c1.3-15.2-2.8-27.8-9.7-37.8c0.6-10.3-6.8-24.4-19.4-34.9c-15.8-13.2-33.7-15.8-40-5.8
		c-3.1,5-2.8,12.1,0.3,19.7c-0.4,7,13.4,20.6,11.4,43.3c0,0-45.5,37.1-51.1,71.5c-0.5,0.8-0.9,1.6-1.3,2.5
		c-4.3,9.8-0.6,20.8,4.8,23.2c0.3,0.1,0.5,0.2,0.8,0.3c1.1,4.1,3.3,7.3,5.9,8.4c3,1.3,5.8-0.3,8.5-3.6c0.9,1.2,2,2.1,3.1,2.6
		c5.1,2.2,10-4.1,14.1-13.2c7.5-5.4,12.6-12.9,10.1-20.3c33.9-8.5,50.5-19.8,57.9-36.8c1.3-0.3,2.5-0.9,3.6-1.9
		C631,706.3,631.4,698.7,627.9,692.7z"/>
	<path d="M480.6,748.7c-5.6-34.4-51.1-71.5-51.1-71.5c-1.9-22.8,11.9-36.3,11.4-43.3c3.1-7.6,3.4-14.7,0.3-19.7
		c-6.3-10-24.2-7.4-40,5.8c-12.6,10.5-20.1,24.6-19.4,34.9c-6.8,10-10.9,22.6-9.7,37.8c-3.5,6-3.1,13.6,1,17.3
		c1.1,1,2.3,1.6,3.6,1.9c7.4,17,24,28.2,57.9,36.8c-2.5,7.4,2.7,14.9,10.1,20.3c4.1,9,9,15.4,14.1,13.2c1.1-0.5,2.2-1.4,3.1-2.6
		c2.7,3.3,5.6,4.9,8.5,3.6c2.6-1.1,4.8-4.3,5.9-8.4c0.3-0.1,0.5-0.1,0.8-0.3c5.4-2.4,9.1-13.4,4.8-23.2
		C481.5,750.4,481.1,749.5,480.6,748.7z"/>
</g>
</svg>
