<?xml version="1.0" encoding="utf-8"?>
<!-- Generator: Adobe Illustrator 26.0.1, SVG Export Plug-In . SVG Version: 6.00 Build 0)  -->
<svg version="1.1" id="bear" xmlns="http://www.w3.org/2000/svg" xmlns:xlink="http://www.w3.org/1999/xlink" x="0px" y="0px"
	 viewBox="0 0 1000 1000" style="enable-background:new 0 0 1000 1000;" xml:space="preserve">
<g id="skin-L">
	<path d="M566.8,609.3c-17.3,0,9.3,42.2,16.5,76.8c-23.5,11.4-37.8,32.8-42,45.6c-9.8,6.6-15.1,15.9-13.1,21.9
		c0.9,2.6,3,4.2,5.9,5.1c-2.4,6-2.5,11.5-0.2,14.9c2.6,3.6,7.6,3.9,13.9,1.8c0.3,2.5,1.2,4.5,2.6,6c5.8,6.1,18.7-0.9,31.2-12.9
		c0.7-0.7,1.3-1.3,2-1.9c29.1-6.8,66.3-26.6,68.1-61.3C654.2,658.2,584.5,609.3,566.8,609.3z"/>
	<path d="M433.2,609.3c17.3,0-9.4,42.2-16.5,76.8c23.5,11.4,37.8,32.8,42,45.6c9.8,6.6,15.1,15.9,13.1,21.9c-0.9,2.6-3,4.2-5.9,5.1
		c2.4,6,2.5,11.5,0.2,14.9c-2.6,3.6-7.6,3.9-13.9,1.8c-0.3,2.5-1.2,4.5-2.6,6c-5.8,6.1-18.7-0.9-31.2-12.9c-0.7-0.7-1.3-1.3-2-1.9
		c-29.1-6.8-66.3-26.6-68.1-61.3C345.8,658.2,415.5,609.3,433.2,609.3z"/>
</g>
</svg>
