<?xml version="1.0" encoding="utf-8"?>
<!-- Generator: Adobe Illustrator 26.0.1, SVG Export Plug-In . SVG Version: 6.00 Build 0)  -->
<svg version="1.1" id="dober" xmlns="http://www.w3.org/2000/svg" xmlns:xlink="http://www.w3.org/1999/xlink" x="0px" y="0px"
	 viewBox="0 0 1000 1000" style="enable-background:new 0 0 1000 1000;" xml:space="preserve">
<g id="skin">
	<path d="M631.5,685.2c0-0.4,0-0.9-0.1-1.3l-0.1-1.2l-0.1-1.2l-0.2-1.1c-0.5-2.9-1.1-5.2-1.9-7.4c-1.5-4.2-3.2-7.6-4.9-10.7
		c-3.5-6.1-7.3-11-11.1-15.5c-7.7-8.8-15.6-15.7-22.8-21.1c-3.6-2.7-7-5-10.1-6.9s-5.9-3.5-8.3-4.8c-2.4-1.2-4.3-2.1-5.6-2.7
		c-1.3-0.6-2.1-0.9-2.1-0.9c-1.1-0.4-2.2-0.5-3.4-0.1c-2.7,0.9-4.3,3.8-3.4,6.5l0.1,0.2c0,0,0.2,0.7,0.7,2.1
		c0.5,1.3,1.2,3.3,2.2,5.6c2,4.8,5,11.4,8.7,19c1.9,3.8,3.9,7.8,6,12s4.4,8.4,6.5,12.7s4.2,8.6,5.7,12.4c0.4,1,0.7,1.8,1,2.7
		c0.2,0.6,0.3,1.2,0.5,1.6c-0.1,0.4-0.4,1.2-0.8,2.2c-0.5,1.3-1.4,3-2.3,4.7c-1.9,3.5-4.4,7.3-7,11.1c-4.8,7-26,30.5-30.7,36.9
		c-1.5,1.3-2.6,2.8-3.4,3.9c-6,8.4-6.6,18.9-4,24c0.3,0.5,0.7,0.6,1.2,0.3c0.4,1.5,1,2.7,1.8,3.5c0.6,0.5,1.3,0.2,2.1-0.6
		c0.3,1,0.7,1.8,1.2,2.5c0.9,1,2.6-0.4,4.5-2.8c0,1,0.2,1.7,0.7,2.1c2.7,2.3,12.8-5.4,14.8-8.7c0.4-0.6,0.7-1.4,0.9-2.3
		c6.9-5.8,26.8-16.6,42.1-32.5c4.2-4.3,8.4-9.2,12.2-15.2c1-1.5,1.9-3.1,2.8-4.8c0.9-1.7,1.8-3.5,2.6-5.4c1.6-3.8,3.1-8.4,3.8-13.7
		l0.1-0.5c0,0.1,0.1-1.2,0.1-0.7v-0.2v-0.4v-0.7c0-0.5,0-1,0-1.4V685.2z"/>
	<path d="M452.1,740.1c-4.6-6.4-25.8-29.9-30.7-36.9c-2.6-3.8-5.1-7.6-7-11.1c-0.9-1.7-1.8-3.4-2.3-4.7c-0.4-1-0.7-1.8-0.8-2.2
		c0.1-0.5,0.3-1,0.5-1.6c0.3-0.8,0.6-1.7,1-2.7c1.5-3.8,3.6-8.2,5.7-12.4c2.1-4.3,4.4-8.6,6.5-12.7c2.1-4.2,4.2-8.2,6-12
		c3.7-7.6,6.7-14.2,8.7-19c1-2.4,1.7-4.3,2.2-5.6s0.7-2.1,0.7-2.1l0.1-0.2c0.9-2.7-0.7-5.6-3.4-6.5c-1.2-0.4-2.4-0.3-3.4,0.1
		c0,0-0.8,0.3-2.1,0.9c-1.3,0.6-3.3,1.5-5.6,2.7c-2.4,1.2-5.2,2.8-8.3,4.8c-3.1,2-6.5,4.2-10.1,6.9c-7.2,5.4-15.1,12.2-22.8,21.1
		c-3.8,4.5-7.6,9.4-11.1,15.5c-1.7,3.1-3.5,6.5-4.9,10.7c-0.7,2.1-1.4,4.5-1.9,7.4l-0.2,1.1l-0.1,1.2l-0.1,1.2c0,0.4,0,0.9-0.1,1.3
		v1.3c0,0.5,0,1,0,1.4v0.7v0.4v0.2c-0.1-0.5,0.1,0.9,0.1,0.7l0.1,0.5c0.6,5.4,2.1,9.9,3.8,13.7c0.8,1.9,1.7,3.7,2.6,5.4
		s1.9,3.3,2.8,4.8c3.9,6,8.1,10.8,12.2,15.2c15.2,15.9,35.2,26.8,42.1,32.5c0.2,0.9,0.5,1.7,0.9,2.3c2,3.3,12.1,11,14.8,8.7
		c0.4-0.4,0.6-1.1,0.7-2.1c1.9,2.4,3.6,3.9,4.5,2.8c0.6-0.7,1-1.5,1.2-2.5c0.8,0.8,1.6,1.1,2.1,0.6c0.9-0.8,1.5-2,1.8-3.5
		c0.5,0.2,1,0.1,1.2-0.3c2.6-5.1,2.1-15.6-4-24C454.7,743,453.6,741.5,452.1,740.1z"/>
</g>
</svg>
