<?xml version="1.0" encoding="utf-8"?>
<!-- Generator: Adobe Illustrator 26.0.1, SVG Export Plug-In . SVG Version: 6.00 Build 0)  -->
<svg version="1.1" id="bull" xmlns="http://www.w3.org/2000/svg" xmlns:xlink="http://www.w3.org/1999/xlink" x="0px" y="0px"
	 viewBox="0 0 1000 1000" style="enable-background:new 0 0 1000 1000;" xml:space="preserve">
<g id="skin">
	<path d="M622.2,642.3c-12.1-42.9-53.2-37.4-61.4-31.5s4.9,52.7,24.8,81.7c-18.9,18.4-38.6,54.7-31.5,62.8s93.3-15.1,95.8-63.5
		C651.1,669.2,643.1,656.3,622.2,642.3z"/>
	<path d="M439.2,610.8c-8.2-5.8-49.3-11.3-61.4,31.5c-20.9,14-28.9,26.9-27.7,49.4c2.5,48.4,88.8,71.6,95.8,63.5
		c7.1-8.1-12.6-44.4-31.5-62.8C434.3,663.5,447.4,616.6,439.2,610.8z"/>
</g>
<g id="bone">
	<path d="M593.4,730.7c-7.7-8.8-21.2-12.9-26.6-11.9c-11.9,2.3-16,10.8-21.4,21.8c-0.1,0.8-0.3,1.5-0.3,2.2
		c-2.4,18.7,26.9,29,38.2,25.4C596.5,764,599.5,737.7,593.4,730.7z"/>
	<path d="M454.6,740.6c-5.3-11-9.4-19.4-21.4-21.8c-5.4-1.1-18.9,3.1-26.6,11.9c-6.1,7-3.1,33.3,10.1,37.5
		c11.2,3.6,40.6-6.8,38.2-25.4C454.8,742.1,454.7,741.4,454.6,740.6z"/>
</g>
</svg>
