<?xml version="1.0" encoding="utf-8"?>
<!-- Generator: Adobe Illustrator 26.0.1, SVG Export Plug-In . SVG Version: 6.00 Build 0)  -->
<svg version="1.1" id="bird" xmlns="http://www.w3.org/2000/svg" xmlns:xlink="http://www.w3.org/1999/xlink" x="0px" y="0px"
	 viewBox="0 0 1000 1000" style="enable-background:new 0 0 1000 1000;" xml:space="preserve">

<g id="skin">
	<path d="M658,719.5c1.7-5.4-2.2-14.9-10-25.8c4.4,0.1,7.8-0.7,9.7-2.6c0.3-6.2-6.4-15.6-17.3-25
		c0.1-0.1,0.3-0.2,0.4-0.4c0.7-9.5-14.2-25.9-35.4-38.3c-14.1-8.3-27.7-12.9-37-13.2c-5.4-0.6-9.8,0-11.8,1.1
		c-6.4,3.5,2.8,40.4,17.8,67.6c-6.9,5.2-14.1,12.7-20.8,21.8c-15.1,20.8-21.8,42.8-16.1,51.9c4.5,1.7,10.8,0,17.9-4.5
		c-1.5,13.4-0.2,24,4,28.6c6.4,0.6,14.9-7.5,22.8-20.9c2.2,8.3,5.3,14.4,9.1,16.9c5.4-0.7,10.5-8.1,14.3-19.5
		c4.3,8.8,9.1,14.8,13.6,16.5c4.5-2,7.4-9.8,8.4-21c5.1,5.8,10,9.4,13.9,9.8c3.7-3.2,4.5-11.6,2.7-23c3.3,1.6,6.1,2.2,8.4,1.8
		c2.5-3.8,1.7-11.5-1.8-21.1C653.7,720.5,656.2,720.4,658,719.5z"/>
	<path d="M425.6,682.8c14.9-27.2,24.2-64.1,17.8-67.6c-2-1.1-6.4-1.7-11.8-1.1c-9.4,0.3-23,4.9-37,13.2
		c-21.2,12.4-36.1,28.8-35.4,38.3c0.1,0.1,0.3,0.2,0.4,0.4c-10.9,9.5-17.6,18.8-17.3,25c1.9,1.9,5.3,2.7,9.7,2.6
		c-7.8,10.8-11.7,20.4-10,25.8c1.8,0.9,4.3,1.1,7.3,0.6c-3.5,9.6-4.3,17.3-1.8,21.1c2.3,0.4,5.1-0.3,8.4-1.8
		c-1.8,11.4-1,19.8,2.7,23c3.9-0.4,8.8-4,13.9-9.8c0.9,11.2,3.8,19,8.4,21c4.5-1.7,9.3-7.7,13.6-16.5c3.8,11.4,9,18.8,14.3,19.5
		c3.8-2.5,6.9-8.6,9.1-16.9c7.9,13.4,16.4,21.5,22.8,20.9c4.2-4.6,5.4-15.2,4-28.6c7.1,4.5,13.5,6.2,17.9,4.5
		c5.6-9.1-1-31.1-16.1-51.9C439.7,695.5,432.5,688,425.6,682.8z"/>
</g>
</svg>
