<?xml version="1.0" encoding="utf-8"?>
<!-- Generator: Adobe Illustrator 26.0.1, SVG Export Plug-In . SVG Version: 6.00 Build 0)  -->
<svg version="1.1" id="hyena" xmlns="http://www.w3.org/2000/svg" xmlns:xlink="http://www.w3.org/1999/xlink" x="0px" y="0px"
	 viewBox="0 0 1000 1000" style="enable-background:new 0 0 1000 1000;" xml:space="preserve">

<g id="nails">
	<path d="M483.4,751.1c-2.6-2.3-6.3-2.2-7.1-1.3c-0.8,0.9,1.6,2.3,4.2,4.6c2.6,2.3,4.5,4.5,5.3,3.6
		C486.6,757.2,486,753.4,483.4,751.1z"/>
	<path d="M469.8,757.2c-1,0.7,1,2.6,3.1,5.4c2.1,2.8,3.4,5.4,4.4,4.7c1-0.7,1.2-4.5-0.8-7.3
		C474.4,757.2,470.8,756.4,469.8,757.2z"/>
	<path d="M459.9,760.5c-1.1,0.5,0.4,2.8,1.7,6c1.3,3.2,2,6.1,3.1,5.6c1.1-0.5,2.3-4.1,1-7.3
		C464.4,761.6,461.1,760,459.9,760.5z"/>
	<path d="M475.8,738.9c3.5,0,6.4,0.5,6.4-0.7c0-1.2-3-3.7-6.4-3.7c-3.5,0-6.2,2.5-6.2,3.7
		C469.5,739.4,472.3,738.9,475.8,738.9z"/>
	<path d="M523.7,749.9c-0.8-0.9-4.5-1-7.1,1.3c-2.6,2.3-3.2,6-2.4,6.9c0.8,0.9,2.7-1.3,5.3-3.6
		C522.1,752.2,524.5,750.8,523.7,749.9z"/>
	<path d="M523.5,760c-2.1,2.8-1.8,6.6-0.8,7.3c1,0.7,2.3-1.9,4.4-4.7c2.1-2.8,4.1-4.7,3.1-5.4
		C529.2,756.4,525.6,757.2,523.5,760z"/>
	<path d="M540.1,760.5c-1.1-0.5-4.4,1.1-5.8,4.3c-1.3,3.2-0.2,6.8,1,7.3c1.1,0.5,1.8-2.4,3.1-5.6
		C539.7,763.3,541.2,760.9,540.1,760.5z"/>
	<path d="M524.3,734.5c-3.5,0-6.4,2.5-6.4,3.7c0,1.2,2.9,0.7,6.4,0.7c3.5,0,6.2,0.5,6.3-0.8
		C530.5,736.9,527.8,734.5,524.3,734.5z"/>
</g>
<g id="skin">
	<path d="M572.7,622.3c-13,1.5,9.1,59.5,1.1,72.4c-4.4,7.1-21.5,20.3-34.6,33c-3.6-0.9-7.6-0.5-10.8,1.4
		c-3.5,2.1-5.1,5.4-4.6,8.6c-3.5,2.1-6.2,5.9-6.8,10.1c-0.7,4.9,1.7,8.8,5.7,9.8c0.6,4.5,4.1,7.5,8.9,7.1c0.4,0,0.8-0.1,1.3-0.2
		c0.9,1.2,2.2,2.2,3.8,2.8c5.4,2.1,12.5-0.3,16-5.4c0.4-0.6,0.7-1.2,1-1.8c4.5-1.3,9.2-3,13.8-5c18.1-8,58.9-35.6,58.9-65.3
		C626.4,679.3,585.7,620.8,572.7,622.3z"/>
	<path d="M476.2,737.7c0.5-3.2-1.1-6.5-4.6-8.6c-3.2-1.9-7.2-2.3-10.8-1.4c-13.2-12.7-30.2-25.9-34.6-33
		c-8-12.9,14.1-70.8,1.1-72.4c-13-1.5-53.6,57-53.6,67.6c0,29.7,40.8,57.3,58.9,65.3c4.6,2,9.3,3.8,13.8,5c0.3,0.6,0.6,1.2,1,1.8
		c3.4,5.1,10.6,7.5,16,5.4c1.6-0.6,2.9-1.6,3.8-2.8c0.4,0.1,0.8,0.2,1.3,0.2c4.8,0.4,8.3-2.6,8.9-7.1c4-1.1,6.4-4.9,5.7-9.8
		C482.4,743.6,479.7,739.8,476.2,737.7z"/>
</g>
</svg>
