<?xml version="1.0" encoding="utf-8"?>
<!-- Generator: Adobe Illustrator 24.0.1, SVG Export Plug-In . SVG Version: 6.00 Build 0)  -->
<svg version="1.1" id="Layer_1" xmlns="http://www.w3.org/2000/svg" xmlns:xlink="http://www.w3.org/1999/xlink" x="0px" y="0px"
	 viewBox="0 0 1000 1000" style="enable-background:new 0 0 1000 1000;" xml:space="preserve">
<g id="skin">
	<path d="M453.6,705l-9.2-4.1c1.8-1.9,2.8-4.6,2.5-7.4c-0.6-5-5.2-8.5-10.1-7.8l-3.4,0.4c-6.3-16.8-12.9-25.1-12.9-25.1
		s16.3-33.4,20.5-41.9c3.9-8,5.8-15.2,6.6-21c1.2-8.7-6.1-16.4-14.8-15.5c-12.9,1.3-30.5,8-36.5,33c-47.2,24.3-61.4,64.4-61.4,64.4
		s-13.3,23.8,11.8,44.7c15.6,13.1,40.5,15.4,60.1,14.8c1.6-0.1,3.2-0.2,4.8-0.5l0.8,2c1.9,4.6,7.2,6.8,11.9,4.8s6.8-7.2,4.8-11.9
		l-0.9-2l4.4,5.3c3.2,3.9,8.9,4.4,12.7,1.2c3.9-3.2,4.4-8.9,1.2-12.7l-5.4-6.5l5.1,2.3c4.6,2,9.9,0,12-4.6l0,0
		C460.2,712.4,458.1,707,453.6,705z"/>
	<path d="M665.3,680c0,0-14.2-40.1-61.4-64.4c-6.1-25.1-23.6-31.7-36.5-33c-8.8-0.9-16.1,6.8-14.8,15.5
		c0.8,5.8,2.7,13,6.6,21c4.1,8.5,20.5,41.9,20.5,41.9s-6.6,8.3-12.9,25.1l-3.4-0.4c-5-0.6-9.5,2.9-10.1,7.8
		c-0.4,2.8,0.6,5.5,2.5,7.4l-9.2,4.1c-4.6,2-6.6,7.4-4.6,12l0,0c2,4.6,7.4,6.6,12,4.6l5.1-2.3l-5.4,6.5c-3.2,3.9-2.6,9.6,1.2,12.7
		c3.9,3.2,9.6,2.6,12.7-1.2l4.4-5.3l-0.9,2c-1.9,4.6,0.2,9.9,4.8,11.9s9.9-0.2,11.9-4.8l0.8-2c1.6,0.3,3.2,0.5,4.8,0.5
		c19.7,0.6,44.5-1.7,60.1-14.8C678.5,703.7,665.3,680,665.3,680z"/>
</g>
</svg>
