<?xml version="1.0" encoding="utf-8"?>
<!-- Generator: Adobe Illustrator 24.0.1, SVG Export Plug-In . SVG Version: 6.00 Build 0)  -->
<svg version="1.1" id="Layer_1" xmlns="http://www.w3.org/2000/svg" xmlns:xlink="http://www.w3.org/1999/xlink" x="0px" y="0px"
	 viewBox="0 0 800 800" style="enable-background:new 0 0 800 800;" xml:space="preserve">
<style type="text/css">
	.st0{fill:#FFFFFF;}
</style>
<path id="white" class="st0" d="M509.5,311.1c0,0-3.7-9,2-16s15.8-9.1,21.7-8.6s8.5,5.3,5.8,14.6c-1,3.3-4.7,10.1-6.1,17.9
	c-1.8,10.1-11.1,10.9-15.6,9.6C504.9,321.3,509.5,311.1,509.5,311.1z"/>
<g id="black">
	<path d="M543.9,293.3c-0.2-1.1-0.6-2.2-1.1-3.4c-0.3-0.6-0.6-1.1-1-1.7c-0.2-0.3-0.4-0.6-0.8-0.9c-0.2-0.2-0.3-0.3-0.5-0.4
		c-0.1-0.1-0.3-0.2-0.4-0.3c0,0-2.8-3-9.6-2.7s-12.4,3-12.4,3c-1.8,0.9-3.4,2.2-4.1,4.4l0.3,0.4c2.2,0,3.8-0.4,5.4-0.9
		c1.6-0.4,3.3-0.7,4.9-0.8c3.2-0.2,6.6,0.1,9.6,1.1c0.4,0.1,3.1,0.9,3.4,1.9c0.7,1.8-1.9,7.8-1.9,7.8c-0.6,1.5-1.4,3-2.2,4.4
		c-0.5,0.9-1.1,1.7-1.7,2.5l-0.3,0.3l-2.7-3.5c-0.4-0.6-1.1-0.9-1.8-0.8l-12.8,1.6c-0.7,0.1-1.3,0.5-1.6,1.2l-1.9,4.4
		c-0.2-0.6-0.4-1.2-0.5-1.8c-0.4-1.7-0.6-3.5-0.7-5.4l-0.5-0.1c-0.8,1.3-1.8,4.6-1.4,7.7c0,0,0.1,2.1,1.1,4.6l-1.1,2.5
		c-0.3,0.7-0.2,1.4,0.2,2l7.8,10.3c0.4,0.6,1.1,0.9,1.8,0.8l12.8-1.6c0.7-0.1,1.3-0.5,1.6-1.2l5-11.9c0.3-0.6,0.2-1.4-0.2-2
		l-0.7-0.9c1.6-1.7,2.9-3.5,4.1-5.4c1.1-1.7,2-3.5,2.7-5.4c0.4-0.9,0.7-1.9,1-2.9c0.1-0.5,0.3-0.9,0.4-1.6c0.2-0.7,0.2-1.3,0.2-1.9
		C544.2,295.6,544.1,294.5,543.9,293.3z M526.8,308.4l4.5,6l-3.5-0.7l-2.5-3.3L526.8,308.4z M525.6,314.1l-1.1,2.7l-2.9,0.4
		l-1.7-2.3l1.1-2.7l2.9-0.4L525.6,314.1z M524.9,308C524.9,308,525,308,524.9,308l-0.7,2l-4,0.5l-1.8-1.7L524.9,308z M515.4,310.1
		l3.9,1.1l-1.5,3.6l-5,1.6L515.4,310.1z M515.8,324.5l-3.2-4.2l5.5-4.5l2.3,3L515.8,324.5z M520.9,327.1l1.1-8l3.1-0.3l1.9,7.6
		L520.9,327.1z M530.2,322.6l-3.9-5l1.3-3.1l5.2,1.9L530.2,322.6z"/>
	<path d="M528.9,302.1c0,0.5,0.1,1,0.2,1.7c0,0.1,0.1,0.2,0.2,0.2c0.6-0.2,1.2-0.5,1.7-0.9c0.5-0.4,0.8-0.8,1.2-1.3
		c0.3-0.5,0.5-1,0.7-1.6c0.1-0.3,0.1-0.6,0.2-1c0-0.2,0-0.4,0-0.7c0-0.1,0-0.3-0.1-0.5c0-0.1,0-0.2-0.1-0.4c0-0.1-0.1-0.1-0.1-0.3
		c-0.1-0.1-0.2-0.3-0.3-0.4c-0.2-0.2-0.5-0.4-0.8-0.6l-0.2-0.1c-1.5-0.6-3.1-0.8-4.6-0.7s-2.9,0.4-4.3,0.9c-1.4,0.5-2.7,1-3.8,1.7
		c-1.2,0.8-2.3,1.7-3.1,3v0.1c-0.1,0.3-0.1,0.3,0,0.4c1.5,0.1,2.9,0,4.1-0.2c1.3-0.2,2.5-0.5,3.7-0.7s2.4-0.3,3.5-0.4
		c0.6,0,1.2,0,1.8,0c0,0.1,0,0.3,0,0.4C528.8,301.1,528.8,301.6,528.9,302.1z"/>
</g>
</svg>
