<?xml version="1.0" encoding="utf-8"?>
<!-- Generator: Adobe Illustrator 24.0.1, SVG Export Plug-In . SVG Version: 6.00 Build 0)  -->
<svg version="1.1" id="Layer_1" xmlns="http://www.w3.org/2000/svg" xmlns:xlink="http://www.w3.org/1999/xlink" x="0px" y="0px"
	 viewBox="0 0 800 800" style="enable-background:new 0 0 800 800;" xml:space="preserve">
<style type="text/css">
	.st0{fill:#FFFFFF;}
</style>
<path id="white" class="st0" d="M515,318.4c0,0-5.1-0.6-5.5-6.9s-3.7-12.8,0.2-16.9c4-4.1,23.9-12.8,31.2-16.4
	c13.3-6.6,37.4-5.1,37.4-5.1S527,324,515,318.4z"/>
<g id="black">
	<path d="M517.8,300.8c3.6-1.2,6.9-2.6,10.3-4l10-4.2c3.3-1.4,6.6-2.8,10-4.1c3.3-1.4,6.7-2.5,10.2-4c0.2,0,0.3-0.2,0.3-0.4
		s-0.2-0.5-0.5-0.5c-0.9-0.1-1.8-0.1-2.8-0.1c-0.9-0.1-1.9,0-2.8,0.1c-0.9,0.1-1.9,0.2-2.8,0.3c-0.9,0.2-1.9,0.3-2.8,0.5
		c-3.7,0.8-7.3,1.9-10.8,3.3c-3.5,1.5-6.8,3.1-10,5.2c-3.2,2-6.2,4.4-8.7,7.3c-0.2,0.2-0.2,0.4-0.3,0.3
		C517.2,300.7,517.5,300.9,517.8,300.8z"/>
	<path d="M586,273c-0.4-0.8-1.2-1.6-2-2c-0.2-0.1-0.4-0.2-0.6-0.3l-0.3-0.1l-0.2-0.1l-0.3-0.1l-1.1-0.2l-2.2-0.5
		c-0.7-0.1-1.5-0.3-2.2-0.5l-2.2-0.3c-1.5-0.2-3-0.5-4.5-0.5c-1.5-0.1-3-0.3-4.5-0.3c-6-0.2-12.1,0.5-18,2s-11.5,3.9-16.7,6.8
		s-5.5,2.9-10.1,6.6c-1.7,1.4-9.4,10-8,11.7c1.4,1.7,1.8,0,12.3-6.5c10.6-6.5,24.6-10.8,24.6-10.8c5.1-1.3,10.5-1.9,15.8-1.8
		c1.3,0,2.7,0.2,4,0.2c0.9,0,1.8,0.2,2.7,0.3c-2,1.1-4,2.2-6,3.4c-5,3-9.8,6.2-14.5,9.6s-9.3,7-13.7,10.9c-3.7,3.3-7.2,7-10.2,11.1
		H528c-0.3,0.2-0.5,0.4-0.8,0.6c-2.5,1.9-5.6,2.8-8.6,3c-1.5,0.1-2.8,0.1-3.9-0.1c-1.1-0.2-1.9-0.7-2.7-1.8s-1.3-2.6-1.7-4.3
		c-0.4-1.7-0.6-3.5-0.7-5.4l-0.5-0.1c0,0-1.4,2.5-1.3,7.1c0.1,5.9,4.3,9.9,5.4,10.5c2.4,1.1,4.8,1.2,6.9,1c4.2-0.5,6.5-1.2,11.7-4.6
		s7.7-8.2,11.1-11.8s8.5-7.1,13.2-10.2c4.6-3.1,9.4-6.1,14.3-8.8c2.4-1.4,4.9-2.7,7.4-4c1.2-0.6,2.5-1.3,3.7-1.9l1.9-0.9l0.5-0.2
		l0.1-0.1c0.2-0.1,0.4-0.2,0.6-0.3c0.4-0.3,0.8-0.6,1.1-1c0.6-0.8,1-1.7,1.1-2.7C586.6,274.8,586.4,273.8,586,273z"/>
</g>
</svg>
