<?xml version="1.0" encoding="utf-8"?>
<!-- Generator: Adobe Illustrator 24.0.1, SVG Export Plug-In . SVG Version: 6.00 Build 0)  -->
<svg version="1.1" id="Layer_1" xmlns="http://www.w3.org/2000/svg" xmlns:xlink="http://www.w3.org/1999/xlink" x="0px" y="0px"
	 viewBox="0 0 800 800" style="enable-background:new 0 0 800 800;" xml:space="preserve">
<style type="text/css">
	.st0{fill:#FFFFFF;}
</style>
<path id="white" class="st0" d="M533.2,286.5c-5.9-0.5-16,1.6-21.7,8.6s-2,16-2,16s0,1.8,1.6,3.6c0,0.5,0,0.9,0,1.4L497,336.6
	c0,0,8.8,7.1,11.8,6.3c2.2-0.7,14.3-19.6,20.4-29.2c4.5-3.2,8.5-7.9,9.8-12.6C541.7,291.8,539.1,287,533.2,286.5z"/>
<path id="black" d="M543.9,293.3c-0.2-1.1-0.6-2.2-1.1-3.4c-0.3-0.6-0.6-1.1-1-1.7c-0.2-0.3-0.4-0.6-0.8-0.9
	c-0.2-0.2-0.3-0.3-0.5-0.4c-0.1-0.1-0.3-0.2-0.4-0.3c0,0-2.8-3-9.6-2.7s-12.4,3-12.4,3c-1.8,0.9-3.4,2.2-4.1,4.4l0.3,0.4
	c2.2,0,3.8-0.4,5.4-0.9c1.6-0.4,3.3-0.7,4.9-0.8c3.2-0.2,6.6,0.1,9.6,1.1c0.4,0.1,3.1,0.9,3.4,1.9c0.6,1.4-1,5.5-1.6,7.1
	c-1-2.7-3.3-5-7.7-5.9c-12.5-2.8-23.1,10.6-20.4,18.3c-0.9,1.7-2.9,5.1-4.6,7.5c-1.9,2.8-4,5.6-6.1,8.3l-3.1,4l-0.2,0.3l-0.2,0.4
	c-0.1,0.3-0.3,0.5-0.4,0.8c-0.2,0.5-0.4,1.1-0.5,1.7c-0.1,0.6-0.1,1.2,0,1.8l0.1,0.4l0.1,0.2l0.1,0.5c0.3,1.3,0.9,2.4,1.6,3.5
	c1.4,2.2,3.5,3.9,5.5,4.8c2.1,1,4.5,1.8,7.3,1.5h0.4c0.2,0,0.3-0.1,0.5-0.1c0.3-0.1,0.6-0.2,0.9-0.3c0.6-0.2,1.1-0.5,1.6-0.9
	c0.5-0.4,0.9-0.8,1.3-1.2c0.1-0.1,0.2-0.2,0.3-0.3l0.1-0.1l0.2-0.3l1.4-2.1l2.8-4.3c1.9-2.9,3.8-5.7,5.7-8.6c3-4.5,6.7-8.5,9.8-13
	c3-2.3,5.5-5.3,7.4-8.4c1.1-1.7,2-3.5,2.7-5.4c0.4-0.9,0.7-1.9,1-2.9c0.1-0.5,0.3-0.9,0.4-1.6c0.2-0.7,0.2-1.3,0.2-1.9
	C544.2,295.6,544.1,294.5,543.9,293.3z M517.2,325.1c-0.4,0.5-0.8,1-1.2,1.5c-1.8,2.5-3.7,4.9-5.6,7.4l-3.2,4.1l-1.2,1.6
	c-0.6-0.1-1.3-0.3-1.9-0.7c-0.2-0.1-0.5-0.3-0.7-0.4c-0.2-0.1-0.4-0.3-0.6-0.4c-0.4-0.3-0.7-0.6-0.9-1c-0.2-0.3-0.3-0.5-0.5-0.8
	l2.2-3.6c1.8-3,3.6-5.9,5.5-8.7c1.9-2.9,3.9-5.6,6.2-8.4l2.5-3.1c0,0-3.7,0.3-4.5-2.1c-2-6.6,11.8-14.5,16.3-9.6
	c1,0.8,1.3,5.5-0.6,8.7C525.9,314.8,519.2,322.7,517.2,325.1z"/>
</svg>
