<?xml version="1.0" encoding="utf-8"?>
<!-- Generator: Adobe Illustrator 24.0.1, SVG Export Plug-In . SVG Version: 6.00 Build 0)  -->
<svg version="1.1" id="Layer_1" xmlns="http://www.w3.org/2000/svg" xmlns:xlink="http://www.w3.org/1999/xlink" x="0px" y="0px"
	 viewBox="0 0 800 800" style="enable-background:new 0 0 800 800;" xml:space="preserve">
<style type="text/css">
	.st0{fill:#FFFFFF;}
</style>
<g>
	<path id="white" class="st0" d="M533.2,286.5c-5.9-0.5-16,1.6-21.7,8.6c-4.7,5.8-3,13-2.3,15.3c-2.4,2.9-4.4,6.9-4.6,10.1
		c-0.5,6.3,5.1,14.1,15.6,12.8c10.5-1.4,6.4-12.9,6.4-12.9c-1.8,0.7-3.5,1.2-3.5,1.2s-2.1,2.4-4.5,4.8c-2.3,2.3-4.4-0.2-4.9-7.8
		c-0.1-0.8,0-1.4,0-2c0.8,0.4,1.6,0.8,2.7,1.1c6.9,2,19.9-7.3,22.6-16.6C541.7,291.8,539.1,287,533.2,286.5z"/>
	<g id="black">
		<path d="M543.9,293.3c-0.2-1.1-0.6-2.2-1.1-3.4c-0.3-0.6-0.6-1.1-1-1.7c-0.2-0.3-0.4-0.6-0.8-0.9c-0.2-0.2-0.3-0.3-0.5-0.4
			c-0.1-0.1-0.3-0.2-0.4-0.3c0,0-2.8-3-9.6-2.7s-12.4,3-12.4,3c-1.8,0.9-3.4,2.2-4.1,4.4l0.3,0.4c2.2,0,3.8-0.4,5.4-0.9
			c1.6-0.4,3.3-0.7,4.9-0.8c3.2-0.2,6.6,0.1,9.6,1.1c0.4,0.1,3.1,0.9,3.4,1.9c0.7,1.8-1.9,7.8-1.9,7.8c-0.6,1.5-1.4,3-2.2,4.4
			c-1.7,2.8-3.9,5.3-6.4,7.1c-2.3,1.7-5,2.6-7.7,2.9c0.4-0.3,0.7-0.7,1-1.1c1.1-1.5,1.2-3.5,0.7-5.2s-1.6-3.1-3-4s-3.3-1.2-4.8-0.5
			c-0.2,0.1-0.4,0.3-0.5,0.5c-0.1,0.3,0,0.5,0.2,0.7c-0.9,0.1-1.8,0.3-2.7,0.6c-0.2,0.1-0.4,0.2-0.5,0.2c-0.1-0.9-0.2-1.8-0.3-2.7
			l-0.5-0.1c-0.5,0.8-1,2.2-1.3,4c-0.6,0.4-1.2,0.9-1.8,1.3c-2.5,2.4-4.2,5.6-4.7,9.1c-0.6,3.4-0.1,7,1.2,10.2
			c1.3,3.2,3.6,6.2,6.8,8.1c3.1,1.9,7.1,2.7,10.7,1.7c3.7-0.9,6.8-3.2,8.7-6.2c2-2.9,3-6.4,3-9.8c0-1.4-0.2-2.7-0.5-4
			c0.2-0.1,0.4-0.2,0.6-0.4c3.4-2.4,6.1-5.6,8.2-9c1.1-1.7,2-3.5,2.7-5.4c0.4-0.9,0.7-1.9,1-2.9c0.1-0.5,0.3-0.9,0.4-1.6
			c0.2-0.7,0.2-1.3,0.2-1.9C544.2,295.6,544.1,294.5,543.9,293.3z M517.2,322.9c0,0.6-0.2,1.1-0.3,1.4c-0.1-0.1-0.3-0.3-0.4-0.6
			c-0.3-0.5-0.5-1-0.7-1.6c0.4,0.1,0.9,0.1,1.3,0.1C517.2,322.5,517.2,322.7,517.2,322.9z M524.1,328.6c-1.4,1.8-3.3,3.2-5.4,3.6
			c-2.1,0.4-4.3,0.1-6.2-1.1c-1.9-1.2-3.4-3-4.4-5.2c-0.9-2.2-1.3-4.6-1-7c0.5-4.6,3.2-9.2,8.2-10.9c0.3-0.1,0.5-0.1,0.8,0
			c0.5,0.2,1.1,0.7,1.3,2c0.3,2.1-0.5,3-0.5,3c-0.2-0.1-0.4-0.2-0.7-0.1c-0.9,0-1.7,0.5-2.3,1s-0.9,1-1.2,1.6
			c-0.6,1.1-0.9,2.2-1.1,3.4c-0.3,2.3-0.2,4.5,0.8,6.8c0.2,0.6,0.6,1.2,1,1.7c0.5,0.6,1,1.2,1.9,1.6s2.2,0.6,3.2,0.2
			c1.1-0.4,1.8-1,2.4-1.6c1-1.3,1.5-2.5,1.8-3.7c0.2-0.8,0.3-1.5,0.3-2.3c1.2-0.3,2.4-0.7,3.5-1.2
			C526.6,323.4,525.8,326.3,524.1,328.6z"/>
		<path d="M528.9,302.1c0,0.5,0.1,1,0.2,1.7c0,0.1,0.1,0.2,0.2,0.2c0.6-0.2,1.2-0.5,1.7-0.9s0.8-0.8,1.2-1.3c0.3-0.5,0.5-1,0.7-1.6
			c0.1-0.3,0.1-0.6,0.2-1c0-0.2,0-0.4,0-0.7c0-0.1,0-0.3-0.1-0.5c0-0.1,0-0.2-0.1-0.4c0-0.1-0.1-0.1-0.1-0.3
			c-0.1-0.1-0.2-0.3-0.3-0.4c-0.2-0.2-0.5-0.4-0.8-0.6l-0.2-0.1c-1.5-0.6-3.1-0.8-4.6-0.7s-2.9,0.4-4.3,0.9c-1.4,0.5-2.7,1-3.8,1.7
			c-1.2,0.8-2.3,1.7-3.1,3v0.1c-0.1,0.3-0.1,0.3,0,0.4c1.5,0.1,2.9,0,4.1-0.2c1.3-0.2,2.5-0.5,3.7-0.7s2.4-0.3,3.5-0.4
			c0.6,0,1.2,0,1.8,0c0,0.1,0,0.3,0,0.4C528.8,301.1,528.8,301.6,528.9,302.1z"/>
	</g>
</g>
</svg>
