<?xml version="1.0" encoding="utf-8"?>
<!-- Generator: Adobe Illustrator 24.0.1, SVG Export Plug-In . SVG Version: 6.00 Build 0)  -->
<svg version="1.1" id="Layer_1" xmlns="http://www.w3.org/2000/svg" xmlns:xlink="http://www.w3.org/1999/xlink" x="0px" y="0px"
	 viewBox="0 0 800 800" style="enable-background:new 0 0 800 800;" xml:space="preserve">
<path id="white" d="M530.8,333.4c-1.9,2.6-14.3-4.1-8.2-11.9C526.3,316.8,537,324.9,530.8,333.4z M503.4,318.6
	c0,0,3.1-18.3,7.2-23.2c0,0,3.2-6,12-8.2s19,0.7,19.5,7.4c0.5,6.7-4.6,17-4.6,17s10.8,13.8,4.1,22.3s-11.3,9.1-11.3,9.1
	s-6.7,8.3-16.9,1S503.1,323.8,503.4,318.6z"/>
<g id="black">
	<path d="M546.7,321.3c-0.9-4.5-3.2-8.3-6.3-11.1c2.7-4.5,4-8.1,4.6-10.9c1.6-7.6-1.9-10.6-2.3-11l-0.1-0.1l-0.2-0.2
		c-4.9-3.6-10.3-4.5-15.1-3.9c-1.1,0.2-2.2,0.4-3.2,0.7c-2.7,0.8-5,1.9-6.7,3c-2.3,1.5-3.4,2.9-3.4,2.9c-0.3,0.2-0.4,0.6-0.2,0.9
		s0.6,0.4,0.9,0.2c0,0,1.5-0.4,3.9-1c0.3-0.1,0.6-0.2,0.9-0.3c2.1-0.6,4.7-1.1,7.6-1.2c1-0.1,2.1-0.1,3.1-0.1c2.9,0.1,6,1,8.8,3.1
		c0.3,0.4,1.6,2.5,0,7.6c-0.6,2-1.7,4.3-3.3,7.1c-3.4-1.6-7.3-2.2-11.2-1.4c-4.9,1-9.1,3.9-11.8,8.3c-2.7,4.3-3.6,9.5-2.6,14.6
		c1.6,7.7,7.3,13.5,14.2,15.3c-0.4,0.1-0.8,0.1-1.2,0.1c-2.4,0-5.3-0.9-8.2-3.2c-4.5-3.5-6.9-7.8-8.2-12.1c-0.8-2.7-1.1-5.4-1.2-8
		c-0.1-3.1,0.2-5.9,0.4-8.3c0.4-4.4,0.8-7.4,0.8-7.4c0.1-0.2,0-0.5-0.2-0.6s-0.5,0-0.6,0.2c0,0-1.4,1.9-2.9,5.3
		c-0.3,0.8-0.6,1.6-0.9,2.5c-1.1,3.7-1.6,8.3-1.2,13.1c0.2,2.9,0.9,5.9,2.2,8.8c1.7,3.9,4.3,7.8,8.4,10.8c4.6,3.4,12.4,3.6,15.7,2.9
		c3.9-0.8,5.4-2.6,6.8-4.5C543.1,340.9,548.7,331.3,546.7,321.3z M531.2,338.8c-7.1,1.4-14.1-3.6-15.6-11.2
		c-0.7-3.7-0.1-7.5,1.8-10.6c1.9-3.1,4.8-5.1,8.2-5.8c0.8-0.2,1.6-0.2,2.4-0.2c6.2,0,11.8,4.7,13.2,11.5
		C542.8,330,538.3,337.4,531.2,338.8z"/>
	<path d="M535.7,314.6c-2.6-1.9-5.8-2.5-8.8-1.9c-6.3,1.3-10.3,7.6-9,14.2c1.2,5.8,6.1,9.9,11.6,9.9
		c0.7,0,1.5-0.1,2.2-0.2c3.1-0.6,5.7-2.5,7.4-5.2s2.2-5.9,1.6-9C540,319.1,538.3,316.4,535.7,314.6z M530.5,331.1
		c-3.3,0.6-6.6-1.7-7.3-5.3c-0.2-1.1-0.2-2.1,0.1-3.1c3.3-0.6,6.6,1.7,7.3,5.3C530.8,329.1,530.8,330.1,530.5,331.1z M528.6,317.9
		c1.4-0.1,2.7,0.3,3.9,1.1c1.4,1,2.4,2.5,2.8,4.3c0.1,0.6,0.1,1.1,0.1,1.6C534.2,321.7,531.6,319.2,528.6,317.9z"/>
	<path d="M530.4,303.1c0.7,0.6,2.9-1.5,3.5-2.5s1.1-4.4-3-5.7c-0.8-0.2-3.9-0.6-5.7-0.1c-1.5,0.4-2.9,0.9-4.2,1.7
		c-3.1,1.9-4.8,4.2-4.8,4.2c-0.2,0.1-0.2,0.4-0.1,0.6c0.1,0.2,0.4,0.2,0.6,0.1c0,0,2-0.7,4.7-1.2c0.9-0.2,1.9-0.3,3-0.4
		c1.3-0.1,2.7-0.1,4,0.2c0.5,0.1,1.3,0.4,1.8,0.7C530.9,301.1,530.1,302.8,530.4,303.1z"/>
</g>
</svg>
