<?xml version="1.0" encoding="utf-8"?>
<!-- Generator: Adobe Illustrator 26.0.1, SVG Export Plug-In . SVG Version: 6.00 Build 0)  -->
<svg version="1.1" id="donkey" xmlns="http://www.w3.org/2000/svg" xmlns:xlink="http://www.w3.org/1999/xlink" x="0px" y="0px"
	 viewBox="0 0 1000 1000" enable-background="new 0 0 1000 1000" xml:space="preserve">
<g id="skin2-D">
	<path fill="#E3B346" d="M499,562.1c-59.4,5.1-91.9,44.8-73.3,93c11.3,29.3,39.1,1.3,73.3,18.4c34.3-17.2,62,10.8,73.3-18.4
		C590.9,606.9,558.4,567.2,499,562.1z"/>
	<path fill="#E3B346" d="M499,684.8c-24.7-12.4-46.1-1.2-60.3-5.1c0.5,5.1,1.7,10.5,3.8,16c8.7,22.6,30.1,1,56.5,14.2
		c26.4-13.2,47.7,8.4,56.5-14.2c2.1-5.5,3.4-10.8,3.8-16C545.1,683.6,523.7,672.4,499,684.8z"/>
	<path fill="#E3B346" d="M499,719.9c-17.9-9-33.4-0.9-43.7-3.7c0.3,3.7,1.2,7.6,2.8,11.6c6.3,16.4,21.8,0.7,41,10.3
		c19.1-9.6,34.6,6.1,41-10.3c1.5-4,2.4-7.9,2.8-11.6C532.4,719,516.9,710.9,499,719.9z"/>
</g>
</svg>
