<?xml version="1.0" encoding="utf-8"?>
<!-- Generator: Adobe Illustrator 26.0.1, SVG Export Plug-In . SVG Version: 6.00 Build 0)  -->
<svg version="1.1" id="skin2" xmlns="http://www.w3.org/2000/svg" xmlns:xlink="http://www.w3.org/1999/xlink" x="0px" y="0px"
	 viewBox="0 0 1000 1000" enable-background="new 0 0 1000 1000" xml:space="preserve">
<path id="skin2-D" fill="#FFCFBF" d="M528.5,560.7c-1.8-0.6-3.6-1.1-5.4-1.6c-6.2-2.5-14.2-3.8-23.2-3.5c-8.9-0.2-17,1-23.2,3.5
	c-1.8,0.5-3.6,1-5.4,1.6c-26.9,9-42.6,89.6-35.1,102.2c7.5,12.6,35.3,15.5,62.2,6.6c0.5-0.2,1-0.3,1.5-0.5c0.5,0.2,1,0.3,1.5,0.5
	c26.9,9,54.8,6,62.2-6.6C571.2,650.4,555.4,569.7,528.5,560.7z"/>
</svg>
