<?xml version="1.0" encoding="utf-8"?>
<!-- Generator: Adobe Illustrator 26.0.1, SVG Export Plug-In . SVG Version: 6.00 Build 0)  -->
<svg version="1.1" id="cow" xmlns="http://www.w3.org/2000/svg" xmlns:xlink="http://www.w3.org/1999/xlink" x="0px" y="0px"
	 viewBox="0 0 1000 1000" enable-background="new 0 0 1000 1000" xml:space="preserve">
<path id="skin2-D" fill="#BECDEA" d="M498.5,617c-36.1,0-65.3-30-65.3,35s29.2,108.5,65.3,108.5c36,0,65.3-43.5,65.3-108.5
	S534.6,617,498.5,617z M479.6,735.9c-3.8,3.8-10,3.8-13.8,0c-3.8-3.8-3.8-10,0-13.8c3.8-3.8,10-3.8,13.8,0
	C483.4,725.9,483.4,732.1,479.6,735.9z M479.6,707.6c-3.8,3.8-10,3.8-13.8,0c-3.8-3.8-3.8-10,0-13.8c3.8-3.8,10-3.8,13.8,0
	C483.4,697.6,483.4,703.7,479.6,707.6z M498.5,754.5c-5.4,0-9.8-4.4-9.8-9.8c0-5.4,4.4-9.8,9.8-9.8c5.4,0,9.8,4.4,9.8,9.8
	C508.3,750.1,503.9,754.5,498.5,754.5z M498.5,694.7c-5.4,0-9.8-4.4-9.8-9.8c0-5.4,4.4-9.8,9.8-9.8c5.4,0,9.8,4.4,9.8,9.8
	C508.3,690.3,503.9,694.7,498.5,694.7z M531.2,735.9c-3.8,3.8-10,3.8-13.8,0c-3.8-3.8-3.8-10,0-13.8c3.8-3.8,10-3.8,13.8,0
	C535.1,725.9,535.1,732.1,531.2,735.9z M531.2,707.6c-3.8,3.8-10,3.8-13.8,0c-3.8-3.8-3.8-10,0-13.8c3.8-3.8,10-3.8,13.8,0
	S535.1,703.7,531.2,707.6z"/>
</svg>
