<?xml version="1.0" encoding="utf-8"?>
<!-- Generator: Adobe Illustrator 26.0.1, SVG Export Plug-In . SVG Version: 6.00 Build 0)  -->
<svg version="1.1" id="bulldog" xmlns="http://www.w3.org/2000/svg" xmlns:xlink="http://www.w3.org/1999/xlink" x="0px" y="0px"
	 viewBox="0 0 1000 1000" enable-background="new 0 0 1000 1000" xml:space="preserve">
<path id="skin2-D" fill="#BECDEA" d="M499,558.7c-37.1,0-67.2,53.3-67.2,103.3c0,50,30.1,77.9,67.2,77.9s67.2-27.9,67.2-77.9
	C566.2,612,536.1,558.7,499,558.7z M537.8,696.7c-11.5-4.7-24.7-7.4-38.8-7.4s-27.3,2.7-38.8,7.4c-0.7,0.3-1.3-0.6-0.7-1.1
	c10.4-9.5,24.3-15.2,39.5-15.2c15.2,0,29,5.8,39.5,15.2C539,696.1,538.5,697,537.8,696.7z"/>
</svg>
