<?xml version="1.0" encoding="utf-8"?>
<!-- Generator: Adobe Illustrator 26.0.1, SVG Export Plug-In . SVG Version: 6.00 Build 0)  -->
<svg version="1.1" id="lynx" xmlns="http://www.w3.org/2000/svg" xmlns:xlink="http://www.w3.org/1999/xlink" x="0px" y="0px"
	 viewBox="0 0 1000 1000" enable-background="new 0 0 1000 1000" xml:space="preserve">
<g id="skin2-D">
	<path id="skin2-D_00000129890766420277206080000012175617558817504128_" fill="#FFECE9" d="M517.6,705.8
		c12.2-31.2,35.7-51.9,60.1-49.7c1.7,0.1,3.3,0.4,4.9,0.8c8.5-20.1,7.6-38.9-4.8-50.6c-16.2-15.3-47.6-14.1-78.9,0.8
		c-31.2-14.9-62.6-16.2-78.9-0.8c-12.4,11.7-13.3,30.5-4.8,50.6c1.6-0.4,3.2-0.6,4.9-0.8c24.5-2.2,47.9,18.5,60.1,49.7
		c2.4,6.2,4.4,12.7,5.8,19.6c4.3,2,8.6,3.7,12.8,5.2c4.2-1.5,8.5-3.2,12.8-5.2C513.3,718.5,515.2,711.9,517.6,705.8z"/>
</g>
</svg>
