<?xml version="1.0" encoding="utf-8"?>
<!-- Generator: Adobe Illustrator 26.0.1, SVG Export Plug-In . SVG Version: 6.00 Build 0)  -->
<svg version="1.1" id="squirrel" xmlns="http://www.w3.org/2000/svg" xmlns:xlink="http://www.w3.org/1999/xlink" x="0px" y="0px"
	 viewBox="0 0 1000 1000" enable-background="new 0 0 1000 1000" xml:space="preserve">
<path id="skin2-D" fill="#B8D8FF" d="M417.9,606.7L417.9,606.7c-1.2,2.9-1.9,6.2-1.9,9.6c0,10.9,7,20,16.3,21.8c0,0.1,0,0.2,0,0.3
	c0,11.6,7.9,21,18,22c0.1,0.1,0.2,0.1,0.2,0.2c1.9,8.9,8.5,15.7,16.8,16.8c3.3,7.2,9.9,12.1,17.6,12.1c0.7,0,1.4,0,2.1-0.1
	c0,0,0.1,0,0.1,0.1c8,4.7,17.9,4.7,25.9,0l0.1-0.1c0.7,0.1,1.4,0.1,2.1,0.1c7.7,0,14.3-4.9,17.6-12.1c8.2-1.1,14.9-7.9,16.8-16.8
	c0.1-0.1,0.2-0.1,0.2-0.2c10.1-1,18-10.5,18-22c0-0.1,0-0.2,0-0.3c9.3-1.8,16.3-10.9,16.3-21.8c0-3.4-0.7-6.7-1.9-9.6c0,0,0,0,0,0
	c2.1-6.2-2.6-12.5-9.1-12.5H427C420.5,594.2,415.9,600.5,417.9,606.7z"/>
</svg>
