<?xml version="1.0" encoding="utf-8"?>
<!-- Generator: Adobe Illustrator 26.0.1, SVG Export Plug-In . SVG Version: 6.00 Build 0)  -->
<svg version="1.1" id="duck" xmlns="http://www.w3.org/2000/svg" xmlns:xlink="http://www.w3.org/1999/xlink" x="0px" y="0px"
	 viewBox="0 0 1000 1000" enable-background="new 0 0 1000 1000" xml:space="preserve">
<g id="skin2-D_00000068653838515749545120000001887992079146418850_">
	<path id="skin2-D" fill="#FFFFBB" d="M584.1,620.3c-0.5-1-1.4-3-2.9-4.8c-6.4-12.1-40.4-21.3-81.2-21.3c-40.9,0-74.8,9.2-81.2,21.3
		c-1.5,1.8-2.4,3.7-2.9,4.8c-1.5,3.2-1.3,18.1,4,28.2c3.3,0.4,6.6-0.1,9.7-1.2c1.6,6.7,6.2,17.9,13.2,25.1c4.5-0.7,8.8-3.1,12.2-6
		c1.9,6.3,7,16.5,14.3,22.5c4.9-1.3,9.5-4.4,13-7.7c1.9,5.4,8.7,15.7,17.7,20.2c9-4.6,15.8-14.8,17.7-20.2c3.5,3.3,8,6.4,13,7.7
		c7.3-6,12.4-16.2,14.3-22.5c3.4,2.8,7.7,5.2,12.2,6c7-7.1,11.6-18.4,13.2-25.1c3.1,1,6.4,1.6,9.7,1.2
		C585.4,638.5,585.6,623.5,584.1,620.3z"/>
</g>
</svg>
