<?xml version="1.0" encoding="utf-8"?>
<!-- Generator: Adobe Illustrator 26.0.1, SVG Export Plug-In . SVG Version: 6.00 Build 0)  -->
<svg version="1.1" id="turtle" xmlns="http://www.w3.org/2000/svg" xmlns:xlink="http://www.w3.org/1999/xlink" x="0px" y="0px"
	 viewBox="0 0 1000 1000" enable-background="new 0 0 1000 1000" xml:space="preserve">
<path id="skin2-D" fill="#FFFFBB" d="M499,623.3c-47.9,0-86.8,28.7-86.8,64c0,35.3,38.8,94.5,86.8,94.5c47.9,0,86.8-59.2,86.8-94.5
	C585.8,652,546.9,623.3,499,623.3z M458.3,642.7c11.7-5.6,25.7-8.8,40.7-8.8c15,0,29,3.2,40.7,8.8c2.6,1.2,1.8,4.7-1.1,5
	c-12.3,1-25.8,1.5-39.6,1.5c-13.8,0-27.3-0.5-39.6-1.5C456.5,647.5,455.7,644,458.3,642.7z M427.3,672.4c2.3-5.3,5.6-10.2,9.8-14.6
	c1.6-1.7,4.1-2.6,6.7-2.3c16.3,1.9,35.3,2.9,55.2,2.9c19.9,0,38.9-1,55.2-2.9c2.5-0.3,5,0.6,6.7,2.3c4.2,4.4,7.5,9.4,9.8,14.6
	c1.6,3.8-1.1,8-5.5,8.7c0,0-0.1,0-0.1,0c-18,2.9-41.5,4.5-66,4.5c-24.6,0-48-1.6-66-4.5c0,0-0.1,0-0.1,0
	C428.4,680.4,425.7,676.2,427.3,672.4z M527,763.5c-8.7,4.9-18.1,7.8-28,7.8c-9.9,0-19.4-2.9-28-7.8c-2-1.1-1.1-4,1.3-3.8
	c8.6,0.4,17.6,0.6,26.7,0.6c9.1,0,18.1-0.2,26.7-0.6C528.1,759.6,529.1,762.4,527,763.5z M559.4,731.9c-3.6,5.6-7.8,10.9-12.4,15.8
	c-0.7,0.8-1.7,1.2-2.9,1.3c-13.8,1.3-29.2,1.9-45.1,1.9c-15.9,0-31.3-0.7-45.1-1.9c-1.1-0.1-2.1-0.6-2.9-1.3
	c-4.7-4.9-8.8-10.3-12.4-15.8c-1.8-2.8,0.8-6.2,4.3-5.8c16.5,2,35.8,3,56,3c20.2,0,39.6-1.1,56-3
	C558.6,725.7,561.2,729.2,559.4,731.9z M569.1,711.8c-0.4,1.8-2,3.2-4,3.5c0,0,0,0,0,0c-18,2.9-41.5,4.5-66,4.5
	c-24.6,0-48-1.6-66-4.5c0,0,0,0,0,0c-2-0.3-3.6-1.7-4-3.5l-3.6-16.1c-0.7-3.2,2.4-6,5.9-5.4c10.8,1.8,33.3,4.6,67.8,4.6
	c34.4,0,57-2.8,67.8-4.6c3.6-0.6,6.6,2.2,5.9,5.4L569.1,711.8z"/>
</svg>
