<?xml version="1.0" encoding="utf-8"?>
<!-- Generator: Adobe Illustrator 26.0.1, SVG Export Plug-In . SVG Version: 6.00 Build 0)  -->
<svg version="1.1" id="owl" xmlns="http://www.w3.org/2000/svg" xmlns:xlink="http://www.w3.org/1999/xlink" x="0px" y="0px"
	 viewBox="0 0 1000 1000" enable-background="new 0 0 1000 1000" xml:space="preserve">
<symbol  id="skin2-D" viewBox="-56.4 -68.9 112.8 137.8">
	<path fill="#CEF19A" d="M8.7,68.5C5.3,69,2.4,69,0,68.6C-2.4,69-5.3,69-8.7,68.5C-57.5,60.8-56.4,4.6-56.4,4.6s5,3.4,12,7.8
		C-54.1-2.5-49-18.4-49-18.4s4.2,5.7,10.1,12.8c-6-13.3-2-26-2-26s2.9,3.8,7.1,9C-37-42.3-21.3-56.2-21.3-56.2s0.5,5.5,1.5,12.9
		C-13-56-0.1-68.9-0.1-68.9S12.8-56,19.6-43.3c1-7.4,1.5-12.9,1.5-12.9s15.8,13.9,12.5,33.6c4.2-5.2,7.1-9,7.1-9s4.1,12.7-2,26
		c6-7.1,10.3-12.8,10.3-12.8s5.1,16-4.6,30.8c7-4.4,12-7.8,12-7.8S57.5,60.8,8.7,68.5z"/>
</symbol>
<use xlink:href="#skin2-D"  width="112.8" height="137.8" id="skin2-D" x="-56.4" y="-68.9" transform="matrix(1 0 0 -1 498.9565 662.6863)" overflow="visible"/>
</svg>
