<?xml version="1.0" encoding="utf-8"?>
<!-- Generator: Adobe Illustrator 26.0.1, SVG Export Plug-In . SVG Version: 6.00 Build 0)  -->
<svg version="1.1" id="lion" xmlns="http://www.w3.org/2000/svg" xmlns:xlink="http://www.w3.org/1999/xlink" x="0px" y="0px"
	 viewBox="0 0 1000 1000" enable-background="new 0 0 1000 1000" xml:space="preserve">
<path id="skin2-D" fill="#D6EAE8" d="M446,631.4c0.1,9.3,3.2,18.4,9.3,25.9c3.1,3.8,6.7,6.9,10.7,9.3c0.3,1.6,0.7,3.1,1.2,4.7
	c3.4,10.4,10.4,18.7,19.5,24.4c1.2-3.1,2.1-6.2,2.7-9.4c1.1,10.3,4.9,19.8,10.6,27.8c5.8-8,9.6-17.5,10.6-27.8
	c0.6,3.2,1.5,6.4,2.7,9.4c9.1-5.7,16.1-14,19.5-24.4c0.5-1.6,0.9-3.1,1.2-4.7c4-2.4,7.6-5.5,10.7-9.3c6.1-7.5,9.1-16.6,9.3-25.9
	c0,0-4.5-40.7-54-40.7S446,631.4,446,631.4z"/>
</svg>
