<?xml version="1.0" encoding="utf-8"?>
<!-- Generator: Adobe Illustrator 26.0.1, SVG Export Plug-In . SVG Version: 6.00 Build 0)  -->
<svg version="1.1" id="goat" xmlns="http://www.w3.org/2000/svg" xmlns:xlink="http://www.w3.org/1999/xlink" x="0px" y="0px"
	 viewBox="0 0 1000 1000" enable-background="new 0 0 1000 1000" xml:space="preserve">
<path id="skin2-D" fill="#E3FF6E" d="M505.1,590.9c-49.4-3-58.9,37.1-58.9,37.1c-1,9.2,0.9,18.4,6.1,26.3c2.5,3.8,5.6,7,9.1,9.6
	c2.5-1.8,5.6-3.5,9.4-5c4.3,11.9,14.1,28.9,36.4,42.5c4.3-15.5,9.6-28,16.7-38.3c2.6,1.7,4.7,3.4,6.4,5.1c4.1-2.1,7.9-4.9,11.3-8.3
	c7-7.1,11.1-15.9,12.4-25.1C554.1,634.6,554.6,593.9,505.1,590.9z"/>
</svg>
