<?xml version="1.0" encoding="utf-8"?>
<!-- Generator: Adobe Illustrator 26.0.1, SVG Export Plug-In . SVG Version: 6.00 Build 0)  -->
<svg version="1.1" id="skin2-D" xmlns="http://www.w3.org/2000/svg" xmlns:xlink="http://www.w3.org/1999/xlink" x="0px" y="0px"
	 viewBox="0 0 1000 1000" enable-background="new 0 0 1000 1000" xml:space="preserve">
<g id="XMLID_963_">
	<g>
		<path fill="#B3FFF0" d="M547.4,629.7c-2-17.4-13.7-28.1-26.8-25.1c-1.7,0.4-3.4,0.7-5.1,0.7h-30.9c-1.7,0-3.4-0.3-5.1-0.7
			c-13-3.1-24.8,7.6-26.8,25.1c-1.5,13.1,2.8,26.4,10.4,34.8c4.6,5.1,7.1,12.1,6.6,19.3c-0.2,3.3-0.2,6.6,0,10
			c1.4,18.4,16.8,24.4,30.3,24.4c13.5,0,28.9-5.9,30.3-24.4c0.2-3.3,0.2-6.7,0-10c-0.5-7.2,2-14.2,6.6-19.3
			C544.5,656.1,548.9,642.8,547.4,629.7z"/>
	</g>
</g>
</svg>
