<?xml version="1.0" encoding="utf-8"?>
<!-- Generator: Adobe Illustrator 24.0.1, SVG Export Plug-In . SVG Version: 6.00 Build 0)  -->
<svg version="1.1" id="Layer_1" xmlns="http://www.w3.org/2000/svg" xmlns:xlink="http://www.w3.org/1999/xlink" x="0px" y="0px"
	 viewBox="0 0 1000 1000" style="enable-background:new 0 0 1000 1000;" xml:space="preserve">
<path id="skin2-D" d="M571.9,629.3c0-0.1-0.1-0.2-0.1-0.2c-3.8-12.2-15.1-20.5-27.8-20.5h-88c-12.8,0-24,8.3-27.8,20.5
	c0,0.1-0.1,0.2-0.1,0.2c-2.7,8.7-0.8,35.7,10.6,39.3c5.5,1.7,12.3-2.4,18.1-8c0.1,11.3,3.4,26.2,11.7,28.8
	c5.1,1.6,11.3-1.8,16.8-6.8c1.5,8.7,6,18.8,14.7,18.8s13.2-10.1,14.7-18.8c5.5,5,11.7,8.3,16.8,6.8c8.3-2.6,11.6-17.5,11.7-28.8
	c5.8,5.6,12.6,9.7,18.1,8C572.7,665,574.6,638,571.9,629.3z"/>
</svg>
