<?xml version="1.0" encoding="utf-8"?>
<!-- Generator: Adobe Illustrator 24.0.1, SVG Export Plug-In . SVG Version: 6.00 Build 0)  -->
<svg version="1.1" id="Layer_1" xmlns="http://www.w3.org/2000/svg" xmlns:xlink="http://www.w3.org/1999/xlink" x="0px" y="0px"
	 viewBox="0 0 800 800" style="enable-background:new 0 0 800 800;" xml:space="preserve">
<g id="black">
	<path d="M494.8,258.6c-1.5-0.1-3-0.3-4.4-0.3c-1.5,0-2.9-0.1-4.3-0.1s-2.7-0.1-4.1-0.1c-1.3-0.1-2.7-0.1-4-0.2
		c-1.3,0-2.6-0.1-3.9-0.1c-0.2,0-0.5,0-0.7,0c0-0.1,0-0.1,0-0.2c0.1-0.4,0.1-0.7,0.2-1c0.1-0.6,0.3-1.3,0.4-1.9
		c0.4-1.3,0.7-2.6,1.2-3.8c0.8-2.5,2-4.9,3.4-7.2c0.3-0.6,0.7-1.1,1.1-1.7l0.6-0.8l0.6-0.8l1.3-1.6c0.5-0.5,1-1.1,1.4-1.6
		c0.3-0.3,0.5-0.5,0.7-0.8l0.7-0.8c0.4-0.5,0.9-1.1,1.4-1.6c1-1,2-2,3-3.2l-0.2-0.3c-1.4,0.4-2.9,0.9-4.3,1.5
		c-0.6,0.4-1.3,0.7-2,1.1l-1,0.6c-0.3,0.3-0.6,0.5-0.9,0.7c-0.7,0.5-1.3,0.9-1.9,1.4s-1.1,1.1-1.7,1.6l-0.8,0.8l-0.8,0.9
		c-0.5,0.6-1,1.2-1.5,1.8c-1.9,2.5-3.4,5.4-4.4,8.4c-0.5,1.6-0.9,3.1-1.1,4.7c-0.1,0.8-0.2,1.6-0.2,2.4c0,0.4,0,0.8,0,1.2
		c0,0,0,0,0,0.1c-0.8-0.1-1.7-0.2-2.6-0.4l-0.9,0.3c0.1,1,0.6,1.9,1.1,2.6l0.4,0.6l0.5,0.5c0.3,0.3,0.7,0.6,1,0.9
		c0.4,0.3,0.7,0.5,1.1,0.8l1.1,0.7c0.7,0.4,1.5,0.7,2.3,1c3.1,1.2,6.4,1.2,9.5,1.1c0.8,0,1.5-0.1,2.3-0.2c0.8,0,1.6-0.1,2.3-0.3
		c0.8-0.1,1.6-0.3,2.3-0.5c0.7-0.1,1.5-0.4,2.2-0.6c2.9-1,5.7-2.2,8.3-4l-0.2-1C497.8,258.9,496.3,258.7,494.8,258.6z"/>
	<path d="M447,244.9c1.5-2.2,3.1-4.4,4.8-6.5c1.7-2.2,3.6-4.1,5.4-6.4l-0.2-0.3c-2.7,1.1-5.3,2.5-7.5,4.4c-1.2,0.9-2.2,2-3.2,3
		c-0.5,0.6-0.9,1.1-1.4,1.7c-0.5,0.5-1,1.1-1.4,1.7c-1.8,2.3-3.3,4.8-4.5,7.5c-1.1,2.6-2,5.2-2.5,8.1c-0.4-0.1-0.8-0.3-1.2-0.5
		l-0.7,0.2c-0.4,1.4,0.1,2.8,0.9,3.9c0.8,1.2,1.9,1.9,3,2.5c2.3,1.1,4.7,1.1,6.9,1c2.2-0.2,4.2-0.8,6.2-1.6c1.9-0.8,3.7-1.9,5.4-3.4
		l-0.2-0.8c-2.2-0.4-4.2-0.4-6.1-0.5l-5.6-0.1l-4.9-0.2c0.8-2.2,1.8-4.5,2.9-6.7C444.2,249.5,445.5,247.2,447,244.9z"/>
	<path d="M504.6,224.9c-0.1-0.5-0.2-1.1-0.4-1.6c-0.4-1-0.8-2.1-1.4-3.1c-0.7-0.9-1.3-1.9-2.2-2.7c-0.8-0.8-1.8-1.6-2.8-2.2
		c-2-1.3-4.5-2.2-6.9-2.3c-1.2-0.1-2.4,0-3.6,0.2c-0.6,0.1-1.2,0.3-1.7,0.4l-0.4,0.1c-0.1,0-0.3,0.1-0.4,0.3s-0.2,0.6-0.2,0.9
		c-0.1,0.3-0.1,0.7,0,1.6c0.5,1,0.6,1.3,0.8,1.6c0.2,0.3,0.3,0.6,0.5,0.8c0.1,0.2,0.2,0.2,0.3,0.2h0.3c0.4,0,0.8,0.1,1.1,0.2
		c0.8,0.2,1.5,0.4,2.2,0.7c1.4,0.5,2.6,1.2,3.8,2c1.2,0.8,2.3,1.8,3.4,2.9c0.6,0.5,1.2,1.1,1.9,1.7c0.3,0.3,0.7,0.6,1,0.9l0.5,0.5
		c0.1,0.1,0.3,0.1,0.7,0l0.7-0.2l1.1-0.3l0.9-0.7l0.5-0.5c0.3-0.3,0.4-0.5,0.4-0.6L504.6,224.9z"/>
	<path d="M467.6,216.9h0.2c0.1,0,0.2,0,0.3-0.1c0.1-0.1,0.4-0.4,0.6-0.7c0.2-0.2,0.4-0.5,1-1.3c0.4-0.9,0.5-1.2,0.5-1.5
		s0.1-0.7,0.1-0.9s-0.1-0.3-0.2-0.3l-0.3-0.2c-0.3-0.3-0.7-0.5-1-0.8c-0.7-0.5-1.5-0.9-2.3-1.3c-1.7-0.7-3.6-1.2-5.8-0.9
		c-0.5,0.1-1.1,0.2-1.7,0.3c-5.9,0.8-5.7,5.8-5.7,5.8s0,0,0,0.1c-0.1,0.5-0.1,1-0.1,1.5v0.7c0,0.1,0.1,0.3,0.5,0.5l0.6,0.3l1.1,0.4
		l1.1,0.2l0.7,0.1h0.7c0.1-0.1,0.2-0.2,0.4-0.3c0.3-0.2,0.5-0.4,0.7-0.5c0.5-0.3,0.9-0.5,1.2-0.6c0.6-0.3,0.9-0.4,1.6-0.6
		c0.7-0.1,1.7-0.1,2.9-0.1c0.6,0,1.2,0,1.9,0.1C466.9,216.8,467.3,216.9,467.6,216.9z"/>
</g>
</svg>
