<?xml version="1.0" encoding="utf-8"?>
<!-- Generator: Adobe Illustrator 24.0.1, SVG Export Plug-In . SVG Version: 6.00 Build 0)  -->
<svg version="1.1" id="Layer_1" xmlns="http://www.w3.org/2000/svg" xmlns:xlink="http://www.w3.org/1999/xlink" x="0px" y="0px"
	 viewBox="0 0 800 800" style="enable-background:new 0 0 800 800;" xml:space="preserve">
<style type="text/css">
	.st0{fill:#FFFFFF;}
</style>
<g id="white">
	<path class="st0" d="M495.5,229.3c-10.1,0-20.2,9.2-22,20.2c-1.8,11,1.2,22.1,11.3,22.1c10.1,0,20.9-10,22.7-21
		S505.6,229.3,495.5,229.3z"/>
	<path class="st0" d="M453.6,228.7c-9.9,0-18.5,10.7-20.3,21.5s0.2,21.5,10.1,21.5c9.9,0,20.7-10.4,22.5-21.2
		S463.5,228.7,453.6,228.7z"/>
</g>
<path id="black" d="M520.2,241.4c-4.9-0.1-8.5-2-11.2-3.9c-1.2-2.9-3-5.5-5.2-7.7c-1.9-1.8-4.1-3.3-6.5-4.3c-2.4-1-5-1.4-7.6-1.3
	c-2.6,0.1-5.1,0.7-7.3,1.8c-2.2,1-4.2,2.5-5.7,4.4c2.3-0.7,4.5-1.2,6.7-1.6c0.9-0.1,1.9-0.2,2.8-0.3c-1.6,0.7-3,1.5-4.4,2.5
	c-2.5,1.8-4.6,4-6.4,6.5s-3.2,5.3-4.1,8.2c-2,5.9-1.5,12.6,1.4,18.2c0.3,0.7,0.8,1.3,1.2,2c0.4,0.7,0.9,1.3,1.4,1.9
	c0.2,0.2,0.5,0.5,0.7,0.7c-1-0.4-2.1-0.9-3-1.5c-2.7-1.7-4.7-4.2-6.5-7.1c0.3-0.6,0.6-1.1,0.9-1.7c1-2.2,1.7-4.6,2.1-7.1
	c0.4-2.4,0.4-4.9,0-7.4c-0.8-4.9-3.1-9.7-6.7-13.2c-1.8-1.8-3.9-3.3-6.3-4.2c-2.4-1-5-1.4-7.5-1.3c-2.5,0.1-4.9,0.7-7.1,1.8
	c-2.2,1.1-4.1,2.6-5.6,4.4c2.3-0.6,4.4-1.1,6.4-1.5c1-0.1,2.1-0.2,3.1-0.3c-1.6,0.7-3.1,1.5-4.5,2.5c-1.7,1.2-3.1,2.6-4.4,4.1
	c-3.1,1.6-7.6,3.6-13.8,2.4c-4.8-0.9,3.3,6,7.5,9.4c-1.4,5.3-0.8,11.4,1.8,16.3c0.8,1.6,1.9,3.1,3.2,4.4c-1-0.4-2-0.9-3-1.5
	c-3.4-2.3-5.8-5.7-7.9-9.8c-0.2,2.3,0.3,4.7,1.3,6.9c1,2.2,2.5,4.2,4.4,5.8c1.9,1.7,4.1,2.9,6.5,3.6c2.4,0.8,5,1,7.4,0.8
	c2.5-0.2,4.9-0.8,7.2-1.6c2.3-0.9,4.5-2,6.5-3.4c2-1.4,3.8-3,5.4-4.9c0.7-0.9,1.4-1.8,2-2.7c0.2,0.8,0.5,1.5,0.8,2.3
	c1,2.3,2.6,4.3,4.5,5.9c1.9,1.7,4.2,2.9,6.6,3.7c2.5,0.8,5.1,1,7.6,0.8s4.9-0.7,7.3-1.6c2.3-0.9,4.5-2.1,6.6-3.5
	c2-1.4,3.9-3.1,5.5-5c1.6-1.9,3-4,4.1-6.3c1.1-2.2,1.8-4.7,2.2-7.2c0.1-0.4,0.1-0.7,0.1-1.1C514.9,247.4,525.3,241.5,520.2,241.4z
	 M464.5,250.3c-0.4,2-0.9,3.9-1.8,5.7c-2.9,6.2-8.8,11.2-15.5,13c-0.9-6.8-0.4-16.3,6-25.1c1.3-1.7,0.9-4.2-0.9-5.5
	c-1.7-1.3-4.2-0.9-5.5,0.9c-6.7,9.2-8.2,18.8-7.8,26.6c-1-1.1-1.8-2.4-2.4-3.7c-1.1-2.2-1.7-4.7-1.8-7.1c-0.2-2.5,0.2-4.9,0.9-7.3
	c1.5-4.7,4.5-9.1,8.4-12.2c3.3-2.6,7.4-4,11.5-4c1.3,0.7,2.5,1.5,3.6,2.5c2.9,2.7,4.8,6.4,5.3,10.3
	C464.8,246.3,464.8,248.3,464.5,250.3z M505.6,249.9c-0.3,2-0.9,4-1.8,5.8c-3,6.4-9.1,11.5-16,13.3c-1-7-0.5-16.7,6.1-25.8
	c1.3-1.8,0.9-4.3-0.9-5.6s-4.3-0.9-5.6,0.9c-6.9,9.5-8.4,19.4-7.9,27.5c-1.1-1.2-2-2.6-2.7-4.1c-1.1-2.2-1.6-4.7-1.8-7.2
	c-0.1-2.5,0.2-5,1-7.4c1.5-4.9,4.5-9.3,8.5-12.5c3.5-2.7,7.7-4.1,12-4.1c1.3,0.7,2.6,1.6,3.7,2.6c2.9,2.7,4.8,6.5,5.4,10.5
	C505.9,245.8,505.9,247.9,505.6,249.9z"/>
</svg>
