<?xml version="1.0" encoding="utf-8"?>
<!-- Generator: Adobe Illustrator 24.0.1, SVG Export Plug-In . SVG Version: 6.00 Build 0)  -->
<svg version="1.1" id="Layer_1" xmlns="http://www.w3.org/2000/svg" xmlns:xlink="http://www.w3.org/1999/xlink" x="0px" y="0px"
	 viewBox="0 0 800 800" style="enable-background:new 0 0 800 800;" xml:space="preserve">
<g id="black">
	<path d="M493.8,232.7c-0.9-0.4-1.7-0.6-2.6-0.7c-0.8-0.1-1.7-0.1-2.5,0c-1.7,0.1-3.2,0.7-4.7,1.4c-1.2,0.5-2.3,1.2-3.4,1.8
		c-0.4-1.4-1.1-2.8-2.5-4.4h-0.4c-2.3,2-2.7,4.4-2.6,6.7c0,0.6,0,1.3,0.1,1.9c-2.1,2-3.9,4.2-5.5,6.4c-1.8,2.6-3.2,5.4-3.6,8.8
		l0.4,0.1c3-1.6,5.3-3.5,7.4-5.5c1.1-1,2.1-2,3.2-2.9c0.7,1.5,1.5,2.9,2.4,4.2c1.4,1.8,3,3.4,5.5,4.3l0.3-0.3c0.2-2.6-0.4-4.7-1-6.6
		c-0.7-1.9-1.2-3.8-1.7-5.6c0-0.1-0.1-0.3-0.1-0.4c1.4-1.1,2.9-2.3,4.4-3.3c2.4-1.5,4.6-2.8,7-5.5L493.8,232.7z"/>
	<path d="M456.7,232.2c-0.8-0.1-1.5,0-2.3,0.1s-1.5,0.3-2.2,0.6s-1.3,0.7-2,1c-0.7,0.4-1.4,0.9-2.1,1.3c-0.5-1.5-1.2-2.9-2.8-4.4
		h-0.4c-2,2.2-2.1,4.6-1.9,6.9c0,0.7,0.1,1.3,0.2,1.9c-1.8,2-3.3,4.3-4.6,6.8c-1.3,2.4-2.2,5.1-2.2,8.2l0.5,0.4
		c2.5-1.7,4.3-3.6,6-5.6c0.8-1,1.6-2,2.5-2.9c0.7,1.4,1.5,2.7,2.4,3.9c1.4,1.8,3,3.4,5.4,4.4l0.5-0.2c0-2.6-0.6-4.7-1.3-6.6
		c-0.8-1.9-1.4-3.8-2-5.7c-0.1-0.3-0.2-0.5-0.3-0.8c1-1,2.1-2,3.2-2.9c1-0.8,2-1.4,2.9-2.3c0.4-0.4,0.9-0.9,1.4-1.4s1-1,1.5-1.7
		l-0.1-0.4C458.3,232.5,457.5,232.3,456.7,232.2z"/>
</g>
</svg>
