<?xml version="1.0" encoding="utf-8"?>
<!-- Generator: Adobe Illustrator 24.0.1, SVG Export Plug-In . SVG Version: 6.00 Build 0)  -->
<svg version="1.1" id="Layer_1" xmlns="http://www.w3.org/2000/svg" xmlns:xlink="http://www.w3.org/1999/xlink" x="0px" y="0px"
	 viewBox="0 0 800 800" style="enable-background:new 0 0 800 800;" xml:space="preserve">
<style type="text/css">
	.st0{fill-rule:evenodd;clip-rule:evenodd;fill:#FFFFFF;}
</style>
<path id="white" class="st0" d="M436.5,246.9c-0.2-5.8,1.2-10.5,9.3-20.3c8-9.7,19-12.5,22.6-9.1c2.8,2.6,2.6,6.5,2.6,6.5
	s10.1-9.1,19.2-6.5c8.9,2.5,19.7,19.5,9.6,37.2c-7.5,13.2-24.1,13.3-30.1,10.8c-8.3-3.4-9.7-9.5-9.7-9.5s-3.2,4.3-9.9,5.1
	C446.5,261.5,436.9,259.9,436.5,246.9z"/>
<g id="black">
	<path d="M501.2,222.2c-2.3-3.1-5.2-5.4-8.6-6.7c-3.5-1.4-7.4-1.6-11.4-0.3c-3.9,1.2-7.1,3.3-9.8,5.9c0-0.7-0.2-1.4-0.4-2.1
		c-0.5-1.5-1.6-2.8-3.4-3.7c-2.1-1-8-0.5-14.5,3c-5.2,2.8-10.9,7.6-15.1,14.7c-4.8,8.4-5.1,15.4-3.2,20.6c2.1,6,7,9.5,11,10.1
		c0.9,0.1,1.8,0.2,2.6,0.2c2.5-0.1,4.5-0.7,6.1-1.5c2.7-1.4,4.3-3.3,5.2-4.9c0.8,3.2,3,6,5.9,8.1c1.6,1.2,3.6,2.2,5.6,2.8
		c2.8,0.9,6,1.2,9.1,1c9.1-0.6,18.7-5.8,23.5-17.4C508.6,240.5,506.6,229.3,501.2,222.2z M497.9,249.8L497.9,249.8
		c-3.2,7.8-9.7,12.7-17.9,13.4c-2.1,0.2-4.3,0-6.6-0.4c-1-0.2-1.9-0.4-2.8-0.7c-5.3-1.6-8.7-4.9-9.2-8.9c0-0.8-0.2-2.9-0.7-2.9
		c-0.4,0-1,1.5-1,1.5c-0.7,1.7-1.5,3-1.5,3c-0.1,0.1-0.2,0.2-0.3,0.4c-0.7,1.1-2.4,2.4-5.1,3c-0.7,0.2-1.4,0.2-2.4,0.2
		c-0.6,0-1.4-0.1-2.1-0.2c-0.3-0.1-0.6-0.1-0.9-0.1c-0.2,0-0.5,0-0.7-0.1c-0.9-0.2-1.9-0.7-2.8-1.4c-2.2-1.8-3.6-4.4-4-7.4
		c-0.4-2.8-0.3-7.3,3.1-13.4c2.4-4.4,5.7-8.3,9.9-11.5c3.1-2.3,6.5-4,9.4-4.7c1.7-0.4,2.8-0.5,3.3-0.3c0.8,0.3,1.4,0.9,1.7,1.9
		c0.3,1.1,0.4,0.6,0,3c-1.2,7-6.6,16.4-5.7,17s4-7.2,9.4-13.5c3.4-3.9,7.2-6.3,11.4-7.2c2.4-0.6,4.9-0.4,7.4,0.6
		c3.4,1.5,6.2,4.4,8,8.3C500.8,235.3,500.8,242.7,497.9,249.8z"/>
	<path d="M486.1,244.6c-2.5-0.6-5.5,2.1-6.6,6c-1.1,3.9,0,7.5,2.6,8c2.5,0.6,5.5-2.1,6.6-6C489.8,248.8,488.6,245.2,486.1,244.6z"/>
	<path d="M456.8,243.6c-1.8-0.4-3.9,1.8-4.8,4.8c-0.9,3.1-0.2,5.9,1.6,6.2c1.8,0.4,3.9-1.8,4.8-4.8
		C459.3,246.8,458.6,244,456.8,243.6z"/>
	<path d="M461.2,213c2.7-1.5,5.5-0.4,7.2,0.4c1.8,0.8,3.9,0,4.8-1.7c0.9-1.7,0.2-4-1.9-4.6c-5.8-1.7-9.6,0-12.5,2.7
		c-0.7,0.6-1.2,1.9-0.5,2.8C459,213.5,460.5,213.4,461.2,213z"/>
	<path d="M483.9,212.9c3.9-1.9,9.5,0.5,10.4,1.1c1,0.6,2.1,0.8,2.9,0s0.4-2.3-0.4-3.4c-1.7-2.2-9.2-7.2-16.2-3.7
		c-1.5,0.7-2.4,3-1.5,4.7C480,213.3,482.3,213.7,483.9,212.9z"/>
</g>
</svg>
