<?xml version="1.0" encoding="utf-8"?>
<!-- Generator: Adobe Illustrator 24.0.1, SVG Export Plug-In . SVG Version: 6.00 Build 0)  -->
<svg version="1.1" id="Layer_1" xmlns="http://www.w3.org/2000/svg" xmlns:xlink="http://www.w3.org/1999/xlink" x="0px" y="0px"
	 viewBox="0 0 800 800" style="enable-background:new 0 0 800 800;" xml:space="preserve">
<style type="text/css">
	.st0{fill:#FFFFFF;}
</style>
<g id="white">
	<polygon class="st0" points="453.3,233.2 438.8,229.3 441.1,251.9 427.9,257.3 434.6,266.8 445.3,262 443.1,252.3 454.5,252.2 	"/>
	<polygon class="st0" points="488.6,250.1 505.4,225.4 480.3,227.5 465.2,250.1 485.3,250.7 476.6,259.5 492.7,266.8 508.7,256.8 	
		"/>
</g>
<g id="black">
	<path d="M491.1,249.1c4.4-2.5,7.7-5.5,10-8.5c4.5-5.7,6.4-11.7,7.1-14.5c0.7-0.2,1.3-0.3,2-0.5c2-0.6,3.9-1.2,5.9-2.3
		c-2-1-4.1-1.5-6.1-1.8c-1-0.2-2-0.3-3.1-0.4c-1-0.1-2-0.2-3-0.1c-34.3-2.2-41.9,28.6-42,28.9l-0.8,3.3l3.3,0.3
		c2.2,0.2,4.3,0.3,6.3,0.3c3.7,0,7.1-0.4,10.1-1c-3,1.8-5.4,4-6.9,6l-2.1,2.6l2.9,1.8c6.4,4,12.1,5.5,17.1,5.5
		c13.2,0,20.6-10.6,20.7-10.7l1.8-2.6l-2.7-1.6C504,249.1,497,248.2,491.1,249.1z M479.4,247.1c-3.1,0.7-6.6,1-10.6,0.9
		c2.7-6.9,11-21.8,33.1-21.1c-1.6,5-6,14.6-17.6,18.9c0.1-5.2,1.6-8.3,1.7-8.4c0.6-1.2,0.2-2.7-1-3.4s-2.7-0.2-3.4,1
		C481.5,235.2,479.1,239.8,479.4,247.1z M493.9,262.6c0-1.8,0.3-2.7,0.4-2.8c0.6-1.2,0-2.7-1.2-3.3s-2.7-0.1-3.3,1.2
		c-0.2,0.4-0.8,2-0.8,4.8c-2.3-0.3-4.9-1.1-7.6-2.4c4.1-3.4,12.6-8.3,24-2.9C503.1,259.3,499.2,262,493.9,262.6z"/>
	<path d="M439.3,226.8l-1.8,0.2c-1.3,0.3-2.8,1-3.7,1.9c0.8,0.9,1.7,1.4,2.6,1.9c-0.9,4.2-2.1,13.6,2.9,19.4
		c0.1,0.1,0.2,0.2,0.3,0.3c-0.2-0.1-0.5-0.2-0.7-0.2c-4.2-1-8.7,0.7-13.3,5.1l-1.2,1.1l0.4,1.6c0.3,0.9,2.7,9.2,9.4,11.1
		c0.8,0.2,1.7,0.3,2.6,0.3c3.6,0,7.4-1.9,11.4-5.8l1.3-1.2l-0.6-1.7c-0.1-0.2-1.4-4-4.3-7c1.8,0.6,3.7,1,6,1c1.2,0,2.6-0.1,4-0.3
		l1.9-0.3l0.4-1.8c0.1-0.6,3.3-14.2-3.3-21.5C450.4,227.3,445.5,226,439.3,226.8z M438.9,263.6c0-1.8,0.3-2.8,0.4-2.9
		c0.6-1.2,0-2.7-1.2-3.3c-1.2-0.6-2.7-0.1-3.3,1.2c-0.2,0.3-0.7,1.7-0.8,4.1c-1.4-1.2-2.5-3.1-3.1-4.6c2.6-2.2,4.9-3,6.8-2.5
		c2.5,0.6,4.4,3.4,5.4,5.4C441.8,262.1,440.3,263.1,438.9,263.6z M451.9,249.2c-1.3,0.1-2.5,0-3.6-0.2c-0.2-5.9,1.6-9.5,1.6-9.6
		c0.6-1.2,0.2-2.7-1-3.4s-2.7-0.2-3.4,1c-0.1,0.2-1.9,3.6-2.2,9.3c-2.9-3.7-2.3-10.4-1.5-14.2c3.4-0.2,6,0.7,7.7,2.5
		C452.8,238.2,452.5,245.2,451.9,249.2z"/>
</g>
</svg>
