<?xml version="1.0" encoding="utf-8"?>
<!-- Generator: Adobe Illustrator 24.0.1, SVG Export Plug-In . SVG Version: 6.00 Build 0)  -->
<svg version="1.1" id="Layer_1" xmlns="http://www.w3.org/2000/svg" xmlns:xlink="http://www.w3.org/1999/xlink" x="0px" y="0px"
	 viewBox="0 0 800 800" style="enable-background:new 0 0 800 800;" xml:space="preserve">
<style type="text/css">
	.st0{fill:#FFFFFF;}
</style>
<g id="white">
	<path class="st0" d="M485.6,234.7c-4-0.4-12.4,4.2-15.3,8l-1.5,3.1c0,0-4-0.1-6.5,3.8c-2.5,3.9,1.4,8.2,1.4,8.2s-3.5,10.4,3.7,12.1
		s22.5-4.7,24.2-18C493.3,238.7,489.7,235.1,485.6,234.7z"/>
	<path class="st0" d="M450.4,233.4c-3.6,0.3-11.1,5.9-13.7,10l-1.5,3.2c0,0-3.6,0.5-5.8,4.6c-2.2,4.1,1.3,7.6,1.3,7.6
		s-3.2,10.5,3.3,11s20.1-8,21.7-20.9C457.3,236,454.1,233.1,450.4,233.4z"/>
</g>
<g id="black">
	<path d="M489.4,233.4c-2.7-0.8-5-1.3-8-0.7c-2.2,0.5-4.3,1.4-6.8,3c-1.9,1.3-3.7,2.7-5.5,4.7c-0.6,0.6-1.1,1.3-1.6,1.9
		c-1.3,0.3-2.4,0.8-3.4,1.3l-0.3,0.1c-0.6,0.3-1.2,0.7-1.9,1.3c-0.7,0.7-1.1,1.5-1.6,2.3c-0.7,1.5-1,3.2-0.9,5
		c0.1,1.3,0.5,2.6,1.1,3.9c-0.1,0-3,15.4,9.9,17.5c10.3,1.6,21.2-8.8,24.5-19.5C496.2,249.8,498.2,236,489.4,233.4z M483.2,262.5
		c-2.2,2.2-5.6,5-9.5,5.7c-1.6,0.4-3.1,0.3-4.2-0.2c-1.2-0.6-2.2-1.6-2.8-2.9c-0.5-1.2-0.8-2.4-0.9-3.6c0.7,0.3,1.5,0.6,2.2,0.7
		c0.1,0,0.3,0.1,0.4,0.1c0.5,0,0.9-0.2,1.2-0.7c0.2-0.3,0.3-0.7,0.3-1.1c-0.1-0.3-0.2-0.6-0.5-0.9l-0.2-0.1c-1.9-1.2-3.3-2.8-4-4.6
		c-0.2-0.5-0.4-1-0.5-1.5h0.1c1-0.4,2.1-0.4,3.2-0.5c2.5,0,4.9,0.2,7.2,0.7c2.3,0.6,4.8,1.3,6.9,2.3c1.9,0.9,3.3,1.9,4.3,3
		C485.3,260,484.3,261.3,483.2,262.5z M490.8,246.9c-0.1,1.7-0.5,3.6-1.2,5.7c-0.4,0.8-0.9,1.8-1.4,2.8c-0.2-0.2-0.3-0.5-0.5-0.7
		c-0.9-1.1-2-2-3.4-3c-2.6-1.6-5.2-2.7-8-3.3c-2.5-0.6-5.6-1.1-8.8-0.5h-0.1c-0.2,0-0.5,0.1-0.7,0.2c0.7-0.4,1.6-0.8,2.8-1.3
		c2.1-0.8,4.4-1.1,6.8-1.1c0.7,0,1.3-0.4,1.4-1.4c0.1-0.3,0.1-0.6-0.1-0.9c-0.2-0.4-0.5-0.7-1-0.9c-0.8-0.2-1.6-0.4-2.4-0.5
		c0.8-0.8,1.8-1.5,2.9-2.3c1.7-1.2,3.4-2,5.1-2.3c0.8-0.2,1.6-0.2,2.2-0.2c1,0,1.9,0.2,2.7,0.6c1.7,0.8,2.6,2.4,3.1,3.6
		C490.8,243,491,244.9,490.8,246.9z"/>
	<path d="M453.3,231.6c-2.4-0.8-4.4-1.3-7.1-0.7c-1.9,0.5-3.8,1.4-6,3c-1.7,1.3-3.2,2.7-4.8,4.7c-0.5,0.6-1,1.3-1.4,1.9
		c-1.2,0.3-2.1,0.8-3,1.3l-0.2,0.1c-0.5,0.3-1.1,0.7-1.6,1.3c-0.6,0.7-1,1.5-1.4,2.3c-0.6,1.5-0.9,3.2-0.8,5c0.1,1.3,0.4,2.6,1,3.9
		c-0.2,0-2.7,15.4,8.6,17.5c9.1,1.6,18.7-8.8,21.6-19.5C459.4,248,461.1,234.2,453.3,231.6z M447.9,260.7c-1.9,2.2-5,5-8.4,5.7
		c-1.4,0.4-2.7,0.3-3.7-0.2c-1.1-0.6-1.9-1.6-2.5-2.9c-0.4-1.2-0.7-2.4-0.8-3.6c0.6,0.3,1.3,0.6,2,0.7c0.1,0,0.2,0.1,0.4,0.1
		c0.4,0,0.8-0.2,1-0.7c0.2-0.3,0.3-0.7,0.2-1.1c-0.1-0.3-0.2-0.6-0.4-0.9l-0.2-0.1c-1.6-1.2-2.9-2.8-3.5-4.6c-0.2-0.5-0.3-1-0.4-1.5
		h0.1c0.9-0.4,1.8-0.4,2.8-0.5c2.2,0,4.4,0.2,6.3,0.7c2.1,0.6,4.2,1.3,6.1,2.3c1.7,0.9,2.9,1.9,3.7,3
		C449.8,258.2,448.9,259.5,447.9,260.7z M454.7,245.1c-0.1,1.7-0.4,3.6-1.1,5.7c-0.4,0.8-0.8,1.8-1.3,2.8c-0.1-0.2-0.3-0.5-0.5-0.7
		c-0.8-1.1-1.8-2-3-3c-2.2-1.6-4.6-2.7-7.1-3.3c-2.2-0.6-4.9-1.1-7.8-0.5h-0.1c-0.2,0-0.4,0.1-0.6,0.2c0.6-0.4,1.4-0.8,2.5-1.3
		c1.8-0.8,3.8-1.1,6-1.1c0.6,0,1.2-0.4,1.2-1.4c0.1-0.3,0-0.6-0.1-0.9c-0.1-0.4-0.4-0.7-0.8-0.9c-0.7-0.2-1.4-0.4-2.1-0.5
		c0.7-0.8,1.6-1.5,2.6-2.3c1.5-1.2,3-2,4.5-2.3c0.7-0.2,1.4-0.2,2-0.2c0.9,0,1.7,0.2,2.4,0.6c1.5,0.8,2.3,2.4,2.7,3.6
		C454.6,241.2,454.8,243.1,454.7,245.1z"/>
	<path d="M447,227.9c1.5-1,2.9-1.7,4.3-2.2c1.4-0.5,2.8-0.8,4.1-0.8s2.4,0.2,3.4,0.8c1,0.5,1.9,1.6,3,3.2c0.1,0.1,0.2,0.2,0.3,0.2
		c0.3,0.1,0.6,0,0.7-0.3c0.6-1.8,0.3-4.3-1.3-6.1c-0.1-0.2-0.4-0.4-0.6-0.6s-0.5-0.4-0.7-0.6c-0.5-0.3-1.1-0.6-1.6-0.8
		c-0.6-0.2-1.1-0.3-1.7-0.4c-0.6-0.1-1.2-0.1-1.7-0.1c-2.2,0.1-4.2,0.9-5.8,2.2c-1.6,1.3-2.9,3-3.2,5c0,0.1,0.1,0.3,0.1,0.4
		C446.4,228,446.8,228.1,447,227.9z"/>
	<path d="M475.7,229.5c0.2,0.2,0.6,0.2,0.8-0.1c1.3-1.7,2.5-2.5,3.8-2.9c1.3-0.4,2.7-0.6,4.3-0.6c1.6,0,3.3,0.2,4.9,0.6
		c1.6,0.4,3.2,1,4.9,2c0.2,0.1,0.4,0.1,0.6,0c0.3-0.1,0.5-0.4,0.4-0.7c-0.6-2.1-2.2-3.9-4.1-5.1c-1.9-1.2-4.1-1.9-6.4-2
		c-2.3-0.1-4.9,0.4-6.9,2c-1,0.7-1.9,1.8-2.3,3c-0.4,1.2-0.5,2.4-0.2,3.5C475.5,229.3,475.6,229.4,475.7,229.5z"/>
</g>
</svg>
