<?xml version="1.0" encoding="utf-8"?>
<!-- Generator: Adobe Illustrator 24.0.1, SVG Export Plug-In . SVG Version: 6.00 Build 0)  -->
<svg version="1.1" id="Layer_1" xmlns="http://www.w3.org/2000/svg" xmlns:xlink="http://www.w3.org/1999/xlink" x="0px" y="0px"
	 viewBox="0 0 800 800" style="enable-background:new 0 0 800 800;" xml:space="preserve">
<g id="black">
	<path d="M467.6,225.9c-0.1-0.1-0.3-0.3-0.5-0.4c0.2,0,0.4,0,0.7,0c0.4,0,0.8-0.1,1.1-0.1c0.3-0.1,0.7-0.2,1.1-0.3
		c0.7-0.2,1.5-0.6,2.2-1c0.4-0.3,0.8-0.6,1.1-0.9c0.3-0.4,0.6-0.8,0.8-1.2c0.4-0.9,0.5-1.9,0-2.8h-0.9c-0.8,0.2-1.4,0.1-1.8-0.1
		c-0.3-0.1-0.4-0.2-0.6-0.3l-0.5-0.3c-0.4-0.2-0.6-0.3-1-0.5c-0.2-0.1-0.3-0.1-0.5-0.2c-0.2-0.1-0.4-0.2-0.6-0.2
		c-1.6-0.4-3.4-0.9-5.4-1.4l-1.5-0.3c-0.5-0.2-1-0.3-1.5-0.4c-1-0.2-2-0.4-3.1-0.7c-1-0.2-2.1-0.5-3.2-0.7c-1.2-0.2-2.4-0.2-3.9,0.3
		l-0.4,0.7c0.5,1.4,1.3,2.4,2.1,3.3c0.8,0.9,1.8,1.4,2.8,2.1s2,1.3,3,1.9c0.5,0.3,1,0.6,1.5,0.8c-2.9,0.3-6,1.4-8.9,3.3
		c-9.4,6.2-17.2,22-21.2,43.4c-0.2,1.1,0.2,2.3,1.2,3c0.9,0.7,2.1,0.8,3.2,0.3c0.4-0.2,9.2-4.5,17.1,1.1c0.5,0.4,1.1,0.6,1.7,0.6
		c0.4,0,0.8-0.1,1.2-0.2c1-0.4,1.6-1.3,1.8-2.3c0-0.2,2.8-15.9,13.6-34.2C470.9,233.4,470.7,228.9,467.6,225.9z M463,235
		c-3.8,6.4-6.6,12.4-8.7,17.6c-0.3-0.7-5.2,0.1-4.9-0.8c0.2-0.9,6.3-3.9,6.4-4.7c0.2-2.9-0.5-5-2.1-5.5c-2.5-0.8-6.4,3.1-8.6,8.5
		c-2.2,5.4-1.9,10.5,0.6,11.2c2.3,0.7,5.7-2.4,8-7.1c-2.1,5.4-3.4,9.9-4.1,12.9c-3-1.3-6-1.8-8.7-1.8c-2,0-3.9,0.3-5.4,0.6
		c3.9-17,10.3-29.6,17.5-34.4c4.6-3,8.9-2.9,10.5-1.4C464.8,231.5,463.6,234,463,235z"/>
	<path d="M524,214.2c-2.2-0.8-4.2-1-6.1-1c-2,0-3.8,0.3-5.7,0.5c-1.9,0.3-3.7,0.4-5.6,0.6c-1,0.1-1.9,0.2-2.8,0.3
		c-0.9,0.1-1.8,0.2-2.7,0.3c-0.9,0.1-1.8,0.3-2.7,0.4c-0.9,0.1-1.8,0.3-2.7,0.4c-0.9,0.2-1.7,0.3-2.6,0.4c-0.9,0.1-1.8,0.3-2.6,0.4
		c-0.8,0.1-1.7,0.3-2.5,0.5c-0.4,0.1-0.8,0.2-1.2,0.3c-0.4,0.1-0.8,0.2-1.2,0.3c-0.2,0-0.4,0.1-0.6,0.2s-0.4,0.1-0.6,0.2l-1.2,0.4
		c-0.5,0.2-0.8,0.3-1.3,0.4c-0.3,0.1-0.9,0.1-1.3,0.2l-1.1,0.4c-0.1,0.9,0.2,1.5,0.6,2.2c0.3,0.6,0.8,1.2,1.3,1.6
		c0.3,0.2,0.6,0.4,0.8,0.6c0.3,0.2,0.5,0.3,0.8,0.5c0.3,0.2,0.5,0.4,0.8,0.5c0.3,0.2,0.5,0.3,0.8,0.4c0.5,0.2,1.1,0.5,1.6,0.6
		c0.2,0.1,0.4,0.1,0.5,0.2c-0.3,0.2-0.6,0.3-0.9,0.5c-9.6,6.3-17.3,22.1-21.2,43.4c-0.2,1.1,0.2,2.3,1.2,2.9c1,0.6,2.1,0.8,3.2,0.3
		c0.4-0.2,9.2-4.5,17.1,1.1c0.5,0.4,1.1,0.6,1.7,0.6c0.4,0,0.8-0.1,1.2-0.2c1-0.4,1.6-1.3,1.8-2.3c0-0.2,2.8-15.9,13.6-34.2
		c2.7-4.6,2.5-9.2-0.6-12.2c-0.2-0.2-0.4-0.4-0.7-0.6c1.9-0.5,3.6-1.1,5.5-1.7c1-0.4,1.9-0.6,2.8-1l2.7-1.1c1.8-0.7,3.7-1.3,5.4-2.3
		s3.3-2.2,4.8-4L524,214.2z M499.2,235c-3.8,6.4-6.6,12.4-8.7,17.6c-0.3-0.8-5.2,0.1-4.9-0.8c0.2-0.9,6.3-3.9,6.4-4.7
		c0.2-2.9-0.5-5-2.1-5.5c-2.5-0.8-6.4,3.1-8.6,8.5c-2.2,5.4-1.9,10.5,0.6,11.2c2.3,0.7,5.7-2.4,8-7.1c-2.1,5.4-3.4,9.9-4.1,12.9
		c-3-1.3-6-1.8-8.7-1.8c-2,0-3.9,0.3-5.5,0.6c3.8-16.9,10.2-29.6,17.5-34.4c4.6-3,8.9-2.9,10.5-1.4C501,231.5,499.8,234,499.2,235z"
		/>
</g>
</svg>
