<?xml version="1.0" encoding="utf-8"?>
<!-- Generator: Adobe Illustrator 24.0.1, SVG Export Plug-In . SVG Version: 6.00 Build 0)  -->
<svg version="1.1" id="Layer_1" xmlns="http://www.w3.org/2000/svg" xmlns:xlink="http://www.w3.org/1999/xlink" x="0px" y="0px"
	 viewBox="0 0 800 800" style="enable-background:new 0 0 800 800;" xml:space="preserve">
<style type="text/css">
	.st0{fill:#FFFFFF;}
</style>
<g id="black">
	<path d="M491.8,220.8c-6.4-1-10,9.8-14.1,23.3c-4.1,13.5-7.1,24.4-0.7,25.4c6.4,1,16.8-8.8,20.9-22.3
		C501.9,233.7,498.2,221.7,491.8,220.8z"/>
	<path d="M456.2,220.4c-6.1-0.9-9.5,9.5-13.4,22.3c-3.9,12.8-6.8,23.3-0.7,24.2c6,0.9,15.9-8.5,19.8-21.3
		C465.8,232.8,462.2,221.4,456.2,220.4z"/>
</g>
<g id="white">
	<path class="st0" d="M490.4,226.4c-0.6,0.2-0.9,0.5-1.3,0.9c-0.7,0.7-1.3,1.5-1.8,2.3c-1,1.6-1.6,3.4-2.1,5c-1,3.2-1.9,6.5-2.8,9.8
		c-1,3.3-1.7,6.6-2.5,9.9c-0.4,1.7-0.9,3.4-1.2,5.1c-0.2,0.8-0.2,1.7-0.1,2.6c0.1,0.4,0.2,0.9,0.5,1.3c0.2,0.4,0.9,0.7,1.4,0.5
		c-0.4-0.3-0.4-0.7-0.4-1c0-0.4,0.1-0.7,0.1-1.1c0.1-0.7,0.2-1.5,0.4-2.3c0.3-1.6,0.9-3.2,1.4-4.8c1-3.3,2.1-6.5,3-9.8
		c1-3.3,1.9-6.6,2.7-9.9c0.4-1.7,0.8-3.2,1.5-4.7c0.3-0.7,0.7-1.4,1.2-2c0.2-0.3,0.5-0.6,0.7-0.9s0.4-0.7,0.7-1.2
		C491.2,225.8,490.7,226,490.4,226.4z"/>
	<path class="st0" d="M454.6,225.6c-0.5,0.2-0.9,0.6-1.2,0.9c-0.7,0.7-1.2,1.4-1.7,2.2c-1,1.6-1.5,3.3-2,4.8
		c-0.9,3.1-1.8,6.3-2.7,9.4c-0.9,3.1-1.6,6.3-2.4,9.4c-0.3,1.5-0.8,3.1-1.1,4.8c-0.2,0.8-0.2,1.6-0.1,2.5c0.1,0.5,0.2,0.9,0.5,1.3
		c0.3,0.4,0.9,0.7,1.4,0.5c-0.3-0.3-0.3-0.6-0.3-0.9s0.1-0.6,0.1-1c0.1-0.7,0.2-1.4,0.4-2.2c0.3-1.5,0.8-3,1.3-4.6
		c1-3.1,2-6.2,2.9-9.3c0.8-3.1,1.7-6.3,2.5-9.4c0.3-1.6,0.8-3,1.4-4.4c0.3-0.7,0.7-1.4,1.2-2c0.2-0.3,0.5-0.6,0.7-0.9
		c0.2-0.4,0.4-0.7,0.7-1.2C455.6,225.3,455.1,225.5,454.6,225.6z"/>
</g>
</svg>
