<?xml version="1.0" encoding="utf-8"?>
<!-- Generator: Adobe Illustrator 24.0.1, SVG Export Plug-In . SVG Version: 6.00 Build 0)  -->
<svg version="1.1" id="Layer_1" xmlns="http://www.w3.org/2000/svg" xmlns:xlink="http://www.w3.org/1999/xlink" x="0px" y="0px"
	 viewBox="0 0 800 800" style="enable-background:new 0 0 800 800;" xml:space="preserve">
<style type="text/css">
	.st0{fill:#FFFFFF;}
</style>
<g id="black">
	<path d="M519.3,245.7c-0.3-12.2-12.3-22.5-25.5-22.5c-13.3,0-22.8,10.3-22.5,22.5c0.3,12.2,11.2,22.1,24.5,22.1
		C509,267.9,519.5,258,519.3,245.7z"/>
	<path d="M530,231.3c-2-4.5-4.8-8.8-8.3-12.5s-8-6.8-12.9-8.7c-4.9-1.9-10.1-2.7-15.2-2.5c-2.5,0.1-5.1,0.4-7.5,0.9
		c-1.2,0.2-2.4,0.6-3.7,1c-0.6,0.2-1.2,0.4-1.8,0.6c-0.6,0.2-1.1,0.4-1.9,0.8c-1.8,0.8-2.8,2.7-2.3,4.6c0.5,2.1,2.7,3.4,4.9,2.9
		l0.4-0.1l1.4-0.3c0.5-0.1,1-0.2,1.5-0.3c1-0.2,2-0.4,3.1-0.5c2-0.3,4.1-0.4,6.1-0.4c4.1,0,8.1,0.6,11.8,2c3.7,1.4,7,3.6,9.9,6.3
		c2.9,2.8,5.3,6.2,7.4,9.9c1,1.8,3.2,2.5,5.1,1.7C530,235.7,530.9,233.3,530,231.3z"/>
	<path d="M447.7,224.9c-11.3,0-21.6,9.7-23.9,21.2s4.9,20.9,16.3,20.9c11.3,0,22.4-9.3,24.7-20.9C467.1,234.6,459,224.9,447.7,224.9
		z"/>
	<path d="M468.5,212.6c-1-0.7-2.1-1.4-3.2-2.1c-0.6-0.3-1.2-0.6-1.8-0.8c-0.3-0.1-0.6-0.3-0.9-0.4l-1-0.3c-2.5-0.9-5.5-1.1-8.3-0.8
		c-2.8,0.3-5.5,1.3-7.8,2.8c-1.1,0.7-2.2,1.5-3.2,2.5c-0.5,0.4-0.9,0.9-1.4,1.5c-0.5,0.5-0.8,1-1.3,1.7c-0.7,1.1-0.8,2.4-0.3,3.7
		c0.9,1.9,3.1,2.8,5,1.9l1.6-0.7c0.2-0.1,0.6-0.4,0.9-0.7c0.3-0.3,0.7-0.5,1-0.7c0.3-0.3,0.7-0.5,1.1-0.7c0.4-0.2,0.7-0.4,1.1-0.6
		c1.5-0.8,2.9-1.3,4.4-1.5c0.4-0.1,0.8-0.1,1.1-0.1c0.4,0,0.8-0.1,1.1,0c0.4,0,0.8,0.1,1.2,0.1c0.4,0.1,0.8,0.2,1.2,0.3l0.6,0.1
		c0.2,0.1,0.4,0.1,0.6,0.2c0.4,0.1,0.8,0.3,1.2,0.4c0.8,0.3,1.6,0.8,2.5,1.1l0.7,0.3c1.7,0.7,3.6,0.1,4.7-1.4
		C470.8,216.3,470.3,213.8,468.5,212.6z"/>
	<path d="M519.3,263.8c-2.9,1.6-5.5,3.2-8.4,4.2c-2.9,1-5.8,1.7-8.7,1.8c-2.9,0.2-5.9-0.1-8.8-0.7c-3-0.6-5.9-1.3-9-2.3
		c-0.1,0-0.3,0-0.4,0.1c-0.2,0.2-0.2,0.5-0.1,0.7c2.1,2.7,5.2,4.5,8.5,5.7c3.3,1.1,6.8,1.5,10.3,1.1c3.5-0.4,6.9-1.5,9.8-3.2
		c3-1.7,5.5-4.1,7.5-6.7c0.1-0.1,0.1-0.4,0-0.5C519.8,263.8,519.6,263.7,519.3,263.8z"/>
</g>
<g id="white">
	<path class="st0" d="M511.2,239.9c-1-0.9-2.1-1.7-3.4-2.3c-0.6-0.3-1.3-0.6-1.9-0.8c-0.6-0.3-1.3-0.4-2-0.6
		c-2.8-0.7-5.9-0.6-8.8,0.2c-2.9,0.7-5.7,2.2-8.1,4.1c-0.6,0.5-1.1,1-1.7,1.5c-0.5,0.6-1.1,1.1-1.5,1.7c-0.5,0.6-1,1.2-1.4,1.8
		c-0.2,0.3-0.4,0.7-0.6,1l-0.3,0.6l-0.4,0.7c-1.9,2.9-1.2,6.9,1.4,8.8c2.6,1.9,6.3,1.1,8.2-1.8l1.7-1.3l1-0.7c0.3-0.2,0.6-0.4,1-0.6
		c1.3-0.8,2.5-1.4,3.9-1.9c0.3-0.2,0.7-0.2,1-0.3c0.3-0.1,0.7-0.2,1-0.3c0.3-0.1,0.7-0.1,1.1-0.2c0.4-0.1,0.7-0.1,1.1-0.1
		c0.2,0,0.4-0.1,0.6-0.1s0.4,0,0.6,0c0.4,0,0.8,0,1.3-0.1c0.4-0.1,0.9,0,1.3,0c0.5,0,0.9,0,1.4-0.1l1.2-0.1c1.2-0.2,2.4-0.8,3.2-2
		C513.5,244.7,513.2,241.6,511.2,239.9z M509.7,244.2c-0.5,2.1-3.1,3.3-5.8,2.7c-2.7-0.6-4.5-2.9-4-5c0.5-2.1,3.1-3.3,5.8-2.7
		C508.4,239.9,510.2,242.1,509.7,244.2z"/>
	<path class="st0" d="M455.9,245.6c-0.2-0.6-0.5-1.2-0.8-1.8c-0.2-0.6-0.6-1.2-0.9-1.7c-1.3-2.3-3.3-4.1-5.5-5.5
		c-2.2-1.4-4.7-2.1-7.1-2.3c-0.6,0-1.2,0-1.8,0c-0.6,0.1-1.2,0.1-1.8,0.2c-0.6,0.1-1.2,0.2-1.8,0.4c-0.3,0.1-0.6,0.2-0.9,0.3
		l-0.5,0.2l-0.6,0.2c-2.7,0.8-4.3,4-3.6,7c0.6,3,3.3,4.8,6,4l1.7,0.2l0.9,0.1c0.3,0.1,0.6,0.1,0.9,0.2c1.2,0.2,2.3,0.6,3.3,1.2
		c0.3,0.1,0.5,0.3,0.8,0.4c0.2,0.2,0.5,0.3,0.8,0.5c0.2,0.2,0.5,0.4,0.8,0.5c0.3,0.2,0.5,0.4,0.8,0.6c0.1,0.1,0.3,0.2,0.4,0.3
		c0.1,0.1,0.3,0.2,0.4,0.4c0.3,0.3,0.5,0.5,0.8,0.7c0.3,0.2,0.5,0.6,0.8,0.8c0.3,0.3,0.6,0.6,0.9,0.9l0.8,0.7c0.8,0.7,1.9,1,3,0.7
		c2-0.7,3.4-3.1,3.1-5.5C456.6,248,456.3,246.8,455.9,245.6z M438,244.6c-2.5,0.6-5.1-0.6-5.9-2.7c-0.8-2.1,0.8-4.4,3.3-5
		c2.5-0.6,5.1,0.6,5.9,2.7C442,241.7,440.6,244,438,244.6z"/>
</g>
</svg>
