<?xml version="1.0" encoding="utf-8"?>
<!-- Generator: Adobe Illustrator 24.0.1, SVG Export Plug-In . SVG Version: 6.00 Build 0)  -->
<svg version="1.1" id="Layer_1" xmlns="http://www.w3.org/2000/svg" xmlns:xlink="http://www.w3.org/1999/xlink" x="0px" y="0px"
	 viewBox="0 0 800 800" style="enable-background:new 0 0 800 800;" xml:space="preserve">
<g id="black">
	<path d="M470.1,212.1l-0.3-0.2c-0.3-0.3-0.7-0.5-1-0.8c-0.7-0.5-1.5-0.9-2.3-1.3c-1.7-0.7-3.6-1.2-5.8-0.9
		c-0.5,0.1-1.1,0.2-1.7,0.3c0,0-2.8,0.9-4.3,3c-1.5,2.1-1.5,5.1-1.5,5.1c0,0.1,0.1,0.3,0.5,0.5l0.6,0.3l1.1,0.4l1.1,0.2l0.7,0.1h0.7
		c0.1-0.1,0.2-0.2,0.4-0.3c0.3-0.2,0.5-0.4,0.7-0.5c0.5-0.3,0.9-0.5,1.2-0.6c0.6-0.3,0.9-0.4,1.6-0.6c0.7-0.1,1.7-0.1,2.9-0.1
		c0.6,0,1.2,0,1.9,0.1c0.3,0,0.7,0.1,1,0.1h0.2c0.1,0,0.2,0,0.3-0.1c0.1-0.1,0.4-0.4,0.6-0.7c0.2-0.2,0.4-0.5,1-1.3
		c0.4-0.9,0.5-1.2,0.5-1.5s0.1-0.7,0.1-0.9C470.3,212.2,470.2,212.1,470.1,212.1z"/>
	<path d="M504.6,224.9c-0.1-0.5-0.2-1.1-0.4-1.6c-0.4-1-0.8-2.1-1.4-3.1c-0.7-0.9-1.3-1.9-2.2-2.7c-0.8-0.8-1.8-1.6-2.8-2.2
		c-2-1.3-4.5-2.2-6.9-2.3c-1.2-0.1-2.4,0-3.6,0.2c-0.6,0.1-1.2,0.3-1.7,0.4l-0.4,0.1c-0.1,0-0.3,0.1-0.4,0.3
		c-0.1,0.2-0.2,0.6-0.2,0.9c-0.1,0.3-0.1,0.7,0,1.6c0.5,1,0.6,1.3,0.8,1.6c0.2,0.3,0.3,0.6,0.5,0.8c0.1,0.2,0.2,0.2,0.3,0.2h0.3
		c0.4,0,0.8,0.1,1.1,0.2c0.8,0.2,1.5,0.4,2.2,0.7c1.4,0.5,2.6,1.2,3.8,2c1.2,0.8,2.3,1.8,3.4,2.9c0.6,0.5,1.2,1.1,1.9,1.7
		c0.3,0.3,0.7,0.6,1,0.9l0.5,0.5c0.1,0.1,0.3,0.1,0.7,0l0.7-0.2l1.1-0.3l0.9-0.7l0.5-0.5c0.3-0.3,0.4-0.5,0.4-0.6L504.6,224.9z"/>
	<path d="M498.2,234.4c-4.1-1.5-10,4-13.1,12.4c-3.1,8.4-2.3,16.4,1.8,18c3.4,1.3,7.9-2.3,11.1-8.2c0.9-1.6,0.1-3.5-1.5-4.2
		l-3.2-1.3c-0.6-0.3-0.5-1.1,0.1-1.2l5.7-1c1.3-0.2,2.2-1.2,2.4-2.5C502.5,240.4,501.3,235.5,498.2,234.4z"/>
	<path d="M462.5,234.4c-4.1-1.5-10,4-13.1,12.4c-3.1,8.4-2.3,16.4,1.8,18c3.4,1.3,7.9-2.3,11.1-8.2c0.9-1.6,0.1-3.5-1.5-4.2
		l-3.2-1.3c-0.5-0.3-0.4-1.1,0.1-1.2l5.7-1c1.3-0.2,2.2-1.2,2.4-2.5C466.8,240.4,465.6,235.5,462.5,234.4z"/>
</g>
</svg>
