<?xml version="1.0" encoding="utf-8"?>
<!-- Generator: Adobe Illustrator 24.0.1, SVG Export Plug-In . SVG Version: 6.00 Build 0)  -->
<svg version="1.1" id="Layer_1" xmlns="http://www.w3.org/2000/svg" xmlns:xlink="http://www.w3.org/1999/xlink" x="0px" y="0px"
	 viewBox="0 0 800 800" style="enable-background:new 0 0 800 800;" xml:space="preserve">
<style type="text/css">
	.st0{fill:#FFFFFF;}
</style>
<g id="white">
	<path class="st0" d="M435.5,218.3c-13.3,0-24.1,12.5-24.1,27.9c0,15.4,10.8,27.9,24.1,27.9c4.2,0,8.2-1.3,11.7-3.5
		c4-2.7,5.8-7.7,4.3-12.3c-1.2-3.8-1.9-7.8-1.9-12.1c0-5.4,1.1-10.6,3.1-15.2c0.8-1.8,0.5-3.9-0.8-5.3
		C447.6,221.1,441.8,218.3,435.5,218.3z"/>
	<ellipse class="st0" cx="479.2" cy="246.2" rx="24.1" ry="27.9"/>
</g>
<g id="black">
	<path d="M535.4,284.9c-1-3.5-2.1-7-3.2-10.5c-1.1-3.5-2.3-7-3.5-10.4c-2.4-6.9-5-13.8-8.2-20.7c-0.5-1.1-1.7-1.9-3-1.9h-0.1h-2.1
		c-2.1-16.4-14.7-29.1-29.9-29.1h-6.1c-7.1,0-13.7,2.8-18.9,7.4c-5.2-4.6-11.7-7.4-18.9-7.4h-6.1c-16.7,0-30.2,15.2-30.2,33.9
		s13.6,33.9,30.2,33.9h6.1c7.1,0,13.7-2.8,18.9-7.4c5.2,4.7,11.7,7.4,18.9,7.4h6.1c15.9,0,28.9-13.7,30.1-31.2
		c2.8,5.5,5.4,11.3,7.8,17.1c2.8,6.7,5.4,13.5,7.8,20.3l0,0c0.4,1.1,1.6,1.8,2.8,1.4C535.1,287.4,535.8,286.2,535.4,284.9z
		 M451.9,231.5c-0.5,1.2-1,2.5-1.4,3.8c-1.2-0.9-2.9-0.7-3.9,0.4c-1,1.1-2,2.3-2.9,3.6c-0.9,1.2-1.7,2.5-2.4,3.8
		c-1.4,2.6-2.9,5.2-3.4,8.3c0,0.1,0,0.3,0.1,0.4c0.2,0.2,0.5,0.3,0.7,0.1l0,0c2.5-1.8,4.3-4.1,6.3-6.1c1-1,2-2.1,2.9-3.1
		c0.4-0.4,0.8-0.8,1.2-1.2c-0.2,1.5-0.3,3-0.3,4.6c0,4.1,0.7,8,1.9,11.7c1.5,4.4-0.3,9.3-4.2,11.8c-3.3,2.2-7.2,3.4-11.3,3.4
		c-12.8,0-23.2-12.1-23.2-26.9c0-14.8,10.4-26.9,23.2-26.9c6.1,0,11.6,2.7,15.8,7.2C452.4,227.8,452.7,229.8,451.9,231.5z
		 M479.2,273.1c-12.8,0-23.2-12.1-23.2-26.9c0-14.8,10.4-26.9,23.2-26.9s23.2,12.1,23.2,26.9C502.5,261,492,273.1,479.2,273.1z"/>
	<path d="M484.1,236.4c2.2-2.5,4.4-5,6.7-6.9l0.1-0.1l0.1-0.1c1.2-1.2,1.2-3.1,0.1-4.2c-1.2-1.2-3.1-1.2-4.2-0.1
		c-0.7,0.6-1.3,1.3-2,1.9l-1.8,2c-1.1,1.3-2.2,2.7-3.3,4.1c-2.1,2.8-4,5.6-5.9,8.5c-3.6,5.8-7.2,11.7-9.8,18.1
		c-0.1,0.2,0,0.4,0.1,0.6c0.2,0.2,0.5,0.2,0.7-0.1c2.3-2.6,4.4-5.2,6.5-7.9s4.1-5.4,6.2-8C479.8,241.5,481.9,238.9,484.1,236.4z"/>
	<path d="M488.1,241c-1.7,2.2-3.2,4.5-4.7,6.8c-3,4.6-6,9.3-8.2,14.5c-0.1,0.2,0,0.4,0.1,0.6c0.2,0.2,0.5,0.2,0.7,0
		c2-1.9,3.9-3.9,5.7-6l5.4-6.2c1.8-2.1,3.6-4.2,5.3-6.2c1.8-2,3.6-4.1,5.4-6l0,0c0,0,0,0,0.1-0.1c1.1-1.2,1-3.1-0.2-4.2
		c-1.2-1.1-3.1-1-4.2,0.2C491.4,236.5,489.7,238.8,488.1,241z"/>
	<path d="M439.8,226.6c-1.6,1.8-3.1,3.6-4.5,5.6c-1.4,1.9-2.7,3.9-3.9,5.9c-1.2,2-2.4,4.1-3.4,6.2c-0.5,1.1-1,2.2-1.4,3.3
		s-0.8,2.2-1,3.6c0,0.2,0,0.4,0.2,0.5c0.2,0.2,0.5,0.1,0.7-0.1l0.1-0.1c0.6-0.8,1.4-1.8,2.1-2.7l2.2-2.7c1.4-1.8,2.8-3.6,4.3-5.3
		c1.5-1.8,3-3.5,4.5-5.2s3.1-3.3,4.6-5l0,0c0,0,0,0,0.1-0.1c1.1-1.2,1-3.1-0.3-4.2C442.8,225.2,440.9,225.3,439.8,226.6z"/>
</g>
</svg>
