<?xml version="1.0" encoding="utf-8"?>
<!-- Generator: Adobe Illustrator 24.0.1, SVG Export Plug-In . SVG Version: 6.00 Build 0)  -->
<svg version="1.1" id="Layer_1" xmlns="http://www.w3.org/2000/svg" xmlns:xlink="http://www.w3.org/1999/xlink" x="0px" y="0px"
	 viewBox="0 0 800 800" style="enable-background:new 0 0 800 800;" xml:space="preserve">
<style type="text/css">
	.st0{fill:#FFFFFF;}
</style>
<g id="white">
	<g>
		<path class="st0" d="M497.3,261.5c2.1-3.4,3.8-7.2,4.9-11.1c0.9-3,1.5-6.1,1.6-9.2c-14-0.9-43.8-6.6-53.3-36.9
			c-2.1-6.6-9.1-10.2-15.7-8.2c-6.6,2.1-10.2,9.1-8.2,15.7c7.7,24.4,25.3,41.6,50.8,49.7c6.1,1.9,11.9,3.1,17,3.8
			C495.5,264.2,496.4,262.9,497.3,261.5z"/>
	</g>
	<g>
		<path class="st0" d="M435.5,236c-12.1-4.9-24.4-14.2-29.9-31.7c-2.1-6.6-9.1-10.2-15.7-8.2c-6.6,2.1-10.2,9.1-8.2,15.7
			c7.7,24.4,25.3,41.6,50.8,49.7c6.1,1.9,11.9,3.1,17,3.8c1.2-1.1,2.1-2.4,2.9-3.8c1.3-2.1,2.4-4.4,3.4-6.7
			C447.7,249.7,440.9,243.4,435.5,236z"/>
	</g>
</g>
<g id="black">
	<path d="M392.5,202.2c-2.5,0.2-4.3,3-4,6.2s2.5,5.7,5,5.5c2.5-0.2,4.3-3,4-6.2C397.2,204.5,395,202,392.5,202.2z"/>
	<path d="M487.5,226.9c-4.1,0-8.2,1.3-11.9,3.6c-13.2-7.2-19.4-17.9-22.3-27c-2.6-8.1-11.3-12.7-19.4-10.1
		c-8.2,2.6-12.7,11.3-10.1,19.4c2,6.2,4.5,12,7.7,17.3c-0.3,0.1-0.5,0.3-0.8,0.5c-13.1-7.2-19.3-17.9-22.2-27
		c-2.6-8.1-11.3-12.7-19.4-10.1c-8.2,2.6-12.7,11.3-10.1,19.4c6.6,21,20.3,36.8,39.8,46.4c2.3,8.1,9.2,13.5,17.5,13.5
		c9.9,0,19.4-6.5,23.4-15.6c1.3,0.7,2.7,1.4,4,2.1c2.3,8.1,9.2,13.5,17.5,13.5c12,0,23.3-9.6,25.1-21.6c1-6.5-0.7-12.9-4.7-17.6
		C498,229.3,493,226.9,487.5,226.9z M435.5,199.1c0.9-0.3,1.9-0.4,2.9-0.4c4,0,7.8,2.6,9.1,6.6c8.9,28.3,34.8,36.1,49.4,38.3
		c1.3,0.2,2.5,0.4,3.6,0.6c0.4,1.9,0.4,4,0.1,6c-0.8,4.7-3.5,9-7.2,12c-5.2-0.8-10.4-1.9-15.2-3.5c-3.7-1.2-7.1-2.5-10.4-4.1
		c-0.2-0.1-0.4-0.2-0.7-0.3c-18.6-8.8-31.6-23.6-37.8-43.3C427.7,206,430.5,200.7,435.5,199.1z M384.5,211c-1.6-5,1.2-10.3,6.2-11.9
		c0.9-0.3,1.9-0.4,2.9-0.4c4,0,7.8,2.6,9.1,6.6c6.6,21,22.6,30.7,36.4,35.2c0.2,0.3,0.5,0.5,0.7,0.8c0,0,0,0,0,0
		c0.7,0.8,1.5,1.6,2.3,2.4c0.1,0.1,0.1,0.1,0.2,0.2c0.8,0.8,1.5,1.5,2.3,2.3c0,0,0,0,0,0c0.3,0.3,0.7,0.6,1,0.9
		c-0.5-0.1-0.9-0.3-1.4-0.4c-2.1-0.6-4.3-1.1-6-1.9c-0.2-0.1-0.4-0.2-0.6-0.3c-0.2-0.1-0.5-0.3-0.7-0.4c-0.4-0.3-0.9-0.6-1.4-0.9
		c-0.9-0.6-2-1.1-3-1.6c-1.1-0.4-2.2-0.8-3.3-1.1c-0.6-0.2-1.2-0.2-1.8-0.3c-0.3,0-0.6,0-0.9,0c-0.2,0-0.3,0.1-0.5,0.1
		s-0.3,0-0.6,0.2l0.5,0.8c-0.1,0.1,0.1,0.1,0.2,0.1s0.2,0.1,0.3,0.1c0.2,0,0.5,0.1,0.7,0.2c0.5,0.1,0.9,0.4,1.4,0.6
		c1,0.5,1.9,1,2.8,1.6c0.9,0.5,1.8,1.1,2.7,1.7c1,0.6,1.7,1.2,3,1.8c1.2,0.5,2.3,0.8,3.4,1c1.1,0.3,2.2,0.4,3.3,0.6
		c1.8,0.2,3.5,0.5,5.1,0.9c1.2,1,2.5,1.9,3.8,2.9c0,0,0,0,0.1,0c0.6,0.4,1.1,0.8,1.7,1.2c-1.3,3.1-3.4,5.9-6,8.1
		c-5.2-0.8-10.3-1.9-15.2-3.5C408.8,250.9,391.9,234.4,384.5,211z"/>
	<path d="M437.3,202.2c-2.5,0.2-4.3,3-4,6.2c0.3,3.2,2.5,5.7,5,5.5c2.5-0.2,4.3-3,4-6.2C442,204.5,439.8,202,437.3,202.2z"/>
	<path d="M521.7,239.2c-0.5-2.5-1.6-4.9-3.2-6.9c-0.5-0.5-0.8-1-1.3-1.4l-0.7-0.7l-0.7-0.6c-1-0.8-2.1-1.5-3.4-1.5
		c1,0.8,1.7,1.7,2.6,2.5l0.5,0.7l0.4,0.7c0.3,0.5,0.5,1,0.7,1.5c0.9,2.1,1.4,4.2,1.7,6.3c0.2,2.1,0.2,4.3,0.2,6.5
		c-0.1,2.2-0.6,4.4-0.5,7c1.8-1.8,2.9-4.1,3.5-6.5C522.1,244.3,522.2,241.7,521.7,239.2z"/>
	<path d="M463.3,243.9c0.8,1.1,1.9,2.4,3,3.5c1.1,1.1,2.4,2.1,3.6,3.1c1.2,0.9,2.5,1.8,4,2.6c2.8,1.6,6.1,2.4,9.3,2.5
		c1.6,0.1,3.2,0.1,4.7,0c1.5-0.1,3-0.1,4.3,0.3l0.4-0.9c-1.5-0.8-3.2-1-4.7-1.2s-3-0.3-4.5-0.5c-2.9-0.4-5.7-1.2-8.2-2.6
		c-1.2-0.7-2.4-1.5-3.6-2.4c-1.2-0.9-2.4-1.7-3.5-2.7c-1.2-1-2.2-2-3.4-3.1s-2.8-1.8-4.3-2.2l-0.4,0.8
		C461.3,242,462.4,242.8,463.3,243.9z"/>
	<path d="M468.8,240.8c0.1,0,0.2,0.1,0.3,0.1c0.2,0,0.5,0.1,0.7,0.2c0.5,0.1,0.9,0.4,1.4,0.6c1,0.5,1.9,1,2.8,1.6
		c0.9,0.5,1.8,1.1,2.7,1.7c1,0.6,1.7,1.2,3,1.8c1.2,0.5,2.3,0.8,3.4,1c1.1,0.3,2.2,0.4,3.3,0.6c2.2,0.3,4.4,0.6,6.4,1.2l0.4-0.9
		c-2-1.3-4.2-2-6.3-2.6c-2.1-0.6-4.3-1.1-6-1.9c-0.2-0.1-0.4-0.2-0.6-0.3c-0.2-0.1-0.5-0.3-0.7-0.4c-0.4-0.3-0.9-0.6-1.4-0.9
		c-0.9-0.6-2-1.1-3-1.6c-1.1-0.4-2.2-0.8-3.3-1.1c-0.6-0.2-1.2-0.2-1.8-0.3c-0.3,0-0.6,0-0.9,0c-0.2,0-0.3,0.1-0.5,0.1
		s-0.3,0-0.6,0.2l0.5,0.8C468.5,240.8,468.7,240.8,468.8,240.8z"/>
	<path d="M445.3,256.3c1.5-0.1,3-0.1,4.3,0.3l0.4-0.9c-1.5-0.8-3.2-1-4.7-1.2s-3-0.3-4.5-0.5c-2.9-0.4-5.7-1.2-8.2-2.6
		c-1.2-0.7-2.4-1.5-3.6-2.4c-1.2-0.9-2.4-1.7-3.5-2.7c-1.2-1-2.2-2-3.4-3.1c-1.2-1.1-2.8-1.8-4.3-2.2l-0.4,0.8
		c1.3,0.9,2.4,1.7,3.3,2.8c0.8,1.1,1.9,2.4,3,3.5c1.1,1.1,2.4,2.1,3.6,3.1c1.2,0.9,2.5,1.8,4,2.6c2.8,1.6,6.1,2.4,9.3,2.5
		C442.2,256.4,443.8,256.4,445.3,256.3z"/>
</g>
</svg>
