<?xml version="1.0" encoding="utf-8"?>
<!-- Generator: Adobe Illustrator 24.0.1, SVG Export Plug-In . SVG Version: 6.00 Build 0)  -->
<svg version="1.1" id="Layer_1" xmlns="http://www.w3.org/2000/svg" xmlns:xlink="http://www.w3.org/1999/xlink" x="0px" y="0px"
	 viewBox="0 0 800 800" style="enable-background:new 0 0 800 800;" xml:space="preserve">
<style type="text/css">
	.st0{fill:#FFFFFF;}
</style>
<path id="black" d="M539.2,273.5c-5-4.7-25.5-35.5-26.5-36.5c-0.2-0.2-0.4-0.2-0.6-0.3c-0.5-0.1-2.4,1.4-2.4-0.9
	c0-0.4-0.3-0.7-0.5-1.1c-0.5-0.9-2.6-0.7-4.4-0.4c-1.8-6.9-6.5-11.7-12.6-11.8c-0.3,0-0.6,0-0.8,0c-1.6,0.1-3.3,0-4.9-0.1
	c-0.3,0-0.6,0-0.8-0.1c-7.4-0.2-14.7,6.3-18.2,15.6c-1-0.4-2.3-0.8-3.6-0.9c-0.9-8.9-6.1-15.4-13.3-15.6c-0.3,0-0.6,0-0.8,0
	c-1.6,0.1-3.3,0-4.9-0.1c-0.3,0-0.6,0-0.8-0.1c-7-0.2-13.8,5.6-17.5,13.9c-2.2-0.6-5.7-1.4-6.4-0.1c-1,1.9-3.3,11.1,0,12.7
	c1.1,0.5,2.4,0.6,3.6,0.5c0.1,10.2,5.5,18.1,13.4,18.3c0.3,0,0.6,0,0.8,0c1.6-0.1,3.3,0,4.9,0.1c0.3,0,0.6,0,0.8,0.1
	c8.9,0.3,17.7-9.2,19.8-21.4c0.7,0.1,1.4,0.2,2.1,0.4c-1.4,12,4.4,21.8,13.2,22c0.3,0,0.6,0,0.8,0c1.6-0.1,3.3,0,4.9,0.1
	c0.3,0,0.6,0,0.8,0.1c8.4,0.2,16.6-8.1,19.3-19.1c0.8,0.1,1.6,0,2.3-0.3c0.2,0.4,0.5,0.7,0.9,0.9c6.2,4.6,22.8,21,24.4,24.5
	c1.9,4,0.9,11.3,0.9,11.3c3.6-0.1,8.7,3.1,8.7,3.1S544.2,278.2,539.2,273.5z"/>
<g id="white">
	<path class="st0" d="M516.1,245.5c-0.2-0.6-0.5-1.2-0.8-1.8c-0.4-0.6-0.8-1.2-1.3-1.7c-0.6-0.5-1.2-1-2-1.4c-0.1,0-0.2-0.1-0.2,0
		c-0.4,0-0.8,0.2-0.9,0.5c-0.1,0.7,0,1.4,0.2,2c0.1,0.6,0.4,1.2,0.8,1.8c0.3,0.5,0.8,1.1,1.3,1.6s1.1,1,1.9,1.4
		c0.1,0,0.2,0.1,0.3,0.1c0.5,0,0.9-0.2,0.9-0.5C516.4,246.8,516.3,246.1,516.1,245.5z"/>
	<path class="st0" d="M444.9,226.2c-6.7-0.5-13.4,4.9-14.3,10.8c-0.9,5.9,8.1-1.3,11.6,0.3C459.7,245.6,456.7,227,444.9,226.2z"/>
	<path class="st0" d="M487.6,227.4c-6.7-0.5-13.4,4.9-14.3,10.8c-0.9,5.9,8.1-1.3,11.6,0.3C502.5,246.9,499.5,228.3,487.6,227.4z"/>
</g>
</svg>
