<?xml version="1.0" encoding="utf-8"?>
<!-- Generator: Adobe Illustrator 24.0.1, SVG Export Plug-In . SVG Version: 6.00 Build 0)  -->
<svg version="1.1" id="Layer_1" xmlns="http://www.w3.org/2000/svg" xmlns:xlink="http://www.w3.org/1999/xlink" x="0px" y="0px"
	 viewBox="0 0 800 800" style="enable-background:new 0 0 800 800;" xml:space="preserve">
<style type="text/css">
	.st0{fill:#FFFFFF;}
</style>
<g id="black">
	<path d="M508,253.7c-2.5,12.2-16.3,19.1-26.9,16.5c-9.8-2.4-14.9-12.1-11.2-25.5c3.7-13.4,9.3-24,22.3-23
		C505.2,222.6,511.4,236.9,508,253.7z"/>
	<path d="M461.2,250.1c-3.9,12.8-13.1,17.7-19.1,16.8c-6.1-0.9-13.9-6.8-10-19.6c3.9-12.8,18-27.8,24.1-26.9
		C466.6,221.2,465.1,237.3,461.2,250.1z"/>
	<path d="M424.5,264.3c-0.9-0.3-1.5-0.9-2.1-1.4s-1-1.1-1.3-1.8c-0.7-1.3-1.2-2.6-1.3-4c-0.1-1.4,0-2.8,0.2-4.1l0.4-2
		c0.2-0.7,0.3-1.3,0.5-2c0.8-2.6,1.9-5.2,3.5-7.4c0.7-1.2,1.6-2.1,2.4-3.2c0.9-1,1.9-1.9,2.8-2.7c0.7-0.7,1.9-0.6,2.6,0.1
		c0.5,0.6,0.6,1.4,0.3,2.1l-0.1,0.2c-0.6,1-1.2,2-1.7,3s-1.1,2-1.5,3.1l-0.6,1.5l-0.5,1.6c-0.2,0.5-0.3,1.1-0.4,1.6s-0.3,1-0.3,1.6
		c-0.1,0.5-0.2,1.1-0.3,1.6l-0.2,1.6c-0.1,1.1,0,2.1-0.1,3.2c-0.1,1.1-0.3,2.2-0.6,3.3c-0.1,0.6-0.3,1.2-0.6,1.8
		C425.3,262.8,425,263.5,424.5,264.3z"/>
	<path d="M491.5,282.2c2.2-0.9,4-1.3,5.7-1.9c1.7-0.5,3.3-1.2,4.8-1.7c0.8-0.3,1.5-0.6,2.3-0.9c0.7-0.4,1.5-0.7,2.2-1.1
		c1.4-0.9,2.7-1.9,3.9-3.1c2.3-2.4,4.2-5.4,5.5-8.7l0.8-2.6c0.3-0.9,0.4-1.8,0.6-2.7c0.1-0.5,0.2-0.9,0.3-1.4s0.2-0.9,0.3-1.4
		c0.3-1,0.6-1.9,1.1-2.9c0.6,0.9,0.9,1.9,1.2,2.9c0.1,0.5,0.3,1,0.4,1.5c0.1,0.5,0.1,1,0.1,1.5c0,1,0.1,2.1,0,3.1l-0.3,3.1
		c-0.7,4.2-2.4,8.4-5.2,11.8c-1.4,1.8-3.1,3.2-5,4.5c-0.4,0.4-1,0.6-1.4,0.9l-1.5,0.8c-1,0.5-2.1,0.9-3.2,1.2
		c-2.2,0.5-4.5,0.6-6.7,0.2c-0.6-0.1-1.1-0.2-1.6-0.4c-0.5-0.2-1.1-0.4-1.6-0.7c-0.3-0.1-0.5-0.2-0.7-0.4c-0.2-0.2-0.5-0.3-0.7-0.5
		C492.3,283.1,491.9,282.7,491.5,282.2z"/>
</g>
<g id="white">
	<path class="st0" d="M491,243.8c-5.6,0-10.2,4.6-10.2,10.2s4.6,10.2,10.2,10.2c5.6,0,10.2-4.6,10.2-10.2S496.6,243.8,491,243.8z
		 M491,258.1c-2.2,0-4-1.8-4-4s1.8-4,4-4s4,1.8,4,4C495,256.3,493.2,258.1,491,258.1z"/>
	<path class="st0" d="M450.5,242c-5.6,0-10.2,4.6-10.2,10.2c0,4.9,3.5,9,8.1,10c3.5-2.1,7.3-6.2,9.4-13.1c0.3-1,0.6-2,0.9-3
		C456.8,243.6,453.9,242,450.5,242z M450.4,256.1c-2.2,0-4-1.8-4-4c0-2.2,1.8-4,4-4s4,1.8,4,4C454.4,254.3,452.6,256.1,450.4,256.1z
		"/>
</g>
</svg>
