<?xml version="1.0" encoding="utf-8"?>
<!-- Generator: Adobe Illustrator 24.0.1, SVG Export Plug-In . SVG Version: 6.00 Build 0)  -->
<svg version="1.1" id="Layer_1" xmlns="http://www.w3.org/2000/svg" xmlns:xlink="http://www.w3.org/1999/xlink" x="0px" y="0px"
	 viewBox="0 0 800 800" style="enable-background:new 0 0 800 800;" xml:space="preserve">
<path id="black" d="M540.3,264.5l-9-21.6c1.1-0.2,2.1-1.3,2.2-2.4l0.4-3.4c0.4-1.9-1.2-3.3-3.2-4.2c-10.8-4.7-42.7-9.8-62.7-3.2
	c-1,0.3-2,0.5-3.1,0.4c-0.7,0-1.6-0.1-2.4-0.1c-0.6,0-1.1,0-1.6,0c-1.1,0.1-2.2-0.1-3.2-0.5c-16-6.4-41-1.3-49.5,3.3
	c-1.5,0.8-2.8,2.3-2.6,4.3l0.3,3.4c0.1,1.3,0.9,2.4,2,2.5c1.4,0.2,2.5,1.4,2.8,3.2c0.4,2.7,0.3,15.8,6.5,24
	c5.2,6.8,10.4,9.2,21.1,8.8c10.3-0.4,16-6.9,18.5-14c2.9-8.2,2.7-22.6,2.7-22.6s-0.1-2.8,2.9-2.7c3.9,0,3.7,2.7,3.7,2.7
	s-0.3,14.4,3.4,22.6c3.2,7.1,10.3,13.6,23.3,14c13.5,0.4,19.9-2,26.5-8.8c2.7-2.8,4.4-6.1,5.6-9.4l7.2,8.3c1.5,1.7,2.1,4,1.6,6.2
	l-2,9.1l7.9,2.8l1.9-8.2C542.6,274.1,542.2,269.1,540.3,264.5z M437.6,271.6c-20.8,0.9-19.5-24.8-19.5-28.7c0-4,9.3-7.1,19-7.1
	s14.2,3.9,14.2,7.8C451.2,247.6,454.2,270.9,437.6,271.6z M493.9,271c-22.1-0.2-18.1-24-18.1-28s6.3-7.4,19.2-7.4
	c12.9,0,24.8,2.7,24.8,6.6C519.7,246.2,519.7,271.2,493.9,271z M511.4,251.3c0,4.1-2.5,7.4-5.5,7.4s-5.5-3.3-5.5-7.4
	s2.5-7.4,5.5-7.4C509,243.9,511.4,247.2,511.4,251.3z M448,251.3c0,4.1-2.5,7.4-5.5,7.4s-5.5-3.3-5.5-7.4s2.5-7.4,5.5-7.4
	C445.5,243.9,448,247.2,448,251.3z"/>
</svg>
