<?xml version="1.0" encoding="utf-8"?>
<!-- Generator: Adobe Illustrator 24.0.1, SVG Export Plug-In . SVG Version: 6.00 Build 0)  -->
<svg version="1.1" id="Layer_1" xmlns="http://www.w3.org/2000/svg" xmlns:xlink="http://www.w3.org/1999/xlink" x="0px" y="0px"
	 viewBox="0 0 800 800" style="enable-background:new 0 0 800 800;" xml:space="preserve">
<style type="text/css">
	.st0{fill:#FFFFFF;}
</style>
<g>
	<g id="white">
		<path class="st0" d="M459.1,222.2c-7,0-14.5,12.2-18,25.1c-3.6,12.9-5.5,23.5,1.5,23.5s20.3-10.6,23.8-23.5
			C470,234.5,466.1,222.2,459.1,222.2z"/>
		<path class="st0" d="M493.5,222.2c-7,0-14.5,12.2-18,25.1c-3.6,12.9-5.5,23.5,1.5,23.5s20.3-10.6,23.8-23.5
			C504.4,234.5,500.5,222.2,493.5,222.2z"/>
	</g>
	<g id="black">
		<path d="M505.2,232.7c-0.5-2.9-1.5-5.7-3.2-8.3c-0.3-0.7-0.9-1.3-1.4-1.9c-0.3-0.4-0.6-0.6-0.9-0.9s-0.5-0.6-0.9-0.8
			c-1.4-1-3-1.7-4.7-2c-1.7-0.2-3.6,0.1-5.2,0.9c-1.5,0.8-2.8,1.9-3.7,3.1c-1.9,2.3-3.1,4.9-4.2,7.4c-1.1,2.5-1.9,5.1-2.8,7.6
			l-2.6,7.6c-1.7,5.1-3.4,10.1-4.5,15.6c-0.3,1.4-0.5,2.8-0.5,4.3s0.1,3.1,0.9,4.9c0.4,0.9,1.1,1.7,1.9,2.4c0.8,0.7,1.8,1.1,2.7,1.4
			c0.9,0.2,1.7,0.2,2.6,0.3c0.5,0,0.9-0.1,1.3-0.1c0.4-0.1,0.8-0.1,1.2-0.2c3.2-0.7,5.8-2.1,8.2-3.8c2.4-1.7,4.5-3.6,6.4-5.8
			c1.9-2.2,3.5-4.5,4.9-7c1.4-2.5,2.5-5.1,3.4-7.8c0.8-2.7,1.4-5.5,1.6-8.3C505.9,238.5,505.7,235.6,505.2,232.7z M495.7,254.8
			c-1.2,2.2-2.6,4.2-4.1,6.1c-1.6,1.9-3.3,3.6-5.2,5.1c-1.9,1.4-4,2.6-6,3.1c-0.2,0.1-0.5,0.1-0.7,0.1s-0.5,0.1-0.7,0.1
			c-0.4-0.1-0.9,0-1.3-0.1c-0.8-0.2-1.1-0.4-1.5-1c-0.4-0.6-0.6-1.7-0.6-2.8c-0.1-1.1,0-2.4,0.2-3.6c0.5-3.3,1.3-6.6,2.2-10
			c1.3-0.4,7-1.4,18.3,1.4C496.1,253.7,495.9,254.3,495.7,254.8z M500.2,240.7c-0.3,2.3-0.9,4.7-1.7,7c-0.1,0-0.3-0.1-0.4-0.1
			c1.1-3.5,3.9-14.8-1.2-16.6c-1-0.4-2.1-0.1-3.1,0.6c-1.3,0.9-1.6,2.8-0.7,4.2c0.3,0.4,0.5,0.8,0.7,1.2c0.2,0.4-0.2,0.9-0.7,0.7
			l-1.8-0.5c-1-0.3-2.1,0.2-2.5,1.1c-1.3,2.6-2.4,5.3-3.1,7.2c-2.5-0.2-4.4-0.1-6,0c1.6-4.7,3.1-9.3,5.1-13.6c1-2.3,2.3-4.6,3.8-6.3
			c0.7-0.9,1.6-1.5,2.4-1.9c0.8-0.4,1.6-0.4,2.5-0.3c0.9,0.2,1.7,0.6,2.5,1.2c0.3,0.1,0.4,0.3,0.6,0.5c0.1,0.2,0.3,0.4,0.5,0.6
			c0.3,0.4,0.7,0.8,0.9,1.3c1.2,1.9,1.9,4.1,2.2,6.5C500.5,235.8,500.5,238.3,500.2,240.7z"/>
		<path d="M466.9,226.3c-0.7-1.3-1.7-2.5-2.9-3.5s-2.7-1.8-4.4-2.1c-1.7-0.2-3.5,0-5.1,0.7c-1.5,0.8-2.7,1.8-3.6,2.9
			c-1.9,2.2-3.1,4.6-4.2,7c-1.1,2.4-2,4.8-2.9,7.2l-2.7,7.2c-1.8,4.7-3.6,9.5-4.8,14.7c-0.3,1.3-0.5,2.6-0.6,4.1
			c-0.1,1.5-0.1,3.1,0.6,4.8c0.4,0.8,0.9,1.7,1.7,2.4c0.7,0.7,1.6,1.2,2.5,1.5c0.9,0.4,1.7,0.4,2.6,0.5c0.4,0.1,0.8,0,1.2,0
			s0.8,0,1.2-0.1c3.1-0.5,5.7-1.9,8-3.4c2.4-1.6,4.5-3.4,6.3-5.4s3.4-4.3,4.8-6.6c1.3-2.4,2.5-4.8,3.4-7.4c0.8-2.6,1.4-5.2,1.9-8.1
			c0.2-2.8,0.2-5.5-0.2-8.3C469.2,231.6,468.4,228.9,466.9,226.3z M459.2,255.2c-1.2,2-2.6,3.9-4.1,5.7c-1.5,1.7-3.2,3.4-5,4.7
			s-3.8,2.4-5.7,2.8c-0.3,0.1-0.5,0.1-0.7,0.1c-0.3,0.1-0.5,0.1-0.7,0.1c-0.4,0-0.9,0-1.2-0.1c-0.6-0.2-0.9-0.4-1.2-1
			c-0.3-0.6-0.4-1.6-0.4-2.7c0-1.1,0.1-2.2,0.3-3.4c0.5-3.1,1.4-6.2,2.4-9.3c0.8-0.2,6-1.4,17.1,1.8
			C459.7,254.3,459.5,254.8,459.2,255.2z M464.1,242.2c-0.4,2.2-1,4.3-1.7,6.4h-0.1c1.1-3.5,4.1-14-0.6-15.9c-1-0.4-2-0.1-3,0.5
			c-1.3,0.9-1.6,2.6-0.8,4c0.2,0.4,0.5,0.8,0.7,1.2c0.2,0.4-0.3,0.9-0.7,0.6l-1.7-0.5c-0.9-0.3-2,0.1-2.4,1
			c-1.3,2.4-2.4,4.9-3.1,6.7c-2.4-0.2-4.4-0.2-5.9-0.1c1.6-4.5,3.2-8.8,5.2-12.9c1.1-2.2,2.3-4.3,3.8-5.9c0.7-0.9,1.5-1.4,2.3-1.8
			c0.7-0.3,1.5-0.3,2.3-0.2c0.8,0.3,1.6,0.7,2.3,1.3c0.7,0.7,1.3,1.5,1.8,2.4c1,1.8,1.6,4,1.8,6.3
			C464.5,237.6,464.4,239.9,464.1,242.2z"/>
	</g>
</g>
</svg>
