<?xml version="1.0" encoding="utf-8"?>
<!-- Generator: Adobe Illustrator 24.0.1, SVG Export Plug-In . SVG Version: 6.00 Build 0)  -->
<svg version="1.1" id="Layer_1" xmlns="http://www.w3.org/2000/svg" xmlns:xlink="http://www.w3.org/1999/xlink" x="0px" y="0px"
	 viewBox="0 0 800 800" style="enable-background:new 0 0 800 800;" xml:space="preserve">
<style type="text/css">
	.st0{fill-rule:evenodd;clip-rule:evenodd;}
</style>
<g id="black">
	<path class="st0" d="M461.8,214.7c-0.2-0.2-0.5-0.4-0.7-0.6c-0.5-0.3-1.1-0.6-1.6-0.8c-0.6-0.2-1.1-0.3-1.7-0.4
		c-0.6-0.1-1.2-0.1-1.7-0.1c-2.2,0.1-4.2,0.9-5.8,2.2c-1.6,1.3-2.9,3-3.2,5c-0.1,0.1,0,0.2,0.1,0.4c0.1,0.2,0.5,0.3,0.7,0.1
		c1.5-1,2.9-1.7,4.3-2.2c1.4-0.5,2.8-0.8,4.1-0.8c1.3,0,2.4,0.2,3.4,0.8c1,0.5,1.9,1.6,3,3.2c0.1,0.1,0.2,0.2,0.3,0.2
		c0.3,0.1,0.6,0,0.7-0.3c0.6-1.8,0.3-4.3-1.3-6.1C462.3,215.1,462,214.9,461.8,214.7z"/>
	<path class="st0" d="M478.1,221.5c0.2,0.2,0.6,0.2,0.8-0.1c1.3-1.7,2.5-2.5,3.8-2.9c1.3-0.4,2.7-0.6,4.3-0.6s3.3,0.2,4.9,0.6
		c1.6,0.4,3.2,1,4.9,2c0.1,0.1,0.3,0.2,0.6,0c0.3-0.1,0.5-0.4,0.4-0.7c-0.6-2.1-2.2-3.9-4.1-5.1c-1.9-1.2-4.1-1.9-6.4-2
		c-2.3-0.1-4.9,0.4-6.9,2c-1,0.7-1.9,1.8-2.3,3c-0.4,1.2-0.5,2.4-0.2,3.5C477.9,221.3,478,221.4,478.1,221.5z"/>
	<path class="st0" d="M499.2,236.7c-0.4-6.2-2.8-10.5-6.8-12.3c-4-1.7-8.8-0.5-13.6,3.5c-4.3,3.6-8.2,9.1-11,15.5
		c-2.8,6.4-4.1,13-3.7,18.6c0.4,6.2,2.8,10.5,6.8,12.3c1.2,0.5,2.4,0.8,3.7,0.8c3.1,0,6.5-1.4,9.9-4.2c4.3-3.6,8.2-9.1,11-15.5
		C498.3,248.9,499.6,242.3,499.2,236.7z M470.4,267c-0.7-1.4-1.1-3.2-1.3-5.3c-0.3-4.9,0.8-10.7,3.3-16.3c2.4-5.7,5.8-10.5,9.6-13.6
		c1.6-1.3,3.2-2.2,4.6-2.7L470.4,267z M490.9,253.3c-2.4,5.7-5.8,10.5-9.6,13.6c-1.6,1.3-3.2,2.2-4.6,2.7l8.6-20.8l-3.5-2.9l6.4-4.3
		l4.2-10.6c0.9,1.4,1.5,3.5,1.7,6.1C494.5,241.9,493.4,247.7,490.9,253.3z"/>
	<path class="st0" d="M455.6,224.4c-7.8-3.3-18.6,5-24.6,18.9c-2.8,6.4-4.1,13-3.7,18.6c0.4,6.2,2.8,10.5,6.8,12.3
		c1.2,0.5,2.4,0.8,3.7,0.8c3.1,0,6.5-1.4,9.9-4.2c4.3-3.6,8.2-9.1,11-15.5c2.8-6.4,4.1-13,3.7-18.6
		C462.1,230.5,459.6,226.2,455.6,224.4z M433.7,266.9c-0.7-1.4-1.1-3.2-1.3-5.3c-0.4-4.8,0.8-10.6,3.3-16.3
		c3.9-9.1,9.7-14.8,14.2-16.3L433.7,266.9z M454.2,253.3c-2.4,5.7-5.8,10.5-9.6,13.6c-1.6,1.3-3.2,2.2-4.6,2.7l8.6-20.8l-3.5-2.9
		l6.4-4.3l4.2-10.6c0.9,1.4,1.5,3.5,1.7,6C457.8,241.9,456.7,247.7,454.2,253.3z"/>
</g>
</svg>
