<?xml version="1.0" encoding="utf-8"?>
<!-- Generator: Adobe Illustrator 24.0.1, SVG Export Plug-In . SVG Version: 6.00 Build 0)  -->
<svg version="1.1" id="Layer_1" xmlns="http://www.w3.org/2000/svg" xmlns:xlink="http://www.w3.org/1999/xlink" x="0px" y="0px"
	 viewBox="0 0 800 800" style="enable-background:new 0 0 800 800;" xml:space="preserve">
<g id="black">
	<path d="M453.7,217.8l0.6,0.3l1.1,0.4l1.1,0.2l0.7,0.1h0.7c0.1-0.1,0.2-0.2,0.4-0.3c0.3-0.2,0.5-0.4,0.7-0.5
		c0.5-0.3,0.9-0.5,1.2-0.6c0.6-0.3,0.9-0.4,1.6-0.6c0.7-0.1,1.7-0.1,2.9-0.1c0.6,0,1.2,0,1.9,0.1c0.3,0,0.7,0.1,1,0.1h0.2
		c0.1,0,0.2,0,0.3-0.1c0.1-0.1,0.4-0.4,0.6-0.7c0.2-0.2,0.4-0.5,1-1.3c0.4-0.9,0.5-1.2,0.5-1.5s0.1-0.7,0.1-0.9s-0.1-0.3-0.2-0.3
		l-0.3-0.2c-0.3-0.3-0.7-0.5-1-0.8c-0.7-0.5-1.5-0.9-2.3-1.3c-1.7-0.7-3.6-1.2-5.8-0.9c-0.5,0.1-3.6,1.2-5.1,2.5s-2.3,3.6-2.3,3.6
		s0,0,0,0.1c-0.1,0.5-0.1,1-0.1,1.5v0.7C453.2,217.4,453.3,217.6,453.7,217.8z"/>
	<path d="M506.9,234.5c-0.7-2.6-2.4-5.1-4.6-6.8l0.6-0.2l0.9-0.7l0.5-0.5c0.3-0.3,0.4-0.5,0.4-0.6l-0.1-0.8
		c-0.1-0.5-0.2-1.1-0.4-1.6c-0.4-1-0.8-2.1-1.4-3.1c-0.7-0.9-1.3-1.9-2.2-2.7c-0.8-0.8-1.8-1.6-2.8-2.2c-2-1.3-4.5-2.2-6.9-2.3
		c-1.2-0.1-2.4,0-3.6,0.2c-0.6,0.1-1.2,0.3-1.7,0.4l-0.4,0.1c-0.1,0-0.3,0.1-0.4,0.3s-0.2,0.6-0.2,0.9c-0.1,0.3-0.1,0.7,0,1.6
		c0.5,1,0.6,1.3,0.8,1.6c0.2,0.3,0.3,0.6,0.5,0.8c0.1,0.2,0.2,0.2,0.3,0.2h0.3c0.4,0,0.8,0.1,1.1,0.2c0.8,0.2,1.5,0.4,2.2,0.7
		c1.4,0.5,2.6,1.2,3.8,2c1.2,0.8,2.3,1.8,3.4,2.9c0.1,0.1,0.3,0.2,0.4,0.3c-4.1-1.2-8.4-0.6-12,0.6c-5,1.7-9.4,4.7-12.7,8.6
		c-0.2,0.2-0.4,0.5-0.6,0.8c-0.1,0.2-1.1,0.5-1.4-0.4c0-0.2,0-0.6,0-0.6c0-0.8,0-0.9,0-1.6c-0.3-2.7-1.4-5.3-3.2-6.9
		c-3.7-3.3-8.6-2.6-12.8-1.4c-6.1,1.8-8.9,4.2-12.1,7.9c-3.1,3.7-5.7,8.1-7.1,12.8c-0.7,2.3-0.8,4.6-0.9,6.9c-0.1,1.2,0,2.3,0.1,3.5
		c0,0.6,0.2,1.5,0.4,2s0.8,1.2,1.3,1.1s0.7-1.2,0.7-1.7c0.1-0.5,0-1.1,0-1.6c0-1,0-2.1,0.1-3.1c0.2-2.1,0.7-4.2,1.4-6.2
		c1.4-4,3.9-7.8,6.7-10.7c2.9-3,6.3-5.1,9.7-6.1c3.4-1,6.9-0.7,8.7,1.4c1.2,1.2,1.6,3.1,1.6,5.4c-0.1,0.2-0.1,0.3-0.2,0.5
		c-0.1,0.1-0.1,0.2-0.2,0.3s-0.1,0.1-0.2,0.2c-0.2,0-0.4,0-0.6,0c-0.1,0-0.1-0.1-0.2-0.1c-0.3-0.8-0.8-1.5-1.4-1.9
		c-1.9-1.3-4.7-0.3-7.6,2c-1,1,2.4,3.7,1,5.3c-1,1.1-3.9-2.6-5.1-1c-0.8,1.1-1.6,2.2-2.3,3.5c-4.4,7.6-5.3,15.6-2,17.9
		c0,0,0.1,0,0.1,0.1c-1.9,0.7-3.8,1-5.7,1c0.3,1.3,1.4,1.8,2.4,1.9s2.1,0,3.1-0.2c2.1-0.4,4.1-1.1,6.1-2.1c4-2,7.7-5.2,10.6-9.2
		c1.1-1.5,2-3,2.9-4.6c-0.2,1.9-0.3,3.9-0.1,5.8c0.1,1.3,0.4,2.5,0.7,3.7c0.1,0.6,0.3,1.2,0.7,1.8c0.3,0.6,0.7,1.1,1.7,1.3
		c0.6-0.9,0.6-1.4,0.5-2c0-0.6-0.2-1.1-0.3-1.7c-0.2-1.1-0.3-2.2-0.4-3.3c-0.1-2.2,0.1-4.5,0.7-6.6c1-4.3,3.4-8.2,6.4-11.4
		c3-3.1,6.9-5.4,11-6.4c4-1,8.5-0.7,11.2,1.4c1.7,1.3,2.6,3.3,3,5.7c0,0.2-0.1,0.3-0.1,0.5c-0.1,0.1-0.1,0.2-0.2,0.3
		s-0.1,0.1-0.2,0.2c-0.2,0-0.5,0-0.7,0c-0.1,0-0.2-0.1-0.3-0.1c-0.5-0.8-1.2-1.5-2.1-2c-2.6-1.3-6-0.4-9.2,2.1c0,0,0,0-0.1,0.1
		c-1.1,1.1,3.6,4,2.2,5.6c-1,1.2-5.3-2.7-6.5-1c-0.8,1.1-1.6,2.3-2.3,3.7c-4.2,8.1-3.9,16.6,0.7,19c0.1,0,0.1,0,0.2,0.1
		c-2.2,0.7-4.5,1.1-6.9,1c0.6,1.3,2.1,1.9,3.4,2s2.6,0,3.8-0.2c2.5-0.4,4.9-1.2,7.2-2.2c4.6-2.2,8.7-5.5,11.6-9.8
		c3-4.2,4.8-9.3,5.6-14.3C507.6,240.2,507.7,237.4,506.9,234.5z"/>
</g>
</svg>
