<?xml version="1.0" encoding="utf-8"?>
<!-- Generator: Adobe Illustrator 24.0.1, SVG Export Plug-In . SVG Version: 6.00 Build 0)  -->
<svg version="1.1" id="Layer_1" xmlns="http://www.w3.org/2000/svg" xmlns:xlink="http://www.w3.org/1999/xlink" x="0px" y="0px"
	 viewBox="0 0 800 800" style="enable-background:new 0 0 800 800;" xml:space="preserve">
<g id="black">
	<path d="M437.5,241.3c-3.2,0-6.4,5.1-6.4,11.1s3.2,10.7,6.4,10.7c3.2,0,5.1-4.7,5.1-10.7C442.6,246.4,440.7,241.3,437.5,241.3z"/>
	<path d="M485.7,241.3c-3.2,0-6.4,5.1-6.4,11.1s3.2,10.7,6.4,10.7c3.2,0,5.1-4.7,5.1-10.7C490.8,246.4,488.9,241.3,485.7,241.3z"/>
	<path d="M448.9,222.6c-5.2-1-10.4-1.3-15.7-1c-1.3,0.1-2.4,0.8-2.9,1.9c-0.6,1.1-0.5,2.5,0.2,3.5s1.8,1.6,3.1,1.5
		c4.7-0.3,9.3,0,13.9,0.8c0.2,0,0.4,0.1,0.7,0.1c1.7,0,3.1-1.2,3.5-2.9C452,224.8,450.8,223,448.9,222.6z"/>
	<path d="M494.4,222.6c-5.2-1-10.4-1.3-15.7-1c-1.3,0.1-2.4,0.8-2.9,1.9c-0.6,1.1-0.5,2.5,0.2,3.5s1.8,1.6,3.1,1.5
		c4.7-0.3,9.3,0,13.9,0.8c0.2,0,0.4,0.1,0.7,0.1c1.7,0,3.1-1.2,3.5-2.9C497.5,224.8,496.3,223,494.4,222.6z"/>
</g>
</svg>
