<?xml version="1.0" encoding="utf-8"?>
<!-- Generator: Adobe Illustrator 24.0.1, SVG Export Plug-In . SVG Version: 6.00 Build 0)  -->
<svg version="1.1" id="Layer_1" xmlns="http://www.w3.org/2000/svg" xmlns:xlink="http://www.w3.org/1999/xlink" x="0px" y="0px"
	 viewBox="0 0 800 800" style="enable-background:new 0 0 800 800;" xml:space="preserve">
<style type="text/css">
	.st0{fill:#FFFFFF;}
</style>
<path id="black" d="M540.3,264.5l-9-21.6c1.1-0.2,2.1-1.3,2.2-2.4l0.4-3.4c0.4-1.9-1.2-3.3-3.2-4.2c-10.8-4.7-42.7-9.8-62.7-3.2
	c-1,0.3-2,0.5-3.1,0.4c-0.7,0-1.6-0.1-2.4-0.1c-0.6,0-1.1,0-1.6,0c-1.1,0.1-2.2-0.1-3.2-0.5c-16-6.4-41-1.3-49.5,3.3
	c-1.5,0.8-2.8,2.3-2.6,4.3l0.3,3.4c0.1,1.3,0.9,2.4,2,2.5c1.4,0.2,2.5,1.4,2.8,3.2c0.4,2.7,0.3,15.8,6.5,24
	c5.2,6.8,10.4,9.2,21.1,8.8c10.3-0.4,16-6.9,18.5-14c2.9-8.2,2.7-22.6,2.7-22.6s-0.1-2.8,2.9-2.7c3.9,0,3.7,2.7,3.7,2.7
	s-0.3,14.4,3.4,22.6c3.2,7.1,10.3,13.6,23.3,14c13.5,0.4,19.9-2,26.5-8.8c2.7-2.8,4.4-6.1,5.6-9.4l7.2,8.3c1.5,1.7,2.1,4,1.6,6.2
	l-2,9.1l7.9,2.8l1.9-8.2C542.6,274.1,542.2,269.1,540.3,264.5z"/>
<g id="white">
	<path class="st0" d="M451.3,239c-0.3-0.3-0.7-0.6-1.1-0.8c-0.5-0.2-0.9-0.3-1.4-0.4c-1-0.2-1.9-0.1-2.7-0.2
		c-0.4-0.1-0.8-0.2-1.1-0.3c-0.4-0.1-0.7-0.3-1-0.4c-0.6-0.3-1.3-0.5-1.9-0.8c-1.3-0.5-2.6-1.1-3.9-1.5c-2.7-0.9-5.4-0.5-8,0.1
		c-2.5,0.7-5,1.7-7.2,3.4c-0.1,0.1-0.1,0.2,0,0.4c0,0.2,0.2,0.5,0.4,0.5c2.6,0.3,5.1,0.4,7.5,0.4h3.6c1.2,0,2.3-0.1,3.5-0.3
		c1.1-0.2,2.3-0.3,3.5-0.2c0.6,0.1,1.2,0.3,1.7,0.5c0.3,0.1,0.6,0.3,0.8,0.4c0.2,0.1,0.5,0.3,0.6,0.6c0.3,0.6,0.4,1.4,0.4,2.1
		c0,0.3,0,0.6,0,0.9c0,0.2,0.1,0.4,0.2,0.6c0.2,0.2,0.3,0.3,0.5,0.4c0.2,0.1,0.5,0.2,0.8,0.3c0.3,0.1,0.7,0.1,1.2,0.2
		c0.5,0.1,1,0.2,1.9,0.2h0.1c0.2,0,0.5-0.1,0.7-0.3c1.2-1.1,1.6-2.2,1.7-3.2c0-0.5,0-1-0.2-1.4C451.8,239.8,451.6,239.3,451.3,239z"
		/>
	<path class="st0" d="M517.3,243.3c-0.1-0.7-0.3-1.4-0.5-2c-0.3-0.6-0.6-1.1-1-1.5c-0.4-0.4-0.8-0.7-1.3-0.9c-0.5-0.2-1-0.3-1.5-0.3
		c-1-0.1-2,0.1-2.8,0.1c-0.4,0-0.8-0.1-1.2-0.2c-0.4-0.2-0.7-0.3-1.1-0.4c-0.8-0.3-1.5-0.5-2.2-0.8c-1.5-0.5-2.9-1.2-4.4-1.6
		c-1.5-0.4-3-0.6-4.5-0.5c-1.5,0.1-2.9,0.4-4.4,0.7c-3,0.7-5.8,1.8-8.5,3.7c-0.1,0.1-0.2,0.2-0.1,0.5c-0.1,0.3,0.1,0.6,0.3,0.6
		c2.9,0.5,5.8,0.6,8.6,0.7c2.8,0,5.5,0.2,8.3-0.3c1.4-0.2,2.8-0.4,4.2-0.3c0.7,0,1.3,0.1,2,0.4c0.4,0.1,0.7,0.3,1,0.4
		c0.4,0.1,0.6,0.4,0.9,0.7c0.5,0.6,0.8,1.6,1.1,2.5c0.3,0.9,0.5,1.6,0.8,2c0.2,0.2,0.4,0.4,0.6,0.5c0.2,0.2,0.5,0.2,0.8,0.3
		c0.3,0.1,0.7,0.1,1.2,0.2c0.5,0,1,0.2,1.8,0.3h0.1c0.3,0.1,0.5-0.1,0.7-0.3c0.6-0.8,0.8-1.5,1-2.3
		C517.3,244.8,517.4,244,517.3,243.3z"/>
	<path class="st0" d="M446.9,267.9c-0.9,0-1.6,0.1-2.4,0.3c-0.7,0.2-1.5,0.4-2.2,0.6c-1.5,0.3-3,0.6-4.5,0.7c-3,0.3-5.9,0-8.4-1.3
		c-2.5-1.2-4.5-3.3-6.2-5.8c-0.8-1.3-1.6-2.6-2.2-4c-0.6-1.5-1.1-2.9-2-4.3c-0.1-0.2-0.2-0.2-0.4-0.2c-0.3-0.1-0.5,0.1-0.6,0.4
		c-0.3,1.8,0,3.4,0.5,5c0.5,1.6,1.1,3.2,1.9,4.7c0.8,1.5,1.9,2.9,3.1,4.2c1.2,1.3,2.7,2.4,4.3,3.2c1.6,0.8,3.3,1.3,5.1,1.5
		c1.7,0.2,3.5,0.2,5.2-0.1c1.7-0.2,3.3-0.8,4.9-1.3c0.8-0.3,1.6-0.6,2.3-1c0.7-0.5,1.4-1,2-1.6c0.1-0.1,0.2-0.3,0.2-0.4
		C447.5,268.2,447.2,267.9,446.9,267.9z"/>
	<path class="st0" d="M512.9,267.8c-1.1-0.1-2.1-0.1-3.1,0.1c-1,0.1-1.9,0.3-2.9,0.5c-2,0.4-4,0.7-5.9,0.9
		c-3.9,0.4-7.7,0.4-11.4-0.4c-3.7-0.8-7-2.5-9.6-5.1c-1.3-1.3-2.4-2.8-3.3-4.5c-0.8-1.6-1.5-3.4-2.5-5.2c-0.1-0.2-0.3-0.3-0.6-0.4
		c-0.3,0-0.6,0.2-0.7,0.5c-0.5,2.2,0.1,4.4,0.9,6.4s1.9,4,3.4,5.7c1.5,1.7,3.3,3.2,5.2,4.3c1.9,1.1,4,1.9,6.2,2.4
		c2.2,0.4,4.3,0.7,6.5,0.7c1.1,0,2.1-0.1,3.2-0.1c1.1-0.1,2.2-0.2,3.2-0.4c2.1-0.4,4.1-0.9,6.1-1.5c2-0.6,4-1.3,5.7-2.7
		c0.1-0.2,0.2-0.3,0.2-0.5C513.5,268.2,513.3,267.8,512.9,267.8z"/>
</g>
</svg>
