<?xml version="1.0" encoding="utf-8"?>
<!-- Generator: Adobe Illustrator 24.0.1, SVG Export Plug-In . SVG Version: 6.00 Build 0)  -->
<svg version="1.1" id="Layer_1" xmlns="http://www.w3.org/2000/svg" xmlns:xlink="http://www.w3.org/1999/xlink" x="0px" y="0px"
	 viewBox="0 0 800 800" style="enable-background:new 0 0 800 800;" xml:space="preserve">
<g id="black">
	<path d="M505.7,230c-1.9-2.7-4.2-5.3-7.1-7.2c-1.4-0.9-3.1-1.7-5-2.1c-1.9-0.3-4-0.1-5.8,0.6c-1.8,0.7-3.4,1.9-4.7,3.2
		s-2.4,2.7-3.3,4.2c-1.8,3-3.2,6.2-4.3,9.4c-1.1,3.2-1.9,6.5-2.6,9.7c-0.6,2.8-1.8,5.5-3.4,7.5s-3.6,3.3-5.6,3
		c-1-0.2-2.1-0.8-3.1-1.8s-1.8-2.3-2.6-3.8c-0.1-0.1-0.2-0.2-0.4-0.1c-0.3-0.1-0.5,0.1-0.5,0.4c-0.2,1.7,0.1,3.5,0.8,5.3
		c0.7,1.7,2.1,3.5,4.2,4.4c2.1,1,4.6,0.9,6.6,0.1c1.9-0.7,3.5-1.9,4.8-3.3c-0.2,0.3-0.3,0.6-0.4,0.9c-0.1,0.2-0.1,0.3-0.1,0.5
		c0.1,0.2,0.4,0.4,0.7,0.3h0.1c2.3-0.8,4.4-1.6,6.5-2.2s4.1-1,6.1-1.3s4-0.4,6.1-0.3c1.1,0,2.1,0.2,3.3,0.2c1.1,0.1,2.3,0.3,3.6,0.3
		h0.1c0.1,0,0.2,0,0.3-0.1c0.3-0.2,0.3-0.6,0.1-0.8c-0.4-0.5-0.8-0.9-1.3-1.4s-0.9-1-1.5-1.3c-1.1-0.7-2.2-1.4-3.5-1.8
		c-2.5-1-5.3-1.2-8-0.9s-5.3,1.3-7.5,2.8c-0.8,0.6-1.6,1.3-2.4,2c1.3-2.3,2.2-4.8,2.7-7.2c0.6-3.3,1.2-6.3,2.1-9.3s1.9-5.9,3.3-8.6
		c1.3-2.7,3.1-5.1,5.4-6.3c2.2-1.3,5.1-1,7.9,0.3c2.7,1.2,5.3,3.3,7.7,5.4c0.2,0.1,0.4,0.1,0.6,0C505.8,230.5,505.9,230.2,505.7,230
		z"/>
	<path d="M456.2,228.4c-0.7-1.6-1.7-3.1-3.1-4.4c-0.7-0.7-1.5-1.3-2.5-1.7c-0.9-0.5-2.1-0.7-3.2-0.8c-1.2-0.1-2.4,0.2-3.4,0.6
		c-1,0.4-1.9,1-2.6,1.7c-1.5,1.4-2.4,3-3,4.5c-1.2,3.1-1.6,6.2-1.4,9.3c0,0.2,0.1,0.3,0.2,0.4c0.3,0.1,0.6,0,0.7-0.2
		c1.5-2.7,2.8-5.3,4.4-7.4c0.8-1.1,1.7-2,2.5-2.5c0.2-0.1,0.4-0.2,0.6-0.3s0.4-0.1,0.6-0.2c0.4,0,0.7-0.1,1,0
		c0.6,0.1,1.4,0.4,2.2,1.1c0.7,0.6,1.5,1.5,2.3,2.5c1.5,2.1,2.8,4.5,4.4,7.2c0,0.1,0.1,0.2,0.3,0.2c0.2,0.1,0.5,0,0.6-0.3
		C457.8,235,457.6,231.6,456.2,228.4z"/>
	<path d="M447.5,241.3c-3.2,0-6.4,5.1-6.4,11.1c0,6,3.2,10.7,6.4,10.7s5.1-4.7,5.1-10.7S450.7,241.3,447.5,241.3z"/>
</g>
</svg>
