<?xml version="1.0" encoding="utf-8"?>
<!-- Generator: Adobe Illustrator 24.0.1, SVG Export Plug-In . SVG Version: 6.00 Build 0)  -->
<svg version="1.1" id="Layer_1" xmlns="http://www.w3.org/2000/svg" xmlns:xlink="http://www.w3.org/1999/xlink" x="0px" y="0px"
	 viewBox="0 0 800 800" style="enable-background:new 0 0 800 800;" xml:space="preserve">
<style type="text/css">
	.st0{fill-rule:evenodd;clip-rule:evenodd;}
</style>
<g id="black">
	<path class="st0" d="M447.9,220.5c1.5-1,2.9-1.7,4.3-2.2c1.4-0.5,2.8-0.8,4.1-0.8s2.4,0.2,3.4,0.8c1,0.5,1.9,1.6,3,3.2
		c0.1,0.1,0.2,0.2,0.3,0.2c0.3,0.1,0.6,0,0.7-0.3c0.6-1.8,0.3-4.3-1.3-6.1c-0.1-0.2-0.4-0.4-0.6-0.6s-0.5-0.4-0.7-0.6
		c-0.5-0.3-1.1-0.6-1.6-0.8c-0.6-0.2-1.1-0.3-1.7-0.4c-0.6-0.1-1.2-0.1-1.7-0.1c-2.2,0.1-4.2,0.9-5.8,2.2c-1.6,1.3-2.9,3-3.2,5
		c-0.1,0.1,0,0.2,0.1,0.4C447.3,220.6,447.7,220.7,447.9,220.5z"/>
	<path class="st0" d="M478.1,221.5c0.2,0.2,0.6,0.2,0.8-0.1c1.3-1.7,2.5-2.5,3.8-2.9c1.3-0.4,2.7-0.6,4.3-0.6c1.6,0,3.3,0.2,4.9,0.6
		c1.6,0.4,3.2,1,4.9,2c0.1,0.1,0.3,0.2,0.6,0c0.3-0.1,0.5-0.4,0.4-0.7c-0.6-2.1-2.2-3.9-4.1-5.1c-1.9-1.2-4.1-1.9-6.4-2
		c-2.3-0.1-4.9,0.4-6.9,2c-1,0.7-1.9,1.8-2.3,3c-0.4,1.2-0.5,2.4-0.2,3.5C477.9,221.3,478,221.4,478.1,221.5z"/>
	<path class="st0" d="M497.3,225.5c-1.4-2.5-3.5-4.2-6.2-5c-12.5-3.7-18.5,15.2-21.7,25.4c-4.4,14.1-5.1,22.6-2.2,27.6
		c1.3,2.4,3.5,3.9,6.3,4.5c1,0.2,1.9,0.3,2.8,0.3c9.8,0,15-12.1,19-24.2C499.6,240.6,500.2,231,497.3,225.5z M490.2,252.5
		c-4.9,15.6-9.6,21.7-15.7,20.4c-1.4-0.3-2.4-1-3-2.1c-3-5.2,1.3-18.9,2.7-23.4c4.9-15.3,9.1-22.2,13.8-22.2c0.5,0,1,0.1,1.5,0.2
		c1.3,0.4,2.3,1.2,3,2.5C494.7,232.1,493.9,240.8,490.2,252.5z"/>
	<path class="st0" d="M485.7,228.7c-4.5,3-8.9,8.8-7.7,21c0.6,6.9-1.5,10.6-4.6,12.7c-2.2,1.5-2.7,4.4-1.3,6.6
		c1.5,2.2,4.4,2.7,6.6,1.3c5.3-3.6,9.8-9.6,8.7-21.4c-0.6-7,1-10.6,3.6-12.3c2.2-1.4,2.8-4.4,1.3-6.6
		C490.8,227.8,487.9,227.2,485.7,228.7z"/>
	<path class="st0" d="M456.9,220.5c-12.5-3.7-18.5,15.2-21.7,25.4c-4.4,14.1-5.1,22.6-2.2,27.6c1.3,2.4,3.5,3.9,6.3,4.5
		c1,0.2,1.9,0.3,2.8,0.3c9.8,0,15-12.1,19-24.2c4.3-13.5,4.9-23.1,2-28.6C461.7,223,459.6,221.3,456.9,220.5z M456,252.5
		c-4.9,15.6-9.6,21.7-15.7,20.4c-1.4-0.3-2.4-1-3-2.1c-3-5.2,1.3-18.9,2.7-23.4c4.9-15.3,9.1-22.2,13.8-22.2c0.5,0,1,0.1,1.5,0.2
		c1.3,0.4,2.3,1.2,3,2.5C460.5,232.1,459.7,240.8,456,252.5z"/>
	<path class="st0" d="M451.5,228.7c-4.5,3-8.9,8.8-7.7,21c0.6,6.9-1.5,10.6-4.6,12.7c-2.2,1.5-2.7,4.4-1.3,6.6
		c1.5,2.2,4.4,2.7,6.6,1.3c5.3-3.6,9.8-9.6,8.7-21.4c-0.6-7,1-10.6,3.6-12.3c2.2-1.4,2.8-4.4,1.3-6.6S453.7,227.2,451.5,228.7z"/>
</g>
</svg>
