<?xml version="1.0" encoding="utf-8"?>
<!-- Generator: Adobe Illustrator 24.0.1, SVG Export Plug-In . SVG Version: 6.00 Build 0)  -->
<svg version="1.1" id="Layer_1" xmlns="http://www.w3.org/2000/svg" xmlns:xlink="http://www.w3.org/1999/xlink" x="0px" y="0px"
	 viewBox="0 0 800 800" style="enable-background:new 0 0 800 800;" xml:space="preserve">
<style type="text/css">
	.st0{fill-rule:evenodd;clip-rule:evenodd;}
	.st1{fill:#FFFFFF;}
</style>
<path id="black" class="st0" d="M370.1,510.2c0,0,20.3,22.7,113.1,3.6c0,0,2.3,18.6-1.3,35.4c-3.7,16.8,6.4,22.4,6.4,22.4
	s9.3-4.1,16.3-12.7c7-8.6,10.3-11.5,10.3-11.5s40.6-0.2,17.7,47.1c0,0-22.3,20.1-35.8,32.8c-13.4,12.7-13.5,17.4-26.6,11.5
	s-36.9-54.3-40.4-78.5c0,0-16.4,4.5-25,2.7s-15.3-7.1-15.3-7.1s-33.1,21.3-57.1,45.2c-24.1,23.8-43.5,51.3-43.5,51.3
	s-3.2,6.7-14.4,3.8c0,0,5.4-12.3-4.6-24.9c-10-12.6-23.9-14.5-23.9-14.5s-1.8-8.2,2.3-13.2c4-5,38.9-20.3,70.3-46.3
	C349.8,531.4,363,520.2,370.1,510.2z"/>
<g id="white">
	<path class="st1" d="M459.9,602.9c-0.3-1.3-0.7-2.5-1.1-3.7c-0.1-0.5-0.3-1-0.4-1.5c-0.2-0.7-0.4-1.4-0.7-2.1c-0.3-1-0.6-2-0.9-3
		l-1.5-5.1l-1.4-5.2c-0.4-1.3-0.7-2.7-1-4l-0.5-2.2c-0.4-1.4-0.7-2.9-1-4.3c-0.9-4.1-1.6-7.4-2.3-10.5c-0.6-2.8-1.1-5.6-1.7-8.6
		c0.2,2.7,0.5,5.6,0.8,8.7l0.7,5.4c0.1,1.1,0.4,2.3,0.6,3.4c0.1,0.6,0.2,1.3,0.3,1.9c0.7,3.9,1.4,7.4,2.2,10.6
		c1.5,6.7,3.7,13.6,6.5,20.6l2.2,5c0.5,1.1,1,2.1,1.6,3.2c0.3,0.5,0.6,1.1,0.8,1.6c0.2,0.4,0.4,0.8,0.7,1.3
		C462.4,610.6,461.1,606.7,459.9,602.9z"/>
	<path class="st1" d="M304.4,573.9l-1.2,1c-2.3,1.8-4.6,3.7-6.8,5.5s-4.4,3.7-6.7,5.5c-2.2,1.8-4.5,3.6-6.8,5.4
		c-2.1,1.6-4.3,3.4-6.9,5.3c-1.5,1.1-3,2.3-4.7,3.5c1.6-0.9,3.1-1.8,4.6-2.7l0.4-0.3c2.8-1.8,5.2-3.3,7.3-4.8
		c2.3-1.6,4.6-3.3,7.1-5.1c2.2-1.7,4.5-3.5,6.9-5.4c2.4-1.9,4.7-4,6.6-5.7c2.9-2.7,5.4-5.3,7.7-7.9c-0.6,0.4-1.2,0.9-1.9,1.4
		C308.1,571,306.2,572.5,304.4,573.9z"/>
	<path class="st1" d="M359.8,535.6l-0.4,0.2c-0.3,0.2-0.6,0.5-0.9,0.7c-0.6,0.4-1.1,0.9-1.7,1.3c-0.6,0.4-1.1,0.8-1.7,1.2
		c-1.2,0.8-2.3,1.7-3.5,2.5l-0.3,0.2c-3.4,2.3-6.9,4.6-10.5,6.8l-3.4,2.1c1.2-0.5,2.4-1.1,3.6-1.7c4-2,7.7-4.3,11.1-6.6l0.9-0.7
		c0.6-0.4,1.1-0.8,1.7-1.2c0.6-0.4,1.1-0.9,1.7-1.3l0.9-0.7c1.4-1.1,3.1-2.6,4.8-4.3c0.5-0.4,0.9-0.9,1.3-1.3
		c-0.5,0.4-1,0.8-1.5,1.2C361.3,534.5,360.5,535.1,359.8,535.6z"/>
</g>
</svg>
