<?xml version="1.0" encoding="utf-8"?>
<!-- Generator: Adobe Illustrator 19.2.0, SVG Export Plug-In . SVG Version: 6.00 Build 0)  -->
<svg version="1.0" id="Layer_1" xmlns="http://www.w3.org/2000/svg" xmlns:xlink="http://www.w3.org/1999/xlink" x="0px" y="0px"
	 viewBox="0 0 1000 1000" enable-background="new 0 0 1000 1000" xml:space="preserve">
<g id="bone">
	<path fill="#523259" d="M725.8,674.4c-11.3-9.6-47.9-20-71.7,18.9c-20.2,33-13.4,80.5,13.8,90.4s53.8-6,65.1-36.4
		C745.1,714.7,741.9,688,725.8,674.4z"/>
	<path fill="#523259" d="M274.2,674.4c11.3-9.6,47.9-20,71.7,18.9c20.2,33,13.4,80.5-13.8,90.4c-27.2,9.9-53.8-6-65.1-36.4
		C254.9,714.7,258.1,688,274.2,674.4z"/>
</g>
<g id="bone-L">
	<path fill="#643C64" d="M716.3,681.9l-6.8-6.6c0,0,13.6,1.3,20.6,10.5c7,9.1-1.9,29.1-1.9,29.1l-16.8,4.1L716.3,681.9z"/>
	<path fill="#643C64" d="M283.7,681.9l6.8-6.6c0,0-13.6,1.3-20.6,10.5c-7,9.1,1.9,29.1,1.9,29.1l16.8,4.1L283.7,681.9z"/>
</g>
<g id="bone-D">
	<path fill="#431F59" d="M733.1,747.2c7.8-21,9.2-39.6,4.9-53.8c-2.3-3.2-5-6.2-7.9-7.7l-13.8,25.9v-29.8
		c-10.1-0.1-21.8,5.8-32.1,24.2c-10.7,19.1-15.6,51.6-8,79.8C700.5,790.2,722.9,774.5,733.1,747.2z"/>
	<path fill="#431F59" d="M266.9,747.2c-7.8-21-9.2-39.6-4.9-53.8c2.3-3.2,5-6.2,7.9-7.7l13.8,25.9v-29.8
		c10.1-0.1,21.8,5.8,32.1,24.2c10.7,19.1,15.6,51.6,8,79.8C299.5,790.2,277.1,774.5,266.9,747.2z"/>
</g>
</svg>
