<?xml version="1.0" encoding="utf-8"?>
<!-- Generator: Adobe Illustrator 26.0.1, SVG Export Plug-In . SVG Version: 6.00 Build 0)  -->
<svg version="1.1" id="feet" xmlns="http://www.w3.org/2000/svg" xmlns:xlink="http://www.w3.org/1999/xlink" x="0px" y="0px"
	 viewBox="0 0 1000 1000" style="enable-background:new 0 0 1000 1000;" xml:space="preserve">

<g>
<g id="skin2-D">    
	<path d="M313.5,684.7c0.1-0.7,0-1.4-0.4-1.9c0,0,0,0,0-0.1c-0.7-1.1-2-1.5-3.2-1.2c-2.7,0.8-5.9,1.3-9.3,1.3
		c-6.2,0-12.3-1.5-17-3.9c-1.2-0.6-2.6-0.3-3.4,0.6c-3.3,3.5-7.9,6.8-13.2,9c-2.3,1-4.5,1.6-6.7,2.1c-1.3,0.3-2.3,1.5-2.3,2.9
		c0.2,4.5-1.9,10-5.6,15.2c-0.5,0.7-0.7,1.7-0.4,2.5c10,32.3,31.9,78.5,52.5,69.2c14.8-6.7,16-25.3,10.5-50.5
		C310,708,312.7,689.2,313.5,684.7z"/>
	<path d="M747.6,708.8c-3.7-5.2-5.8-10.7-5.6-15.2c0.1-1.4-0.9-2.6-2.3-2.9c-2.1-0.5-4.4-1.1-6.7-2.1
		c-5.3-2.2-9.9-5.5-13.2-9c-0.9-1-2.3-1.2-3.4-0.6c-4.7,2.4-10.7,3.9-17,3.9c-3.5,0-6.6-0.5-9.3-1.3c-1.2-0.4-2.6,0.1-3.2,1.2
		c0,0,0,0,0,0.1c-0.4,0.6-0.5,1.3-0.4,1.9c0.8,4.5,3.5,23.3-1.4,45.3c-5.5,25.2-4.4,43.8,10.5,50.5c20.5,9.3,42.5-36.9,52.5-69.2
		C748.3,710.5,748.1,709.6,747.6,708.8z"/>
</g>
    </g>

<g>
    <g id="skin2">  
	<path d="M747.6,708.8c-3.7-5.2-5.8-10.7-5.6-15.2c0.1-1.4-0.9-2.6-2.3-2.9c-2.1-0.5-4.4-1.1-6.7-2.1
		c-5.4-2.2-9.9-5.5-13.2-9c-0.9-1-2.3-1.2-3.4-0.6c-4.7,2.4-10.7,3.9-17,3.9c0,0,0,0,0,0c-2.4,0-4.4,2.1-4.1,4.5
		c0.9,8.8,1.5,24.3-2.3,41.7c-5.4,24.6-4.8,43.3,7.4,51.8c1,0.7,2.2,0.9,3.3,0.6c2.3-0.5,4.8-1.7,7.5-3.4
		c15.2-10.7,29.3-42.6,36.8-66.7C748.3,710.5,748.1,709.6,747.6,708.8z"/>
	<path d="M304.7,687.3c0.2-2.4-1.7-4.5-4.1-4.5c0,0,0,0,0,0c-6.2,0-12.3-1.5-17-3.9c-1.2-0.6-2.6-0.3-3.4,0.6
		c-3.3,3.5-7.9,6.8-13.2,9c-2.3,1-4.5,1.6-6.7,2.1c-1.3,0.3-2.3,1.5-2.3,2.9c0.2,4.5-1.9,10-5.6,15.2c-0.5,0.7-0.7,1.7-0.4,2.5
		c7.5,24.2,21.6,56,36.8,66.7c2.7,1.7,5.3,2.9,7.5,3.4c1.1,0.3,2.3,0,3.3-0.6c12.2-8.5,12.8-27.2,7.4-51.8
		C303.2,711.6,303.8,696.1,304.7,687.3z"/>
</g>
    </g>
</svg>
