<?xml version="1.0" encoding="utf-8"?>
<!-- Generator: Adobe Illustrator 26.0.1, SVG Export Plug-In . SVG Version: 6.00 Build 0)  -->
<svg version="1.1" id="feet" xmlns="http://www.w3.org/2000/svg" xmlns:xlink="http://www.w3.org/1999/xlink" x="0px" y="0px"
	 viewBox="0 0 1000 1000" style="enable-background:new 0 0 1000 1000;" xml:space="preserve">
<g id="skin2">
	<path d="M756.8,722.7c-11.7-8.1-26.5-5.2-39.4,0.7c3.5-7.5,7.8-12.6,11.7-13.3c6.2-1.2,10.2-7.2,9-13.3c-1.2-6.2-7.2-10.2-13.3-9
		c-8.8,1.7-21.2,8.4-29.8,30.5c-0.4,1-0.8,2.1-1.1,3.1c-1.9-7.1-2-13.1,0.2-15.5c4.3-4.6,4-11.8-0.6-16.1s-11.8-4-16.1,0.6
		c-17.9,19.3,0,54.7,8.3,66.7c0.5,0.7,1,1.3,1.6,1.8c0.5,22.6,14.5,30.5,16.2,31.4c0,0,8.7,3.3,13.5-3.5c4.9-6.8-3.1-16.7-3.1-16.7
		s0.2,0.1,0.5,0.3c-0.2-0.1-4.6-3.2-4.4-13.6c0-0.7,0-1.5,0.1-2.2c12.1-10.1,28.7-16.9,33.8-13.3c5.2,3.6,12.2,2.3,15.8-2.9
		C763.2,733.4,761.9,726.3,756.8,722.7z"/>
	<path d="M306.6,689.9c-4.6,4.3-4.9,11.4-0.6,16.1c2.2,2.4,2.1,8.4,0.2,15.5c-0.4-1-0.7-2.1-1.1-3.1c-8.6-22.1-21-28.8-29.8-30.5
		c-6.2-1.2-12.1,2.8-13.3,9c-1.2,6.2,2.8,12.1,9,13.3c3.8,0.8,8.1,5.8,11.7,13.3c-12.9-5.9-27.7-8.8-39.4-0.7
		c-5.2,3.6-6.5,10.6-2.9,15.8s10.6,6.5,15.8,2.9c5.1-3.5,21.7,3.2,33.8,13.3c0,0.7,0.1,1.5,0.1,2.2c0.2,10.3-4.2,13.4-4.4,13.6
		c0.3-0.2,0.5-0.3,0.5-0.3s-8,9.9-3.1,16.7s13.5,3.5,13.5,3.5c1.7-0.9,15.7-8.8,16.2-31.4c0.6-0.5,1.1-1.1,1.6-1.8
		c8.4-12,26.2-47.3,8.3-66.7C318.4,685.9,311.2,685.7,306.6,689.9z"/>
</g>
<g id="blacks">
	<ellipse cx="712.5" cy="787.5" rx="5.8" ry="5.8"/>
	<circle cx="686.8" cy="695.4" r="5.8"/>
	<ellipse cx="728.4" cy="697.5" rx="5.8" ry="5.8"/>
	<circle cx="752.9" cy="731.6" r="5.8"/>
	<ellipse cx="287.5" cy="787.5" rx="5.8" ry="5.8"/>
	<circle cx="313.2" cy="695.4" r="5.8"/>
	<ellipse cx="271.6" cy="697.6" rx="5.8" ry="5.8"/>
	<circle cx="247.1" cy="731.6" r="5.8"/>
</g>
</svg>
