<?xml version="1.0" encoding="utf-8"?>
<!-- Generator: Adobe Illustrator 19.2.0, SVG Export Plug-In . SVG Version: 6.00 Build 0)  -->
<svg version="1.0" id="bear" xmlns="http://www.w3.org/2000/svg" xmlns:xlink="http://www.w3.org/1999/xlink" x="0px" y="0px"
	 viewBox="0 0 1000 1000" enable-background="new 0 0 1000 1000" xml:space="preserve">

<g id="nails">
	<path fill="#113D44" d="M696.54,694.93c1.1,6.08,3.17,11.01,1.27,11.01c-1.9,0-7.04-4.93-8.15-11.01
		c-1.1-6.08,2.25-11.01,4.15-11.01C695.71,683.92,695.43,688.85,696.54,694.93z"/>
	<path fill="#113D44" d="M717.68,695.66c-0.75,5.82-0.18,10.87-2.09,10.34c-1.92-0.53-5.59-6.43-4.84-12.25
		c0.75-5.82,5.64-9.36,7.56-8.83C720.21,685.45,718.43,689.84,717.68,695.66z"/>
	<path fill="#113D44" d="M739.26,709.64c-4.13,3.87-6.57,7.89-8.04,6.47s-1.41-7.73,2.72-11.6c4.13-3.87,10.77-3.85,12.24-2.43
		C747.64,703.5,743.39,705.77,739.26,709.64z"/>
	<path fill="#113D44" d="M303.46,694.93c-1.1,6.08-3.17,11.01-1.27,11.01s7.04-4.93,8.15-11.01c1.1-6.08-2.25-11.01-4.15-11.01
		S304.57,688.85,303.46,694.93z"/>
	<path fill="#113D44" d="M282.32,695.66c0.75,5.82,0.18,10.87,2.09,10.34c1.92-0.53,5.59-6.43,4.84-12.25
		c-0.75-5.82-5.64-9.36-7.56-8.83S281.57,689.84,282.32,695.66z"/>
	<path fill="#113D44" d="M260.74,709.64c4.13,3.87,6.57,7.89,8.04,6.47c1.47-1.42,1.41-7.73-2.72-11.6s-10.77-3.85-12.24-2.43
		C252.36,703.5,256.61,705.77,260.74,709.64z"/>
</g>
<g id="skin-D">
	<path fill="#EF533F" d="M739.34,703.7c-3.94-2.09-8.12-2.55-11.68-1.62c-1.67-5.78-5.94-9.74-12.75-10.36
		c-4.68-0.43-8.69,1.24-11.18,4.19c-1.33-1-2.91-1.85-4.78-2.51c-7.89-2.77-19.17,2.16-24.2,11.92c-3.61,7-11.54,13.9-12.13,36.97
		c-0.59,23.07,22.45,42.07,39.7,42.07c17.25,0,31.77-18.77,32.44-41.91c0.07-2.36-0.02-4.66-0.23-6.91
		c4.99-3.52,9.49-10.15,11.34-14.33C748.88,714.42,747.09,707.82,739.34,703.7z"/>
	<path fill="#EF533F" d="M260.66,703.7c3.94-2.09,8.12-2.55,11.68-1.62c1.67-5.78,5.94-9.74,12.75-10.36
		c4.68-0.43,8.69,1.24,11.18,4.19c1.33-1,2.91-1.85,4.78-2.51c7.89-2.77,19.17,2.16,24.2,11.92c3.61,7,11.54,13.9,12.13,36.97
		c0.59,23.07-22.45,42.07-39.7,42.07c-17.25,0-31.77-18.77-32.44-41.91c-0.07-2.36,0.02-4.66,0.23-6.91
		c-4.99-3.52-9.49-10.15-11.34-14.33C251.12,714.42,252.91,707.82,260.66,703.7z"/>
</g>
<g id="earskin">
	<path fill="#B3FFF0" d="M725.33,756.06c-2.55,13.86-10.97,22.92-18.8,20.23c-7.83-2.69-12.12-16.12-9.57-29.98
		c2.55-13.86,10.97-22.92,18.8-20.23C723.6,728.77,727.88,742.19,725.33,756.06z"/>
	<path fill="#B3FFF0" d="M723.68,710.44c-0.43,4.83-3.02,8.2-5.79,7.53c-2.77-0.67-4.67-5.13-4.24-9.96
		c0.43-4.83,3.02-8.2,5.79-7.53S724.11,705.61,723.68,710.44z"/>
	<path fill="#B3FFF0" d="M706.19,710.82c1.41,4.97-0.1,9.25-3.37,9.57c-3.27,0.32-7.05-3.45-8.46-8.42
		c-1.41-4.97,0.1-9.25,3.37-9.57C701,702.08,704.79,705.85,706.19,710.82z"/>
	<path fill="#B3FFF0" d="M740.44,722.24c-2.08,4.17-5.4,6.61-7.41,5.46c-2.01-1.15-1.96-5.47,0.12-9.64
		c2.08-4.17,5.4-6.61,7.41-5.46C742.57,713.75,742.52,718.07,740.44,722.24z"/>
	<path fill="#B3FFF0" d="M274.67,756.06c2.55,13.86,10.97,22.92,18.8,20.23s12.12-16.12,9.57-29.98
		c-2.55-13.86-10.97-22.92-18.8-20.23S272.12,742.19,274.67,756.06z"/>
	<path fill="#B3FFF0" d="M276.32,710.44c0.43,4.83,3.02,8.2,5.79,7.53c2.77-0.67,4.67-5.13,4.24-9.96c-0.43-4.83-3.02-8.2-5.79-7.53
		C277.79,701.15,275.89,705.61,276.32,710.44z"/>
	<path fill="#B3FFF0" d="M293.81,710.82c-1.41,4.97,0.1,9.25,3.37,9.57s7.05-3.45,8.46-8.42c1.41-4.97-0.1-9.25-3.37-9.57
		C299,702.08,295.21,705.85,293.81,710.82z"/>
	<path fill="#B3FFF0" d="M259.56,722.24c2.08,4.17,5.4,6.61,7.41,5.46c2.01-1.15,1.96-5.47-0.12-9.64c-2.08-4.17-5.4-6.61-7.41-5.46
		C257.43,713.75,257.48,718.07,259.56,722.24z"/>
</g>
</svg>
