<?xml version="1.0" encoding="utf-8"?>
<!-- Generator: Adobe Illustrator 26.0.1, SVG Export Plug-In . SVG Version: 6.00 Build 0)  -->
<svg version="1.1" id="feet" xmlns="http://www.w3.org/2000/svg" xmlns:xlink="http://www.w3.org/1999/xlink" x="0px" y="0px"
	 viewBox="0 0 1000 1000" style="enable-background:new 0 0 1000 1000;" xml:space="preserve">
<g id="bone">
	<path d="M743.1,729.7c-10.9-17-49-11.4-56.5-0.2c-9.5,14-10.3,34.5-6.8,41.7c7.7,15.9,21.1,18.5,38.5,21.9c1.1-0.1,2.2-0.2,3.2-0.3
		C748.7,789.2,752.3,744.1,743.1,729.7z"/>
	<path d="M256.9,729.7c-9.3,14.4-5.6,59.5,21.5,63.1c1,0.1,2.1,0.2,3.2,0.3c17.5-3.4,30.8-6,38.5-21.9c3.5-7.2,2.7-27.7-6.8-41.7
		C305.9,718.3,267.8,712.7,256.9,729.7z"/>
</g>
<g id="bone-D">
	<ellipse transform="matrix(0.1665 -0.986 0.986 0.1665 -142.1407 1347.3872)" cx="725.9" cy="757.8" rx="32.6" ry="18.1"/>
	<ellipse transform="matrix(0.986 -0.1665 0.1665 0.986 -122.3331 56.1953)" cx="274" cy="757.7" rx="18.1" ry="32.6"/>
</g>
</svg>
