<?xml version="1.0" encoding="utf-8"?>
<!-- Generator: Adobe Illustrator 26.0.1, SVG Export Plug-In . SVG Version: 6.00 Build 0)  -->
<svg version="1.1" id="feet" xmlns="http://www.w3.org/2000/svg" xmlns:xlink="http://www.w3.org/1999/xlink" x="0px" y="0px"
	 viewBox="0 0 1000 1000" style="enable-background:new 0 0 1000 1000;" xml:space="preserve">
<g id="skin2">
	<path d="M750.2,719.3c-15.9-2.7-27.6,6-36.7,15.8c2.9-10.7,7.8-19.9,12.2-23.6c3.4-2.9,6.8-3.6,10.7-2.4c3.6,1.1,7.4-0.8,8.5-4.4
		c1.1-3.6-0.8-7.4-4.4-8.5c-8.5-2.7-16.7-1-23.6,5c-8.2,7-13.7,19.1-16.7,31.4c-0.8-2.8-1.4-5.6-1.8-8.4
		c-1.2-10.3,2.2-19.2,9.4-24.2c3.1-2.2,3.8-6.4,1.6-9.5s-6.4-3.8-9.5-1.6c-11.4,8-16.9,21.5-15,36.9c1.2,9.7,4.7,19.3,9.9,27.3
		c0.1,0.1,0.2,0.3,0.3,0.5c0.6,0.9,1.3,2.1,2.3,3.3c0.1,2.2,0.2,4.3,0.5,6.2c1.5,9.8,6.6,14.8,10.6,17.2c4.7,2.9,9.9,3.7,14.5,3.7
		c6.4,0,11.3-1.6,11.4-1.7c3.6-1.2,5.5-5,4.3-8.6c-1.2-3.5-5-5.4-8.5-4.3c-2.4,0.7-10.1,2.1-14.7-0.8c-2.3-1.4-3.6-3.9-4.2-7.6
		c-0.1-0.7-0.2-1.5-0.3-2.2c1.1-0.9,1.8-1.9,2.2-2.4c0.1-0.1,0.2-0.2,0.3-0.3c0.6-0.8,1.3-1.5,1.9-2.3c11.1-13.7,19.9-23.1,32.4-21
		c3.7,0.6,7.2-1.8,7.8-5.5C756.3,723.4,753.9,719.9,750.2,719.3z"/>
	<path d="M300.1,688.8c-3.1-2.2-7.3-1.4-9.5,1.6c-2.2,3.1-1.4,7.3,1.6,9.5c7.2,5.1,10.6,13.9,9.4,24.2c-0.3,2.8-0.9,5.7-1.8,8.4
		c-3-12.4-8.5-24.5-16.7-31.4c-7-6-15.2-7.7-23.6-5c-3.6,1.1-5.5,5-4.4,8.5c1.1,3.6,5,5.5,8.5,4.4c3.9-1.3,7.3-0.5,10.7,2.4
		c4.4,3.7,9.3,12.9,12.2,23.6c-9.1-9.8-20.8-18.6-36.7-15.8c-3.7,0.6-6.2,4.1-5.5,7.8c0.6,3.7,4.2,6.2,7.8,5.5
		c12.5-2.2,21.3,7.3,32.4,21c0.6,0.8,1.3,1.6,1.9,2.3c0.1,0.1,0.2,0.2,0.3,0.3c0.4,0.5,1.2,1.5,2.2,2.4c-0.1,0.7-0.2,1.5-0.3,2.2
		c-0.6,3.7-1.9,6.2-4.2,7.6c-4.6,2.9-12.3,1.5-14.7,0.8c-3.5-1.1-7.3,0.8-8.5,4.3c-1.2,3.6,0.7,7.4,4.3,8.6c0.1,0,5.1,1.7,11.4,1.7
		c4.6,0,9.8-0.8,14.5-3.7c4-2.5,9.1-7.5,10.6-17.2c0.3-1.9,0.5-4,0.5-6.2c1-1.1,1.7-2.3,2.3-3.3c0.1-0.2,0.2-0.4,0.3-0.5
		c5.2-7.9,8.7-17.6,9.9-27.3C316.9,710.3,311.5,696.9,300.1,688.8z"/>
</g>
<g id="nails">
	<path d="M702.7,687.4c-3.3,1.1-5.3,3.7-4.6,5.9s4,3,7.2,1.9c3.3-1.1,5.3-3.7,4.6-5.9C709.2,687.2,705.9,686.3,702.7,687.4z"/>
	<ellipse transform="matrix(0.3623 -0.9321 0.9321 0.3623 -179.402 1136.328)" cx="740.7" cy="699.3" rx="4.1" ry="6.3"/>
	<path d="M753.4,719.3c-3.1-1.5-6.4-1.1-7.4,0.9s0.7,4.9,3.8,6.5c3.1,1.5,6.4,1.1,7.4-0.9S756.5,720.9,753.4,719.3z"/>
	<ellipse transform="matrix(0.9428 -0.3334 0.3334 0.9428 -217.4442 289.2804)" cx="734.1" cy="778.2" rx="6.3" ry="4.1"/>
	<path d="M297.3,687.4c-3.3-1.1-6.5-0.2-7.2,1.9c-0.7,2.2,1.3,4.8,4.6,5.9c3.3,1.1,6.5,0.2,7.2-1.9
		C302.7,691.1,300.6,688.5,297.3,687.4z"/>
	<ellipse transform="matrix(0.9321 -0.3623 0.3623 0.9321 -235.7382 141.4595)" cx="259.3" cy="699.3" rx="6.3" ry="4.1"/>
	<path d="M246.6,719.3c-3.1,1.5-4.8,4.4-3.8,6.5s4.3,2.5,7.4,0.9c3.1-1.5,4.8-4.4,3.8-6.5S249.7,717.8,246.6,719.3z"/>
	<ellipse transform="matrix(0.3334 -0.9428 0.9428 0.3334 -556.3679 769.4622)" cx="265.9" cy="778.2" rx="4.1" ry="6.3"/>
</g>
</svg>
