<?xml version="1.0" encoding="utf-8"?>
<!-- Generator: Adobe Illustrator 26.0.1, SVG Export Plug-In . SVG Version: 6.00 Build 0)  -->
<svg version="1.1" id="feet" xmlns="http://www.w3.org/2000/svg" xmlns:xlink="http://www.w3.org/1999/xlink" x="0px" y="0px"
	 viewBox="0 0 1000 1000" style="enable-background:new 0 0 1000 1000;" xml:space="preserve">
<g id="nails">
	<path d="M704,699.7c-1.4,0.3-3.6,4.6-2.7,9.3c0.9,4.8,4.6,8.2,6,7.9s0.1-4.1-0.8-8.9C705.6,703.3,705.4,699.5,704,699.7z"/>
	<path d="M727.1,698.4c-1.4-0.5-5,2.2-6,6.8c-1,4.7,1.1,9.5,2.5,10s1.7-3.6,2.6-8.2C727.2,702.3,728.5,698.8,727.1,698.4z"/>
	<path d="M744.4,708.5c-1.2-1-5.5,0-7.8,3.8s-1.7,9.1-0.5,10.1s2.7-2.6,5-6.4S745.6,709.5,744.4,708.5z"/>
	<path d="M296,699.7c-1.4-0.3-1.6,3.6-2.5,8.3c-0.9,4.8-2.3,8.6-0.8,8.9c1.4,0.3,5.1-3.1,6-7.9C299.6,704.3,297.4,700,296,699.7z"/>
	<path d="M272.9,698.4c-1.4,0.5-0.1,4,0.9,8.6c1,4.7,1.2,8.7,2.6,8.2s3.5-5.4,2.5-10C278,700.5,274.4,697.9,272.9,698.4z"/>
	<path d="M255.6,708.5c-1.2,1,1.1,3.6,3.4,7.5s3.7,7.4,5,6.4c1.2-1,1.8-6.2-0.5-10.1C261.2,708.5,256.9,707.5,255.6,708.5z"/>
</g>
<g id="skin-D">
	<path d="M738.6,708.8c-2.2-0.7-4.6-0.8-6.9-0.3c-1.6-3-4.1-5.2-7.3-6.2c-4.1-1.4-8.7-0.4-12.7,2.1c0,0-0.1,0-0.1-0.1
		c-8.3-2.7-18.3,3.7-22.3,14.4c-0.3,0.7-0.5,1.4-0.7,2.1c-0.4,0.7-0.8,1.5-1.1,2.2c-10.9,25.3-4.2,66.6,25.4,65.4
		c21.4-0.8,24.9-19.5,27-45.3c2.8-2.6,5.2-6,6.6-10C750.5,722.4,747,711.5,738.6,708.8z"/>
	<path d="M311.4,720.8c-0.2-0.7-0.4-1.4-0.7-2.1c-4-10.7-14-17.1-22.3-14.4c0,0-0.1,0-0.1,0.1c-4-2.6-8.6-3.5-12.7-2.1
		c-3.2,1-5.7,3.3-7.3,6.2c-2.3-0.5-4.7-0.4-6.9,0.3c-8.3,2.7-11.9,13.6-7.9,24.2c1.5,4,3.9,7.4,6.6,10c2.1,25.8,5.6,44.5,27,45.3
		c29.6,1.2,36.4-40.1,25.4-65.4C312.2,722.3,311.8,721.5,311.4,720.8z"/>
</g>
<g id="earskin">
	<path d="M723.5,737.9c-6.1-0.8-13.1,7.5-15.8,19.1c-3,12.5-0.1,24.4,6.8,25.6c7,1.2,14.6-9,16.7-22.1
		C733.2,748.5,729.7,738.7,723.5,737.9z"/>
	<path d="M276.5,737.9c-6.2,0.8-9.7,10.6-7.7,22.7c2.1,13,9.7,23.3,16.7,22.1c6.9-1.2,9.8-13.1,6.8-25.6
		C289.5,745.3,282.6,737.1,276.5,737.9z"/>
	<path d="M276.2,730.4c3.4,0.4,5.9-4.1,5.6-9.5c-0.3-5.1-2.9-9.3-5.9-9.7s-5.7,3.1-5.8,8.2C270,724.9,272.7,730,276.2,730.4z"/>
	<path d="M295.1,715.4c-2.3-0.5-5.3,2.9-6.6,7.8c-1.5,5.3-0.5,10.3,2.2,10.7s5.7-3.8,6.8-9C298.5,720,297.4,715.9,295.1,715.4z"/>
	<path d="M267,726.6c-2.1-4.6-5.5-7.4-7.7-6.5c-2.2,0.9-2.6,5.2-0.7,10.1c2,5.2,5.8,8.7,8.3,7.6C269.4,736.7,269.3,731.6,267,726.6z
		"/>
	<path d="M723.8,730.4c3.5-0.4,6.2-5.5,6-11c-0.2-5.1-2.8-8.7-5.8-8.2c-3,0.4-5.6,4.6-5.9,9.7C717.9,726.3,720.4,730.7,723.8,730.4z
		"/>
	<path d="M709.4,733.9c2.7-0.4,3.7-5.4,2.2-10.7c-1.4-4.9-4.3-8.3-6.6-7.8s-3.4,4.6-2.4,9.5C703.6,730.1,706.7,734.4,709.4,733.9z"
		/>
	<path d="M740.7,720.2c-2.2-0.9-5.5,1.9-7.7,6.5c-2.3,4.9-2.4,10.1,0,11.2c2.5,1.1,6.2-2.4,8.3-7.6
		C743.2,725.4,742.9,721,740.7,720.2z"/>
</g>
</svg>
