<?xml version="1.0" encoding="utf-8"?>
<!-- Generator: Adobe Illustrator 26.0.1, SVG Export Plug-In . SVG Version: 6.00 Build 0)  -->
<svg version="1.1" id="pups" xmlns="http://www.w3.org/2000/svg" xmlns:xlink="http://www.w3.org/1999/xlink" x="0px" y="0px"
	 viewBox="0 0 1000 1000" style="enable-background:new 0 0 1000 1000;" xml:space="preserve">
<g id="filler-eyes-r">
<g id="pupil-D">
	<circle cx="578.4" cy="528.9" r="28.5"/>
	<circle cx="421.4" cy="528.9" r="28.5"/>
</g>
<g id="pupil-L">
	<ellipse cx="578.4" cy="543.1" rx="20.2" ry="14.2"/>
	<ellipse cx="421.4" cy="543.1" rx="20.2" ry="14.2"/>
</g>
<g id="blacks">
	<ellipse cx="578.3" cy="528.9" rx="16.4" ry="24.3"/>
	<ellipse cx="421.4" cy="528.9" rx="16.4" ry="24.3"/>
</g>
<g id="whites">
	<path d="M597.6,509.5c-2.2-2.2-7.4-0.7-11.5,3.5c-4.1,4.1-5.7,9.3-3.5,11.5s7.4,0.7,11.5-3.5
		C598.3,516.9,599.9,511.7,597.6,509.5z"/>
	<path d="M429.2,513c-4.1,4.1-5.7,9.3-3.5,11.5s7.4,0.7,11.5-3.5c4.2-4.1,5.7-9.3,3.5-11.5S433.3,508.8,429.2,513z"/>
</g>
    </g>
</svg>
