<?xml version="1.0" encoding="utf-8"?>
<!-- Generator: Adobe Illustrator 26.0.1, SVG Export Plug-In . SVG Version: 6.00 Build 0)  -->
<svg version="1.1" id="pups" xmlns="http://www.w3.org/2000/svg" xmlns:xlink="http://www.w3.org/1999/xlink" x="0px" y="0px"
	 viewBox="0 0 1000 1000" style="enable-background:new 0 0 1000 1000;" xml:space="preserve">
<g id="filler-eyes-r">
<g id="pupil-D">
	<circle cx="578.7" cy="528.9" r="33.8"/>
	<circle cx="421.4" cy="528.9" r="33.8"/>
</g>
<g id="pupil-L">
	<ellipse cx="578.7" cy="545.8" rx="24" ry="16.9"/>
	<ellipse cx="421.4" cy="545.8" rx="24" ry="16.9"/>
</g>
<g id="blacks">
	<circle cx="578.7" cy="528.9" r="19.7"/>
	<circle cx="421.4" cy="528.9" r="19.7"/>
</g>
<g id="whites">
	<path d="M600.4,507.4c-3.9-3.9-10.3-3.6-14.5,0.5c-4.1,4.1-11.1,17.1-7.3,21c3.9,3.9,17.1-2.9,21.2-7
		C604.1,517.7,604.3,511.3,600.4,507.4z"/>
	<path d="M428.6,507.9c-4.1,4.1-11.1,17.1-7.3,21c3.9,3.9,17.1-2.9,21.2-7c4.3-4.2,4.5-10.6,0.6-14.5
		C439.2,503.5,432.8,503.8,428.6,507.9z"/>
	<circle cx="560.5" cy="521.8" r="4.5"/>
	<circle cx="403.2" cy="521.8" r="4.5"/>
</g>
</g>
</svg>
