<?xml version="1.0" encoding="utf-8"?>
<!-- Generator: Adobe Illustrator 26.0.1, SVG Export Plug-In . SVG Version: 6.00 Build 0)  -->
<svg version="1.1" id="pups" xmlns="http://www.w3.org/2000/svg" xmlns:xlink="http://www.w3.org/1999/xlink" x="0px" y="0px"
	 viewBox="0 0 1000 1000" style="enable-background:new 0 0 1000 1000;" xml:space="preserve">
<g id="filler-eyes-r">
<g id="pupil-L">
	<circle cx="578.7" cy="531.2" r="52.7"/>
	<circle cx="421.3" cy="531.2" r="52.7"/>
</g>
<g id="pupil">
	<circle cx="578.7" cy="531.2" r="48"/>
	<circle cx="421.3" cy="531.2" r="48"/>
</g>
<g id="pupil-L">
	<ellipse cx="578.7" cy="559.3" rx="33.9" ry="19.9"/>
	<ellipse cx="421.3" cy="559.3" rx="33.9" ry="19.9"/>
</g>
<g id="pupil-D">
	
		<ellipse transform="matrix(0.7957 -0.6057 0.6057 0.7957 -203.5138 459.0287)" cx="578.7" cy="531.2" rx="31.4" ry="31.4"/>
	
		<ellipse transform="matrix(0.7071 -0.7071 0.7071 0.7071 -252.2192 453.489)" cx="421.3" cy="531.2" rx="31.4" ry="31.4"/>
</g>
<g id="whites">
	<path d="M615.8,490.2c-4.4-4.4-14.6-1.4-22.7,6.8c-8.1,8.1-11.2,18.3-6.8,22.7s14.6,1.4,22.7-6.8
		C617.2,504.7,620.2,494.6,615.8,490.2z"/>
	<path d="M435.7,497c-8.1,8.1-11.2,18.3-6.8,22.7c4.4,4.4,14.6,1.4,22.7-6.8c8.2-8.2,11.2-18.3,6.8-22.7
		C454,485.8,443.8,488.8,435.7,497z"/>
</g>
<g id="pupil">
	<path d="M589.5,540.4c-3.4-0.6-7-1-10.8-1c-3.7,0-7.2,0.4-10.5,1c-6.7,1.3-7.7,10.2-1.5,12.9c3.6,1.5,7.7,2.4,12,2.4
		c4.5,0,8.7-1,12.3-2.6C596.9,550.5,595.8,541.6,589.5,540.4z"/>
	<path d="M432.1,540.4c-3.4-0.6-7-1-10.8-1c-3.7,0-7.2,0.4-10.5,1c-6.7,1.3-7.7,10.2-1.5,12.9c3.6,1.5,7.7,2.4,12,2.4
		c4.5,0,8.7-1,12.3-2.6C439.5,550.5,438.4,541.6,432.1,540.4z"/>
</g>
    </g>
</svg>
