<?xml version="1.0" encoding="utf-8"?>
<!-- Generator: Adobe Illustrator 26.0.1, SVG Export Plug-In . SVG Version: 6.00 Build 0)  -->
<svg version="1.1" id="pups" xmlns="http://www.w3.org/2000/svg" xmlns:xlink="http://www.w3.org/1999/xlink" x="0px" y="0px"
	 viewBox="0 0 1000 1000" style="enable-background:new 0 0 1000 1000;" xml:space="preserve">
<g id="filler-eyes-r">
<g id="blacks">
	
		<ellipse transform="matrix(0.7071 -0.7071 0.7071 0.7071 -204.2635 564.6998)" cx="579.5" cy="528.9" rx="34.4" ry="34.4"/>
	
		<ellipse transform="matrix(0.9999 -1.118807e-02 1.118807e-02 0.9999 -5.8913 4.7379)" cx="420.5" cy="528.9" rx="34.4" ry="34.4"/>
</g>
<g id="pupil-D">
	
		<ellipse transform="matrix(0.8991 -0.4377 0.4377 0.8991 -173.0176 306.9651)" cx="579.5" cy="528.9" rx="23.3" ry="23.3"/>
	
		<ellipse transform="matrix(0.9932 -0.1161 0.1161 0.9932 -58.5614 52.3975)" cx="420.5" cy="528.9" rx="23.3" ry="23.3"/>
</g>
<g id="pupil-L">
	<ellipse cx="579.4" cy="541.4" rx="15.3" ry="10.7"/>
	<ellipse cx="420.5" cy="541.4" rx="15.3" ry="10.7"/>
</g>
<g id="blacks">
	<ellipse cx="579.5" cy="528.9" rx="5.7" ry="17.3"/>
	<ellipse cx="420.6" cy="528.9" rx="5.7" ry="17.3"/>
</g>
<g id="whites">
	<path d="M602.8,503.5c-2.8-2.8-9.4-0.9-14.6,4.4c-5.3,5.3-7.2,11.8-4.4,14.6s9.4,0.9,14.6-4.4
		C603.7,512.9,605.6,506.3,602.8,503.5z"/>
	<path d="M429.3,507.9c-5.3,5.3-7.2,11.8-4.4,14.6c2.8,2.8,9.4,0.9,14.6-4.4c5.3-5.2,7.2-11.8,4.4-14.6
		S434.5,502.6,429.3,507.9z"/>
</g>
    </g>
</svg>
