<?xml version="1.0" encoding="utf-8"?>
<!-- Generator: Adobe Illustrator 26.0.1, SVG Export Plug-In . SVG Version: 6.00 Build 0)  -->
<svg version="1.1" id="Layer_1" xmlns="http://www.w3.org/2000/svg" xmlns:xlink="http://www.w3.org/1999/xlink" x="0px" y="0px"
	 viewBox="0 0 1000 1000" style="enable-background:new 0 0 1000 1000;" xml:space="preserve">
<g id="filler-eyes-r">
<g id="pupil">
	
		<ellipse transform="matrix(0.7882 -0.6154 0.6154 0.7882 -202.9677 468.1077)" cx="578.6" cy="528.9" rx="37.6" ry="37.6"/>
	
		<ellipse transform="matrix(0.7882 -0.6154 0.6154 0.7882 -236.282 371.3037)" cx="421.3" cy="528.9" rx="37.6" ry="37.6"/>
</g>
<g id="pupil-L">
	<ellipse cx="578.6" cy="549" rx="24.6" ry="17.3"/>
	<ellipse cx="421.3" cy="549" rx="24.6" ry="17.3"/>
</g>
<g id="blacks">
	<circle cx="578.6" cy="528.9" r="30.8"/>
	<circle cx="421.3" cy="528.9" r="30.8"/>
</g>
<g id="pupil">
	<path d="M578.7,534.5c-9.3,0-17,4.7-17.8,10.6c4,5,10.5,8.2,17.8,8.2s13.7-3.2,17.8-8.2
		C595.7,539.1,588,534.5,578.7,534.5z"/>
	<path d="M421.4,534.5c-9.3,0-17,4.7-17.8,10.6c4,5,10.5,8.2,17.8,8.2s13.7-3.2,17.8-8.2
		C438.4,539.1,430.7,534.5,421.4,534.5z"/>
</g>
<g id="whites">
	<path d="M602,503.5c-2.8-2.8-9.4-0.9-14.6,4.4c-5.3,5.3-7.2,11.8-4.4,14.6s9.4,0.9,14.6-4.4
		C602.9,512.9,604.8,506.3,602,503.5z"/>
	<path d="M430.1,507.9c-5.3,5.3-7.2,11.8-4.4,14.6s9.4,0.9,14.6-4.4c5.3-5.2,7.2-11.8,4.4-14.6S435.3,502.6,430.1,507.9
		z"/>
</g>
    </g>
</svg>
