<?xml version="1.0" encoding="utf-8"?>
<!-- Generator: Adobe Illustrator 26.0.1, SVG Export Plug-In . SVG Version: 6.00 Build 0)  -->
<svg version="1.1" id="pups" xmlns="http://www.w3.org/2000/svg" xmlns:xlink="http://www.w3.org/1999/xlink" x="0px" y="0px"
	 viewBox="0 0 1000 1000" style="enable-background:new 0 0 1000 1000;" xml:space="preserve">
<g id="filler-eyes-r">
	<g id="pupil">
		<circle cx="578.7" cy="528.9" r="36.7"/>
		<circle cx="421.3" cy="528.9" r="36.7"/>
	</g>
	<g id="pupil-D">
		<path d="M545.5,513.2c0,11.6,14.9,21,33.2,21s33.2-9.4,33.2-21c-5.9-12.4-18.5-21-33.2-21S551.4,500.8,545.5,513.2z"/>
		<path d="M388.1,513.2c0,11.6,14.9,21,33.2,21c18.3,0,33.2-9.4,33.2-21c-5.9-12.4-18.5-21-33.2-21S394,500.8,388.1,513.2z"/>
	</g>
	<g id="pupil-L">
		<path d="M594.8,541.2c2.6-3.4,4.2-7.7,4.2-12.3c0-11.2-9.1-20.3-20.3-20.3s-20.3,9.1-20.3,20.3c0,4.6,1.6,8.9,4.2,12.3
			c-4,2.6-6.5,6.1-6.5,10.1c0,7.9,10.1,14.3,22.6,14.3s22.6-6.4,22.6-14.3C601.3,547.4,598.8,543.8,594.8,541.2z"/>
		<path d="M437.4,541.2c2.6-3.4,4.2-7.7,4.2-12.3c0-11.2-9.1-20.3-20.3-20.3c-11.2,0-20.3,9.1-20.3,20.3c0,4.6,1.6,8.9,4.2,12.3
			c-4,2.6-6.5,6.1-6.5,10.1c0,7.9,10.1,14.3,22.6,14.3s22.6-6.4,22.6-14.3C443.9,547.4,441.4,543.8,437.4,541.2z"/>
	</g>
	<g id="blacks">
		<circle cx="578.7" cy="528.9" r="16.7"/>
		<circle cx="421.3" cy="528.9" r="16.7"/>
	</g>
	<g id="whites">
		<path d="M602.3,505.8c-2.4-2.4-7.9-0.7-12.4,3.7c-4.4,4.4-6.1,10-3.7,12.4c2.4,2.4,7.9,0.7,12.4-3.7
			C603.1,513.7,604.7,508.2,602.3,505.8z"/>
		<path d="M432.5,509.5c-4.4,4.4-6.1,10-3.7,12.4s7.9,0.7,12.4-3.7c4.5-4.5,6.1-10,3.7-12.4C442.5,503.4,437,505.1,432.5,509.5z"/>
	</g>
</g>
</svg>
