<?xml version="1.0" encoding="utf-8"?>
<!-- Generator: Adobe Illustrator 26.0.1, SVG Export Plug-In . SVG Version: 6.00 Build 0)  -->
<svg version="1.1" id="pups" xmlns="http://www.w3.org/2000/svg" xmlns:xlink="http://www.w3.org/1999/xlink" x="0px" y="0px"
	 viewBox="0 0 1000 1000" style="enable-background:new 0 0 1000 1000;" xml:space="preserve">
<g id="filler-eyes-r">
<g id="pupil">
	<path d="M444.3,528.9c0,12.7-10.3,23-23,23s-23-10.3-23-23s10.3-23,23-23C434,505.9,444.3,516.2,444.3,528.9z"/>
	<path d="M601.6,528.9c0,12.7-10.3,23-23,23s-23-10.3-23-23s10.3-23,23-23C591.3,505.9,601.6,516.2,601.6,528.9z"/>
</g>
<g id="pupil-D">
	<path d="M402.9,528.2c0,0.2,0,0.5,0,0.7c0,10.2,8.3,18.5,18.5,18.5s18.5-8.3,18.5-18.5c0-0.2,0-0.5,0-0.7
		c-5.4-1.7-11.7-2.7-18.5-2.7S408.3,526.5,402.9,528.2z"/>
	<path d="M560.2,528.2c0,0.2,0,0.5,0,0.7c0,10.2,8.3,18.5,18.5,18.5s18.5-8.3,18.5-18.5c0-0.2,0-0.5,0-0.7
		c-5.4-1.7-11.7-2.7-18.5-2.7S565.6,526.5,560.2,528.2z"/>
</g>
<g id="blacks">
	<path d="M429.6,528.9c0,4.5-3.7,8.2-8.2,8.2s-8.2-3.7-8.2-8.2s3.7-8.2,8.2-8.2S429.6,524.4,429.6,528.9z"/>
	<path d="M586.9,528.9c0,4.5-3.7,8.2-8.2,8.2s-8.2-3.7-8.2-8.2s3.7-8.2,8.2-8.2S586.9,524.4,586.9,528.9z"/>
</g>
<g id="whites">
	<path d="M595.7,511.6c-2.4-2.4-8.1-0.8-12.6,3.8c-4.5,4.5-6.2,10.2-3.8,12.6c2.4,2.4,8.1,0.8,12.6-3.8
		C596.4,519.7,598.1,514.1,595.7,511.6z"/>
	<path d="M438.4,511.6c-2.4-2.4-8.1-0.8-12.6,3.8c-4.5,4.5-6.2,10.2-3.8,12.6c2.4,2.4,8.1,0.8,12.6-3.8
		C439.1,519.7,440.8,514.1,438.4,511.6z"/>
</g>
    </g>
</svg>
