<?xml version="1.0" encoding="utf-8"?>
<!-- Generator: Adobe Illustrator 26.0.1, SVG Export Plug-In . SVG Version: 6.00 Build 0)  -->
<svg version="1.1" id="Слой_1" xmlns="http://www.w3.org/2000/svg" xmlns:xlink="http://www.w3.org/1999/xlink" x="0px" y="0px"
	 viewBox="0 0 1000 1000" style="enable-background:new 0 0 1000 1000;" xml:space="preserve">
<path id="skin-D" d="M594.4,714.7c-16.3-1.7-25.9-19.1-18.8-33.8c8.5-17.8,13.4-23.8,13.4-37.2c0-38-39.8-68.7-89-68.7
	s-89,30.8-89,68.7c0,13.3,4.9,19.4,13.4,37.2c7.1,14.7-2.6,32.1-18.8,33.8c-81.5,8.7-128.3,38.2-128.3,46
	c0,10.5,94.2,21.9,222.7,21.9s222.7-11.4,222.7-21.9C722.7,752.9,675.9,723.3,594.4,714.7z"/>
</svg>
