<?xml version="1.0" encoding="utf-8"?>
<!-- Generator: Adobe Illustrator 19.2.0, SVG Export Plug-In . SVG Version: 6.00 Build 0)  -->
<svg version="1.0" id="Layer_2" xmlns="http://www.w3.org/2000/svg" xmlns:xlink="http://www.w3.org/1999/xlink" x="0px" y="0px"
	 viewBox="0 0 1000 1000" enable-background="new 0 0 1000 1000" xml:space="preserve">
<g id="nails">
	<path id="nails6" fill="#431F59" d="M742.21,671.69c-1.38-2.52-13.87-10.19-23.4-4.98c-9.52,5.21-12.47,21.32-11.1,23.84
		c1.38,2.52,6.56-9.51,16.08-14.72C733.33,670.63,743.59,674.21,742.21,671.69z"/>
	<path id="nails5" fill="#431F59" d="M760.71,692.49c-0.88-2.5-11.09-11.34-20.53-8.03s-14.53,17.52-13.65,20.01
		c0.87,2.5,7.38-7.67,16.82-10.98C752.79,690.19,761.59,694.98,760.71,692.49z"/>
	<path id="nails4" fill="#431F59" d="M714.52,662.1c-1.87-1.87-14.9-5.41-21.98,1.66c-7.07,7.07-5.51,22.08-3.64,23.95
		s3.34-10.11,10.41-17.18C706.39,663.46,716.39,663.97,714.52,662.1z"/>
	<path id="nails3" fill="#431F59" d="M281.19,666.71c-9.52-5.21-22.02,2.46-23.4,4.98c-1.38,2.52,8.88-1.07,18.41,4.14
		c9.52,5.21,14.71,17.24,16.08,14.72C293.66,688.03,290.71,671.92,281.19,666.71z"/>
	<path id="nails2" fill="#431F59" d="M259.82,684.46c-9.44-3.31-19.65,5.53-20.53,8.03s7.92-2.3,17.36,1.01
		c9.44,3.31,15.95,13.47,16.82,10.98C274.34,701.98,269.25,687.77,259.82,684.46z"/>
	<path id="nails1" fill="#431F59" d="M285.48,662.1c-1.87,1.87,8.13,1.36,15.21,8.43c7.07,7.07,8.54,19.05,10.41,17.18
		s3.43-16.88-3.64-23.95C300.38,656.69,287.35,660.23,285.48,662.1z"/>
</g>
<g id="skin">
	<path id="skin2222" fill="#5C6481" d="M287.05,669.98c-0.87,0.49-1.65,1.07-2.35,1.69c-4.2-1.93-8.59-2.7-12.72-1.98
		c-7.26,1.27-12.1,6.86-13.64,14.44c-17.36,12.12-14.18,25.79,4.42,56.13c19.6,31.97,34.46,51.92,63.07,45.34
		c40.85-9.39,34.97-65.81,4.98-100.02C319.54,672.73,297.77,663.91,287.05,669.98z"/>
	<path id="skin1111" fill="#5C6481" d="M741.66,684.13c-1.54-7.57-6.38-13.16-13.64-14.44c-4.13-0.73-8.52,0.04-12.72,1.98
		c-0.7-0.63-1.48-1.2-2.35-1.69c-10.72-6.07-32.49,2.75-43.75,15.6c-29.99,34.21-35.87,90.63,4.98,100.02
		c28.61,6.58,43.47-13.37,63.07-45.34C755.84,709.91,759.02,696.25,741.66,684.13z"/>
</g>
<g id="earskin">
	<path id="earskin8" fill="#C7B7C3" d="M717.57,717.85c-9.96-2.61-24.24,8.53-31.91,24.89s-5.82,31.74,4.14,34.35
		s24.24-8.53,31.91-24.89C729.38,735.84,727.52,720.46,717.57,717.85z"/>
	<path id="earskin7" fill="#C7B7C3" d="M748,698.2c-3.18-1.24-8.92,3.49-12.83,10.56c-3.91,7.07-4.51,13.8-1.33,15.03
		c3.17,1.24,8.92-3.49,12.83-10.56C750.58,706.17,751.17,699.44,748,698.2z"/>
	<path id="earskin6" fill="#C7B7C3" d="M701.53,713.94c3.91-0.19,7.77-6.87,8.63-14.93c0.85-8.05-1.63-14.43-5.54-14.24
		s-7.78,6.87-8.63,14.93C695.14,707.75,697.62,714.13,701.53,713.94z"/>
	<path id="earskin5" fill="#C7B7C3" d="M729.24,679.71c-5.28-0.39-11.52,7.26-13.94,17.09s-0.1,18.12,5.18,18.52
		c5.28,0.39,11.52-7.26,13.94-17.09C736.85,688.4,734.52,680.11,729.24,679.71z"/>
	<path id="earskin4" fill="#C7B7C3" d="M282.43,717.85c-9.95,2.61-11.81,17.99-4.14,34.35c7.67,16.36,21.96,27.5,31.91,24.89
		c9.96-2.61,11.81-17.99,4.14-34.35S292.39,715.23,282.43,717.85z"/>
	<path id="earskin3" fill="#C7B7C3" d="M298.47,713.94c3.91,0.19,6.39-6.18,5.54-14.24c-0.85-8.05-4.72-14.74-8.63-14.93
		s-6.39,6.19-5.54,14.24C290.69,707.07,294.55,713.75,298.47,713.94z"/>
	<path id="earskin2" fill="#C7B7C3" d="M284.7,696.81c-2.42-9.83-8.66-17.49-13.94-17.09c-5.28,0.39-7.6,8.69-5.18,18.52
		s8.66,17.49,13.94,17.09C284.79,714.93,287.11,706.64,284.7,696.81z"/>
	<path id="earskin1" fill="#C7B7C3" d="M252,698.2c-3.17,1.24-2.58,7.97,1.33,15.03c3.91,7.07,9.65,11.79,12.83,10.56
		c3.17-1.24,2.58-7.97-1.33-15.03C260.92,701.69,255.18,696.97,252,698.2z"/>
</g>
</svg>
