<?xml version="1.0" encoding="utf-8"?>
<!-- Generator: Adobe Illustrator 19.2.0, SVG Export Plug-In . SVG Version: 6.00 Build 0)  -->
<svg version="1.0" id="Layer_2" xmlns="http://www.w3.org/2000/svg" xmlns:xlink="http://www.w3.org/1999/xlink" x="0px" y="0px"
	 viewBox="0 0 1000 1000" enable-background="new 0 0 1000 1000" xml:space="preserve">
<g id="bone">
	<path fill="#00FF67" d="M284.41,722.29c6.38-9.46,30.69-27.3,56.77-10.43c24.43,15.81,32.1,53.43,11.3,70.12
		c-20.63,16.56-46.05,11.93-60.79-7.81C277.1,754.64,275.21,735.93,284.41,722.29z"/>
	<path fill="#00FF67" d="M715.59,722.29c-6.38-9.46-30.69-27.3-56.77-10.43c-24.43,15.81-32.1,53.43-11.3,70.12
		c20.63,16.56,46.05,11.93,60.79-7.81C722.9,754.64,724.79,735.93,715.59,722.29z"/>
</g>
<g id="bone-D">
	<path fill="#00FF67" d="M649.85,740.86c-7.13,12.94-8.1,27.48-3.84,39.81c0.49,0.45,0.98,0.89,1.51,1.31
		c20.63,16.56,46.05,11.93,60.79-7.81c14.03-18.78,16.31-36.79,8.29-50.27c-1.71-1.34-3.54-2.56-5.49-3.64
		C689.98,708.61,662.55,717.83,649.85,740.86z"/>
	<path fill="#00FF67" d="M350.16,740.86c7.13,12.94,8.1,27.48,3.84,39.81c-0.49,0.45-0.98,0.89-1.51,1.31
		c-20.63,16.56-46.05,11.93-60.79-7.81c-14.03-18.78-16.31-36.79-8.29-50.27c1.71-1.34,3.54-2.56,5.49-3.64
		C310.03,708.61,337.46,717.83,350.16,740.86z"/>
</g>
</svg>
