<?xml version="1.0" encoding="utf-8"?>
<!-- Generator: Adobe Illustrator 19.2.0, SVG Export Plug-In . SVG Version: 6.00 Build 0)  -->
<svg version="1.0" id="Layer_2" xmlns="http://www.w3.org/2000/svg" xmlns:xlink="http://www.w3.org/1999/xlink" x="0px" y="0px"
	 viewBox="0 0 1000 1000" enable-background="new 0 0 1000 1000" xml:space="preserve">
<g id="skin-D">
	<path id="path_1_" fill="#EB6E40" d="M271.13,696.98c1.61-5.65,5.42-9.78,10.67-10.82c2.98-0.59,6.07-0.12,9.01,1.18
		c0.52-0.46,1.09-0.88,1.72-1.25c7.68-4.45,23.14,1.37,31.65,10.57c24.86,26.87,36.17,81.9,0.39,93.95
		c-26.24,8.84-39.15-13.81-53.98-46.11C258.31,717.78,257.2,706.7,271.13,696.98z"/>
	<path id="path" fill="#EB6E40" d="M728.87,696.98c-1.61-5.65-5.42-9.78-10.67-10.82c-2.98-0.59-6.07-0.12-9.01,1.18
		c-0.52-0.46-1.09-0.88-1.72-1.25c-7.68-4.45-23.14,1.37-31.65,10.57c-24.86,26.87-36.17,81.9-0.39,93.95
		c26.24,8.84,39.15-13.81,53.98-46.11C741.69,717.78,742.8,706.7,728.87,696.98z"/>
</g>
<g id="earskin">
	<g>
		<path fill="#EBB4D5" d="M687.71,744.91c-7.65,15.44-8.34,31.96-0.9,35.88c7.55,3.97,19.72-6.95,26.58-23.27
			c6.37-15.16,5.66-29.23-1.11-32.34C705.61,722.09,694.83,730.55,687.71,744.91z"/>
		<path fill="#EBB4D5" d="M724.68,718.94c-2.88,5.65-3.52,11.45-1.34,12.82c2.19,1.38,6.31-2.31,9.1-8.09
			c2.71-5.61,3.14-11.06,1.03-12.31C731.38,710.12,727.48,713.45,724.68,718.94z"/>
		<path fill="#EBB4D5" d="M698.92,708.37c-1.22,6.43-0.06,11.94,2.62,12.11s5.74-5.08,6.8-11.51c1.02-6.23-0.22-11.26-2.74-11.42
			C703.07,697.38,700.1,702.16,698.92,708.37z"/>
		<path fill="#EBB4D5" d="M711.86,707.63c-2.15,7.71-1.04,14.84,2.56,15.61c3.61,0.78,8.14-5.15,10.04-12.95
			c1.82-7.5,0.52-13.93-2.85-14.62C718.26,694.98,713.93,700.22,711.86,707.63z"/>
	</g>
	<g>
		<path fill="#EBB4D5" d="M312.29,744.91c7.65,15.44,8.34,31.96,0.9,35.88c-7.55,3.97-19.72-6.95-26.58-23.27
			c-6.37-15.16-5.66-29.23,1.11-32.34C294.39,722.09,305.17,730.55,312.29,744.91z"/>
		<path fill="#EBB4D5" d="M275.32,718.94c2.88,5.65,3.52,11.45,1.34,12.82c-2.19,1.38-6.31-2.31-9.1-8.09
			c-2.71-5.61-3.14-11.06-1.03-12.31C268.62,710.12,272.52,713.45,275.32,718.94z"/>
		<path fill="#EBB4D5" d="M301.08,708.37c1.22,6.43,0.06,11.94-2.62,12.11s-5.74-5.08-6.8-11.51c-1.02-6.23,0.22-11.26,2.74-11.42
			C296.93,697.38,299.9,702.16,301.08,708.37z"/>
		<path fill="#EBB4D5" d="M288.14,707.63c2.15,7.71,1.04,14.84-2.56,15.61c-3.61,0.78-8.14-5.15-10.04-12.95
			c-1.82-7.5-0.52-13.93,2.85-14.62C281.74,694.98,286.07,700.22,288.14,707.63z"/>
	</g>
</g>
</svg>
