<?xml version="1.0" encoding="utf-8"?>
<!-- Generator: Adobe Illustrator 26.0.1, SVG Export Plug-In . SVG Version: 6.00 Build 0)  -->
<svg version="1.1" id="feet" xmlns="http://www.w3.org/2000/svg" xmlns:xlink="http://www.w3.org/1999/xlink" x="0px" y="0px"
	 viewBox="0 0 1000 1000" style="enable-background:new 0 0 1000 1000;" xml:space="preserve">

<g id="skin-D">
	<path d="M727.7,707.4c3.4-5.2,7.7-10.8,13.1-16.2c-11.6-5.3-24.8,0.1-34.8,6.3c2-4.1,4.5-8.3,7.6-12.6
		c-9.9-0.9-17.7,1.1-23.9,4.4c-12.7,4.7-21,17-21,17c-19.5,28.6-26,76.4,6.8,84.9c17,4.4,33.3-3.8,49-35.6c3.6-7.2,6.5-17.2,9.7-26
		c4-8.1,9.1-16.2,15.2-21.2C742.8,704.6,734.9,705.2,727.7,707.4z"/>
	<path d="M310.3,689.3c-6.1-3.2-14-5.3-23.9-4.4c3.1,4.2,5.6,8.5,7.6,12.6c-10-6.2-23.3-11.6-34.8-6.3
		c5.4,5.4,9.8,11,13.1,16.2c-7.2-2.3-15.1-2.8-21.8,1.1c6.2,4.9,11.3,13,15.2,21.2c3.2,8.8,6.2,18.8,9.7,26
		c15.7,31.9,32.1,40,49,35.6c32.8-8.5,26.3-56.3,6.8-84.9C331.3,706.4,323,694,310.3,689.3z"/>
</g>
<g id="skin2">
	<path d="M713.6,732.6c-6.7-4.1-19.4,3.1-28.4,17c-9.6,14.8-10.8,30.2-2.6,33.5c7.8,3.1,20.8-6.2,28.9-20.1
		C719.1,749.8,720.1,736.6,713.6,732.6z"/>
	<path d="M286.4,732.6c-6.4,4-5.5,17.2,2.1,30.4c8.1,13.9,21,23.3,28.9,20.1c8.2-3.3,7-18.7-2.6-33.5
		C305.7,735.7,293.1,728.5,286.4,732.6z"/>
</g>
</svg>
