<?xml version="1.0" encoding="utf-8"?>
<!-- Generator: Adobe Illustrator 26.0.1, SVG Export Plug-In . SVG Version: 6.00 Build 0)  -->
<svg version="1.1" id="feet" xmlns="http://www.w3.org/2000/svg" xmlns:xlink="http://www.w3.org/1999/xlink" x="0px" y="0px"
	 viewBox="0 0 1000 1000" style="enable-background:new 0 0 1000 1000;" xml:space="preserve">

<g id="skin2-D">
	<path d="M721.3,728.3c-2.1-29.3-6.4-39.6-23.3-41.4c-4.1-4.2-9.5-6-14.6-4.4c-2.9,0.9-5.4,2.8-7.3,5.4
		c-0.7-0.2-1.4-0.3-2.1-0.3c-8.9-0.2-19.6,12.3-22.7,24.5c-8.9,35.5,7.6,89.2,44.7,82.6C723.4,789.8,723.8,763.7,721.3,728.3z"/>
	<path d="M326,687.6c-0.7,0-1.4,0.1-2.1,0.3c-2-2.6-4.4-4.4-7.3-5.4c-5.1-1.6-10.4,0.2-14.6,4.4
		c-16.9,1.8-21.2,12.1-23.3,41.4c-2.5,35.4-2,61.5,25.2,66.4c37.2,6.6,53.7-47.1,44.7-82.6C345.6,699.9,334.8,687.4,326,687.6z"/>
</g>
<g id="earskin">
	<path d="M303,719.5c-7.4-0.5-14.8,11.5-16.5,27.8c-1.8,17.6,3.6,33,12.2,33.2c8.4,0.1,15.7-14.7,16.4-31.9
		C315.7,732.6,310.3,720.1,303,719.5z"/>
	<path d="M290.1,720c2.6-0.2,4.8-5.6,5-11.9c0.2-6.2-1.6-10.9-4.1-10.9c-2.4,0.1-4.7,5.1-5,11.3
		C285.7,715,287.5,720.2,290.1,720z"/>
	<path d="M322.1,698.5c-2.3-1.1-5.8,2.7-7.9,8.7c-2.2,6.2-2,12.2,0.4,13.4c2.4,1.1,6.1-3.1,8.1-9.4
		C324.7,705.2,324.4,699.6,322.1,698.5z"/>
	<path d="M302,716.8c3.5,1,7.9-4.7,9.7-12.5c1.8-7.5,0.5-14.2-2.8-15.2c-3.3-1-7.5,4-9.5,11.5
		C297.3,708.4,298.5,715.8,302,716.8z"/>
	<path d="M697,719.5c-7.3,0.5-12.7,13.1-12.1,29.1c0.7,17.2,8,32,16.4,31.9c8.5-0.1,14-15.6,12.2-33.2
		C711.8,731,704.5,719,697,719.5z"/>
	<path d="M709.9,720c2.6,0.2,4.4-5.1,4.1-11.5c-0.3-6.2-2.6-11.2-5-11.3c-2.4-0.1-4.3,4.7-4.1,10.9
		C705.1,714.5,707.3,719.9,709.9,720z"/>
	<path d="M685.8,707.2c-2.1-6-5.6-9.8-7.9-8.7c-2.3,1.1-2.6,6.7-0.7,12.7c2,6.2,5.7,10.5,8.1,9.4
		C687.8,719.4,688,713.4,685.8,707.2z"/>
	<path d="M698,716.8c3.5-1,4.7-8.4,2.6-16.2c-2-7.5-6.2-12.5-9.5-11.5c-3.3,1-4.6,7.7-2.8,15.2
		C690.1,712.2,694.4,717.9,698,716.8z"/>
</g>
</svg>
