<?xml version="1.0" encoding="utf-8"?>
<!-- Generator: Adobe Illustrator 26.0.1, SVG Export Plug-In . SVG Version: 6.00 Build 0)  -->
<svg version="1.1" id="feet" xmlns="http://www.w3.org/2000/svg" xmlns:xlink="http://www.w3.org/1999/xlink" x="0px" y="0px"
	 viewBox="0 0 1000 1000" style="enable-background:new 0 0 1000 1000;" xml:space="preserve">

<g id="bone-D">
	<path d="M727,718c-6.7-10-32.3-28.7-59.8-11c-25.7,16.6-33.8,56.2-11.9,73.8c21.7,17.4,48.5,12.6,64-8.2
		C734.7,752,736.7,732.3,727,718z"/>
	<path d="M332.9,707c-27.5-17.8-53,1-59.8,11c-9.7,14.4-7.7,34.1,7.7,54.6c15.5,20.8,42.3,25.7,64,8.2
		C366.7,763.2,358.6,723.6,332.9,707z"/>
</g>
<g id="bone">
	<path d="M728.1,719.7c-1.8-1.4-3.7-2.7-5.8-3.8c-22.2-12.3-51.1-2.6-64.5,21.7c-7.5,13.6-8.5,28.9-4,41.9
		c0.5,0.5,1,0.9,1.6,1.4c21.7,17.4,48.5,12.6,64-8.2C734.1,752.8,736.5,733.9,728.1,719.7z"/>
	<path d="M277.9,715.8c-2.1,1.1-4,2.4-5.8,3.8c-8.4,14.2-6,33.2,8.7,52.9c15.5,20.8,42.3,25.7,64,8.2
		c0.6-0.4,1.1-0.9,1.6-1.4c4.5-13,3.5-28.3-4-41.9C329,713.3,300.1,703.6,277.9,715.8z"/>
</g>
</svg>
