<?xml version="1.0" encoding="utf-8"?>
<!-- Generator: Adobe Illustrator 26.0.1, SVG Export Plug-In . SVG Version: 6.00 Build 0)  -->
<svg version="1.1" id="feet" xmlns="http://www.w3.org/2000/svg" xmlns:xlink="http://www.w3.org/1999/xlink" x="0px" y="0px"
	 viewBox="0 0 1000 1000" style="enable-background:new 0 0 1000 1000;" xml:space="preserve">

<g id="nails">
	<path d="M740.6,714.6c-0.4-2.3-8.1-11.5-16.9-10c-8.8,1.6-15.2,13.3-14.8,15.6c0.4,2.3,7.6-5.7,16.3-7.2
		C733.9,711.4,741,716.9,740.6,714.6z"/>
	<path d="M728.8,722.4c-8.2,0.1-15.9,9.8-15.8,12c0,2.2,7.7-4,15.9-4.1c8.2-0.1,13.8,5.9,13.7,3.7
		C742.6,731.8,737,722.3,728.8,722.4z"/>
	<path d="M724.6,700.3c-1-1.9-10.2-8.1-17.5-4.4c-7.3,3.6-10,15.7-9.1,17.6c1,1.9,5.2-7,12.6-10.6
		C718,699.2,725.6,702.2,724.6,700.3z"/>
	<path d="M276.3,704.6c-8.8-1.6-16.5,7.7-16.9,10c-0.4,2.3,6.6-3.1,15.4-1.6c8.8,1.6,15.9,9.5,16.3,7.2
		C291.6,717.9,285.1,706.2,276.3,704.6z"/>
	<path d="M271.2,722.4c-8.2-0.1-13.8,9.4-13.8,11.6c0,2.2,5.5-3.9,13.7-3.7c8.2,0.1,15.9,6.3,15.9,4.1
		C287,732.2,279.4,722.5,271.2,722.4z"/>
	<path d="M292.9,695.8c-7.3-3.6-16.5,2.5-17.5,4.4c-1,1.9,6.7-1.1,14,2.6c7.3,3.6,11.6,12.6,12.6,10.6
		C302.9,711.5,300.2,699.5,292.9,695.8z"/>
</g>
<g id="skin-D">
	<path d="M733,721.7c1-5.8-0.6-11.2-4.8-14.4c-2.4-1.8-5.4-2.8-8.6-2.9c-0.3-0.6-0.6-1.3-1-1.9
		c-4.9-7.4-21.4-8.9-33.1-4.4c-34.1,13.2-68.4,57.7-41.6,84.3c19.7,19.4,41.2,4.8,68.7-17.8C735.4,746,741.3,736.5,733,721.7z"/>
	<path d="M314.5,698.1c-11.7-4.5-28.1-3-33.1,4.4c-0.4,0.6-0.7,1.2-1,1.9c-3.2,0.1-6.2,1.1-8.6,2.9
		c-4.3,3.2-5.9,8.6-4.8,14.4c-8.3,14.8-2.4,24.3,20.3,42.9c27.5,22.5,49,37.2,68.7,17.8C382.9,755.9,348.6,711.4,314.5,698.1z"/>
</g>
<g id="earskin">
	<path d="M675,746.7c-13.6,10.5-21.5,25.1-16.5,31.8c5,6.9,20.8,2.4,34.1-9.3c12.4-10.8,17.9-23.8,13.2-29.6
		C701.1,734.1,687.7,736.9,675,746.7z"/>
	<path d="M730.9,736.6c-1.3-2-6.3-0.8-11.2,2.9c-5.1,3.8-8.2,8.8-6.8,10.9c1.4,2.2,6.7,0.7,11.7-3.3
		C729.4,743.4,732.2,738.7,730.9,736.6z"/>
	<path d="M698.2,730.8c2.3,1.3,7.4-2,11.2-7.4c3.7-5.1,4.7-10.2,2.5-11.5c-2.2-1.3-7,1.7-10.8,6.8
		C697.2,724,695.8,729.5,698.2,730.8z"/>
	<path d="M723.2,731.7c4.9-5.9,6.6-12.3,3.9-14.4c-2.7-2.1-8.9,0.7-14,6.5c-5.3,6-7.4,12.9-4.5,15.2
		C711.4,741.3,718.1,737.9,723.2,731.7z"/>
	<path d="M325,746.7c-12.7-9.8-26.1-12.7-30.7-7c-4.7,5.8,0.8,18.7,13.2,29.6c13.3,11.7,29.1,16.1,34.1,9.3
		C346.5,771.8,338.6,757.2,325,746.7z"/>
	<path d="M280.4,739.6c-4.9-3.7-9.9-5-11.2-2.9c-1.3,2,1.4,6.8,6.3,10.6c5,4,10.4,5.5,11.7,3.3
		C288.5,748.3,285.4,743.4,280.4,739.6z"/>
	<path d="M301.8,730.8c2.3-1.3,1-6.8-3-12c-3.8-5.1-8.6-8.1-10.8-6.8c-2.2,1.3-1.1,6.3,2.5,11.5
		C294.4,728.8,299.5,732.2,301.8,730.8z"/>
	<path d="M286.9,723.8c-5.1-5.8-11.3-8.6-14-6.5c-2.7,2.1-1.1,8.5,3.9,14.4c5.1,6.2,11.8,9.5,14.7,7.2
		C294.4,736.7,292.2,729.8,286.9,723.8z"/>
</g>
</svg>
