<?xml version="1.0" encoding="utf-8"?>
<!-- Generator: Adobe Illustrator 26.0.1, SVG Export Plug-In . SVG Version: 6.00 Build 0)  -->
<svg version="1.1" id="feet" xmlns="http://www.w3.org/2000/svg" xmlns:xlink="http://www.w3.org/1999/xlink" x="0px" y="0px"
	 viewBox="0 0 1000 1000" style="enable-background:new 0 0 1000 1000;" xml:space="preserve">

<g id="skin-D">
	<path d="M713.2,705.5c-1.9-3.9-5.2-6.3-9.1-6.4c-2.2,0-4.4,0.7-6.3,2c-0.4-0.3-0.9-0.5-1.4-0.7
		c-6.1-2.2-16.5,4-21.4,11.8C660.5,734.9,659.6,776,687,780c20.1,2.9,26.4-15.1,32.8-40.3C725.1,718.8,724.5,710.6,713.2,705.5z"/>
	<path d="M301.7,700.4c-0.5,0.2-1,0.4-1.4,0.7c-1.9-1.3-4.1-2.1-6.3-2c-3.9,0.1-7.2,2.5-9.1,6.4
		c-11.3,5.2-12,13.3-6.6,34.2c6.4,25.2,12.8,43.3,32.8,40.3c27.4-4,26.5-45.1,12.1-67.8C318.2,704.5,307.8,698.2,301.7,700.4z"/>
</g>
<g id="earskin">
	<path d="M705.4,732.9c-5.4-1.8-13.3,5-17.8,15.8c-4.9,11.7-4.2,23.7,1.8,26c6.2,2.4,14.9-6.3,19.1-18.5
		C712.5,744.8,710.9,734.7,705.4,732.9z"/>
	<path d="M717.7,714c-2-0.6-4.5,3.3-5.5,8.9c-1.1,5.7-0.2,11.1,1.9,11.8c2.1,0.7,4.7-3.6,5.7-9.5
		C720.7,719.5,719.7,714.6,717.7,714z"/>
	<path d="M692.2,730.7c2.8-0.4,5.2-6.5,5.2-13.4c0.1-6.7-2-11.6-4.7-11.3c-2.7,0.4-5,6-5.2,12.7
		C687.3,725.7,689.4,731.2,692.2,730.7z"/>
	<path d="M706.1,702.2c-2.9-0.1-5.7,5.3-6.2,12.3c-0.5,7.3,1.6,13.6,4.8,13.8c3.2,0.2,6-5.9,6.2-13.3
		C711.2,708,709,702.3,706.1,702.2z"/>
	<path d="M292.6,732.9c-5.5,1.8-7.1,12-3.2,23.3c4.2,12.2,12.9,20.9,19.1,18.5c6.1-2.4,6.7-14.4,1.8-26
		C305.9,737.8,298.1,731.1,292.6,732.9z"/>
	<path d="M280.3,714c-2,0.6-3,5.5-2,11.2c1,5.8,3.5,10.1,5.7,9.5c2.1-0.7,3-6,1.9-11.8
		C284.8,717.3,282.4,713.4,280.3,714z"/>
	<path d="M305.8,730.7c2.8,0.4,4.9-5.1,4.7-12c-0.2-6.7-2.6-12.3-5.2-12.7c-2.7-0.4-4.8,4.6-4.7,11.3
		C300.6,724.2,303,730.3,305.8,730.7z"/>
	<path d="M293.3,728.3c3.2-0.2,5.3-6.5,4.8-13.8c-0.5-7-3.2-12.5-6.2-12.3c-2.9,0.1-5.1,5.8-4.9,12.9
		C287.3,722.4,290.1,728.5,293.3,728.3z"/>
</g>
</svg>
