<?xml version="1.0" encoding="utf-8"?>
<!-- Generator: Adobe Illustrator 26.0.1, SVG Export Plug-In . SVG Version: 6.00 Build 0)  -->
<svg version="1.1" id="feet" xmlns="http://www.w3.org/2000/svg" xmlns:xlink="http://www.w3.org/1999/xlink" x="0px" y="0px"
	 viewBox="0 0 1000 1000" style="enable-background:new 0 0 1000 1000;" xml:space="preserve">

<g id="bone">
	<path d="M323.1,707.7c-22.5-14.6-44,2-46.9,7.4c-7.9,11.8,2.5,20.9,15.1,37.7c7.3,9.7,4.3,24.1,16.1,24.3
		c8.8,0.1,17.9-2.7,25.5-8.8C350.8,753.8,344.2,721.4,323.1,707.7z"/>
	<path d="M723.8,715.1c-2.9-5.4-24.4-21.9-46.9-7.4c-21.1,13.6-27.7,46.1-9.8,60.5c7.6,6.1,16.7,9,25.5,8.8
		c11.8-0.2,8.8-14.5,16.1-24.3C721.3,736,731.7,726.9,723.8,715.1z"/>
</g>
<g id="bone-D">
	<path d="M720.8,712.2c-8.9-4.5-23.3,6.2-32.1,23.9c-8.9,17.6-5.5,36.4,0,40c8.3,5.4,23.3-6.2,32.1-23.9
		C729.7,734.6,729.7,716.7,720.8,712.2z"/>
	<path d="M279.2,712.2c-8.9,4.5-8.9,22.4,0,40c8.9,17.6,23.8,29.3,32.1,23.9c5.5-3.6,8.9-22.4,0-40
		C302.4,718.5,288,707.8,279.2,712.2z"/>
</g>
</svg>
