<?xml version="1.0" encoding="utf-8"?>
<!-- Generator: Adobe Illustrator 26.0.1, SVG Export Plug-In . SVG Version: 6.00 Build 0)  -->
<svg version="1.1" id="feet" xmlns="http://www.w3.org/2000/svg" xmlns:xlink="http://www.w3.org/1999/xlink" x="0px" y="0px"
	 viewBox="0 0 1000 1000" style="enable-background:new 0 0 1000 1000;" xml:space="preserve">

<g id="skin-D">
	<path d="M724.6,708.2c-1.9-1.1-4.1-1.6-6.3-1.5c-1-3.2-2.9-5.8-5.6-7.3c-3.6-2-7.9-1.9-12-0.1c0,0-0.1,0-0.1-0.1
		c-7.2-4.1-17.5,0.4-22.9,10.1c-0.4,0.6-0.7,1.3-1,1.9c-0.5,0.6-1,1.3-1.4,1.9c-14.4,22.6-15.3,63.8,12.1,67.8
		c19.8,2.9,26.2-14.6,32.6-39.3c3-2,5.8-4.9,7.8-8.5C733.2,723.5,731.8,712.3,724.6,708.2z"/>
	<path d="M323.4,711.2c-0.3-0.6-0.6-1.3-1-1.9c-5.5-9.7-15.8-14.2-22.9-10.1c0,0-0.1,0-0.1,0.1c-4.1-1.8-8.5-1.9-12,0.1
		c-2.8,1.6-4.6,4.2-5.6,7.3c-2.2-0.1-4.4,0.4-6.3,1.5c-7.2,4.1-8.6,15.2-3.1,24.9c2.1,3.6,4.8,6.5,7.8,8.5
		c6.4,24.7,12.8,42.2,32.6,39.3c27.4-4,26.5-45.1,12.1-67.8C324.4,712.5,323.9,711.9,323.4,711.2z"/>
</g>
<g id="earskin">
	<path d="M705.7,733.8c-5.4-1.8-13.3,5-17.8,15.8c-4.9,11.7-4.2,23.7,1.8,26c6.2,2.4,14.9-6.3,19.1-18.5
		C712.8,745.8,711.2,735.7,705.7,733.8z"/>
	<path d="M709.8,710.2c-2.1,0.5-4,3.3-4.3,6.5c-0.3,3.5,1.3,6.1,3.7,5.7c2.4-0.4,4.4-3.8,4.4-7.4
		C713.6,711.8,711.9,709.7,709.8,710.2z"/>
	<path d="M694.2,724.2c2.2-1.1,3.3-4.9,2.4-8.3c-0.8-3.1-3-4.7-5-3.7c-1.9,1-3,4.2-2.4,7.4
		C689.8,723.1,692.1,725.2,694.2,724.2z"/>
	<path d="M723.6,722c-2.1-0.1-4.7,2.1-5.9,5.1c-1.3,3.3-0.4,6.3,2,6.5c2.4,0.2,5.3-2.5,6.3-5.9
		C726.8,724.6,725.7,722.1,723.6,722z"/>
	<path d="M294.3,733.8c-5.5,1.8-7.1,12-3.2,23.3c4.2,12.2,12.9,20.9,19.1,18.5c6.1-2.4,6.7-14.4,1.8-26
		C307.6,738.8,299.7,732,294.3,733.8z"/>
	<path d="M294.5,716.7c-0.3-3.2-2.2-6.1-4.3-6.5c-2.1-0.5-3.8,1.6-3.8,4.9c0,3.5,2,6.9,4.4,7.4
		C293.2,722.9,294.8,720.2,294.5,716.7z"/>
	<path d="M305.8,724.2c2.2,1,4.4-1.1,5-4.6c0.6-3.2-0.5-6.4-2.4-7.4c-1.9-1-4.1,0.6-5,3.7
		C302.5,719.3,303.5,723.1,305.8,724.2z"/>
	<path d="M276.4,722c-2.2,0.1-3.3,2.6-2.3,5.7c1,3.4,3.8,6.1,6.3,5.9c2.4-0.2,3.2-3.2,2-6.5
		C281.2,724,278.6,721.8,276.4,722z"/>
</g>
</svg>
