<?xml version="1.0" encoding="utf-8"?>
<!-- Generator: Adobe Illustrator 26.0.1, SVG Export Plug-In . SVG Version: 6.00 Build 0)  -->
<svg version="1.1" id="feet" xmlns="http://www.w3.org/2000/svg" xmlns:xlink="http://www.w3.org/1999/xlink" x="0px" y="0px"
	 viewBox="0 0 1000 1000" style="enable-background:new 0 0 1000 1000;" xml:space="preserve">

<g id="skin-D">
	<path d="M734.1,721.6c-1.4-1.7-3.2-2.9-5.3-3.7c0.2-3.3-0.6-6.4-2.6-8.9c-2.6-3.2-6.7-4.7-11.2-4.5c0,0,0-0.1-0.1-0.1
		c-5.2-6.4-16.4-6-25,1c-0.6,0.5-1.1,0.9-1.6,1.4c-0.7,0.4-1.4,0.8-2,1.3c-21.6,15.8-37.5,53.8-13.4,67.5
		c17.4,9.9,29.7-4.1,44.6-24.7c3.5-0.8,7.1-2.5,10.4-5.1C736.6,738.9,739.4,728.1,734.1,721.6z"/>
	<path d="M313.6,708.2c-0.6-0.5-1.3-0.9-2-1.3c-0.5-0.5-1.1-1-1.6-1.4c-8.6-7-19.8-7.5-25-1c0,0,0,0.1-0.1,0.1
		c-4.5-0.2-8.6,1.3-11.2,4.5c-2,2.5-2.8,5.6-2.6,8.9c-2.1,0.7-3.9,1.9-5.3,3.7c-5.2,6.4-2.4,17.3,6.2,24.3c3.2,2.6,6.9,4.3,10.4,5.1
		c14.9,20.7,27.3,34.6,44.6,24.7C351.1,762.1,335.3,724.1,313.6,708.2z"/>
</g>
<g id="skin2-D">
	<path d="M684.9,746.8c-8.8,9.1-12.6,20.5-7.8,24.9c4.9,4.5,16.2-0.4,24.5-10.3c7.8-9.2,10-19.2,5.6-22.9
		C702.8,734.9,693.1,738.4,684.9,746.8z"/>
	<path d="M721.8,726.2c2.5-4.4,2.3-8.7-0.4-9.8c-2.6-1.1-6.8,1.1-9.6,5.3c-3,4.4-3.3,9.4-0.4,10.8
		C714.3,733.8,719.1,730.9,721.8,726.2z"/>
	<path d="M698.1,728.3c2.4,1,5.7-2.7,7.2-7.9c1.5-4.8,0.8-9.1-1.3-9.8c-2.1-0.7-5,2.2-6.7,6.8
		C695.5,722.2,695.8,727.3,698.1,728.3z"/>
	<path d="M729.9,732.2c-1.3-1.8-5.4-1.1-9.4,1.7c-4.3,3-7,7.3-5.7,9.4c1.4,2.2,6.2,1,10.5-2.3
		C729.3,737.9,731.2,734,729.9,732.2z"/>
	<path d="M292.7,738.6c-4.5,3.7-2.2,13.7,5.6,22.9c8.4,9.9,19.7,14.8,24.5,10.3c4.8-4.4,1-15.8-7.8-24.9
		C306.9,738.4,297.2,734.9,292.7,738.6z"/>
	<path d="M288.2,721.6c-2.8-4.1-7-6.4-9.6-5.3c-2.6,1.1-2.9,5.4-0.4,9.8c2.7,4.7,7.5,7.7,10.4,6.3
		C291.5,731,291.2,726.1,288.2,721.6z"/>
	<path d="M301.9,728.3c2.3-1,2.6-6,0.8-11c-1.7-4.6-4.7-7.5-6.7-6.8c-2.1,0.7-2.7,5-1.3,9.8
		C296.3,725.6,299.6,729.3,301.9,728.3z"/>
	<path d="M279.5,733.8c-4-2.8-8.1-3.4-9.4-1.7c-1.3,1.8,0.7,5.7,4.6,8.8c4.3,3.3,9.1,4.5,10.5,2.3
		C286.5,741.1,283.8,736.8,279.5,733.8z"/>
</g>
</svg>
