<?xml version="1.0" encoding="utf-8"?>
<!-- Generator: Adobe Illustrator 26.0.1, SVG Export Plug-In . SVG Version: 6.00 Build 0)  -->
<svg version="1.1" id="feet" xmlns="http://www.w3.org/2000/svg" xmlns:xlink="http://www.w3.org/1999/xlink" x="0px" y="0px"
	 viewBox="0 0 1000 1000" style="enable-background:new 0 0 1000 1000;" xml:space="preserve">

<g id="nails">
	<path d="M690.2,712.3c-1.2,0.1-3.5,2.9-3.3,6.4c0.2,3.5,2.9,6.3,4.1,6.2c1.2-0.1,0.5-2.9,0.3-6.4
		C691.2,715,691.5,712.2,690.2,712.3z"/>
	<path d="M709.6,713.4c-1.1-0.5-4.4,1.1-5.8,4.3c-1.3,3.2-0.1,6.9,1,7.4c1.1,0.5,1.8-2.4,3.1-5.6
		C709.3,716.2,710.8,713.9,709.6,713.4z"/>
	<path d="M722.9,722.2c-0.9-0.8-4.6-0.5-7,2c-2.3,2.5-2.5,6.3-1.5,7.2c0.9,0.8,2.5-1.6,4.9-4.1
		C721.6,724.7,723.9,723.1,722.9,722.2z"/>
	<path d="M309.8,712.3c-1.2-0.1-0.9,2.7-1.2,6.2c-0.2,3.5-0.9,6.4,0.3,6.4c1.2,0.1,3.9-2.7,4.1-6.2
		C313.3,715.2,311,712.3,309.8,712.3z"/>
	<path d="M290.4,713.4c-1.1,0.5,0.4,2.8,1.7,6.1c1.3,3.2,2,6.1,3.1,5.6c1.1-0.5,2.3-4.1,1-7.4
		C294.8,714.5,291.5,712.9,290.4,713.4z"/>
	<path d="M277.1,722.2c-0.9,0.8,1.3,2.5,3.6,5c2.3,2.5,3.9,5,4.9,4.1c0.9-0.8,0.8-4.6-1.5-7.2
		C281.7,721.7,278,721.4,277.1,722.2z"/>
</g>
<g id="skin-D">
	<path d="M718.1,721.9c-1.8-0.7-3.7-1-5.7-0.9c-1-2.3-2.9-4.1-5.4-5.1c-3.3-1.4-7.2-1.1-10.9,0.3c0,0-0.1,0-0.1,0
		c-6.7-2.7-15.7,0.9-20.2,8.2c-0.3,0.5-0.6,1-0.8,1.4c-0.4,0.5-0.8,1-1.2,1.5c-11.9,17.1-10.9,47.1,13.9,49.1
		c18,1.4,23-11.6,27.6-29.9c2.6-1.6,5-3.8,6.7-6.5C726.5,732.7,724.8,724.7,718.1,721.9z"/>
	<path d="M325,725.9c-0.2-0.5-0.5-1-0.8-1.4c-4.5-7.2-13.6-10.9-20.2-8.2c0,0-0.1,0-0.1,0c-3.6-1.5-7.5-1.7-10.9-0.3
		c-2.5,1-4.4,2.9-5.4,5.1c-2-0.1-4,0.1-5.7,0.9c-6.7,2.7-8.4,10.8-3.9,18.1c1.7,2.7,4,5,6.7,6.5c4.6,18.3,9.6,31.3,27.6,29.9
		c24.8-1.9,25.9-32,13.9-49.1C325.8,726.8,325.4,726.4,325,725.9z"/>
</g>
<g id="earskin">
	<path d="M702.3,741.3c-5-1.1-11.7,4.1-15.3,12.2c-3.9,8.7-2.8,17.4,2.8,18.9c5.7,1.5,13.2-5.1,16.4-14.2
		C709.2,749.8,707.3,742.4,702.3,741.3z"/>
	<path d="M703.4,736c2.9,0.1,5.8-3.3,6.2-7.3c0.4-3.7-1.3-6.5-3.9-6.4c-2.6,0-5.2,2.8-6,6.4
		C698.9,732.5,700.5,735.9,703.4,736z"/>
	<path d="M690.9,737.2c2.3-0.1,3.7-3.5,3-7.4c-0.6-3.7-2.7-6.3-4.7-6.2c-2,0.1-3.3,3-3,6.5
		C686.5,733.9,688.6,737.2,690.9,737.2z"/>
	<path d="M718.6,730.2c-1.7-0.8-4.8,0.9-7.1,3.9c-2.5,3.3-3.1,7-1.2,8c1.9,1,5.5-1.2,7.8-4.7
		C720.1,734.2,720.3,731.1,718.6,730.2z"/>
	<path d="M297.7,741.3c-5,1.1-6.9,8.5-3.9,16.9c3.2,9.1,10.7,15.7,16.4,14.2c5.6-1.5,6.7-10.3,2.8-18.9
		C309.5,745.4,302.7,740.2,297.7,741.3z"/>
	<path d="M296.6,736c2.9-0.1,4.5-3.5,3.6-7.3c-0.8-3.6-3.4-6.4-6-6.4c-2.6,0-4.4,2.7-3.9,6.4
		C290.9,732.6,293.7,736,296.6,736z"/>
	<path d="M309.1,737.2c2.3,0,4.4-3.2,4.7-7.1c0.3-3.6-1.1-6.4-3-6.5c-2-0.1-4.1,2.5-4.7,6.2
		C305.4,733.7,306.8,737.1,309.1,737.2z"/>
	<path d="M281.4,730.2c-1.7,0.8-1.5,4,0.6,7.2c2.3,3.5,5.8,5.7,7.8,4.7c1.9-1,1.3-4.7-1.2-8
		C286.3,731.1,283.1,729.4,281.4,730.2z"/>
</g>
</svg>
