<?xml version="1.0" encoding="utf-8"?>
<!-- Generator: Adobe Illustrator 26.0.1, SVG Export Plug-In . SVG Version: 6.00 Build 0)  -->
<svg version="1.1" id="feet" xmlns="http://www.w3.org/2000/svg" xmlns:xlink="http://www.w3.org/1999/xlink" x="0px" y="0px"
	 viewBox="0 0 1000 1000" style="enable-background:new 0 0 1000 1000;" xml:space="preserve">

<g id="skin-D">
	<path d="M727.5,699.8c-2.3-1.1-4.6-1.5-7-1.3c-1.6-3.5-4.1-6.3-7.3-7.9c-4.2-2.1-8.8-1.7-12.9,0.5c0,0-0.1-0.1-0.1-0.1
		c-8.4-4.2-18.5,1.5-22.6,12.5c-0.3,0.7-0.5,1.5-0.7,2.2c-0.4,0.7-0.8,1.5-1.1,2.2c-11.2,26.1-4.7,72.1,25.2,75
		c21.6,2.1,25.3-17.8,27.6-45.7c2.8-2.4,5.2-5.8,6.8-10C739.4,716.3,735.9,703.9,727.5,699.8z"/>
	<path d="M323.2,705.8c-0.2-0.7-0.4-1.5-0.7-2.2c-4.1-11.1-14.2-16.7-22.6-12.5c0,0-0.1,0.1-0.1,0.1
		c-4.1-2.2-8.7-2.6-12.9-0.5c-3.2,1.6-5.7,4.4-7.3,7.9c-2.4-0.2-4.7,0.2-7,1.3c-8.4,4.2-11.9,16.5-7.8,27.6c1.5,4.2,3.9,7.6,6.8,10
		c2.3,27.9,6,47.8,27.6,45.7c29.9-2.9,36.4-49,25.2-75C324,707.3,323.6,706.5,323.2,705.8z"/>
</g>
<g id="earskin">
	<path d="M288,729.4c-6.2,1.7-9.7,13-7.6,25.9c2.3,13.9,10,24.1,17,21.7c6.9-2.3,9.8-15.7,6.7-29
		C301.2,735.7,294.1,727.7,288,729.4z"/>
	<path d="M303.4,702.8c-2.3,0.8-4.1,5.8-4.1,11.6c0,6.3,2.2,10.9,4.8,9.8c2.5-1,4.3-7,3.9-13
		C307.6,705.7,305.6,702,303.4,702.8z"/>
	<path d="M289.3,722.3c2.3-1.8,2.8-8.2,1.3-13.9c-1.4-5.3-4.1-8.1-6.1-6.7c-2,1.5-2.8,6.9-1.7,12.6
		C284,720.3,287,724.1,289.3,722.3z"/>
	<path d="M278.3,718.5c-2.2-4.7-5.6-7.3-7.8-6c-2.2,1.3-2.5,6.1-0.6,11.1c2.1,5.4,6,8.7,8.4,7.1
		C280.8,729.1,280.7,723.5,278.3,718.5z"/>
	<path d="M712,729.4c-6.1-1.7-13.2,6.3-16.1,18.7c-3.1,13.3-0.2,26.7,6.7,29c7,2.3,14.8-7.8,17-21.7
		C721.7,742.4,718.2,731.1,712,729.4z"/>
	<path d="M695.9,724.3c2.6,1,4.7-3.6,4.8-9.8c0-5.8-1.8-10.9-4.1-11.6c-2.2-0.8-4.3,2.9-4.6,8.5
		C691.7,717.2,693.4,723.2,695.9,724.3z"/>
	<path d="M710.7,722.3c2.3,1.8,5.3-1.9,6.5-8c1.2-5.6,0.4-11.1-1.7-12.6c-2-1.4-4.7,1.4-6.1,6.7
		C707.9,714.1,708.4,720.5,710.7,722.3z"/>
	<path d="M729.5,712.5c-2.2-1.3-5.6,1.3-7.8,6c-2.4,5-2.5,10.7,0,12.2c2.5,1.6,6.3-1.8,8.4-7.1
		C732,718.5,731.7,713.7,729.5,712.5z"/>
</g>
</svg>
