<?xml version="1.0" encoding="utf-8"?>
<!-- Generator: Adobe Illustrator 26.0.1, SVG Export Plug-In . SVG Version: 6.00 Build 0)  -->
<svg version="1.1" id="feet" xmlns="http://www.w3.org/2000/svg" xmlns:xlink="http://www.w3.org/1999/xlink" x="0px" y="0px"
	 viewBox="0 0 1000 1000" style="enable-background:new 0 0 1000 1000;" xml:space="preserve">

<g id="skin">
	<path d="M727.3,700.1c-2.3-1.1-4.6-1.5-7-1.3c-1.6-3.4-4.1-6.2-7.3-7.8c-4.2-2-8.8-1.7-12.8,0.5c0,0-0.1-0.1-0.1-0.1
		c-8.4-4.1-18.5,1.4-22.6,12.4c-0.3,0.7-0.5,1.4-0.7,2.2c-0.4,0.7-0.8,1.5-1.1,2.2c-3.1,7.1-4.8,15.8-5.1,24.7
		c-4.1,0.4-7.7,2.1-10.2,5.3c-5.5,7.1-2.8,18.4,6,25.3c3.9,3.1,8.4,4.7,12.6,5.1c5,7.7,12.2,13.1,21.8,14.1
		c21.6,2.1,25.3-17.6,27.6-45.3c2.8-2.4,5.2-5.7,6.8-9.9C739.1,716.5,735.6,704.2,727.3,700.1z"/>
	<path d="M329.6,732.9c-0.3-8.8-2-17.5-5.1-24.7c-0.3-0.8-0.7-1.5-1.1-2.2c-0.2-0.7-0.4-1.5-0.7-2.2
		c-4.1-11-14.2-16.6-22.6-12.4c0,0-0.1,0.1-0.1,0.1c-4.1-2.2-8.7-2.6-12.8-0.5c-3.2,1.6-5.7,4.4-7.3,7.8c-2.4-0.2-4.7,0.2-7,1.3
		c-8.4,4.1-11.9,16.4-7.8,27.4c1.5,4.1,3.9,7.5,6.8,9.9c2.3,27.7,6,47.4,27.6,45.3c9.7-0.9,16.9-6.3,21.8-14.1
		c4.2-0.3,8.7-2,12.6-5.1c8.8-6.9,11.6-18.2,6-25.3C337.3,735.1,333.7,733.3,329.6,732.9z"/>
</g>
<g id="earskin">
	<path d="M711.8,729.4c-6.1-1.7-13.2,6.2-16.1,18.5c-3.1,13.2-0.2,26.4,6.7,28.7c7,2.3,14.8-7.7,17-21.5
		C721.5,742.3,718,731.2,711.8,729.4z"/>
	<path d="M698.4,721.6c2.6,1,4.7-3.5,4.8-9.7c0-5.8-1.8-10.8-4.1-11.5c-2.2-0.7-4.3,2.9-4.6,8.4
		C694.1,714.7,695.9,720.6,698.4,721.6z"/>
	<path d="M675,741.4c-3.8-2.3-8.1-2.4-9.8-0.3c-1.7,2.1-0.4,5.7,3,8.3c3.7,2.7,8.6,3.3,10.6,1
		C680.9,748,679.1,743.9,675,741.4z"/>
	<path d="M713.5,721.2c2.4,1.6,5.1-2.4,5.8-8.4c0.7-5.7-0.6-11-2.7-12.3c-2.1-1.3-4.6,1.8-5.5,7.1
		C710.1,713.4,711.1,719.6,713.5,721.2z"/>
	<path d="M732,713.1c-2.2-1.2-5.6,1.3-7.8,5.9c-2.4,5-2.5,10.6,0,12.1c2.5,1.6,6.3-1.8,8.4-7.1
		C734.5,719.1,734.2,714.3,732,713.1z"/>
	<path d="M288.2,729.4c-6.2,1.7-9.7,12.9-7.6,25.7c2.3,13.8,10,23.9,17,21.5c6.9-2.3,9.8-15.5,6.7-28.7
		C301.4,735.7,294.3,727.7,288.2,729.4z"/>
	<path d="M301.6,721.6c2.5-1,4.3-7,3.9-12.9c-0.3-5.5-2.4-9.1-4.6-8.4c-2.3,0.8-4.1,5.8-4.1,11.5
		C296.8,718.1,299,722.6,301.6,721.6z"/>
	<path d="M325,741.4c-4.1,2.5-5.9,6.6-3.8,9c2,2.3,6.9,1.8,10.6-1c3.4-2.6,4.7-6.2,3-8.3C333,739,328.7,739.1,325,741.4
		z"/>
	<path d="M286.5,721.2c2.4-1.6,3.5-7.8,2.4-13.6c-1-5.3-3.4-8.4-5.5-7.1c-2.2,1.3-3.4,6.6-2.7,12.3
		C281.4,718.8,284,722.8,286.5,721.2z"/>
	<path d="M268,713.1c-2.2,1.3-2.5,6-0.6,11c2.1,5.3,6,8.7,8.4,7.1c2.4-1.5,2.3-7.1,0-12.1
		C273.6,714.4,270.2,711.8,268,713.1z"/>
</g>
</svg>
