<?xml version="1.0" encoding="utf-8"?>
<!-- Generator: Adobe Illustrator 26.0.1, SVG Export Plug-In . SVG Version: 6.00 Build 0)  -->
<svg version="1.1" id="feet" xmlns="http://www.w3.org/2000/svg" xmlns:xlink="http://www.w3.org/1999/xlink" x="0px" y="0px"
	 viewBox="0 0 1000 1000" style="enable-background:new 0 0 1000 1000;" xml:space="preserve">

<g id="skin-D">
	<path d="M742.6,691.8c-2.3-1.7-4.8-2.7-7.5-2.9c-1.1-4.3-3.3-8.1-6.5-10.6c-4.2-3.2-9.4-3.8-14.4-2
		c0,0-0.1-0.1-0.1-0.1c-8.5-6.5-20.9-2-27.8,10c0,0,4.4,21.1-1.2,46.3c-5.5,25.2-4.4,43.8,10.5,50.5c22.4,10.2,31.8-15.5,40.2-47.5
		c3.7-2.2,7-5.7,9.6-10.2C752.3,713.3,751,698.3,742.6,691.8z"/>
	<path d="M313.7,686.2c-6.9-12-19.3-16.5-27.8-10c0,0-0.1,0.1-0.1,0.1c-5-1.8-10.2-1.3-14.4,2
		c-3.2,2.5-5.4,6.2-6.5,10.6c-2.7,0.2-5.2,1.2-7.5,2.9c-8.5,6.5-9.8,21.5-2.9,33.6c2.6,4.5,6,8,9.6,10.2
		c8.4,31.9,17.8,57.6,40.2,47.5c14.8-6.7,16-25.3,10.5-50.5C309.3,707.2,313.7,686.2,313.7,686.2z"/>
</g>
<g id="blacks">
	<g>
		<g>
			<g>
				<g>
					<g>
						<g>
							<g>
								<g>
									<g>
										<g>
											<path d="M701.1,742.7c-5.4,12.4-4.9,26,1.5,29.4c6.5,3.5,15.9-5,20.6-18.2c4.3-12.2,2.9-23.8-2.9-26.6
												C714.5,724.6,706.1,731.2,701.1,742.7z"/>
										</g>
									</g>
								</g>
							</g>
						</g>
					</g>
				</g>
			</g>
		</g>
	</g>
	<g>
		<g>
			<g>
				<g>
					<g>
						<g>
							<g>
								<g>
									<g>
										<g>
											<path d="M706,697.1c-1.7,8.3-1.3,17.1,1,19c2.3,2,5.4-4,6.8-12.8c1.3-8.1,0.6-15.6-1.5-17.1
												C710.4,684.7,707.6,689.4,706,697.1z"/>
										</g>
									</g>
								</g>
							</g>
						</g>
					</g>
				</g>
			</g>
		</g>
	</g>
	<g>
		<g>
			<g>
				<g>
					<g>
						<g>
							<g>
								<g>
									<g>
										<g>
											<path d="M721.9,699c-2.7,8.1-3.6,17.2-1.7,19.8c2,2.6,5.8-2.7,8.3-11.3c2.4-8,2.7-15.8,1-18
												C727.8,687.4,724.5,691.4,721.9,699z"/>
										</g>
									</g>
								</g>
							</g>
						</g>
					</g>
				</g>
			</g>
		</g>
	</g>
	<g>
		<g>
			<g>
				<g>
					<g>
						<g>
							<g>
								<g>
									<g>
										<g>
											<path d="M732.9,711.1c-3.8,6-5.6,13-3.6,15.2c2,2.3,6.9-1.5,10.6-7.9c3.4-6,4.5-12,2.6-13.9
												C740.6,702.8,736.4,705.6,732.9,711.1z"/>
										</g>
									</g>
								</g>
							</g>
						</g>
					</g>
				</g>
			</g>
		</g>
	</g>
	<g>
		<g>
			<g>
				<g>
					<g>
						<g>
							<g>
								<g>
									<g>
										<g>
											<path d="M298.9,742.7c5.4,12.4,4.9,26-1.5,29.4c-6.5,3.5-15.9-5-20.6-18.2c-4.3-12.2-2.9-23.8,2.9-26.6
												C285.5,724.6,293.9,731.2,298.9,742.7z"/>
										</g>
									</g>
								</g>
							</g>
						</g>
					</g>
				</g>
			</g>
		</g>
	</g>
	<g>
		<g>
			<g>
				<g>
					<g>
						<g>
							<g>
								<g>
									<g>
										<g>
											<path d="M294,697.1c1.7,8.3,1.3,17.1-1,19c-2.3,2-5.4-4-6.8-12.8c-1.3-8.1-0.6-15.6,1.5-17.1
												C289.6,684.7,292.4,689.4,294,697.1z"/>
										</g>
									</g>
								</g>
							</g>
						</g>
					</g>
				</g>
			</g>
		</g>
	</g>
	<g>
		<g>
			<g>
				<g>
					<g>
						<g>
							<g>
								<g>
									<g>
										<g>
											<path d="M278.1,699c2.7,8.1,3.6,17.2,1.7,19.8c-2,2.6-5.8-2.7-8.3-11.3c-2.4-8-2.7-15.8-1-18
												C272.2,687.4,275.5,691.4,278.1,699z"/>
										</g>
									</g>
								</g>
							</g>
						</g>
					</g>
				</g>
			</g>
		</g>
	</g>
	<g>
		<g>
			<g>
				<g>
					<g>
						<g>
							<g>
								<g>
									<g>
										<g>
											<path 
                                                d="M267.1,711.1c3.8,6,5.6,13,3.6,15.2c-2,2.3-6.9-1.5-10.6-7.9c-3.4-6-4.5-12-2.6-13.9
												C259.4,702.8,263.6,705.6,267.1,711.1z"/>
										</g>
									</g>
								</g>
							</g>
						</g>
					</g>
				</g>
			</g>
		</g>
	</g>
</g>
</svg>
