<?xml version="1.0" encoding="utf-8"?>
<!-- Generator: Adobe Illustrator 26.0.1, SVG Export Plug-In . SVG Version: 6.00 Build 0)  -->
<svg version="1.1" id="feet" xmlns="http://www.w3.org/2000/svg" xmlns:xlink="http://www.w3.org/1999/xlink" x="0px" y="0px"
	 viewBox="0 0 1000 1000" style="enable-background:new 0 0 1000 1000;" xml:space="preserve">

<g id="skin-D">
	<path d="M752.2,702c-3.7-2.5-10.6-1.7-17.4,1.7c0.6-9.7-0.9-17.4-6.4-18.4c-5.4-1-13.3,4.6-18.5,13.1
		c-1.4-7.9-4.3-13.5-9.2-13.5c-7.9,0-18.3,14.3-18.3,29.3c0,5.2,1.3,9.8,3.2,13.6c-0.1,0.7-0.3,1.4-0.4,2.1
		c-5.5,25.2-4.4,43.8,10.5,50.5c14.3,6.5,29.2-13.9,40.4-37.8c2.7-2.7,5.5-6.3,8.4-10.5C752.7,719.7,758.7,706.4,752.2,702z"/>
	<path d="M314.4,727.8c2-3.8,3.2-8.4,3.2-13.6c0-15-10.4-29.3-18.3-29.3c-5,0-7.8,5.6-9.2,13.5
		c-5.2-8.5-13.1-14.1-18.5-13.1c-5.6,1-7,8.7-6.4,18.4c-6.8-3.4-13.7-4.2-17.4-1.7c-6.6,4.5-0.6,17.7,7.8,30.1
		c2.9,4.2,5.7,7.8,8.4,10.5c11.1,23.9,26.1,44.3,40.4,37.8c14.8-6.7,16-25.3,10.5-50.5C314.7,729.2,314.6,728.5,314.4,727.8z"/>
</g>
<g id="skin-L">
		<ellipse transform="matrix(0.4446 -0.8958 0.8958 0.4446 -282.3139 1054.5851)" cx="709.2" cy="754.9" rx="19.2" ry="11.6"/>
		<ellipse transform="matrix(0.8958 -0.4446 0.4446 0.8958 -305.2906 207.9794)" cx="290.8" cy="754.9" rx="11.6" ry="19.2"/>
</g>
</svg>
