<?xml version="1.0" encoding="utf-8"?>
<!-- Generator: Adobe Illustrator 26.0.1, SVG Export Plug-In . SVG Version: 6.00 Build 0)  -->
<svg version="1.1" id="feet" xmlns="http://www.w3.org/2000/svg" xmlns:xlink="http://www.w3.org/1999/xlink" x="0px" y="0px"
	 viewBox="0 0 1000 1000" style="enable-background:new 0 0 1000 1000;" xml:space="preserve">

<g id="blacks">
	<path d="M731.4,690.7c-2.3-1.1-4.6-1.5-7-1.3c-1.6-3.4-4.1-6.2-7.3-7.8c-4.2-2-8.8-1.7-12.8,0.5c0,0-0.1-0.1-0.1-0.1
		c-8.4-4.1-18.5,1.4-22.6,12.4c0,0-3,16.8-0.3,39.5c2.7,22.7-19.3,35-10,37.8c52,15.9,58.9-16.1,61.2-43.8c2.8-2.4,5.2-5.7,6.8-9.9
		C743.3,707,739.8,694.8,731.4,690.7z"/>
	<path d="M318.8,733.9c2.7-22.7-0.3-39.5-0.3-39.5c-4.1-11-14.2-16.6-22.6-12.4c0,0-0.1,0.1-0.1,0.1
		c-4.1-2.2-8.7-2.6-12.8-0.5c-3.2,1.6-5.7,4.4-7.3,7.8c-2.4-0.2-4.7,0.2-7,1.3c-8.4,4.1-11.9,16.4-7.8,27.4c1.5,4.1,3.9,7.5,6.8,9.9
		c2.3,27.7,9.2,59.7,61.2,43.8C338.1,768.9,316.1,756.6,318.8,733.9z"/>
</g>
<g id="texture">
	<path d="M716,720c-6.1-1.7-13.2,6.2-16.1,18.5c-3.1,13.2-0.2,26.4,6.7,28.7c7,2.3,14.8-7.7,17-21.5
		C725.7,732.9,722.2,721.8,716,720z"/>
	<path d="M702.6,712.2c2.6,1,4.7-3.5,4.8-9.7c0-5.8-1.8-10.8-4.1-11.5c-2.2-0.7-4.3,2.9-4.6,8.4
		C698.3,705.2,700.1,711.2,702.6,712.2z"/>
	<path d="M717.7,711.8c2.4,1.6,5.1-2.4,5.8-8.4c0.7-5.7-0.6-11-2.7-12.3c-2.1-1.3-4.6,1.8-5.5,7.1
		C714.2,703.9,715.3,710.2,717.7,711.8z"/>
	<path d="M736.2,703.7c-2.2-1.2-5.6,1.3-7.8,5.9c-2.4,5-2.5,10.6,0,12.1c2.5,1.6,6.3-1.8,8.4-7.1
		C738.7,709.7,738.4,704.9,736.2,703.7z"/>
	<path d="M284,720c-6.2,1.7-9.7,12.9-7.6,25.7c2.3,13.8,10,23.9,17,21.5c6.9-2.3,9.8-15.5,6.7-28.7
		C297.3,726.3,290.2,718.3,284,720z"/>
	<path d="M297.4,712.2c2.5-1,4.3-7,3.9-12.9c-0.3-5.5-2.4-9.1-4.6-8.4c-2.3,0.8-4.1,5.8-4.1,11.5
		C292.7,708.7,294.8,713.2,297.4,712.2z"/>
	<path d="M282.3,711.8c2.4-1.6,3.5-7.8,2.4-13.6c-1-5.3-3.4-8.4-5.5-7.1c-2.2,1.3-3.4,6.6-2.7,12.3
		C277.2,709.4,279.9,713.4,282.3,711.8z"/>
	<path d="M263.8,703.7c-2.2,1.3-2.5,6-0.6,11c2.1,5.3,6,8.7,8.4,7.1c2.4-1.5,2.3-7.1,0-12.1
		C269.4,705,266,702.4,263.8,703.7z"/>
</g>
</svg>
