<?xml version="1.0" encoding="utf-8"?>
<!-- Generator: Adobe Illustrator 26.0.1, SVG Export Plug-In . SVG Version: 6.00 Build 0)  -->
<svg version="1.1" id="feet" xmlns="http://www.w3.org/2000/svg" xmlns:xlink="http://www.w3.org/1999/xlink" x="0px" y="0px"
	 viewBox="0 0 1000 1000" style="enable-background:new 0 0 1000 1000;" xml:space="preserve">

<g id="bone">
	<path d="M716.1,717.3c-9-2.5-39.9,10.2-44.1,28.2c-4.5,19.4,20.1,37.8,30.3,41.2c10.3,3.4,21.7-11.4,25-31.6
		C730.4,736.3,725.2,719.9,716.1,717.3z"/>
	<path d="M283.9,717.3c-9.1,2.5-14.3,18.9-11.2,37.7c3.3,20.3,14.7,35.1,25,31.6c10.2-3.4,34.8-21.9,30.3-41.2
		C323.8,727.5,292.9,714.8,283.9,717.3z"/>
</g>
<g id="bone-D">
	<path d="M716.1,717.3c-9-2.5-19.4,9.2-23.7,27.2c-4.5,19.4-0.3,38.8,9.8,42.2c10.3,3.4,21.7-11.4,25-31.6
		C730.4,736.3,725.2,719.9,716.1,717.3z"/>
	<path d="M283.9,717.3c-9.1,2.5-14.3,18.9-11.2,37.7c3.3,20.3,14.7,35.1,25,31.6c10.2-3.4,14.4-22.8,9.8-42.2
		C303.3,726.5,292.9,714.8,283.9,717.3z"/>
</g>
</svg>
