<?xml version="1.0" encoding="utf-8"?>
<!-- Generator: Adobe Illustrator 26.0.1, SVG Export Plug-In . SVG Version: 6.00 Build 0)  -->
<svg version="1.1" id="feet" xmlns="http://www.w3.org/2000/svg" xmlns:xlink="http://www.w3.org/1999/xlink" x="0px" y="0px"
	 viewBox="0 0 1000 1000" style="enable-background:new 0 0 1000 1000;" xml:space="preserve">

<g id="blacks">
	<path d="M751.1,681.7c-6.1-6.1-38.8-12.4-53.1,11.3c-22.5,37.5-25.6,74.6-6.9,86.5c16.1,10.3,42.3-11.9,58.8-38.9
		C766.5,713.6,765.9,696.4,751.1,681.7z"/>
	<path d="M248.9,681.7c-14.8,14.7-15.4,31.9,1.2,58.9c16.6,27,42.7,49.2,58.8,38.9c18.7-11.9,15.6-49.1-6.9-86.5
		C287.7,669.3,255.1,675.6,248.9,681.7z"/>
</g>
<g id="earskin">
	<path d="M727.8,722.3c-8.4-2.2-20.5,7.2-27,21c-6.5,13.8-4.9,26.8,3.5,29c8.4,2.2,20.5-7.2,27-21
		C737.8,737.5,736.2,724.5,727.8,722.3z"/>
	<path d="M753.5,705.7c-2.7-1-7.5,3-10.8,8.9c-3.3,6-3.8,11.7-1.1,12.7c2.7,1,7.5-3,10.8-8.9
		C755.7,712.4,756.2,706.7,753.5,705.7z"/>
	<path d="M717.3,718.9c3.2-1,4.9-7.3,4-14c-1-6.8-4.3-11.5-7.5-10.5c-3.2,1-4.9,7.3-4,14
		C710.8,715.2,714.1,719.9,717.3,718.9z"/>
	<path d="M737.6,690.1c-4.5-0.3-9.7,6.1-11.8,14.4c-2,8.3-0.1,15.3,4.4,15.7c4.5,0.3,9.7-6.1,11.8-14.4
		C744.1,697.4,742.1,690.4,737.6,690.1z"/>
	<path d="M272.2,722.3c-8.4,2.2-10,15.2-3.5,29c6.5,13.8,18.6,23.2,27,21c8.4-2.2,10-15.2,3.5-29
		C292.7,729.5,280.6,720.1,272.2,722.3z"/>
	<path d="M246.5,705.7c-2.7,1-2.2,6.7,1.1,12.7c3.3,6,8.2,10,10.8,8.9c2.7-1,2.2-6.7-1.1-12.7
		C254,708.7,249.2,704.7,246.5,705.7z"/>
	<path d="M282.7,718.9c3.2,1,6.5-3.7,7.5-10.5c1-6.8-0.8-13.1-4-14c-3.2-1-6.5,3.7-7.5,10.5
		C277.8,711.7,279.5,718,282.7,718.9z"/>
	<path d="M274.1,704.5c-2-8.3-7.3-14.8-11.8-14.4c-4.5,0.3-6.4,7.3-4.4,15.7c2,8.3,7.3,14.8,11.8,14.4
		C274.2,719.8,276.2,712.8,274.1,704.5z"/>
</g>
</svg>
