<?xml version="1.0" encoding="utf-8"?>
<!-- Generator: Adobe Illustrator 26.0.1, SVG Export Plug-In . SVG Version: 6.00 Build 0)  -->
<svg version="1.1" id="feet" xmlns="http://www.w3.org/2000/svg" xmlns:xlink="http://www.w3.org/1999/xlink" x="0px" y="0px"
	 viewBox="0 0 1000 1000" style="enable-background:new 0 0 1000 1000;" xml:space="preserve">

<g id="earskin">
	<g id="XMLID_110_">
		<g>
			<g>
				<g>
					<g>
						<g>
							<g>
								<g>
									<g>
										<g>
											<g>
												<path d="M773.7,724.9c-3.2-6.1-18.6-9.8-33.2-4.4c12.3-12.9,22-23.6,16.5-28.8c-5.6-5.3-24.6-3.1-37.1,10
													c-0.6,0.6-1.2,1.3-1.7,1.9c5.4-15,8.8-26.8,2.2-29.2c-7.2-2.6-23.8,7-30,24c-4.1,11.2-2.7,22.9,0.8,30.2
													c-0.7,1.1-1.3,2.2-1.9,3.3c-0.7-0.3-1.4-0.7-2.1-1c-16.4-7.7-29.8-13.8-33.1-6.9c-3.3,6.9,4.8,24.3,21.2,32
													c1.7,0.8,3.4,1.5,5.2,2c-1,10,1.5,18,7.8,21.8c10.1,6.1,26.1-6.2,36.9-22.1c6-1.6,14.1-5.8,23.1-10.6
													C764.4,738.8,777.3,731.7,773.7,724.9z"/>
											</g>
										</g>
									</g>
								</g>
							</g>
						</g>
					</g>
				</g>
			</g>
		</g>
	</g>
	<g>
		<g>
			<g>
				<g>
					<g>
						<g>
							<g>
								<g>
									<g>
										<g>
											<g>
												<path d="M226.3,724.9c3.2-6.1,18.6-9.8,33.2-4.4c-12.3-12.9-22-23.6-16.5-28.8c5.6-5.3,24.6-3.1,37.1,10
													c0.6,0.6,1.2,1.3,1.7,1.9c-5.4-15-8.8-26.8-2.2-29.2c7.2-2.6,23.8,7,30,24c4.1,11.2,2.7,22.9-0.8,30.2
													c0.7,1.1,1.3,2.2,1.9,3.3c0.7-0.3,1.4-0.7,2.1-1c16.4-7.7,29.8-13.8,33.1-6.9c3.3,6.9-4.8,24.3-21.2,32
													c-1.7,0.8-3.4,1.5-5.2,2c1,10-1.5,18-7.8,21.8c-10.1,6.1-26.1-6.2-36.9-22.1c-6-1.6-14.1-5.8-23.1-10.6
													C235.6,738.8,222.7,731.7,226.3,724.9z"/>
											</g>
										</g>
									</g>
								</g>
							</g>
						</g>
					</g>
				</g>
			</g>
		</g>
	</g>
</g>
</svg>
