<?xml version="1.0" encoding="utf-8"?>
<!-- Generator: Adobe Illustrator 26.0.1, SVG Export Plug-In . SVG Version: 6.00 Build 0)  -->
<svg version="1.1" id="feet" xmlns="http://www.w3.org/2000/svg" xmlns:xlink="http://www.w3.org/1999/xlink" x="0px" y="0px"
	 viewBox="0 0 1000 1000" style="enable-background:new 0 0 1000 1000;" xml:space="preserve">
<g>
    <g id="bone">
	<path d="M725.2,701.5c-25.5-0.3-54,20.2-56.7,45.8s21.5,46.5,47,46.8s40.3-20.3,43-45.9C761.1,722.6,750.6,701.8,725.2,701.5z"/>
	<path d="M274.8,701.5c-25.5,0.3-35.9,21.1-33.2,46.7c2.7,25.6,17.5,46.1,43,45.9c25.5-0.3,49.6-21.2,47-46.8
		C328.8,721.7,300.3,701.2,274.8,701.5z"/>
        </g>
</g>
<g>
    <g id="bone-L">
	<path d="M690.3,731.5c-2.4,1.2-2.2,4.7,0.3,5.6c7.9,3.1,21.7,6.2,26.7-6.3C717.3,730.8,716.9,718,690.3,731.5z"/>
	<path d="M309.7,731.5c-26.6-13.5-27-0.7-27-0.7c5,12.5,18.8,9.4,26.7,6.3C311.9,736.2,312.1,732.7,309.7,731.5z"/>
        </g>
</g>
<g>
    <g id="bone-D">
	<ellipse transform="matrix(0.2529 -0.9675 0.9675 0.2529 -180.0773 1265.5598)" cx="729.4" cy="749.4" rx="41.8" ry="24.2"/>
	<ellipse transform="matrix(0.9675 -0.2529 0.2529 0.9675 -180.7272 92.7967)" cx="270.6" cy="749.4" rx="24.2" ry="41.8"/>
        </g>
</g>
</svg>
