<?xml version="1.0" encoding="utf-8"?>
<!-- Generator: Adobe Illustrator 26.0.1, SVG Export Plug-In . SVG Version: 6.00 Build 0)  -->
<svg version="1.1" id="feet" xmlns="http://www.w3.org/2000/svg" xmlns:xlink="http://www.w3.org/1999/xlink" x="0px" y="0px"
	 viewBox="0 0 1000 1000" style="enable-background:new 0 0 1000 1000;" xml:space="preserve">
<g id="skin-D">
	<path d="M754.9,687.9c-7.5,2.2-13.8,6.3-18.6,11.7c0.7-7.9-1.7-16.3,0.5-24c0.2-0.8-0.7-1.3-1.4-1.1c-7.9,3.2-14.2,8.7-18.4,15.3
		c-1.7-5.4-3.7-10.9-3.5-16.5c0-0.8-1-1.1-1.6-0.7c-21.8,15.8-34,57.1-25.8,89.6c1.7,11.1,6.8,19.3,14.5,21.3
		c12.9,3.4,28.1-12,34-34.3c1.4-5.5,2.2-10.9,2.3-16c4.4-3.6,9-7.3,12.4-11.7c7.1-9.4,2.6-22.1,6.8-32.5
		C756.4,688.4,755.5,687.8,754.9,687.9z"/>
	<path d="M288.1,672.7c-0.6-0.4-1.6-0.1-1.6,0.7c0.2,5.6-1.9,11-3.5,16.5c-4.2-6.6-10.5-12.1-18.4-15.3c-0.6-0.3-1.6,0.3-1.4,1.1
		c2.2,7.7-0.2,16.1,0.5,24c-4.8-5.4-11.1-9.5-18.6-11.7c-0.7-0.2-1.5,0.5-1.2,1.2c4.2,10.4-0.3,23.1,6.8,32.5
		c3.3,4.4,8,8.1,12.4,11.7c0.1,5.1,0.8,10.5,2.3,16c5.8,22.3,21,37.7,34,34.3c7.7-2,12.9-10.3,14.5-21.3
		C322.1,729.8,309.9,688.5,288.1,672.7z"/>
</g>
<g id="earskin">
	<ellipse transform="matrix(0.2529 -0.9675 0.9675 0.2529 -188.0819 1248.6871)" cx="714.5" cy="746.1" rx="27.1" ry="14.4"/>
	<path d="M728.6,696c-2.6-0.7-5.9,2.8-7.2,7.8s-0.2,9.6,2.4,10.3c2.6,0.7,5.9-2.8,7.2-7.8S731.2,696.7,728.6,696z"/>
	<ellipse transform="matrix(0.9952 -9.759682e-02 9.759682e-02 0.9952 -65.6516 72.4147)" cx="707.4" cy="707.3" rx="6" ry="9.3"/>
	<path d="M747.5,708.5c-1.8-1.2-5.6,1.3-8.4,5.6c-2.8,4.3-3.7,8.8-1.9,9.9s5.6-1.3,8.4-5.6S749.3,709.7,747.5,708.5z"/>
	<ellipse transform="matrix(0.9675 -0.2529 0.2529 0.9675 -179.4063 96.4576)" cx="285.5" cy="746.1" rx="14.4" ry="27.1"/>
	<path d="M276.2,714.1c2.6-0.7,3.7-5.3,2.4-10.3c-1.3-5-4.5-8.5-7.2-7.8c-2.6,0.7-3.7,5.3-2.4,10.3
		C270.3,711.3,273.5,714.8,276.2,714.1z"/>
	
		<ellipse transform="matrix(9.759682e-02 -0.9952 0.9952 9.759682e-02 -439.9019 929.4333)" cx="292.6" cy="707.3" rx="9.3" ry="6"/>
	<path d="M252.5,708.5c-1.8,1.2-1,5.6,1.9,9.9s6.6,6.8,8.4,5.6s1-5.6-1.9-9.9C258.1,709.9,254.3,707.4,252.5,708.5z"/>
</g>
</svg>
