<?xml version="1.0" encoding="utf-8"?>
<!-- Generator: Adobe Illustrator 26.0.1, SVG Export Plug-In . SVG Version: 6.00 Build 0)  -->
<svg version="1.1" id="feet" xmlns="http://www.w3.org/2000/svg" xmlns:xlink="http://www.w3.org/1999/xlink" x="0px" y="0px"
	 viewBox="0 0 1000 1000" style="enable-background:new 0 0 1000 1000;" xml:space="preserve">
<g id="nails">
	<path d="M284.1,681.8c-1.9,0-0.7,5.1-0.7,11.4c0,6.3-1.2,11.4,0.7,11.4c1.9,0,6.1-5.1,6.1-11.4C290.2,686.9,286,681.8,284.1,681.8z
		"/>
	<path d="M247.7,703c-4.8-4-11.5-4-12.7-2.5s3.5,3.8,8.3,7.8s8,8.1,9.2,6.7C253.7,713.5,252.5,707,247.7,703z"/>
	<path d="M715.9,681.8c-1.9,0-6.1,5.1-6.1,11.4c0,6.3,4.2,11.4,6.1,11.4c1.9,0,0.7-5.1,0.7-11.4
		C716.7,686.9,717.8,681.8,715.9,681.8z"/>
	<path d="M740.2,682.8c-1.8-0.5-7.4,3.1-9.2,9.1s0.8,12.1,2.6,12.6s2.2-4.7,4-10.7S742.1,683.4,740.2,682.8z"/>
	<path d="M765,700.5c-1.2-1.5-7.8-1.5-12.7,2.5s-6,10.5-4.8,12s4.4-2.7,9.2-6.7S766.2,702,765,700.5z"/>
	<path d="M259.8,682.8c-1.8,0.5,0.8,5.1,2.6,11.1s2.1,11.2,4,10.7s4.4-6.6,2.6-12.6S261.6,682.3,259.8,682.8z"/>
</g>
<g id="skin-D">
	<path d="M757.9,702.2c-3.6-2.2-7.7-2.6-11.4-1.7c-0.6-6-4.2-10.1-10.9-10.7c-4.6-0.4-8.9,1.3-11.9,4.3c-1.1-1-2.6-1.9-4.3-2.6
		c-7.4-2.9-15.6,1.1-18.8,8.2c0-0.1,0-0.2,0,0c-6.9,7.8-14.4,30.8-16.7,42.4c-4.9,23.9,5.2,43.3,22.4,43.3c17.3,0,35.2-19.4,40-43.3
		c0.5-2.4,0.8-4.8,1-7.1c5.6-3.6,11.3-10.5,13.9-14.8C765.5,713.3,764.9,706.4,757.9,702.2z"/>
	<path d="M299.5,699.8C299.5,699.6,299.5,699.7,299.5,699.8c-3.2-7.2-11.4-11.1-18.8-8.3c-1.8,0.7-3.2,1.6-4.3,2.6
		c-3-3-7.3-4.8-11.9-4.3c-6.7,0.6-10.3,4.7-10.9,10.7c-3.7-1-7.8-0.5-11.4,1.7c-7,4.2-7.6,11.1-3.4,18.1c2.6,4.3,8.3,11.2,13.9,14.8
		c0.2,2.3,0.5,4.7,1,7.1c4.9,23.9,22.8,43.3,40,43.3c17.3,0,27.3-19.4,22.4-43.3C313.9,730.6,306.4,707.6,299.5,699.8z"/>
</g>
<g id="earskin">
	<ellipse transform="matrix(0.2529 -0.9675 0.9675 0.2529 -183.3226 1260.5535)" cx="724.5" cy="749" rx="27.1" ry="14.4"/>
	<path d="M738.6,698.9c-2.6-0.7-5.9,2.8-7.2,7.8s-0.2,9.6,2.4,10.3c2.6,0.7,5.9-2.8,7.2-7.8S741.2,699.6,738.6,698.9z"/>
	<ellipse transform="matrix(0.9952 -9.759682e-02 9.759682e-02 0.9952 -65.8771 73.4037)" cx="717.4" cy="710.1" rx="6" ry="9.3"/>
	<ellipse transform="matrix(0.5501 -0.8351 0.8351 0.5501 -262.1168 951.8402)" cx="752.3" cy="719.2" rx="9.3" ry="3.9"/>
	<ellipse transform="matrix(0.9675 -0.2529 0.2529 0.9675 -180.4638 94.0269)" cx="275.5" cy="749" rx="14.4" ry="27.1"/>
	<ellipse transform="matrix(0.9675 -0.2529 0.2529 0.9675 -170.4504 89.73)" cx="263.8" cy="707.9" rx="5" ry="9.3"/>
	
		<ellipse transform="matrix(9.759542e-02 -0.9952 0.9952 9.759542e-02 -451.7751 922.0025)" cx="282.5" cy="710.1" rx="9.3" ry="6"/>
	<ellipse transform="matrix(0.8351 -0.5501 0.5501 0.8351 -354.7826 254.8521)" cx="247.7" cy="719.2" rx="3.9" ry="9.3"/>
</g>
</svg>
