<?xml version="1.0" encoding="utf-8"?>
<!-- Generator: Adobe Illustrator 26.0.1, SVG Export Plug-In . SVG Version: 6.00 Build 0)  -->
<svg version="1.1" id="feet" xmlns="http://www.w3.org/2000/svg" xmlns:xlink="http://www.w3.org/1999/xlink" x="0px" y="0px"
	 viewBox="0 0 1000 1000" style="enable-background:new 0 0 1000 1000;" xml:space="preserve">
<g id="bone">
	<path d="M741.2,714c-44.4-9.6-64,42.3-60,59.4c4.1,17,40.3,24.4,57.7,22.4C773.2,792.1,773.2,721,741.2,714z"/>
	<path d="M258.8,714c-32,6.9-32,78.1,2.3,81.8c17.3,1.9,53.6-5.4,57.7-22.4C322.9,756.3,303.2,704.4,258.8,714z"/>
</g>
<g id="bone-D">
	<path d="M751.3,719.1c-26.7-13.3-48.5,37.3-44.4,55.7c2.3,10.6,15.4,17.6,29.4,21.3c0.9,0,1.8-0.1,2.7-0.2
		C769.1,792.5,772.7,737.1,751.3,719.1z"/>
	<path d="M248.7,719.1c-21.4,18-17.8,73.4,12.4,76.8c0.8,0.1,1.7,0.2,2.7,0.2c14-3.6,27-10.6,29.4-21.3
		C297.2,756.4,275.4,705.7,248.7,719.1z"/>
</g>
</svg>
