<?xml version="1.0" encoding="utf-8"?>
<!-- Generator: Adobe Illustrator 26.0.1, SVG Export Plug-In . SVG Version: 6.00 Build 0)  -->
<svg version="1.1" id="feet" xmlns="http://www.w3.org/2000/svg" xmlns:xlink="http://www.w3.org/1999/xlink" x="0px" y="0px"
	 viewBox="0 0 1000 1000" style="enable-background:new 0 0 1000 1000;" xml:space="preserve">
<g id="skin-D">
	<path d="M748.6,697c-0.3-0.2-0.7-0.5-1-0.7c-1.7-0.5-3.5-0.9-5.2-1.1c0.9-5.3-0.2-10.3-4.3-13.5c-0.3-0.2-0.7-0.5-1-0.7
		c-6.6-1.9-13.7-2.3-17.2,1.5c-1,1.1-2,2.8-2.8,4.8c-1.9-2.5-4.5-4.3-7.8-4.7c-0.4-0.1-0.8-0.1-1.3-0.1c-6.7,1.5-13,4.7-14.3,9.7
		c-1.2,4.7-3.3,28-1.5,43c-4.6,10.9-6.8,22.3-5.2,29.2c2.3,10.6,15.4,17.6,29.4,21.3c0.9,0,1.8-0.1,2.7-0.2
		c22.5-2.5,30.3-34,23.8-57.3C752.2,720.6,758,703.9,748.6,697z"/>
	<path d="M306.4,692.2c-1.3-5-7.6-8.2-14.3-9.7c-0.4,0-0.9,0.1-1.3,0.1c-3.3,0.5-5.9,2.2-7.8,4.7c-0.8-2-1.8-3.7-2.8-4.8
		c-3.6-3.8-10.6-3.5-17.2-1.5c-0.4,0.2-0.7,0.5-1,0.7c-4.1,3.1-5.2,8.2-4.3,13.5c-1.7,0.2-3.5,0.6-5.2,1.1c-0.4,0.2-0.7,0.5-1,0.7
		c-9.4,6.9-3.6,23.7,5.9,31.1c-6.4,23.3,1.3,54.9,23.8,57.3c0.8,0.1,1.7,0.2,2.7,0.2c14-3.6,27-10.6,29.4-21.3
		c1.5-6.9-0.6-18.3-5.2-29.2C309.7,720.2,307.6,696.9,306.4,692.2z"/>
</g>
<g id="earskin">
	<ellipse transform="matrix(0.9658 -0.2594 0.2594 0.9658 -185.5749 97.2292)" cx="275.6" cy="751.8" rx="11.9" ry="24.6"/>
	<ellipse transform="matrix(0.128 -0.9918 0.9918 0.128 -452.8638 902.7567)" cx="286.9" cy="708.9" rx="15.4" ry="7.7"/>
	<path d="M267.1,716.7c2.8-0.3,4.5-6.5,3.7-13.8c-0.8-7.3-3.7-13-6.5-12.7c-2.8,0.3-4.5,6.5-3.7,13.8
		C261.3,711.3,264.2,717,267.1,716.7z"/>
	<path d="M249.9,703.9c-1.4,0.7-0.4,6.3,2.1,12.4c2.6,6.1,5.8,10.4,7.2,9.7c1.4-0.7,0.4-6.3-2.1-12.4
		C254.6,707.5,251.3,703.1,249.9,703.9z"/>
	<ellipse transform="matrix(0.2594 -0.9658 0.9658 0.2594 -189.6074 1256.4995)" cx="724.5" cy="751.9" rx="24.6" ry="11.9"/>
	<ellipse transform="matrix(0.9918 -0.128 0.128 0.9918 -84.8721 97.0965)" cx="713" cy="708.9" rx="7.7" ry="15.4"/>
	<path d="M735.7,690.1c-2.8-0.3-5.7,5.4-6.5,12.7s0.9,13.5,3.7,13.8s5.7-5.4,6.5-12.7S738.5,690.4,735.7,690.1z"/>
	<path d="M750.1,703.9c-1.4-0.7-4.6,3.6-7.2,9.7c-2.6,6.1-3.5,11.6-2.1,12.4c1.4,0.7,4.6-3.6,7.2-9.7
		C750.5,710.2,751.5,704.6,750.1,703.9z"/>
</g>
</svg>
