<?xml version="1.0" encoding="utf-8"?>
<!-- Generator: Adobe Illustrator 24.0.1, SVG Export Plug-In . SVG Version: 6.00 Build 0)  -->
<svg version="1.1" id="legs" xmlns="http://www.w3.org/2000/svg" xmlns:xlink="http://www.w3.org/1999/xlink" x="0px" y="0px"
	 viewBox="0 0 1000 1000" style="enable-background:new 0 0 1000 1000;" xml:space="preserve">

<g id="skin">
	<path d="M731.9,742.7c0.8-2.5,1.6-5,2.5-7.3s1.9-4.6,3-6.7c2.2-4.2,4.7-8.1,7.5-11.6c2.7-3.5,5.9-6.6,8.9-9.8
		c3-3.1,5.9-6.2,8.2-9.7c1.2-1.7,2.2-3.5,3.2-5.3c0.2-0.5,0.5-0.9,0.7-1.4c0.1-0.2,0.2-0.5,0.3-0.7c0.1-0.3,0.1-0.6,0-0.9
		c-0.1-0.7-0.5-1.6-1.2-2.8l-0.6-0.9l-0.2-0.2l-0.2-0.3l-0.4-0.5l-0.4-0.5l-0.5-0.6c-0.3-0.4-0.8-0.9-1.2-1.3
		c-0.2-0.2-0.5-0.4-0.7-0.5c-0.5-0.2-1.2-0.5-1.6-0.7l-0.7-0.3l-0.6-0.2l-0.6-0.2l-0.3-0.1l-0.3-0.1l-1-0.3
		c-1.3-0.3-2.2-0.4-2.8-0.2c-0.3,0.1-0.6,0.2-0.8,0.3c-0.2,0.2-0.3,0.4-0.5,0.6c-0.3,0.4-0.6,0.8-0.9,1.2c-1.2,1.6-2.4,3.3-3.4,5.1
		c-2.1,3.6-3.9,7.5-5.6,11.6c-1.7,4.1-3.5,8.2-5.8,12.1c-2.3,3.9-5,7.5-8.2,10.8c-0.9,0.9-1.8,1.8-2.8,2.6c0.1-1.5,0.3-3,0.5-4.4
		c0.8-4.8,1.9-9.4,3.5-13.8c1.5-4.3,3.5-8.4,5.4-12.5c1.9-4,3.6-8.1,4.8-12.3c0.6-2.1,1-4.2,1.4-6.3c0.1-0.5,0.2-1.1,0.2-1.6
		c0-0.3,0.1-0.5,0.1-0.8s-0.1-0.6-0.3-0.9c-0.3-0.7-0.9-1.5-2-2.4l-0.9-0.7l-0.2-0.2l-0.3-0.2l-0.6-0.4l-0.6-0.4l-0.7-0.5
		c-0.4-0.3-1-0.7-1.6-1c-0.3-0.2-0.6-0.3-0.9-0.3c-0.6-0.1-1.3-0.2-1.7-0.2l-0.8-0.1h-0.7h-0.6h-0.3h-0.3h-1
		c-1.3,0.1-2.2,0.3-2.8,0.6c-0.3,0.2-0.5,0.4-0.6,0.6c-0.1,0.2-0.2,0.5-0.3,0.7c-0.2,0.5-0.4,1-0.5,1.5c-0.7,2-1.2,4.1-1.7,6.2
		c-0.9,4.3-1.3,8.8-1.7,13.4c-0.4,4.6-0.8,9.3-1.7,13.9c-1,4.6-2.4,9.1-4.4,13.3c-0.5,1.2-1.1,2.3-1.8,3.5c-0.3-1.5-0.6-3-0.9-4.5
		c-0.8-5-1.1-9.9-1-14.8c0.1-4.8,0.7-9.5,1.2-14.2s0.9-9.3,0.7-13.9c-0.1-2.3-0.3-4.6-0.7-6.9c-0.1-0.6-0.2-1.1-0.3-1.7
		c-0.1-0.3-0.1-0.6-0.2-0.9c-0.1-0.3-0.3-0.6-0.6-0.9c-0.5-0.6-1.4-1.2-2.7-1.9l-1.1-0.5l-0.3-0.1l-0.3-0.1l-0.7-0.3l-0.7-0.3
		l-0.8-0.3c-0.5-0.2-1.2-0.4-1.8-0.5c-0.3-0.1-0.6-0.1-0.9-0.1c-0.6,0.1-1.3,0.2-1.7,0.3l-0.8,0.2l-0.6,0.2l-0.6,0.2l-0.3,0.1
		l-0.3,0.1l-1,0.4c-1.3,0.5-2,1-2.5,1.5c-0.2,0.3-0.4,0.5-0.4,0.8c-0.1,0.3,0,0.6,0,0.8c0,0.6,0,1.1,0,1.7c0,2.3,0.2,4.6,0.4,6.9
		c0.5,4.7,1.6,9.4,2.7,14.1c1.1,4.8,2.2,9.6,2.8,14.5c0.5,4.9,0.6,9.8,0,14.7c-0.5,5-1.9,9.9-3.5,14.8c-1.8,5-35.1,55.9,0.9,51.6
		C724.1,775.9,731.9,742.7,731.9,742.7z"/>
	<path d="M268.1,742.7c-0.8-2.5-1.6-5-2.5-7.3s-1.9-4.6-3-6.7c-2.2-4.2-4.7-8.1-7.5-11.6c-2.7-3.5-5.9-6.6-8.9-9.8
		c-3-3.1-5.9-6.2-8.2-9.7c-1.2-1.7-2.2-3.5-3.2-5.3c-0.2-0.5-0.5-0.9-0.7-1.4c-0.1-0.2-0.2-0.5-0.3-0.7c-0.1-0.3-0.1-0.6,0-0.9
		c0.1-0.7,0.5-1.6,1.2-2.8l0.6-0.9l0.2-0.2l0.2-0.3l0.4-0.5l0.4-0.5l0.5-0.6c0.3-0.4,0.8-0.9,1.2-1.3c0.2-0.2,0.5-0.4,0.7-0.5
		c0.5-0.2,1.2-0.5,1.6-0.7l0.7-0.3l0.6-0.2l0.6-0.2l0.3-0.1l0.3-0.1l1-0.3c1.3-0.3,2.2-0.4,2.8-0.2c0.3,0.1,0.6,0.2,0.8,0.3
		c0.2,0.2,0.3,0.4,0.5,0.6c0.3,0.4,0.6,0.8,0.9,1.2c1.2,1.6,2.4,3.3,3.4,5.1c2.1,3.6,3.9,7.5,5.6,11.6s3.5,8.2,5.8,12.1
		c2.3,3.9,5,7.5,8.2,10.8c0.9,0.9,1.8,1.8,2.8,2.6c-0.1-1.5-0.3-3-0.5-4.4c-0.8-4.8-1.9-9.4-3.5-13.8c-1.5-4.3-3.5-8.4-5.4-12.5
		c-1.9-4-3.6-8.1-4.8-12.3c-0.6-2.1-1-4.2-1.4-6.3c-0.1-0.5-0.2-1.1-0.2-1.6c0-0.3-0.1-0.5-0.1-0.8s0.1-0.6,0.3-0.9
		c0.3-0.7,0.9-1.5,2-2.4l0.9-0.7l0.2-0.2l0.3-0.2l0.6-0.4l0.6-0.4l0.7-0.5c0.4-0.3,1-0.7,1.6-1c0.3-0.2,0.6-0.3,0.9-0.3
		c0.6-0.1,1.3-0.2,1.7-0.2l0.8-0.1h0.7h0.6h0.3h0.3h1c1.3,0.1,2.2,0.3,2.8,0.6c0.3,0.2,0.5,0.4,0.6,0.6c0.1,0.2,0.2,0.5,0.3,0.7
		c0.2,0.5,0.4,1,0.5,1.5c0.7,2,1.2,4.1,1.7,6.2c0.9,4.3,1.3,8.8,1.7,13.4c0.4,4.6,0.8,9.3,1.7,13.9c1,4.6,2.4,9.1,4.4,13.3
		c0.5,1.2,1.1,2.3,1.8,3.5c0.3-1.5,0.6-3,0.9-4.5c0.8-5,1.1-9.9,1-14.8c-0.1-4.8-0.7-9.5-1.2-14.2s-0.9-9.3-0.7-13.9
		c0.1-2.3,0.3-4.6,0.7-6.9c0.1-0.6,0.2-1.1,0.3-1.7c0.1-0.3,0.1-0.6,0.2-0.9c0.1-0.3,0.3-0.6,0.6-0.9c0.5-0.6,1.4-1.2,2.7-1.9
		l1.1-0.5l0.3-0.1l0.3-0.1l0.7-0.3l0.7-0.3l0.8-0.3c0.5-0.2,1.2-0.4,1.8-0.5c0.3-0.1,0.6-0.1,0.9-0.1c0.6,0.1,1.3,0.2,1.7,0.3
		l0.8,0.2l0.6,0.2l0.6,0.2l0.3,0.1l0.3,0.1l1,0.4c1.3,0.5,2,1,2.5,1.5c0.2,0.3,0.4,0.5,0.4,0.8c0.1,0.3,0,0.6,0,0.8
		c0,0.6,0,1.1,0,1.7c0,2.3-0.2,4.6-0.4,6.9c-0.5,4.7-1.6,9.4-2.7,14.1c-1.1,4.8-2.2,9.6-2.8,14.5c-0.5,4.9-0.6,9.8,0,14.7
		c0.5,5,1.9,9.9,3.5,14.8c1.8,5,35.1,55.9-0.9,51.6C275.9,775.9,268.1,742.7,268.1,742.7z"/>
</g>
<g id="skin-L">
	<ellipse cx="701.2" cy="661.4" rx="5.2" ry="2.1"/>
		<ellipse transform="matrix(0.3499 -0.9368 0.9368 0.3499 -150.7155 1121.0953)" cx="732.4" cy="669.1" rx="2.1" ry="5.2"/>
	<path d="M684.7,768.3c-1.5-4.3,0.9-11,13.8-11.5c14.3-0.5,19.5-8,21.8-5.9c3.3,3.1-4.7,17.3-18,21.3
		C695,774.5,686.9,774.7,684.7,768.3z"/>
	
		<ellipse transform="matrix(0.6572 -0.7537 0.7537 0.6572 -256.7665 806.8832)" cx="758.7" cy="685.7" rx="2.1" ry="5.2"/>
	<ellipse cx="298.8" cy="661.4" rx="5.2" ry="2.1"/>
	
		<ellipse transform="matrix(0.9368 -0.3499 0.3499 0.9368 -217.2025 135.9307)" cx="267.6" cy="669.1" rx="5.2" ry="2.1"/>
	<path d="M315.3,768.3c1.5-4.3-0.9-11-13.8-11.5c-14.3-0.5-19.5-8-21.8-5.9c-3.3,3.1,4.7,17.3,18,21.3
		C305,774.5,313.1,774.7,315.3,768.3z"/>
	
		<ellipse transform="matrix(0.7537 -0.6572 0.6572 0.7537 -391.2072 327.4728)" cx="241.3" cy="685.7" rx="5.2" ry="2.1"/>
</g>
</svg>
