<?xml version="1.0" encoding="utf-8"?>
<!-- Generator: Adobe Illustrator 24.0.1, SVG Export Plug-In . SVG Version: 6.00 Build 0)  -->
<svg version="1.1" id="Layer_1" xmlns="http://www.w3.org/2000/svg" xmlns:xlink="http://www.w3.org/1999/xlink" x="0px" y="0px"
	 viewBox="0 0 1000 1000" style="enable-background:new 0 0 1000 1000;" xml:space="preserve">
<g id="skin-D">
	<path d="M702.8,662.6c4-0.3,7.7,1.5,10.6,4.7c3.9-11.9,12.7-19.3,22-17.7c9.4,1.6,15.2,11.5,14.9,24
		c3.8-2.1,7.9-2.6,11.5-0.9c7.6,3.4,9.7,14,4.9,24.6l-22.8,47.2c-1.5,3.2-2.6,6.6-3.2,10.1c0,0,0,0,0,0.1c-4,23.1-16.3,38.2-29.4,36
		c-13.1-2.2-19.7-20.6-15.8-43.7c0-0.3,0.1-0.6,0.1-0.8c0.6-3.4,0.8-6.9,0.4-10.4l-4.8-45.1c-0.6-2-1-4.1-1.2-6.4
		C689,672.5,694.5,663.3,702.8,662.6z"/>
	<path d="M297.2,662.6c-4-0.3-7.7,1.5-10.6,4.7c-3.9-11.9-12.7-19.3-22-17.7c-9.4,1.6-15.2,11.5-14.9,24
		c-3.8-2.1-7.9-2.6-11.5-0.9c-7.6,3.4-9.7,14-4.9,24.6l22.8,47.2c1.5,3.2,2.6,6.6,3.2,10.1c0,0,0,0,0,0.1c4,23.1,16.3,38.2,29.4,36
		c13.1-2.2,19.7-20.6,15.8-43.7c0-0.3-0.1-0.6-0.1-0.8c-0.6-3.4-0.8-6.9-0.4-10.4l4.8-45.1c0.6-2,1-4.1,1.2-6.4
		C311,672.5,305.5,663.3,297.2,662.6z"/>
</g>
<g id="skin2-L">
	<path d="M266.2,659.4c-5,0.9-7.5,10.8-5.5,22.2c1.9,11.4,7.6,19.9,12.6,19s7.5-10.8,5.5-22.2
		C276.9,667.1,271.3,658.5,266.2,659.4z"/>
	
		<ellipse transform="matrix(8.231527e-02 -0.9966 0.9966 8.231527e-02 -409.575 921.3502)" class="st1" cx="295.5" cy="683.1" rx="13" ry="7"/>
	<ellipse transform="matrix(0.9124 -0.4093 0.4093 0.9124 -261.3872 161.4999)" class="st1" cx="246.6" cy="691.4" rx="7" ry="13"/>
	
		<ellipse transform="matrix(0.1688 -0.9856 0.9856 0.1688 -63.3238 1284.7821)" class="st1" cx="730.1" cy="679.9" rx="20.9" ry="9.2"/>
	
		<ellipse transform="matrix(0.9966 -8.231567e-02 8.231567e-02 0.9966 -53.8304 60.309)" class="st1" cx="704.5" cy="683" rx="7" ry="13"/>
	<path d="M758.7,679.5c-3.5-1.6-8.8,2.4-11.7,9s-2.5,13.1,1.1,14.7c3.5,1.6,8.8-2.4,11.7-9
		C762.7,687.7,762.3,681.1,758.7,679.5z"/>
	
		<ellipse transform="matrix(0.9856 -0.1688 0.1688 0.9856 -122.6884 58.3766)" class="st1" cx="282" cy="750.8" rx="14.4" ry="31.9"/>
	
		<ellipse transform="matrix(0.1688 -0.9856 0.9856 0.1688 -143.3212 1331.7616)" class="st1" cx="718" cy="750.9" rx="31.9" ry="14.4"/>
</g>
</svg>
