<?xml version="1.0" encoding="utf-8"?>
<!-- Generator: Adobe Illustrator 24.0.1, SVG Export Plug-In . SVG Version: 6.00 Build 0)  -->
<svg version="1.1" id="Layer_1" xmlns="http://www.w3.org/2000/svg" xmlns:xlink="http://www.w3.org/1999/xlink" x="0px" y="0px"
	 viewBox="0 0 1000 1000" style="enable-background:new 0 0 1000 1000;" xml:space="preserve">
<style type="text/css">
	.st0{fill:#201A33;}
</style>
<g id="blacks">
	<path class="st0" d="M418.2,358.9c-38.1,0.3-77.4,3.2-118-10.9c-56.2-19.5-45.6-47.5-53.6-48.5s-38,72.9,73.7,111.3
		c95.3,32.7,158.7-10.9,157.6-26.3C476.9,369.1,456.4,358.6,418.2,358.9z"/>
	<path class="st0" d="M581.8,358.9c38.1,0.3,77.4,3.2,118-10.9c56.2-19.5,45.6-47.5,53.6-48.5s38,72.9-73.7,111.3
		c-95.4,32.8-158.8-10.9-157.7-26.3C523.1,369.1,543.6,358.6,581.8,358.9z"/>
</g>
</svg>
