<?xml version="1.0" encoding="utf-8"?>
<!-- Generator: Adobe Illustrator 24.0.1, SVG Export Plug-In . SVG Version: 6.00 Build 0)  -->
<svg version="1.1" id="Layer_1" xmlns="http://www.w3.org/2000/svg" xmlns:xlink="http://www.w3.org/1999/xlink" x="0px" y="0px"
	 viewBox="0 0 1000 1000" style="enable-background:new 0 0 1000 1000;" xml:space="preserve">
<g id="blacks">
	<path d="M632.5,312.4c-0.1-4.5-0.3-8.9-0.7-13.4l-0.2-1.7l-0.1-0.8v-0.4c0-0.3,0,0.3,0,0.2v-0.1V296l-0.4-2.9
		c-0.3-1.9-0.6-3.8-0.9-5.7c-0.1-0.9-0.3-1.9-0.4-2.8c-0.2-1-0.2-1.8-0.4-2.6c-0.2-1.7-0.5-3.5-0.7-5.2c-0.5-3.4-0.8-6.9-1.2-10.4
		s-0.6-6.9-0.9-10.2c-0.3-3.4-0.4-6.6-0.6-9.8c-0.3-6.4-0.4-12.5-0.4-18.1c0-2.8,0.1-5.5,0.1-8.1c0.1-2.6,0.2-5,0.3-7.3
		c0.2-4.6,0.5-8.6,0.9-11.9c0.3-3.3,0.6-5.9,0.9-7.6c0.2-1.7,0.4-2.6,0.4-2.6l0.1-0.5c0.3-1.9-0.6-3.8-2.4-4.8
		c-2.3-1.3-5.2-0.5-6.5,1.8c0,0-0.5,0.9-1.5,2.6c-0.9,1.7-2.2,4.1-3.7,7.3s-3.3,7.1-5.2,11.6c-0.9,2.3-1.9,4.7-2.9,7.3
		c-0.9,2.6-2,5.3-2.9,8.1c-2,5.7-3.9,12-5.7,18.7c-0.9,3.3-1.9,6.8-2.6,10.4c-0.8,3.6-1.7,7.2-2.4,10.9c-0.8,3.7-1.6,7.5-2.2,11.5
		c-0.3,2-0.6,4-1,6c-0.2,1-0.3,2.1-0.5,3c-0.1,0.9-0.3,1.9-0.4,2.8c-0.3,1.9-0.5,3.8-0.8,5.7l-0.4,2.9v0.2v0.1c0,0,0,0.7,0,0.4v0.3
		l-0.1,0.6l-0.1,1.2c-0.4,3.2-1,6.4-1.7,9.6c-1.3,6.4-3.2,12.6-5.4,18.7s-4.8,12-7.5,17.5c-5.5,11.2-11.8,21.2-17.7,29.4
		c-2.9,4.1-5.7,7.8-8.2,11s-4.8,5.8-6.7,8c-1.9,2.1-3.3,3.7-4.3,4.7c-0.5,0.5-0.8,0.8-1,1c-0.1,0.1-0.2,0.1-0.2,0.1s0-0.1,0,0l0,0
		c-1.1,1.1-2.2,2.4-3.2,3.7c-11.9,15.9-8.7,38.4,7.2,50.3s38.4,8.7,50.3-7.2l0.5-0.7c0,0,0.3-0.3,0.7-1c0.4-0.5,0.9-1.3,1.6-2.2
		c1.3-1.9,3-4.5,5-7.8s4.4-7.4,6.9-12.1s5.2-10,7.9-15.9s5.4-12.4,8-19.5c2.5-7,4.9-14.6,7-22.5c2-8,3.7-16.4,4.9-25
		C632.1,330.3,632.7,321.3,632.5,312.4z"/>
	<path d="M465.8,398.9L465.8,398.9L465.8,398.9c0,0-0.1,0-0.2-0.1c-0.2-0.2-0.5-0.5-1-1c-0.9-1-2.4-2.5-4.3-4.7
		c-1.9-2.1-4.2-4.8-6.7-8s-5.3-6.9-8.2-11c-5.8-8.2-12.2-18.2-17.7-29.4c-2.8-5.6-5.3-11.5-7.5-17.5c-2.2-6.1-4.1-12.3-5.4-18.7
		c-0.7-3.2-1.2-6.4-1.7-9.6l-0.1-1.2l-0.1-0.6v-0.3c0,0.3,0-0.5,0-0.4v-0.1v-0.2l-0.4-2.9c-0.3-1.9-0.5-3.8-0.8-5.7
		c-0.1-0.9-0.3-1.9-0.4-2.8s-0.3-2-0.5-3c-0.3-2-0.6-4-1-6c-0.6-4-1.4-7.8-2.2-11.5c-0.7-3.7-1.6-7.4-2.4-10.9
		c-0.8-3.6-1.7-7-2.6-10.4c-1.8-6.7-3.7-13-5.7-18.7c-1-2.9-2-5.6-2.9-8.1c-1-2.6-2-5-2.9-7.3c-1.9-4.5-3.6-8.4-5.2-11.6
		c-1.5-3.2-2.8-5.6-3.7-7.3c-1-1.7-1.5-2.6-1.5-2.6c-1.3-2.3-4.2-3.1-6.5-1.8c-1.8,1-2.7,2.9-2.4,4.8l0.1,0.5c0,0,0.1,0.9,0.4,2.6
		c0.2,1.7,0.5,4.3,0.9,7.6c0.3,3.3,0.6,7.3,0.9,11.9c0.1,2.3,0.2,4.7,0.3,7.3c0,2.6,0.1,5.3,0.1,8.1c0,5.6-0.1,11.7-0.4,18.1
		c-0.2,3.2-0.3,6.5-0.6,9.8c-0.3,3.3-0.5,6.7-0.9,10.2c-0.4,3.4-0.7,7-1.2,10.4c-0.2,1.7-0.5,3.4-0.7,5.2c-0.1,0.9-0.2,1.7-0.4,2.6
		c-0.1,0.9-0.3,1.9-0.4,2.8c-0.3,1.9-0.6,3.8-0.9,5.7l-0.4,2.9v0.2v0.1c0,0.1,0-0.6,0-0.2v0.4l-0.1,0.8l-0.2,1.7
		c-0.4,4.4-0.7,8.9-0.7,13.4c-0.1,8.9,0.4,17.9,1.6,26.5c1.1,8.6,2.8,17,4.9,25s4.4,15.5,7,22.5c2.5,7,5.3,13.5,8,19.5
		c2.7,5.9,5.4,11.2,7.9,15.9c2.5,4.7,4.9,8.7,6.9,12.1c2,3.3,3.8,5.9,5,7.8c0.6,0.9,1.2,1.7,1.6,2.2c0.5,0.6,0.7,1,0.7,1l0.5,0.7
		c11.9,15.9,34.4,19.1,50.3,7.2s19.1-34.4,7.2-50.3C468,401.3,466.9,400,465.8,398.9z"/>
</g>
<g id="texture">
	<path d="M602.1,285.2c-2.1-1.1-4.2-2.1-6.3-3c-0.6-0.3-1.4,0.1-1.4,0.8c-0.1,0.9-0.2,1.8-0.3,2.7c-0.1,0.5,0.2,0.9,0.6,1.1
		c2.1,0.9,4.3,1.9,6.5,3c0.7,0.3,1.4-0.1,1.5-0.9c0-0.9,0.1-1.8,0.1-2.6C602.7,285.8,602.5,285.4,602.1,285.2z"/>
	<path d="M601.9,296.8c-2.5-1.2-4.9-2.4-7.3-3.5c-0.6-0.3-1.4,0.2-1.4,0.9c-0.1,0.9-0.2,1.8-0.3,2.8c0,0.4,0.2,0.9,0.6,1
		c2.4,1,4.9,2.1,7.4,3.3c0.7,0.3,1.5-0.1,1.5-0.9c0-0.2,0-0.4,0-0.7c0-0.7,0-1.3,0-2C602.5,297.3,602.2,297,601.9,296.8z"/>
	<path d="M602.9,273.9c-1.8-0.9-3.6-1.8-5.4-2.7c-0.6-0.3-1.3,0.1-1.4,0.8c-0.2,0.9-0.3,1.7-0.4,2.6c-0.1,0.5,0.2,0.9,0.6,1.1
		c1.8,0.8,3.7,1.7,5.6,2.6c0.7,0.3,1.4-0.1,1.5-0.8c0.1-0.9,0.1-1.7,0.2-2.6C603.5,274.5,603.3,274.1,602.9,273.9z"/>
	<path d="M601.4,308.3c-2.7-1.4-5.4-2.6-8.1-3.8c-0.6-0.3-1.3,0.1-1.4,0.8c-0.1,0.9-0.3,1.8-0.4,2.7c-0.1,0.5,0.2,0.9,0.6,1.1
		c2.7,1.1,5.4,2.3,8.2,3.6c0.7,0.3,1.4-0.1,1.5-0.8c0.1-0.9,0.1-1.8,0.2-2.6C602,308.9,601.8,308.5,601.4,308.3z"/>
	<path d="M590.8,361.9c-4.3-1.8-8.3-3.3-12.1-4.6c-0.5-0.2-1,0.1-1.3,0.5c-0.5,1-0.9,1.9-1.3,2.7c-0.3,0.6,0,1.2,0.6,1.4
		c3.7,1.2,7.9,2.6,12.3,4.4c0.5,0.2,1.1,0,1.3-0.6c0.3-0.8,0.7-1.7,1-2.6C591.6,362.8,591.3,362.2,590.8,361.9z"/>
	<path d="M600.5,319.5c-3.4-1.7-6.1-2.9-9.3-4.2c-0.5-0.2-0.8,0.4-0.9,0.8c-0.2,1-0.4,2-0.5,2.9c-0.1,0.5,0.2,1,0.6,1.1
		c2.9,1.2,5.9,2.5,8.9,3.9c0.6,0.3,1.4-0.1,1.5-0.8c0.1-0.9,0.2-1.7,0.3-2.6C601.1,320.1,600.8,319.7,600.5,319.5z"/>
	<path d="M596.9,341.2c-3.5-1.6-7-3.1-10.4-4.4c-0.6-0.2-1.2,0.1-1.4,0.7c-0.3,0.9-0.5,1.8-0.8,2.7c-0.2,0.5,0.1,1.1,0.6,1.3
		c3.3,1.2,6.9,2.6,10.5,4.2c0.6,0.3,1.3-0.1,1.4-0.7c0.2-0.8,0.4-1.7,0.6-2.6C597.6,341.9,597.3,341.4,596.9,341.2z"/>
	<path d="M604.1,262.8c-1.5-0.8-3-1.6-4.5-2.3c-0.6-0.3-1.3,0.1-1.5,0.7c-0.2,0.8-0.4,1.7-0.5,2.5c-0.1,0.5,0.1,0.9,0.6,1.1
		c1.6,0.7,3.1,1.5,4.7,2.2c0.6,0.3,1.4-0.1,1.5-0.8c0.1-0.8,0.2-1.6,0.3-2.5C604.7,263.4,604.5,263,604.1,262.8z"/>
	<path d="M598.9,330.5c-3.3-1.6-6.5-3-9.6-4.3c-0.6-0.2-1.2,0.1-1.4,0.7c-0.2,0.9-0.4,1.8-0.7,2.7c-0.1,0.5,0.1,1,0.6,1.2
		c3.1,1.2,6.4,2.6,9.7,4.1c0.6,0.3,1.3-0.1,1.4-0.7c0.2-0.9,0.3-1.7,0.4-2.6C599.6,331.1,599.4,330.7,598.9,330.5z"/>
	<path d="M586.5,371.9c-4.8-1.9-9.3-3.4-13.3-4.7c-0.4-0.1-0.9,0-1.2,0.4c-1,1.5-1.5,2.2-1.4,2c-2.6,3.6-1.8,8.7,1.8,11.3
		s8.7,1.8,11.3-1.8c0.2-0.3,1.5-2.2,3.2-5.8C587.3,372.8,587.1,372.1,586.5,371.9z"/>
	<path d="M617.8,200.8L617.8,200.8c-0.6-0.4-1.3-0.2-1.6,0.5c-0.2,0.5-0.4,1.1-0.6,1.7c-0.2,0.5,0,1,0.4,1.2l0.1,0.1
		c0.6,0.4,1.3,0.1,1.5-0.6c0.2-0.6,0.4-1.2,0.5-1.7C618.4,201.5,618.2,201.1,617.8,200.8z"/>
	<path d="M615,210.6c-0.2-0.2-0.5-0.3-0.7-0.5c-0.6-0.4-1.3-0.1-1.5,0.5s-0.4,1.2-0.7,1.9c-0.2,0.5,0,1,0.4,1.2
		c0.3,0.2,0.5,0.3,0.8,0.5c0.6,0.4,1.3,0,1.5-0.6s0.3-1.3,0.5-1.9C615.5,211.3,615.3,210.8,615,210.6z"/>
	<path d="M594.2,351.7c-3.9-1.7-7.6-3.2-11.2-4.5c-0.5-0.2-1.1,0.1-1.3,0.6c-0.3,0.9-0.7,1.8-1,2.7c-0.2,0.5,0.1,1.2,0.6,1.3
		c3.5,1.2,7.4,2.7,11.3,4.3c0.6,0.2,1.2-0.1,1.4-0.6c0.3-0.8,0.5-1.7,0.8-2.6C594.9,352.4,594.7,351.9,594.2,351.7z"/>
	<path d="M605.7,252c-1.2-0.7-2.5-1.3-3.7-1.9c-0.6-0.3-1.3,0-1.5,0.7c-0.2,0.8-0.4,1.6-0.6,2.4c-0.1,0.5,0.1,1,0.6,1.2
		c1.3,0.6,2.6,1.2,3.9,1.9c0.6,0.3,1.4-0.1,1.5-0.8c0.1-0.8,0.2-1.6,0.4-2.4C606.3,252.6,606.1,252.2,605.7,252z"/>
	<path d="M620.5,191c-0.3,0.7-0.7,1.6-1.1,2.6c-0.2,0.5,0,1,0.4,1.3c0.2,0.1,0.4,0.3,0.6,0.4c0.3-1.1,0.7-2,0.9-2.8
		c0.1-0.4,0-0.9-0.4-1.2C620.8,191.2,620.6,191.1,620.5,191z"/>
	<path d="M607.6,241.3c-1-0.5-1.9-1.1-2.9-1.6c-0.6-0.3-1.3,0-1.5,0.6c-0.2,0.8-0.4,1.5-0.6,2.3c-0.1,0.5,0.1,1,0.5,1.2
		c1,0.5,2,1,3.1,1.6c0.6,0.3,1.4,0,1.5-0.7c0.1-0.8,0.3-1.5,0.4-2.3C608.2,242,608,241.5,607.6,241.3z"/>
	<path d="M609.8,230.9c-0.7-0.4-1.4-0.8-2.1-1.2c-0.6-0.3-1.3,0-1.5,0.6c-0.2,0.7-0.4,1.4-0.7,2.2c-0.1,0.5,0.1,1,0.5,1.2
		c0.8,0.4,1.5,0.8,2.3,1.2c0.6,0.3,1.3,0,1.5-0.7s0.3-1.5,0.5-2.2C610.4,231.5,610.2,231.1,609.8,230.9z"/>
	<path d="M612.3,220.6c-0.5-0.3-0.9-0.6-1.4-0.8c-0.6-0.3-1.3-0.1-1.5,0.6c-0.2,0.7-0.4,1.3-0.7,2c-0.2,0.5,0,1,0.5,1.2
		c0.5,0.3,1,0.6,1.5,0.9c0.6,0.3,1.3,0,1.5-0.7s0.3-1.4,0.5-2C612.9,221.3,612.7,220.9,612.3,220.6z"/>
	<path d="M398.9,289.7c2.2-1.1,4.4-2,6.5-3c0.4-0.2,0.7-0.6,0.6-1.1c-0.1-0.9-0.2-1.8-0.3-2.7c-0.1-0.7-0.8-1.1-1.4-0.8
		c-2.1,1-4.2,2-6.3,3c-0.4,0.2-0.6,0.6-0.6,1c0,0.9,0.1,1.8,0.1,2.6C397.4,289.6,398.2,290,398.9,289.7z"/>
	<path d="M399.1,301.3c2.5-1.2,5-2.3,7.4-3.3c0.4-0.2,0.7-0.6,0.6-1c-0.1-0.9-0.2-1.8-0.3-2.8c-0.1-0.7-0.8-1.1-1.4-0.9
		c-2.4,1.1-4.8,2.2-7.3,3.5c-0.4,0.2-0.6,0.5-0.6,0.9c0,0.7,0,1.4,0,2c0,0.2,0,0.4,0,0.7C397.6,301.2,398.4,301.6,399.1,301.3z"/>
	<path d="M398.2,278.3c1.9-0.9,3.7-1.8,5.6-2.6c0.4-0.2,0.7-0.6,0.6-1.1c-0.1-0.9-0.3-1.7-0.4-2.6c-0.1-0.7-0.8-1-1.4-0.8
		c-1.8,0.8-3.6,1.7-5.4,2.7c-0.4,0.2-0.6,0.6-0.6,1c0.1,0.9,0.1,1.7,0.2,2.6C396.8,278.2,397.6,278.6,398.2,278.3z"/>
	<path d="M399.6,312.8c2.8-1.3,5.5-2.5,8.2-3.6c0.4-0.2,0.7-0.6,0.6-1.1c-0.1-0.9-0.3-1.8-0.4-2.7c-0.1-0.7-0.8-1.1-1.4-0.8
		c-2.7,1.2-5.4,2.4-8.1,3.8c-0.4,0.2-0.6,0.6-0.6,1c0.1,0.9,0.1,1.8,0.2,2.6C398.2,312.6,399,313.1,399.6,312.8z"/>
	<path d="M423.9,360.6c-0.4-0.8-0.9-1.7-1.3-2.7c-0.2-0.5-0.8-0.7-1.3-0.5c-3.8,1.3-7.8,2.8-12.1,4.6c-0.5,0.2-0.8,0.8-0.6,1.3
		c0.3,0.9,0.7,1.8,1,2.6c0.2,0.5,0.8,0.8,1.3,0.6c4.4-1.7,8.6-3.2,12.3-4.4C423.9,361.8,424.2,361.2,423.9,360.6z"/>
	<path d="M409.7,320.1c0.5-0.2,0.7-0.7,0.6-1.1c-0.2-1-0.4-1.9-0.5-2.9c-0.1-0.4-0.3-0.9-0.9-0.8c-3.3,1.4-5.9,2.6-9.3,4.2
		c-0.4,0.2-0.6,0.6-0.6,1c0.1,0.9,0.2,1.7,0.3,2.6c0.1,0.7,0.8,1.1,1.5,0.8C403.8,322.5,406.8,321.2,409.7,320.1z"/>
	<path d="M415.7,340.2c-0.3-0.9-0.6-1.8-0.8-2.7c-0.2-0.6-0.8-0.9-1.4-0.7c-3.3,1.3-6.8,2.8-10.4,4.4c-0.4,0.2-0.7,0.7-0.6,1.2
		c0.2,0.9,0.4,1.7,0.6,2.6c0.1,0.6,0.8,0.9,1.4,0.7c3.6-1.6,7.2-3,10.5-4.2C415.6,341.2,415.8,340.7,415.7,340.2z"/>
	<path d="M397.1,267.1c1.6-0.8,3.2-1.5,4.7-2.2c0.4-0.2,0.7-0.7,0.6-1.1c-0.2-0.8-0.3-1.7-0.5-2.5c-0.1-0.7-0.9-1-1.5-0.7
		c-1.5,0.7-3,1.5-4.5,2.3c-0.4,0.2-0.6,0.6-0.5,1c0.1,0.8,0.2,1.6,0.3,2.5C395.7,267,396.5,267.4,397.1,267.1z"/>
	<path d="M412.7,329.7c-0.2-0.9-0.4-1.8-0.7-2.7c-0.1-0.6-0.8-1-1.4-0.7c-3.1,1.3-6.3,2.7-9.6,4.3c-0.4,0.2-0.6,0.7-0.6,1.1
		c0.1,0.9,0.3,1.7,0.4,2.6c0.1,0.7,0.8,1,1.4,0.7c3.3-1.5,6.6-2.9,9.7-4.1C412.5,330.7,412.8,330.2,412.7,329.7z"/>
	<path d="M427.9,367.7c-0.3-0.4-0.7-0.6-1.2-0.4c-3.9,1.2-8.5,2.8-13.3,4.7c-0.6,0.2-0.8,0.9-0.5,1.4c1.7,3.5,3,5.5,3.2,5.8
		c2.6,3.6,7.7,4.5,11.3,1.8s4.5-7.7,1.8-11.3C429.4,369.9,428.9,369.2,427.9,367.7z"/>
	<path d="M383.7,201.3c-0.2-0.6-1-0.9-1.5-0.5l0,0c-0.4,0.3-0.5,0.7-0.4,1.1c0.2,0.6,0.3,1.1,0.5,1.7c0.2,0.7,1,0.9,1.5,0.6l0.1-0.1
		c0.4-0.3,0.6-0.8,0.4-1.2C384.1,202.4,383.9,201.8,383.7,201.3z"/>
	<path d="M387.9,212.5c-0.2-0.6-0.4-1.3-0.7-1.9c-0.2-0.6-1-0.9-1.5-0.5c-0.2,0.1-0.5,0.3-0.7,0.5c-0.4,0.2-0.5,0.7-0.4,1.1
		c0.2,0.6,0.3,1.3,0.5,1.9c0.2,0.7,0.9,1,1.5,0.6c0.3-0.2,0.5-0.3,0.8-0.5C387.9,213.5,388.1,213,387.9,212.5z"/>
	<path d="M419.3,350.5c-0.3-0.9-0.7-1.8-1-2.7c-0.2-0.5-0.8-0.8-1.3-0.6c-3.5,1.3-7.3,2.8-11.2,4.5c-0.5,0.2-0.7,0.7-0.6,1.2
		c0.3,0.9,0.5,1.7,0.8,2.6c0.2,0.6,0.8,0.9,1.4,0.6c4-1.7,7.8-3.1,11.3-4.3C419.3,351.6,419.6,351,419.3,350.5z"/>
	<path d="M399.5,254.3c0.4-0.2,0.7-0.7,0.6-1.2c-0.2-0.8-0.4-1.6-0.6-2.4c-0.2-0.6-0.9-1-1.5-0.7c-1.2,0.6-2.5,1.3-3.7,1.9
		c-0.4,0.2-0.6,0.6-0.5,1.1c0.1,0.8,0.3,1.6,0.4,2.4c0.1,0.7,0.9,1.1,1.5,0.8C396.9,255.5,398.2,254.9,399.5,254.3z"/>
	<path d="M379.5,191c-0.1,0.1-0.3,0.2-0.4,0.3c-0.4,0.3-0.5,0.7-0.4,1.2c0.3,0.8,0.6,1.8,0.9,2.8c0.2-0.1,0.4-0.3,0.6-0.4
		c0.4-0.3,0.6-0.8,0.4-1.3C380.2,192.6,379.8,191.7,379.5,191z"/>
	<path d="M396.9,243.8c0.4-0.2,0.7-0.7,0.5-1.2c-0.2-0.8-0.4-1.5-0.6-2.3c-0.2-0.6-0.9-0.9-1.5-0.6c-1,0.5-1.9,1-2.9,1.6
		c-0.4,0.2-0.6,0.7-0.5,1.1c0.1,0.8,0.3,1.5,0.4,2.3c0.1,0.7,0.9,1,1.5,0.7C394.8,244.9,395.8,244.3,396.9,243.8z"/>
	<path d="M394.5,232.4c-0.2-0.7-0.4-1.5-0.7-2.2c-0.2-0.6-0.9-0.9-1.5-0.6c-0.7,0.4-1.4,0.8-2.1,1.2c-0.4,0.2-0.6,0.7-0.5,1.1
		c0.2,0.7,0.3,1.4,0.5,2.2c0.1,0.7,0.9,1,1.5,0.7c0.8-0.4,1.5-0.8,2.3-1.2C394.4,233.4,394.6,232.9,394.5,232.4z"/>
	<path d="M391.3,222.3c-0.2-0.7-0.4-1.4-0.7-2c-0.2-0.6-0.9-0.9-1.5-0.6c-0.5,0.3-0.9,0.6-1.4,0.8c-0.4,0.2-0.6,0.7-0.5,1.1
		c0.2,0.7,0.3,1.4,0.5,2c0.2,0.7,0.9,1,1.5,0.7c0.5-0.3,1-0.6,1.5-0.9C391.3,223.3,391.5,222.8,391.3,222.3z"/>
</g>
</svg>
